<?xml version="1.0" encoding="utf-8"?>
<COLLADA xmlns="http://www.collada.org/2005/11/COLLADASchema" version="1.4.1" xmlns:xsi="http://www.w3.org/2001/XMLSchema-instance">
  <asset>
    <contributor>
      <author>Blender User</author>
      <authoring_tool>Blender 2.90.1 commit date:2020-09-23, commit time:06:43, hash:3e85bb34d0d7</authoring_tool>
    </contributor>
    <created>2023-10-29T00:09:50</created>
    <modified>2023-10-29T00:09:50</modified>
    <unit name="meter" meter="1"/>
    <up_axis>Z_UP</up_axis>
  </asset>
  <library_effects>
    <effect id="medkit-effect">
      <profile_COMMON>
        <newparam sid="medkit_png-surface">
          <surface type="2D">
            <init_from>medkit_png</init_from>
          </surface>
        </newparam>
        <newparam sid="medkit_png-sampler">
          <sampler2D>
            <source>medkit_png-surface</source>
          </sampler2D>
        </newparam>
        <technique sid="common">
          <lambert>
            <emission>
              <color sid="emission">0 0 0 1</color>
            </emission>
            <diffuse>
              <texture texture="medkit_png-sampler" texcoord="UVMap"/>
            </diffuse>
            <index_of_refraction>
              <float sid="ior">1.45</float>
            </index_of_refraction>
          </lambert>
        </technique>
      </profile_COMMON>
    </effect>
  </library_effects>
  <library_images>
    <image id="medkit_png" name="medkit_png">
      <init_from>medkit.png</init_from>
    </image>
  </library_images>
  <library_materials>
    <material id="medkit-material" name="medkit">
      <instance_effect url="#medkit-effect"/>
    </material>
  </library_materials>
  <library_geometries>
    <geometry id="medkit_medium_reference-mesh" name="medkit_medium_reference">
      <mesh>
        <source id="medkit_medium_reference-mesh-positions">
          <float_array id="medkit_medium_reference-mesh-positions-array" count="828">-5.476913 -2.30213 4.074978 -6.48003 -2.301945 3.468914 -5.782145 -2.301945 3.550355 -6.908674 -2.301945 4.028069 -6.724637 -2.30213 4.604084 -5.918336 3.082537 3.786307 -6.126749 3.082537 4.301622 -6.126749 -2.943614 4.301622 -5.774433 3.665882 3.725284 -5.934365 3.862411 4.220041 -5.381283 4.092921 3.558566 -5.408764 4.433318 3.997156 -4.690779 4.642284 3.692689 -4.844231 4.249228 3.330825 -3.972795 4.433318 3.388222 -4.307178 4.092921 3.103084 -3.447193 3.862411 3.165337 -3.914028 3.665882 2.936366 -3.770125 3.082537 2.875342 -3.25481 3.082537 3.083755 -3.770125 -2.943614 2.875342 -3.25481 -2.943614 3.083755 -3.914028 -3.526959 2.936365 -3.447193 -3.723487 3.165337 -3.972795 -4.294393 3.388222 -4.307178 -3.953997 3.103083 -4.690779 -4.50336 3.692689 -4.844231 -4.110303 3.330824 -5.408764 -4.294393 3.997155 -5.381283 -3.953997 3.558566 -5.934365 -3.723487 4.22004 -5.774433 -3.526959 3.725284 -5.918336 -2.943614 3.786307 -5.476913 2.441054 4.074978 -5.782145 2.440869 3.550355 -6.48003 2.440869 3.468914 -6.908674 2.440869 4.028068 -6.724637 2.441054 4.604084 5.783285 -2.943614 24.05411 5.232802 -2.943614 23.97694 5.232802 3.082536 23.97694 5.399646 -3.723487 23.85112 5.908084 -3.526959 23.96 5.855471 -4.294394 23.50738 6.249041 -3.953998 23.70288 6.478139 -4.503361 23.03782 6.714797 -4.110304 23.35165 7.100807 -4.294394 22.56826 7.180553 -3.953998 23.00042 7.556633 -3.723487 22.22452 7.52151 -3.526959 22.7433 7.646309 -2.943614 22.64919 7.723476 -2.943614 22.0987 7.646309 3.082536 22.64919 7.723476 3.082536 22.0987 7.52151 3.665882 22.7433 7.556633 3.86241 22.22452 7.100807 4.433317 22.56826 7.180553 4.09292 23.00042 6.478139 4.642283 23.03782 6.714797 4.249227 23.35165 5.855471 4.433317 23.50738 6.249041 4.09292 23.70288 5.908084 3.665882 23.96 5.399646 3.86241 23.85112 5.783285 3.082536 24.05411 8.029949 -3.723487 22.85217 7.494378 -4.634791 22.76376 8.065072 -3.920016 22.3334 7.574123 -4.294394 23.19591 6.714797 -4.896417 23.35165 6.951455 -4.503361 23.66547 5.935216 -4.634791 23.93954 6.328787 -4.294394 24.13503 5.364523 -3.920016 24.3699 5.872962 -3.723487 24.47877 5.155635 -2.943614 24.52743 5.706118 -2.943614 24.60459 5.155635 3.082536 24.52743 5.706118 3.082536 24.60459 5.364523 4.058938 24.3699 5.872962 3.86241 24.47877 6.328787 4.433317 24.13503 5.935216 4.773713 23.93954 6.714797 5.035339 23.35165 6.951455 4.642283 23.66547 7.574123 4.433317 23.19591 7.494378 4.773713 22.76376 8.065072 4.058938 22.3334 8.029949 3.86241 22.85217 8.196792 3.082536 22.72635 8.27396 3.082536 22.17587 8.27396 -2.943614 22.17587 8.196792 -2.943614 22.72635 4.671918 2.441053 24.3435 4.671918 -2.302131 24.3435 5.078745 -2.301946 24.79089 5.078745 2.440868 24.79089 5.777309 -2.301946 24.69925 5.777309 2.440868 24.69925 6.055721 -2.301946 24.05414 6.055721 2.440868 24.05414 5.754 -2.302131 23.52749 5.754 2.441053 23.52749 8.232353 9.215226 20.7307 7.781004 10.11792 19.94894 7.755496 10.40272 20.16202 7.055568 10.80131 18.95182 7.140807 10.4805 18.84009 -0.85934 10.80131 5.242796 -0.719959 10.4805 5.224843 -1.557438 10.40272 4.031542 -1.360157 10.11792 4.115987 -2.065297 9.387 3.151905 -1.811505 9.215227 3.33423 -2.265511 7.988973 2.807237 -1.992793 7.934832 3.02023 -2.265511 -7.840843 2.807237 -1.992793 -7.786701 3.02023 -2.065297 -9.238869 3.151904 -1.811505 -9.067096 3.334229 -1.557438 -10.25459 4.031542 -1.360157 -9.969792 4.115987 -0.85934 -10.65318 5.242795 -1.142866 10.97022 5.353676 -1.86612 10.55469 4.093947 -2.399819 9.487297 3.169554 -2.61062 8.034712 2.811451 -2.61062 -7.886581 2.81145 -2.399819 -9.339166 3.169554 -1.86612 -10.40656 4.093946 -1.142866 -10.82209 5.353674 6.817781 -10.82209 19.14192 7.055568 -10.65318 18.95182 7.547111 -10.40656 20.39814 -0.719959 -10.33237 5.224843 7.140807 -10.33237 18.84009 7.755496 -10.25459 20.16202 7.781004 -9.969793 19.94894 8.263355 -9.23887 21.04166 8.232353 -9.067097 20.7307 8.461739 -7.840844 21.38738 8.41364 -7.786702 21.0447 8.461739 7.988972 21.38738 8.41364 7.934831 21.0447 8.263355 9.386999 21.04166 7.547111 10.55469 20.39814 6.817781 10.97022 19.14192 8.080809 -9.339167 21.32253 8.285535 -7.886582 21.68414 8.285535 8.034711 21.68414 8.080809 9.487296 21.32253 1.564833 -10.89359 24.42956 0.834691 -11.31257 23.16492 1.038058 -11.51731 23.06535 -7.430514 -11.51731 8.397349 -7.618428 -11.31257 8.523684 -8.201725 -11.07555 7.058003 -8.34857 -10.89359 7.259041 -8.76949 -9.940019 6.074606 -8.875695 -9.839339 6.346035 -8.991917 -8.394507 5.692919 -9.085187 -8.379055 5.983184 -8.991917 8.542637 5.69292 -9.085187 8.527184 5.983185 -8.76949 10.08815 6.074607 -8.875695 9.987469 6.346036 -8.201725 11.22368 7.058004 -8.34857 11.04172 7.259042 -7.430514 11.66544 8.397351 -7.618428 11.4607 8.523686 1.038058 11.66544 23.06535 0.834691 11.4607 23.16492 1.81236 11.22368 24.40291 1.564833 11.04172 24.42956 2.380125 10.08815 25.3863 2.091957 9.987468 25.34257 2.599461 8.542636 25.76978 2.30145 8.527184 25.70542 2.599461 -8.394508 25.76978 2.30145 -8.379055 25.70542 2.380125 -9.94002 25.3863 2.091957 -9.83934 25.34257 1.81236 -11.07555 24.40291 2.183648 12.10191 22.72463 -6.562649 12.10191 7.575598 -6.994581 11.61656 8.186904 -7.764156 11.17683 6.853961 -7.360828 11.64369 6.193111 -8.329535 10.04607 5.874695 -7.947222 10.46539 5.177447 -8.549399 8.506922 5.493879 -8.175258 8.861517 4.782476 -8.549399 -8.358792 5.493879 -8.175258 -8.713387 4.782476 -8.329535 -9.897942 5.874694 -7.947222 -10.31726 5.177446 -7.764156 -11.0287 6.85396 -7.360828 -11.49556 6.19311 -6.994581 -11.46843 8.186902 -6.562649 -11.95378 7.575597 1.438276 -11.46843 22.79304 2.183648 -11.95378 22.72463 2.207851 -11.0287 24.12598 2.981827 -11.49556 24.10712 2.77323 -9.897943 25.10525 3.568221 -10.31726 25.12278 2.993094 -8.358793 25.48606 3.796257 -8.713387 25.51775 2.993094 8.506921 25.48606 3.796257 8.861516 25.51775 2.77323 10.04607 25.10525 3.568221 10.46539 25.12278 2.207851 11.17683 24.12598 2.981827 11.64369 24.10712 1.438276 11.61656 22.79304 2.734579 12.03024 22.34637 -5.959598 12.03024 7.28761 -6.753021 11.57475 5.913361 -7.33592 10.40346 4.90375 -7.562597 8.809152 4.511133 -7.562597 -8.661022 4.511132 -7.33592 -10.25533 4.903749 -6.753021 -11.42662 5.91336 -5.959598 -11.88211 7.287609 2.734579 -11.88211 22.34637 3.528002 -11.42662 23.72061 4.110901 -10.25533 24.73023 4.337578 -8.661023 25.12284 4.337578 8.809151 25.12284 4.110901 10.40346 24.73023 3.528002 11.57475 23.72061 2.655252 11.60526 22.08089 -5.769353 11.60526 7.489046 -6.538176 11.16597 6.157407 -7.103001 10.03631 5.1791 -7.32265 8.498671 4.798656 -7.32265 -8.350541 4.798656 -7.103001 -9.888185 5.1791 -6.538176 -11.01784 6.157406 -5.769353 -11.45713 7.489045 2.655252 -11.45713 22.08089 3.424075 -11.01784 23.41253 3.9889 -9.888187 24.39084 4.208549 -8.350542 24.77128 4.208549 8.49867 24.77128 3.9889 10.03631 24.39084 3.424075 11.16597 23.41253 -4.997682 4.642284 2.968961 -3.945314 4.773714 2.949632 -4.279697 4.433318 2.664494 -3.754096 3.862411 2.441608 -3.287261 4.058939 2.67058 -3.046396 3.082537 2.56844 -3.561712 3.082537 2.360027 -3.561712 -2.943613 2.360026 -3.046396 -2.943613 2.568439 -3.287261 -3.920015 2.67058 -3.754096 -3.723486 2.441608 -4.279697 -4.294393 2.664493 -3.945314 -4.63479 2.949632 -4.997682 -4.50336 2.96896 -4.844231 -4.896416 3.330823 -5.715667 -4.294393 3.273427 -5.743147 -4.63479 3.712017 -6.241268 -3.723487 3.496312 -6.4012 -3.920015 3.991069 -6.433651 -2.943614 3.577894 -6.642065 -2.943614 4.093209 -6.433651 3.082537 3.577894 -6.642065 3.082537 4.093209 -6.241268 3.862411 3.496312 -6.4012 4.058939 3.991071 -5.743147 4.773714 3.712018 -5.715667 4.433318 3.273427 -4.844231 5.03534 3.330825</float_array>
          <technique_common>
            <accessor source="#medkit_medium_reference-mesh-positions-array" count="276" stride="3">
              <param name="X" type="float"/>
              <param name="Y" type="float"/>
              <param name="Z" type="float"/>
            </accessor>
          </technique_common>
        </source>
        <source id="medkit_medium_reference-mesh-normals">
          <float_array id="medkit_medium_reference-mesh-normals-array" count="1608">-6.52812e-5 -1 -2.5014e-4 -9.15624e-5 -1 -1.5387e-4 4.41518e-5 -1 -3.78654e-4 -1.22613e-4 -1 -2.01534e-4 -1.19953e-4 -1 -2.82509e-4 0.9229973 -0.0934208 0.3732944 0.9229871 -0.09353482 0.373291 0.922985 0.09356129 0.3732895 0.8398348 -0.3535542 0.411919 0.8398344 -0.3535546 0.4119193 0.6015552 -0.6123721 0.5129638 0.6015551 -0.6123718 0.5129643 0.2760589 -0.7071069 0.6509925 0.2760596 -0.7071066 0.6509927 -0.04943728 -0.6123718 0.7890227 -0.04943746 -0.612371 0.7890233 -0.2877171 -0.3535534 0.8900669 -0.2877165 -0.3535534 0.890067 -0.3732955 -0.09340411 0.9229986 -0.3732894 -0.0935595 0.9229853 -0.3732944 0.09342128 0.9229972 -0.3732912 0.09353482 0.9229871 -0.2877187 0.353554 0.890066 -0.2877187 0.3535541 0.8900661 -0.04943871 0.6123737 0.7890211 -0.04943871 0.6123734 0.7890215 0.2760584 0.7071069 0.6509928 0.276059 0.7071064 0.6509932 0.6015549 0.6123721 0.5129641 0.6015551 0.6123723 0.5129637 0.8398346 0.3535543 0.4119191 0.8398347 0.3535543 0.4119188 0.9229958 0.09343475 0.3732946 0.5480765 0 -0.8364282 0.8643507 0 -0.5028896 0.8643507 0 -0.5028896 0.5480769 0 -0.8364279 -0.3896902 0 -0.9209461 -0.3896892 -1.48697e-7 -0.9209465 -0.9851859 0 -0.1714905 -0.9851858 -1.5343e-7 -0.171491 -0.9525625 1.52837e-7 0.3043433 -0.9525624 0 0.3043434 -1.33469e-4 1 -2.1949e-4 -4.72955e-5 1 -1.72955e-4 3.97593e-5 1 -2.1917e-4 -6.00662e-5 1 -2.29195e-4 -1.19952e-4 1 -2.828e-4 0.1382153 0.09347224 -0.9859815 0.1382163 0.09349292 -0.9859794 0.1382147 -0.09351378 -0.9859777 0.06318467 0.3535533 -0.933278 0.06318438 0.3535534 -0.933278 -0.14346 0.6123724 -0.7774441 -0.1434589 0.6123725 -0.7774443 -0.425746 0.7071068 -0.5645709 -0.4257465 0.7071071 -0.5645702 -0.7080312 0.6123735 -0.3516965 -0.7080329 0.6123722 -0.3516955 -0.9146794 0.3535528 -0.1958627 -0.9146796 0.3535518 -0.1958634 -0.9859796 0.09349513 -0.1382137 -0.9859777 0.09351307 -0.1382145 -0.985982 -0.09346765 -0.1382154 -0.9859758 -0.0935344 -0.1382141 -0.9146794 -0.3535526 -0.1958629 -0.9146801 -0.353551 -0.1958627 -0.708032 -0.6123725 -0.3516971 -0.7080314 -0.6123731 -0.3516971 -0.4257476 -0.7071077 -0.5645685 -0.4257476 -0.7071073 -0.5645692 -0.1434612 -0.6123725 -0.777444 -0.1434608 -0.6123711 -0.777445 0.06318318 -0.3535535 -0.9332781 0.06318455 -0.3535534 -0.933278 0.1382145 -0.09349536 -0.9859794 0.9146792 -0.3535526 0.1958636 0.7080335 -0.6123707 0.351697 0.9146789 -0.3535532 0.1958637 0.7080338 -0.6123703 0.351697 0.425747 -0.7071059 0.5645714 0.425747 -0.7071063 0.564571 0.1434623 -0.6123723 0.7774438 0.1434624 -0.6123723 0.7774437 -0.06318271 -0.3535521 0.9332786 -0.06318348 -0.3535518 0.9332786 -0.1382153 -0.09348511 0.9859803 -0.1382163 -0.09347337 0.9859813 -0.1382151 0.09349632 0.9859792 -0.1382151 0.09348517 0.9859803 -0.06318467 0.3535524 0.9332783 -0.06318354 0.3535522 0.9332785 0.1434614 0.6123726 0.7774437 0.1434623 0.6123729 0.7774432 0.4257457 0.7071068 0.5645713 0.4257448 0.7071065 0.5645722 0.7080321 0.6123723 0.351697 0.7080323 0.6123727 0.3516958 0.9146792 0.3535526 0.1958635 0.9146795 0.353552 0.1958637 0.9859774 0.09351533 0.1382159 0.9859768 0.09352326 0.1382146 0.9859789 -0.09350121 0.1382145 0.9859834 -0.09345299 0.1382153 -0.7398483 0 0.6727738 -0.7398503 0 0.6727716 -0.344079 0 0.9389407 -0.3440755 0 0.9389421 0.6027171 0 0.797955 0.6027195 0 0.7979532 0.9984064 0 -0.05643439 0.9984062 0 -0.05643635 0.8676906 0 -0.4971048 0.8676895 0 -0.4971066 0.9632095 0.1828054 -0.1970019 0.8989406 0.3112006 -0.3083181 0.8278013 0.5511454 -0.104803 0.700285 0.6475017 -0.3005706 0.8300387 0.3668292 -0.4200857 0.6104275 0.6475216 -0.4561734 0.7794414 0.3670426 -0.5076916 0.5046489 0.5511564 -0.664497 0.71648 0.3111988 -0.6243491 0.3906603 0.32314 -0.8619543 0.6519327 0.1818552 -0.736147 0.3316116 0.08984082 -0.9391285 0.621003 0.05107039 -0.7821427 0.3315904 -0.08984392 -0.9391357 0.6210063 -0.05111598 -0.782137 0.3906434 -0.3231477 -0.861959 0.6519343 -0.1818575 -0.7361451 0.5046208 -0.5511826 -0.6644966 0.7164816 -0.3112003 -0.6243464 0.6104437 -0.6475013 -0.4561804 0.3731098 0.8579807 -0.3530699 0.2344199 0.7367014 -0.6342858 0.08208274 0.4319967 -0.8981322 0.003717482 0.1191399 -0.9928705 0.003720164 -0.1191619 -0.9928679 0.08208709 -0.4320088 -0.8981259 0.2344244 -0.7367078 -0.6342768 0.3731194 -0.8579841 -0.3530513 0.4923502 -0.857972 -0.1465451 0.7002712 -0.6475224 -0.3005579 0.6664946 -0.7367278 0.1140931 0.7792735 -0.3669853 -0.5079908 0.8300379 -0.366829 -0.4200878 0.8277968 -0.551155 -0.1047891 0.8989642 -0.3111737 -0.3082762 0.9417924 -0.3231602 0.09270799 0.9632095 -0.1828041 -0.197003 0.9791057 -0.0898441 0.182429 0.9879145 -0.05029404 -0.1466138 0.9791103 0.08984351 0.1824043 0.9879392 0.04995411 -0.1465629 0.9417999 0.3231481 0.09267276 0.6664875 0.7367359 0.1140821 0.4923381 0.8579756 -0.1465641 0.818798 -0.4321759 0.3778811 0.8617118 -0.1190891 0.4932249 0.8617131 0.1190602 0.4932295 0.8187937 0.4321902 0.3778735 -0.396204 -0.635985 0.6622278 -0.5300698 -0.7334441 0.4255417 -0.5300157 -0.7334328 0.4256287 -0.6335162 -0.7334558 0.2463734 -0.6336805 -0.733417 0.246066 -0.7716642 -0.6359188 0.01190626 -0.7715219 -0.6360865 0.01216149 -0.9019466 -0.3752446 -0.2137382 -0.9018853 -0.3754482 -0.2136391 -0.9485391 -0.1034961 -0.2992694 -0.9485267 -0.1036436 -0.2992577 -0.9485396 0.1034923 -0.2992695 -0.948527 0.1036405 -0.2992576 -0.9019317 0.3752937 -0.2137148 -0.90187 0.3754991 -0.2136138 -0.7716627 0.6359205 0.01190859 -0.7715194 0.6360896 0.0121662 -0.6335188 0.733455 0.2463691 -0.6337058 0.7334112 0.2460184 -0.530018 0.7334333 0.4256249 -0.5300449 0.7334391 0.4255815 -0.3962357 0.6360204 0.6621749 -0.3961998 0.6359805 0.6622346 -0.2659564 0.3755616 0.887818 -0.2658516 0.3751767 0.888012 -0.2150998 0.103646 0.9710766 -0.2150946 0.1034435 0.9710993 -0.2150993 -0.1036428 0.971077 -0.2150938 -0.1034418 0.9710997 -0.2659574 -0.3755646 0.8878164 -0.2658652 -0.3752273 0.8879867 -0.3962385 -0.6360235 0.6621701 -0.4742704 0.7852687 0.3980212 -0.5818373 0.7852658 0.2117145 -0.5818424 0.7852634 0.2117097 -0.7581684 0.6520537 -0.002582669 -0.7581498 0.6520756 -0.002553641 -0.8874295 0.3837834 -0.2553026 -0.8874222 0.3837914 -0.2553159 -0.9014754 0.1103516 -0.418527 -0.9014766 0.1103589 -0.4185225 -0.901477 -0.1103708 -0.4185183 -0.901476 -0.1103537 -0.418525 -0.8874256 -0.3837764 -0.2553265 -0.8874184 -0.3838081 -0.2553036 -0.7581681 -0.6520541 -0.002581357 -0.7581719 -0.6520497 -0.00258553 -0.5818616 -0.7852552 0.211687 -0.5818314 -0.7852685 0.2117207 -0.4742669 -0.7852637 0.398035 -0.4742686 -0.785266 0.3980284 -0.3768485 -0.6520526 0.6578851 -0.3768443 -0.652047 0.657893 -0.2226166 -0.3837833 0.8961876 -0.2226005 -0.3837922 0.8961879 -0.08830326 -0.1103982 0.989957 -0.08828622 -0.1103608 0.9899626 -0.08829176 0.1103713 0.989961 -0.08828294 0.1103556 0.9899636 -0.2226158 0.3838181 0.8961729 -0.2225881 0.383767 0.8962017 -0.3768497 0.6520535 0.6578834 -0.3768478 0.6520495 0.6578885 -0.4742581 0.7852545 0.3980638 0.1700769 0.9835193 0.06134951 0.0319091 0.9835196 -0.1779639 0.03186231 0.9835041 -0.178058 -0.1350644 0.8532352 -0.5037334 -0.1350631 0.8531936 -0.5038042 -0.3109316 0.5008223 -0.807774 -0.3109702 0.500703 -0.807833 -0.3913124 0.1370822 -0.9099907 -0.3913288 0.136953 -0.9100031 -0.3913078 -0.1371177 -0.9099875 -0.3913292 -0.1369514 -0.9100032 -0.3109321 -0.5008206 -0.8077748 -0.3109422 -0.5007026 -0.8078439 -0.1350871 -0.8532063 -0.5037762 -0.1350938 -0.8531979 -0.5037887 0.03185528 -0.9835017 -0.1780722 0.03190827 -0.9835191 -0.1779664 0.1701343 -0.9835039 0.06143659 0.1700767 -0.9835193 0.06134909 0.3687384 -0.8532074 0.3688755 0.3687776 -0.8531931 0.3688697 0.5441114 -0.5007301 0.6732104 0.5440816 -0.5008415 0.6731516 0.5924184 -0.1370819 0.7938824 0.5924208 -0.1369531 0.7939028 0.5924186 0.1370674 0.7938846 0.5924207 0.1369515 0.7939031 0.5441119 0.5007282 0.6732115 0.5441054 0.5008405 0.6731331 0.3687151 0.853234 0.3688374 0.3687468 0.853198 0.368889 0.1701419 0.9835019 0.06144797 0.8667001 0.1378538 -0.4794031 0.848581 0.137929 -0.5107699 0.8485217 0.1378464 -0.5108908 0.8283531 0.1072297 -0.5498482 0.828266 0.1070863 -0.5500074 0.8022049 0.06357032 -0.593655 0.8021405 0.06345909 -0.5937538 0.7780993 0.01969003 -0.6278326 0.7781071 0.01970517 -0.6278225 0.7781131 -0.01971787 -0.6278146 0.7781017 -0.01969438 -0.6278297 0.8021989 -0.06356126 -0.5936639 0.802137 -0.0634495 -0.5937595 0.8283654 -0.1072428 -0.5498271 0.8282949 -0.107136 -0.5499541 0.8485229 -0.1378486 -0.5108885 0.8485617 -0.1379023 -0.5108093 0.8666822 -0.1378727 -0.4794299 0.866699 -0.1378549 -0.4794048 0.8904167 -0.1071345 -0.4423578 0.8903124 -0.1072925 -0.4425292 0.9152547 -0.06350171 -0.3978399 0.9152281 -0.06355744 -0.3978922 0.932757 -0.0197274 -0.3599657 0.9327763 -0.01966792 -0.3599189 0.9327608 0.01971632 -0.3599566 0.9327678 0.01969414 -0.3599396 0.9152589 0.06349188 -0.3978316 0.9152312 0.06355202 -0.3978858 0.8904461 0.1070953 -0.4423083 0.8903393 0.1072473 -0.4424863 0.8666804 0.1378751 -0.4794327 0.02630996 0.9843659 -0.1741596 0.1639961 0.984362 0.06431692 0.1640349 0.9843518 0.06437605 0.3615848 0.8550185 0.3717526 0.3616537 0.8549405 0.3718647 0.5377623 0.5026682 0.6768579 0.5376669 0.5029515 0.6767232 0.5873282 0.1377218 0.7975453 0.587328 0.137736 0.7975428 0.5873284 -0.1377174 0.7975458 0.5873274 -0.1377477 0.7975412 0.5377361 -0.5026955 0.6768583 0.5376758 -0.5029187 0.6767404 0.3616191 -0.8550024 0.371756 0.361648 -0.8549472 0.371855 0.1639817 -0.9843658 0.06429481 0.1640448 -0.9843491 0.06439065 0.02626723 -0.9843519 -0.174245 0.02629923 -0.9843623 -0.1741818 -0.1411435 -0.8550328 -0.4989966 -0.1412329 -0.8549206 -0.4991633 -0.3172963 -0.5027325 -0.804104 -0.3172235 -0.5028746 -0.804044 -0.3970182 -0.1378234 -0.9074037 -0.3970351 -0.1376861 -0.9074171 -0.3970378 0.137667 -0.9074189 -0.3970152 0.1378485 -0.907401 -0.3172417 0.5029021 -0.8040194 -0.3172846 0.5027689 -0.8040859 -0.1411745 0.8549945 -0.4990534 -0.1411728 0.8549602 -0.4991126 0.02625834 0.984349 -0.1742627 1.41774e-4 -1 1.88044e-4 1.84995e-4 -1 2.45313e-4 1.84996e-4 -1 2.45406e-4 1.412e-4 -1 1.87208e-4 0 -1 0 0.6078406 -0.1371438 0.7821263 0.6078405 0.1371577 0.7821239 0.6078385 0.1373249 0.7820961 0.5613304 0.5006015 0.6590193 0.5613739 0.5005571 0.659016 0.3859571 0.8513674 0.3552612 0.38589 0.8514423 0.3551551 0.1858663 0.981239 0.05122268 0.1857935 0.9812584 0.05111509 0.04862499 0.9812569 -0.186469 0.04858869 0.9812446 -0.1865428 -0.1146285 0.8514418 -0.5117688 -0.1146486 0.8513629 -0.5118955 -0.2900627 0.5006019 -0.8156356 -0.2900609 0.5006077 -0.8156328 -0.3734076 0.1372439 -0.917459 -0.3734115 0.1372144 -0.9174618 -0.3734171 -0.1371746 -0.9174655 -0.3734052 -0.1372572 -0.9174579 -0.2900607 -0.5006084 -0.8156323 -0.2900406 -0.5005497 -0.8156755 -0.1146257 -0.8514451 -0.5117639 -0.1147124 -0.851335 -0.5119276 0.04857254 -0.9812391 -0.1865764 0.0486294 -0.9812583 -0.1864597 0.1857993 -0.981257 0.05112367 0.1858456 -0.9812445 0.05119258 0.3858872 -0.8514456 0.3551503 0.3860201 -0.8513301 0.3552828 0.5613428 -0.5005539 0.6590448 0.5613285 -0.500608 0.659016 0.6078386 -0.1373137 0.7820979 1.412e-4 1 1.87281e-4 1.84995e-4 1 2.45539e-4 1.84996e-4 1 2.45406e-4 1.41774e-4 1 1.88151e-4 0 1 -2.80404e-7 -0.06318336 -0.3535531 0.9332782 0.1434636 -0.6123718 0.777444 0.1434614 -0.6123721 0.7774443 0.4257476 -0.7071067 0.5645699 0.4257479 -0.7071065 0.56457 0.7080326 -0.6123718 0.3516968 0.7080327 -0.6123718 0.3516966 0.9146794 -0.3535529 0.1958619 0.9146795 -0.3535531 0.1958615 0.9859795 -0.09349483 0.1382148 0.9859777 -0.09351342 0.1382145 0.9859776 0.09351217 0.1382161 0.9859758 0.09353452 0.1382144 0.9146789 0.3535543 0.1958619 0.9146794 0.3535534 0.1958618 0.7080336 0.6123715 0.3516952 0.7080338 0.6123709 0.3516961 0.4257482 0.7071058 0.5645707 0.4257472 0.7071058 0.5645714 0.1434664 0.6123722 0.7774431 0.1434629 0.6123725 0.7774435 -0.06318265 0.3535531 0.9332782 -0.06318497 0.3535535 0.9332779 -0.1382133 0.09351491 0.9859778 -0.138215 0.09347945 0.9859809 -0.1382146 -0.09347122 0.9859817 -0.1382147 -0.09349256 0.9859797 -0.063183 -0.3535534 0.9332781 0.8660255 0 -0.5 0.8660258 -3.64247e-7 -0.4999995 0.866026 1.42208e-6 -0.4999992 0.8660253 -1.66341e-7 -0.5000003 0.8660253 0 -0.5000002 0.8660253 4.67107e-7 -0.5000004 0.8660255 0 -0.5000001 0.8660256 -2.72248e-7 -0.4999997 0.8660256 -1.69799e-7 -0.4999998 0.8660259 0 -0.4999994 0.8660258 0 -0.4999995 0.8660247 0 -0.5000013 0.8660264 0 -0.4999985 0.8660255 0 -0.5 0.8660259 0 -0.4999992 0.8660252 0 -0.5000004 0.06318622 0.3535537 -0.9332777 -0.1434599 0.6123731 -0.7774435 -0.1434614 0.6123731 -0.7774433 -0.4257454 0.7071079 -0.5645699 -0.4257449 0.7071075 -0.5645709 -0.7080326 0.612372 -0.3516964 -0.7080329 0.6123714 -0.351697 -0.9146791 0.3535533 -0.1958631 -0.9146789 0.3535535 -0.1958637 -0.9859758 0.09353482 -0.1382141 -0.9859814 0.09347325 -0.1382158 -0.9859796 -0.0934962 -0.138213 -0.9859803 -0.09348529 -0.1382149 -0.9146795 -0.3535522 -0.1958625 -0.9146792 -0.3535528 -0.1958633 -0.7080327 -0.6123713 -0.3516975 -0.7080323 -0.6123719 -0.3516975 -0.4257471 -0.7071069 -0.56457 -0.4257476 -0.7071069 -0.5645696 -0.143463 -0.6123719 -0.777444 -0.143464 -0.612372 -0.7774438 0.06318461 -0.3535538 -0.9332777 0.06318396 -0.3535538 -0.9332779 0.1382175 -0.09348553 -0.98598 0.1382148 -0.09349668 -0.9859793 0.1382151 0.09347343 -0.9859814 0.1382153 0.09348535 -0.9859803 0.06318777 0.353554 -0.9332776 -0.8660253 0 0.5000004 -0.8660254 0 0.5 -0.8660233 0 0.5000039 -0.8660253 0 0.5000001 -0.8660253 0 0.5000002 -0.8660259 0 0.4999992 -0.8660256 0 0.4999998 -0.8660252 -1.91189e-7 0.5000004 -0.8660253 -1.74075e-7 0.5000002 -0.8660254 0 0.5000001 -0.8660254 2.80035e-7 0.5000002 -0.8660254 1.5744e-7 0.5000001 -0.8660262 -4.30964e-7 0.4999986 -0.8660254 0 0.5 -0.8660253 0 0.5000001 -0.8660236 -4.34365e-7 0.5000031 -0.2760587 0.7071073 -0.6509923 0.04943758 0.6123722 -0.7890224 0.04943758 0.6123718 -0.7890228 0.2877181 0.3535534 -0.8900666 0.2877182 0.3535537 -0.8900663 0.373288 0.09355092 -0.9229866 0.3732933 0.09345221 -0.9229945 0.3732948 -0.09341633 -0.9229975 0.3732889 -0.09357368 -0.922984 0.2877176 -0.353554 -0.8900664 0.2877181 -0.3535537 -0.8900665 0.04943788 -0.6123726 -0.789022 0.04943758 -0.6123722 -0.7890223 -0.2760586 -0.7071049 -0.650995 -0.2760587 -0.7071049 -0.6509949 -0.6015553 -0.6123723 -0.5129635 -0.6015553 -0.6123725 -0.5129632 -0.8398352 -0.3535534 -0.4119186 -0.8398348 -0.3535537 -0.4119193 -0.9230002 -0.09338647 -0.3732957 -0.9229859 -0.09354716 -0.3732907 -0.9229962 0.09342253 -0.3732967 -0.9229872 0.09353488 -0.3732908 -0.8398351 0.3535547 -0.4119177 -0.8398354 0.3535553 -0.4119168 -0.6015548 0.6123736 -0.5129624 -0.6015544 0.6123737 -0.5129628 -0.2760589 0.7071075 -0.6509919 -0.8398352 -0.3535534 -0.4119187 -0.6015546 -0.6123723 -0.5129641 -0.6015551 -0.6123722 -0.5129637 -0.276058 -0.7071068 -0.650993 -0.276058 -0.7071068 -0.6509931 0.04943823 -0.6123721 -0.7890225 0.04943811 -0.612372 -0.7890225 0.2877181 -0.3535535 -0.8900664 0.2877183 -0.3535532 -0.8900665 0.3732906 -0.09353476 -0.9229873 0.3732938 -0.09342128 -0.9229974 0.3732901 0.09355992 -0.9229848 0.3732949 0.09340411 -0.9229988 0.2877181 0.3535541 -0.8900662 0.2877176 0.353554 -0.8900663 0.04943859 0.6123731 -0.7890216 0.0494374 0.6123729 -0.7890218 -0.2760592 0.7071062 -0.6509932 -0.2760595 0.707106 -0.6509933 -0.6015545 0.6123722 -0.5129645 -0.6015539 0.6123731 -0.5129641 -0.839835 0.3535539 -0.4119185 -0.8398349 0.3535547 -0.4119182 -0.9229968 0.09342706 -0.3732939 -0.9229869 0.09353905 -0.3732905 -0.9229849 -0.09356153 -0.3732897 -0.9229961 -0.09343475 -0.3732938 -0.8398352 -0.353554 -0.4119181 0.6015542 -0.6123727 0.5129643 0.2760585 -0.7071071 0.6509925 0.6015542 -0.6123725 0.5129646 0.8398348 -0.3535536 0.4119191 0.8398349 -0.3535537 0.4119186 0.9229869 -0.09353476 0.3732916 0.9229969 -0.09342312 0.3732945 0.9229863 0.0935471 0.3732899 0.9229952 0.09343606 0.3732957 0.8398348 0.3535535 0.4119191 0.8398354 0.3535532 0.4119185 0.6015546 0.6123726 0.5129638 0.6015551 0.6123726 0.5129633 0.2760589 0.7071066 0.650993 0.276059 0.707107 0.6509925 -0.04943758 0.6123721 0.7890225 -0.04943734 0.6123724 0.7890222 -0.2877157 0.3535526 0.8900676 -0.2877166 0.3535522 0.8900674 -0.3732938 0.09343498 0.9229961 -0.3732907 0.09354561 0.922986 -0.3732948 -0.09342408 0.9229968 -0.3732908 -0.09353512 0.9229872 -0.2877165 -0.3535534 0.890067 -0.2877164 -0.3535528 0.8900673 -0.04943764 -0.6123718 0.7890228 -0.04943764 -0.6123718 0.7890227 0.2760589 -0.7071074 0.6509922</float_array>
          <technique_common>
            <accessor source="#medkit_medium_reference-mesh-normals-array" count="536" stride="3">
              <param name="X" type="float"/>
              <param name="Y" type="float"/>
              <param name="Z" type="float"/>
            </accessor>
          </technique_common>
        </source>
        <source id="medkit_medium_reference-mesh-map-0">
          <float_array id="medkit_medium_reference-mesh-map-0-array" count="3216">0.612282 0.499026 0.627021 0.519268 0.61395 0.511886 0.612282 0.499026 0.640093 0.511804 0.627021 0.519268 0.612282 0.499026 0.641238 0.498935 0.640093 0.511804 0.850026 0.509596 0.856901 0.509596 0.856901 0.40446 0.847299 0.519773 0.856901 0.509596 0.850026 0.509596 0.847299 0.519773 0.853255 0.523202 0.856901 0.509596 0.839849 0.527223 0.853255 0.523202 0.847299 0.519773 0.839849 0.527223 0.843295 0.533162 0.853255 0.523202 0.829689 0.536808 0.843295 0.533162 0.839849 0.527223 0.829689 0.536808 0.839849 0.527223 0.829671 0.52995 0.816083 0.533162 0.829689 0.536808 0.829671 0.52995 0.816083 0.533162 0.829671 0.52995 0.819494 0.527223 0.806123 0.523202 0.816083 0.533162 0.819494 0.527223 0.806123 0.523202 0.819494 0.527223 0.812044 0.519773 0.806123 0.523202 0.812044 0.519773 0.809316 0.509596 0.806123 0.523202 0.809316 0.509596 0.802477 0.509596 0.802477 0.509596 0.809316 0.509596 0.809316 0.40446 0.802477 0.509596 0.809316 0.40446 0.802477 0.40446 0.812044 0.394283 0.802477 0.40446 0.809316 0.40446 0.812044 0.394283 0.806123 0.390854 0.802477 0.40446 0.812044 0.394283 0.816083 0.380894 0.806123 0.390854 0.812044 0.394283 0.819494 0.386833 0.816083 0.380894 0.819494 0.386833 0.829689 0.377248 0.816083 0.380894 0.819494 0.386833 0.829671 0.384106 0.829689 0.377248 0.829671 0.384106 0.843295 0.380894 0.829689 0.377248 0.829671 0.384106 0.839849 0.386833 0.843295 0.380894 0.839849 0.386833 0.853255 0.390854 0.843295 0.380894 0.839849 0.386833 0.847299 0.394283 0.853255 0.390854 0.847299 0.394283 0.856901 0.40446 0.853255 0.390854 0.847299 0.394283 0.850026 0.40446 0.856901 0.40446 0.850026 0.509596 0.856901 0.40446 0.850026 0.40446 0.679426 0.369041 0.668422 0.451789 0.668422 0.369037 0.679426 0.369041 0.679426 0.451786 0.668422 0.451789 0.69092 0.369041 0.679426 0.451786 0.679426 0.369041 0.69092 0.369041 0.69092 0.451786 0.679426 0.451786 0.702491 0.369041 0.69092 0.451786 0.69092 0.369041 0.702491 0.369041 0.702491 0.451786 0.69092 0.451786 0.702491 0.451786 0.702491 0.369041 0.713164 0.369037 0.702491 0.451786 0.713164 0.369037 0.713164 0.451789 0.641238 0.498935 0.627021 0.519268 0.640093 0.511804 0.641238 0.498935 0.61395 0.511886 0.627021 0.519268 0.641238 0.498935 0.612282 0.499026 0.61395 0.511886 0.530425 0.505204 0.52355 0.505204 0.52355 0.400068 0.527196 0.51881 0.52355 0.505204 0.530425 0.505204 0.527196 0.51881 0.530425 0.505204 0.533152 0.515381 0.537156 0.52877 0.527196 0.51881 0.533152 0.515381 0.537156 0.52877 0.533152 0.515381 0.540602 0.522831 0.550762 0.532416 0.537156 0.52877 0.540602 0.522831 0.550762 0.532416 0.540602 0.522831 0.55078 0.525558 0.564368 0.52877 0.550762 0.532416 0.55078 0.525558 0.564368 0.52877 0.55078 0.525558 0.560957 0.522831 0.574328 0.51881 0.564368 0.52877 0.560957 0.522831 0.574328 0.51881 0.560957 0.522831 0.568408 0.515381 0.571134 0.505204 0.574328 0.51881 0.568408 0.515381 0.571134 0.505204 0.577974 0.505204 0.574328 0.51881 0.577974 0.505204 0.571134 0.505204 0.571134 0.400068 0.577974 0.505204 0.571134 0.400068 0.577974 0.400068 0.577974 0.400068 0.571134 0.400068 0.568408 0.389891 0.577974 0.400068 0.568408 0.389891 0.574328 0.386462 0.568408 0.389891 0.564368 0.376502 0.574328 0.386462 0.568408 0.389891 0.560957 0.382441 0.564368 0.376502 0.560957 0.382441 0.550762 0.372856 0.564368 0.376502 0.560957 0.382441 0.55078 0.379714 0.550762 0.372856 0.55078 0.379714 0.537156 0.376502 0.550762 0.372856 0.55078 0.379714 0.540602 0.382441 0.537156 0.376502 0.533152 0.389891 0.537156 0.376502 0.540602 0.382441 0.533152 0.389891 0.527196 0.386462 0.537156 0.376502 0.530425 0.400068 0.527196 0.386462 0.533152 0.389891 0.530425 0.400068 0.52355 0.400068 0.527196 0.386462 0.530425 0.505204 0.52355 0.400068 0.530425 0.400068 0.650866 0.51881 0.644317 0.534709 0.656787 0.522239 0.650866 0.51881 0.640906 0.52877 0.644317 0.534709 0.640906 0.52877 0.627282 0.539273 0.644317 0.534709 0.640906 0.52877 0.6273 0.532416 0.627282 0.539273 0.6273 0.532416 0.610247 0.534709 0.627282 0.539273 0.6273 0.532416 0.613694 0.52877 0.610247 0.534709 0.613694 0.52877 0.597777 0.522239 0.610247 0.534709 0.613694 0.52877 0.603734 0.51881 0.597777 0.522239 0.603734 0.51881 0.593213 0.505204 0.597777 0.522239 0.603734 0.51881 0.600088 0.505204 0.593213 0.505204 0.600088 0.505204 0.593213 0.400068 0.593213 0.505204 0.600088 0.505204 0.600088 0.400068 0.593213 0.400068 0.600088 0.400068 0.597777 0.383034 0.593213 0.400068 0.600088 0.400068 0.603734 0.386462 0.597777 0.383034 0.597777 0.383034 0.603734 0.386462 0.613694 0.376502 0.597777 0.383034 0.613694 0.376502 0.610247 0.370563 0.627282 0.365999 0.610247 0.370563 0.613694 0.376502 0.627282 0.365999 0.613694 0.376502 0.6273 0.372856 0.640906 0.376502 0.627282 0.365999 0.6273 0.372856 0.640906 0.376502 0.644317 0.370563 0.627282 0.365999 0.640906 0.376502 0.656787 0.383034 0.644317 0.370563 0.640906 0.376502 0.650866 0.386462 0.656787 0.383034 0.656787 0.383034 0.650866 0.386462 0.654512 0.400068 0.656787 0.383034 0.654512 0.400068 0.661351 0.400068 0.661351 0.505204 0.661351 0.400068 0.654512 0.400068 0.661351 0.505204 0.654512 0.400068 0.654512 0.505204 0.661351 0.505204 0.654512 0.505204 0.650866 0.51881 0.661351 0.505204 0.650866 0.51881 0.656787 0.522239 0.667287 0.457874 0.667287 0.540626 0.67796 0.540623 0.667287 0.457874 0.67796 0.540623 0.67796 0.457878 0.68953 0.540623 0.67796 0.457878 0.67796 0.540623 0.68953 0.540623 0.68953 0.457878 0.67796 0.457878 0.701024 0.540623 0.68953 0.457878 0.68953 0.540623 0.701024 0.540623 0.701024 0.457878 0.68953 0.457878 0.712029 0.540626 0.701024 0.457878 0.701024 0.540623 0.712029 0.540626 0.712029 0.457874 0.701024 0.457878 0.924649 0.065907 0.93381 0.07506799 0.938899 0.07134199 0.93381 0.07506799 0.943029 0.08582699 0.938899 0.07134199 0.93381 0.07506799 0.937489 0.08806198 0.943029 0.08582699 0.937489 0.08806198 0.943029 0.2498469 0.943029 0.08582699 0.937489 0.08806198 0.937489 0.2476119 0.943029 0.2498469 0.937489 0.2476119 0.938899 0.264333 0.943029 0.2498469 0.937489 0.2476119 0.93381 0.260606 0.938899 0.264333 0.93381 0.260606 0.928375 0.274857 0.938899 0.264333 0.93381 0.260606 0.924649 0.269767 0.928375 0.274857 0.924649 0.269767 0.913889 0.278987 0.928375 0.274857 0.924649 0.269767 0.911654 0.273447 0.913889 0.278987 0.911654 0.273447 0.749869 0.278987 0.913889 0.278987 0.911654 0.273447 0.752104 0.273447 0.749869 0.278987 0.752104 0.273447 0.735384 0.274857 0.749869 0.278987 0.752104 0.273447 0.73911 0.269767 0.735384 0.274857 0.73911 0.269767 0.72486 0.264333 0.735384 0.274857 0.73911 0.269767 0.729949 0.260606 0.72486 0.264333 0.729949 0.260606 0.72073 0.2498469 0.72486 0.264333 0.948063 0.25272 0.943029 0.08582699 0.943029 0.2498469 0.943632 0.268209 0.948063 0.25272 0.943029 0.2498469 0.943632 0.268209 0.943029 0.2498469 0.938899 0.264333 0.932251 0.27959 0.943632 0.268209 0.938899 0.264333 0.932251 0.27959 0.938899 0.264333 0.928375 0.274857 0.916762 0.284021 0.932251 0.27959 0.928375 0.274857 0.916762 0.284021 0.928375 0.274857 0.913889 0.278987 0.746997 0.284021 0.916762 0.284021 0.913889 0.278987 0.746997 0.284021 0.913889 0.278987 0.749869 0.278987 0.731508 0.27959 0.746997 0.284021 0.749869 0.278987 0.731508 0.27959 0.749869 0.278987 0.735384 0.274857 0.720127 0.268209 0.731508 0.27959 0.735384 0.274857 0.720127 0.268209 0.735384 0.274857 0.72486 0.264333 0.715696 0.25272 0.720127 0.268209 0.72486 0.264333 0.715696 0.25272 0.72486 0.264333 0.72073 0.2498469 0.715696 0.08295398 0.715696 0.25272 0.72073 0.2498469 0.715696 0.08295398 0.72073 0.2498469 0.72073 0.08582699 0.720127 0.06746596 0.715696 0.08295398 0.72073 0.08582699 0.729949 0.260606 0.72627 0.2476119 0.72073 0.2498469 0.72627 0.2476119 0.72073 0.08582699 0.72073 0.2498469 0.72627 0.2476119 0.72627 0.08806198 0.72073 0.08582699 0.72627 0.08806198 0.72486 0.07134199 0.72073 0.08582699 0.72627 0.08806198 0.729949 0.07506799 0.72486 0.07134199 0.729949 0.07506799 0.735384 0.06081795 0.72486 0.07134199 0.729949 0.07506799 0.73911 0.065907 0.735384 0.06081795 0.73911 0.065907 0.749869 0.05668795 0.735384 0.06081795 0.73911 0.065907 0.752104 0.06222695 0.749869 0.05668795 0.752104 0.06222695 0.913889 0.05668795 0.749869 0.05668795 0.752104 0.06222695 0.911654 0.06222695 0.913889 0.05668795 0.911654 0.06222695 0.928375 0.06081795 0.913889 0.05668795 0.911654 0.06222695 0.924649 0.065907 0.928375 0.06081795 0.924649 0.065907 0.938899 0.07134199 0.928375 0.06081795 0.943632 0.06746596 0.928375 0.06081795 0.938899 0.07134199 0.948063 0.08295398 0.943632 0.06746596 0.938899 0.07134199 0.948063 0.08295398 0.938899 0.07134199 0.943029 0.08582699 0.948063 0.25272 0.948063 0.08295398 0.943029 0.08582699 0.720127 0.06746596 0.72073 0.08582699 0.72486 0.07134199 0.731508 0.05608397 0.720127 0.06746596 0.72486 0.07134199 0.731508 0.05608397 0.72486 0.07134199 0.735384 0.06081795 0.746997 0.05165398 0.731508 0.05608397 0.735384 0.06081795 0.746997 0.05165398 0.735384 0.06081795 0.749869 0.05668795 0.916762 0.05165398 0.746997 0.05165398 0.749869 0.05668795 0.916762 0.05165398 0.749869 0.05668795 0.913889 0.05668795 0.932251 0.05608397 0.916762 0.05165398 0.913889 0.05668795 0.932251 0.05608397 0.913889 0.05668795 0.928375 0.06081795 0.943632 0.06746596 0.932251 0.05608397 0.928375 0.06081795 0.364637 0.05148595 0.359679 0.06876796 0.351155 0.06412798 0.351155 0.273486 0.351155 0.06412798 0.359679 0.06876796 0.351155 0.273486 0.359679 0.06876796 0.359679 0.268846 0.356616 0.29259 0.351155 0.273486 0.359679 0.268846 0.356616 0.29259 0.359679 0.268846 0.364637 0.286128 0.370652 0.306626 0.356616 0.29259 0.364637 0.286128 0.370652 0.306626 0.364637 0.286128 0.377114 0.298605 0.389756 0.312087 0.370652 0.306626 0.377114 0.298605 0.389756 0.312087 0.377114 0.298605 0.394396 0.303563 0.599114 0.312087 0.389756 0.312087 0.394396 0.303563 0.599114 0.312087 0.394396 0.303563 0.594474 0.303563 0.618218 0.306626 0.599114 0.312087 0.594474 0.303563 0.618218 0.306626 0.594474 0.303563 0.611756 0.298605 0.632254 0.29259 0.618218 0.306626 0.611756 0.298605 0.632254 0.29259 0.611756 0.298605 0.624232 0.286128 0.637714 0.273486 0.632254 0.29259 0.624232 0.286128 0.637714 0.273486 0.624232 0.286128 0.629191 0.268846 0.629191 0.268846 0.637714 0.06412798 0.637714 0.273486 0.629191 0.268846 0.629191 0.06876796 0.637714 0.06412798 0.629191 0.06876796 0.632254 0.04502499 0.637714 0.06412798 0.629191 0.06876796 0.624232 0.05148595 0.632254 0.04502499 0.624232 0.05148595 0.618218 0.03098797 0.632254 0.04502499 0.624232 0.05148595 0.611756 0.03900998 0.618218 0.03098797 0.611756 0.03900998 0.599114 0.02552795 0.618218 0.03098797 0.611756 0.03900998 0.594474 0.034051 0.599114 0.02552795 0.594474 0.034051 0.389756 0.02552795 0.599114 0.02552795 0.594474 0.034051 0.394396 0.034051 0.389756 0.02552795 0.394396 0.034051 0.370652 0.03098797 0.389756 0.02552795 0.394396 0.034051 0.377114 0.03900998 0.370652 0.03098797 0.377114 0.03900998 0.356616 0.04502499 0.370652 0.03098797 0.377114 0.03900998 0.364637 0.05148595 0.356616 0.04502499 0.364637 0.05148595 0.351155 0.06412798 0.356616 0.04502499 0.651831 0.05435299 0.651831 0.283261 0.64548 0.279159 0.651831 0.283261 0.639725 0.299301 0.64548 0.279159 0.651831 0.283261 0.645835 0.304151 0.639725 0.299301 0.645835 0.304151 0.624928 0.314098 0.639725 0.299301 0.645835 0.304151 0.630415 0.319498 0.624928 0.314098 0.630415 0.319498 0.604787 0.319852 0.624928 0.314098 0.630415 0.319498 0.609427 0.325466 0.604787 0.319852 0.609427 0.325466 0.384083 0.319852 0.604787 0.319852 0.609427 0.325466 0.379443 0.325466 0.384083 0.319852 0.379443 0.325466 0.363942 0.314098 0.384083 0.319852 0.379443 0.325466 0.358454 0.319498 0.363942 0.314098 0.358454 0.319498 0.349144 0.299301 0.363942 0.314098 0.358454 0.319498 0.343035 0.304151 0.349144 0.299301 0.343035 0.304151 0.34339 0.279159 0.349144 0.299301 0.343035 0.304151 0.337039 0.283261 0.34339 0.279159 0.337039 0.283261 0.34339 0.05845499 0.34339 0.279159 0.337039 0.283261 0.337039 0.05435299 0.34339 0.05845499 0.337039 0.05435299 0.349144 0.03831398 0.34339 0.05845499 0.337039 0.05435299 0.343035 0.03346395 0.349144 0.03831398 0.343035 0.03346395 0.363942 0.02351695 0.349144 0.03831398 0.343035 0.03346395 0.358454 0.01811599 0.363942 0.02351695 0.358454 0.01811599 0.384083 0.017762 0.363942 0.02351695 0.358454 0.01811599 0.379443 0.01214796 0.384083 0.017762 0.379443 0.01214796 0.604787 0.017762 0.384083 0.017762 0.379443 0.01214796 0.609427 0.01214796 0.604787 0.017762 0.609427 0.01214796 0.624928 0.02351695 0.604787 0.017762 0.609427 0.01214796 0.630415 0.01811599 0.624928 0.02351695 0.630415 0.01811599 0.639725 0.03831398 0.624928 0.02351695 0.630415 0.01811599 0.645835 0.03346395 0.639725 0.03831398 0.645835 0.03346395 0.64548 0.05845499 0.639725 0.03831398 0.645835 0.03346395 0.651831 0.05435299 0.64548 0.05845499 0.651831 0.05435299 0.64548 0.279159 0.64548 0.05845499 0.658593 0.04951494 0.658593 0.28831 0.651831 0.283261 0.658593 0.28831 0.645835 0.304151 0.651831 0.283261 0.658593 0.28831 0.652337 0.310102 0.645835 0.304151 0.652337 0.310102 0.630415 0.319498 0.645835 0.304151 0.652337 0.310102 0.636252 0.326112 0.630415 0.319498 0.636252 0.326112 0.609427 0.325466 0.630415 0.319498 0.636252 0.326112 0.614357 0.332338 0.609427 0.325466 0.614357 0.332338 0.379443 0.325466 0.609427 0.325466 0.614357 0.332338 0.374438 0.332338 0.379443 0.325466 0.374438 0.332338 0.358454 0.319498 0.379443 0.325466 0.374438 0.332338 0.352543 0.326112 0.358454 0.319498 0.352543 0.326112 0.343035 0.304151 0.358454 0.319498 0.352543 0.326112 0.336458 0.310102 0.343035 0.304151 0.336458 0.310102 0.337039 0.283261 0.343035 0.304151 0.336458 0.310102 0.330203 0.28831 0.337039 0.283261 0.330203 0.28831 0.337039 0.05435299 0.337039 0.283261 0.330203 0.28831 0.330203 0.04951494 0.337039 0.05435299 0.330203 0.04951494 0.343035 0.03346395 0.337039 0.05435299 0.330203 0.04951494 0.336458 0.02772295 0.343035 0.03346395 0.336458 0.02772295 0.358454 0.01811599 0.343035 0.03346395 0.336458 0.02772295 0.352543 0.01171296 0.358454 0.01811599 0.352543 0.01171296 0.379443 0.01214796 0.358454 0.01811599 0.352543 0.01171296 0.374438 0.005486965 0.379443 0.01214796 0.374438 0.005486965 0.609427 0.01214796 0.379443 0.01214796 0.374438 0.005486965 0.614357 0.005486965 0.609427 0.01214796 0.614357 0.005486965 0.630415 0.01811599 0.609427 0.01214796 0.614357 0.005486965 0.636252 0.01171296 0.630415 0.01811599 0.636252 0.01171296 0.645835 0.03346395 0.630415 0.01811599 0.636252 0.01171296 0.652337 0.02772295 0.645835 0.03346395 0.652337 0.02772295 0.651831 0.05435299 0.645835 0.03346395 0.652337 0.02772295 0.658593 0.04951494 0.651831 0.05435299 0.658593 0.04951494 0.651831 0.283261 0.651831 0.05435299 0.989867 0.05241197 0.989867 0.283262 0.99569 0.286956 0.989867 0.283262 0.98945 0.308697 0.99569 0.286956 0.989867 0.283262 0.983849 0.304329 0.98945 0.308697 0.983849 0.304329 0.973402 0.324669 0.98945 0.308697 0.983849 0.304329 0.968372 0.319807 0.973402 0.324669 0.968372 0.319807 0.951558 0.330881 0.973402 0.324669 0.968372 0.319807 0.947304 0.325825 0.951558 0.330881 0.947304 0.325825 0.712201 0.330881 0.951558 0.330881 0.947304 0.325825 0.716454 0.325825 0.712201 0.330881 0.716454 0.325825 0.690357 0.324669 0.712201 0.330881 0.716454 0.325825 0.695387 0.319807 0.690357 0.324669 0.695387 0.319807 0.674309 0.308697 0.690357 0.324669 0.695387 0.319807 0.67991 0.304329 0.674309 0.308697 0.67991 0.304329 0.668069 0.286956 0.674309 0.308697 0.67991 0.304329 0.673891 0.283262 0.668069 0.286956 0.673891 0.283262 0.668069 0.04871898 0.668069 0.286956 0.673891 0.283262 0.673891 0.05241197 0.668069 0.04871898 0.673891 0.05241197 0.674309 0.026977 0.668069 0.04871898 0.673891 0.05241197 0.67991 0.03134495 0.674309 0.026977 0.67991 0.03134495 0.690357 0.01100498 0.674309 0.026977 0.67991 0.03134495 0.695387 0.01586794 0.690357 0.01100498 0.695387 0.01586794 0.712201 0.004793941 0.690357 0.01100498 0.695387 0.01586794 0.716454 0.009848952 0.712201 0.004793941 0.716454 0.009848952 0.951558 0.004793941 0.712201 0.004793941 0.716454 0.009848952 0.947304 0.009848952 0.951558 0.004793941 0.947304 0.009848952 0.973402 0.01100498 0.951558 0.004793941 0.947304 0.009848952 0.968372 0.01586794 0.973402 0.01100498 0.968372 0.01586794 0.98945 0.026977 0.973402 0.01100498 0.968372 0.01586794 0.983849 0.03134495 0.98945 0.026977 0.983849 0.03134495 0.99569 0.04871898 0.98945 0.026977 0.983849 0.03134495 0.989867 0.05241197 0.99569 0.04871898 0.989867 0.05241197 0.99569 0.286956 0.99569 0.04871898 0.637714 0.273486 0.637714 0.06412798 0.64548 0.05845499 0.637714 0.06412798 0.639725 0.03831398 0.64548 0.05845499 0.637714 0.06412798 0.632254 0.04502499 0.639725 0.03831398 0.632254 0.04502499 0.624928 0.02351695 0.639725 0.03831398 0.632254 0.04502499 0.618218 0.03098797 0.624928 0.02351695 0.599114 0.02552795 0.624928 0.02351695 0.618218 0.03098797 0.599114 0.02552795 0.604787 0.017762 0.624928 0.02351695 0.599114 0.02552795 0.384083 0.017762 0.604787 0.017762 0.599114 0.02552795 0.389756 0.02552795 0.384083 0.017762 0.389756 0.02552795 0.363942 0.02351695 0.384083 0.017762 0.389756 0.02552795 0.370652 0.03098797 0.363942 0.02351695 0.370652 0.03098797 0.349144 0.03831398 0.363942 0.02351695 0.370652 0.03098797 0.356616 0.04502499 0.349144 0.03831398 0.351155 0.06412798 0.349144 0.03831398 0.356616 0.04502499 0.351155 0.06412798 0.34339 0.05845499 0.349144 0.03831398 0.351155 0.06412798 0.34339 0.279159 0.34339 0.05845499 0.351155 0.06412798 0.351155 0.273486 0.34339 0.279159 0.351155 0.273486 0.349144 0.299301 0.34339 0.279159 0.351155 0.273486 0.356616 0.29259 0.349144 0.299301 0.370652 0.306626 0.349144 0.299301 0.356616 0.29259 0.370652 0.306626 0.363942 0.314098 0.349144 0.299301 0.389756 0.312087 0.363942 0.314098 0.370652 0.306626 0.389756 0.312087 0.384083 0.319852 0.363942 0.314098 0.389756 0.312087 0.604787 0.319852 0.384083 0.319852 0.389756 0.312087 0.599114 0.312087 0.604787 0.319852 0.599114 0.312087 0.624928 0.314098 0.604787 0.319852 0.599114 0.312087 0.618218 0.306626 0.624928 0.314098 0.632254 0.29259 0.624928 0.314098 0.618218 0.306626 0.632254 0.29259 0.639725 0.299301 0.624928 0.314098 0.637714 0.273486 0.639725 0.299301 0.632254 0.29259 0.637714 0.273486 0.64548 0.279159 0.639725 0.299301 0.637714 0.273486 0.64548 0.05845499 0.64548 0.279159 0.766145 0.400975 0.739606 0.413571 0.767768 0.413482 0.766145 0.400975 0.740719 0.401055 0.739606 0.413571 0.766145 0.400975 0.753432 0.393796 0.740719 0.401055 0.746997 0.05165398 0.916762 0.05165398 0.947304 0.009848952 0.916762 0.05165398 0.968372 0.01586794 0.947304 0.009848952 0.916762 0.05165398 0.932251 0.05608397 0.968372 0.01586794 0.943632 0.06746596 0.968372 0.01586794 0.932251 0.05608397 0.943632 0.06746596 0.983849 0.03134495 0.968372 0.01586794 0.948063 0.08295398 0.983849 0.03134495 0.943632 0.06746596 0.948063 0.08295398 0.989867 0.05241197 0.983849 0.03134495 0.948063 0.08295398 0.989867 0.283262 0.989867 0.05241197 0.948063 0.08295398 0.948063 0.25272 0.989867 0.283262 0.948063 0.25272 0.983849 0.304329 0.989867 0.283262 0.948063 0.25272 0.943632 0.268209 0.983849 0.304329 0.943632 0.268209 0.968372 0.319807 0.983849 0.304329 0.943632 0.268209 0.932251 0.27959 0.968372 0.319807 0.916762 0.284021 0.968372 0.319807 0.932251 0.27959 0.916762 0.284021 0.947304 0.325825 0.968372 0.319807 0.916762 0.284021 0.716454 0.325825 0.947304 0.325825 0.916762 0.284021 0.746997 0.284021 0.716454 0.325825 0.746997 0.284021 0.695387 0.319807 0.716454 0.325825 0.746997 0.284021 0.731508 0.27959 0.695387 0.319807 0.731508 0.27959 0.67991 0.304329 0.695387 0.319807 0.731508 0.27959 0.720127 0.268209 0.67991 0.304329 0.715696 0.25272 0.67991 0.304329 0.720127 0.268209 0.715696 0.25272 0.673891 0.283262 0.67991 0.304329 0.715696 0.25272 0.673891 0.05241197 0.673891 0.283262 0.715696 0.25272 0.715696 0.08295398 0.673891 0.05241197 0.715696 0.08295398 0.67991 0.03134495 0.673891 0.05241197 0.715696 0.08295398 0.720127 0.06746596 0.67991 0.03134495 0.731508 0.05608397 0.67991 0.03134495 0.720127 0.06746596 0.731508 0.05608397 0.695387 0.01586794 0.67991 0.03134495 0.746997 0.05165398 0.695387 0.01586794 0.731508 0.05608397 0.746997 0.05165398 0.716454 0.009848952 0.695387 0.01586794 0.746997 0.05165398 0.947304 0.009848952 0.716454 0.009848952 0.740719 0.401055 0.767768 0.413482 0.739606 0.413571 0.740719 0.401055 0.766145 0.400975 0.767768 0.413482 0.740719 0.401055 0.753432 0.393796 0.766145 0.400975 0.650866 0.386462 0.640906 0.376502 0.637459 0.382441 0.640906 0.376502 0.627282 0.379714 0.637459 0.382441 0.640906 0.376502 0.6273 0.372856 0.627282 0.379714 0.6273 0.372856 0.617105 0.382441 0.627282 0.379714 0.6273 0.372856 0.613694 0.376502 0.617105 0.382441 0.613694 0.376502 0.609654 0.389891 0.617105 0.382441 0.613694 0.376502 0.603734 0.386462 0.609654 0.389891 0.603734 0.386462 0.606928 0.400068 0.609654 0.389891 0.603734 0.386462 0.600088 0.400068 0.606928 0.400068 0.606928 0.505204 0.606928 0.400068 0.600088 0.400068 0.606928 0.505204 0.600088 0.400068 0.600088 0.505204 0.609654 0.515381 0.606928 0.505204 0.600088 0.505204 0.609654 0.515381 0.600088 0.505204 0.603734 0.51881 0.617105 0.522831 0.609654 0.515381 0.603734 0.51881 0.617105 0.522831 0.603734 0.51881 0.613694 0.52877 0.627282 0.525558 0.617105 0.522831 0.613694 0.52877 0.627282 0.525558 0.613694 0.52877 0.6273 0.532416 0.637459 0.522831 0.627282 0.525558 0.6273 0.532416 0.637459 0.522831 0.6273 0.532416 0.640906 0.52877 0.64491 0.515381 0.637459 0.522831 0.640906 0.52877 0.64491 0.515381 0.640906 0.52877 0.650866 0.51881 0.654512 0.505204 0.64491 0.515381 0.650866 0.51881 0.654512 0.505204 0.647636 0.505204 0.64491 0.515381 0.654512 0.505204 0.647636 0.400068 0.647636 0.505204 0.654512 0.505204 0.654512 0.400068 0.647636 0.400068 0.650866 0.386462 0.647636 0.400068 0.654512 0.400068 0.650866 0.386462 0.64491 0.389891 0.647636 0.400068 0.650866 0.386462 0.637459 0.382441 0.64491 0.389891 0.937489 0.08806198 0.93381 0.260606 0.937489 0.2476119 0.937489 0.08806198 0.924649 0.269767 0.93381 0.260606 0.937489 0.08806198 0.911654 0.273447 0.924649 0.269767 0.937489 0.08806198 0.752104 0.273447 0.911654 0.273447 0.937489 0.08806198 0.73911 0.269767 0.752104 0.273447 0.937489 0.08806198 0.729949 0.260606 0.73911 0.269767 0.937489 0.08806198 0.72627 0.2476119 0.729949 0.260606 0.937489 0.08806198 0.72627 0.08806198 0.72627 0.2476119 0.937489 0.08806198 0.729949 0.07506799 0.72627 0.08806198 0.937489 0.08806198 0.73911 0.065907 0.729949 0.07506799 0.937489 0.08806198 0.752104 0.06222695 0.73911 0.065907 0.937489 0.08806198 0.911654 0.06222695 0.752104 0.06222695 0.937489 0.08806198 0.924649 0.065907 0.911654 0.06222695 0.937489 0.08806198 0.93381 0.07506799 0.924649 0.065907 0.574328 0.386462 0.564368 0.376502 0.567815 0.370563 0.564368 0.376502 0.55078 0.365999 0.567815 0.370563 0.564368 0.376502 0.550762 0.372856 0.55078 0.365999 0.533745 0.370563 0.55078 0.365999 0.550762 0.372856 0.533745 0.370563 0.550762 0.372856 0.537156 0.376502 0.521275 0.383034 0.533745 0.370563 0.537156 0.376502 0.521275 0.383034 0.537156 0.376502 0.527196 0.386462 0.527196 0.386462 0.51671 0.400068 0.521275 0.383034 0.527196 0.386462 0.52355 0.400068 0.51671 0.400068 0.52355 0.400068 0.51671 0.505204 0.51671 0.400068 0.52355 0.400068 0.52355 0.505204 0.51671 0.505204 0.521275 0.522239 0.51671 0.505204 0.52355 0.505204 0.521275 0.522239 0.52355 0.505204 0.527196 0.51881 0.533745 0.534709 0.521275 0.522239 0.527196 0.51881 0.533745 0.534709 0.527196 0.51881 0.537156 0.52877 0.55078 0.539273 0.533745 0.534709 0.537156 0.52877 0.55078 0.539273 0.537156 0.52877 0.550762 0.532416 0.567815 0.534709 0.55078 0.539273 0.550762 0.532416 0.567815 0.534709 0.550762 0.532416 0.564368 0.52877 0.580285 0.522239 0.567815 0.534709 0.564368 0.52877 0.580285 0.522239 0.564368 0.52877 0.574328 0.51881 0.580285 0.522239 0.574328 0.51881 0.577974 0.505204 0.580285 0.522239 0.577974 0.505204 0.584849 0.505204 0.577974 0.400068 0.584849 0.505204 0.577974 0.505204 0.577974 0.400068 0.584849 0.400068 0.584849 0.505204 0.584849 0.400068 0.577974 0.400068 0.574328 0.386462 0.584849 0.400068 0.574328 0.386462 0.580285 0.383034 0.574328 0.386462 0.567815 0.370563 0.580285 0.383034 0.594474 0.034051 0.377114 0.03900998 0.394396 0.034051 0.594474 0.034051 0.364637 0.05148595 0.377114 0.03900998 0.594474 0.034051 0.359679 0.06876796 0.364637 0.05148595 0.594474 0.034051 0.359679 0.268846 0.359679 0.06876796 0.594474 0.034051 0.364637 0.286128 0.359679 0.268846 0.594474 0.034051 0.377114 0.298605 0.364637 0.286128 0.594474 0.034051 0.394396 0.303563 0.377114 0.298605 0.594474 0.034051 0.594474 0.303563 0.394396 0.303563 0.594474 0.034051 0.611756 0.298605 0.594474 0.303563 0.594474 0.034051 0.624232 0.286128 0.611756 0.298605 0.594474 0.034051 0.629191 0.268846 0.624232 0.286128 0.594474 0.034051 0.629191 0.06876796 0.629191 0.268846 0.594474 0.034051 0.624232 0.05148595 0.629191 0.06876796 0.594474 0.034051 0.611756 0.03900998 0.624232 0.05148595 0.753151 0.536808 0.736134 0.539101 0.739545 0.533162 0.736134 0.539101 0.729585 0.523202 0.739545 0.533162 0.736134 0.539101 0.723664 0.52663 0.729585 0.523202 0.7191 0.509596 0.729585 0.523202 0.723664 0.52663 0.7191 0.509596 0.725939 0.509596 0.729585 0.523202 0.725939 0.40446 0.725939 0.509596 0.7191 0.509596 0.725939 0.40446 0.7191 0.509596 0.7191 0.40446 0.723664 0.387425 0.725939 0.40446 0.7191 0.40446 0.723664 0.387425 0.729585 0.390854 0.725939 0.40446 0.723664 0.387425 0.739545 0.380894 0.729585 0.390854 0.723664 0.387425 0.736134 0.374955 0.739545 0.380894 0.736134 0.374955 0.753151 0.377248 0.739545 0.380894 0.736134 0.374955 0.753169 0.370391 0.753151 0.377248 0.753169 0.370391 0.766757 0.380894 0.753151 0.377248 0.753169 0.370391 0.770204 0.374955 0.766757 0.380894 0.770204 0.374955 0.776717 0.390854 0.766757 0.380894 0.770204 0.374955 0.782674 0.387425 0.776717 0.390854 0.782674 0.387425 0.780363 0.40446 0.776717 0.390854 0.782674 0.387425 0.787238 0.40446 0.780363 0.40446 0.787238 0.40446 0.780363 0.509596 0.780363 0.40446 0.787238 0.40446 0.787238 0.509596 0.780363 0.509596 0.787238 0.509596 0.776717 0.523202 0.780363 0.509596 0.787238 0.509596 0.782674 0.52663 0.776717 0.523202 0.770204 0.539101 0.776717 0.523202 0.782674 0.52663 0.770204 0.539101 0.766757 0.533162 0.776717 0.523202 0.753151 0.536808 0.766757 0.533162 0.770204 0.539101 0.753151 0.536808 0.770204 0.539101 0.753169 0.543665 0.753151 0.536808 0.753169 0.543665 0.736134 0.539101 0.735541 0.519773 0.742992 0.527223 0.739545 0.533162 0.742992 0.527223 0.753151 0.536808 0.739545 0.533162 0.742992 0.527223 0.753169 0.52995 0.753151 0.536808 0.753169 0.52995 0.766757 0.533162 0.753151 0.536808 0.753169 0.52995 0.763346 0.527223 0.766757 0.533162 0.763346 0.527223 0.776717 0.523202 0.766757 0.533162 0.763346 0.527223 0.770796 0.519773 0.776717 0.523202 0.770796 0.519773 0.780363 0.509596 0.776717 0.523202 0.770796 0.519773 0.773523 0.509596 0.780363 0.509596 0.780363 0.40446 0.780363 0.509596 0.773523 0.509596 0.780363 0.40446 0.773523 0.509596 0.773523 0.40446 0.776717 0.390854 0.780363 0.40446 0.773523 0.40446 0.776717 0.390854 0.773523 0.40446 0.770796 0.394283 0.766757 0.380894 0.776717 0.390854 0.770796 0.394283 0.766757 0.380894 0.770796 0.394283 0.763346 0.386833 0.753151 0.377248 0.766757 0.380894 0.763346 0.386833 0.753151 0.377248 0.763346 0.386833 0.753169 0.384106 0.739545 0.380894 0.753151 0.377248 0.753169 0.384106 0.739545 0.380894 0.753169 0.384106 0.742992 0.386833 0.729585 0.390854 0.739545 0.380894 0.742992 0.386833 0.729585 0.390854 0.742992 0.386833 0.735541 0.394283 0.729585 0.390854 0.735541 0.394283 0.732814 0.40446 0.729585 0.390854 0.732814 0.40446 0.725939 0.40446 0.732814 0.40446 0.725939 0.509596 0.725939 0.40446 0.732814 0.40446 0.732814 0.509596 0.725939 0.509596 0.725939 0.509596 0.732814 0.509596 0.735541 0.519773 0.725939 0.509596 0.735541 0.519773 0.729585 0.523202 0.735541 0.519773 0.739545 0.533162 0.729585 0.523202 0.816083 0.380894 0.829671 0.370391 0.812636 0.374955 0.806123 0.390854 0.816083 0.380894 0.812636 0.374955 0.806123 0.390854 0.812636 0.374955 0.800166 0.387425 0.795602 0.40446 0.806123 0.390854 0.800166 0.387425 0.795602 0.40446 0.802477 0.40446 0.806123 0.390854 0.802477 0.40446 0.795602 0.40446 0.795602 0.509596 0.802477 0.40446 0.795602 0.509596 0.802477 0.509596 0.800166 0.52663 0.802477 0.509596 0.795602 0.509596 0.800166 0.52663 0.806123 0.523202 0.802477 0.509596 0.800166 0.52663 0.816083 0.533162 0.806123 0.523202 0.800166 0.52663 0.812636 0.539101 0.816083 0.533162 0.812636 0.539101 0.829689 0.536808 0.816083 0.533162 0.812636 0.539101 0.829671 0.543665 0.829689 0.536808 0.843295 0.533162 0.829689 0.536808 0.829671 0.543665 0.843295 0.533162 0.829671 0.543665 0.846706 0.539101 0.853255 0.523202 0.843295 0.533162 0.846706 0.539101 0.853255 0.523202 0.846706 0.539101 0.859176 0.52663 0.859176 0.52663 0.856901 0.509596 0.853255 0.523202 0.859176 0.52663 0.863741 0.509596 0.856901 0.509596 0.863741 0.509596 0.856901 0.40446 0.856901 0.509596 0.863741 0.509596 0.863741 0.40446 0.856901 0.40446 0.853255 0.390854 0.856901 0.40446 0.863741 0.40446 0.853255 0.390854 0.863741 0.40446 0.859176 0.387425 0.843295 0.380894 0.853255 0.390854 0.859176 0.387425 0.843295 0.380894 0.859176 0.387425 0.846706 0.374955 0.829689 0.377248 0.843295 0.380894 0.846706 0.374955 0.829689 0.377248 0.846706 0.374955 0.829671 0.370391 0.816083 0.380894 0.829689 0.377248 0.829671 0.370391</float_array>
          <technique_common>
            <accessor source="#medkit_medium_reference-mesh-map-0-array" count="1608" stride="2">
              <param name="S" type="float"/>
              <param name="T" type="float"/>
            </accessor>
          </technique_common>
        </source>
        <vertices id="medkit_medium_reference-mesh-vertices">
          <input semantic="POSITION" source="#medkit_medium_reference-mesh-positions"/>
        </vertices>
        <triangles material="medkit-material" count="536">
          <input semantic="VERTEX" source="#medkit_medium_reference-mesh-vertices" offset="0"/>
          <input semantic="NORMAL" source="#medkit_medium_reference-mesh-normals" offset="1"/>
          <input semantic="TEXCOORD" source="#medkit_medium_reference-mesh-map-0" offset="2" set="0"/>
          <p>0 0 0 1 1 1 2 2 2 0 0 3 3 3 4 1 1 5 0 0 6 4 4 7 3 3 8 5 5 9 6 6 10 7 7 11 8 8 12 6 6 13 5 5 14 8 8 15 9 9 16 6 6 17 10 10 18 9 9 19 8 8 20 10 10 21 11 11 22 9 9 23 12 12 24 11 11 25 10 10 26 12 12 27 10 10 28 13 13 29 14 14 30 12 12 31 13 13 32 14 14 33 13 13 34 15 15 35 16 16 36 14 14 37 15 15 38 16 16 39 15 15 40 17 17 41 16 16 42 17 17 43 18 18 44 16 16 45 18 18 46 19 19 47 19 19 48 18 18 49 20 20 50 19 19 51 20 20 52 21 21 53 22 22 54 21 21 55 20 20 56 22 22 57 23 23 58 21 21 59 22 22 60 24 24 61 23 23 62 22 22 63 25 25 64 24 24 65 25 25 66 26 26 67 24 24 68 25 25 69 27 27 70 26 26 71 27 27 72 28 28 73 26 26 74 27 27 75 29 29 76 28 28 77 29 29 78 30 30 79 28 28 80 29 29 81 31 31 82 30 30 83 31 31 84 7 7 85 30 30 86 31 31 87 32 32 88 7 7 89 5 5 90 7 7 91 32 32 92 2 33 93 33 34 94 0 35 95 2 33 96 34 36 97 33 34 98 1 37 99 34 36 100 2 33 101 1 37 102 35 38 103 34 36 104 3 39 105 35 38 106 1 37 107 3 39 108 36 40 109 35 38 110 36 40 111 3 39 112 4 41 113 36 40 114 4 41 115 37 42 116 37 43 117 35 44 118 36 45 119 37 43 120 34 46 121 35 44 122 37 43 123 33 47 124 34 46 125 38 48 126 39 49 127 40 50 128 41 51 129 39 49 130 38 48 131 41 51 132 38 48 133 42 52 134 43 53 135 41 51 136 42 52 137 43 53 138 42 52 139 44 54 140 45 55 141 43 53 142 44 54 143 45 55 144 44 54 145 46 56 146 47 57 147 45 55 148 46 56 149 47 57 150 46 56 151 48 58 152 49 59 153 47 57 154 48 58 155 49 59 156 48 58 157 50 60 158 51 61 159 49 59 160 50 60 161 51 61 162 52 62 163 49 59 164 52 62 165 51 61 166 53 63 167 52 62 168 53 63 169 54 64 170 54 64 171 53 63 172 55 65 173 54 64 174 55 65 175 56 66 176 55 65 177 57 67 178 56 66 179 55 65 180 58 68 181 57 67 182 58 68 183 59 69 184 57 67 185 58 68 186 60 70 187 59 69 188 60 70 189 61 71 190 59 69 191 60 70 192 62 72 193 61 71 194 63 73 195 61 71 196 62 72 197 63 73 198 64 74 199 61 71 200 65 75 201 64 74 202 63 73 203 65 75 204 40 50 205 64 74 206 38 48 207 40 50 208 65 75 209 66 76 210 67 77 211 68 78 212 66 76 213 69 79 214 67 77 215 69 79 216 70 80 217 67 77 218 69 79 219 71 81 220 70 80 221 71 81 222 72 82 223 70 80 224 71 81 225 73 83 226 72 82 227 73 83 228 74 84 229 72 82 230 73 83 231 75 85 232 74 84 233 75 85 234 76 86 235 74 84 236 75 85 237 77 87 238 76 86 239 77 87 240 78 88 241 76 86 242 77 87 243 79 89 244 78 88 245 79 89 246 80 90 247 78 88 248 79 89 249 81 91 250 80 90 251 80 90 252 81 91 253 82 92 254 80 90 255 82 92 256 83 93 257 84 94 258 83 93 259 82 92 260 84 94 261 82 92 262 85 95 263 86 96 264 84 94 265 85 95 266 86 96 267 87 97 268 84 94 269 86 96 270 88 98 271 87 97 272 86 96 273 89 99 274 88 98 275 88 98 276 89 99 277 90 100 278 88 98 279 90 100 280 91 101 281 92 102 282 91 101 283 90 100 284 92 102 285 90 100 286 93 103 287 92 102 288 93 103 289 66 76 290 92 102 291 66 76 292 68 78 293 94 104 294 95 105 295 96 106 296 94 104 297 96 106 298 97 107 299 98 108 300 97 107 301 96 106 302 98 108 303 99 109 304 97 107 305 100 110 306 99 109 307 98 108 308 100 110 309 101 111 310 99 109 311 102 112 312 101 111 313 100 110 314 102 112 315 103 113 316 101 111 317 104 114 318 105 115 319 106 116 320 105 115 321 107 117 322 106 116 323 105 115 324 108 118 325 107 117 326 108 118 327 109 119 328 107 117 329 108 118 330 110 120 331 109 119 332 110 120 333 111 121 334 109 119 335 110 120 336 112 122 337 111 121 338 112 122 339 113 123 340 111 121 341 112 122 342 114 124 343 113 123 344 114 124 345 115 125 346 113 123 347 114 124 348 116 126 349 115 125 350 116 126 351 117 127 352 115 125 353 116 126 354 118 128 355 117 127 356 118 128 357 119 129 358 117 127 359 118 128 360 120 130 361 119 129 362 120 130 363 121 131 364 119 129 365 120 130 366 122 132 367 121 131 368 122 132 369 123 133 370 121 131 371 124 134 372 107 117 373 109 119 374 125 135 375 124 134 376 109 119 377 125 135 378 109 119 379 111 121 380 126 136 381 125 135 382 111 121 383 126 136 384 111 121 385 113 123 386 127 137 387 126 136 388 113 123 389 127 137 390 113 123 391 115 125 392 128 138 393 127 137 394 115 125 395 128 138 396 115 125 397 117 127 398 129 139 399 128 138 400 117 127 401 129 139 402 117 127 403 119 129 404 130 140 405 129 139 406 119 129 407 130 140 408 119 129 409 121 131 410 131 141 411 130 140 412 121 131 413 131 141 414 121 131 415 123 133 416 132 142 417 131 141 418 123 133 419 132 142 420 123 133 421 133 143 422 134 144 423 132 142 424 133 143 425 122 132 426 135 145 427 123 133 428 135 145 429 133 143 430 123 133 431 135 145 432 136 146 433 133 143 434 136 146 435 137 147 436 133 143 437 136 146 438 138 148 439 137 147 440 138 148 441 139 149 442 137 147 443 138 148 444 140 150 445 139 149 446 140 150 447 141 151 448 139 149 449 140 150 450 142 152 451 141 151 452 142 152 453 143 153 454 141 151 455 142 152 456 144 154 457 143 153 458 144 154 459 145 155 460 143 153 461 144 154 462 104 114 463 145 155 464 104 114 465 106 116 466 145 155 467 146 156 468 145 155 469 106 116 470 147 157 471 146 156 472 106 116 473 147 157 474 106 116 475 107 117 476 124 134 477 147 157 478 107 117 479 134 144 480 133 143 481 137 147 482 148 158 483 134 144 484 137 147 485 148 158 486 137 147 487 139 149 488 149 159 489 148 158 490 139 149 491 149 159 492 139 149 493 141 151 494 150 160 495 149 159 496 141 151 497 150 160 498 141 151 499 143 153 500 151 161 501 150 160 502 143 153 503 151 161 504 143 153 505 145 155 506 146 156 507 151 161 508 145 155 509 152 162 510 153 163 511 154 164 512 155 165 513 154 164 514 153 163 515 155 165 516 153 163 517 156 166 518 157 167 519 155 165 520 156 166 521 157 167 522 156 166 523 158 168 524 159 169 525 157 167 526 158 168 527 159 169 528 158 168 529 160 170 530 161 171 531 159 169 532 160 170 533 161 171 534 160 170 535 162 172 536 163 173 537 161 171 538 162 172 539 163 173 540 162 172 541 164 174 542 165 175 543 163 173 544 164 174 545 165 175 546 164 174 547 166 176 548 167 177 549 165 175 550 166 176 551 167 177 552 166 176 553 168 178 554 169 179 555 167 177 556 168 178 557 169 179 558 168 178 559 170 180 560 170 180 561 171 181 562 169 179 563 170 180 564 172 182 565 171 181 566 172 182 567 173 183 568 171 181 569 172 182 570 174 184 571 173 183 572 174 184 573 175 185 574 173 183 575 174 184 576 176 186 577 175 185 578 176 186 579 177 187 580 175 185 581 176 186 582 178 188 583 177 187 584 178 188 585 179 189 586 177 187 587 178 188 588 180 190 589 179 189 590 180 190 591 181 191 592 179 189 593 180 190 594 182 192 595 181 191 596 182 192 597 183 193 598 181 191 599 182 192 600 152 162 601 183 193 602 152 162 603 154 164 604 183 193 605 184 194 606 185 195 607 186 196 608 185 195 609 187 197 610 186 196 611 185 195 612 188 198 613 187 197 614 188 198 615 189 199 616 187 197 617 188 198 618 190 200 619 189 199 620 190 200 621 191 201 622 189 199 623 190 200 624 192 202 625 191 201 626 192 202 627 193 203 628 191 201 629 192 202 630 194 204 631 193 203 632 194 204 633 195 205 634 193 203 635 194 204 636 196 206 637 195 205 638 196 206 639 197 207 640 195 205 641 196 206 642 198 208 643 197 207 644 198 208 645 199 209 646 197 207 647 198 208 648 200 210 649 199 209 650 200 210 651 201 211 652 199 209 653 200 210 654 202 212 655 201 211 656 202 212 657 203 213 658 201 211 659 202 212 660 204 214 661 203 213 662 204 214 663 205 215 664 203 213 665 204 214 666 206 216 667 205 215 668 206 216 669 207 217 670 205 215 671 206 216 672 208 218 673 207 217 674 208 218 675 209 219 676 207 217 677 208 218 678 210 220 679 209 219 680 210 220 681 211 221 682 209 219 683 210 220 684 212 222 685 211 221 686 212 222 687 213 223 688 211 221 689 212 222 690 214 224 691 213 223 692 214 224 693 215 225 694 213 223 695 214 224 696 184 194 697 215 225 698 184 194 699 186 196 700 215 225 701 216 226 702 217 227 703 185 228 704 217 227 705 188 229 706 185 228 707 217 227 708 218 230 709 188 229 710 218 230 711 190 231 712 188 229 713 218 230 714 219 232 715 190 231 716 219 232 717 192 233 718 190 231 719 219 232 720 220 234 721 192 233 722 220 234 723 194 235 724 192 233 725 220 234 726 221 236 727 194 235 728 221 236 729 196 237 730 194 235 731 221 236 732 222 238 733 196 237 734 222 238 735 198 239 736 196 237 737 222 238 738 223 240 739 198 239 740 223 240 741 200 241 742 198 239 743 223 240 744 224 242 745 200 241 746 224 242 747 202 243 748 200 241 749 224 242 750 225 244 751 202 243 752 225 244 753 204 245 754 202 243 755 225 244 756 226 246 757 204 245 758 226 246 759 206 247 760 204 245 761 226 246 762 227 248 763 206 247 764 227 248 765 208 249 766 206 247 767 227 248 768 228 250 769 208 249 770 228 250 771 210 251 772 208 249 773 228 250 774 229 252 775 210 251 776 229 252 777 212 253 778 210 251 779 229 252 780 230 254 781 212 253 782 230 254 783 214 255 784 212 253 785 230 254 786 231 256 787 214 255 788 231 256 789 184 257 790 214 255 791 231 256 792 216 226 793 184 257 794 216 226 795 185 228 796 184 257 797 232 258 798 233 259 799 217 260 800 233 259 801 218 261 802 217 260 803 233 259 804 234 262 805 218 261 806 234 262 807 219 263 808 218 261 809 234 262 810 235 264 811 219 263 812 235 264 813 220 265 814 219 263 815 235 264 816 236 266 817 220 265 818 236 266 819 221 267 820 220 265 821 236 266 822 237 268 823 221 267 824 237 268 825 222 269 826 221 267 827 237 268 828 238 270 829 222 269 830 238 270 831 223 271 832 222 269 833 238 270 834 239 272 835 223 271 836 239 272 837 224 273 838 223 271 839 239 272 840 240 274 841 224 273 842 240 274 843 225 275 844 224 273 845 240 274 846 241 276 847 225 275 848 241 276 849 226 277 850 225 275 851 241 276 852 242 278 853 226 277 854 242 278 855 227 279 856 226 277 857 242 278 858 243 280 859 227 279 860 243 280 861 228 281 862 227 279 863 243 280 864 244 282 865 228 281 866 244 282 867 229 283 868 228 281 869 244 282 870 245 284 871 229 283 872 245 284 873 230 285 874 229 283 875 245 284 876 246 286 877 230 285 878 246 286 879 231 287 880 230 285 881 246 286 882 247 288 883 231 287 884 247 288 885 216 289 886 231 287 887 247 288 888 232 258 889 216 289 890 232 258 891 217 260 892 216 289 893 169 290 894 171 291 895 215 292 896 171 291 897 213 293 898 215 292 899 171 291 900 173 294 901 213 293 902 173 294 903 211 295 904 213 293 905 173 294 906 175 296 907 211 295 908 177 297 909 211 295 910 175 296 911 177 297 912 209 298 913 211 295 914 177 297 915 207 299 916 209 298 917 177 297 918 179 300 919 207 299 920 179 300 921 205 301 922 207 299 923 179 300 924 181 302 925 205 301 926 181 302 927 203 303 928 205 301 929 181 302 930 183 304 931 203 303 932 154 305 933 203 303 934 183 304 935 154 305 936 201 306 937 203 303 938 154 305 939 199 307 940 201 306 941 154 305 942 155 308 943 199 307 944 155 308 945 197 309 946 199 307 947 155 308 948 157 310 949 197 309 950 159 311 951 197 309 952 157 310 953 159 311 954 195 312 955 197 309 956 161 313 957 195 312 958 159 311 959 161 313 960 193 314 961 195 312 962 161 313 963 191 315 964 193 314 965 161 313 966 163 316 967 191 315 968 163 316 969 189 317 970 191 315 971 163 316 972 165 318 973 189 317 974 167 319 975 189 317 976 165 318 977 167 319 978 187 320 979 189 317 980 169 290 981 187 320 982 167 319 983 169 290 984 186 321 985 187 320 986 169 290 987 215 292 988 186 321 989 100 322 990 95 323 991 102 324 992 100 322 993 96 325 994 95 323 995 100 322 996 98 326 997 96 325 998 149 327 999 150 328 1000 245 329 1001 150 328 1002 246 330 1003 245 329 1004 150 328 1005 151 331 1006 246 330 1007 146 332 1008 246 330 1009 151 331 1010 146 332 1011 247 333 1012 246 330 1013 147 334 1014 247 333 1015 146 332 1016 147 334 1017 232 335 1018 247 333 1019 147 334 1020 233 336 1021 232 335 1022 147 334 1023 124 337 1024 233 336 1025 124 337 1026 234 338 1027 233 336 1028 124 337 1029 125 339 1030 234 338 1031 125 339 1032 235 340 1033 234 338 1034 125 339 1035 126 341 1036 235 340 1037 127 342 1038 235 340 1039 126 341 1040 127 342 1041 236 343 1042 235 340 1043 127 342 1044 237 344 1045 236 343 1046 127 342 1047 128 345 1048 237 344 1049 128 345 1050 238 346 1051 237 344 1052 128 345 1053 129 347 1054 238 346 1055 129 347 1056 239 348 1057 238 346 1058 129 347 1059 130 349 1060 239 348 1061 131 350 1062 239 348 1063 130 349 1064 131 350 1065 240 351 1066 239 348 1067 131 350 1068 241 352 1069 240 351 1070 131 350 1071 132 353 1072 241 352 1073 132 353 1074 242 354 1075 241 352 1076 132 353 1077 134 355 1078 242 354 1079 148 356 1080 242 354 1081 134 355 1082 148 356 1083 243 357 1084 242 354 1085 149 327 1086 243 357 1087 148 356 1088 149 327 1089 244 358 1090 243 357 1091 149 327 1092 245 329 1093 244 358 1094 97 359 1095 103 360 1096 94 361 1097 97 359 1098 101 362 1099 103 360 1100 97 359 1101 99 363 1102 101 362 1103 89 364 1104 86 365 1105 58 366 1106 86 365 1107 60 367 1108 58 366 1109 86 365 1110 85 368 1111 60 367 1112 85 368 1113 62 369 1114 60 367 1115 85 368 1116 82 370 1117 62 369 1118 82 370 1119 63 371 1120 62 369 1121 82 370 1122 81 372 1123 63 371 1124 81 372 1125 65 373 1126 63 371 1127 81 372 1128 79 374 1129 65 373 1130 38 375 1131 65 373 1132 79 374 1133 38 375 1134 79 374 1135 77 376 1136 42 377 1137 38 375 1138 77 376 1139 42 377 1140 77 376 1141 75 378 1142 44 379 1143 42 377 1144 75 378 1145 44 379 1146 75 378 1147 73 380 1148 46 381 1149 44 379 1150 73 380 1151 46 381 1152 73 380 1153 71 382 1154 48 383 1155 46 381 1156 71 382 1157 48 383 1158 71 382 1159 69 384 1160 50 385 1161 48 383 1162 69 384 1163 50 385 1164 69 384 1165 66 386 1166 93 387 1167 50 385 1168 66 386 1169 93 387 1170 51 388 1171 50 385 1172 93 387 1173 53 389 1174 51 388 1175 93 387 1176 90 390 1177 53 389 1178 89 364 1179 53 389 1180 90 390 1181 89 364 1182 55 391 1183 53 389 1184 89 364 1185 58 366 1186 55 391 1187 108 392 1188 112 393 1189 110 394 1190 108 392 1191 114 395 1192 112 393 1193 108 392 1194 116 396 1195 114 395 1196 108 392 1197 118 397 1198 116 396 1199 108 392 1200 120 398 1201 118 397 1202 108 392 1203 122 399 1204 120 398 1205 108 392 1206 135 400 1207 122 399 1208 108 392 1209 136 401 1210 135 400 1211 108 392 1212 138 402 1213 136 401 1214 108 392 1215 140 403 1216 138 402 1217 108 392 1218 142 404 1219 140 403 1220 108 392 1221 144 405 1222 142 404 1223 108 392 1224 104 406 1225 144 405 1226 108 392 1227 105 407 1228 104 406 1229 56 408 1230 57 409 1231 87 410 1232 57 409 1233 84 411 1234 87 410 1235 57 409 1236 59 412 1237 84 411 1238 83 413 1239 84 411 1240 59 412 1241 83 413 1242 59 412 1243 61 414 1244 80 415 1245 83 413 1246 61 414 1247 80 415 1248 61 414 1249 64 416 1250 64 416 1251 78 417 1252 80 415 1253 64 416 1254 40 418 1255 78 417 1256 40 418 1257 76 419 1258 78 417 1259 40 418 1260 39 420 1261 76 419 1262 74 421 1263 76 419 1264 39 420 1265 74 421 1266 39 420 1267 41 422 1268 72 423 1269 74 421 1270 41 422 1271 72 423 1272 41 422 1273 43 424 1274 70 425 1275 72 423 1276 43 424 1277 70 425 1278 43 424 1279 45 426 1280 67 427 1281 70 425 1282 45 426 1283 67 427 1284 45 426 1285 47 428 1286 68 429 1287 67 427 1288 47 428 1289 68 429 1290 47 428 1291 49 430 1292 68 429 1293 49 430 1294 52 431 1295 68 429 1296 52 431 1297 92 432 1298 54 433 1299 92 432 1300 52 431 1301 54 433 1302 91 434 1303 92 432 1304 91 434 1305 54 433 1306 56 408 1307 91 434 1308 56 408 1309 88 435 1310 56 408 1311 87 410 1312 88 435 1313 178 436 1314 182 437 1315 180 438 1316 178 436 1317 152 439 1318 182 437 1319 178 436 1320 153 440 1321 152 439 1322 178 436 1323 156 441 1324 153 440 1325 178 436 1326 158 442 1327 156 441 1328 178 436 1329 160 443 1330 158 442 1331 178 436 1332 162 444 1333 160 443 1334 178 436 1335 164 445 1336 162 444 1337 178 436 1338 166 446 1339 164 445 1340 178 436 1341 168 447 1342 166 446 1343 178 436 1344 170 448 1345 168 447 1346 178 436 1347 172 449 1348 170 448 1349 178 436 1350 174 450 1351 172 449 1352 178 436 1353 176 451 1354 174 450 1355 248 452 1356 249 453 1357 250 454 1358 249 453 1359 251 455 1360 250 454 1361 249 453 1362 252 456 1363 251 455 1364 253 457 1365 251 455 1366 252 456 1367 253 457 1368 254 458 1369 251 455 1370 255 459 1371 254 458 1372 253 457 1373 255 459 1374 253 457 1375 256 460 1376 257 461 1377 255 459 1378 256 460 1379 257 461 1380 258 462 1381 255 459 1382 257 461 1383 259 463 1384 258 462 1385 257 461 1386 260 464 1387 259 463 1388 260 464 1389 261 465 1390 259 463 1391 260 464 1392 262 466 1393 261 465 1394 262 466 1395 263 467 1396 261 465 1397 262 466 1398 264 468 1399 263 467 1400 264 468 1401 265 469 1402 263 467 1403 264 468 1404 266 470 1405 265 469 1406 266 470 1407 267 471 1408 265 469 1409 266 470 1410 268 472 1411 267 471 1412 268 472 1413 269 473 1414 267 471 1415 268 472 1416 270 474 1417 269 473 1418 270 474 1419 271 475 1420 269 473 1421 270 474 1422 272 476 1423 271 475 1424 273 477 1425 271 475 1426 272 476 1427 273 477 1428 274 478 1429 271 475 1430 248 452 1431 274 478 1432 273 477 1433 248 452 1434 273 477 1435 275 479 1436 248 452 1437 275 479 1438 249 453 1439 17 480 1440 15 481 1441 250 482 1442 15 481 1443 248 483 1444 250 482 1445 15 481 1446 13 484 1447 248 483 1448 13 484 1449 274 485 1450 248 483 1451 13 484 1452 10 486 1453 274 485 1454 10 486 1455 271 487 1456 274 485 1457 10 486 1458 8 488 1459 271 487 1460 8 488 1461 269 489 1462 271 487 1463 8 488 1464 5 490 1465 269 489 1466 267 491 1467 269 489 1468 5 490 1469 267 491 1470 5 490 1471 32 492 1472 265 493 1473 267 491 1474 32 492 1475 265 493 1476 32 492 1477 31 494 1478 263 495 1479 265 493 1480 31 494 1481 263 495 1482 31 494 1483 29 496 1484 261 497 1485 263 495 1486 29 496 1487 261 497 1488 29 496 1489 27 498 1490 259 499 1491 261 497 1492 27 498 1493 259 499 1494 27 498 1495 25 500 1496 258 501 1497 259 499 1498 25 500 1499 258 501 1500 25 500 1501 22 502 1502 258 501 1503 22 502 1504 20 503 1505 258 501 1506 20 503 1507 255 504 1508 20 503 1509 254 505 1510 255 504 1511 20 503 1512 18 506 1513 254 505 1514 254 505 1515 18 506 1516 17 480 1517 254 505 1518 17 480 1519 251 507 1520 17 480 1521 250 482 1522 251 507 1523 24 508 1524 262 509 1525 260 510 1526 23 511 1527 24 508 1528 260 510 1529 23 511 1530 260 510 1531 257 512 1532 256 513 1533 23 511 1534 257 512 1535 256 513 1536 21 514 1537 23 511 1538 21 514 1539 256 513 1540 253 515 1541 21 514 1542 253 515 1543 19 516 1544 252 517 1545 19 516 1546 253 515 1547 252 517 1548 16 518 1549 19 516 1550 252 517 1551 14 519 1552 16 518 1553 252 517 1554 249 520 1555 14 519 1556 249 520 1557 12 521 1558 14 519 1559 249 520 1560 275 522 1561 12 521 1562 11 523 1563 12 521 1564 275 522 1565 11 523 1566 275 522 1567 273 524 1568 9 525 1569 11 523 1570 273 524 1571 9 525 1572 273 524 1573 272 526 1574 272 526 1575 6 527 1576 9 525 1577 272 526 1578 270 528 1579 6 527 1580 270 528 1581 7 529 1582 6 527 1583 270 528 1584 268 530 1585 7 529 1586 30 531 1587 7 529 1588 268 530 1589 30 531 1590 268 530 1591 266 532 1592 28 533 1593 30 531 1594 266 532 1595 28 533 1596 266 532 1597 264 534 1598 26 535 1599 28 533 1600 264 534 1601 26 535 1602 264 534 1603 262 509 1604 24 508 1605 26 535 1606 262 509 1607</p>
        </triangles>
      </mesh>
    </geometry>
  </library_geometries>
  <library_controllers>
    <controller id="medkit_medium_qc_skeleton_medkit_medium_reference-skin" name="medkit_medium.qc_skeleton">
      <skin source="#medkit_medium_reference-mesh">
        <bind_shape_matrix>1 0 0 0 0 1 0 0 0 0 1 0 0 0 0 1</bind_shape_matrix>
        <source id="medkit_medium_qc_skeleton_medkit_medium_reference-skin-joints">
          <Name_array id="medkit_medium_qc_skeleton_medkit_medium_reference-skin-joints-array" count="2">Scene_Root cube</Name_array>
          <technique_common>
            <accessor source="#medkit_medium_qc_skeleton_medkit_medium_reference-skin-joints-array" count="2" stride="1">
              <param name="JOINT" type="name"/>
            </accessor>
          </technique_common>
        </source>
        <source id="medkit_medium_qc_skeleton_medkit_medium_reference-skin-bind_poses">
          <float_array id="medkit_medium_qc_skeleton_medkit_medium_reference-skin-bind_poses-array" count="32">1 0 0 0 0 2.38419e-7 1 0 0 -1 2.02816e-7 0 0 0 0 1 1 0 0 0 0 2.38419e-7 1 -13.49551 0 -1 2.02816e-7 0 0 0 0 1</float_array>
          <technique_common>
            <accessor source="#medkit_medium_qc_skeleton_medkit_medium_reference-skin-bind_poses-array" count="2" stride="16">
              <param name="TRANSFORM" type="float4x4"/>
            </accessor>
          </technique_common>
        </source>
        <source id="medkit_medium_qc_skeleton_medkit_medium_reference-skin-weights">
          <float_array id="medkit_medium_qc_skeleton_medkit_medium_reference-skin-weights-array" count="276">1 1 1 1 1 1 1 1 1 1 1 1 1 1 1 1 1 1 1 1 1 1 1 1 1 1 1 1 1 1 1 1 1 1 1 1 1 1 1 1 1 1 1 1 1 1 1 1 1 1 1 1 1 1 1 1 1 1 1 1 1 1 1 1 1 1 1 1 1 1 1 1 1 1 1 1 1 1 1 1 1 1 1 1 1 1 1 1 1 1 1 1 1 1 1 1 1 1 1 1 1 1 1 1 1 1 1 1 1 1 1 1 1 1 1 1 1 1 1 1 1 1 1 1 1 1 1 1 1 1 1 1 1 1 1 1 1 1 1 1 1 1 1 1 1 1 1 1 1 1 1 1 1 1 1 1 1 1 1 1 1 1 1 1 1 1 1 1 1 1 1 1 1 1 1 1 1 1 1 1 1 1 1 1 1 1 1 1 1 1 1 1 1 1 1 1 1 1 1 1 1 1 1 1 1 1 1 1 1 1 1 1 1 1 1 1 1 1 1 1 1 1 1 1 1 1 1 1 1 1 1 1 1 1 1 1 1 1 1 1 1 1 1 1 1 1 1 1 1 1 1 1 1 1 1 1 1 1 1 1 1 1 1 1 1 1 1 1 1 1 1 1 1 1 1 1</float_array>
          <technique_common>
            <accessor source="#medkit_medium_qc_skeleton_medkit_medium_reference-skin-weights-array" count="276" stride="1">
              <param name="WEIGHT" type="float"/>
            </accessor>
          </technique_common>
        </source>
        <joints>
          <input semantic="JOINT" source="#medkit_medium_qc_skeleton_medkit_medium_reference-skin-joints"/>
          <input semantic="INV_BIND_MATRIX" source="#medkit_medium_qc_skeleton_medkit_medium_reference-skin-bind_poses"/>
        </joints>
        <vertex_weights count="276">
          <input semantic="JOINT" source="#medkit_medium_qc_skeleton_medkit_medium_reference-skin-joints" offset="0"/>
          <input semantic="WEIGHT" source="#medkit_medium_qc_skeleton_medkit_medium_reference-skin-weights" offset="1"/>
          <vcount>1 1 1 1 1 1 1 1 1 1 1 1 1 1 1 1 1 1 1 1 1 1 1 1 1 1 1 1 1 1 1 1 1 1 1 1 1 1 1 1 1 1 1 1 1 1 1 1 1 1 1 1 1 1 1 1 1 1 1 1 1 1 1 1 1 1 1 1 1 1 1 1 1 1 1 1 1 1 1 1 1 1 1 1 1 1 1 1 1 1 1 1 1 1 1 1 1 1 1 1 1 1 1 1 1 1 1 1 1 1 1 1 1 1 1 1 1 1 1 1 1 1 1 1 1 1 1 1 1 1 1 1 1 1 1 1 1 1 1 1 1 1 1 1 1 1 1 1 1 1 1 1 1 1 1 1 1 1 1 1 1 1 1 1 1 1 1 1 1 1 1 1 1 1 1 1 1 1 1 1 1 1 1 1 1 1 1 1 1 1 1 1 1 1 1 1 1 1 1 1 1 1 1 1 1 1 1 1 1 1 1 1 1 1 1 1 1 1 1 1 1 1 1 1 1 1 1 1 1 1 1 1 1 1 1 1 1 1 1 1 1 1 1 1 1 1 1 1 1 1 1 1 1 1 1 1 1 1 1 1 1 1 1 1 1 1 1 1 1 1 1 1 1 1 1 1 </vcount>
          <v>1 0 1 1 1 2 1 3 1 4 1 5 1 6 1 7 1 8 1 9 1 10 1 11 1 12 1 13 1 14 1 15 1 16 1 17 1 18 1 19 1 20 1 21 1 22 1 23 1 24 1 25 1 26 1 27 1 28 1 29 1 30 1 31 1 32 1 33 1 34 1 35 1 36 1 37 1 38 1 39 1 40 1 41 1 42 1 43 1 44 1 45 1 46 1 47 1 48 1 49 1 50 1 51 1 52 1 53 1 54 1 55 1 56 1 57 1 58 1 59 1 60 1 61 1 62 1 63 1 64 1 65 1 66 1 67 1 68 1 69 1 70 1 71 1 72 1 73 1 74 1 75 1 76 1 77 1 78 1 79 1 80 1 81 1 82 1 83 1 84 1 85 1 86 1 87 1 88 1 89 1 90 1 91 1 92 1 93 1 94 1 95 1 96 1 97 1 98 1 99 1 100 1 101 1 102 1 103 1 104 1 105 1 106 1 107 1 108 1 109 1 110 1 111 1 112 1 113 1 114 1 115 1 116 1 117 1 118 1 119 1 120 1 121 1 122 1 123 1 124 1 125 1 126 1 127 1 128 1 129 1 130 1 131 1 132 1 133 1 134 1 135 1 136 1 137 1 138 1 139 1 140 1 141 1 142 1 143 1 144 1 145 1 146 1 147 1 148 1 149 1 150 1 151 1 152 1 153 1 154 1 155 1 156 1 157 1 158 1 159 1 160 1 161 1 162 1 163 1 164 1 165 1 166 1 167 1 168 1 169 1 170 1 171 1 172 1 173 1 174 1 175 1 176 1 177 1 178 1 179 1 180 1 181 1 182 1 183 1 184 1 185 1 186 1 187 1 188 1 189 1 190 1 191 1 192 1 193 1 194 1 195 1 196 1 197 1 198 1 199 1 200 1 201 1 202 1 203 1 204 1 205 1 206 1 207 1 208 1 209 1 210 1 211 1 212 1 213 1 214 1 215 1 216 1 217 1 218 1 219 1 220 1 221 1 222 1 223 1 224 1 225 1 226 1 227 1 228 1 229 1 230 1 231 1 232 1 233 1 234 1 235 1 236 1 237 1 238 1 239 1 240 1 241 1 242 1 243 1 244 1 245 1 246 1 247 1 248 1 249 1 250 1 251 1 252 1 253 1 254 1 255 1 256 1 257 1 258 1 259 1 260 1 261 1 262 1 263 1 264 1 265 1 266 1 267 1 268 1 269 1 270 1 271 1 272 1 273 1 274 1 275</v>
        </vertex_weights>
      </skin>
    </controller>
  </library_controllers>
  <library_animations>
    <animation id="action_container-medkit_medium_qc_skeleton" name="medkit_medium.qc_skeleton">
      <animation id="medkit_medium_qc_skeleton_idle_002_cube_pose_matrix" name="medkit_medium.qc_skeleton">
        <source id="medkit_medium_qc_skeleton_idle_002_cube_pose_matrix-input">
          <float_array id="medkit_medium_qc_skeleton_idle_002_cube_pose_matrix-input-array" count="30">0 0.04166662 0.08333331 0.125 0.1666666 0.2083333 0.25 0.2916666 0.3333333 0.375 0.4166666 0.4583333 0.5 0.5416667 0.5833333 0.625 0.6666667 0.7083333 0.75 0.7916667 0.8333333 0.875 0.9166667 0.9583333 1 1.041667 1.083333 1.125 1.166667 1.208333</float_array>
          <technique_common>
            <accessor source="#medkit_medium_qc_skeleton_idle_002_cube_pose_matrix-input-array" count="30" stride="1">
              <param name="TIME" type="float"/>
            </accessor>
          </technique_common>
        </source>
        <source id="medkit_medium_qc_skeleton_idle_002_cube_pose_matrix-output">
          <float_array id="medkit_medium_qc_skeleton_idle_002_cube_pose_matrix-output-array" count="480">1 0 0 0 0 1 0 13.49551 0 0 1 0 0 0 0 1 0.9749387 0 0.2224737 0 0 1 0 13.49551 -0.2224737 0 0.9749387 0 0 0 0 1 0.9009688 0 0.4338838 0 0 1 0 13.49551 -0.4338838 0 0.9009688 0 0 0 0 1 0.7818617 0 0.6234519 0 0 1 0 13.49551 -0.6234519 0 0.7818617 0 0 0 0 1 0.6234897 0 0.7818316 0 0 1 0 13.49551 -0.7818316 0 0.6234897 0 0 0 0 1 0.4339274 0 0.9009479 0 0 1 0 13.49551 -0.9009479 0 0.4339274 0 0 0 0 1 0.2225208 0 0.974928 0 0 1 0 13.49551 -0.974928 0 0.2225208 0 0 0 0 1 3.13916e-7 0 1 0 0 1 0 13.49551 -1 0 3.13916e-7 0 0 0 0 1 -0.2225207 -1.23992e-6 0.974928 0 -1.39706e-7 1 1.23992e-6 13.49551 -0.974928 1.39706e-7 -0.2225207 0 0 0 0 1 -0.4338841 -1.19349e-6 0.9009687 0 -2.72407e-7 1 1.19349e-6 13.49551 -0.9009687 2.72407e-7 -0.4338841 0 0 0 0 1 -0.6234898 -1.11869e-6 0.7818315 0 -3.91447e-7 1 1.11869e-6 13.49551 -0.7818315 3.91447e-7 -0.6234898 0 0 0 0 1 -0.7818318 2.36386e-7 0.6234894 0 4.9086e-7 1 2.36386e-7 13.49551 -0.6234894 4.9086e-7 -0.7818318 0 0 0 0 1 -0.9009896 -9.00212e-7 0.4338407 0 -5.65671e-7 1 9.00213e-7 13.49551 -0.4338407 5.65671e-7 -0.9009896 0 0 0 0 1 -0.974928 4.88127e-7 0.2225205 0 6.12092e-7 1 4.88127e-7 13.49551 -0.2225205 6.12092e-7 -0.974928 0 0 0 0 1 -1 -6.27833e-7 8.74224e-8 0 -6.27833e-7 1 6.27833e-7 13.49551 -8.74228e-8 6.27833e-7 -1 0 0 0 0 1 -0.9781569 -4.97326e-7 -0.2078682 0 -6.14119e-7 1 4.97326e-7 13.49551 0.2078682 6.14119e-7 -0.9781569 0 0 0 0 1 -0.9135625 8.83171e-7 -0.4066982 0 5.73565e-7 1 8.83171e-7 13.49551 0.4066982 5.73565e-7 -0.9135625 0 0 0 0 1 -0.8090396 9.96844e-7 -0.5877541 0 5.07942e-7 1 9.96844e-7 13.49551 0.5877541 5.07942e-7 -0.8090396 0 0 0 0 1 -0.6691567 -1.61277e-7 -0.7431213 0 -4.20119e-7 1 1.61277e-7 13.49551 0.7431213 4.20119e-7 -0.6691567 0 0 0 0 1 -0.5000281 -8.41239e-8 -0.8660092 0 -3.13934e-7 1 8.41238e-8 13.49551 0.8660092 3.13934e-7 -0.5000281 0 0 0 0 1 -0.3090446 -3.0734e-8 -0.9510475 0 -1.94028e-7 1 3.0734e-8 13.49551 0.9510475 1.94028e-7 -0.3090446 0 0 0 0 1 -0.1045539 1.25222e-6 -0.9945192 0 6.56424e-8 1 1.25222e-6 13.49551 0.9945192 6.56424e-8 -0.1045539 0 0 0 0 1 0.1045539 0 -0.9945192 0 0 1 0 13.49551 0.9945192 0 0.1045539 0 0 0 0 1 0.3090446 0 -0.9510475 0 0 1 0 13.49551 0.9510475 0 0.3090446 0 0 0 0 1 0.5000281 0 -0.8660091 0 0 1 0 13.49551 0.8660091 0 0.5000281 0 0 0 0 1 0.6691566 0 -0.7431214 0 0 1 0 13.49551 0.7431214 0 0.6691566 0 0 0 0 1 0.8090397 0 -0.5877541 0 0 1 0 13.49551 0.5877541 0 0.8090397 0 0 0 0 1 0.9135625 0 -0.4066983 0 0 1 0 13.49551 0.4066983 0 0.9135625 0 0 0 0 1 0.9781569 0 -0.2078682 0 0 1 0 13.49551 0.2078682 0 0.9781569 0 0 0 0 1 1 0 0 0 0 1 0 13.49551 0 0 1 0 0 0 0 1</float_array>
          <technique_common>
            <accessor source="#medkit_medium_qc_skeleton_idle_002_cube_pose_matrix-output-array" count="30" stride="16">
              <param name="TRANSFORM" type="float4x4"/>
            </accessor>
          </technique_common>
        </source>
        <source id="medkit_medium_qc_skeleton_idle_002_cube_pose_matrix-interpolation">
          <Name_array id="medkit_medium_qc_skeleton_idle_002_cube_pose_matrix-interpolation-array" count="30">LINEAR LINEAR LINEAR LINEAR LINEAR LINEAR LINEAR LINEAR LINEAR LINEAR LINEAR LINEAR LINEAR LINEAR LINEAR LINEAR LINEAR LINEAR LINEAR LINEAR LINEAR LINEAR LINEAR LINEAR LINEAR LINEAR LINEAR LINEAR LINEAR LINEAR</Name_array>
          <technique_common>
            <accessor source="#medkit_medium_qc_skeleton_idle_002_cube_pose_matrix-interpolation-array" count="30" stride="1">
              <param name="INTERPOLATION" type="name"/>
            </accessor>
          </technique_common>
        </source>
        <sampler id="medkit_medium_qc_skeleton_idle_002_cube_pose_matrix-sampler">
          <input semantic="INPUT" source="#medkit_medium_qc_skeleton_idle_002_cube_pose_matrix-input"/>
          <input semantic="OUTPUT" source="#medkit_medium_qc_skeleton_idle_002_cube_pose_matrix-output"/>
          <input semantic="INTERPOLATION" source="#medkit_medium_qc_skeleton_idle_002_cube_pose_matrix-interpolation"/>
        </sampler>
        <channel source="#medkit_medium_qc_skeleton_idle_002_cube_pose_matrix-sampler" target="medkit_medium_qc_skeleton_cube/transform"/>
      </animation>
    </animation>
  </library_animations>
  <library_visual_scenes>
    <visual_scene id="medkit_small_bday_qc" name="medkit_small_bday.qc">
      <node id="medkit_medium_qc_skeleton" name="medkit_medium.qc_skeleton" type="NODE">
        <matrix sid="transform">1 0 0 0 0 1 0 0 0 0 1 0 0 0 0 1</matrix>
        <node id="medkit_medium_qc_skeleton_Scene_Root" name="Scene_Root" sid="Scene_Root" type="JOINT">
          <matrix sid="transform">1 0 0 0 0 2.02816e-7 -1 0 0 1 2.38419e-7 0 0 0 0 1</matrix>
          <node id="medkit_medium_qc_skeleton_cube" name="cube" sid="cube" type="JOINT">
            <matrix sid="transform">1 0 0 0 0 1 0 13.49551 0 0 1 0 0 0 0 1</matrix>
            <extra>
              <technique profile="blender">
                <layer sid="layer" type="string">0</layer>
                <tip_x sid="tip_x" type="float">0</tip_x>
                <tip_y sid="tip_y" type="float">0</tip_y>
                <tip_z sid="tip_z" type="float">0.0224924</tip_z>
              </technique>
            </extra>
          </node>
          <extra>
            <technique profile="blender">
              <layer sid="layer" type="string">0</layer>
              <tip_x sid="tip_x" type="float">0</tip_x>
              <tip_y sid="tip_y" type="float">0</tip_y>
              <tip_z sid="tip_z" type="float">0.02249246</tip_z>
            </technique>
          </extra>
        </node>
        <node id="medkit_medium_reference" name="medkit_medium_reference" type="NODE">
          <matrix sid="transform">1 0 0 0 0 1 0 0 0 0 1 0 0 0 0 1</matrix>
          <instance_controller url="#medkit_medium_qc_skeleton_medkit_medium_reference-skin">
            <skeleton>#medkit_medium_qc_skeleton_Scene_Root</skeleton>
            <bind_material>
              <technique_common>
                <instance_material symbol="medkit-material" target="#medkit-material">
                  <bind_vertex_input semantic="UVMap" input_semantic="TEXCOORD" input_set="0"/>
                </instance_material>
              </technique_common>
            </bind_material>
          </instance_controller>
        </node>
      </node>
    </visual_scene>
  </library_visual_scenes>
  <scene>
    <instance_visual_scene url="#medkit_small_bday_qc"/>
  </scene>
</COLLADA>