<?xml version="1.0" encoding="utf-8"?>
<COLLADA xmlns="http://www.collada.org/2005/11/COLLADASchema" version="1.4.1" xmlns:xsi="http://www.w3.org/2001/XMLSchema-instance">
  <asset>
    <contributor>
      <author>Blender User</author>
      <authoring_tool>Blender 2.90.1 commit date:2020-09-23, commit time:06:43, hash:3e85bb34d0d7</authoring_tool>
    </contributor>
    <created>2023-10-29T00:10:25</created>
    <modified>2023-10-29T00:10:25</modified>
    <unit name="meter" meter="1"/>
    <up_axis>Z_UP</up_axis>
  </asset>
  <library_effects>
    <effect id="medkit-effect">
      <profile_COMMON>
        <newparam sid="medkit_png-surface">
          <surface type="2D">
            <init_from>medkit_png</init_from>
          </surface>
        </newparam>
        <newparam sid="medkit_png-sampler">
          <sampler2D>
            <source>medkit_png-surface</source>
          </sampler2D>
        </newparam>
        <technique sid="common">
          <lambert>
            <emission>
              <color sid="emission">0 0 0 1</color>
            </emission>
            <diffuse>
              <texture texture="medkit_png-sampler" texcoord="UVMap"/>
            </diffuse>
            <index_of_refraction>
              <float sid="ior">1.45</float>
            </index_of_refraction>
          </lambert>
        </technique>
      </profile_COMMON>
    </effect>
  </library_effects>
  <library_images>
    <image id="medkit_png" name="medkit_png">
      <init_from>medkit.png</init_from>
    </image>
  </library_images>
  <library_materials>
    <material id="medkit-material" name="medkit">
      <instance_effect url="#medkit-effect"/>
    </material>
  </library_materials>
  <library_geometries>
    <geometry id="medkit_small_reference-mesh" name="medkit_small_reference">
      <mesh>
        <source id="medkit_small_reference-mesh-positions">
          <float_array id="medkit_small_reference-mesh-positions-array" count="480">2.272299 -0.903582 19.17304 2.272299 0.934951 19.17304 2.113943 0.01568394 19.26446 2.723258 1.714267 18.91267 3.398165 2.234989 18.52301 4.194273 2.417843 18.06338 4.990381 2.234989 17.60375 5.665288 1.714267 17.21409 6.116247 0.934951 16.95373 6.274603 0.01568496 16.8623 6.116247 -0.903582 16.95373 5.665288 -1.682898 17.21409 4.990381 -2.20362 17.60375 4.194273 -2.386474 18.06338 3.398165 -2.20362 18.52301 2.723258 -1.682898 18.91267 1.948312 -2.39405 16.16955 4.083405 -2.592593 17.87135 3.218986 -2.39405 18.37042 2.812731 -2.592593 15.67048 4.947823 -2.39405 17.37228 3.677149 -2.39405 15.17141 5.680642 -1.828646 16.94919 4.409968 -1.828646 14.74831 6.170296 -0.98246 16.66649 4.899622 -0.98246 14.46561 6.342239 0.01568496 16.56721 5.071565 0.01568496 14.36634 6.170296 1.013829 16.66649 4.899622 1.013829 14.46561 5.680642 1.860015 16.94919 4.409968 1.860015 14.74831 4.947823 2.425419 17.37228 3.677149 2.425419 15.17141 4.083405 2.623962 17.87135 2.812731 2.623962 15.67048 3.218986 2.425419 18.37042 1.948312 2.425419 16.16955 2.486167 1.860015 18.79352 1.215493 1.860015 16.59265 1.996513 1.013829 19.07622 0.72584 1.013829 16.87535 1.82457 0.01568394 19.17549 0.553896 0.01568496 16.97462 1.996513 -0.98246 19.07622 0.72584 -0.98246 16.87535 2.486167 -1.828646 18.79352 1.215493 -1.828646 16.59265 4.648365 0.01568496 14.60929 4.50859 0.827089 14.68999 4.110544 1.514965 14.9198 3.514826 1.974589 15.26373 2.812129 2.135988 15.66944 2.109431 1.974589 16.07514 1.513713 1.514965 16.41908 1.115667 0.827089 16.64889 0.975892 0.01568496 16.72959 1.115667 -0.79572 16.64889 1.513713 -1.483596 16.41908 2.109431 -1.94322 16.07514 2.812129 -2.104618 15.66944 3.514826 -1.94322 15.26373 4.110544 -1.483596 14.9198 4.50859 -0.79572 14.68999 -6.794617 -1.55881 6.589149 -6.025668 -2.887654 6.145196 -1.293783 -3.116601 14.82236 -0.049214 -4.076844 14.10381 -4.874855 -3.77556 5.480774 1.418856 -4.414037 13.25622 -3.517378 -4.08735 4.697035 2.886926 -4.076844 12.40863 -2.159902 -3.77556 3.913295 4.131495 -3.116601 11.69008 -1.009089 -2.887654 3.248873 4.96309 -1.679496 11.20995 -0.24014 -1.558809 2.80492 5.255107 0.01568496 11.04136 0.02987897 0.008669972 2.649025 4.96309 1.710866 11.20995 -0.24014 1.576149 2.80492 4.131495 3.147971 11.69008 -1.009089 2.904993 3.248873 2.886926 4.108214 12.40863 0.698367 -3.732274 15.11321 2.042833 -4.041076 14.33698 3.387299 -3.732274 13.56075 4.527081 -2.852879 12.9027 5.28866 -1.536771 12.463 5.556091 0.01568496 12.3086 5.28866 1.56814 12.463 4.527081 2.884248 12.9027 3.387299 3.763644 13.56075 2.042833 4.072446 14.33698 2.570991 -3.088307 15.25177 3.599695 -2.85203 14.65785 4.471789 -2.179169 14.15435 5.054504 -1.172161 13.81792 5.259126 0.01568496 13.69978 5.054504 1.203531 13.81792 4.471789 2.210538 14.15435 3.599695 2.883399 14.65785 2.570991 3.119676 15.25177 1.542286 2.883399 15.8457 1.542286 -2.85203 15.8457 0.670192 2.210538 16.3492 0.08747696 1.203531 16.68563 -0.117145 0.01568496 16.80377 0.08747696 -1.172162 16.68563 0.670192 -2.179169 16.3492 0.698367 3.763643 15.11321 -0.441416 2.884248 15.77126 -1.202994 1.56814 16.21096 -1.470425 0.01568496 16.36536 -1.202994 -1.536771 16.21096 1.418856 4.445406 13.25622 -0.049214 4.108214 14.10381 -1.293783 3.147971 14.82236 -2.125378 1.710866 15.30248 -2.417395 0.01568496 15.47108 -2.125378 -1.679496 15.30248 -0.441416 -2.852879 15.77126 -2.159902 3.792899 3.913296 -3.517378 4.10469 4.697035 -4.874855 3.792899 5.480774 -6.025668 2.904993 6.145196 -6.794617 1.576149 6.589149 -7.064636 0.008668959 6.745045 -1.547366 2.72531 2.675916 -2.626784 3.558131 3.299119 -3.900045 3.850579 4.034236 -5.173306 3.558131 4.769354 -6.252725 2.72531 5.392557 -6.973969 1.478905 5.808967 -7.227236 0.008668959 5.955191 -6.973969 -1.461566 5.808967 -6.252725 -2.707971 5.392557 -3.223738 2.702907 2.973655 -4.190213 2.924891 3.53165 -5.156689 2.702907 4.089645 -5.976027 2.070749 4.56269 -6.523491 1.124659 4.878769 -6.715735 0.008668959 4.989761 -6.523491 -1.10732 4.878769 -5.976027 -2.05341 4.56269 -5.173306 -3.540792 4.769354 -3.900045 -3.83324 4.034236 -2.626784 -3.540792 3.299119 -1.547366 -2.707971 2.675916 -0.826121 -1.461565 2.259506 -0.572854 0.008669972 2.113281 -0.826121 1.478905 2.259506 -5.156689 -2.685568 4.089645 -4.190213 -2.907552 3.53165 -3.223738 -2.685568 2.973655 -2.4044 -2.05341 2.50061 -1.856936 -1.10732 2.184531 -1.664692 0.008669972 2.07354 -1.856936 1.124659 2.184532 -2.4044 2.07075 2.50061</float_array>
          <technique_common>
            <accessor source="#medkit_small_reference-mesh-positions-array" count="160" stride="3">
              <param name="X" type="float"/>
              <param name="Y" type="float"/>
              <param name="Z" type="float"/>
            </accessor>
          </technique_common>
        </source>
        <source id="medkit_small_reference-mesh-normals">
          <float_array id="medkit_small_reference-mesh-normals-array" count="720">0.5000008 1.25e-7 0.866025 0.5000019 0 0.8660244 0.499999 0 0.8660261 0.5000037 -6.9314e-7 0.8660233 0.4999994 3.2202e-7 0.8660258 0.4999998 4.75505e-7 0.8660256 0.5000007 1.47697e-7 0.866025 0.4999999 4.62723e-7 0.8660255 0.4999991 1.88945e-7 0.8660261 0.4999996 0 0.8660258 0.5000003 0 0.8660253 0.4999997 -7.38487e-7 0.8660256 0.5000004 -1.73285e-7 0.8660252 0.4999998 -9.42178e-7 0.8660255 0.5000002 -1.3148e-6 0.8660253 0.500009 4.25515e-6 0.8660203 -0.3314132 -0.9238798 0.1913415 0 -1 -1.20903e-7 -0.3314134 -0.9238796 0.1913416 0 -1 0 0.3314135 -0.9238796 -0.1913417 0.3314135 -0.9238796 -0.1913418 0.6123725 -0.7071067 -0.3535535 0.6123721 -0.707107 -0.3535536 0.8001031 -0.3826834 -0.4619399 0.800103 -0.3826836 -0.4619399 0.8660253 -1.25739e-7 -0.5000002 0.8660253 4.25578e-7 -0.5000002 0.8001031 0.3826834 -0.4619401 0.8001028 0.3826837 -0.4619401 0.6123721 0.7071071 -0.3535535 0.6123723 0.7071067 -0.3535537 0.3314133 0.9238798 -0.1913418 0.3314136 0.9238796 -0.1913418 2.22461e-7 1 -2.27297e-7 0 1 1.45083e-7 -0.3314132 0.9238798 0.1913415 -0.3314133 0.9238798 0.1913417 -0.6123722 0.707107 0.3535534 -0.6123723 0.7071069 0.3535535 -0.8001033 0.3826834 0.4619398 -0.800103 0.3826835 0.4619399 -0.8660252 -2.32133e-7 0.5000004 -0.8660255 0 0.5000001 -0.800103 -0.3826836 0.46194 -0.8001032 -0.3826836 0.4619398 -0.6123723 -0.707107 0.3535534 -0.6123723 -0.707107 0.3535535 -0.4978592 3.33637e-7 -0.867258 -0.4980254 9.439e-4 -0.8671619 -0.4978601 1.82888e-7 -0.8672574 -0.4980242 9.4388e-4 -0.8671626 -0.4984884 0.001744747 -0.8668947 -0.4984866 0.001744866 -0.8668957 -0.499181 0.002280712 -0.8664947 -0.4991802 0.00228095 -0.8664952 -0.4999982 0.002468705 -0.866023 -0.4999976 0.002468466 -0.8660234 -0.5008156 0.002278804 -0.8655511 -0.500815 0.002278745 -0.8655514 -0.5015117 0.001745641 -0.8651491 -0.5015116 0.001745939 -0.8651492 -0.5019751 9.44435e-4 -0.8648816 -0.501975 9.44082e-4 -0.8648817 -0.5021387 -2.19817e-7 -0.8647872 -0.5021369 -3.51177e-7 -0.8647882 -0.5019755 -9.44226e-4 -0.8648813 -0.5019728 -9.44174e-4 -0.8648829 -0.5015106 -0.001745462 -0.8651497 -0.5015104 -0.001745283 -0.86515 -0.5008169 -0.0022794 -0.8655503 -0.5008178 -0.002279281 -0.8655498 -0.4999978 -0.002468109 -0.8660233 -0.4999977 -0.002468407 -0.8660233 -0.4991808 -0.00228101 -0.8664948 -0.4991812 -0.002281069 -0.8664947 -0.4984869 -0.001744806 -0.8668956 -0.4984875 -0.001744687 -0.8668951 -0.498025 -9.44042e-4 -0.8671622 -0.4980248 -9.43909e-4 -0.8671624 -0.8758217 -0.3766688 0.3017569 -0.6909773 -0.6960148 0.1952272 -0.5431582 -0.7012649 0.4617432 -0.2644093 -0.9162205 0.3010447 -0.4143105 -0.9094317 0.03578954 0.06428682 -0.9917004 0.1113448 -0.08807575 -0.9843636 -0.1525491 0.3929034 -0.9162236 -0.07849448 0.2382803 -0.9094695 -0.3407167 0.6715341 -0.7012473 -0.2393622 0.5148252 -0.6960708 -0.5004403 0.8577054 -0.3795133 -0.3468591 0.6996189 -0.3767105 -0.6071429 0.923078 -2.03511e-6 -0.384613 0.7644367 -6.1826e-7 -0.6446988 0.8575998 0.3795248 -0.3471076 0.6995158 0.376696 -0.6072708 0.6714419 0.7012639 -0.2395725 0.5144579 0.6959969 -0.5009206 0.3926084 0.9163004 -0.07907116 -0.04339158 -0.8049809 0.591712 0.2453714 -0.8713049 0.4249949 0.5341341 -0.8049803 0.2582779 0.7789421 -0.616086 0.1169927 0.9425051 -0.3334332 0.02250468 0.9999438 1.01887e-6 -0.01060259 0.9425069 0.3334246 0.0225588 0.7789412 0.6160871 0.1169936 0.5341327 0.8049809 0.2582788 0.24537 0.871305 0.4249957 0.3993327 -0.6017763 0.6916638 0.5987713 -0.5559295 0.5765548 0.7678341 -0.4254897 0.4789463 0.8808158 -0.2302896 0.4136791 0.9204652 3.80445e-7 0.3908248 0.8808153 0.2302904 0.4136796 0.7678332 0.4254906 0.4789468 0.598771 0.5559294 0.5765551 0.399332 0.6017764 0.6916641 0.1998949 0.5559686 0.8068092 0.1998956 -0.5559688 0.8068088 0.4489469 -0.4402129 0.7775986 0.5948389 -0.4067039 0.6933677 0.7185208 -0.3112782 0.6219596 0.8011631 -0.1684627 0.5742458 0.8301826 3.25387e-7 0.5574916 0.801163 0.168462 0.5742461 0.7185213 0.3112776 0.6219593 0.5948397 0.4067035 0.6933673 0.4489474 0.4402132 0.777598 0.3030543 0.4067035 0.8618297 0.179373 0.3112772 0.9332374 0.0308206 0.4255197 0.9044241 0.09673249 0.1684625 0.9809502 -0.08210003 0.2302736 0.9696565 0.06771159 0 0.997705 -0.1217689 -1.5428e-7 0.9925585 0.09673088 -0.1684628 0.9809503 -0.08210086 -0.2302733 0.9696565 0.1793735 -0.3112766 0.9332374 0.0308215 -0.4255196 0.9044243 0.3030554 -0.4067031 0.8618296 -0.04339164 0.8049807 0.5917121 -0.2881918 0.6161056 0.733048 -0.4517619 0.3334338 0.8274861 -0.5092013 0 0.8606474 -0.4517624 -0.3334336 0.8274859 0.06382948 0.9918115 0.110616 -0.2649737 0.9163367 0.3001933 -0.5435013 0.701325 0.461248 -0.729654 0.3795748 0.5687954 -0.7950077 5.27245e-7 0.6065994 -0.7296003 -0.3795392 0.5688881 -0.2881928 -0.6161047 0.7330484 0.2378894 0.909354 -0.3412976 -0.08845186 0.9842285 -0.1532011 -0.4145956 0.9093245 0.03520739 -0.6911284 0.6959666 0.1948642 -0.875842 0.3766651 0.3017022 -0.9407599 1.72792e-6 0.3390737 0.1711503 0.5551865 -0.8139261 -0.04945331 0.7253893 -0.6865602 -0.3096551 0.7851501 -0.5363332 -0.5698642 0.7253831 -0.3861013 -0.7904587 0.5551832 -0.2587406 -0.9378548 0.3004611 -0.1736421 -0.9896127 -7.51782e-6 -0.1437597 -0.9378531 -0.3004661 -0.173643 -0.7904556 -0.5551869 -0.2587424 -0.2475946 0.4907383 -0.8353878 -0.4236326 0.5311709 -0.7337526 -0.5996696 0.4907383 -0.6321173 -0.748907 0.3755942 -0.5459554 -0.848624 0.2032695 -0.488384 -0.8836398 -3.32146e-7 -0.4681674 -0.8486238 -0.2032703 -0.4883841 -0.7489069 -0.3755946 -0.5459553 -0.5698639 -0.7253834 -0.3861013 -0.3096504 -0.7851504 -0.5363354 -0.04944127 -0.7253832 -0.6865674 0.1711531 -0.5551832 -0.8139278 0.3185511 -0.3004568 -0.8990277 0.3703072 -1.2846e-5 -0.9289094 0.3185474 0.3004664 -0.8990259 -0.5996698 -0.4907383 -0.6321172 -0.4236319 -0.5311712 -0.7337529 -0.2475952 -0.4907384 -0.8353877 -0.09835767 -0.3755942 -0.9215502 0.001359403 -0.2032708 -0.9791216 0.03637433 7.24682e-7 -0.9993383 0.001359283 0.20327 -0.9791218 -0.09835755 0.3755946 -0.92155 -0.5000004 0 -0.8660253 -0.4999997 2.4507e-7 -0.8660256 -0.5000055 -9.62404e-7 -0.8660222 -0.4999995 3.61819e-7 -0.8660258 -0.5000001 0 -0.8660254 -0.5000001 0 -0.8660254 -0.5000001 -2.04768e-7 -0.8660254 -0.5 3.21963e-7 -0.8660254 -0.5 3.29664e-7 -0.8660254 -0.5000001 -2.0008e-7 -0.8660254 -0.5000002 -1.77546e-7 -0.8660254 -0.5000001 0 -0.8660253 -0.5 0 -0.8660254 -0.4999997 -3.61818e-7 -0.8660256 -0.4999994 -2.4507e-7 -0.8660258 -0.500002 9.62405e-7 -0.8660243 -0.2938893 -5.08032e-7 0.9558395 -0.2456035 -0.2802881 0.9279642 -0.2456035 -0.2802885 0.927964 -0.108098 -0.5179076 0.8485791 -0.1080982 -0.5179069 0.8485797 0.0976842 -0.6766747 0.7297734 0.09768354 -0.6766749 0.7297734 0.3404221 -0.7324295 0.589627 0.340422 -0.7324298 0.5896267 0.5831579 -0.6766762 0.4494844 0.5831584 -0.6766758 0.4494844 0.7889428 -0.5179035 0.3306742 0.7889438 -0.5179024 0.3306735 0.9264411 -0.280287 0.2512892 0.9264411 -0.2802867 0.2512891 0.974724 0 0.2234125 0.974724 -3.77096e-7 0.2234125 0.92644 0.2802895 0.2512902 0.9264407 0.2802882 0.2512896 0.7889443 0.5179018 0.3306731 0.788945 0.517901 0.330673 0.5831604 0.6766744 0.4494839 0.5831598 0.6766747 0.4494844 0.3404193 0.7324303 0.5896275 0.3404201 0.7324299 0.5896275 0.09768652 0.6766756 0.7297723 0.09768658 0.6766754 0.7297724 -0.1081038 0.5179062 0.8485792 -0.1081041 0.517906 0.8485794 -0.2455915 0.280289 0.9279671 -0.2455942 0.2802885 0.9279666 -0.2938861 -4.33015e-7 0.9558405</float_array>
          <technique_common>
            <accessor source="#medkit_small_reference-mesh-normals-array" count="240" stride="3">
              <param name="X" type="float"/>
              <param name="Y" type="float"/>
              <param name="Z" type="float"/>
            </accessor>
          </technique_common>
        </source>
        <source id="medkit_small_reference-mesh-map-0">
          <float_array id="medkit_small_reference-mesh-map-0-array" count="1896">0.250846 0.102917 0.28326 0.103213 0.267045 0.106139 0.250846 0.102917 0.296737 0.09388798 0.28326 0.103213 0.250846 0.102917 0.305783 0.08025097 0.296737 0.09388798 0.250846 0.102917 0.308972 0.064179 0.305783 0.08025097 0.250846 0.102917 0.305762 0.04811799 0.308972 0.064179 0.250846 0.102917 0.296659 0.03449898 0.305762 0.04811799 0.250846 0.102917 0.283032 0.02541095 0.296659 0.03449898 0.250846 0.102917 0.266969 0.022219 0.283032 0.02541095 0.250846 0.102917 0.250905 0.02540796 0.266969 0.022219 0.250846 0.102917 0.23728 0.03449594 0.250905 0.02540796 0.250846 0.102917 0.2281579 0.04810094 0.23728 0.03449594 0.250846 0.102917 0.224964 0.06417399 0.2281579 0.04810094 0.250846 0.102917 0.228102 0.080235 0.224964 0.06417399 0.250846 0.102917 0.236985 0.09400796 0.228102 0.080235 0.03612595 0.265458 0.01142096 0.328325 0.03612595 0.328386 0.03612595 0.265458 0.01142096 0.265519 0.01142096 0.328325 0.01142096 0.265519 0.03612595 0.328386 0.01142096 0.328325 0.01142096 0.265519 0.03612595 0.265458 0.03612595 0.328386 0.03612595 0.265458 0.06008696 0.328483 0.03612595 0.328386 0.03612595 0.265458 0.06008696 0.265362 0.06008696 0.328483 0.06008696 0.265362 0.083485 0.328531 0.06008696 0.328483 0.06008696 0.265362 0.083485 0.265314 0.083485 0.328531 0.083485 0.265314 0.10659 0.328553 0.083485 0.328531 0.083485 0.265314 0.10659 0.265292 0.10659 0.328553 0.10659 0.265292 0.129694 0.328531 0.10659 0.328553 0.10659 0.265292 0.129694 0.265314 0.129694 0.328531 0.129694 0.265314 0.153092 0.328483 0.129694 0.328531 0.129694 0.265314 0.153092 0.265362 0.153092 0.328483 0.153092 0.265362 0.177053 0.328386 0.153092 0.328483 0.153092 0.265362 0.177053 0.265458 0.177053 0.328386 0.177053 0.265458 0.201758 0.328325 0.177053 0.328386 0.177053 0.265458 0.201758 0.265519 0.201758 0.328325 0.201758 0.265519 0.177053 0.328386 0.201758 0.328325 0.201758 0.265519 0.177053 0.265458 0.177053 0.328386 0.177053 0.265458 0.153092 0.328483 0.177053 0.328386 0.177053 0.265458 0.153092 0.265362 0.153092 0.328483 0.153092 0.265362 0.129694 0.328531 0.153092 0.328483 0.153092 0.265362 0.129694 0.265314 0.129694 0.328531 0.129694 0.265314 0.10659 0.328553 0.129694 0.328531 0.129694 0.265314 0.10659 0.265292 0.10659 0.328553 0.10659 0.265292 0.083485 0.328531 0.10659 0.328553 0.10659 0.265292 0.083485 0.265314 0.083485 0.328531 0.083485 0.265314 0.06008696 0.328483 0.083485 0.328531 0.083485 0.265314 0.06008696 0.265362 0.06008696 0.328483 0.06008696 0.265362 0.03612595 0.328386 0.06008696 0.328483 0.06008696 0.265362 0.03612595 0.265458 0.03612595 0.328386 0.266966 0.235886 0.286183 0.230314 0.266966 0.226491 0.266966 0.235886 0.282588 0.238994 0.286183 0.230314 0.282588 0.238994 0.302475 0.2412 0.286183 0.230314 0.282588 0.238994 0.295832 0.247843 0.302475 0.2412 0.295832 0.247843 0.313361 0.257492 0.302475 0.2412 0.295832 0.247843 0.304681 0.261087 0.313361 0.257492 0.304681 0.261087 0.317183 0.276709 0.313361 0.257492 0.304681 0.261087 0.307789 0.276709 0.317183 0.276709 0.307789 0.276709 0.313361 0.295927 0.317183 0.276709 0.307789 0.276709 0.304681 0.292332 0.313361 0.295927 0.304681 0.292332 0.302475 0.312219 0.313361 0.295927 0.304681 0.292332 0.295832 0.305575 0.302475 0.312219 0.295832 0.305575 0.286183 0.323104 0.302475 0.312219 0.295832 0.305575 0.282588 0.314424 0.286183 0.323104 0.282588 0.314424 0.266966 0.326927 0.286183 0.323104 0.282588 0.314424 0.266966 0.317532 0.266966 0.326927 0.266966 0.317532 0.247748 0.323104 0.266966 0.326927 0.266966 0.317532 0.251344 0.314424 0.247748 0.323104 0.251344 0.314424 0.231456 0.312219 0.247748 0.323104 0.251344 0.314424 0.2381 0.305575 0.231456 0.312219 0.2381 0.305575 0.220571 0.295927 0.231456 0.312219 0.2381 0.305575 0.229251 0.292332 0.220571 0.295927 0.229251 0.292332 0.2167479 0.276709 0.220571 0.295927 0.229251 0.292332 0.226143 0.276709 0.2167479 0.276709 0.226143 0.276709 0.220571 0.257492 0.2167479 0.276709 0.226143 0.276709 0.229251 0.261087 0.220571 0.257492 0.229251 0.261087 0.231456 0.2412 0.220571 0.257492 0.229251 0.261087 0.2381 0.247843 0.231456 0.2412 0.2381 0.247843 0.247748 0.230314 0.231456 0.2412 0.2381 0.247843 0.251344 0.238994 0.247748 0.230314 0.251344 0.238994 0.266966 0.226491 0.247748 0.230314 0.251344 0.238994 0.266966 0.235886 0.266966 0.226491 0.08217096 0.049389 0.058483 0.049389 0.054645 0.19888 0.058483 0.049389 0.03094595 0.19888 0.054645 0.19888 0.058483 0.049389 0.03655695 0.049389 0.03094595 0.19888 0.03655695 0.049389 0.009715974 0.19888 0.03094595 0.19888 0.03655695 0.049389 0.01690399 0.049389 0.009715974 0.19888 0.01690399 0.049389 0.03094595 0.19888 0.009715974 0.19888 0.01690399 0.049389 0.03655695 0.049389 0.03094595 0.19888 0.03655695 0.049389 0.054645 0.19888 0.03094595 0.19888 0.03655695 0.049389 0.058483 0.049389 0.054645 0.19888 0.058483 0.049389 0.08025598 0.19888 0.054645 0.19888 0.058483 0.049389 0.08217096 0.049389 0.08025598 0.19888 0.08217096 0.049389 0.107156 0.19888 0.08025598 0.19888 0.08217096 0.049389 0.107044 0.049389 0.107156 0.19888 0.107044 0.049389 0.134055 0.19888 0.107156 0.19888 0.107044 0.049389 0.131918 0.049389 0.134055 0.19888 0.131918 0.049389 0.159672 0.19888 0.134055 0.19888 0.131918 0.049389 0.155598 0.049389 0.159672 0.19888 0.155598 0.049389 0.183382 0.19888 0.159672 0.19888 0.054645 0.19888 0.03094595 0.19888 0.03736299 0.219648 0.03094595 0.19888 0.01792198 0.219648 0.03736299 0.219648 0.03094595 0.19888 0.009715974 0.19888 0.01792198 0.219648 0.009715974 0.19888 0.03736299 0.219648 0.01792198 0.219648 0.009715974 0.19888 0.03094595 0.19888 0.03736299 0.219648 0.03094595 0.19888 0.05906599 0.219648 0.03736299 0.219648 0.03094595 0.19888 0.054645 0.19888 0.05906599 0.219648 0.054645 0.19888 0.08252096 0.219648 0.05906599 0.219648 0.054645 0.19888 0.08025598 0.19888 0.08252096 0.219648 0.08025598 0.19888 0.107156 0.219648 0.08252096 0.219648 0.08025598 0.19888 0.107156 0.19888 0.107156 0.219648 0.107156 0.19888 0.13179 0.219648 0.107156 0.219648 0.107156 0.19888 0.134055 0.19888 0.13179 0.219648 0.134055 0.19888 0.15525 0.219648 0.13179 0.219648 0.134055 0.19888 0.159672 0.19888 0.15525 0.219648 0.159672 0.19888 0.1769649 0.219648 0.15525 0.219648 0.159672 0.19888 0.183382 0.19888 0.1769649 0.219648 0.183382 0.19888 0.196426 0.219648 0.1769649 0.219648 0.03736299 0.219648 0.01792198 0.219648 0.03888297 0.2398779 0.01792198 0.219648 0.05375599 0.2398779 0.03888297 0.2398779 0.01792198 0.219648 0.03736299 0.219648 0.05375599 0.2398779 0.03736299 0.219648 0.07036095 0.2398779 0.05375599 0.2398779 0.03736299 0.219648 0.05906599 0.219648 0.07036095 0.2398779 0.05906599 0.219648 0.08830696 0.2398779 0.07036095 0.2398779 0.05906599 0.219648 0.08252096 0.219648 0.08830696 0.2398779 0.08252096 0.219648 0.107156 0.2398779 0.08830696 0.2398779 0.08252096 0.219648 0.107156 0.219648 0.107156 0.2398779 0.107156 0.219648 0.1260049 0.2398779 0.107156 0.2398779 0.107156 0.219648 0.13179 0.219648 0.1260049 0.2398779 0.13179 0.219648 0.143956 0.2398779 0.1260049 0.2398779 0.13179 0.219648 0.15525 0.219648 0.143956 0.2398779 0.15525 0.219648 0.160571 0.2398779 0.143956 0.2398779 0.15525 0.219648 0.1769649 0.219648 0.160571 0.2398779 0.1769649 0.219648 0.175464 0.2398779 0.160571 0.2398779 0.1769649 0.219648 0.196426 0.219648 0.175464 0.2398779 0.196426 0.219648 0.160571 0.2398779 0.175464 0.2398779 0.05375599 0.2398779 0.03888297 0.2398779 0.060525 0.255198 0.03888297 0.2398779 0.07068198 0.255198 0.060525 0.255198 0.03888297 0.2398779 0.05375599 0.2398779 0.07068198 0.255198 0.05375599 0.2398779 0.08202296 0.255198 0.07068198 0.255198 0.05375599 0.2398779 0.07036095 0.2398779 0.08202296 0.255198 0.07036095 0.2398779 0.09428 0.255198 0.08202296 0.255198 0.07036095 0.2398779 0.08830696 0.2398779 0.09428 0.255198 0.08830696 0.2398779 0.107156 0.255198 0.09428 0.255198 0.08830696 0.2398779 0.107156 0.2398779 0.107156 0.255198 0.107156 0.2398779 0.1200309 0.255198 0.107156 0.255198 0.107156 0.2398779 0.1260049 0.2398779 0.1200309 0.255198 0.1260049 0.2398779 0.1322939 0.255198 0.1200309 0.255198 0.1260049 0.2398779 0.143956 0.2398779 0.1322939 0.255198 0.143956 0.2398779 0.143646 0.255198 0.1322939 0.255198 0.143956 0.2398779 0.160571 0.2398779 0.143646 0.255198 0.160571 0.2398779 0.153822 0.255198 0.143646 0.255198 0.160571 0.2398779 0.175464 0.2398779 0.153822 0.255198 0.175464 0.2398779 0.143646 0.255198 0.153822 0.255198 0.175464 0.2398779 0.160571 0.2398779 0.143646 0.255198 0.160571 0.2398779 0.1322939 0.255198 0.143646 0.255198 0.160571 0.2398779 0.143956 0.2398779 0.1322939 0.255198 0.143956 0.2398779 0.1200309 0.255198 0.1322939 0.255198 0.143956 0.2398779 0.1260049 0.2398779 0.1200309 0.255198 0.1260049 0.2398779 0.107156 0.255198 0.1200309 0.255198 0.1260049 0.2398779 0.107156 0.2398779 0.107156 0.255198 0.107156 0.2398779 0.09428 0.255198 0.107156 0.255198 0.107156 0.2398779 0.08830696 0.2398779 0.09428 0.255198 0.08830696 0.2398779 0.08202296 0.255198 0.09428 0.255198 0.08830696 0.2398779 0.07036095 0.2398779 0.08202296 0.255198 0.07036095 0.2398779 0.07068198 0.255198 0.08202296 0.255198 0.07036095 0.2398779 0.05375599 0.2398779 0.07068198 0.255198 0.05375599 0.2398779 0.060525 0.255198 0.07068198 0.255198 0.196426 0.219648 0.1769649 0.219648 0.160571 0.2398779 0.1769649 0.219648 0.143956 0.2398779 0.160571 0.2398779 0.1769649 0.219648 0.15525 0.219648 0.143956 0.2398779 0.15525 0.219648 0.1260049 0.2398779 0.143956 0.2398779 0.15525 0.219648 0.13179 0.219648 0.1260049 0.2398779 0.13179 0.219648 0.107156 0.2398779 0.1260049 0.2398779 0.13179 0.219648 0.107156 0.219648 0.107156 0.2398779 0.107156 0.219648 0.08830696 0.2398779 0.107156 0.2398779 0.107156 0.219648 0.08252096 0.219648 0.08830696 0.2398779 0.08252096 0.219648 0.07036095 0.2398779 0.08830696 0.2398779 0.183382 0.19888 0.204631 0.19888 0.196426 0.219648 0.204631 0.19888 0.1769649 0.219648 0.196426 0.219648 0.204631 0.19888 0.183382 0.19888 0.1769649 0.219648 0.183382 0.19888 0.15525 0.219648 0.1769649 0.219648 0.183382 0.19888 0.159672 0.19888 0.15525 0.219648 0.159672 0.19888 0.13179 0.219648 0.15525 0.219648 0.159672 0.19888 0.134055 0.19888 0.13179 0.219648 0.134055 0.19888 0.107156 0.219648 0.13179 0.219648 0.134055 0.19888 0.107156 0.19888 0.107156 0.219648 0.107156 0.19888 0.08252096 0.219648 0.107156 0.219648 0.107156 0.19888 0.08025598 0.19888 0.08252096 0.219648 0.08025598 0.19888 0.05906599 0.219648 0.08252096 0.219648 0.08252096 0.219648 0.05906599 0.219648 0.07036095 0.2398779 0.05906599 0.219648 0.05375599 0.2398779 0.07036095 0.2398779 0.155598 0.049389 0.17751 0.049389 0.183382 0.19888 0.17751 0.049389 0.204631 0.19888 0.183382 0.19888 0.17751 0.049389 0.197135 0.049389 0.204631 0.19888 0.197135 0.049389 0.183382 0.19888 0.204631 0.19888 0.197135 0.049389 0.17751 0.049389 0.183382 0.19888 0.17751 0.049389 0.159672 0.19888 0.183382 0.19888 0.17751 0.049389 0.155598 0.049389 0.159672 0.19888 0.155598 0.049389 0.134055 0.19888 0.159672 0.19888 0.155598 0.049389 0.131918 0.049389 0.134055 0.19888 0.131918 0.049389 0.107156 0.19888 0.134055 0.19888 0.131918 0.049389 0.107044 0.049389 0.107156 0.19888 0.107044 0.049389 0.08025598 0.19888 0.107156 0.19888 0.107044 0.049389 0.08217096 0.049389 0.08025598 0.19888 0.08217096 0.049389 0.054645 0.19888 0.08025598 0.19888 0.08025598 0.19888 0.054645 0.19888 0.05906599 0.219648 0.054645 0.19888 0.03736299 0.219648 0.05906599 0.219648 0.05906599 0.219648 0.03736299 0.219648 0.05375599 0.2398779 0.03736299 0.219648 0.03888297 0.2398779 0.05375599 0.2398779 0.152586 0.03450596 0.173137 0.03450596 0.17751 0.049389 0.173137 0.03450596 0.197135 0.049389 0.17751 0.049389 0.173137 0.03450596 0.191545 0.03450596 0.197135 0.049389 0.191545 0.03450596 0.17751 0.049389 0.197135 0.049389 0.191545 0.03450596 0.173137 0.03450596 0.17751 0.049389 0.173137 0.03450596 0.155598 0.049389 0.17751 0.049389 0.173137 0.03450596 0.152586 0.03450596 0.155598 0.049389 0.152586 0.03450596 0.131918 0.049389 0.155598 0.049389 0.152586 0.03450596 0.130375 0.03450596 0.131918 0.049389 0.130375 0.03450596 0.107044 0.049389 0.131918 0.049389 0.130375 0.03450596 0.107044 0.03450596 0.107044 0.049389 0.107044 0.03450596 0.08217096 0.049389 0.107044 0.049389 0.107044 0.03450596 0.08371496 0.03450596 0.08217096 0.049389 0.08371496 0.03450596 0.058483 0.049389 0.08217096 0.049389 0.08371496 0.03450596 0.06149595 0.03450596 0.058483 0.049389 0.06149595 0.03450596 0.03655695 0.049389 0.058483 0.049389 0.15721 0.018175 0.1711789 0.018175 0.191545 0.03450596 0.1711789 0.018175 0.173137 0.03450596 0.191545 0.03450596 0.1711789 0.018175 0.15721 0.018175 0.173137 0.03450596 0.15721 0.018175 0.152586 0.03450596 0.173137 0.03450596 0.15721 0.018175 0.1416119 0.018175 0.152586 0.03450596 0.1416119 0.018175 0.130375 0.03450596 0.152586 0.03450596 0.1416119 0.018175 0.1247529 0.018175 0.130375 0.03450596 0.1247529 0.018175 0.107044 0.03450596 0.130375 0.03450596 0.1247529 0.018175 0.107044 0.018175 0.107044 0.03450596 0.107044 0.018175 0.08371496 0.03450596 0.107044 0.03450596 0.107044 0.018175 0.08933597 0.018175 0.08371496 0.03450596 0.08933597 0.018175 0.06149595 0.03450596 0.08371496 0.03450596 0.08933597 0.018175 0.07247 0.018175 0.06149595 0.03450596 0.07247 0.018175 0.04092895 0.03450596 0.06149595 0.03450596 0.06149595 0.03450596 0.04092895 0.03450596 0.03655695 0.049389 0.04092895 0.03450596 0.01690399 0.049389 0.03655695 0.049389 0.04092895 0.03450596 0.02249395 0.03450596 0.01690399 0.049389 0.02249395 0.03450596 0.03655695 0.049389 0.01690399 0.049389 0.02249395 0.03450596 0.04092895 0.03450596 0.03655695 0.049389 0.04092895 0.03450596 0.058483 0.049389 0.03655695 0.049389 0.04092895 0.03450596 0.06149595 0.03450596 0.058483 0.049389 0.06149595 0.03450596 0.08217096 0.049389 0.058483 0.049389 0.06149595 0.03450596 0.08371496 0.03450596 0.08217096 0.049389 0.08371496 0.03450596 0.107044 0.049389 0.08217096 0.049389 0.08371496 0.03450596 0.107044 0.03450596 0.107044 0.049389 0.107044 0.03450596 0.131918 0.049389 0.107044 0.049389 0.107044 0.03450596 0.130375 0.03450596 0.131918 0.049389 0.130375 0.03450596 0.155598 0.049389 0.131918 0.049389 0.130375 0.03450596 0.152586 0.03450596 0.155598 0.049389 0.152586 0.03450596 0.17751 0.049389 0.155598 0.049389 0.07247 0.018175 0.05685698 0.018175 0.04092895 0.03450596 0.05685698 0.018175 0.02249395 0.03450596 0.04092895 0.03450596 0.05685698 0.018175 0.04285997 0.018175 0.02249395 0.03450596 0.04285997 0.018175 0.04092895 0.03450596 0.02249395 0.03450596 0.04285997 0.018175 0.05685698 0.018175 0.04092895 0.03450596 0.05685698 0.018175 0.06149595 0.03450596 0.04092895 0.03450596 0.05685698 0.018175 0.07247 0.018175 0.06149595 0.03450596 0.07247 0.018175 0.08371496 0.03450596 0.06149595 0.03450596 0.07247 0.018175 0.08933597 0.018175 0.08371496 0.03450596 0.08933597 0.018175 0.107044 0.03450596 0.08371496 0.03450596 0.08933597 0.018175 0.107044 0.018175 0.107044 0.03450596 0.107044 0.018175 0.130375 0.03450596 0.107044 0.03450596 0.107044 0.018175 0.1247529 0.018175 0.130375 0.03450596 0.1247529 0.018175 0.152586 0.03450596 0.130375 0.03450596 0.1247529 0.018175 0.1416119 0.018175 0.152586 0.03450596 0.1416119 0.018175 0.173137 0.03450596 0.152586 0.03450596 0.1416119 0.018175 0.15721 0.018175 0.173137 0.03450596 0.15721 0.018175 0.191545 0.03450596 0.173137 0.03450596 0.26684 0.221628 0.229929 0.206339 0.246864 0.217654 0.26684 0.221628 0.218613 0.189404 0.229929 0.206339 0.26684 0.221628 0.21464 0.169428 0.218613 0.189404 0.26684 0.221628 0.218613 0.149451 0.21464 0.169428 0.26684 0.221628 0.229929 0.132516 0.218613 0.149451 0.26684 0.221628 0.246864 0.121201 0.229929 0.132516 0.26684 0.221628 0.26684 0.117227 0.246864 0.121201 0.26684 0.221628 0.286816 0.121201 0.26684 0.117227 0.26684 0.221628 0.303751 0.132516 0.286816 0.121201 0.26684 0.221628 0.315067 0.149451 0.303751 0.132516 0.26684 0.221628 0.319041 0.169428 0.315067 0.149451 0.26684 0.221628 0.315067 0.189404 0.319041 0.169428 0.26684 0.221628 0.303751 0.206339 0.315067 0.189404 0.26684 0.221628 0.286816 0.217654 0.303751 0.206339 0.266996 0.111109 0.248989 0.107527 0.250846 0.102917 0.248989 0.107527 0.236985 0.09400796 0.250846 0.102917 0.248989 0.107527 0.233539 0.097525 0.236985 0.09400796 0.233539 0.097525 0.228102 0.080235 0.236985 0.09400796 0.233539 0.097525 0.223442 0.082143 0.228102 0.080235 0.223442 0.082143 0.224964 0.06417399 0.228102 0.080235 0.223442 0.082143 0.219936 0.06414997 0.224964 0.06417399 0.219936 0.06414997 0.2281579 0.04810094 0.224964 0.06417399 0.219936 0.06414997 0.2235299 0.04617697 0.2281579 0.04810094 0.2235299 0.04617697 0.23728 0.03449594 0.2281579 0.04810094 0.2235299 0.04617697 0.233736 0.03094297 0.23728 0.03449594 0.233736 0.03094297 0.250905 0.02540796 0.23728 0.03449594 0.233736 0.03094297 0.248988 0.02076995 0.250905 0.02540796 0.248988 0.02076995 0.266969 0.022219 0.250905 0.02540796 0.248988 0.02076995 0.26697 0.017201 0.266969 0.022219 0.26697 0.017201 0.283032 0.02541095 0.266969 0.022219 0.26697 0.017201 0.284951 0.02077394 0.283032 0.02541095 0.284951 0.02077394 0.296659 0.03449898 0.283032 0.02541095 0.284951 0.02077394 0.300203 0.03094995 0.296659 0.03449898 0.300203 0.03094995 0.305762 0.04811799 0.296659 0.03449898 0.300203 0.03094995 0.310397 0.04619097 0.305762 0.04811799 0.310397 0.04619097 0.308972 0.064179 0.305762 0.04811799 0.310397 0.04619097 0.313987 0.06417298 0.308972 0.064179 0.313987 0.06417298 0.305783 0.08025097 0.308972 0.064179 0.313987 0.06417298 0.310438 0.08215296 0.305783 0.08025097 0.310438 0.08215296 0.296737 0.09388798 0.305783 0.08025097 0.310438 0.08215296 0.300313 0.09743398 0.296737 0.09388798 0.300313 0.09743398 0.28326 0.103213 0.296737 0.09388798 0.300313 0.09743398 0.285099 0.107781 0.28326 0.103213 0.285099 0.107781 0.267045 0.106139 0.28326 0.103213 0.285099 0.107781 0.266996 0.111109 0.267045 0.106139 0.266996 0.111109 0.250846 0.102917 0.267045 0.106139</float_array>
          <technique_common>
            <accessor source="#medkit_small_reference-mesh-map-0-array" count="948" stride="2">
              <param name="S" type="float"/>
              <param name="T" type="float"/>
            </accessor>
          </technique_common>
        </source>
        <vertices id="medkit_small_reference-mesh-vertices">
          <input semantic="POSITION" source="#medkit_small_reference-mesh-positions"/>
        </vertices>
        <triangles material="medkit-material" count="316">
          <input semantic="VERTEX" source="#medkit_small_reference-mesh-vertices" offset="0"/>
          <input semantic="NORMAL" source="#medkit_small_reference-mesh-normals" offset="1"/>
          <input semantic="TEXCOORD" source="#medkit_small_reference-mesh-map-0" offset="2" set="0"/>
          <p>0 0 0 1 1 1 2 2 2 0 0 3 3 3 4 1 1 5 0 0 6 4 4 7 3 3 8 0 0 9 5 5 10 4 4 11 0 0 12 6 6 13 5 5 14 0 0 15 7 7 16 6 6 17 0 0 18 8 8 19 7 7 20 0 0 21 9 9 22 8 8 23 0 0 24 10 10 25 9 9 26 0 0 27 11 11 28 10 10 29 0 0 30 12 12 31 11 11 32 0 0 33 13 13 34 12 12 35 0 0 36 14 14 37 13 13 38 0 0 39 15 15 40 14 14 41 16 16 42 17 17 43 18 18 44 16 16 45 19 19 46 17 17 47 19 19 48 20 20 49 17 17 50 19 19 51 21 21 52 20 20 53 21 21 54 22 22 55 20 20 56 21 21 57 23 23 58 22 22 59 23 23 60 24 24 61 22 22 62 23 23 63 25 25 64 24 24 65 25 25 66 26 26 67 24 24 68 25 25 69 27 27 70 26 26 71 27 27 72 28 28 73 26 26 74 27 27 75 29 29 76 28 28 77 29 29 78 30 30 79 28 28 80 29 29 81 31 31 82 30 30 83 31 31 84 32 32 85 30 30 86 31 31 87 33 33 88 32 32 89 33 33 90 34 34 91 32 32 92 33 33 93 35 35 94 34 34 95 35 35 96 36 36 97 34 34 98 35 35 99 37 37 100 36 36 101 37 37 102 38 38 103 36 36 104 37 37 105 39 39 106 38 38 107 39 39 108 40 40 109 38 38 110 39 39 111 41 41 112 40 40 113 41 41 114 42 42 115 40 40 116 41 41 117 43 43 118 42 42 119 43 43 120 44 44 121 42 42 122 43 43 123 45 45 124 44 44 125 45 45 126 46 46 127 44 44 128 45 45 129 47 47 130 46 46 131 47 47 132 18 18 133 46 46 134 47 47 135 16 16 136 18 18 137 48 48 138 29 49 139 27 50 140 48 48 141 49 51 142 29 49 143 49 51 144 31 52 145 29 49 146 49 51 147 50 53 148 31 52 149 50 53 150 33 54 151 31 52 152 50 53 153 51 55 154 33 54 155 51 55 156 35 56 157 33 54 158 51 55 159 52 57 160 35 56 161 52 57 162 37 58 163 35 56 164 52 57 165 53 59 166 37 58 167 53 59 168 39 60 169 37 58 170 53 59 171 54 61 172 39 60 173 54 61 174 41 62 175 39 60 176 54 61 177 55 63 178 41 62 179 55 63 180 43 64 181 41 62 182 55 63 183 56 65 184 43 64 185 56 65 186 45 66 187 43 64 188 56 65 189 57 67 190 45 66 191 57 67 192 47 68 193 45 66 194 57 67 195 58 69 196 47 68 197 58 69 198 16 70 199 47 68 200 58 69 201 59 71 202 16 70 203 59 71 204 19 72 205 16 70 206 59 71 207 60 73 208 19 72 209 60 73 210 21 74 211 19 72 212 60 73 213 61 75 214 21 74 215 61 75 216 23 76 217 21 74 218 61 75 219 62 77 220 23 76 221 62 77 222 25 78 223 23 76 224 62 77 225 63 79 226 25 78 227 63 79 228 27 50 229 25 78 230 63 79 231 48 48 232 27 50 233 64 80 234 65 81 235 66 82 236 65 81 237 67 83 238 66 82 239 65 81 240 68 84 241 67 83 242 68 84 243 69 85 244 67 83 245 68 84 246 70 86 247 69 85 248 70 86 249 71 87 250 69 85 251 70 86 252 72 88 253 71 87 254 72 88 255 73 89 256 71 87 257 72 88 258 74 90 259 73 89 260 74 90 261 75 91 262 73 89 263 74 90 264 76 92 265 75 91 266 76 92 267 77 93 268 75 91 269 76 92 270 78 94 271 77 93 272 78 94 273 79 95 274 77 93 275 78 94 276 80 96 277 79 95 278 80 96 279 81 97 280 79 95 281 80 96 282 82 98 283 81 97 284 82 98 285 83 99 286 81 97 287 66 82 288 67 83 289 84 100 290 67 83 291 85 101 292 84 100 293 67 83 294 69 85 295 85 101 296 69 85 297 86 102 298 85 101 299 69 85 300 71 87 301 86 102 302 71 87 303 87 103 304 86 102 305 71 87 306 73 89 307 87 103 308 73 89 309 88 104 310 87 103 311 73 89 312 75 91 313 88 104 314 75 91 315 89 105 316 88 104 317 75 91 318 77 93 319 89 105 320 77 93 321 90 106 322 89 105 323 77 93 324 79 95 325 90 106 326 79 95 327 91 107 328 90 106 329 79 95 330 81 97 331 91 107 332 81 97 333 92 108 334 91 107 335 81 97 336 83 99 337 92 108 338 83 99 339 93 109 340 92 108 341 84 100 342 85 101 343 94 110 344 85 101 345 95 111 346 94 110 347 85 101 348 86 102 349 95 111 350 86 102 351 96 112 352 95 111 353 86 102 354 87 103 355 96 112 356 87 103 357 97 113 358 96 112 359 87 103 360 88 104 361 97 113 362 88 104 363 98 114 364 97 113 365 88 104 366 89 105 367 98 114 368 89 105 369 99 115 370 98 114 371 89 105 372 90 106 373 99 115 374 90 106 375 100 116 376 99 115 377 90 106 378 91 107 379 100 116 380 91 107 381 101 117 382 100 116 383 91 107 384 92 108 385 101 117 386 92 108 387 102 118 388 101 117 389 92 108 390 93 109 391 102 118 392 93 109 393 103 119 394 102 118 395 104 120 396 94 110 397 60 121 398 94 110 399 61 122 400 60 121 401 94 110 402 95 111 403 61 122 404 95 111 405 62 123 406 61 122 407 95 111 408 96 112 409 62 123 410 96 112 411 63 124 412 62 123 413 96 112 414 97 113 415 63 124 416 97 113 417 48 125 418 63 124 419 97 113 420 98 114 421 48 125 422 98 114 423 49 126 424 48 125 425 98 114 426 99 115 427 49 126 428 99 115 429 50 127 430 49 126 431 99 115 432 100 116 433 50 127 434 100 116 435 51 128 436 50 127 437 100 116 438 101 117 439 51 128 440 101 117 441 52 129 442 51 128 443 101 117 444 102 118 445 52 129 446 102 118 447 53 130 448 52 129 449 102 118 450 103 119 451 53 130 452 103 119 453 54 131 454 53 130 455 103 119 456 105 132 457 54 131 458 105 132 459 55 133 460 54 131 461 105 132 462 106 134 463 55 133 464 106 134 465 56 135 466 55 133 467 106 134 468 107 136 469 56 135 470 107 136 471 57 137 472 56 135 473 107 136 474 108 138 475 57 137 476 108 138 477 58 139 478 57 137 479 108 138 480 109 140 481 58 139 482 109 140 483 59 141 484 58 139 485 109 140 486 104 120 487 59 141 488 104 120 489 60 121 490 59 141 491 93 109 492 110 142 493 103 119 494 110 142 495 105 132 496 103 119 497 110 142 498 111 143 499 105 132 500 111 143 501 106 134 502 105 132 503 111 143 504 112 144 505 106 134 506 112 144 507 107 136 508 106 134 509 112 144 510 113 145 511 107 136 512 113 145 513 108 138 514 107 136 515 113 145 516 114 146 517 108 138 518 114 146 519 109 140 520 108 138 521 83 99 522 115 147 523 93 109 524 115 147 525 110 142 526 93 109 527 115 147 528 116 148 529 110 142 530 116 148 531 111 143 532 110 142 533 116 148 534 117 149 535 111 143 536 117 149 537 112 144 538 111 143 539 117 149 540 118 150 541 112 144 542 118 150 543 113 145 544 112 144 545 118 150 546 119 151 547 113 145 548 119 151 549 114 146 550 113 145 551 119 151 552 120 152 553 114 146 554 120 152 555 121 153 556 114 146 557 114 146 558 121 153 559 109 140 560 121 153 561 104 120 562 109 140 563 82 98 564 122 154 565 83 99 566 122 154 567 115 147 568 83 99 569 122 154 570 123 155 571 115 147 572 123 155 573 116 148 574 115 147 575 123 155 576 124 156 577 116 148 578 124 156 579 117 149 580 116 148 581 124 156 582 125 157 583 117 149 584 125 157 585 118 150 586 117 149 587 125 157 588 126 158 589 118 150 590 126 158 591 119 151 592 118 150 593 126 158 594 127 159 595 119 151 596 127 159 597 120 152 598 119 151 599 127 159 600 64 80 601 120 152 602 64 80 603 66 82 604 120 152 605 120 152 606 66 82 607 121 153 608 66 82 609 84 100 610 121 153 611 121 153 612 84 100 613 104 120 614 84 100 615 94 110 616 104 120 617 128 160 618 129 161 619 122 154 620 129 161 621 123 155 622 122 154 623 129 161 624 130 162 625 123 155 626 130 162 627 124 156 628 123 155 629 130 162 630 131 163 631 124 156 632 131 163 633 125 157 634 124 156 635 131 163 636 132 164 637 125 157 638 132 164 639 126 158 640 125 157 641 132 164 642 133 165 643 126 158 644 133 165 645 127 159 646 126 158 647 133 165 648 134 166 649 127 159 650 134 166 651 64 80 652 127 159 653 134 166 654 135 167 655 64 80 656 135 167 657 65 81 658 64 80 659 135 167 660 136 168 661 65 81 662 136 168 663 68 84 664 65 81 665 137 169 666 138 170 667 130 162 668 138 170 669 131 163 670 130 162 671 138 170 672 139 171 673 131 163 674 139 171 675 132 164 676 131 163 677 139 171 678 140 172 679 132 164 680 140 172 681 133 165 682 132 164 683 140 172 684 141 173 685 133 165 686 141 173 687 134 166 688 133 165 689 141 173 690 142 174 691 134 166 692 142 174 693 135 167 694 134 166 695 142 174 696 143 175 697 135 167 698 143 175 699 136 168 700 135 167 701 143 175 702 144 176 703 136 168 704 144 176 705 145 177 706 136 168 707 136 168 708 145 177 709 68 84 710 145 177 711 70 86 712 68 84 713 145 177 714 146 178 715 70 86 716 146 178 717 72 88 718 70 86 719 146 178 720 147 179 721 72 88 722 147 179 723 74 90 724 72 88 725 147 179 726 148 180 727 74 90 728 148 180 729 76 92 730 74 90 731 148 180 732 149 181 733 76 92 734 149 181 735 78 94 736 76 92 737 149 181 738 150 182 739 78 94 740 150 182 741 80 96 742 78 94 743 150 182 744 151 183 745 80 96 746 151 183 747 82 98 748 80 96 749 151 183 750 128 160 751 82 98 752 128 160 753 122 154 754 82 98 755 144 176 756 152 184 757 145 177 758 152 184 759 146 178 760 145 177 761 152 184 762 153 185 763 146 178 764 153 185 765 147 179 766 146 178 767 153 185 768 154 186 769 147 179 770 154 186 771 148 180 772 147 179 773 154 186 774 155 187 775 148 180 776 155 187 777 149 181 778 148 180 779 155 187 780 156 188 781 149 181 782 156 188 783 150 182 784 149 181 785 156 188 786 157 189 787 150 182 788 157 189 789 151 183 790 150 182 791 157 189 792 158 190 793 151 183 794 158 190 795 128 160 796 151 183 797 158 190 798 159 191 799 128 160 800 159 191 801 129 161 802 128 160 803 159 191 804 137 169 805 129 161 806 137 169 807 130 162 808 129 161 809 142 192 810 144 193 811 143 194 812 142 192 813 152 195 814 144 193 815 142 192 816 153 196 817 152 195 818 142 192 819 154 197 820 153 196 821 142 192 822 155 198 823 154 197 824 142 192 825 156 199 826 155 198 827 142 192 828 157 200 829 156 199 830 142 192 831 158 201 832 157 200 833 142 192 834 159 202 835 158 201 836 142 192 837 137 203 838 159 202 839 142 192 840 138 204 841 137 203 842 142 192 843 139 205 844 138 204 845 142 192 846 140 206 847 139 205 848 142 192 849 141 207 850 140 206 851 42 208 852 44 209 853 0 210 854 44 209 855 15 211 856 0 210 857 44 209 858 46 212 859 15 211 860 46 212 861 14 213 862 15 211 863 46 212 864 18 214 865 14 213 866 18 214 867 13 215 868 14 213 869 18 214 870 17 216 871 13 215 872 17 216 873 12 217 874 13 215 875 17 216 876 20 218 877 12 217 878 20 218 879 11 219 880 12 217 881 20 218 882 22 220 883 11 219 884 22 220 885 10 221 886 11 219 887 22 220 888 24 222 889 10 221 890 24 222 891 9 223 892 10 221 893 24 222 894 26 224 895 9 223 896 26 224 897 8 225 898 9 223 899 26 224 900 28 226 901 8 225 902 28 226 903 7 227 904 8 225 905 28 226 906 30 228 907 7 227 908 30 228 909 6 229 910 7 227 911 30 228 912 32 230 913 6 229 914 32 230 915 5 231 916 6 229 917 32 230 918 34 232 919 5 231 920 34 232 921 4 233 922 5 231 923 34 232 924 36 234 925 4 233 926 36 234 927 3 235 928 4 233 929 36 234 930 38 236 931 3 235 932 38 236 933 1 237 934 3 235 935 38 236 936 40 238 937 1 237 938 40 238 939 2 239 940 1 237 941 40 238 942 42 208 943 2 239 944 42 208 945 0 210 946 2 239 947</p>
        </triangles>
      </mesh>
    </geometry>
  </library_geometries>
  <library_controllers>
    <controller id="medkit_small_qc_skeleton_medkit_small_reference-skin" name="medkit_small.qc_skeleton">
      <skin source="#medkit_small_reference-mesh">
        <bind_shape_matrix>1 0 0 0 0 1 0 0 0 0 1 0 0 0 0 1</bind_shape_matrix>
        <source id="medkit_small_qc_skeleton_medkit_small_reference-skin-joints">
          <Name_array id="medkit_small_qc_skeleton_medkit_small_reference-skin-joints-array" count="3">Scene_Root item cube</Name_array>
          <technique_common>
            <accessor source="#medkit_small_qc_skeleton_medkit_small_reference-skin-joints-array" count="3" stride="1">
              <param name="JOINT" type="name"/>
            </accessor>
          </technique_common>
        </source>
        <source id="medkit_small_qc_skeleton_medkit_small_reference-skin-bind_poses">
          <float_array id="medkit_small_qc_skeleton_medkit_small_reference-skin-bind_poses-array" count="48">1 0 0 0 0 2.38419e-7 1 0 0 -1 2.02816e-7 0 0 0 0 1 1 0 0 0 0 2.38419e-7 1 0 0 -1 2.02816e-7 0 0 0 0 1 1 0 0 0 0 2.38431e-7 1 -10.57105 0 -1 2.02829e-7 0 0 0 0 1</float_array>
          <technique_common>
            <accessor source="#medkit_small_qc_skeleton_medkit_small_reference-skin-bind_poses-array" count="3" stride="16">
              <param name="TRANSFORM" type="float4x4"/>
            </accessor>
          </technique_common>
        </source>
        <source id="medkit_small_qc_skeleton_medkit_small_reference-skin-weights">
          <float_array id="medkit_small_qc_skeleton_medkit_small_reference-skin-weights-array" count="160">1 1 1 1 1 1 1 1 1 1 1 1 1 1 1 1 1 1 1 1 1 1 1 1 1 1 1 1 1 1 1 1 1 1 1 1 1 1 1 1 1 1 1 1 1 1 1 1 1 1 1 1 1 1 1 1 1 1 1 1 1 1 1 1 1 1 1 1 1 1 1 1 1 1 1 1 1 1 1 1 1 1 1 1 1 1 1 1 1 1 1 1 1 1 1 1 1 1 1 1 1 1 1 1 1 1 1 1 1 1 1 1 1 1 1 1 1 1 1 1 1 1 1 1 1 1 1 1 1 1 1 1 1 1 1 1 1 1 1 1 1 1 1 1 1 1 1 1 1 1 1 1 1 1 1 1 1 1 1 1</float_array>
          <technique_common>
            <accessor source="#medkit_small_qc_skeleton_medkit_small_reference-skin-weights-array" count="160" stride="1">
              <param name="WEIGHT" type="float"/>
            </accessor>
          </technique_common>
        </source>
        <joints>
          <input semantic="JOINT" source="#medkit_small_qc_skeleton_medkit_small_reference-skin-joints"/>
          <input semantic="INV_BIND_MATRIX" source="#medkit_small_qc_skeleton_medkit_small_reference-skin-bind_poses"/>
        </joints>
        <vertex_weights count="160">
          <input semantic="JOINT" source="#medkit_small_qc_skeleton_medkit_small_reference-skin-joints" offset="0"/>
          <input semantic="WEIGHT" source="#medkit_small_qc_skeleton_medkit_small_reference-skin-weights" offset="1"/>
          <vcount>1 1 1 1 1 1 1 1 1 1 1 1 1 1 1 1 1 1 1 1 1 1 1 1 1 1 1 1 1 1 1 1 1 1 1 1 1 1 1 1 1 1 1 1 1 1 1 1 1 1 1 1 1 1 1 1 1 1 1 1 1 1 1 1 1 1 1 1 1 1 1 1 1 1 1 1 1 1 1 1 1 1 1 1 1 1 1 1 1 1 1 1 1 1 1 1 1 1 1 1 1 1 1 1 1 1 1 1 1 1 1 1 1 1 1 1 1 1 1 1 1 1 1 1 1 1 1 1 1 1 1 1 1 1 1 1 1 1 1 1 1 1 1 1 1 1 1 1 1 1 1 1 1 1 1 1 1 1 1 1 </vcount>
          <v>2 0 2 1 2 2 2 3 2 4 2 5 2 6 2 7 2 8 2 9 2 10 2 11 2 12 2 13 2 14 2 15 2 16 2 17 2 18 2 19 2 20 2 21 2 22 2 23 2 24 2 25 2 26 2 27 2 28 2 29 2 30 2 31 2 32 2 33 2 34 2 35 2 36 2 37 2 38 2 39 2 40 2 41 2 42 2 43 2 44 2 45 2 46 2 47 2 48 2 49 2 50 2 51 2 52 2 53 2 54 2 55 2 56 2 57 2 58 2 59 2 60 2 61 2 62 2 63 2 64 2 65 2 66 2 67 2 68 2 69 2 70 2 71 2 72 2 73 2 74 2 75 2 76 2 77 2 78 2 79 2 80 2 81 2 82 2 83 2 84 2 85 2 86 2 87 2 88 2 89 2 90 2 91 2 92 2 93 2 94 2 95 2 96 2 97 2 98 2 99 2 100 2 101 2 102 2 103 2 104 2 105 2 106 2 107 2 108 2 109 2 110 2 111 2 112 2 113 2 114 2 115 2 116 2 117 2 118 2 119 2 120 2 121 2 122 2 123 2 124 2 125 2 126 2 127 2 128 2 129 2 130 2 131 2 132 2 133 2 134 2 135 2 136 2 137 2 138 2 139 2 140 2 141 2 142 2 143 2 144 2 145 2 146 2 147 2 148 2 149 2 150 2 151 2 152 2 153 2 154 2 155 2 156 2 157 2 158 2 159</v>
        </vertex_weights>
      </skin>
    </controller>
  </library_controllers>
  <library_animations>
    <animation id="action_container-medkit_small_qc_skeleton" name="medkit_small.qc_skeleton">
      <animation id="medkit_small_qc_skeleton_idle_004_cube_pose_matrix" name="medkit_small.qc_skeleton">
        <source id="medkit_small_qc_skeleton_idle_004_cube_pose_matrix-input">
          <float_array id="medkit_small_qc_skeleton_idle_004_cube_pose_matrix-input-array" count="30">0 0.04166662 0.08333331 0.125 0.1666666 0.2083333 0.25 0.2916666 0.3333333 0.375 0.4166666 0.4583333 0.5 0.5416667 0.5833333 0.625 0.6666667 0.7083333 0.75 0.7916667 0.8333333 0.875 0.9166667 0.9583333 1 1.041667 1.083333 1.125 1.166667 1.208333</float_array>
          <technique_common>
            <accessor source="#medkit_small_qc_skeleton_idle_004_cube_pose_matrix-input-array" count="30" stride="1">
              <param name="TIME" type="float"/>
            </accessor>
          </technique_common>
        </source>
        <source id="medkit_small_qc_skeleton_idle_004_cube_pose_matrix-output">
          <float_array id="medkit_small_qc_skeleton_idle_004_cube_pose_matrix-output-array" count="480">1 0 0 0 0 1 0 10.57105 0 0 1 0 0 0 0 1 0.9749387 0 0.2224737 0 0 1 -2.84217e-14 10.57105 -0.2224737 0 0.9749387 0 0 0 0 1 0.9009688 -5.28279e-16 0.4338838 0 0 1 0 10.57105 -0.4338838 0 0.9009688 0 0 0 0 1 0.7818617 1.71585e-15 0.6234519 0 0 1 0 10.57105 -0.6234519 0 0.7818617 0 0 0 0 1 0.6234897 -2.20987e-15 0.7818316 0 0 1 0 10.57105 -0.7818316 0 0.6234897 0 0 0 0 1 0.4339274 1.98607e-15 0.9009479 0 0 1 0 10.57105 -0.9009479 0 0.4339274 0 0 0 0 1 0.2225208 1.49803e-14 0.974928 0 0 1 -1.42109e-14 10.57105 -0.974928 0 0.2225208 0 0 0 0 1 3.13916e-7 0 1 0 -1.29035e-11 1 0 10.57105 -1 -1.29035e-11 3.13916e-7 0 0 0 0 1 -0.2225207 -1.23992e-6 0.974928 0 -1.39706e-7 1 1.23992e-6 10.57105 -0.974928 1.39706e-7 -0.2225207 0 0 0 0 1 -0.4338841 -1.19349e-6 0.9009687 0 -2.72407e-7 1 1.19349e-6 10.57105 -0.9009687 2.72407e-7 -0.4338841 0 0 0 0 1 -0.6234898 -1.11869e-6 0.7818315 0 -3.91447e-7 1 1.11869e-6 10.57105 -0.7818315 3.91447e-7 -0.6234898 0 0 0 0 1 -0.7818318 2.36386e-7 0.6234894 0 4.9086e-7 1 2.36386e-7 10.57105 -0.6234894 4.9086e-7 -0.7818318 0 0 0 0 1 -0.9009896 -9.00212e-7 0.4338407 0 -5.65671e-7 1 9.00213e-7 10.57105 -0.4338407 5.65671e-7 -0.9009896 0 0 0 0 1 -0.974928 4.88127e-7 0.2225205 0 6.12092e-7 1 4.88127e-7 10.57105 -0.2225205 6.12092e-7 -0.974928 0 0 0 0 1 -1 -6.27833e-7 -8.74232e-8 0 -6.27833e-7 1 6.27833e-7 10.57105 8.74228e-8 6.27833e-7 -1 0 0 0 0 1 -0.9781569 -4.97326e-7 -0.2078682 0 -6.14119e-7 1 4.97326e-7 10.57105 0.2078682 6.14119e-7 -0.9781569 0 0 0 0 1 -0.9135625 8.83171e-7 -0.4066982 0 5.73565e-7 1 8.83171e-7 10.57105 0.4066982 5.73565e-7 -0.9135625 0 0 0 0 1 -0.8090396 9.96844e-7 -0.5877541 0 5.07942e-7 1 9.96844e-7 10.57105 0.5877541 5.07942e-7 -0.8090396 0 0 0 0 1 -0.6691567 -1.61277e-7 -0.7431213 0 -4.20119e-7 1 1.61277e-7 10.57105 0.7431213 4.20119e-7 -0.6691567 0 0 0 0 1 -0.5000281 -8.41239e-8 -0.8660092 0 -3.13934e-7 1 8.41238e-8 10.57105 0.8660092 3.13934e-7 -0.5000281 0 0 0 0 1 -0.3090446 -3.0734e-8 -0.9510475 0 -1.94028e-7 1 3.0734e-8 10.57105 0.9510475 1.94028e-7 -0.3090446 0 0 0 0 1 -0.1045539 1.25222e-6 -0.9945192 0 6.56424e-8 1 1.25222e-6 10.57105 0.9945192 6.56424e-8 -0.1045539 0 0 0 0 1 0.1045539 -3.18826e-15 -0.9945192 0 0 1 -3.55271e-15 10.57105 0.9945192 0 0.1045539 0 0 0 0 1 0.3090446 2.06387e-14 -0.9510475 0 0 1 2.84217e-14 10.57105 0.9510475 0 0.3090446 0 0 0 0 1 0.5000281 -9.55387e-15 -0.8660091 0 2.84217e-14 1 -1.42109e-14 10.57105 0.8660091 0 0.5000281 0 0 0 0 1 0.6691566 5.21943e-15 -0.7431214 0 -2.84217e-14 1 1.42109e-14 10.57105 0.7431214 0 0.6691566 0 0 0 0 1 0.8090397 5.60903e-15 -0.5877541 0 -1.42109e-14 1 0 10.57105 0.5877541 0 0.8090397 0 0 0 0 1 0.9135625 3.39082e-15 -0.4066983 0 -1.42109e-14 1 0 10.57105 0.4066983 0 0.9135625 0 0 0 0 1 0.9781569 0 -0.2078682 0 0 1 0 10.57105 0.2078682 0 0.9781569 0 0 0 0 1 1 0 0 0 0 1 0 10.57105 0 0 1 0 0 0 0 1</float_array>
          <technique_common>
            <accessor source="#medkit_small_qc_skeleton_idle_004_cube_pose_matrix-output-array" count="30" stride="16">
              <param name="TRANSFORM" type="float4x4"/>
            </accessor>
          </technique_common>
        </source>
        <source id="medkit_small_qc_skeleton_idle_004_cube_pose_matrix-interpolation">
          <Name_array id="medkit_small_qc_skeleton_idle_004_cube_pose_matrix-interpolation-array" count="30">LINEAR LINEAR LINEAR LINEAR LINEAR LINEAR LINEAR LINEAR LINEAR LINEAR LINEAR LINEAR LINEAR LINEAR LINEAR LINEAR LINEAR LINEAR LINEAR LINEAR LINEAR LINEAR LINEAR LINEAR LINEAR LINEAR LINEAR LINEAR LINEAR LINEAR</Name_array>
          <technique_common>
            <accessor source="#medkit_small_qc_skeleton_idle_004_cube_pose_matrix-interpolation-array" count="30" stride="1">
              <param name="INTERPOLATION" type="name"/>
            </accessor>
          </technique_common>
        </source>
        <sampler id="medkit_small_qc_skeleton_idle_004_cube_pose_matrix-sampler">
          <input semantic="INPUT" source="#medkit_small_qc_skeleton_idle_004_cube_pose_matrix-input"/>
          <input semantic="OUTPUT" source="#medkit_small_qc_skeleton_idle_004_cube_pose_matrix-output"/>
          <input semantic="INTERPOLATION" source="#medkit_small_qc_skeleton_idle_004_cube_pose_matrix-interpolation"/>
        </sampler>
        <channel source="#medkit_small_qc_skeleton_idle_004_cube_pose_matrix-sampler" target="medkit_small_qc_skeleton_cube/transform"/>
      </animation>
    </animation>
  </library_animations>
  <library_visual_scenes>
    <visual_scene id="medkit_small_bday_qc" name="medkit_small_bday.qc">
      <node id="medkit_small_qc_skeleton" name="medkit_small.qc_skeleton" type="NODE">
        <matrix sid="transform">1 0 0 0 0 1 0 0 0 0 1 0 0 0 0 1</matrix>
        <node id="medkit_small_qc_skeleton_Scene_Root" name="Scene_Root" sid="Scene_Root" type="JOINT">
          <matrix sid="transform">1 0 0 0 0 2.02816e-7 -1 0 0 1 2.38419e-7 0 0 0 0 1</matrix>
          <node id="medkit_small_qc_skeleton_item" name="item" sid="item" type="JOINT">
            <matrix sid="transform">1 0 0 0 0 1 0 0 0 0 1 0 0 0 0 1</matrix>
            <node id="medkit_small_qc_skeleton_cube" name="cube" sid="cube" type="JOINT">
              <matrix sid="transform">1 0 0 0 0 1 1.29035e-11 10.57105 0 -1.29035e-11 1 4.54747e-13 0 0 0 1</matrix>
              <extra>
                <technique profile="blender">
                  <layer sid="layer" type="string">0</layer>
                  <tip_x sid="tip_x" type="float">0</tip_x>
                  <tip_y sid="tip_y" type="float">0</tip_y>
                  <tip_z sid="tip_z" type="float">0.01761817</tip_z>
                </technique>
              </extra>
            </node>
            <extra>
              <technique profile="blender">
                <layer sid="layer" type="string">0</layer>
                <tip_x sid="tip_x" type="float">0</tip_x>
                <tip_y sid="tip_y" type="float">0</tip_y>
                <tip_z sid="tip_z" type="float">0.01761841</tip_z>
              </technique>
            </extra>
          </node>
          <extra>
            <technique profile="blender">
              <layer sid="layer" type="string">0</layer>
              <tip_x sid="tip_x" type="float">0</tip_x>
              <tip_y sid="tip_y" type="float">0</tip_y>
              <tip_z sid="tip_z" type="float">0.01761841</tip_z>
            </technique>
          </extra>
        </node>
        <node id="medkit_small_reference" name="medkit_small_reference" type="NODE">
          <matrix sid="transform">1 0 0 0 0 1 0 0 0 0 1 0 0 0 0 1</matrix>
          <instance_controller url="#medkit_small_qc_skeleton_medkit_small_reference-skin">
            <skeleton>#medkit_small_qc_skeleton_Scene_Root</skeleton>
            <bind_material>
              <technique_common>
                <instance_material symbol="medkit-material" target="#medkit-material">
                  <bind_vertex_input semantic="UVMap" input_semantic="TEXCOORD" input_set="0"/>
                </instance_material>
              </technique_common>
            </bind_material>
          </instance_controller>
        </node>
      </node>
    </visual_scene>
  </library_visual_scenes>
  <scene>
    <instance_visual_scene url="#medkit_small_bday_qc"/>
  </scene>
</COLLADA>