<?xml version="1.0" encoding="utf-8"?>
<COLLADA xmlns="http://www.collada.org/2005/11/COLLADASchema" version="1.4.1" xmlns:xsi="http://www.w3.org/2001/XMLSchema-instance">
  <asset>
    <contributor>
      <author>Blender User</author>
      <authoring_tool>Blender 2.90.1 commit date:2020-09-23, commit time:06:43, hash:3e85bb34d0d7</authoring_tool>
    </contributor>
    <created>2023-10-29T00:06:07</created>
    <modified>2023-10-29T00:06:07</modified>
    <unit name="meter" meter="1"/>
    <up_axis>Z_UP</up_axis>
  </asset>
  <library_effects>
    <effect id="medkit-effect">
      <profile_COMMON>
        <newparam sid="medkit_png-surface">
          <surface type="2D">
            <init_from>medkit_png</init_from>
          </surface>
        </newparam>
        <newparam sid="medkit_png-sampler">
          <sampler2D>
            <source>medkit_png-surface</source>
          </sampler2D>
        </newparam>
        <technique sid="common">
          <lambert>
            <emission>
              <color sid="emission">0 0 0 1</color>
            </emission>
            <diffuse>
              <texture texture="medkit_png-sampler" texcoord="UVMap"/>
            </diffuse>
            <index_of_refraction>
              <float sid="ior">1.45</float>
            </index_of_refraction>
          </lambert>
        </technique>
      </profile_COMMON>
    </effect>
  </library_effects>
  <library_images>
    <image id="medkit_png" name="medkit_png">
      <init_from>medkit.png</init_from>
    </image>
  </library_images>
  <library_materials>
    <material id="medkit-material" name="medkit">
      <instance_effect url="#medkit-effect"/>
    </material>
  </library_materials>
  <library_geometries>
    <geometry id="medkit_large_reference-mesh" name="medkit_large_reference">
      <mesh>
        <source id="medkit_large_reference-mesh-positions">
          <float_array id="medkit_large_reference-mesh-positions-array" count="492">7.413569 -16.12619 16.71559 8.355393 -16.38482 16.25492 7.744124 -15.98376 16.71559 7.166467 -13.64802 4.430896 7.810247 -3.352776 14.5599 7.810247 -15.03946 14.5599 7.166467 -4.840322 4.430895 7.534871 -15.68369 14.5599 8.275013 -16.21731 15.05448 7.810247 4.105153 14.5599 7.810247 15.79184 14.5599 8.275013 16.96969 15.05448 7.534871 16.43606 14.5599 7.166467 5.5927 4.430897 7.166467 14.4004 4.430897 6.895759 -15.96127 14.5599 -6.858109 16.71364 14.5599 6.251978 15.3222 4.430898 -6.214328 15.3222 4.430898 6.895759 16.71364 14.5599 -7.128817 -4.840322 4.430895 -6.801663 -2.891303 14.63675 -6.139265 -4.194759 4.426686 -7.772597 -3.352776 14.5599 -7.128817 14.4004 4.430897 -7.772597 4.105153 14.5599 -7.772597 15.79184 14.5599 -7.128817 5.5927 4.430897 -8.237363 16.96969 15.05448 -7.497221 16.43606 14.5599 -8.237363 -16.21731 15.05448 -7.772597 -15.03946 14.5599 -7.497221 -15.68369 14.5599 -7.128817 -13.64802 4.430896 -7.848902 16.40558 19.19191 -4.871596 -15.65321 21.31898 -4.871596 16.40558 21.31898 -7.848902 -15.65321 19.19191 7.886552 -15.65321 19.19191 4.909246 16.40558 21.31898 4.909246 -15.65321 21.31898 7.886552 16.40558 19.19191 7.886552 -15.65321 16.71559 7.886552 16.40558 16.7156 -7.848902 16.40558 16.7156 -7.848902 -15.65321 16.71559 -7.375919 16.87857 16.7156 8.355393 17.1372 16.25492 -8.317742 17.1372 16.25492 7.413569 16.87857 16.7156 -7.706474 16.73614 16.7156 7.744124 16.73614 16.7156 -8.317742 -16.38482 16.25492 -7.375919 -16.12619 16.71559 -6.858109 -15.96127 14.5599 -7.706474 -15.98376 16.71559 1.518682 4.757268 20.47629 -0.668892 4.757268 22.06569 0.706542 4.757268 22.06569 -1.481032 4.757268 20.47629 -1.481032 6.454202 20.47629 0.706542 6.454202 22.06569 -0.668892 6.454202 22.06569 1.518682 6.454202 20.47629 -6.214328 -14.56982 4.430896 6.251978 -14.56982 4.430896 6.176915 4.947137 4.426687 6.839314 -2.891303 14.63675 6.176915 -4.194759 4.426686 6.839314 3.643679 14.63675 -6.801663 3.643679 14.63675 -6.139265 4.947137 4.426687 -4.234511 9.112053 21.31898 4.272161 9.112053 21.31898 -4.234511 -8.359678 21.31898 4.272161 -8.359678 21.31898 3.256587 7.807501 20.47629 3.256587 -7.055125 20.47629 -3.218937 -7.055125 20.47629 -3.218937 7.807501 20.47629 -0.668892 7.807501 22.06569 0.706542 7.807501 22.06569 -1.481032 7.807501 20.47629 -1.481032 -7.055125 20.47629 0.706542 -7.055125 22.06569 -0.668892 -7.055125 22.06569 1.518682 -7.055125 20.47629 0.706542 -5.701826 22.06569 1.518682 -5.701826 20.47629 1.518682 7.807501 20.47629 0.706542 -4.004892 22.06569 1.518682 -4.004892 20.47629 -0.668892 -4.004892 22.06569 -0.668892 -5.701826 22.06569 -1.481032 -5.701826 20.47629 -1.481032 -4.004892 20.47629 -0.19246 4.806311 25.43843 0.280206 4.806311 20.43983 0.280206 4.806311 25.43843 -0.19246 4.806311 20.43983 -0.19246 -4.064046 25.44781 0.280206 -4.064046 25.44781 -0.19246 -4.062328 20.43885 0.280206 -4.062328 20.43885 -0.2386 6.381459 20.43983 0.326346 6.386817 25.44778 0.326346 6.381459 20.43983 -0.2386 6.386817 25.44778 -0.2386 5.926911 26.5178 0.326346 5.926911 26.5178 -0.2386 4.857368 26.9788 0.326346 4.857368 26.9788 0.326346 -4.112998 26.9784 -0.2386 -4.112998 26.9784 -0.2386 -5.182453 26.51744 0.326346 -5.182453 26.51744 -0.2386 -5.642779 25.44771 0.326346 -5.642779 25.44771 0.326346 -5.640053 20.43885 -0.2386 -5.640053 20.43885 -0.423999 -4.293867 20.43885 -0.423999 -4.295665 25.67959 -0.423999 -5.454655 20.43885 -0.423999 -5.45736 25.40956 -0.423999 -5.041316 26.37639 -0.423999 -4.074739 26.793 -0.423999 5.785731 26.37676 -0.423999 4.819118 26.7934 -0.423999 5.03785 25.66972 -0.423999 5.03785 20.43983 -0.423999 6.19606 20.43983 -0.423999 6.201377 25.40972 0.511745 -4.295665 25.67959 0.511745 -4.293867 20.43885 0.511745 -5.041316 26.37639 0.511745 -5.45736 25.40956 0.511745 -5.454655 20.43885 0.511745 5.03785 25.66972 0.511745 -4.074739 26.793 0.511745 4.819118 26.7934 0.511745 5.785731 26.37676 0.511745 6.201377 25.40972 0.511745 6.19606 20.43983 0.511745 5.03785 20.43983 -6.853441 15.04462 4.430897 6.891091 -14.29225 4.430895 -6.853441 -14.29225 4.430895 6.891091 15.04462 4.430897 4.863596 -15.98376 21.17655 7.726375 -15.98376 19.19191 4.757648 -16.12619 20.846 7.354626 -16.12619 19.19191 -4.719997 16.87857 20.846 -7.316976 16.87857 19.19191 -7.688725 16.73614 19.19191 -4.825946 16.73614 21.17655 -7.316976 -16.12619 19.19191 -4.719997 -16.12619 20.846 -4.825946 -15.98376 21.17655 -7.688725 -15.98376 19.19191 4.863596 16.73614 21.17655 4.757648 16.87857 20.846 7.354626 16.87857 19.19191 7.726375 16.73614 19.19191</float_array>
          <technique_common>
            <accessor source="#medkit_large_reference-mesh-positions-array" count="164" stride="3">
              <param name="X" type="float"/>
              <param name="Y" type="float"/>
              <param name="Z" type="float"/>
            </accessor>
          </technique_common>
        </source>
        <source id="medkit_large_reference-mesh-normals">
          <float_array id="medkit_large_reference-mesh-normals-array" count="1434">0.0237624 -0.1420965 0.9895676 0.0238052 -0.1420751 0.9895697 0.04503691 -0.1044797 0.9935068 0.2212142 -1.3707e-5 0.9752253 0.2212142 -1.96925e-5 0.9752253 0.2212142 6.0901e-5 0.9752252 0.2212142 1.72257e-5 0.9752253 0.123346 -0.05271565 0.9909627 0.1611682 -0.02613967 0.9865807 0.161077 -0.02616578 0.9865949 0.2212368 -4.13552e-5 0.9752202 0.1894373 4.03951e-5 0.9818928 0.1611113 0.02613508 0.9865902 0.1610813 0.02616691 0.9865943 0.1233466 0.05271685 0.9909625 0.2212142 -6.08741e-5 0.9752252 0.189359 1.95801e-5 0.9819079 0.2212142 -1.73331e-5 0.9752252 0.2212144 1.35899e-5 0.9752253 0.05814152 -0.1338379 0.9892963 0.02890759 -0.1873567 0.9818665 0.02888536 -0.1873942 0.9818601 -7.24764e-5 0.2231642 0.9747809 1.34614e-5 0.2231644 0.9747809 -1.34781e-5 0.2231642 0.9747809 7.23079e-5 0.2231649 0.9747808 -0.09890753 0.2014037 0.9745019 -0.1088268 0.1950984 0.9747273 -0.1089565 0.1950342 0.9747258 -0.1088628 0.1950749 0.974728 -0.2212142 1.35888e-5 0.9752252 -0.1893589 1.9632e-5 0.981908 -0.2212141 -6.11991e-5 0.9752253 -0.2212142 -1.73301e-5 0.9752253 -0.1611681 0.02613961 0.9865807 -0.1610916 0.0261681 0.9865925 -0.1233466 0.05271685 0.9909625 -0.1894249 4.05429e-5 0.9818953 -0.2212391 4.12833e-5 0.9752196 -0.1611485 -0.02617752 0.986583 -0.1611683 -0.02613979 0.9865807 -0.1233454 -0.05271589 0.9909626 -0.2212142 6.09697e-5 0.9752252 -0.2212141 -1.95652e-5 0.9752253 -0.2212142 1.72253e-5 0.9752252 -0.2212142 -1.36793e-5 0.9752252 -0.1094834 0 0.9939886 -0.109484 2.33863e-5 0.9939886 -0.1094831 -2.33795e-5 0.9939888 -0.1094841 0 0.9939886 0.1094834 0 0.9939886 0.1094841 -2.35178e-5 0.9939886 0.1094832 2.33023e-5 0.9939887 0.1094841 0 0.9939886 0.21864 -4.68933e-5 0.9758056 0.21864 0 0.9758056 0.21864 0 0.9758056 0.21864 4.66153e-5 0.9758056 -0.21864 4.67703e-5 0.9758056 -0.21864 0 0.9758056 -0.21864 0 0.9758056 -0.21864 -4.66048e-5 0.9758056 -0.02376222 0.1421051 0.9895663 0.02380436 0.142065 0.9895711 -0.02380627 0.1420811 0.9895687 0.02376079 0.1420791 0.9895702 -0.04503279 0.1044749 0.9935075 0.04503446 0.1044794 0.9935069 -0.02380347 -0.1420657 0.989571 -0.02376234 -0.1420828 0.9895696 -0.028898 -0.1872969 0.9818782 -0.02888542 -0.1874101 0.981857 0.02888542 0.187395 0.9818598 -0.02888661 0.1874162 0.9818559 -0.02889907 0.1873031 0.981877 0.02890807 0.1873592 0.9818661 -0.05814266 0.1338402 0.9892959 -0.04503506 -0.1044753 0.9935074 -6.42231e-5 0.21864 0.9758056 2.67121e-5 0.2186401 0.9758056 -2.67029e-5 0.21864 0.9758056 6.38664e-5 0.21864 0.9758056 6.42231e-5 -0.2186397 0.9758056 -2.67121e-5 -0.2186394 0.9758058 2.67029e-5 -0.2186389 0.9758058 -6.38664e-5 -0.2186399 0.9758056 -1.34614e-5 -0.2231647 0.9747808 7.24764e-5 -0.2231646 0.9747809 -7.23079e-5 -0.2231648 0.9747807 1.34781e-5 -0.2231646 0.9747808 -0.2213359 -2.3355e-5 0.9751976 -0.2213365 8.11175e-6 0.9751975 -0.2213362 -7.83801e-6 0.9751976 -0.2213367 2.3067e-5 0.9751974 3.13141e-6 -0.223226 0.9747667 -2.18961e-5 -0.2232269 0.9747665 2.262e-5 -0.2232263 0.9747667 -2.32458e-6 -0.2232273 0.9747664 0.2213369 2.33548e-5 0.9751975 0.2213371 -7.87178e-6 0.9751974 0.2213371 8.00192e-6 0.9751974 0.2213374 -2.28435e-5 0.9751974 2.26087e-5 0.223226 0.9747667 -3.01264e-6 0.2232257 0.9747669 2.96533e-6 0.2232251 0.9747669 -2.19494e-5 0.2232263 0.9747667 0.2212331 -2.25008e-6 0.975221 0.2212331 1.99676e-5 0.975221 0.221233 2.23764e-6 0.975221 0.2212331 -1.98513e-5 0.975221 -0.221233 -2.01911e-5 0.975221 -0.221233 2.03401e-6 0.975221 -0.2212331 1.98513e-5 0.975221 -0.2212331 -2.48869e-6 0.975221 0.09890758 -0.2014037 0.9745019 0.1089581 -0.1950353 0.9747253 0.1089572 -0.1950348 0.9747256 0.108863 -0.1950747 0.9747281 -0.02273666 6.34214e-6 0.9997416 -0.02273595 2.24722e-6 0.9997415 -0.0227378 -2.32086e-6 0.9997415 -0.02273559 -6.4671e-6 0.9997416 0.1088625 0.1951122 0.9747205 0.1084092 0.1954009 0.9747133 0.1089725 0.1950543 0.9747198 0.1089446 0.1950486 0.9747242 0.02273666 -6.48741e-6 0.9997415 0.02273529 -2.27143e-6 0.9997416 0.02273786 2.25753e-6 0.9997415 0.02273517 6.41495e-6 0.9997416 -0.1088625 -0.1951121 0.9747207 -0.1084088 -0.1954008 0.9747133 -0.1089727 -0.1950548 0.9747198 -0.1089447 -0.1950493 0.974724 0 0 1 0 0 1 3.55419e-6 0 1 0 0 1 0 0 1 -1.65756e-7 0 1 -1.89076e-6 0 1 1.65437e-7 0 1 -0.121146 -1.67041e-5 0.9926348 -0.1211431 -7.50218e-6 0.9926351 -0.1211464 7.33137e-6 0.9926347 -0.1211422 1.63317e-5 0.9926353 0.1211462 1.6464e-5 0.9926348 0.1211432 7.33785e-6 0.9926351 0.1211465 -7.48038e-6 0.9926347 0.1211423 -1.64509e-5 0.9926352 0 0 1 -0.1781396 0 0.9840053 -0.1781395 3.8167e-5 0.9840053 -0.1781392 -3.79869e-5 0.9840053 -0.1781398 0 0.9840052 6.42231e-5 -0.2186401 0.9758056 -2.67121e-5 -0.2186402 0.9758056 2.67029e-5 -0.21864 0.9758056 -6.38962e-5 -0.21864 0.9758056 0.1781396 0 0.9840053 0.1781399 -3.8167e-5 0.9840053 0.1781399 3.79869e-5 0.9840052 0.1781395 0 0.9840053 -6.42231e-5 0.2186404 0.9758055 2.67121e-5 0.2186406 0.9758055 -2.66731e-5 0.2186424 0.9758051 6.38664e-5 0.2186399 0.9758056 0.1781392 0 0.9840054 0.1781391 3.79307e-5 0.9840054 0.1781392 0 0.9840053 0.1781391 -3.82883e-5 0.9840053 0 -2.1768e-7 1 0.1781396 0 0.9840052 0.1781395 3.79869e-5 0.9840053 0.1781398 0 0.9840052 0.1781392 -3.8167e-5 0.9840053 -0.1781396 0 0.9840053 -0.1781399 -2.66819e-4 0.9840052 -0.1781395 0 0.9840053 -0.1781399 3.8167e-5 0.9840052 -0.1781392 0 0.9840053 -0.178139 -3.84231e-5 0.9840053 -0.1781392 -2.19086e-7 0.9840053 -0.1781391 3.79454e-5 0.9840053 -6.42231e-5 0.2186398 0.9758056 2.67121e-5 0.2186397 0.9758056 -2.67029e-5 0.2186394 0.9758058 6.38664e-5 0.21864 0.9758056 6.08653e-7 0 1 -3.60584e-7 0 1 -3.11181e-6 0 1 0 -1.28332e-7 1 1.22555e-6 0 1 0 0 1 -1.20195e-7 0 1 -9.67032e-7 0 1 1.64448e-6 0 1 2.84311e-7 -1.21197e-7 1 0 0 1 0 -1.21197e-7 1 -0.05814111 -0.1338376 0.9892963 6.42231e-5 -0.2186402 0.9758056 -2.67121e-5 -0.2186402 0.9758056 2.66731e-5 -0.2186412 0.9758054 -6.38664e-5 -0.21864 0.9758056 1.41561e-5 -0.21864 0.9758056 0 -0.21864 0.9758056 -4.68364e-5 -0.21864 0.9758056 -1.45717e-5 -0.21864 0.9758056 0 -0.21864 0.9758056 4.27142e-5 -0.21864 0.9758056 0 -2.85083e-4 1 0 -2.85083e-4 1 0 -2.85083e-4 1 0 -2.85083e-4 1 5.81294e-5 0.2186328 0.9758073 -8.1972e-5 0.2186329 0.9758071 0 0.2186328 0.9758073 0 0.2186328 0.9758073 4.68328e-5 0.2186326 0.9758073 6.68094e-5 0.2186326 0.9758073 -1.15857e-5 0.2186549 0.9758023 -4.6995e-5 0.2055377 0.9786492 0 0.2186548 0.9758023 0 0.2186549 0.9758023 0 0.2055288 0.9786511 -4.17232e-7 0.205543 0.9786481 0 0.1355651 0.9907684 0 0.1355651 0.9907685 0 0.03709399 0.9993119 0 0.03711169 0.9993112 0 -0.037086 0.9993122 0 -0.03710389 0.9993115 -2.30259e-5 -0.1355146 0.9907754 0 -0.1355146 0.9907754 -1.63913e-7 -0.2055127 0.9786545 0 -0.2054914 0.978659 0 -0.2186566 0.9758018 5.74914e-5 -0.2054921 0.9786589 0 -0.2186565 0.975802 3.08454e-5 -0.2186565 0.975802 -0.1545925 0.1546074 0.9758062 -0.1548326 0.1543674 0.9758062 -0.1545691 0.1546308 0.9758063 -0.1547674 0.1544324 0.9758062 -0.1546277 0.1545723 0.9758062 -0.1545708 0.1546292 0.9758062 -0.21864 -5.3094e-4 0.9758055 -0.2186401 4.40478e-5 0.9758056 -0.21864 -3.65973e-5 0.9758056 -0.21864 3.86947e-5 0.9758056 -0.1849763 -2.10091e-4 0.982743 -0.1849773 -2.75095e-4 0.9827428 -0.21864 -5.44518e-5 0.9758056 -0.21864 -6.31362e-5 0.9758056 -0.21864 1.34856e-6 0.9758056 -0.21864 2.11895e-5 0.9758056 -0.1850465 -2.17967e-4 0.9827297 -0.1850469 -2.10017e-4 0.9827297 -0.1849897 -1.80364e-4 0.9827405 -0.21864 0 0.9758056 -0.21864 2.94745e-5 0.9758056 -0.21864 1.4118e-5 0.9758056 -0.21864 -3.40566e-5 0.9758056 -0.21864 6.83187e-5 0.9758056 -0.1545931 -0.1546106 0.9758056 -0.1546017 -0.1546019 0.9758056 -0.1545718 -0.1546318 0.9758056 -0.1546254 -0.1545782 0.9758056 -0.1546018 -0.1546018 0.9758056 -0.1546112 -0.1545928 0.9758056 0.1545853 0.1546144 0.9758062 0.1547452 0.1544549 0.9758062 0.1546019 0.1545979 0.9758062 0.1547675 0.1544324 0.9758062 0.1546421 0.1545578 0.9758062 0.1545873 0.1546122 0.9758063 0.21864 5.75781e-5 0.9758056 0.21864 -1.67462e-4 0.9758056 0.21864 -1.62118e-5 0.9758056 0.21864 -2.98694e-5 0.9758056 0.21864 2.50638e-5 0.9758056 0.21864 -3.3472e-4 0.9758056 0.185024 -2.22325e-4 0.982734 0.1849808 -1.69784e-4 0.9827422 0.1850473 -2.10063e-4 0.9827297 0.1850463 -2.18213e-4 0.9827298 0.21864 3.84748e-5 0.9758056 0.21864 2.11002e-5 0.9758056 0.21864 4.97401e-5 0.9758056 0.21864 -3.75807e-5 0.9758056 0.21864 0.001043856 0.9758051 0.1849773 -3.76371e-5 0.9827428 0.21864 0 0.9758056 0.21864 -6.53118e-5 0.9758056 0.1545616 -0.154642 0.9758056 0.1546017 -0.1546019 0.9758056 0.154597 -0.1546067 0.9758056 0.1546204 -0.1545834 0.9758056 0.1546019 -0.154602 0.9758055 0.1546398 -0.1545635 0.9758057 -3.88791e-5 6.90954e-6 1 -5.47455e-6 2.96213e-5 1 8.40488e-5 1.40261e-4 1 6.2876e-5 -8.11006e-5 1 5.70674e-5 -2.03351e-5 1 3.64552e-5 2.30648e-7 1 -8.86432e-5 1.7744e-5 1 -3.35909e-5 -1.22424e-7 1 6.87656e-5 -2.42953e-5 1 -6.23847e-5 8.06929e-5 1 5.43459e-6 -3.00517e-5 1 -3.66115e-5 -1.3174e-4 1 -2.61857e-5 -2.48861e-5 1 2.47218e-4 6.12818e-5 1 -7.66537e-6 -5.16359e-5 1 0 1.83163e-5 1 1.19274e-4 3.05859e-5 1 5.06338e-5 4.52285e-6 1 -4.63348e-5 -2.73601e-6 1 -4.04231e-5 -2.22615e-5 1 -0.1145631 -0.02043604 0.9932058 -0.1145724 -0.02047145 0.9932039 -0.09279197 -0.04000461 0.9948816 -0.1145878 0.02047151 0.9932022 -0.1145817 0.02043747 0.9932036 -0.09278476 0.04000258 0.9948824 0.05814254 0.1338405 0.9892959 -0.1516394 -0.1455809 0.9776563 -0.1546344 -0.1545711 0.9758054 -0.1545792 -0.1546262 0.9758054 -0.1517374 -0.145505 0.9776524 -0.1543369 -0.1548686 0.9758052 -0.1516821 -0.1455392 0.9776559 -0.1459233 -0.09585398 0.9846413 -0.1458989 -0.09583789 0.9846464 -0.1374097 -0.02722197 0.9901403 -0.1373741 -0.02721565 0.9901453 -0.1374139 0.02717357 0.9901409 -0.1373865 0.02716797 0.990145 -0.1458662 0.0959208 0.9846432 -0.1458891 0.09593707 0.9846383 -0.1516838 0.1455553 0.9776533 -0.1517357 0.1455181 0.9776507 -0.1541058 0.1551495 0.9757972 -0.1546426 0.1546131 0.9757974 -0.1516581 0.1456121 0.9776487 -0.1546351 0.1546202 0.9757975 0.1546589 0.1545964 0.9757974 0.1516745 0.1455951 0.9776486 0.1546016 0.1546535 0.9757975 0.1541057 0.1551496 0.9757971 0.1516804 0.1455515 0.9776543 0.1517341 0.1455219 0.9776504 0.1458725 0.09592038 0.9846423 0.1458964 0.09593796 0.9846372 0.1374124 0.0271759 0.9901411 0.137376 0.02716869 0.9901463 0.1374014 -0.02722185 0.9901414 0.1373741 -0.02721673 0.9901453 0.145923 -0.09585475 0.9846413 0.1458991 -0.09583824 0.9846464 0.1516868 -0.1455434 0.9776545 0.1517337 -0.1455067 0.9776527 0.1543369 -0.1548684 0.9758052 0.1516296 -0.1455905 0.9776563 0.1546013 -0.1546042 0.9758054 0.1545755 -0.1546301 0.9758053 3.91902e-6 -0.1017842 0.9948065 -2.17902e-5 -0.1017845 0.9948065 1.39326e-5 -0.1017843 0.9948065 -2.17902e-5 -0.1017837 0.9948067 -1.38835e-5 -0.1017841 0.9948065 -3.8743e-6 -0.1017842 0.9948066 0.09222579 0.2035035 0.974721 0.08893376 0.2049354 0.9747269 0.1584963 0.1572591 0.9747557 0.158515 0.1572347 0.9747565 0.2047244 0.08751213 0.9748998 0.2047082 0.08755028 0.9748998 0.1028877 -0.06352734 0.9926624 0.1028675 -0.06350231 0.9926661 0.0835905 -0.1272064 0.9883478 0.08357226 -0.1272148 0.9883482 0.05238044 -0.1790986 0.9824358 0.05238801 -0.1791124 0.9824329 -0.05238282 0.1790925 0.9824367 -0.0523861 0.1791015 0.982435 -0.08357125 0.1272146 0.9883483 -0.08358967 0.1272037 0.9883481 -0.1028876 0.06352853 0.9926623 -0.1028653 0.06350094 0.9926663 -0.2047075 0.08754992 0.9749 -0.2047249 0.08751207 0.9748997 -0.1584742 0.157236 0.974763 -0.1585097 0.1572293 0.9747583 -0.08893322 0.2049339 0.9747272 -0.08893561 0.2049337 0.974727 -0.05239558 -0.179121 0.9824308 -0.05245339 -0.1790894 0.9824336 -0.08357387 -0.1272045 0.9883494 -0.08358675 -0.1271759 0.988352 -0.1028562 -0.0635184 0.9926662 -0.1028933 -0.06353342 0.9926614 -0.09222561 -0.2035035 0.9747209 -0.08893322 -0.2049343 0.9747271 -0.1584964 -0.1572583 0.9747558 -0.1585145 -0.1572355 0.9747565 -0.2047241 -0.08751183 0.9748999 -0.2047083 -0.08755075 0.9748997 -2.15137e-5 0.0733118 0.9973091 2.13757e-5 0.07331031 0.9973093 -1.7941e-5 0.1355129 0.9907756 1.7643e-5 0.135492 0.9907785 7.24196e-6 0.185729 0.9826011 -9.08971e-6 0.1857019 0.9826062 -5.90906e-5 0.2186399 0.9758056 5.91874e-5 0.21864 0.9758056 4.97755e-5 0.2186399 0.9758056 -4.99506e-5 0.21864 0.9758056 -5.90682e-5 -0.21864 0.9758056 -4.97755e-5 -0.2186398 0.9758056 4.99506e-5 -0.21864 0.9758056 5.95581e-5 -0.2186397 0.9758057 7.33137e-6 -0.1857064 0.9826053 -9.74536e-6 -0.1857299 0.9826009 -1.7643e-5 -0.1354933 0.9907783 1.73301e-5 -0.1355137 0.9907755 2.15137e-5 -0.07330828 0.9973094 -2.13645e-5 -0.07331371 0.997309 0.08893334 -0.2049343 0.9747271 0.08893567 -0.2049338 0.974727 0.1585094 -0.1572303 0.9747581 0.1584744 -0.1572359 0.9747629 0.2047075 -0.0875501 0.9749 0.2047248 -0.08751219 0.9748997 -0.08206301 0.2023403 0.975871 -0.08204644 0.2023391 0.9758726 -0.1509916 0.1578013 0.9758588 -0.150994 0.1577638 0.9758644 -0.2002584 0.0872758 0.9758481 -0.1986677 0.09086215 0.9758459 0.05239534 0.1791145 0.9824321 0.05245196 0.1790842 0.9824346 0.08357161 0.1272014 0.98835 0.08358591 0.127175 0.9883522 0.1028524 0.06351655 0.9926667 0.1028932 0.06353235 0.9926615 0.1145628 0.02043563 0.9932058 0.1145728 0.02047008 0.993204 0.09278476 0.04000163 0.9948824 0.1145861 -0.02047246 0.9932025 0.1145802 -0.02043759 0.9932038 0.09278839 -0.04000341 0.994882 -3.91902e-6 0.1017842 0.9948065 2.17902e-5 0.1017841 0.9948065 -1.39177e-5 0.1017839 0.9948065 2.17902e-5 0.1017848 0.9948064 1.38835e-5 0.1017843 0.9948065 3.8743e-6 0.1017844 0.9948065 0.0820592 0.2023514 0.9758689 0.08206295 0.2023646 0.975866 0.1509535 0.1578 0.9758649 0.1509807 0.1578267 0.9758564 0.1986498 0.09094393 0.975842 0.1986353 0.0909354 0.9758458 -0.08205842 -0.2023522 0.9758688 -0.0820614 -0.2023644 0.9758661 -0.1509597 -0.1577936 0.9758649 -0.1509799 -0.1578269 0.9758564 -0.1986494 -0.09094369 0.9758421 -0.1986348 -0.09093505 0.9758459 0.2002589 -0.08727586 0.9758481 0.1986682 -0.09086239 0.9758458 0.1509932 -0.1577641 0.9758645 0.1509908 -0.1578007 0.9758591 0.08206248 -0.2023419 0.9758707 0.08204621 -0.20234 0.9758725</float_array>
          <technique_common>
            <accessor source="#medkit_large_reference-mesh-normals-array" count="478" stride="3">
              <param name="X" type="float"/>
              <param name="Y" type="float"/>
              <param name="Z" type="float"/>
            </accessor>
          </technique_common>
        </source>
        <source id="medkit_large_reference-mesh-map-0">
          <float_array id="medkit_large_reference-mesh-map-0-array" count="1848">0.004583954 0.762687 0.006174981 0.750605 0.01064598 0.762687 0.04658097 0.572399 0.19858 0.722102 0.02603799 0.722102 0.04658097 0.572399 0.176618 0.572399 0.19858 0.722102 0.01652699 0.722102 0.02603799 0.722102 0.005482971 0.732881 0.005482971 0.732881 0.02603799 0.722102 0.19858 0.722102 0.005482971 0.732881 0.19858 0.722102 0.308688 0.722102 0.005482971 0.732881 0.308688 0.722102 0.48123 0.722102 0.48123 0.722102 0.501602 0.732881 0.005482971 0.732881 0.48123 0.722102 0.490741 0.722102 0.501602 0.732881 0.48123 0.722102 0.308688 0.722102 0.33065 0.572399 0.48123 0.722102 0.33065 0.572399 0.460687 0.572399 0.01652699 0.722102 0.005482971 0.732881 0.009419977 0.722102 0.522389 0.722102 0.715946 0.573565 0.531894 0.573565 0.522389 0.722102 0.725451 0.722102 0.715946 0.573565 0.176618 0.572399 0.205393 0.719415 0.186149 0.572337 0.176618 0.572399 0.19858 0.722102 0.205393 0.719415 0.460687 0.572399 0.308688 0.722102 0.48123 0.722102 0.460687 0.572399 0.33065 0.572399 0.308688 0.722102 0.48123 0.722102 0.501602 0.732881 0.490741 0.722102 0.501602 0.732881 0.48123 0.722102 0.308688 0.722102 0.501602 0.732881 0.308688 0.722102 0.19858 0.722102 0.19858 0.722102 0.005482971 0.732881 0.501602 0.732881 0.19858 0.722102 0.02603799 0.722102 0.005482971 0.732881 0.02603799 0.722102 0.01652699 0.722102 0.005482971 0.732881 0.02603799 0.722102 0.19858 0.722102 0.176618 0.572399 0.02603799 0.722102 0.176618 0.572399 0.04658097 0.572399 0.490291 0.799225 0.01687896 0.850857 0.490193 0.850857 0.490291 0.799225 0.01697695 0.799225 0.01687896 0.850857 0.01697695 0.799225 0.490193 0.850857 0.01687896 0.850857 0.01697695 0.799225 0.490291 0.799225 0.490193 0.850857 0.490291 0.799225 0.01697695 0.762687 0.490291 0.762687 0.490291 0.799225 0.01697695 0.799225 0.01697695 0.762687 0.01697695 0.799225 0.490291 0.762687 0.01697695 0.762687 0.01697695 0.799225 0.490291 0.799225 0.490291 0.762687 0.514744 0.762687 0.751016 0.750605 0.501008 0.750605 0.514744 0.762687 0.733096 0.762687 0.751016 0.750605 0.501637 0.762687 0.501008 0.750605 0.495576 0.762687 0.501637 0.762687 0.495576 0.762687 0.501008 0.750605 0.733096 0.762687 0.501008 0.750605 0.751016 0.750605 0.733096 0.762687 0.514744 0.762687 0.501008 0.750605 0.725451 0.722102 0.501602 0.732881 0.522389 0.722102 0.725451 0.722102 0.745814 0.732881 0.501602 0.732881 0.725451 0.722102 0.522389 0.722102 0.501602 0.732881 0.725451 0.722102 0.501602 0.732881 0.745814 0.732881 0.497848 0.722102 0.490741 0.722102 0.501602 0.732881 0.004583954 0.762687 0.01064598 0.762687 0.006174981 0.750605 0.78571 0.784661 0.747116 0.83778 0.747116 0.804382 0.78571 0.784661 0.78571 0.857501 0.747116 0.83778 0.747116 0.922712 0.78571 0.869593 0.78571 0.902991 0.747116 0.922712 0.747116 0.849872 0.78571 0.869593 0.531894 0.573565 0.725451 0.722102 0.522389 0.722102 0.531894 0.573565 0.715946 0.573565 0.725451 0.722102 0.006174981 0.750605 0.501602 0.732881 0.005482971 0.732881 0.006174981 0.750605 0.501008 0.750605 0.501602 0.732881 0.751016 0.750605 0.501602 0.732881 0.745814 0.732881 0.751016 0.750605 0.501008 0.750605 0.501602 0.732881 0.501008 0.750605 0.005482971 0.732881 0.501602 0.732881 0.501008 0.750605 0.006174981 0.750605 0.005482971 0.732881 0.745814 0.732881 0.501008 0.750605 0.751016 0.750605 0.745814 0.732881 0.501602 0.732881 0.501008 0.750605 0.321119 0.572337 0.205393 0.719415 0.186149 0.572337 0.321119 0.572337 0.301875 0.719415 0.205393 0.719415 0.301875 0.719415 0.186149 0.572337 0.205393 0.719415 0.301875 0.719415 0.321119 0.572337 0.186149 0.572337 0.33065 0.572399 0.301875 0.719415 0.321119 0.572337 0.33065 0.572399 0.308688 0.722102 0.301875 0.719415 0.320597 0.566445 0.1987439 0.549535 0.31256 0.549535 0.320597 0.566445 0.190707 0.566445 0.1987439 0.549535 0.19858 0.722102 0.186149 0.572337 0.205393 0.719415 0.19858 0.722102 0.176618 0.572399 0.186149 0.572337 0.320597 0.566445 0.1987439 0.549535 0.31256 0.549535 0.320597 0.566445 0.190707 0.566445 0.1987439 0.549535 0.308688 0.722102 0.321119 0.572337 0.301875 0.719415 0.308688 0.722102 0.33065 0.572399 0.321119 0.572337 0.489998 0.995096 0.382316 0.98569 0.382316 0.860098 0.01668298 0.995096 0.382316 0.98569 0.489998 0.995096 0.01668298 0.995096 0.124365 0.98569 0.382316 0.98569 0.124365 0.98569 0.01668298 0.995096 0.01687896 0.850857 0.124365 0.98569 0.01687896 0.850857 0.124365 0.860098 0.490193 0.850857 0.124365 0.860098 0.01687896 0.850857 0.490193 0.850857 0.382316 0.860098 0.124365 0.860098 0.489998 0.995096 0.382316 0.860098 0.490193 0.850857 0.124365 0.860098 0.363056 0.875092 0.143625 0.875092 0.124365 0.860098 0.382316 0.860098 0.363056 0.875092 0.382316 0.98569 0.143625 0.970696 0.363056 0.970696 0.382316 0.98569 0.124365 0.98569 0.143625 0.970696 0.363056 0.933047 0.343076 0.91274 0.363056 0.91274 0.363056 0.933047 0.343076 0.933047 0.343076 0.91274 0.363056 0.945038 0.343076 0.933047 0.363056 0.933047 0.363056 0.945038 0.343076 0.945038 0.343076 0.933047 0.78571 0.912971 0.747116 0.96609 0.747116 0.932691 0.78571 0.912971 0.78571 0.985811 0.747116 0.96609 0.143625 0.90075 0.163605 0.91274 0.143625 0.91274 0.143625 0.90075 0.163605 0.90075 0.163605 0.91274 0.78571 0.912971 0.747116 0.96609 0.747116 0.932691 0.78571 0.912971 0.78571 0.985811 0.747116 0.96609 0.318023 0.90075 0.1886579 0.91274 0.1886579 0.90075 0.318023 0.90075 0.318023 0.91274 0.1886579 0.91274 0.1886579 0.933047 0.318023 0.91274 0.318023 0.933047 0.1886579 0.933047 0.1886579 0.91274 0.318023 0.91274 0.363056 0.90075 0.343076 0.91274 0.343076 0.90075 0.363056 0.90075 0.363056 0.91274 0.343076 0.91274 0.143625 0.933047 0.163605 0.91274 0.163605 0.933047 0.143625 0.933047 0.143625 0.91274 0.163605 0.91274 0.143625 0.945038 0.163605 0.933047 0.163605 0.945038 0.143625 0.945038 0.143625 0.933047 0.163605 0.933047 0.1886579 0.945038 0.318023 0.933047 0.318023 0.945038 0.1886579 0.945038 0.1886579 0.933047 0.318023 0.933047 0.747116 0.922712 0.78571 0.869593 0.78571 0.902991 0.747116 0.922712 0.747116 0.849872 0.78571 0.869593 0.143625 0.875092 0.363056 0.90075 0.343076 0.90075 0.143625 0.875092 0.363056 0.875092 0.363056 0.90075 0.143625 0.875092 0.163605 0.90075 0.143625 0.90075 0.363056 0.970696 0.143625 0.970696 0.143625 0.945038 0.363056 0.970696 0.143625 0.945038 0.163605 0.945038 0.363056 0.970696 0.163605 0.945038 0.1886579 0.945038 0.163605 0.90075 0.1886579 0.945038 0.163605 0.945038 0.163605 0.90075 0.1886579 0.90075 0.1886579 0.945038 0.143625 0.875092 0.1886579 0.90075 0.163605 0.90075 0.143625 0.875092 0.318023 0.90075 0.1886579 0.90075 0.143625 0.875092 0.343076 0.90075 0.318023 0.90075 0.343076 0.90075 0.318023 0.945038 0.318023 0.90075 0.343076 0.90075 0.343076 0.945038 0.318023 0.945038 0.363056 0.970696 0.343076 0.945038 0.363056 0.945038 0.363056 0.970696 0.318023 0.945038 0.343076 0.945038 0.363056 0.970696 0.1886579 0.945038 0.318023 0.945038 0.009419977 0.722102 0.005482971 0.732881 0.01652699 0.722102 0.78571 0.784661 0.747116 0.83778 0.747116 0.804382 0.78571 0.784661 0.78571 0.857501 0.747116 0.83778 0.831473 0.824848 0.82286 0.915855 0.82286 0.824848 0.831473 0.824848 0.831473 0.915855 0.82286 0.915855 0.831473 0.663202 0.82286 0.824848 0.82286 0.663202 0.831473 0.663202 0.831473 0.824848 0.82286 0.824848 0.831473 0.571841 0.82286 0.663202 0.82286 0.571841 0.831473 0.571841 0.831473 0.663202 0.82286 0.663202 0.814315 0.571762 0.80402 0.663021 0.80402 0.571762 0.814315 0.571762 0.814315 0.663021 0.80402 0.663021 0.80402 0.663021 0.814315 0.663021 0.814315 0.682548 0.80402 0.663021 0.814315 0.682548 0.80402 0.682548 0.814315 0.702066 0.80402 0.682548 0.814315 0.682548 0.814315 0.702066 0.80402 0.702066 0.80402 0.682548 0.814315 0.702066 0.80402 0.86553 0.80402 0.702066 0.814315 0.702066 0.814315 0.86553 0.80402 0.86553 0.80402 0.86553 0.814315 0.86553 0.814315 0.884556 0.80402 0.86553 0.814315 0.884556 0.80402 0.884556 0.814315 0.903587 0.80402 0.884556 0.814315 0.884556 0.814315 0.903587 0.80402 0.903587 0.80402 0.884556 0.814315 0.903587 0.80402 0.994862 0.80402 0.903587 0.814315 0.903587 0.814315 0.994862 0.80402 0.994862 0.548459 0.864858 0.552446 0.946871 0.553796 0.864858 0.548459 0.864858 0.548413 0.951317 0.552446 0.946871 0.529241 0.864858 0.528965 0.947017 0.536079 0.96286 0.529241 0.864858 0.536079 0.96286 0.552073 0.96961 0.548413 0.951317 0.529241 0.864858 0.552073 0.96961 0.548413 0.951317 0.548459 0.864858 0.529241 0.864858 0.548413 0.951317 0.552073 0.96961 0.714855 0.962867 0.552073 0.96961 0.69886 0.969616 0.714855 0.962867 0.548413 0.951317 0.698427 0.946781 0.552446 0.946871 0.548413 0.951317 0.702484 0.951154 0.698427 0.946781 0.714855 0.962867 0.702484 0.951154 0.548413 0.951317 0.714855 0.962867 0.702607 0.864858 0.702484 0.951154 0.714855 0.962867 0.721768 0.864858 0.702607 0.864858 0.714855 0.962867 0.721963 0.94702 0.721768 0.864858 0.702484 0.951154 0.697251 0.864858 0.698427 0.946781 0.702484 0.951154 0.702607 0.864858 0.697251 0.864858 0.553796 0.864858 0.548413 0.951317 0.548459 0.864858 0.553796 0.864858 0.552446 0.946871 0.548413 0.951317 0.536079 0.96286 0.528965 0.947017 0.529241 0.864858 0.536079 0.96286 0.529241 0.864858 0.548459 0.864858 0.536079 0.96286 0.548459 0.864858 0.548413 0.951317 0.536079 0.96286 0.548413 0.951317 0.702484 0.951154 0.552446 0.946871 0.702484 0.951154 0.548413 0.951317 0.552446 0.946871 0.698427 0.946781 0.702484 0.951154 0.702484 0.951154 0.552073 0.96961 0.536079 0.96286 0.702484 0.951154 0.69886 0.969616 0.552073 0.96961 0.702484 0.951154 0.714855 0.962867 0.69886 0.969616 0.702484 0.951154 0.721963 0.94702 0.714855 0.962867 0.702484 0.951154 0.721768 0.864858 0.721963 0.94702 0.702484 0.951154 0.702607 0.864858 0.721768 0.864858 0.698427 0.946781 0.702607 0.864858 0.702484 0.951154 0.698427 0.946781 0.697251 0.864858 0.702607 0.864858 0.320174 0.361397 0.473351 0.360289 0.473351 0.544341 0.320174 0.361397 0.469252 0.350853 0.473351 0.360289 0.320174 0.361397 0.459741 0.346787 0.469252 0.350853 0.320174 0.361397 0.329705 0.346787 0.459741 0.346787 0.185203 0.543233 0.1756719 0.557842 0.04563599 0.557842 0.185203 0.543233 0.04563599 0.557842 0.03612399 0.553777 0.185203 0.543233 0.03612399 0.553777 0.03202599 0.544341 0.185203 0.543233 0.03202599 0.544341 0.03202599 0.360289 0.185203 0.543233 0.03202599 0.360289 0.03612399 0.350853 0.185203 0.543233 0.03612399 0.350853 0.04563599 0.346787 0.185203 0.543233 0.04563599 0.346787 0.1756719 0.346787 0.185203 0.543233 0.1756719 0.346787 0.185203 0.361397 0.185203 0.543233 0.185203 0.361397 0.320174 0.361397 0.320174 0.361397 0.320174 0.543233 0.185203 0.543233 0.320174 0.361397 0.473351 0.544341 0.320174 0.543233 0.473351 0.544341 0.329705 0.557842 0.320174 0.543233 0.473351 0.544341 0.459741 0.557842 0.329705 0.557842 0.473351 0.544341 0.469252 0.553777 0.459741 0.557842 0.01697695 0.762687 0.006174981 0.750605 0.01064598 0.762687 0.01697695 0.762687 0.501008 0.750605 0.006174981 0.750605 0.01697695 0.762687 0.490291 0.762687 0.501008 0.750605 0.490291 0.762687 0.495576 0.762687 0.501008 0.750605 0.497848 0.722102 0.501602 0.732881 0.490741 0.722102 0.528965 0.947017 0.529241 0.864858 0.524911 0.864858 0.528965 0.947017 0.524911 0.864858 0.524873 0.948012 0.524873 0.948012 0.536079 0.96286 0.528965 0.947017 0.524873 0.948012 0.533191 0.96582 0.536079 0.96286 0.533191 0.96582 0.552073 0.96961 0.536079 0.96286 0.533191 0.96582 0.551248 0.973707 0.552073 0.96961 0.69886 0.969616 0.552073 0.96961 0.551248 0.973707 0.69886 0.969616 0.551248 0.973707 0.699686 0.973714 0.699686 0.973714 0.714855 0.962867 0.69886 0.969616 0.699686 0.973714 0.717744 0.965825 0.714855 0.962867 0.717744 0.965825 0.721963 0.94702 0.714855 0.962867 0.717744 0.965825 0.726052 0.948003 0.721963 0.94702 0.721768 0.864858 0.721963 0.94702 0.726052 0.948003 0.721768 0.864858 0.726052 0.948003 0.726081 0.864858 0.726081 0.864858 0.721963 0.94702 0.721768 0.864858 0.726081 0.864858 0.726052 0.948003 0.721963 0.94702 0.726052 0.948003 0.714855 0.962867 0.721963 0.94702 0.726052 0.948003 0.717744 0.965825 0.714855 0.962867 0.717744 0.965825 0.69886 0.969616 0.714855 0.962867 0.717744 0.965825 0.699686 0.973714 0.69886 0.969616 0.699686 0.973714 0.552073 0.96961 0.69886 0.969616 0.699686 0.973714 0.551248 0.973707 0.552073 0.96961 0.551248 0.973707 0.536079 0.96286 0.552073 0.96961 0.551248 0.973707 0.533191 0.96582 0.536079 0.96286 0.533191 0.96582 0.528965 0.947017 0.536079 0.96286 0.533191 0.96582 0.524873 0.948012 0.528965 0.947017 0.524873 0.948012 0.529241 0.864858 0.528965 0.947017 0.524873 0.948012 0.524911 0.864858 0.529241 0.864858 0.382316 0.860098 0.363056 0.90075 0.363056 0.875092 0.382316 0.860098 0.363056 0.945038 0.363056 0.90075 0.382316 0.860098 0.363056 0.970696 0.363056 0.945038 0.382316 0.860098 0.382316 0.98569 0.363056 0.970696 0.477049 0.572399 0.497848 0.722102 0.490741 0.722102 0.477049 0.572399 0.490741 0.722102 0.470198 0.572399 0.48123 0.722102 0.470198 0.572399 0.490741 0.722102 0.48123 0.722102 0.460687 0.572399 0.470198 0.572399 0.01697695 0.799225 0.01687896 0.850857 0.01064598 0.850857 0.01697695 0.799225 0.01064598 0.850857 0.01064598 0.799225 0.004583954 0.850857 0.01064598 0.799225 0.01064598 0.850857 0.004583954 0.850857 0.004583954 0.799225 0.01064598 0.799225 0.501637 0.850857 0.501637 0.799225 0.495576 0.799225 0.501637 0.850857 0.495576 0.799225 0.495576 0.850857 0.490291 0.799225 0.495576 0.850857 0.495576 0.799225 0.490291 0.799225 0.490193 0.850857 0.495576 0.850857 0.460687 0.572399 0.48123 0.722102 0.490741 0.722102 0.460687 0.572399 0.490741 0.722102 0.470198 0.572399 0.497848 0.722102 0.470198 0.572399 0.490741 0.722102 0.497848 0.722102 0.477049 0.572399 0.470198 0.572399 0.004583954 0.799225 0.004583954 0.850857 0.01064598 0.850857 0.004583954 0.799225 0.01064598 0.850857 0.01064598 0.799225 0.01687896 0.850857 0.01064598 0.799225 0.01064598 0.850857 0.01687896 0.850857 0.01697695 0.799225 0.01064598 0.799225 0.03021895 0.572399 0.009419977 0.722102 0.01652699 0.722102 0.03021895 0.572399 0.01652699 0.722102 0.03706997 0.572399 0.02603799 0.722102 0.03706997 0.572399 0.01652699 0.722102 0.02603799 0.722102 0.04658097 0.572399 0.03706997 0.572399 0.551718 0.836208 0.696122 0.836208 0.695448 0.82987 0.551718 0.836208 0.695448 0.82987 0.552392 0.82987 0.693884 0.82378 0.552392 0.82987 0.695448 0.82987 0.693884 0.82378 0.553956 0.82378 0.552392 0.82987 0.732225 0.799359 0.553956 0.82378 0.693884 0.82378 0.732225 0.799359 0.515615 0.799359 0.553956 0.82378 0.515615 0.799359 0.732225 0.799359 0.733096 0.762687 0.515615 0.799359 0.733096 0.762687 0.514744 0.762687 0.732225 0.799359 0.514744 0.762687 0.733096 0.762687 0.732225 0.799359 0.515615 0.799359 0.514744 0.762687 0.515615 0.799359 0.732225 0.799359 0.693884 0.82378 0.515615 0.799359 0.693884 0.82378 0.553956 0.82378 0.553956 0.82378 0.693884 0.82378 0.695448 0.82987 0.553956 0.82378 0.695448 0.82987 0.552392 0.82987 0.696122 0.836208 0.552392 0.82987 0.695448 0.82987 0.696122 0.836208 0.551718 0.836208 0.552392 0.82987 0.009419977 0.722102 0.03021895 0.572399 0.03706997 0.572399 0.009419977 0.722102 0.03706997 0.572399 0.01652699 0.722102 0.04658097 0.572399 0.01652699 0.722102 0.03706997 0.572399 0.04658097 0.572399 0.02603799 0.722102 0.01652699 0.722102 0.501637 0.799225 0.501637 0.762687 0.495576 0.762687 0.501637 0.799225 0.495576 0.762687 0.495576 0.799225 0.490291 0.762687 0.495576 0.799225 0.495576 0.762687 0.490291 0.762687 0.490291 0.799225 0.495576 0.799225 0.501637 0.799225 0.501637 0.850857 0.495576 0.850857 0.501637 0.799225 0.495576 0.850857 0.495576 0.799225 0.490193 0.850857 0.495576 0.799225 0.495576 0.850857 0.490193 0.850857 0.490291 0.799225 0.495576 0.799225 0.490291 0.762687 0.501008 0.750605 0.495576 0.762687 0.490291 0.762687 0.006174981 0.750605 0.501008 0.750605 0.490291 0.762687 0.01697695 0.762687 0.006174981 0.750605 0.01697695 0.762687 0.01064598 0.762687 0.006174981 0.750605 0.124365 0.98569 0.143625 0.945038 0.143625 0.970696 0.124365 0.98569 0.143625 0.90075 0.143625 0.945038 0.124365 0.98569 0.143625 0.875092 0.143625 0.90075 0.124365 0.98569 0.124365 0.860098 0.143625 0.875092 0.501637 0.762687 0.501637 0.799225 0.495576 0.799225 0.501637 0.762687 0.495576 0.799225 0.495576 0.762687 0.490291 0.799225 0.495576 0.762687 0.495576 0.799225 0.490291 0.799225 0.490291 0.762687 0.495576 0.762687 0.004583954 0.762687 0.004583954 0.799225 0.01064598 0.799225 0.004583954 0.762687 0.01064598 0.799225 0.01064598 0.762687 0.01697695 0.799225 0.01064598 0.762687 0.01064598 0.799225 0.01697695 0.799225 0.01697695 0.762687 0.01064598 0.762687 0.01697695 0.762687 0.01697695 0.799225 0.01064598 0.799225 0.01697695 0.762687 0.01064598 0.799225 0.01064598 0.762687 0.004583954 0.799225 0.01064598 0.762687 0.01064598 0.799225 0.004583954 0.799225 0.004583954 0.762687 0.01064598 0.762687</float_array>
          <technique_common>
            <accessor source="#medkit_large_reference-mesh-map-0-array" count="924" stride="2">
              <param name="S" type="float"/>
              <param name="T" type="float"/>
            </accessor>
          </technique_common>
        </source>
        <vertices id="medkit_large_reference-mesh-vertices">
          <input semantic="POSITION" source="#medkit_large_reference-mesh-positions"/>
        </vertices>
        <triangles material="medkit-material" count="308">
          <input semantic="VERTEX" source="#medkit_large_reference-mesh-vertices" offset="0"/>
          <input semantic="NORMAL" source="#medkit_large_reference-mesh-normals" offset="1"/>
          <input semantic="TEXCOORD" source="#medkit_large_reference-mesh-map-0" offset="2" set="0"/>
          <p>0 0 0 1 1 1 2 2 2 3 3 3 4 4 4 5 5 5 3 3 6 6 6 7 4 4 8 7 7 9 5 8 10 8 9 11 8 9 12 5 8 13 4 10 14 8 9 15 4 10 16 9 11 17 8 9 18 9 11 19 10 12 20 10 12 21 11 13 22 8 9 23 10 12 24 12 14 25 11 13 26 10 15 27 9 16 28 13 17 29 10 15 30 13 17 31 14 18 32 7 19 33 8 20 34 15 21 35 16 22 36 17 23 37 18 24 38 16 22 39 19 25 40 17 23 41 20 26 42 21 27 43 22 28 44 20 26 45 23 29 46 21 27 47 24 30 48 25 31 49 26 32 50 24 30 51 27 33 52 25 31 53 26 34 54 28 35 55 29 36 56 28 35 57 26 34 58 25 37 59 28 35 60 25 37 61 23 38 62 23 38 63 30 39 64 28 35 65 23 38 66 31 40 67 30 39 68 31 40 69 32 41 70 30 39 71 31 42 72 23 43 73 20 44 74 31 42 75 20 44 76 33 45 77 34 46 78 35 47 79 36 48 80 34 46 81 37 49 82 35 47 83 38 50 84 39 51 85 40 52 86 38 50 87 41 53 88 39 51 89 41 54 90 42 55 91 43 56 92 41 54 93 38 57 94 42 55 95 37 58 96 44 59 97 45 60 98 37 58 99 34 61 100 44 59 101 46 62 102 47 63 103 48 64 104 46 62 105 49 65 106 47 63 107 46 62 108 48 64 109 50 66 110 49 65 111 51 67 112 47 63 113 0 0 114 52 68 115 1 1 116 0 0 117 53 69 118 52 68 119 15 21 120 30 70 121 54 71 122 15 21 123 8 20 124 30 70 125 19 72 126 16 73 127 28 74 128 19 72 129 28 74 130 11 75 131 16 73 132 29 76 133 28 74 134 53 69 135 55 77 136 52 68 137 56 78 138 57 79 139 58 80 140 56 78 141 59 81 142 57 79 143 60 82 144 61 83 145 62 84 146 60 82 147 63 85 148 61 83 149 64 86 150 15 87 151 54 88 152 64 86 153 65 89 154 15 87 155 52 90 156 28 91 157 30 92 158 52 90 159 48 93 160 28 91 161 1 94 162 30 95 163 8 96 164 1 94 165 52 97 166 30 95 167 47 98 168 8 99 169 11 100 170 47 98 171 1 101 172 8 99 173 11 102 174 48 103 175 47 104 176 11 102 177 28 105 178 48 103 179 66 106 180 67 107 181 68 108 182 66 106 183 69 109 184 67 107 185 70 110 186 22 111 187 21 112 188 70 110 189 71 113 190 22 111 191 13 114 192 69 115 193 66 116 194 13 114 195 9 117 196 69 115 197 9 118 198 67 119 199 69 120 200 9 118 201 4 121 202 67 119 203 4 122 204 68 123 205 67 124 206 4 122 207 6 125 208 68 123 209 23 126 210 70 127 211 21 128 212 23 126 213 25 129 214 70 127 215 25 130 216 71 131 217 70 132 218 25 130 219 27 133 220 71 131 221 36 134 222 72 135 223 73 136 224 35 137 225 72 135 226 36 134 227 35 137 228 74 138 229 72 135 230 74 138 231 35 137 232 40 139 233 74 138 234 40 139 235 75 140 236 39 141 237 75 140 238 40 139 239 39 141 240 73 136 241 75 140 242 36 134 243 73 136 244 39 141 245 75 142 246 76 143 247 77 144 248 75 142 249 73 145 250 76 143 251 72 146 252 78 147 253 79 148 254 72 146 255 74 149 256 78 147 257 80 150 258 61 150 259 81 150 260 80 150 261 62 150 262 61 150 263 82 151 264 62 152 265 80 153 266 82 151 267 60 154 268 62 152 269 83 155 270 84 156 271 85 157 272 83 155 273 86 158 274 84 156 275 86 159 276 87 160 277 84 161 278 86 159 279 88 162 280 87 160 281 89 163 282 80 164 283 81 165 284 89 163 285 82 166 286 80 164 287 56 167 288 90 168 289 91 169 290 56 167 291 58 170 292 90 168 293 92 171 294 58 171 295 57 171 296 92 171 297 90 171 298 58 171 299 89 172 300 61 173 301 63 174 302 89 172 303 81 175 304 61 173 305 85 150 306 87 150 307 93 150 308 85 150 309 84 150 310 87 150 311 83 176 312 93 177 313 94 178 314 83 176 315 85 179 316 93 177 317 95 180 318 57 181 319 59 182 320 95 180 321 92 183 322 57 181 323 88 184 324 93 185 325 87 186 326 88 184 327 94 187 328 93 185 329 77 188 330 89 189 331 63 190 332 77 188 333 76 191 334 89 189 335 77 188 336 88 192 337 86 150 338 79 193 339 78 191 340 83 194 341 79 193 342 83 194 343 94 195 344 79 193 345 94 195 346 95 196 347 88 192 348 95 196 349 94 195 350 88 192 351 91 197 352 95 196 353 77 188 354 91 197 355 88 192 356 77 188 357 56 198 358 91 197 359 77 188 360 63 190 361 56 198 362 63 190 363 59 199 364 56 198 365 63 190 366 60 150 367 59 199 368 79 193 369 60 150 370 82 150 371 79 193 372 59 199 373 60 150 374 79 193 375 95 196 376 59 199 377 54 71 378 30 70 379 32 200 380 95 201 381 90 202 382 92 203 383 95 201 384 91 204 385 90 202 386 96 205 387 97 206 388 98 207 389 96 208 390 99 209 391 97 210 392 100 211 393 98 212 394 101 213 395 100 211 396 96 214 397 98 212 398 102 215 399 101 216 400 103 217 401 102 218 402 100 219 403 101 220 404 104 221 405 105 222 406 106 223 407 104 224 408 107 225 409 105 226 410 105 226 411 107 225 412 108 227 413 105 226 414 108 227 415 109 228 416 110 229 417 109 228 418 108 227 419 110 229 420 111 230 421 109 228 422 110 229 423 112 231 424 111 230 425 110 229 426 113 232 427 112 231 428 112 231 429 113 232 430 114 233 431 112 231 432 114 233 433 115 234 434 116 235 435 115 234 436 114 233 437 116 235 438 117 236 439 115 234 440 116 235 441 118 237 442 117 236 443 116 238 444 119 239 445 118 240 446 120 241 447 100 242 448 102 243 449 120 244 450 121 245 451 100 246 452 122 247 453 123 248 454 124 249 455 122 247 456 124 249 457 125 250 458 121 251 459 122 247 460 125 250 461 121 252 462 120 253 463 122 254 464 121 251 465 125 250 466 126 255 467 125 250 468 127 256 469 126 255 470 121 251 471 96 257 472 100 258 473 121 251 474 128 259 475 96 257 476 126 255 477 128 259 478 121 251 479 126 255 480 129 260 481 128 259 482 126 261 483 130 262 484 129 263 485 126 261 486 131 264 487 130 262 488 128 265 489 99 266 490 96 267 491 128 268 492 129 269 493 99 270 494 103 271 495 132 272 496 133 273 497 103 274 498 101 275 499 132 276 500 134 277 501 135 278 502 136 279 503 134 277 504 136 279 505 133 280 506 134 281 507 133 282 508 132 283 509 134 281 510 132 283 511 137 284 512 101 285 513 137 284 514 132 283 515 101 285 516 98 286 517 137 284 518 137 284 519 138 287 520 134 281 521 137 284 522 139 288 523 138 287 524 137 284 525 140 289 526 139 288 527 137 284 528 141 290 529 140 289 530 137 284 531 142 291 532 141 290 533 137 292 534 143 293 535 142 294 536 98 295 537 143 296 538 137 297 539 98 298 540 97 299 541 143 300 542 71 301 543 18 302 544 17 303 545 71 301 546 144 304 547 18 302 548 71 301 549 24 305 550 144 304 551 71 301 552 27 306 553 24 305 554 68 307 555 6 308 556 3 309 557 68 307 558 3 309 559 145 310 560 68 307 561 145 310 562 65 311 563 68 307 564 65 311 565 64 312 566 68 307 567 64 312 568 146 313 569 68 307 570 146 313 571 33 314 572 68 307 573 33 314 574 20 315 575 68 307 576 20 315 577 22 316 578 68 307 579 22 316 580 71 301 581 71 301 582 66 317 583 68 307 584 71 301 585 17 303 586 66 317 587 17 303 588 13 318 589 66 317 590 17 303 591 14 319 592 13 318 593 17 303 594 147 320 595 14 319 596 45 321 597 52 322 598 55 323 599 45 321 600 48 324 601 52 322 602 45 321 603 44 325 604 48 324 605 44 325 606 50 326 607 48 324 608 19 72 609 11 75 610 12 327 611 123 328 612 122 329 613 119 330 614 123 331 615 119 332 616 116 333 617 116 333 618 124 334 619 123 331 620 116 333 621 114 335 622 124 334 623 114 335 624 125 336 625 124 334 626 114 335 627 113 337 628 125 336 629 127 338 630 125 336 631 113 337 632 127 338 633 113 337 634 110 339 635 110 339 636 126 340 637 127 338 638 110 339 639 108 341 640 126 340 641 108 341 642 131 342 643 126 340 644 108 341 645 107 343 646 131 342 647 130 344 648 131 342 649 107 343 650 130 345 651 107 346 652 104 347 653 106 348 654 141 349 655 142 350 656 106 351 657 105 352 658 141 353 659 105 352 660 140 354 661 141 353 662 105 352 663 109 355 664 140 354 665 109 355 666 139 356 667 140 354 668 109 355 669 111 357 670 139 356 671 111 357 672 138 358 673 139 356 674 111 357 675 112 359 676 138 358 677 112 359 678 134 360 679 138 358 680 112 359 681 115 361 682 134 360 683 115 361 684 135 362 685 134 360 686 115 361 687 117 363 688 135 362 689 117 363 690 136 364 691 135 362 692 117 365 693 118 366 694 136 367 695 73 368 696 89 369 697 76 370 698 73 368 699 82 371 700 89 369 701 73 368 702 79 372 703 82 371 704 73 368 705 72 373 706 79 372 707 17 374 708 19 375 709 12 376 710 17 374 711 12 376 712 147 377 713 10 378 714 147 377 715 12 376 716 10 378 717 14 379 718 147 377 719 38 380 720 40 381 721 148 382 722 38 380 723 148 382 724 149 383 725 150 384 726 149 383 727 148 382 728 150 384 729 151 385 730 149 383 731 152 386 732 153 387 733 154 388 734 152 386 735 154 388 736 155 389 737 34 390 738 155 389 739 154 388 740 34 390 741 36 391 742 155 389 743 24 392 744 26 393 745 29 394 746 24 392 747 29 394 748 144 395 749 16 396 750 144 395 751 29 394 752 16 396 753 18 397 754 144 395 755 156 398 756 157 399 757 158 400 758 156 398 759 158 400 760 159 401 761 35 402 762 159 401 763 158 400 764 35 402 765 37 403 766 159 401 767 64 404 768 54 405 769 32 406 770 64 404 771 32 406 772 146 407 773 31 408 774 146 407 775 32 406 776 31 408 777 33 409 778 146 407 779 36 410 780 39 411 781 160 412 782 36 410 783 160 412 784 155 413 785 161 414 786 155 413 787 160 412 788 161 414 789 152 415 790 155 413 791 162 416 792 152 415 793 161 414 794 162 416 795 153 417 796 152 415 797 153 417 798 162 416 799 49 418 800 153 417 801 49 418 802 46 419 803 151 420 804 53 421 805 0 422 806 151 420 807 156 423 808 53 421 809 156 423 810 151 420 811 150 424 812 156 423 813 150 424 814 157 425 815 157 425 816 150 424 817 148 426 818 157 425 819 148 426 820 158 427 821 40 428 822 158 427 823 148 426 824 40 428 825 35 429 826 158 427 827 15 430 828 65 431 829 145 432 830 15 430 831 145 432 832 7 433 833 3 434 834 7 433 835 145 432 836 3 434 837 5 435 838 7 433 839 153 436 840 46 437 841 50 438 842 153 436 843 50 438 844 154 439 845 44 440 846 154 439 847 50 438 848 44 440 849 34 441 850 154 439 851 162 442 852 161 443 853 160 444 854 162 442 855 160 444 856 163 445 857 39 446 858 163 445 859 160 444 860 39 446 861 41 447 862 163 445 863 43 448 864 47 449 865 51 450 866 43 448 867 1 451 868 47 449 869 43 448 870 42 452 871 1 451 872 42 452 873 2 453 874 1 451 875 74 454 876 83 455 877 78 456 878 74 454 879 86 457 880 83 455 881 74 454 882 77 458 883 86 457 884 74 454 885 75 459 886 77 458 887 49 460 888 162 461 889 163 462 890 49 460 891 163 462 892 51 463 893 41 464 894 51 463 895 163 462 896 41 464 897 43 465 898 51 463 899 53 466 900 156 467 901 159 468 902 53 466 903 159 468 904 55 469 905 37 470 906 55 469 907 159 468 908 37 470 909 45 471 910 55 469 911 42 472 912 38 473 913 149 474 914 42 472 915 149 474 916 2 475 917 151 476 918 2 475 919 149 474 920 151 476 921 0 477 922 2 475 923</p>
        </triangles>
      </mesh>
    </geometry>
  </library_geometries>
  <library_controllers>
    <controller id="medkit_large_qc_skeleton_medkit_large_reference-skin" name="medkit_large.qc_skeleton">
      <skin source="#medkit_large_reference-mesh">
        <bind_shape_matrix>1 0 0 0 0 1 0 0 0 0 1 0 0 0 0 1</bind_shape_matrix>
        <source id="medkit_large_qc_skeleton_medkit_large_reference-skin-joints">
          <Name_array id="medkit_large_qc_skeleton_medkit_large_reference-skin-joints-array" count="3">Scene_Root item cube</Name_array>
          <technique_common>
            <accessor source="#medkit_large_qc_skeleton_medkit_large_reference-skin-joints-array" count="3" stride="1">
              <param name="JOINT" type="name"/>
            </accessor>
          </technique_common>
        </source>
        <source id="medkit_large_qc_skeleton_medkit_large_reference-skin-bind_poses">
          <float_array id="medkit_large_qc_skeleton_medkit_large_reference-skin-bind_poses-array" count="48">1 0 0 0 0 2.38419e-7 1 0 0 -1 2.02816e-7 0 0 0 0 1 1 0 0 0 0 2.38419e-7 1 0 0 -1 2.02816e-7 0 0 0 0 1 1 0 0 0 0 2.38409e-7 1 -14.63639 0 -1 2.02807e-7 0 0 0 0 1</float_array>
          <technique_common>
            <accessor source="#medkit_large_qc_skeleton_medkit_large_reference-skin-bind_poses-array" count="3" stride="16">
              <param name="TRANSFORM" type="float4x4"/>
            </accessor>
          </technique_common>
        </source>
        <source id="medkit_large_qc_skeleton_medkit_large_reference-skin-weights">
          <float_array id="medkit_large_qc_skeleton_medkit_large_reference-skin-weights-array" count="164">1 1 1 1 1 1 1 1 1 1 1 1 1 1 1 1 1 1 1 1 1 1 1 1 1 1 1 1 1 1 1 1 1 1 1 1 1 1 1 1 1 1 1 1 1 1 1 1 1 1 1 1 1 1 1 1 1 1 1 1 1 1 1 1 1 1 1 1 1 1 1 1 1 1 1 1 1 1 1 1 1 1 1 1 1 1 1 1 1 1 1 1 1 1 1 1 1 1 1 1 1 1 1 1 1 1 1 1 1 1 1 1 1 1 1 1 1 1 1 1 1 1 1 1 1 1 1 1 1 1 1 1 1 1 1 1 1 1 1 1 1 1 1 1 1 1 1 1 1 1 1 1 1 1 1 1 1 1 1 1 1 1 1 1</float_array>
          <technique_common>
            <accessor source="#medkit_large_qc_skeleton_medkit_large_reference-skin-weights-array" count="164" stride="1">
              <param name="WEIGHT" type="float"/>
            </accessor>
          </technique_common>
        </source>
        <joints>
          <input semantic="JOINT" source="#medkit_large_qc_skeleton_medkit_large_reference-skin-joints"/>
          <input semantic="INV_BIND_MATRIX" source="#medkit_large_qc_skeleton_medkit_large_reference-skin-bind_poses"/>
        </joints>
        <vertex_weights count="164">
          <input semantic="JOINT" source="#medkit_large_qc_skeleton_medkit_large_reference-skin-joints" offset="0"/>
          <input semantic="WEIGHT" source="#medkit_large_qc_skeleton_medkit_large_reference-skin-weights" offset="1"/>
          <vcount>1 1 1 1 1 1 1 1 1 1 1 1 1 1 1 1 1 1 1 1 1 1 1 1 1 1 1 1 1 1 1 1 1 1 1 1 1 1 1 1 1 1 1 1 1 1 1 1 1 1 1 1 1 1 1 1 1 1 1 1 1 1 1 1 1 1 1 1 1 1 1 1 1 1 1 1 1 1 1 1 1 1 1 1 1 1 1 1 1 1 1 1 1 1 1 1 1 1 1 1 1 1 1 1 1 1 1 1 1 1 1 1 1 1 1 1 1 1 1 1 1 1 1 1 1 1 1 1 1 1 1 1 1 1 1 1 1 1 1 1 1 1 1 1 1 1 1 1 1 1 1 1 1 1 1 1 1 1 1 1 1 1 1 1 </vcount>
          <v>2 0 2 1 2 2 2 3 2 4 2 5 2 6 2 7 2 8 2 9 2 10 2 11 2 12 2 13 2 14 2 15 2 16 2 17 2 18 2 19 2 20 2 21 2 22 2 23 2 24 2 25 2 26 2 27 2 28 2 29 2 30 2 31 2 32 2 33 2 34 2 35 2 36 2 37 2 38 2 39 2 40 2 41 2 42 2 43 2 44 2 45 2 46 2 47 2 48 2 49 2 50 2 51 2 52 2 53 2 54 2 55 2 56 2 57 2 58 2 59 2 60 2 61 2 62 2 63 2 64 2 65 2 66 2 67 2 68 2 69 2 70 2 71 2 72 2 73 2 74 2 75 2 76 2 77 2 78 2 79 2 80 2 81 2 82 2 83 2 84 2 85 2 86 2 87 2 88 2 89 2 90 2 91 2 92 2 93 2 94 2 95 2 96 2 97 2 98 2 99 2 100 2 101 2 102 2 103 2 104 2 105 2 106 2 107 2 108 2 109 2 110 2 111 2 112 2 113 2 114 2 115 2 116 2 117 2 118 2 119 2 120 2 121 2 122 2 123 2 124 2 125 2 126 2 127 2 128 2 129 2 130 2 131 2 132 2 133 2 134 2 135 2 136 2 137 2 138 2 139 2 140 2 141 2 142 2 143 2 144 2 145 2 146 2 147 2 148 2 149 2 150 2 151 2 152 2 153 2 154 2 155 2 156 2 157 2 158 2 159 2 160 2 161 2 162 2 163</v>
        </vertex_weights>
      </skin>
    </controller>
  </library_controllers>
  <library_animations>
    <animation id="action_container-medkit_large_qc_skeleton" name="medkit_large.qc_skeleton">
      <animation id="medkit_large_qc_skeleton_idle_cube_pose_matrix" name="medkit_large.qc_skeleton">
        <source id="medkit_large_qc_skeleton_idle_cube_pose_matrix-input">
          <float_array id="medkit_large_qc_skeleton_idle_cube_pose_matrix-input-array" count="30">0 0.04166662 0.08333331 0.125 0.1666666 0.2083333 0.25 0.2916666 0.3333333 0.375 0.4166666 0.4583333 0.5 0.5416667 0.5833333 0.625 0.6666667 0.7083333 0.75 0.7916667 0.8333333 0.875 0.9166667 0.9583333 1 1.041667 1.083333 1.125 1.166667 1.208333</float_array>
          <technique_common>
            <accessor source="#medkit_large_qc_skeleton_idle_cube_pose_matrix-input-array" count="30" stride="1">
              <param name="TIME" type="float"/>
            </accessor>
          </technique_common>
        </source>
        <source id="medkit_large_qc_skeleton_idle_cube_pose_matrix-output">
          <float_array id="medkit_large_qc_skeleton_idle_cube_pose_matrix-output-array" count="480">1 0 0 0 0 1 0 14.63639 0 0 1 4.54747e-13 0 0 0 1 0.9749387 8.34831e-16 0.2224737 0 0 1 0 14.63639 -0.2224737 0 0.9749387 4.54747e-13 0 0 0 1 0.9009688 -2.01548e-15 0.4338838 0 -1.42109e-14 1 0 14.63639 -0.4338838 0 0.9009688 4.54747e-13 0 0 0 1 0.7818617 2.81529e-16 0.6234519 0 0 1 -2.84217e-14 14.63639 -0.6234519 0 0.7818617 4.54747e-13 0 0 0 1 0.6234897 2.69998e-15 0.7818316 0 0 1 0 14.63639 -0.7818316 0 0.6234897 4.54747e-13 0 0 0 1 0.4339274 -7.14029e-16 0.9009479 0 0 1 0 14.63639 -0.9009479 0 0.4339274 4.54747e-13 0 0 0 1 0.2225208 2.85647e-14 0.974928 0 0 1 -2.84217e-14 14.63639 -0.974928 0 0.2225208 4.54747e-13 0 0 0 1 3.13916e-7 0 1 0 9.32232e-12 1 0 14.63639 -1 9.32232e-12 3.13916e-7 4.54747e-13 0 0 0 1 -0.2225207 -1.23992e-6 0.974928 0 -1.39706e-7 1 1.23992e-6 14.63639 -0.974928 1.39706e-7 -0.2225207 4.54747e-13 0 0 0 1 -0.4338841 -1.19349e-6 0.9009687 0 -2.72407e-7 1 1.19349e-6 14.63639 -0.9009687 2.72407e-7 -0.4338841 4.54747e-13 0 0 0 1 -0.6234898 -1.11869e-6 0.7818315 0 -3.91447e-7 1 1.11869e-6 14.63639 -0.7818315 3.91447e-7 -0.6234898 4.54747e-13 0 0 0 1 -0.7818318 2.36386e-7 0.6234894 0 4.9086e-7 1 2.36386e-7 14.63639 -0.6234894 4.9086e-7 -0.7818318 4.54747e-13 0 0 0 1 -0.9009896 -9.00212e-7 0.4338407 0 -5.65671e-7 1 9.00213e-7 14.63639 -0.4338407 5.65671e-7 -0.9009896 4.54747e-13 0 0 0 1 -0.974928 4.88127e-7 0.2225205 0 6.12092e-7 1 4.88127e-7 14.63639 -0.2225205 6.12092e-7 -0.974928 4.54747e-13 0 0 0 1 -1 -6.27833e-7 8.74224e-8 0 -6.27833e-7 1 6.27833e-7 14.63639 -8.74228e-8 6.27833e-7 -1 4.54747e-13 0 0 0 1 -0.9781569 -4.97326e-7 -0.2078682 0 -6.14119e-7 1 4.97326e-7 14.63639 0.2078682 6.14119e-7 -0.9781569 4.54747e-13 0 0 0 1 -0.9135625 8.83171e-7 -0.4066982 0 5.73565e-7 1 8.83171e-7 14.63639 0.4066982 5.73565e-7 -0.9135625 4.54747e-13 0 0 0 1 -0.8090396 9.96844e-7 -0.5877541 0 5.07942e-7 1 9.96844e-7 14.63639 0.5877541 5.07942e-7 -0.8090396 4.54747e-13 0 0 0 1 -0.6691567 -1.61277e-7 -0.7431213 0 -4.20119e-7 1 1.61277e-7 14.63639 0.7431213 4.20119e-7 -0.6691567 4.54747e-13 0 0 0 1 -0.5000281 -8.41239e-8 -0.8660092 0 -3.13934e-7 1 8.41238e-8 14.63639 0.8660092 3.13934e-7 -0.5000281 4.54747e-13 0 0 0 1 -0.3090446 -3.0734e-8 -0.9510475 0 -1.94028e-7 1 3.0734e-8 14.63639 0.9510475 1.94028e-7 -0.3090446 4.54747e-13 0 0 0 1 -0.1045539 1.25222e-6 -0.9945192 0 6.56423e-8 1 1.25222e-6 14.63639 0.9945192 6.56424e-8 -0.1045539 4.54747e-13 0 0 0 1 0.1045539 5.49945e-14 -0.9945192 0 -2.84217e-14 1 5.68434e-14 14.63639 0.9945192 0 0.1045539 4.54747e-13 0 0 0 1 0.3090446 -5.18915e-15 -0.9510475 0 0 1 0 14.63639 0.9510475 0 0.3090446 4.54747e-13 0 0 0 1 0.5000281 2.89761e-15 -0.8660091 0 0 1 0 14.63639 0.8660091 0 0.5000281 4.54747e-13 0 0 0 1 0.6691566 1.03556e-14 -0.7431214 0 0 1 1.42109e-14 14.63639 0.7431214 0 0.6691566 4.54747e-13 0 0 0 1 0.8090397 -7.6116e-15 -0.5877541 0 0 1 0 14.63639 0.5877541 0 0.8090397 4.54747e-13 0 0 0 1 0.9135625 -3.20332e-15 -0.4066983 0 0 1 0 14.63639 0.4066983 0 0.9135625 4.54747e-13 0 0 0 1 0.9781569 1.62016e-15 -0.2078682 0 0 1 0 14.63639 0.2078682 0 0.9781569 4.54747e-13 0 0 0 1 1 0 0 0 0 1 0 14.63639 0 0 1 4.54747e-13 0 0 0 1</float_array>
          <technique_common>
            <accessor source="#medkit_large_qc_skeleton_idle_cube_pose_matrix-output-array" count="30" stride="16">
              <param name="TRANSFORM" type="float4x4"/>
            </accessor>
          </technique_common>
        </source>
        <source id="medkit_large_qc_skeleton_idle_cube_pose_matrix-interpolation">
          <Name_array id="medkit_large_qc_skeleton_idle_cube_pose_matrix-interpolation-array" count="30">LINEAR LINEAR LINEAR LINEAR LINEAR LINEAR LINEAR LINEAR LINEAR LINEAR LINEAR LINEAR LINEAR LINEAR LINEAR LINEAR LINEAR LINEAR LINEAR LINEAR LINEAR LINEAR LINEAR LINEAR LINEAR LINEAR LINEAR LINEAR LINEAR LINEAR</Name_array>
          <technique_common>
            <accessor source="#medkit_large_qc_skeleton_idle_cube_pose_matrix-interpolation-array" count="30" stride="1">
              <param name="INTERPOLATION" type="name"/>
            </accessor>
          </technique_common>
        </source>
        <sampler id="medkit_large_qc_skeleton_idle_cube_pose_matrix-sampler">
          <input semantic="INPUT" source="#medkit_large_qc_skeleton_idle_cube_pose_matrix-input"/>
          <input semantic="OUTPUT" source="#medkit_large_qc_skeleton_idle_cube_pose_matrix-output"/>
          <input semantic="INTERPOLATION" source="#medkit_large_qc_skeleton_idle_cube_pose_matrix-interpolation"/>
        </sampler>
        <channel source="#medkit_large_qc_skeleton_idle_cube_pose_matrix-sampler" target="medkit_large_qc_skeleton_cube/transform"/>
      </animation>
    </animation>
  </library_animations>
  <library_visual_scenes>
    <visual_scene id="medkit_small_bday_qc" name="medkit_small_bday.qc">
      <node id="medkit_large_qc_skeleton" name="medkit_large.qc_skeleton" type="NODE">
        <matrix sid="transform">1 0 0 0 0 1 0 0 0 0 1 0 0 0 0 1</matrix>
        <node id="medkit_large_qc_skeleton_Scene_Root" name="Scene_Root" sid="Scene_Root" type="JOINT">
          <matrix sid="transform">1 0 0 0 0 2.02816e-7 -1 0 0 1 2.38419e-7 0 0 0 0 1</matrix>
          <node id="medkit_large_qc_skeleton_item" name="item" sid="item" type="JOINT">
            <matrix sid="transform">1 0 0 0 0 1 0 0 0 0 1 0 0 0 0 1</matrix>
            <node id="medkit_large_qc_skeleton_cube" name="cube" sid="cube" type="JOINT">
              <matrix sid="transform">1 0 0 0 0 1 -9.32232e-12 14.63639 0 9.32232e-12 1 2.27374e-13 0 0 0 1</matrix>
              <extra>
                <technique profile="blender">
                  <layer sid="layer" type="string">0</layer>
                  <tip_x sid="tip_x" type="float">0</tip_x>
                  <tip_y sid="tip_y" type="float">0</tip_y>
                  <tip_z sid="tip_z" type="float">0.02439403</tip_z>
                </technique>
              </extra>
            </node>
            <extra>
              <technique profile="blender">
                <layer sid="layer" type="string">0</layer>
                <tip_x sid="tip_x" type="float">0</tip_x>
                <tip_y sid="tip_y" type="float">0</tip_y>
                <tip_z sid="tip_z" type="float">0.02439397</tip_z>
              </technique>
            </extra>
          </node>
          <extra>
            <technique profile="blender">
              <layer sid="layer" type="string">0</layer>
              <tip_x sid="tip_x" type="float">0</tip_x>
              <tip_y sid="tip_y" type="float">0</tip_y>
              <tip_z sid="tip_z" type="float">0.02439397</tip_z>
            </technique>
          </extra>
        </node>
        <node id="medkit_large_reference" name="medkit_large_reference" type="NODE">
          <matrix sid="transform">1 0 0 0 0 1 0 0 0 0 1 0 0 0 0 1</matrix>
          <instance_controller url="#medkit_large_qc_skeleton_medkit_large_reference-skin">
            <skeleton>#medkit_large_qc_skeleton_Scene_Root</skeleton>
            <bind_material>
              <technique_common>
                <instance_material symbol="medkit-material" target="#medkit-material">
                  <bind_vertex_input semantic="UVMap" input_semantic="TEXCOORD" input_set="0"/>
                </instance_material>
              </technique_common>
            </bind_material>
          </instance_controller>
        </node>
      </node>
    </visual_scene>
  </library_visual_scenes>
  <scene>
    <instance_visual_scene url="#medkit_small_bday_qc"/>
  </scene>
</COLLADA>