<?xml version="1.0" encoding="utf-8"?>
<COLLADA xmlns="http://www.collada.org/2005/11/COLLADASchema" version="1.4.1" xmlns:xsi="http://www.w3.org/2001/XMLSchema-instance">
  <asset>
    <contributor>
      <author>Blender User</author>
      <authoring_tool>Blender 2.90.1 commit date:2020-09-23, commit time:06:43, hash:3e85bb34d0d7</authoring_tool>
    </contributor>
    <created>2023-10-29T00:10:41</created>
    <modified>2023-10-29T00:10:41</modified>
    <unit name="meter" meter="1"/>
    <up_axis>Z_UP</up_axis>
  </asset>
  <library_effects>
    <effect id="medkit_birthday-effect">
      <profile_COMMON>
        <newparam sid="medkit_birthday_png-surface">
          <surface type="2D">
            <init_from>medkit_birthday_png</init_from>
          </surface>
        </newparam>
        <newparam sid="medkit_birthday_png-sampler">
          <sampler2D>
            <source>medkit_birthday_png-surface</source>
          </sampler2D>
        </newparam>
        <technique sid="common">
          <lambert>
            <emission>
              <color sid="emission">0 0 0 1</color>
            </emission>
            <diffuse>
              <texture texture="medkit_birthday_png-sampler" texcoord="UVMap"/>
            </diffuse>
            <index_of_refraction>
              <float sid="ior">1.45</float>
            </index_of_refraction>
          </lambert>
        </technique>
      </profile_COMMON>
    </effect>
  </library_effects>
  <library_images>
    <image id="medkit_birthday_png" name="medkit_birthday_png">
      <init_from>medkit_birthday.png</init_from>
    </image>
  </library_images>
  <library_materials>
    <material id="medkit_birthday-material" name="medkit_birthday">
      <instance_effect url="#medkit_birthday-effect"/>
    </material>
  </library_materials>
  <library_geometries>
    <geometry id="medkit_small_bday-mesh" name="medkit_small_bday">
      <mesh>
        <source id="medkit_small_bday-mesh-positions">
          <float_array id="medkit_small_bday-mesh-positions-array" count="642">1.590782 18.78068 -3.777722 1.286613 18.78068 -3.859224 1.205532 16.23754 -2.948287 1.809711 18.28026 -4.594786 1.809711 18.28026 -4.594786 1.590782 18.78068 -3.777722 1.590782 18.78068 -3.777722 1.809711 18.28026 -4.594786 1.809711 18.28026 -4.594786 1.590782 18.78068 -3.777722 1.505543 18.28026 -4.676288 1.809711 18.28026 -4.594786 1.505543 18.28026 -4.676288 1.505543 18.28026 -4.676288 1.809711 18.28026 -4.594786 1.809711 18.28026 -4.594786 1.505543 18.28026 -4.676288 1.286613 18.78068 -3.859224 1.505543 18.28026 -4.676288 1.505543 18.28026 -4.676288 1.286613 18.78068 -3.859224 1.286613 18.78068 -3.859224 1.505543 18.28026 -4.676288 1.286613 18.78068 -3.859224 1.590782 18.78068 -3.777722 1.590782 18.78068 -3.777722 1.286613 18.78068 -3.859224 1.286613 18.78068 -3.859224 1.590782 18.78068 -3.777722 1.161942 19.51873 -3.393941 1.46611 19.51873 -3.31244 1.513115 20.89831 -3.487872 1.494667 21.74539 -4.635696 1.208946 20.89831 -3.569374 1.798836 21.74539 -4.554196 1.738243 18.23316 -5.544727 2.042412 18.23316 -5.463225 2.328129 19.08025 -6.529549 2.02396 19.08025 -6.611049 2.070969 20.45983 -6.786487 2.375137 20.45983 -6.704985 1.85173 21.56376 -5.968267 2.155895 21.56376 -5.886765 3.687969 12.25264 -1.911797 3.734585 3.469668 -1.050292 2.908722 3.469668 -1.461907 4.735069 12.25264 -1.389909 2.592438 12.25264 -3.16102 2.965187 3.469668 -2.382932 2.044678 3.469668 -2.447171 3.759552 12.25264 -3.079569 1.102238 12.25264 -3.895908 1.744389 3.469668 -3.319695 0.869354 3.469677 -3.026779 2.211685 12.25264 -4.267292 -0.555752 12.25264 -4.004575 0.258018 3.469677 -3.717963 -0.438309 3.469677 -3.112491 0.327126 12.25264 -4.772259 -2.129253 12.25264 -3.470524 -1.26762 3.469668 -3.517113 -1.679241 3.469668 -2.691253 -1.607246 12.25264 -4.517598 -3.378471 12.25264 -2.374983 -2.600376 3.469668 -2.747743 -2.664635 3.469668 -1.827231 -3.297024 12.25264 -3.542106 -4.616138 12.25264 -1.105489 -3.537159 3.469668 -1.526938 -3.555172 3.469668 -0.735219 -4.484756 12.25264 -1.99424 -4.736523 12.25264 0.731486 -3.935432 3.469668 -0.04056698 -3.649082 3.469677 0.697772 -4.989723 12.25264 -0.10967 -4.144791 12.25264 2.474702 -3.734566 3.469677 1.485075 -3.18734 3.469677 2.057658 -4.735065 12.25264 1.824692 -2.930851 12.25264 3.858804 -2.965046 3.469677 2.817747 -2.240486 3.469677 3.137349 -3.759418 12.25264 3.514384 -1.102081 12.25264 4.330724 -1.744232 3.469677 3.754513 -0.869205 3.469677 3.461601 -2.211533 12.25264 4.702113 0.555897 12.25264 4.439392 -0.257858 3.469677 4.152782 0.438465 3.469677 3.547307 -0.326965 12.25264 5.207083 2.129272 12.25264 3.905307 1.267761 3.469677 3.951929 1.679375 3.469677 3.126067 1.607384 12.25264 4.952418 3.378487 12.25264 2.809768 2.600407 3.469677 3.182529 2.664639 3.469677 2.262011 3.297039 12.25264 3.976886 4.113373 12.25264 1.319559 3.537163 3.469677 1.961714 3.244255 3.469677 1.086678 4.484764 12.25264 2.429015 4.222046 12.25264 -0.338428 3.935436 3.469677 0.475344 3.329952 3.469677 -0.220982 4.989735 12.25264 0.544447 -0.068394 19.13993 1.594268 0.369034 18.48805 4.220814 1.636967 18.48805 3.32662 2.340424 16.57188 5.505935 3.658653 16.57188 3.704943 4.131508 15.04556 5.37594 5.06142 15.04556 3.000927 5.475319 13.26906 3.918832 5.659157 13.26906 1.37489 5.214485 11.80442 2.098707 4.839764 11.80442 -0.007577955 3.988216 11.4251 1.372746 3.637009 11.4251 -1.785753 5.017502 11.80443 -2.139643 6.488956 13.26906 -1.036962 6.569077 15.04556 0.943604 5.394482 16.57188 2.302031 3.091785 18.48805 2.787306 1.128353 19.31611 1.234226 -0.009208977 19.99801 0.551604 0.404652 20.1083 0.464738 -0.160179 21.09775 0.815159 -1.041019 18.48805 3.573488 0.120993 16.57188 5.270548 1.610725 15.04556 5.764639 3.18317 13.26906 5.03753 3.581333 11.80442 3.480579 2.003178 11.4251 3.854474 2.356956 11.80442 5.234906 1.254356 13.26906 6.706375 -0.726196 15.04556 6.786488 -2.084614 16.57188 5.611914 -2.569878 18.48805 3.309215 -1.191689 19.20985 1.023133 -0.392712 20.05341 0.349497 1.616455 19.98928 -5.090209 0.09444397 20.56371 -0.435003 -0.319416 20.45342 -0.348137 0.1823959 19.98018 -1.585024 -1.014355 19.804 -1.22497 -1.637024 18.48805 -2.891744 -3.091808 18.48805 -2.352417 -3.658695 16.57188 -3.270067 -5.394508 16.57188 -1.867142 -5.06147 15.04556 -2.566037 -6.569077 15.04556 -0.508722 -5.659203 13.26906 -0.939994 -6.488956 13.26906 1.471835 -4.839806 11.80442 0.44248 -5.017479 11.80442 2.574432 -3.637043 11.4251 2.22065 -3.988262 11.4251 -0.937834 -5.214535 11.80442 -1.663792 -5.475376 13.26906 -3.483935 -4.131538 15.04556 -4.941153 -2.340454 16.57188 -5.071157 -0.369057 18.48805 -3.786042 3.356041 18.48805 1.258436 4.003387 18.48805 -0.1516129 1.697517 19.63519 0.153891 5.053101 16.57188 0.09641897 5.288528 16.57188 -2.123111 5.547211 15.04556 -1.393421 5.158554 15.04556 -3.914206 4.820091 13.26906 -2.965862 3.701435 13.26906 -5.258027 3.263142 11.80442 -3.364025 1.881287 11.80443 -4.997199 1.1553 11.4251 -3.770891 0.606438 20.31966 0.139788 -4.003407 18.48805 0.586497 -3.356079 18.48805 -0.823549 -5.053131 16.57188 0.338458 -1.583519 19.48492 -0.144637 -0.521202 20.24205 -0.02318698 -5.547203 15.04556 1.828193 -4.820084 13.26906 3.400638 -3.263134 11.80442 3.798798 -1.155308 11.4251 4.205689 -1.881266 11.80442 5.431966 -3.70141 13.26906 5.692792 -5.158525 15.04556 4.348979 -5.288525 16.57188 2.557889 -3.109203 18.48805 1.854427 -3.487537 16.57188 3.8761 -2.783512 15.04556 5.278885 -1.157471 13.26906 5.876616 0.225002 11.80442 5.057226 0.477943 20.5083 -0.232896 1.305683 19.91026 -1.013881 3.109158 18.48805 -1.419559 3.48753 16.57188 -3.441325 2.783497 15.04556 -4.844098 1.157463 13.26906 -5.44184 -0.22501 11.80442 -4.622441 -2.003197 11.4251 -3.419666 -2.356976 11.80442 -4.800105 -1.254383 13.26906 -6.271583 0.726166 15.04556 -6.351696 2.084587 16.57188 -5.177137 2.569855 18.48805 -2.87445 1.040993 18.48805 -3.138723 -0.121025 16.57188 -4.835774 -1.610767 15.04556 -5.329852 -3.183208 13.26906 -4.602724 -3.581383 11.80442 -3.045669 1.920624 19.98928 -5.008708</float_array>
          <technique_common>
            <accessor source="#medkit_small_bday-mesh-positions-array" count="214" stride="3">
              <param name="X" type="float"/>
              <param name="Y" type="float"/>
              <param name="Z" type="float"/>
            </accessor>
          </technique_common>
        </source>
        <source id="medkit_small_bday-mesh-normals">
          <float_array id="medkit_small_bday-mesh-normals-array" count="1125">-0.243967 0.3339079 0.9104866 0 0 1 -0.2167424 -0.546556 0.8088877 -0.2167398 -0.5465546 0.8088894 -0.1751764 0.7831126 0.5966975 -0.1751736 0.7831136 0.596697 -0.175176 0.7831118 0.5966988 -0.1751728 0.7831136 0.5966973 -0.2566049 0.1305233 0.9576626 -0.2566041 0.1305229 0.9576629 -0.2566039 0.1305229 0.957663 -0.2566051 0.1305235 0.9576626 -0.01353913 -0.9986309 0.05052864 -0.01353919 -0.9986309 0.05052852 -0.01353919 -0.998631 0.05052852 -0.01353913 -0.998631 0.0505287 0.157557 -0.7933535 -0.5880187 0.157558 -0.7933537 -0.5880183 0.1575567 -0.7933534 -0.5880188 0.1575582 -0.7933537 -0.5880181 0.2566013 -0.1305274 -0.9576629 0.2566046 -0.1305258 -0.9576624 0.2566053 -0.1305255 -0.9576622 0.2566007 -0.1305278 -0.9576632 0.205335 0.6087635 -0.7663188 0.205338 0.6087636 -0.766318 0.2053386 0.6087636 -0.7663178 0.2053344 0.6087635 -0.766319 0.0337826 0.9914447 -0.1260805 0.03378331 0.9914445 -0.1260817 0.03378248 0.9914447 -0.1260802 0.03378349 0.9914445 -0.126082 0.4368908 -0.08511042 -0.895479 0.4369299 -0.08510798 -0.8954601 0.4368863 -0.08511137 -0.8954811 0.4369342 -0.08511078 -0.8954578 0.06099474 -0.08510822 -0.994503 0.06099379 -0.08510804 -0.9945032 0.0609458 -0.08511143 -0.9945058 0.0609948 -0.08511209 -0.9945027 -0.3242721 -0.08510851 -0.9421275 -0.3242728 -0.08510822 -0.9421273 -0.3242729 -0.08511048 -0.9421271 -0.324272 -0.08511012 -0.9421274 -0.6537803 -0.08511084 -0.7518827 -0.6537801 -0.08511072 -0.751883 -0.65378 -0.08511072 -0.751883 -0.6537803 -0.08511084 -0.7518827 -0.8917046 -0.08512049 -0.444542 -0.8917418 -0.08512461 -0.4444664 -0.8917453 -0.08512496 -0.4444594 -0.8917018 -0.0851202 -0.4445476 -0.9939541 -0.08511185 -0.06936395 -0.9939528 -0.08511084 -0.06938391 -0.9939526 -0.08511078 -0.06938582 -0.9939542 -0.08511191 -0.06936246 -0.989194 -0.1173022 -0.0879513 -0.9891935 -0.1173023 -0.08795696 -0.9891963 -0.1173032 -0.08792459 -0.9891946 -0.1173028 -0.08794409 -0.9412729 -0.1140205 0.3178123 -0.9412826 -0.114018 0.3177846 -0.9412732 -0.1140207 0.3178113 -0.941276 -0.1140205 0.3178032 -0.7277039 -0.1102672 0.6769699 -0.7276436 -0.1102716 0.677034 -0.7276239 -0.1102728 0.677055 -0.7276912 -0.1102676 0.6769834 -0.3908935 -0.1068413 0.914214 -0.390873 -0.1068423 0.9142227 -0.3908626 -0.1068433 0.914227 -0.3908638 -0.1068433 0.9142265 0.324229 -0.08511209 0.9421421 0.3242256 -0.08510804 0.9421435 0.3242252 -0.08511149 0.9421434 0.3242293 -0.0851109 0.942142 0.6601331 -0.08510744 0.7463117 0.6601279 -0.08510673 0.7463163 0.6601273 -0.08511132 0.7463164 0.6601333 -0.08511108 0.7463111 0.8954807 -0.08510863 0.4368876 0.8954816 -0.08510845 0.436886 0.8954815 -0.08511066 0.4368858 0.8954595 -0.08511102 0.4369307 0.9945088 -0.08511108 0.06089633 0.9945095 -0.08510744 0.06089013 0.9945091 -0.08511215 0.06088954 0.9945087 -0.08511215 0.06089681 0.9421112 -0.08510851 -0.3243194 0.9421144 -0.08510774 -0.3243104 0.9421144 -0.08511114 -0.3243095 0.9421108 -0.08511096 -0.3243201 0.7463478 -0.08511185 -0.6600917 0.7463456 -0.08510822 -0.6600947 0.7463452 -0.08511042 -0.6600948 0.746348 -0.08511102 -0.6600916 0.6601122 -0.0851103 0.7463299 0.6601069 -0.0851106 0.7463344 0.3242548 -0.08511114 0.9421333 0.3242584 -0.08511096 0.942132 -0.06096643 -0.08511126 0.9945045 -0.06095892 -0.0851109 0.9945051 -0.436909 -0.08511114 0.8954701 -0.4369048 -0.08511096 0.8954722 -0.7463226 -0.0851109 0.6601203 -0.7463318 -0.08511149 0.6601098 -0.7638633 -0.110752 0.6358042 -0.7638635 -0.1107514 0.6358042 -0.7638635 -0.1107511 0.6358042 -0.7638721 -0.1107513 0.6357938 -0.7638719 -0.1107523 0.6357939 -0.7638719 -0.1107529 0.6357938 -0.9412748 -0.1140195 0.3178071 -0.9412746 -0.114021 0.3178072 -0.9412747 -0.1140204 0.3178071 -0.9412857 -0.1140217 0.3177741 -0.9412854 -0.1140236 0.3177741 -0.9412853 -0.1140245 0.3177742 -0.9921439 -0.1169847 -0.04433161 -0.9921436 -0.1169864 -0.04433143 -0.9921435 -0.1169873 -0.04433137 -0.992144 -0.116987 -0.04432344 -0.9921441 -0.1169853 -0.04432356 -0.9921437 -0.1169888 -0.04432326 -0.9067919 -0.1193067 -0.4043446 -0.9067921 -0.1193039 -0.404345 -0.9067921 -0.1193048 -0.4043449 -0.9067811 -0.1193035 -0.4043698 -0.9067808 -0.119307 -0.4043694 -0.9067809 -0.1193043 -0.4043697 -0.3242508 -0.08510988 -0.9421347 -0.3242489 -0.08511 -0.9421353 0.06098949 -0.08511257 -0.994503 0.0609613 -0.0851112 -0.9945049 0.4369037 -0.08511084 -0.8954727 0.436901 -0.08511072 -0.895474 0.7463301 -0.08511143 -0.6601118 0.7463303 -0.08511143 -0.6601116 0.942136 -0.08511108 -0.3242468 0.9421316 -0.0851103 -0.3242596 0.9945042 -0.08511179 0.06096982 0.9945047 -0.08511149 0.06096196 0.8954719 -0.08511072 0.4369053 0.895468 -0.08511108 0.4369134 0 -1 0 4.1227e-6 -1 3.18685e-6 3.06983e-7 -1 -2.88227e-7 -2.32558e-6 -1 -6.87357e-6 -2.25312e-6 -1 -4.45585e-7 -9.28416e-6 -1 3.36018e-6 8.78766e-6 -1 4.48026e-6 2.34567e-6 -1 -1.02912e-5 -4.16033e-7 -1 3.97889e-6 -4.37982e-6 -1 8.68047e-6 0 -1 4.13651e-6 0 -1 -1.40009e-7 0 -1 0 0 -1 0 0 -1 9.25273e-7 0 -1 0 0 -1 -3.44902e-7 0 -1 -1.23853e-7 -3.53802e-7 -1 3.69749e-7 1.5322e-6 -1 2.82069e-6 2.63148e-6 -1 4.45787e-6 0 -1 6.95722e-7 1.31203e-5 -1 7.33139e-6 0 -1 -5.6003e-7 0.06512784 0.8722306 0.4847394 0.2968072 0.869842 0.3940566 0.3040146 0.8189809 0.4866676 0.5981341 0.6778653 0.4274743 0.6164079 0.5189693 0.5922097 0.8243187 0.4821805 0.2966489 0.8623459 0.2100426 0.4606971 0.995879 0.008050918 0.09033483 0.9387322 -0.2731872 0.2101208 0.7131168 -0.6989462 -0.05421179 0.5622656 -0.8269042 0.009316444 0.3395438 -0.9393304 -0.04866528 0.3120012 -0.9500449 -0.00836575 0.3119896 -0.9500489 -0.00835967 0.5080418 -0.8562695 0.09325325 0.7968509 -0.52049 0.3067882 0.8104026 -0.08880209 0.5791043 0.6016566 0.3292847 0.7277233 0.3078559 0.757151 0.5761486 0.08585119 0.895533 0.4366351 0.1741615 0.3205699 0.9310762 0.1741679 0.3205772 0.9310724 0.2505427 -0.1929593 0.9486808 -0.0984379 0.8305686 0.5481477 -0.1751866 0.7831047 0.5967049 -0.1475123 0.9084929 0.3909998 0.01711785 0.5189746 0.8546183 -0.08913195 0.3292949 0.9400109 0.2840169 0.2100505 0.9355283 0.1635662 -0.08878493 0.9825291 0.5152164 -0.2731744 0.8123594 0.3465397 -0.5204788 0.7803923 0.3910002 -0.8269017 0.4041686 0.2933064 -0.8562697 0.4251748 0.2265265 -0.9500483 0.2146951 0.2745229 -0.9393056 0.2057723 0.2265359 -0.9500443 0.2147029 0.5425906 -0.6989414 0.4659146 0.6403209 0.008058607 0.7680653 0.3730806 0.4822152 0.7926408 0.1206775 0.6778691 0.7252107 -0.02431344 0.8676804 0.4965276 -0.1612573 0.8751964 0.4561004 -0.4321087 0.2838561 0.8559836 -0.4323803 0.283975 0.855807 -0.4792194 -0.2662183 0.8363471 -0.9659259 0 -0.2588189 -0.9659257 1.10849e-6 -0.2588199 -0.9659259 1.5606e-6 -0.2588186 -0.9659259 0 -0.2588192 -0.9659263 0 -0.2588174 -0.9659262 7.14062e-7 -0.2588179 -0.9659259 0 -0.258819 -0.9659255 -5.86551e-7 -0.2588202 -0.9659258 -1.45363e-6 -0.2588196 -0.9659259 -4.59084e-7 -0.258819 -0.2947386 0.8520442 -0.4326084 -0.2947361 0.8520467 -0.4326052 -0.294774 0.8520249 -0.4326221 -0.2922124 0.8344383 -0.4672523 -0.2642346 0.8258077 -0.4982187 -0.3745568 0.7228863 -0.5806398 -0.3382132 0.663546 -0.6673219 -0.6164157 0.5189741 -0.5921973 -0.6016626 0.3292918 -0.727715 -0.8623503 0.2100467 -0.4606869 -0.8104115 -0.08879047 -0.5790938 -0.9387362 -0.2731808 -0.2101114 -0.7968596 -0.5204824 -0.3067785 -0.5622825 -0.8268923 -0.00935781 -0.5080406 -0.8562713 -0.09324246 -0.3119893 -0.9500488 0.008368492 -0.3395435 -0.9393305 0.04866713 -0.3119959 -0.9500466 0.008375048 -0.7131173 -0.6989453 0.05421656 -0.9958778 0.008045554 -0.09034806 -0.8243179 0.4821895 -0.2966369 -0.5981408 0.677869 -0.427459 -0.4057351 0.7724018 -0.4886459 0.6061583 0.7787421 0.1616569 0.6772897 0.7032855 0.216028 0.4040253 0.858196 0.3166437 0.8546156 0.5189791 -0.01711386 0.9400136 0.3292826 0.08914798 0.9355345 0.2100403 -0.284004 0.9825308 -0.08880108 -0.1635474 0.8123639 -0.2731819 -0.5152055 0.7803931 -0.520487 -0.3465257 0.4042089 -0.8268979 -0.3909668 0.425172 -0.856272 -0.2933039 0.2146893 -0.9500495 -0.2265273 0.2057592 -0.9393166 -0.274495 0.2146919 -0.9500539 -0.226506 0.4659242 -0.6989467 -0.5425757 0.7680761 0.008058845 -0.640308 0.7926375 0.4821919 -0.3731179 0.7252064 0.6778728 -0.1206823 0.527555 0.8429265 0.1056448 0.3746626 0.8505898 0.3689514 0.6164118 0.5189747 0.5922009 0.616415 0.5189846 0.5921888 0.7598935 0.21674 0.6128504 0.9563996 -0.05109512 0.2875574 -0.6633895 0.7184758 -0.2090623 -0.6333504 0.7655502 -0.1131386 -0.8546199 0.5189721 0.01711994 -0.5135495 0.8527539 -0.09527695 -0.5551438 0.8305401 -0.04492807 -0.7352325 0.6690554 -0.1086186 -0.7352316 0.6690527 -0.1086423 -0.8331103 0.5242473 -0.1763296 -0.596993 0.8020148 -0.01927584 -0.7252103 0.6778689 0.1206807 -0.7926303 0.4821917 0.3731334 -0.9355292 0.2100463 0.2840171 -0.7680585 0.008065342 0.640329 -0.8123586 -0.2731772 0.5152162 -0.4659119 -0.698936 0.5425998 -0.4042121 -0.8268913 0.3909775 -0.2057248 -0.9393187 0.274514 -0.2147017 -0.9500451 0.2265339 -0.2146925 -0.9500488 0.2265269 -0.4251744 -0.8562704 0.293305 -0.7803928 -0.5204828 0.3465325 -0.9825295 -0.08879733 0.1635565 -0.9400144 0.3292837 -0.08913719 -0.4070801 0.8509681 0.3318721 -0.3838498 0.8411982 0.3808479 -0.4736311 0.8103188 0.3450464 -0.427467 0.6778694 0.5981348 -0.592203 0.5189754 0.6164091 -0.2966451 0.4821837 0.8243182 -0.4606893 0.2100489 0.8623486 -0.09033006 0.008056163 0.9958793 -0.2101113 -0.2731765 0.9387374 0.05422055 -0.6989398 0.7131223 -0.00935775 -0.8268916 0.5622836 0.0486685 -0.9393311 0.3395418 0.008374691 -0.9500464 0.3119967 0.008367836 -0.9500484 0.3119907 -0.09324347 -0.8562704 0.508042 -0.3067805 -0.5204806 0.7968599 -0.5790941 -0.08878833 0.8104115 -0.7277134 0.3292967 0.6016618 -0.5628001 0.7688485 0.3035262 -0.3760025 0.8892929 0.2603464 -0.7988994 0.4387587 0.4114011 -0.7989042 0.4387617 0.411388 -0.9355748 0.05261516 0.349187 0.1967075 -0.6499046 -0.7341188 0.7437287 0.6637333 0.0795353 0.661343 0.7470491 0.06740212 0.6613467 0.7470448 0.06741428 0.5529926 0.8258854 -0.1100572 0.5392309 0.8401836 -0.05763471 0.5893403 0.7320687 -0.3416922 0.496877 0.7991983 -0.3382238 0.4274605 0.6778789 -0.5981286 0.5921993 0.5189818 -0.6164073 0.2966367 0.4821887 -0.8243185 0.4606818 0.2100541 -0.8623512 0.09032255 0.008067488 -0.99588 0.2101055 -0.2731714 -0.9387402 -0.05422437 -0.6989361 -0.7131255 0.009307205 -0.8269026 -0.5622683 -0.04866653 -0.9393312 -0.3395416 -0.008367478 -0.950046 -0.3119978 -0.008369207 -0.9500486 -0.3119902 0.09323787 -0.8562695 -0.5080445 0.3067744 -0.5204795 -0.796863 0.579088 -0.08878147 -0.8104166 0.7277317 0.3293222 -0.6016258 0.6746913 0.6547631 -0.3407007 -0.9720459 -0.05109387 -0.2291641 0.2996844 0.8978717 -0.3225146 0.2894288 0.8859428 -0.3624038 0.289429 0.8859402 -0.3624097 0.2498257 0.8173905 -0.5190953 0.2395868 0.8415463 -0.4841468 0.1679993 0.7096487 -0.6842332 0.09279394 0.7704262 -0.6307399 -0.1206771 0.6778665 -0.7252132 -0.01711744 0.5189713 -0.8546204 -0.3731202 0.4821794 -0.7926439 -0.2840219 0.2100443 -0.9355282 -0.64032 0.008052706 -0.7680661 -0.5152267 -0.2731863 -0.812349 -0.5425944 -0.6989434 -0.4659071 -0.3909837 -0.8268922 -0.4042043 -0.2745373 -0.9392921 -0.2058148 -0.2265443 -0.9500423 -0.2147035 -0.2265269 -0.9500484 -0.2146946 -0.2933099 -0.8562692 -0.4251735 -0.3465499 -0.5204946 -0.7803773 -0.1635753 -0.08879649 -0.9825265 0.08913111 0.3292902 -0.9400126 0.241916 0.6394293 -0.7297992 0.9659262 1.47913e-6 0.2588178 0.9659259 1.1221e-6 0.2588186 0.965926 4.64452e-7 0.2588185 0.9659258 1.02009e-6 0.2588195 0.9659258 5.9287e-7 0.2588194 0.9659261 -9.68979e-7 0.2588182 0.9659257 -1.32628e-6 0.25882 0.9659257 0 0.2588196 0.9659263 3.06026e-7 0.2588173 0.9659261 6.63058e-7 0.258818</float_array>
          <technique_common>
            <accessor source="#medkit_small_bday-mesh-normals-array" count="375" stride="3">
              <param name="X" type="float"/>
              <param name="Y" type="float"/>
              <param name="Z" type="float"/>
            </accessor>
          </technique_common>
        </source>
        <source id="medkit_small_bday-mesh-map-0">
          <float_array id="medkit_small_bday-mesh-map-0-array" count="2040">0.429278 0.357412 0.429278 0.357412 0.429278 0.357412 0.413166 0.369735 0.449033 0.370026 0.449033 0.370026 0.413166 0.369735 0.413166 0.369735 0.449033 0.370026 0.429278 0.357412 0.429278 0.357412 0.429278 0.357412 0.429278 0.357412 0.429278 0.357412 0.429278 0.357412 0.449033 0.370026 0.413166 0.369735 0.413166 0.369735 0.449033 0.370026 0.449033 0.370026 0.413166 0.369735 0.429278 0.357412 0.429278 0.357412 0.429278 0.357412 0.429278 0.357412 0.429278 0.357412 0.429278 0.357412 0.429278 0.357412 0.429278 0.357412 0.429278 0.357412 0.429278 0.357412 0.429278 0.357412 0.429278 0.357412 0.429278 0.357412 0.429278 0.357412 0.429278 0.357412 0.429278 0.357412 0.429278 0.357412 0.429278 0.357412 0.429278 0.357412 0.429278 0.357412 0.429278 0.357412 0.429278 0.357412 0.429278 0.357412 0.429278 0.357412 0.429278 0.357412 0.429278 0.357412 0.429278 0.357412 0.429278 0.357412 0.429278 0.357412 0.429278 0.357412 0.429278 0.357412 0.429278 0.357412 0.429278 0.357412 0.429278 0.357412 0.429278 0.357412 0.429278 0.357412 0.429278 0.357412 0.429278 0.357412 0.429278 0.357412 0.429278 0.357412 0.429278 0.357412 0.429278 0.357412 0.429278 0.357412 0.429278 0.357412 0.429278 0.357412 0.429278 0.357412 0.429278 0.357412 0.429278 0.357412 0.429278 0.357412 0.429278 0.357412 0.429278 0.357412 0.429278 0.357412 0.429278 0.357412 0.429278 0.357412 0.0625 0 0.07812398 0.176077 0.0625 0.176077 0.0625 0 0.07812398 0 0.07812398 0.176077 0.03125 0 0.046875 0.176077 0.03125 0.176077 0.03125 0 0.046875 0 0.046875 0.176077 0.001515984 0 0.015625 0.176077 0.001515984 0.176077 0.001515984 0 0.015625 0 0.015625 0.176077 0.46875 0 0.484375 0.176077 0.46875 0.176077 0.46875 0 0.484375 0 0.484375 0.176077 0.437498 0 0.453125 0.176077 0.4375 0.176077 0.437498 0 0.453124 0 0.453125 0.176077 0.406248 0 0.421873 0.176077 0.406248 0.176077 0.406248 0 0.421873 0 0.421873 0.176077 0.374999 0 0.390623 0.176077 0.374999 0.176077 0.374999 0 0.390623 0 0.390623 0.176077 0.343749 0 0.359374 0.176077 0.343749 0.176077 0.343749 0 0.359374 0 0.359374 0.176077 0.312499 0 0.328124 0.176077 0.312498 0.176077 0.312499 0 0.328124 0 0.328124 0.176077 0.281247 0 0.296872 0.176077 0.281247 0.176077 0.281247 0 0.296873 0 0.296872 0.176077 0.249997 0 0.265622 0.176077 0.249997 0.176077 0.249997 0 0.265622 0 0.265622 0.176077 0.218748 0 0.234372 0.176077 0.218747 0.176077 0.218748 0 0.234372 0 0.234372 0.176077 0.187498 0 0.203123 0.176077 0.187498 0.176077 0.187498 0 0.203123 0 0.203123 0.176077 0.156248 0 0.171873 0.176077 0.156248 0.176077 0.156248 0 0.171873 0 0.171873 0.176077 0.124999 0 0.140623 0.176077 0.124999 0.176077 0.124999 0 0.140623 0 0.140623 0.176077 0.09374898 0 0.109374 0.176077 0.09374898 0.176077 0.09374898 0 0.109374 0 0.109374 0.176077 0.109374 0.176077 0.124999 0 0.124999 0.176077 0.109374 0.176077 0.109374 0 0.124999 0 0.140623 0.176077 0.156248 0 0.156248 0.176077 0.140623 0.176077 0.140623 0 0.156248 0 0.171873 0.176077 0.187498 0 0.187498 0.176077 0.171873 0.176077 0.171873 0 0.187498 0 0.203123 0.176077 0.218748 0 0.218747 0.176077 0.203123 0.176077 0.203123 0 0.218748 0 0.234372 0.176077 0.249997 0 0.249997 0.176077 0.234372 0.176077 0.234372 0 0.249997 0 0.265622 0.176077 0.281247 0 0.281247 0.176077 0.265622 0.176077 0.265622 0 0.281247 0 0.296872 0.176077 0.312499 0 0.312498 0.176077 0.296872 0.176077 0.296873 0 0.312499 0 0.328124 0.176077 0.343749 0 0.343749 0.176077 0.328124 0.176077 0.328124 0 0.343749 0 0.359374 0.176077 0.374999 0 0.374999 0.176077 0.359374 0.176077 0.359374 0 0.374999 0 0.390623 0.176077 0.406248 0 0.406248 0.176077 0.390623 0.176077 0.390623 0 0.406248 0 0.421873 0.176077 0.437498 0 0.4375 0.176077 0.421873 0.176077 0.421873 0 0.437498 0 0.453125 0.176077 0.46875 0 0.46875 0.176077 0.453125 0.176077 0.453124 0 0.46875 0 0.484375 0.176077 0.498637 0 0.498637 0.176077 0.484375 0.176077 0.484375 0 0.498637 0 0.015625 0.176077 0.03125 0 0.03125 0.176077 0.015625 0.176077 0.015625 0 0.03125 0 0.046875 0.176077 0.0625 0 0.0625 0.176077 0.046875 0.176077 0.046875 0 0.0625 0 0.09374898 0 0.07812398 0.176077 0.07812398 0 0.09374898 0 0.09374898 0.176077 0.07812398 0.176077 0.421368 0.25605 0.415798 0.257184 0.420283 0.25046 0.401172 0.263255 0.420283 0.25046 0.415798 0.257184 0.393257 0.261677 0.420283 0.25046 0.401172 0.263255 0.396434 0.266398 0.393257 0.261677 0.401172 0.263255 0.414666 0.262764 0.409088 0.261677 0.415798 0.257184 0.401172 0.263255 0.415798 0.257184 0.409088 0.261677 0.405911 0.266398 0.401172 0.263255 0.409088 0.261677 0.387679 0.262764 0.386546 0.257184 0.393257 0.261677 0.380978 0.25605 0.382063 0.25046 0.386546 0.257184 0.377351 0.247277 0.380488 0.242529 0.382063 0.25046 0.387679 0.222293 0.393257 0.223381 0.386546 0.227874 0.393257 0.223381 0.382063 0.234598 0.386546 0.227874 0.393257 0.223381 0.401173 0.221803 0.382063 0.234598 0.380488 0.242529 0.382063 0.234598 0.401173 0.221803 0.380488 0.242529 0.401173 0.221803 0.409088 0.223381 0.382063 0.25046 0.380488 0.242529 0.409088 0.223381 0.382063 0.25046 0.409088 0.223381 0.415799 0.227874 0.386546 0.257184 0.382063 0.25046 0.415799 0.227874 0.386546 0.257184 0.415799 0.227874 0.420283 0.234598 0.393257 0.261677 0.386546 0.257184 0.420283 0.234598 0.393257 0.261677 0.420283 0.234598 0.421858 0.242529 0.393257 0.261677 0.421858 0.242529 0.420283 0.25046 0.424995 0.247277 0.420283 0.25046 0.421858 0.242529 0.424995 0.237781 0.421858 0.242529 0.420283 0.234598 0.377351 0.237781 0.382063 0.234598 0.380488 0.242529 0.380978 0.229008 0.386546 0.227874 0.382063 0.234598 0.405911 0.2186599 0.409088 0.223381 0.401173 0.221803 0.421368 0.229008 0.420283 0.234598 0.415799 0.227874 0.396434 0.2186599 0.401173 0.221803 0.393257 0.223381 0.414666 0.222293 0.415799 0.227874 0.409088 0.223381 0.224133 0.326198 0.224132 0.348562 0.20181 0.348561 0.20181 0.348561 0.224132 0.348562 0.224132 0.389646 0.20181 0.348561 0.224132 0.389646 0.201809 0.389646 0.224131 0.422372 0.201809 0.389646 0.224132 0.389646 0.224131 0.422372 0.201808 0.422372 0.201809 0.389646 0.224131 0.460463 0.201808 0.422372 0.224131 0.422372 0.224131 0.460463 0.201808 0.460462 0.201808 0.422372 0.224131 0.491867 0.201808 0.460462 0.224131 0.460463 0.224131 0.491867 0.201807 0.491866 0.201808 0.460462 0.201807 0.491866 0.224131 0.491867 0.224131 0.5 0.224131 0.5 0.179484 0.499999 0.201807 0.491866 0.201807 0.491866 0.179484 0.499999 0.179484 0.491866 0.201807 0.491866 0.179484 0.491866 0.179484 0.460462 0.201807 0.491866 0.179484 0.460462 0.201808 0.460462 0.201808 0.460462 0.179484 0.460462 0.179485 0.422372 0.201808 0.460462 0.179485 0.422372 0.201808 0.422372 0.201808 0.422372 0.179485 0.422372 0.179486 0.389646 0.201808 0.422372 0.179486 0.389646 0.201809 0.389646 0.179486 0.348561 0.201809 0.389646 0.179486 0.389646 0.179486 0.348561 0.20181 0.348561 0.201809 0.389646 0.20181 0.348561 0.179486 0.348561 0.179487 0.326198 0.224133 0.326198 0.20181 0.348561 0.179487 0.326198 0.224219 0.3215 0.224133 0.326198 0.179487 0.326198 0.224219 0.3215 0.179487 0.326198 0.179572 0.321131 0.201813 0.189221 0.224219 0.3215 0.179572 0.321131 0.248746 0.348562 0.224132 0.348562 0.224133 0.326198 0.224132 0.348562 0.248746 0.348562 0.248745 0.389646 0.224132 0.348562 0.248745 0.389646 0.224132 0.389646 0.248745 0.422373 0.224132 0.389646 0.248745 0.389646 0.248745 0.422373 0.224131 0.422372 0.224132 0.389646 0.248745 0.460463 0.224131 0.422372 0.248745 0.422373 0.248745 0.460463 0.224131 0.460463 0.224131 0.422372 0.248745 0.491867 0.224131 0.460463 0.248745 0.460463 0.248745 0.491867 0.224131 0.491867 0.224131 0.460463 0.248745 0.491867 0.224131 0.5 0.224131 0.491867 0.271973 0.5 0.224131 0.5 0.248745 0.491867 0.248745 0.491867 0.271973 0.491867 0.271973 0.5 0.271973 0.491867 0.248745 0.491867 0.248745 0.460463 0.271973 0.491867 0.248745 0.460463 0.271973 0.460463 0.271973 0.460463 0.248745 0.460463 0.248745 0.422373 0.271973 0.460463 0.248745 0.422373 0.271973 0.422373 0.271973 0.422373 0.248745 0.422373 0.248745 0.389646 0.271973 0.422373 0.248745 0.389646 0.271973 0.389646 0.248746 0.348562 0.271973 0.389646 0.248745 0.389646 0.248746 0.348562 0.271973 0.348562 0.271973 0.389646 0.271973 0.326199 0.271973 0.348562 0.248746 0.348562 0.271973 0.326199 0.248746 0.348562 0.224133 0.326198 0.271973 0.326199 0.224133 0.326198 0.224219 0.3215 0.271973 0.326199 0.224219 0.3215 0.271974 0.321059 0.248746 0.189222 0.271974 0.321059 0.224219 0.3215 0.430962 0.426715 0.413166 0.369735 0.449033 0.370026 0.38393 0.384754 0.413166 0.369735 0.430962 0.426715 0.364614 0.426881 0.38393 0.384754 0.430962 0.426715 0.384164 0.473841 0.364614 0.426881 0.430962 0.426715 0.431128 0.491716 0.384164 0.473841 0.430962 0.426715 0.477994 0.473606 0.431128 0.491716 0.430962 0.426715 0.49731 0.426549 0.477994 0.473606 0.430962 0.426715 0.47776 0.38452 0.49731 0.426549 0.430962 0.426715 0.47776 0.38452 0.430962 0.426715 0.449033 0.370026 0.02322697 0.189218 0.04554694 0.321056 0.009361982 0.321055 0.04554796 0.326195 0.009361982 0.321055 0.04554694 0.321056 0.04554796 0.326195 0.009362995 0.326195 0.009361982 0.321055 0.04554796 0.326195 0.02322494 0.348558 0.009362995 0.326195 0.02322494 0.348558 0.009361982 0.348558 0.009362995 0.326195 0.009361982 0.348558 0.02322494 0.348558 0.02322399 0.389643 0.009361982 0.348558 0.02322399 0.389643 0.009361982 0.389643 0.02322298 0.422369 0.009361982 0.389643 0.02322399 0.389643 0.02322298 0.422369 0.009360969 0.422369 0.009361982 0.389643 0.02322298 0.46046 0.009360969 0.422369 0.02322298 0.422369 0.02322298 0.46046 0.009360969 0.460459 0.009360969 0.422369 0.02322196 0.491863 0.009360969 0.460459 0.02322298 0.46046 0.02322196 0.491863 0.009359955 0.491863 0.009360969 0.460459 0.02322196 0.491863 0.009359955 0.499996 0.009359955 0.491863 0.04554498 0.499997 0.009359955 0.499996 0.02322196 0.491863 0.02322196 0.491863 0.04554498 0.491864 0.04554498 0.499997 0.04554498 0.491864 0.02322196 0.491863 0.02322298 0.46046 0.04554498 0.491864 0.02322298 0.46046 0.04554599 0.46046 0.04554599 0.46046 0.02322298 0.46046 0.02322298 0.422369 0.04554599 0.46046 0.02322298 0.422369 0.04554599 0.422369 0.04554599 0.422369 0.02322298 0.422369 0.02322399 0.389643 0.04554599 0.422369 0.02322399 0.389643 0.04554694 0.389643 0.02322494 0.348558 0.04554694 0.389643 0.02322399 0.389643 0.02322494 0.348558 0.04554796 0.348559 0.04554694 0.389643 0.04554796 0.326195 0.04554796 0.348559 0.02322494 0.348558 0.157163 0.348561 0.13484 0.34856 0.13484 0.326197 0.13484 0.34856 0.157163 0.348561 0.157163 0.389645 0.13484 0.34856 0.157163 0.389645 0.13484 0.389645 0.157162 0.422371 0.13484 0.389645 0.157163 0.389645 0.157162 0.422371 0.1348389 0.422371 0.13484 0.389645 0.1571609 0.460462 0.1348389 0.422371 0.157162 0.422371 0.1571609 0.460462 0.1348389 0.460461 0.1348389 0.422371 0.1571609 0.491866 0.1348389 0.460461 0.1571609 0.460462 0.1571609 0.491866 0.134838 0.491865 0.1348389 0.460461 0.1571609 0.491866 0.134838 0.499998 0.134838 0.491865 0.179484 0.499999 0.134838 0.499998 0.1571609 0.491866 0.1571609 0.491866 0.179484 0.491866 0.179484 0.499999 0.179484 0.491866 0.1571609 0.491866 0.1571609 0.460462 0.179484 0.491866 0.1571609 0.460462 0.179484 0.460462 0.179484 0.460462 0.1571609 0.460462 0.157162 0.422371 0.179484 0.460462 0.157162 0.422371 0.179485 0.422372 0.179485 0.422372 0.157162 0.422371 0.157163 0.389645 0.179485 0.422372 0.157163 0.389645 0.179486 0.389646 0.157163 0.348561 0.179486 0.389646 0.157163 0.389645 0.157163 0.348561 0.179486 0.348561 0.179486 0.389646 0.179487 0.326198 0.179486 0.348561 0.157163 0.348561 0.179487 0.326198 0.157163 0.348561 0.13484 0.326197 0.179572 0.321131 0.179487 0.326198 0.13484 0.326197 0.179572 0.321131 0.13484 0.326197 0.134927 0.320763 0.157166 0.189221 0.179572 0.321131 0.134927 0.320763 0.430858 0.273064 0.413166 0.369735 0.449033 0.370026 0.316619 0.348562 0.338942 0.348562 0.338942 0.389646 0.316619 0.348562 0.316619 0.326199 0.338942 0.348562 0.361265 0.326199 0.338942 0.348562 0.316619 0.326199 0.361265 0.326199 0.316619 0.326199 0.31662 0.321059 0.361265 0.326199 0.31662 0.321059 0.361265 0.321059 0.338942 0.182192 0.361265 0.321059 0.31662 0.321059 0.361265 0.326199 0.361265 0.348562 0.338942 0.348562 0.338942 0.348562 0.361265 0.348562 0.361265 0.389646 0.338942 0.348562 0.361265 0.389646 0.338942 0.389646 0.361265 0.422373 0.338942 0.389646 0.361265 0.389646 0.361265 0.422373 0.338942 0.422373 0.338942 0.389646 0.361265 0.460463 0.338942 0.422373 0.361265 0.422373 0.361265 0.460463 0.338942 0.460463 0.338942 0.422373 0.361265 0.491867 0.338942 0.460463 0.361265 0.460463 0.361265 0.491867 0.338942 0.491867 0.338942 0.460463 0.338942 0.491867 0.361265 0.491867 0.361265 0.5 0.361265 0.5 0.316619 0.5 0.338942 0.491867 0.338942 0.491867 0.316619 0.5 0.316619 0.491867 0.316619 0.460463 0.338942 0.491867 0.316619 0.491867 0.316619 0.460463 0.338942 0.460463 0.338942 0.491867 0.338942 0.460463 0.316619 0.460463 0.316619 0.422373 0.338942 0.460463 0.316619 0.422373 0.338942 0.422373 0.338942 0.422373 0.316619 0.422373 0.316619 0.389646 0.338942 0.422373 0.316619 0.389646 0.338942 0.389646 0.316619 0.348562 0.338942 0.389646 0.316619 0.389646 0.316619 0.326199 0.316619 0.348562 0.294296 0.348562 0.294296 0.348562 0.316619 0.348562 0.316619 0.389646 0.294296 0.348562 0.316619 0.389646 0.294296 0.389646 0.316619 0.422373 0.294296 0.389646 0.316619 0.389646 0.316619 0.422373 0.294296 0.422373 0.294296 0.389646 0.316619 0.460463 0.294296 0.422373 0.316619 0.422373 0.316619 0.460463 0.294296 0.460463 0.294296 0.422373 0.316619 0.491867 0.294296 0.460463 0.316619 0.460463 0.316619 0.491867 0.294296 0.491867 0.294296 0.460463 0.294296 0.491867 0.316619 0.491867 0.316619 0.5 0.316619 0.5 0.271973 0.5 0.294296 0.491867 0.294296 0.491867 0.271973 0.5 0.271973 0.491867 0.294296 0.491867 0.271973 0.491867 0.271973 0.460463 0.294296 0.491867 0.271973 0.460463 0.294296 0.460463 0.294296 0.460463 0.271973 0.460463 0.271973 0.422373 0.294296 0.460463 0.271973 0.422373 0.294296 0.422373 0.294296 0.422373 0.271973 0.422373 0.271973 0.389646 0.294296 0.422373 0.271973 0.389646 0.294296 0.389646 0.271973 0.348562 0.294296 0.389646 0.271973 0.389646 0.271973 0.348562 0.294296 0.348562 0.294296 0.389646 0.271973 0.348562 0.271973 0.326199 0.294296 0.348562 0.316619 0.326199 0.294296 0.348562 0.271973 0.326199 0.316619 0.326199 0.271973 0.326199 0.271974 0.321059 0.316619 0.326199 0.271974 0.321059 0.31662 0.321059 0.294296 0.182192 0.31662 0.321059 0.271974 0.321059 0.429278 0.357412 0.429278 0.357412 0.429278 0.357412 0.11252 0.18922 0.134927 0.320763 0.09019297 0.321056 0.134927 0.320763 0.09019398 0.326196 0.09019297 0.321056 0.134927 0.320763 0.13484 0.326197 0.09019398 0.326196 0.13484 0.326197 0.1125169 0.34856 0.09019398 0.326196 0.13484 0.326197 0.13484 0.34856 0.1125169 0.34856 0.1125169 0.34856 0.13484 0.34856 0.13484 0.389645 0.1125169 0.34856 0.13484 0.389645 0.112516 0.389644 0.1348389 0.422371 0.112516 0.389644 0.13484 0.389645 0.1348389 0.422371 0.112516 0.422371 0.112516 0.389644 0.1348389 0.460461 0.112516 0.422371 0.1348389 0.422371 0.1348389 0.460461 0.112515 0.460461 0.112516 0.422371 0.134838 0.491865 0.112515 0.460461 0.1348389 0.460461 0.134838 0.491865 0.112515 0.491865 0.112515 0.460461 0.112515 0.491865 0.134838 0.491865 0.134838 0.499998 0.134838 0.499998 0.090191 0.499998 0.112515 0.491865 0.112515 0.491865 0.090191 0.499998 0.090191 0.491864 0.112515 0.491865 0.090191 0.491864 0.09019196 0.460461 0.112515 0.491865 0.09019196 0.460461 0.112515 0.460461 0.112515 0.460461 0.09019196 0.460461 0.09019297 0.42237 0.112515 0.460461 0.09019297 0.42237 0.112516 0.422371 0.112516 0.422371 0.09019297 0.42237 0.09019297 0.389644 0.112516 0.422371 0.09019297 0.389644 0.112516 0.389644 0.09019398 0.348559 0.112516 0.389644 0.09019297 0.389644 0.09019398 0.348559 0.1125169 0.34856 0.112516 0.389644 0.1125169 0.34856 0.09019398 0.348559 0.09019398 0.326196 0.430858 0.273064 0.449033 0.370026 0.413166 0.369735 0.067873 0.1892189 0.09019297 0.321056 0.04554694 0.321056 0.09019297 0.321056 0.04554796 0.326195 0.04554694 0.321056 0.09019297 0.321056 0.09019398 0.326196 0.04554796 0.326195 0.09019398 0.326196 0.06787097 0.348559 0.04554796 0.326195 0.09019398 0.326196 0.09019398 0.348559 0.06787097 0.348559 0.06787097 0.348559 0.09019398 0.348559 0.09019297 0.389644 0.06787097 0.348559 0.09019297 0.389644 0.06786996 0.389644 0.09019297 0.42237 0.06786996 0.389644 0.09019297 0.389644 0.09019297 0.42237 0.067869 0.42237 0.06786996 0.389644 0.09019196 0.460461 0.067869 0.42237 0.09019297 0.42237 0.09019196 0.460461 0.067869 0.46046 0.067869 0.42237 0.090191 0.491864 0.067869 0.46046 0.09019196 0.460461 0.090191 0.491864 0.06786799 0.491864 0.067869 0.46046 0.06786799 0.491864 0.090191 0.491864 0.090191 0.499998 0.090191 0.499998 0.04554498 0.499997 0.06786799 0.491864 0.06786799 0.491864 0.04554498 0.499997 0.04554498 0.491864 0.06786799 0.491864 0.04554498 0.491864 0.04554599 0.46046 0.06786799 0.491864 0.04554599 0.46046 0.067869 0.46046 0.067869 0.46046 0.04554599 0.46046 0.04554599 0.422369 0.067869 0.46046 0.04554599 0.422369 0.067869 0.42237 0.067869 0.42237 0.04554599 0.422369 0.04554694 0.389643 0.067869 0.42237 0.04554694 0.389643 0.06786996 0.389644 0.04554796 0.348559 0.06786996 0.389644 0.04554694 0.389643 0.04554796 0.348559 0.06787097 0.348559 0.06786996 0.389644 0.06787097 0.348559 0.04554796 0.348559 0.04554796 0.326195 0.431128 0.491716 0.477994 0.473606 0.430962 0.426715 0.477994 0.473606 0.49731 0.426549 0.430962 0.426715 0.49731 0.426549 0.47776 0.38452 0.430962 0.426715 0.47776 0.38452 0.449033 0.370026 0.430962 0.426715 0.413166 0.369735 0.430962 0.426715 0.449033 0.370026 0.38393 0.384754 0.430962 0.426715 0.413166 0.369735 0.38393 0.384754 0.364614 0.426881 0.430962 0.426715 0.364614 0.426881 0.384164 0.473841 0.430962 0.426715 0.384164 0.473841 0.431128 0.491716 0.430962 0.426715</float_array>
          <technique_common>
            <accessor source="#medkit_small_bday-mesh-map-0-array" count="1020" stride="2">
              <param name="S" type="float"/>
              <param name="T" type="float"/>
            </accessor>
          </technique_common>
        </source>
        <vertices id="medkit_small_bday-mesh-vertices">
          <input semantic="POSITION" source="#medkit_small_bday-mesh-positions"/>
        </vertices>
        <triangles material="medkit_birthday-material" count="340">
          <input semantic="VERTEX" source="#medkit_small_bday-mesh-vertices" offset="0"/>
          <input semantic="NORMAL" source="#medkit_small_bday-mesh-normals" offset="1"/>
          <input semantic="TEXCOORD" source="#medkit_small_bday-mesh-map-0" offset="2" set="0"/>
          <p>0 0 0 1 0 1 2 0 2 4 1 3 5 1 4 6 1 5 7 1 6 8 1 7 9 1 8 11 1 9 12 1 10 13 1 11 14 1 12 15 1 13 16 1 14 17 1 15 18 1 16 19 1 17 20 1 18 21 1 19 22 1 20 23 1 21 24 1 22 25 1 23 26 1 24 27 1 25 28 1 26 28 2 27 29 2 28 27 2 29 28 3 30 30 3 31 29 3 32 31 4 33 32 5 34 33 6 35 31 4 36 34 7 37 32 5 38 31 8 39 29 9 40 30 10 41 31 8 42 33 11 43 29 9 44 15 12 45 35 13 46 36 14 47 15 12 48 22 15 49 35 13 50 37 16 51 35 17 52 38 18 53 37 16 54 36 19 55 35 17 56 37 20 57 39 21 58 40 22 59 37 20 60 38 23 61 39 21 62 40 24 63 41 25 64 42 26 65 40 24 66 39 27 67 41 25 68 34 28 69 41 29 70 32 30 71 34 28 72 42 31 73 41 29 74 43 32 75 44 33 76 45 34 77 43 32 78 46 35 79 44 33 80 47 36 81 48 37 82 49 38 83 47 36 84 50 39 85 48 37 86 51 40 87 52 41 88 53 42 89 51 40 90 54 43 91 52 41 92 55 44 93 56 45 94 57 46 95 55 44 96 58 47 97 56 45 98 59 48 99 60 49 100 61 50 101 59 48 102 62 51 103 60 49 104 63 52 105 64 53 106 65 54 107 63 52 108 66 55 109 64 53 110 67 56 111 68 57 112 69 58 113 67 56 114 70 59 115 68 57 116 71 60 117 72 61 118 73 62 119 71 60 120 74 63 121 72 61 122 75 64 123 76 65 124 77 66 125 75 64 126 78 67 127 76 65 128 79 68 129 80 69 130 81 70 131 79 68 132 82 71 133 80 69 134 83 72 135 84 73 136 85 74 137 83 72 138 86 75 139 84 73 140 87 76 141 88 77 142 89 78 143 87 76 144 90 79 145 88 77 146 91 80 147 92 81 148 93 82 149 91 80 150 94 83 151 92 81 152 95 84 153 96 85 154 97 86 155 95 84 156 98 87 157 96 85 158 99 88 159 100 89 160 101 90 161 99 88 162 102 91 163 100 89 164 103 92 165 104 93 166 105 94 167 103 92 168 106 95 169 104 93 170 104 96 171 99 96 172 101 96 173 104 97 174 106 97 175 99 97 176 100 98 177 95 98 178 97 98 179 100 99 180 102 99 181 95 99 182 96 100 183 91 100 184 93 100 185 96 101 186 98 101 187 91 101 188 92 102 189 87 102 190 89 102 191 92 103 192 94 103 193 87 103 194 88 104 195 83 104 196 85 104 197 88 105 198 90 105 199 83 105 200 84 106 201 79 107 202 81 108 203 84 109 204 86 110 205 79 111 206 80 112 207 75 113 208 77 114 209 80 115 210 82 116 211 75 117 212 76 118 213 71 119 214 73 120 215 76 121 216 78 122 217 71 123 218 72 124 219 67 125 220 69 126 221 72 127 222 74 128 223 67 129 224 68 130 225 63 130 226 65 130 227 68 131 228 70 131 229 63 131 230 64 132 231 59 132 232 61 132 233 64 133 234 66 133 235 59 133 236 60 134 237 55 134 238 57 134 239 60 135 240 62 135 241 55 135 242 56 136 243 51 136 244 53 136 245 56 137 246 58 137 247 51 137 248 52 138 249 47 138 250 49 138 251 52 139 252 54 139 253 47 139 254 48 140 255 43 140 256 45 140 257 48 141 258 50 141 259 43 141 260 103 142 261 44 142 262 46 142 263 103 143 264 105 143 265 44 143 266 64 144 267 61 145 268 65 146 269 53 147 270 65 146 271 61 145 272 49 148 273 65 146 274 53 147 275 52 149 276 49 148 277 53 147 278 60 150 279 57 151 280 61 145 281 53 147 282 61 145 283 57 151 284 56 144 285 53 147 286 57 151 287 48 144 288 45 152 289 49 148 290 44 153 291 105 154 292 45 152 293 104 155 294 101 156 295 105 154 296 92 144 297 89 157 298 93 158 299 89 157 300 97 159 301 93 158 302 89 157 303 85 160 304 97 159 305 101 156 306 97 159 307 85 160 308 101 156 309 85 160 310 81 161 311 105 154 312 101 156 313 81 161 314 105 154 315 81 161 316 77 162 317 45 152 318 105 154 319 77 162 320 45 152 321 77 162 322 73 163 323 49 148 324 45 152 325 73 163 326 49 148 327 73 163 328 69 164 329 49 148 330 69 164 331 65 146 332 68 165 333 65 146 334 69 164 335 72 166 336 69 164 337 73 163 338 100 167 339 97 159 340 101 156 341 96 144 342 93 158 343 97 159 344 84 144 345 81 161 346 85 160 347 76 144 348 73 163 349 77 162 350 88 144 351 85 160 352 89 157 353 80 144 354 77 162 355 81 161 356 107 168 357 108 169 358 109 170 359 109 170 360 108 169 361 110 171 362 109 170 363 110 171 364 111 172 365 112 173 366 111 172 367 110 171 368 112 173 369 113 174 370 111 172 371 114 175 372 113 174 373 112 173 374 114 175 375 115 176 376 113 174 377 116 177 378 115 176 379 114 175 380 116 177 381 117 178 382 115 176 383 117 178 384 116 177 385 118 179 386 118 179 387 119 180 388 117 178 389 117 178 390 119 181 391 120 182 392 117 178 393 120 182 394 121 183 395 117 178 396 121 183 397 115 176 398 115 176 399 121 183 400 122 184 401 115 176 402 122 184 403 113 174 404 113 174 405 122 184 406 123 185 407 113 174 408 123 185 409 111 172 410 124 186 411 111 172 412 123 185 413 124 186 414 109 170 415 111 172 416 109 170 417 124 186 418 125 187 419 107 168 420 109 170 421 125 187 422 126 188 423 107 168 424 125 187 425 126 188 426 125 187 427 127 189 428 128 190 429 126 188 430 127 189 431 129 191 432 108 192 433 107 193 434 108 192 435 129 191 436 130 194 437 108 192 438 130 194 439 110 195 440 131 196 441 110 195 442 130 194 443 131 196 444 112 197 445 110 195 446 132 198 447 112 197 448 131 196 449 132 198 450 114 199 451 112 197 452 133 200 453 114 199 454 132 198 455 133 200 456 116 201 457 114 199 458 133 200 459 118 202 460 116 201 461 134 203 462 118 204 463 133 200 464 133 200 465 135 205 466 134 203 467 135 205 468 133 200 469 132 198 470 135 205 471 132 198 472 136 206 473 136 206 474 132 198 475 131 196 476 136 206 477 131 196 478 137 207 479 137 207 480 131 196 481 130 194 482 137 207 483 130 194 484 138 208 485 129 191 486 138 208 487 130 194 488 129 191 489 139 209 490 138 208 491 140 210 492 139 209 493 129 191 494 140 210 495 129 191 496 107 193 497 140 210 498 107 193 499 126 211 500 140 210 501 126 211 502 141 212 503 128 213 504 141 212 505 126 211 506 142 214 507 22 215 508 27 216 509 35 217 510 22 215 511 142 214 512 38 218 513 35 217 514 142 214 515 39 219 516 38 218 517 142 214 518 41 220 519 39 219 520 142 214 521 32 221 522 41 220 523 142 214 524 33 222 525 32 221 526 142 214 527 29 223 528 33 222 529 142 214 530 29 223 531 142 214 532 27 216 533 128 224 534 143 225 535 144 226 536 145 227 537 144 226 538 143 225 539 145 227 540 146 228 541 144 226 542 145 227 543 147 229 544 146 228 545 147 229 546 148 230 547 146 228 548 148 230 549 147 229 550 149 231 551 148 230 552 149 231 553 150 232 554 151 233 555 150 232 556 149 231 557 151 233 558 152 234 559 150 232 560 153 235 561 152 234 562 151 233 563 153 235 564 154 236 565 152 234 566 155 237 567 154 236 568 153 235 569 155 237 570 156 238 571 154 236 572 155 237 573 157 239 574 156 238 575 158 240 576 157 241 577 155 237 578 155 237 579 159 242 580 158 240 581 159 242 582 155 237 583 153 235 584 159 242 585 153 235 586 160 243 587 160 243 588 153 235 589 151 233 590 160 243 591 151 233 592 161 244 593 161 244 594 151 233 595 149 231 596 161 244 597 149 231 598 162 245 599 147 229 600 162 245 601 149 231 602 147 229 603 163 246 604 162 245 605 145 227 606 163 246 607 147 229 608 164 247 609 165 248 610 166 249 611 165 248 612 164 247 613 167 250 614 165 248 615 167 250 616 168 251 617 169 252 618 168 251 619 167 250 620 169 252 621 170 253 622 168 251 623 171 254 624 170 253 625 169 252 626 171 254 627 172 255 628 170 253 629 173 256 630 172 255 631 171 254 632 173 256 633 174 257 634 172 255 635 173 256 636 175 258 637 174 257 638 119 259 639 175 260 640 173 256 641 173 256 642 120 261 643 119 259 644 120 261 645 173 256 646 171 254 647 120 261 648 171 254 649 121 262 650 121 262 651 171 254 652 169 252 653 121 262 654 169 252 655 122 263 656 122 263 657 169 252 658 167 250 659 122 263 660 167 250 661 123 264 662 164 247 663 123 264 664 167 250 665 164 247 666 124 265 667 123 264 668 125 266 669 124 265 670 164 247 671 125 266 672 164 247 673 166 249 674 127 267 675 125 266 676 166 249 677 127 267 678 166 249 679 176 268 680 128 269 681 127 267 682 176 268 683 2 270 684 15 270 685 28 270 686 177 271 687 178 272 688 179 273 689 177 271 690 180 274 691 178 272 692 146 275 693 178 272 694 180 274 695 146 275 696 180 274 697 181 276 698 146 275 699 181 276 700 144 277 701 128 278 702 144 277 703 181 276 704 146 275 705 148 279 706 178 272 707 178 272 708 148 279 709 150 280 710 178 272 711 150 280 712 179 273 713 152 281 714 179 273 715 150 280 716 152 281 717 182 282 718 179 273 719 154 283 720 182 282 721 152 281 722 154 283 723 183 284 724 182 282 725 156 285 726 183 284 727 154 283 728 156 285 729 184 286 730 183 284 731 184 286 732 156 285 733 157 287 734 157 287 735 185 288 736 184 286 737 184 286 738 185 289 739 186 290 740 187 291 741 184 286 742 186 290 743 187 291 744 183 284 745 184 286 746 183 284 747 187 291 748 188 292 749 183 284 750 188 292 751 182 282 752 182 282 753 188 292 754 189 293 755 182 282 756 189 293 757 179 273 758 177 271 759 179 273 760 189 293 761 180 294 762 177 295 763 190 296 764 190 296 765 177 295 766 189 297 767 190 296 768 189 297 769 191 298 770 188 299 771 191 298 772 189 297 773 188 299 774 192 300 775 191 298 776 187 301 777 192 300 778 188 299 779 187 301 780 193 302 781 192 300 782 186 303 783 193 302 784 187 301 785 186 303 786 194 304 787 193 302 788 194 304 789 186 303 790 185 305 791 185 305 792 134 306 793 194 304 794 194 304 795 134 307 796 135 308 797 194 304 798 135 308 799 136 309 800 194 304 801 136 309 802 193 302 803 193 302 804 136 309 805 137 310 806 193 302 807 137 310 808 192 300 809 192 300 810 137 310 811 138 311 812 192 300 813 138 311 814 191 298 815 139 312 816 191 298 817 138 311 818 139 312 819 190 296 820 191 298 821 139 312 822 140 313 823 190 296 824 180 294 825 190 296 826 140 313 827 180 294 828 140 313 829 141 314 830 180 294 831 141 314 832 181 315 833 128 316 834 181 315 835 141 314 836 22 317 837 15 317 838 2 317 839 128 318 840 176 319 841 195 320 842 176 319 843 196 321 844 195 320 845 176 319 846 166 322 847 196 321 848 166 322 849 197 323 850 196 321 851 166 322 852 165 324 853 197 323 854 197 323 855 165 324 856 168 325 857 197 323 858 168 325 859 198 326 860 170 327 861 198 326 862 168 325 863 170 327 864 199 328 865 198 326 866 172 329 867 199 328 868 170 327 869 172 329 870 200 330 871 199 328 872 174 331 873 200 330 874 172 329 875 174 331 876 201 332 877 200 330 878 201 332 879 174 331 880 175 333 881 175 333 882 202 334 883 201 332 884 201 332 885 202 335 886 203 336 887 201 332 888 203 336 889 204 337 890 201 332 891 204 337 892 200 330 893 200 330 894 204 337 895 205 338 896 200 330 897 205 338 898 199 328 899 199 328 900 205 338 901 206 339 902 199 328 903 206 339 904 198 326 905 207 340 906 198 326 907 206 339 908 207 340 909 197 323 910 198 326 911 197 323 912 207 340 913 196 321 914 2 341 915 27 341 916 22 341 917 128 342 918 195 343 919 143 344 920 195 343 921 145 345 922 143 344 923 195 343 924 196 346 925 145 345 926 196 346 927 208 347 928 145 345 929 196 346 930 207 348 931 208 347 932 208 347 933 207 348 934 206 349 935 208 347 936 206 349 937 209 350 938 205 351 939 209 350 940 206 349 941 205 351 942 210 352 943 209 350 944 204 353 945 210 352 946 205 351 947 204 353 948 211 354 949 210 352 950 203 355 951 211 354 952 204 353 953 203 355 954 212 356 955 211 354 956 212 356 957 203 355 958 202 357 959 202 357 960 158 358 961 212 356 962 212 356 963 158 359 964 159 360 965 212 356 966 159 360 967 160 361 968 212 356 969 160 361 970 211 354 971 211 354 972 160 361 973 161 362 974 211 354 975 161 362 976 210 352 977 210 352 978 161 362 979 162 363 980 210 352 981 162 363 982 209 350 983 163 364 984 209 350 985 162 363 986 163 364 987 208 347 988 209 350 989 208 347 990 163 364 991 145 345 992 42 365 993 34 366 994 213 367 995 34 366 996 31 368 997 213 367 998 31 368 999 30 369 1000 213 367 1001 30 369 1002 28 370 1003 213 367 1004 15 371 1005 213 367 1006 28 370 1007 36 372 1008 213 367 1009 15 371 1010 36 372 1011 37 373 1012 213 367 1013 37 373 1014 40 374 1015 213 367 1016 40 374 1017 42 365 1018 213 367 1019</p>
        </triangles>
      </mesh>
    </geometry>
  </library_geometries>
  <library_controllers>
    <controller id="medkit_small_bday_qc_skeleton_medkit_small_bday-skin" name="medkit_small_bday.qc_skeleton">
      <skin source="#medkit_small_bday-mesh">
        <bind_shape_matrix>1 0 0 0 0 1 0 0 0 0 1 0 0 0 0 1</bind_shape_matrix>
        <source id="medkit_small_bday_qc_skeleton_medkit_small_bday-skin-joints">
          <Name_array id="medkit_small_bday_qc_skeleton_medkit_small_bday-skin-joints-array" count="1">medkit_root</Name_array>
          <technique_common>
            <accessor source="#medkit_small_bday_qc_skeleton_medkit_small_bday-skin-joints-array" count="1" stride="1">
              <param name="JOINT" type="name"/>
            </accessor>
          </technique_common>
        </source>
        <source id="medkit_small_bday_qc_skeleton_medkit_small_bday-skin-bind_poses">
          <float_array id="medkit_small_bday_qc_skeleton_medkit_small_bday-skin-bind_poses-array" count="16">1 0 0 0 0 1 0 0 0 0 1 0 0 0 0 1</float_array>
          <technique_common>
            <accessor source="#medkit_small_bday_qc_skeleton_medkit_small_bday-skin-bind_poses-array" count="1" stride="16">
              <param name="TRANSFORM" type="float4x4"/>
            </accessor>
          </technique_common>
        </source>
        <source id="medkit_small_bday_qc_skeleton_medkit_small_bday-skin-weights">
          <float_array id="medkit_small_bday_qc_skeleton_medkit_small_bday-skin-weights-array" count="214">1 1 1 1 1 1 1 1 1 1 1 1 1 1 1 1 1 1 1 1 1 1 1 1 1 1 1 1 1 1 1 1 1 1 1 1 1 1 1 1 1 1 1 1 1 1 1 1 1 1 1 1 1 1 1 1 1 1 1 1 1 1 1 1 1 1 1 1 1 1 1 1 1 1 1 1 1 1 1 1 1 1 1 1 1 1 1 1 1 1 1 1 1 1 1 1 1 1 1 1 1 1 1 1 1 1 1 1 1 1 1 1 1 1 1 1 1 1 1 1 1 1 1 1 1 1 1 1 1 1 1 1 1 1 1 1 1 1 1 1 1 1 1 1 1 1 1 1 1 1 1 1 1 1 1 1 1 1 1 1 1 1 1 1 1 1 1 1 1 1 1 1 1 1 1 1 1 1 1 1 1 1 1 1 1 1 1 1 1 1 1 1 1 1 1 1 1 1 1 1 1 1 1 1 1 1 1 1 1 1 1 1 1 1</float_array>
          <technique_common>
            <accessor source="#medkit_small_bday_qc_skeleton_medkit_small_bday-skin-weights-array" count="214" stride="1">
              <param name="WEIGHT" type="float"/>
            </accessor>
          </technique_common>
        </source>
        <joints>
          <input semantic="JOINT" source="#medkit_small_bday_qc_skeleton_medkit_small_bday-skin-joints"/>
          <input semantic="INV_BIND_MATRIX" source="#medkit_small_bday_qc_skeleton_medkit_small_bday-skin-bind_poses"/>
        </joints>
        <vertex_weights count="214">
          <input semantic="JOINT" source="#medkit_small_bday_qc_skeleton_medkit_small_bday-skin-joints" offset="0"/>
          <input semantic="WEIGHT" source="#medkit_small_bday_qc_skeleton_medkit_small_bday-skin-weights" offset="1"/>
          <vcount>1 1 1 1 1 1 1 1 1 1 1 1 1 1 1 1 1 1 1 1 1 1 1 1 1 1 1 1 1 1 1 1 1 1 1 1 1 1 1 1 1 1 1 1 1 1 1 1 1 1 1 1 1 1 1 1 1 1 1 1 1 1 1 1 1 1 1 1 1 1 1 1 1 1 1 1 1 1 1 1 1 1 1 1 1 1 1 1 1 1 1 1 1 1 1 1 1 1 1 1 1 1 1 1 1 1 1 1 1 1 1 1 1 1 1 1 1 1 1 1 1 1 1 1 1 1 1 1 1 1 1 1 1 1 1 1 1 1 1 1 1 1 1 1 1 1 1 1 1 1 1 1 1 1 1 1 1 1 1 1 1 1 1 1 1 1 1 1 1 1 1 1 1 1 1 1 1 1 1 1 1 1 1 1 1 1 1 1 1 1 1 1 1 1 1 1 1 1 1 1 1 1 1 1 1 1 1 1 1 1 1 1 1 1 </vcount>
          <v>0 0 0 1 0 2 0 3 0 4 0 5 0 6 0 7 0 8 0 9 0 10 0 11 0 12 0 13 0 14 0 15 0 16 0 17 0 18 0 19 0 20 0 21 0 22 0 23 0 24 0 25 0 26 0 27 0 28 0 29 0 30 0 31 0 32 0 33 0 34 0 35 0 36 0 37 0 38 0 39 0 40 0 41 0 42 0 43 0 44 0 45 0 46 0 47 0 48 0 49 0 50 0 51 0 52 0 53 0 54 0 55 0 56 0 57 0 58 0 59 0 60 0 61 0 62 0 63 0 64 0 65 0 66 0 67 0 68 0 69 0 70 0 71 0 72 0 73 0 74 0 75 0 76 0 77 0 78 0 79 0 80 0 81 0 82 0 83 0 84 0 85 0 86 0 87 0 88 0 89 0 90 0 91 0 92 0 93 0 94 0 95 0 96 0 97 0 98 0 99 0 100 0 101 0 102 0 103 0 104 0 105 0 106 0 107 0 108 0 109 0 110 0 111 0 112 0 113 0 114 0 115 0 116 0 117 0 118 0 119 0 120 0 121 0 122 0 123 0 124 0 125 0 126 0 127 0 128 0 129 0 130 0 131 0 132 0 133 0 134 0 135 0 136 0 137 0 138 0 139 0 140 0 141 0 142 0 143 0 144 0 145 0 146 0 147 0 148 0 149 0 150 0 151 0 152 0 153 0 154 0 155 0 156 0 157 0 158 0 159 0 160 0 161 0 162 0 163 0 164 0 165 0 166 0 167 0 168 0 169 0 170 0 171 0 172 0 173 0 174 0 175 0 176 0 177 0 178 0 179 0 180 0 181 0 182 0 183 0 184 0 185 0 186 0 187 0 188 0 189 0 190 0 191 0 192 0 193 0 194 0 195 0 196 0 197 0 198 0 199 0 200 0 201 0 202 0 203 0 204 0 205 0 206 0 207 0 208 0 209 0 210 0 211 0 212 0 213</v>
        </vertex_weights>
      </skin>
    </controller>
  </library_controllers>
  <library_animations>
    <animation id="action_container-medkit_small_bday_qc_skeleton" name="medkit_small_bday.qc_skeleton">
      <animation id="medkit_small_bday_qc_skeleton_idle_005_medkit_root_pose_matrix" name="medkit_small_bday.qc_skeleton">
        <source id="medkit_small_bday_qc_skeleton_idle_005_medkit_root_pose_matrix-input">
          <float_array id="medkit_small_bday_qc_skeleton_idle_005_medkit_root_pose_matrix-input-array" count="30">0 0.04166662 0.08333331 0.125 0.1666666 0.2083333 0.25 0.2916666 0.3333333 0.375 0.4166666 0.4583333 0.5 0.5416667 0.5833333 0.625 0.6666667 0.7083333 0.75 0.7916667 0.8333333 0.875 0.9166667 0.9583333 1 1.041667 1.083333 1.125 1.166667 1.208333</float_array>
          <technique_common>
            <accessor source="#medkit_small_bday_qc_skeleton_idle_005_medkit_root_pose_matrix-input-array" count="30" stride="1">
              <param name="TIME" type="float"/>
            </accessor>
          </technique_common>
        </source>
        <source id="medkit_small_bday_qc_skeleton_idle_005_medkit_root_pose_matrix-output">
          <float_array id="medkit_small_bday_qc_skeleton_idle_005_medkit_root_pose_matrix-output-array" count="480">1 5.67389e-10 -1.2e-5 0 -1.2e-5 4.72824e-5 -1 0 0 1 4.72824e-5 0 0 0 0 1 0.9765227 -1.01853e-5 0.2154142 0 0.2154142 4.61723e-5 -0.9765227 0 0 1 4.72824e-5 0 0 0 0 1 0.9075843 -1.98524e-5 0.4198699 0 0.4198699 4.29127e-5 -0.9075843 0 0 1 4.72824e-5 0 0 0 0 1 0.7961093 -2.86131e-5 0.6051529 0 0.6051529 3.76419e-5 -0.7961093 0 0 1 4.72824e-5 0 0 0 0 1 0.647051 -3.60503e-5 0.7624467 0 0.7624467 3.05941e-5 -0.647051 0 0 1 4.72824e-5 0 0 0 0 1 0.4684401 -4.17738e-5 0.8834953 0 0.8834953 2.2149e-5 -0.4684401 0 0 1 4.72824e-5 0 0 0 0 1 0.2675683 -4.55584e-5 0.9635389 0 0.9635389 1.26513e-5 -0.2675683 0 0 1 4.72824e-5 0 0 0 0 1 0.0536196 -4.72144e-5 0.9985614 0 0.9985614 2.53526e-6 -0.0536196 0 0 1 4.72824e-5 0 0 0 0 1 -0.1618717 -4.66588e-5 0.9868118 0 0.9868118 -7.65368e-6 0.1618717 0 0 1 4.72824e-5 0 0 0 0 1 -0.3702173 -4.39227e-5 0.9289452 0 0.9289452 -1.75048e-5 0.3702173 0 0 1 4.72824e-5 0 0 0 0 1 -0.5616437 -3.91205e-5 0.8273792 0 0.8273792 -2.65558e-5 0.5616437 0 0 1 4.72824e-5 0 0 0 0 1 -0.7260478 -3.25135e-5 0.6876442 0 0.6876442 -3.43293e-5 0.7260478 0 0 1 4.72824e-5 0 0 0 0 1 -0.856894 -2.43737e-5 0.5154927 0 0.5154927 -4.0516e-5 0.856894 0 0 1 4.72824e-5 0 0 0 0 1 -0.9478245 -1.50733e-5 0.3187927 0 0.3187927 -4.48154e-5 0.9478245 0 0 1 4.72824e-5 0 0 0 0 1 -0.9941446 -5.10924e-6 0.108058 0 0.108058 -4.70055e-5 0.9941446 0 0 1 4.72824e-5 0 0 0 0 1 -0.9941318 3.39581e-8 -0.1081755 0 -0.1081755 -3.12074e-7 0.9941318 0 0 1 3.13916e-7 0 0 0 0 1 -0.9474862 1.00389e-7 -0.3197965 0 -0.3197965 -2.97432e-7 0.9474862 0 0 1 3.13916e-7 0 0 0 0 1 -0.856833 1.61853e-7 -0.515594 0 -0.515594 -2.68974e-7 0.856833 0 0 1 3.13916e-7 0 0 0 0 1 -0.7259665 2.1589e-7 -0.6877301 0 -0.6877301 -2.27893e-7 0.7259665 0 0 1 3.13916e-7 0 0 0 0 1 -0.5606882 2.59931e-7 -0.828027 0 -0.828027 -1.76009e-7 0.5606882 0 0 1 3.13916e-7 0 0 0 0 1 -0.3701083 2.91625e-7 -0.9289886 0 -0.9289886 -1.16183e-7 0.3701083 0 0 1 3.13916e-7 0 0 0 0 1 -0.1617549 3.09783e-7 -0.9868309 0 -0.9868309 -5.07775e-8 0.1617549 0 0 1 3.13916e-7 0 0 0 0 1 0.05463211 4.72118e-5 -0.9985065 0 -0.9985065 2.58314e-6 -0.05463211 0 0 1 4.72824e-5 0 0 0 0 1 0.2674545 4.55599e-5 -0.9635705 0 -0.9635705 1.26459e-5 -0.2674545 0 0 1 4.72824e-5 0 0 0 0 1 0.4683367 4.17763e-5 -0.8835501 0 -0.8835501 2.21441e-5 -0.4683367 0 0 1 4.72824e-5 0 0 0 0 1 0.6477515 3.60222e-5 -0.7618517 0 -0.7618517 3.06272e-5 -0.6477515 0 0 1 4.72824e-5 0 0 0 0 1 0.7960378 2.86175e-5 -0.6052469 0 -0.6052469 3.76386e-5 -0.7960378 0 0 1 4.72824e-5 0 0 0 0 1 0.9075747 1.98534e-5 -0.4198908 0 -0.4198908 4.29123e-5 -0.9075747 0 0 1 4.72824e-5 0 0 0 0 1 0.9767203 1.01429e-5 -0.2145167 0 -0.2145167 4.61817e-5 -0.9767203 0 0 1 4.72824e-5 0 0 0 0 1 1 5.67389e-10 -1.2e-5 0 -1.2e-5 4.72824e-5 -1 0 0 1 4.72824e-5 0 0 0 0 1</float_array>
          <technique_common>
            <accessor source="#medkit_small_bday_qc_skeleton_idle_005_medkit_root_pose_matrix-output-array" count="30" stride="16">
              <param name="TRANSFORM" type="float4x4"/>
            </accessor>
          </technique_common>
        </source>
        <source id="medkit_small_bday_qc_skeleton_idle_005_medkit_root_pose_matrix-interpolation">
          <Name_array id="medkit_small_bday_qc_skeleton_idle_005_medkit_root_pose_matrix-interpolation-array" count="30">LINEAR LINEAR LINEAR LINEAR LINEAR LINEAR LINEAR LINEAR LINEAR LINEAR LINEAR LINEAR LINEAR LINEAR LINEAR LINEAR LINEAR LINEAR LINEAR LINEAR LINEAR LINEAR LINEAR LINEAR LINEAR LINEAR LINEAR LINEAR LINEAR LINEAR</Name_array>
          <technique_common>
            <accessor source="#medkit_small_bday_qc_skeleton_idle_005_medkit_root_pose_matrix-interpolation-array" count="30" stride="1">
              <param name="INTERPOLATION" type="name"/>
            </accessor>
          </technique_common>
        </source>
        <sampler id="medkit_small_bday_qc_skeleton_idle_005_medkit_root_pose_matrix-sampler">
          <input semantic="INPUT" source="#medkit_small_bday_qc_skeleton_idle_005_medkit_root_pose_matrix-input"/>
          <input semantic="OUTPUT" source="#medkit_small_bday_qc_skeleton_idle_005_medkit_root_pose_matrix-output"/>
          <input semantic="INTERPOLATION" source="#medkit_small_bday_qc_skeleton_idle_005_medkit_root_pose_matrix-interpolation"/>
        </sampler>
        <channel source="#medkit_small_bday_qc_skeleton_idle_005_medkit_root_pose_matrix-sampler" target="medkit_small_bday_qc_skeleton_medkit_root/transform"/>
      </animation>
    </animation>
  </library_animations>
  <library_visual_scenes>
    <visual_scene id="medkit_small_bday_qc" name="medkit_small_bday.qc">
      <node id="medkit_small_bday_qc_skeleton" name="medkit_small_bday.qc_skeleton" type="NODE">
        <matrix sid="transform">1 0 0 0 0 1 0 0 0 0 1 0 0 0 0 1</matrix>
        <node id="medkit_small_bday_qc_skeleton_medkit_root" name="medkit_root" sid="medkit_root" type="JOINT">
          <matrix sid="transform">1 0 0 0 0 1 0 0 0 0 1 0 0 0 0 1</matrix>
          <extra>
            <technique profile="blender">
              <layer sid="layer" type="string">0</layer>
              <tip_x sid="tip_x" type="float">0</tip_x>
              <tip_y sid="tip_y" type="float">0.000999987</tip_y>
              <tip_z sid="tip_z" type="float">0</tip_z>
            </technique>
          </extra>
        </node>
        <node id="medkit_small_bday" name="medkit_small_bday" type="NODE">
          <matrix sid="transform">1 0 0 0 0 1 0 0 0 0 1 0 0 0 0 1</matrix>
          <instance_controller url="#medkit_small_bday_qc_skeleton_medkit_small_bday-skin">
            <skeleton>#medkit_small_bday_qc_skeleton_medkit_root</skeleton>
            <bind_material>
              <technique_common>
                <instance_material symbol="medkit_birthday-material" target="#medkit_birthday-material">
                  <bind_vertex_input semantic="UVMap" input_semantic="TEXCOORD" input_set="0"/>
                </instance_material>
              </technique_common>
            </bind_material>
          </instance_controller>
        </node>
      </node>
    </visual_scene>
  </library_visual_scenes>
  <scene>
    <instance_visual_scene url="#medkit_small_bday_qc"/>
  </scene>
</COLLADA>