<?xml version="1.0" encoding="utf-8"?>
<COLLADA xmlns="http://www.collada.org/2005/11/COLLADASchema" version="1.4.1" xmlns:xsi="http://www.w3.org/2001/XMLSchema-instance">
  <asset>
    <contributor>
      <author>Blender User</author>
      <authoring_tool>Blender 2.90.1 commit date:2020-09-23, commit time:06:43, hash:3e85bb34d0d7</authoring_tool>
    </contributor>
    <created>2023-10-29T00:10:05</created>
    <modified>2023-10-29T00:10:05</modified>
    <unit name="meter" meter="1"/>
    <up_axis>Z_UP</up_axis>
  </asset>
  <library_effects>
    <effect id="medkit_birthday-effect">
      <profile_COMMON>
        <newparam sid="medkit_birthday_png-surface">
          <surface type="2D">
            <init_from>medkit_birthday_png</init_from>
          </surface>
        </newparam>
        <newparam sid="medkit_birthday_png-sampler">
          <sampler2D>
            <source>medkit_birthday_png-surface</source>
          </sampler2D>
        </newparam>
        <technique sid="common">
          <lambert>
            <emission>
              <color sid="emission">0 0 0 1</color>
            </emission>
            <diffuse>
              <texture texture="medkit_birthday_png-sampler" texcoord="UVMap"/>
            </diffuse>
            <index_of_refraction>
              <float sid="ior">1.45</float>
            </index_of_refraction>
          </lambert>
        </technique>
      </profile_COMMON>
    </effect>
  </library_effects>
  <library_images>
    <image id="medkit_birthday_png" name="medkit_birthday_png">
      <init_from>medkit_birthday.png</init_from>
    </image>
  </library_images>
  <library_materials>
    <material id="medkit_birthday-material" name="medkit_birthday">
      <instance_effect url="#medkit_birthday-effect"/>
    </material>
  </library_materials>
  <library_geometries>
    <geometry id="medkit_medium_bday-mesh" name="medkit_medium_bday">
      <mesh>
        <source id="medkit_medium_bday-mesh-positions">
          <float_array id="medkit_medium_bday-mesh-positions-array" count="930">9.546965 10.30663 4.403656 6.347924 15.80566 6.060822 -4.033071 4.611204 11.26975 -1.44727 14.68268 4.80265 -2.779343 15.13637 1.8936 -0.821802 13.2388 5.448685 -2.190732 15.40813 3.439766 -2.646805 11.55472 0.956375 -2.019477 8.721737 -1.24839 -1.798047 8.513686 -0.86557 -2.902591 11.80027 0.498657 -2.595682 13.79942 1.904846 -2.872853 14.0705 1.395897 -2.316896 13.52833 2.412895 -2.036503 13.25726 2.920074 -1.754482 12.98618 3.426369 -1.470867 12.71509 3.931755 -1.610506 10.5725 2.7799 -1.871536 10.81805 2.325127 -0.902994 7.681472 0.660225 -1.128148 7.889529 0.279602 -2.131267 11.06361 1.869614 -1.575681 8.305633 -0.483299 -1.352379 8.09758 -0.1015779 -2.389705 11.30917 1.413376 -1.185631 12.44402 4.436249 -0.898795 12.17294 4.939842 -1.084476 10.0814 3.687134 -1.348145 10.32695 3.233879 10.55601 4.611213 3.627052 -7.094647 28.94349 11.92418 -5.788777 28.23657 13.7037 -6.655564 29.17621 11.84418 -6.220121 27.99873 13.79512 1.405581 10.07502 -10.9973 -3.962883 12.47451 -7.829857 -1.176345 15.34819 -9.645546 -2.042705 8.620212 -8.774055 -1.641696 4.611195 -9.041656 -11.86726 4.611204 -3.684883 1.882355 4.61119 -11.47222 3.741421 4.61119 -12.24278 3.228384 10.76122 -11.64285 0.328561 16.70362 -10.08096 1.203136 16.83573 -8.450821 3.453362 16.10475 -1.263016 1.116028 16.93525 -8.934418 0.925608 16.93523 -9.372498 6.506303 10.4464 -2.866463 7.295046 4.611204 -3.555023 4.192528 10.82809 -10.06046 4.768496 4.611195 -10.70319 4.113165 10.87846 -10.55274 4.67572 4.611195 -11.19744 3.907223 10.87845 -10.98379 3.460802 16.09581 -1.266495 4.454073 4.611195 -11.62054 -3.151148 3.469667 -13.61289 -9.535424 3.469667 -10.21354 -6.567054 3.469667 -12.33347 -11.85399 3.469677 -7.397583 4.077448 3.469667 -13.36468 7.397541 3.469667 -11.85394 0.479488 3.469667 -13.96462 -15.76207 4.967614 -10.03069 -12.62886 4.967601 -13.7684 -8.634983 4.967601 -16.56779 -4.052721 4.967601 -18.23821 0.805761 4.967592 -18.66567 5.609331 4.967592 -17.8211 10.03065 4.967592 -15.76203 10.21352 3.469667 -9.535401 12.33345 3.469667 -6.567032 13.9646 3.469677 0.479507 11.85398 3.469677 7.397575 13.3647 3.469677 4.077484 13.61289 3.469667 -3.151131 13.76839 4.967601 -12.62884 16.56778 4.967601 -8.634964 18.2382 4.967601 -4.052666 18.66567 4.967601 0.805794 17.82111 4.967614 5.609375 15.76204 4.967614 10.03068 9.535436 3.469677 10.21353 12.62887 4.967614 13.76842 6.567062 3.469677 12.33347 8.634996 4.967624 16.56782 3.151161 3.469686 13.61288 4.052705 4.967624 18.23821 -0.479499 3.469686 13.96461 -7.397554 3.469686 11.85396 -4.077471 3.469686 13.36468 -10.21353 3.469686 9.535416 -12.33343 3.469677 6.567047 -13.9646 3.469677 -0.479507 -13.36468 3.469677 -4.077477 -13.61288 3.469677 3.151154 -0.805769 4.967624 18.66567 -5.609345 4.967624 17.82111 -10.03065 4.967624 15.76205 -13.76837 4.967624 12.62886 -16.5678 4.967624 8.634972 -18.23821 4.967624 4.052689 -18.66569 4.967614 -0.805809 -17.82111 4.967614 -5.609375 -9.895156 4.611199 -10.74269 -13.94077 4.611213 -4.355873 -6.77758 4.611199 -12.93769 -12.3384 4.611213 -7.815598 -14.59316 4.611213 -0.599312 -14.25102 4.611213 3.19809 -10.74267 4.611222 9.895127 -4.355865 4.611222 13.94077 -7.815576 4.611222 12.33839 -12.93768 4.611213 6.777557 -17.11746 5.538373 -5.45118 -17.94507 5.538373 -0.835114 -17.54972 5.538382 3.837852 -15.95842 5.538382 8.249299 -13.27955 5.538382 12.09856 -9.695735 5.538382 15.12333 -5.451146 5.538382 17.11745 -0.835087 5.538382 17.94506 -0.599279 4.611222 14.59315 3.837887 5.538382 17.54974 3.198106 4.611222 14.25101 8.249321 5.538382 15.95843 6.777575 4.611213 12.93771 9.895145 4.611213 10.74269 -0.835579 5.349352 18.39643 3.954259 5.349352 17.98588 -5.568447 5.349352 17.5533 -9.921832 5.349352 15.51398 -13.59907 5.349352 12.41737 -16.34962 5.349352 8.474602 -17.98584 5.349352 3.954216 -18.39643 5.349342 -0.835617 -17.5533 5.349342 -5.568474 -15.51397 5.349342 -9.921853 -15.12332 5.538373 -9.695748 8.474602 5.349352 16.34965 -12.41743 5.349333 -13.59914 -8.474625 5.349333 -16.34964 -3.954283 5.349333 -17.98589 0.835569 5.349333 -18.39642 5.568432 5.34932 -17.5533 0.835081 5.53836 -17.94505 5.451132 5.53835 -17.11744 4.355843 4.611199 -13.94077 7.815567 4.611199 -12.33837 10.74267 4.611199 -9.895134 9.695727 5.53836 -15.12332 9.921826 5.34932 -15.51397 13.59912 5.349333 -12.41737 -12.09859 5.53836 -13.27959 -8.249337 5.53836 -15.95843 -3.837894 5.53836 -17.54973 0.599293 4.611199 -14.59314 -3.198112 4.611199 -14.25101 16.34962 5.349333 -8.474595 17.98588 5.349333 -3.954216 18.39642 5.349333 0.835617 17.5533 5.349342 5.568481 15.51397 5.349342 9.92186 12.41741 5.349342 13.59914 13.27957 5.53836 -12.09855 15.95842 5.53836 -8.249291 17.54973 5.53836 -3.837845 17.94507 5.53836 0.835121 17.11745 5.538373 5.451195 15.12333 5.538373 9.695763 12.09858 5.538373 13.27959 12.33839 4.611213 7.81559 13.94078 4.611213 4.355881 14.59315 4.611213 0.599319 14.251 4.611199 -3.198082 12.93766 4.611199 -6.777565 -2.652563 21.5199 9.21946 -0.989347 14.86169 4.648392 -3.100583 21.30397 9.334244 -3.630956 24.17816 11.03815 -4.076247 23.96336 11.15005 -4.634948 26.22405 12.38927 -5.073751 25.99765 12.49064 -1.730713 15.58714 3.28669 -3.623968 22.51965 7.293983 -4.63916 25.23757 8.976342 -5.588013 27.24138 10.39281 -4.075078 22.30372 7.40731 -5.090043 25.02525 9.081826 -6.033489 27.01868 10.48543 -3.195297 7.741981 -11.68927 -3.832216 7.773176 -11.37011 -3.532333 8.620185 -11.78855 -4.229736 8.300556 -11.16706 -4.154732 9.015152 -11.19852 -3.648811 9.498407 -11.44144 -3.008662 9.467206 -11.75415 -2.611574 8.939846 -11.95801 -2.689837 8.225216 -11.93302 -2.722088 7.099096 -11.17201 -1.849766 7.936115 -11.59321 -2.238489 6.863767 -10.37344 -1.23611 7.830272 -10.85761 -1.879071 7.09907 -9.503746 -1.014998 7.936087 -9.920853 -1.088642 9.259499 -10.8951 -1.716742 9.173853 -11.63017 -2.407757 10.08727 -11.27495 -3.518618 10.14129 -10.73735 -4.392007 9.304308 -10.31853 -4.515434 8.066561 -10.26215 -3.823451 7.15313 -10.615 -1.891651 10.31422 -10.48215 -3.175549 10.37662 -9.862961 -4.179415 9.410139 -9.381882 -4.314038 7.980898 -9.318535 -3.509632 6.926174 -9.728356 -2.980932 7.153139 -8.946473 -3.681955 8.066557 -8.58915 -3.570744 9.304327 -8.639496 -2.705623 10.14129 -9.054268 -1.594192 10.08728 -9.592133 -0.894168 9.17383 -9.951752 -0.449882 7.265368 1.419823 -0.676896 7.47342 1.040306 -1.507222 10.92315 2.173492 -1.290821 13.04671 3.20224 -1.246665 10.67759 2.627884 -1.007738 12.77562 3.706993 -2.026953 7.212576 -9.719048 -1.226261 7.98711 -10.10542 -0.735185 7.640885 -10.73906 -1.11317 9.132524 -10.13547 -1.759842 9.977818 -9.803338 -0.553579 9.412735 -10.7801 0.05872797 7.294685 -10.76861 -1.975645 6.442739 -10.13936 -3.04686 7.262584 -9.204018 -1.616992 5.672882 -9.957192 -3.549643 6.520074 -9.335755 -4.549333 7.827662 -8.827012 -3.694388 8.107876 -8.873848 -4.387463 9.599501 -8.90786 -3.589575 9.253254 -8.920578 -2.787958 10.02784 -9.304963 -3.144971 10.79768 -9.502762 -1.551255 10.72032 -10.26655 0.304952 9.692916 -10.81251 0.693452 7.151266 -10.17597 -1.155631 5.353995 -9.280175 -3.742805 5.777573 -8.859902 -5.099699 7.547447 -8.170816 -4.889573 9.945744 -8.287674 -3.210118 11.56753 -9.090378 -1.048205 11.46282 -10.11468 0.95697 9.809002 -10.21456 -0.550917 11.77037 -9.436593 -2.949346 11.8864 -8.305642 -4.802894 10.08915 -7.420319 -5.022098 7.431393 -7.292107 -3.509735 5.470012 -8.059594 -2.024368 11.41426 1.262466 -1.852153 13.58887 2.190056 -1.766451 11.1687 1.718346 -1.572297 13.31779 2.696594 -0.721647 10.18649 3.534401 -0.436738 12.23346 4.713806 -0.358527 13.29932 5.225601 -2.28098 11.65981 0.805862 -2.130414 13.85995 1.682648 -0.723056 12.50454 4.210846 -0.984813 10.43204 3.081512 -2.312335 15.19689 1.675011 -2.407033 14.13103 1.174355 -2.536267 11.90536 0.348503 -12.03819 5.806129 -9.94487 -13.22141 5.914221 -12.65086 -13.09372 6.041903 -12.70324 -12.11767 5.756468 -9.917412 -13.38235 5.911612 -12.57177 -12.20314 5.778008 -9.888703 -12.24457 5.858139 -9.875611 -13.48241 6.035645 -12.51258 -12.21769 5.949924 -9.885773 -13.46299 6.213632 -12.50796 -12.13818 5.999595 -9.913155 -13.33534 6.341332 -12.56032 -13.1742 6.343929 -12.63898 -12.05267 5.978043 -9.941773 -13.0741 6.219896 -12.69823 -12.01126 5.897902 -9.954926 -8.628418 4.465874 -2.458466 -12.36765 5.3507 -10.99188 -12.00623 5.715931 -11.14053 -9.046811 4.196235 -2.311058 -12.82715 5.343263 -10.76414 -9.514647 4.313216 -2.148979 -9.758683 4.748293 -2.069397 -13.11674 5.698002 -10.59303 -9.635597 5.246593 -2.117775 -13.06692 6.2071 -10.57867 -9.216715 5.516227 -2.263565 -12.70575 6.572346 -10.72713 -12.24464 6.579767 -10.95151 -8.747765 5.399261 -2.422501 -11.9548 6.225027 -11.12282 -8.50424 4.964177 -2.5037 -12.53617 5.961515 -10.85882 -13.27831 6.12777 -12.60548</float_array>
          <technique_common>
            <accessor source="#medkit_medium_bday-mesh-positions-array" count="310" stride="3">
              <param name="X" type="float"/>
              <param name="Y" type="float"/>
              <param name="Z" type="float"/>
            </accessor>
          </technique_common>
        </source>
        <source id="medkit_medium_bday-mesh-normals">
          <float_array id="medkit_medium_bday-mesh-normals-array" count="1392">0.4529314 -0.00517708 0.8915304 -0.8998472 -0.2174671 0.3781314 -0.8973892 -0.1392491 0.4186911 -0.8973876 -0.1392421 0.4186969 -0.899807 -0.2177381 0.3780708 -0.8863922 -0.2984678 0.3538727 -0.8634127 -0.4194596 0.2803074 -0.8633968 -0.4194929 0.2803068 -0.8863846 -0.2984911 0.3538723 -0.897388 -0.1392288 0.4187007 -0.8973909 -0.139223 0.4186965 -0.897384 -0.1392142 0.4187139 -0.8973859 -0.1392284 0.4187052 -0.8973718 -0.1392499 0.4187284 -0.8973809 -0.1392467 0.4187099 -0.8863743 -0.2985154 0.3538774 -0.8863577 -0.2985423 0.3538966 -0.8633951 -0.4195732 0.2801915 -0.8634203 -0.4195429 0.2801594 -0.8863753 -0.2984985 0.3538892 -0.8633826 -0.419524 0.2803037 -0.8633916 -0.4195145 0.2802902 -0.8863867 -0.2984833 0.3538733 -0.8973809 -0.1392491 0.418709 -0.8973764 -0.1392724 0.418711 -0.8863862 -0.2985244 0.3538398 -0.8864073 -0.2983746 0.3539137 0.4637005 -0.03854316 0.8851534 -0.3157406 0.7793012 0.5412926 -0.3143013 0.7803369 0.5406377 -0.3156879 0.7793402 0.541267 -0.3143916 0.7802732 0.5406771 -0.4516426 0.0134772 -0.8920972 -0.5137889 -0.009583234 -0.8578633 -0.4516308 0.01348322 -0.8921031 -0.5137937 -0.009589195 -0.8578603 -0.513789 -0.009574592 -0.8578633 -0.451636 0.01348322 -0.8921005 -0.451642 0.01347595 -0.8920975 0.1755483 0.1086047 -0.9784621 0.1584391 0.2128567 -0.964152 0.1396286 0.3144643 -0.9389442 -0.6031387 0.7522168 0.2653181 -0.6031538 0.7522744 0.2651203 -0.603169 0.7523049 0.2649995 -0.6032629 0.7522932 0.2648187 -0.603154 0.7522662 0.2651434 -0.6031567 0.7522462 0.265194 -0.60316 0.7522374 0.2652115 0.9006012 0.1900174 -0.3909106 0.8835903 0.3461311 -0.3153753 0.8601096 0.3671768 -0.3541085 0.9210333 0.1657209 -0.3524691 0.9300866 0.3075349 -0.2009015 0.9627665 0.1240984 -0.2401676 0.9135521 0.3032424 -0.2710475 0.9441483 0.1164875 -0.3082446 0.7592343 0.3120551 -0.5711261 0.8148643 0.5146469 -0.2667115 0.7900547 0.5316691 -0.3051909 0.8591915 0.4812927 -0.1736302 0.8484988 0.4796281 -0.223622 0.7019991 0.4840155 -0.5224235 0.7897901 0.1291492 -0.5996266 -0.02117556 -0.9966456 -0.07905232 -0.0578711 -0.996645 -0.05787664 -0.02118301 -0.9966444 -0.07906514 -0.07904207 -0.9966467 -0.02116537 0.02118974 -0.9966447 -0.07906037 0.02116876 -0.9966471 -0.0790351 -0.02118879 -0.9966465 -0.07903724 -0.1399054 -0.9868646 -0.08077639 -0.1142317 -0.9868646 -0.1142342 -0.08077299 -0.9868643 -0.1399101 -0.04181081 -0.9868648 -0.1560442 1.95764e-6 -0.9868649 -0.1615478 0.0418142 -0.9868651 -0.156042 0.08077651 -0.9868649 -0.1399025 0.05788058 -0.996645 -0.05786907 0.05786406 -0.9966459 -0.05786758 0.07905018 -0.9966456 -0.0211789 0.07904189 -0.9966466 0.02116471 0.07905787 -0.9966448 0.02118861 0.07905638 -0.9966453 -0.02117723 0.1142352 -0.9868647 -0.1142301 0.1399098 -0.9868642 -0.08077323 0.1560447 -0.9868648 -0.04180926 0.1615472 -0.9868651 2.92249e-6 0.1560444 -0.9868646 0.04181617 0.1399055 -0.9868645 0.08077812 0.05786949 -0.9966449 0.05788046 0.1142305 -0.9868646 0.1142351 0.02119922 -0.996644 0.07906627 0.08077174 -0.9868642 0.1399112 0.02117675 -0.9966444 0.07906562 0.04180979 -0.9868648 0.156045 0.02118343 -0.9966461 0.0790432 -0.02116709 -0.9966469 0.07903748 -0.02118867 -0.9966449 0.07905787 -0.05788171 -0.9966444 0.05787634 -0.05787062 -0.9966453 0.0578711 -0.07904475 -0.9966459 0.02118772 -0.07905715 -0.996645 -0.02118831 -0.07906156 -0.9966447 0.02117991 -2.57976e-6 -0.9868646 0.1615498 -0.04181474 -0.9868646 0.1560443 -0.0807774 -0.9868646 0.1399049 -0.1142355 -0.9868645 0.1142318 -0.1399103 -0.9868642 0.08077389 -0.1560461 -0.9868645 0.04181075 -0.161548 -0.9868649 -1.20699e-6 -0.156044 -0.9868646 -0.04181438 -1.76355e-5 1 -8.68738e-6 1.72332e-5 1 9.76026e-7 -2.42889e-6 1 1.34185e-5 -3.32296e-6 1 6.75395e-6 -6.03497e-6 1 7.80355e-6 7.55489e-6 1 -8.50763e-6 -3.40492e-6 1 -1.59759e-5 9.87202e-7 1 4.40329e-6 4.47035e-6 1 1.00732e-5 -4.34369e-6 1 1.12653e-5 -0.05809831 0.9981895 -0.01556652 -0.05812734 0.9981878 -0.01556885 -0.05812942 0.9981878 -0.01556247 -0.05210143 0.9981889 0.03007733 -0.05210417 0.9981883 0.03008991 -0.05209946 0.9981896 0.03005665 -0.01555985 0.99819 0.05809247 -0.01557451 0.998188 0.05812245 -6.74278e-6 1 6.58631e-6 -0.01556283 0.9981879 0.05812817 -3.88734e-6 1 6.482e-6 0.03006047 0.998192 0.05204993 1.36197e-5 1 2.60025e-6 -2.30968e-7 1 8.9407e-6 6.1607e-6 0.842255 0.5390793 0.1395379 0.8422477 0.5207189 -0.1395131 0.8422683 0.5206922 -0.269531 0.8422558 0.46686 -0.3811768 0.8422608 0.3811836 -0.4668661 0.8422483 0.2695441 -0.5206938 0.8422651 0.1395259 -0.5390722 0.8422597 5.9437e-6 -0.5206943 0.842267 -0.1395123 -0.466842 0.8422694 -0.2695195 -0.03005099 0.9981902 -0.05209058 0.269554 0.842248 0.466861 0.1958821 0.6535887 0.7310622 0.37844 0.6535691 0.6554623 -1.10269e-6 0.6536639 0.7567852 -0.1958541 0.6537047 0.7309662 -0.3783888 0.653675 0.6553862 -0.5351356 0.6536471 0.5351406 -0.6554347 0.6536068 0.3784223 -0.7310187 0.6536375 0.1958819 -0.756766 0.6536859 0 -0.7309613 0.6537108 -0.1958516 -0.655392 0.6536688 -0.3783894 -0.5159446 0.667005 -0.5374995 -0.3811998 0.8422365 -0.3812146 -0.3784405 0.6535561 -0.6554748 -0.269545 0.8422337 -0.466892 -0.1958904 0.6536075 -0.7310432 -0.1395299 0.8422491 -0.5207188 -1.05789e-5 0.653688 -0.7567643 6.59376e-6 0.8422554 -0.5390787 0.1958681 0.6536878 -0.7309774 0.1395254 0.8422642 -0.5206955 -0.03006207 0.9981895 -0.05209785 0.01558351 0.998187 -0.05813795 -1.09607e-5 1 1.0377e-5 9.6783e-6 1 -2.04891e-6 -8.93325e-6 1 -3.34531e-6 0.05209124 0.9981898 -0.03006482 0.269556 0.8422505 -0.4668552 0.381192 0.8422482 -0.3811964 -0.03007489 0.9981893 -0.05209285 -0.03005725 0.998192 -0.05205041 -0.03007864 0.9981907 -0.05206429 -7.64988e-6 1 -6.68561e-6 3.19211e-6 1 -1.27852e-5 0.3783936 0.653663 -0.6553953 0.5351727 0.6535954 -0.5351667 0.6554893 0.6535394 -0.3784444 0.4668738 0.8422381 -0.2695621 0.7310408 0.653609 -0.1958942 0.520722 0.8422475 -0.1395275 0.7567815 0.6536681 -1.37882e-6 0.5390761 0.8422572 9.34303e-6 0.7309692 0.6537016 0.1958529 0.5206891 0.8422684 0.1395244 0.6553907 0.6536701 0.3783894 0.4668607 0.842253 0.2695385 0.5351663 0.6535975 0.5351704 0.3811868 0.8422501 0.3811976 0.05209273 0.9981892 -0.03007972 0.05209714 0.998189 -0.03007918 0.05812382 0.9981881 0.01556754 0.0581274 0.9981878 0.01556909 0.05809241 0.9981899 0.01556211 0.03005951 0.9981902 0.05208575 0.03008091 0.998189 0.05209618 2.01911e-6 1 8.55327e-6 3.68059e-6 1 6.61612e-6 1.47521e-6 1 5.19119e-6 -5.54323e-6 1 5.77047e-6 8.53837e-6 1 2.37301e-6 0.4407778 -0.4135322 0.7966845 0.4407744 -0.4135375 0.7966836 0.4407798 -0.4135147 0.7966925 0.4407576 -0.4135396 0.7966918 0.3963442 -0.3888552 0.8316869 0.3963567 -0.3888566 0.8316802 0.3751325 -0.3461307 0.859924 0.3751785 -0.3460962 0.8599177 0.375174 -0.3460933 0.8599208 0.3751533 -0.3461028 0.8599261 -0.6107152 0.7330067 0.2995468 -0.6107344 0.732997 0.2995315 -0.6107314 0.7329983 0.299534 -0.6107128 0.7330126 0.2995371 -0.6107338 0.7329972 0.2995318 -0.6107338 0.7329967 0.299533 -0.6107338 0.7329969 0.2995326 0.8839396 0.3921083 -0.254759 0.8776192 0.4223394 -0.2267469 0.8839411 0.3921066 -0.2547559 0.8776187 0.4223107 -0.2268019 0.8593448 0.4811073 -0.1733847 0.8591154 0.4813902 -0.1737359 0.8295232 0.5467051 -0.1140393 0.829517 0.5467171 -0.1140261 0.8297215 0.5464264 -0.1139327 0.8295627 0.5466511 -0.11401 -0.4051473 0.3711708 -0.8355166 -0.4052044 0.3711513 -0.8354976 -0.405172 0.3711608 -0.8355091 -0.4051837 0.3711578 -0.8355047 -0.3750678 0.4141545 -0.8293373 -0.3750712 0.4141407 -0.8293426 -0.3750721 0.4141461 -0.8293395 -0.3750669 0.4141542 -0.8293379 -0.3750712 0.4141484 -0.8293389 -0.3750418 0.4141612 -0.8293457 -0.8773634 -0.4220584 0.2282548 -0.8836501 -0.3920921 0.2557861 -0.8836498 -0.3920924 0.2557861 -0.8773788 -0.4221199 0.2280818 -0.8591491 -0.4809862 0.1746862 -0.8589594 -0.4812172 0.1749824 -0.8293148 -0.5467908 0.1151385 -0.8293167 -0.5467867 0.1151444 -0.8291829 -0.5469756 0.1152103 -0.8293076 -0.5467993 0.1151511 -0.2379966 -0.4660949 -0.8521228 -0.5824237 -0.4308738 -0.6892971 -0.4516312 0.01347368 -0.8921031 -0.807779 -0.1340972 -0.5740306 -0.7801313 0.2432196 -0.5764023 -0.527197 0.4817212 -0.7000059 -0.1919366 0.4472947 -0.8735491 0.03466492 0.1539184 -0.9874754 0.01619434 -0.2242072 -0.974407 0.03309273 -0.8168179 -0.5759456 0.4695489 -0.3973735 -0.7884277 0.2941939 -0.9441201 -0.148618 0.7939034 -0.4618018 -0.3955461 0.3984733 -0.9133659 0.08355885 0.8799814 -0.4487454 -0.1557573 0.8571829 0.2970238 -0.4207309 0.5117999 0.2594312 -0.8189972 0.1132147 0.7750708 -0.6216493 -0.4730243 0.8210188 -0.3196503 -0.9075161 0.4066827 -0.1049934 -0.9641596 -0.2489659 -0.09171944 -0.5676843 -0.7699744 -0.2913317 0.3936778 0.8992134 -0.1908748 -0.2962321 0.9440982 0.1446564 -0.7962333 0.4617705 0.3908715 -0.8551105 -0.2970653 0.424898 -0.3912856 -0.899221 0.1956966 -0.2576744 -0.8679318 0.4246156 -0.7070084 -0.2892616 0.6453424 -0.6598228 0.4444333 0.6058984 -0.1763181 0.9124786 0.3691812 0.4961379 0.8665751 0.05380415 0.9436022 0.2842416 -0.1697695 -0.8635065 -0.4193586 0.2801699 -0.8634859 -0.4193753 0.2802078 -0.4318713 0.4135369 -0.801545 -0.4318677 0.4135342 -0.8015483 -0.4318702 0.4135343 -0.8015469 -0.4318629 0.4135354 -0.8015504 -0.4318577 0.4135279 -0.801557 0.4423593 -0.4528157 0.7741295 0.4423263 -0.4528104 0.7741514 0.4423602 -0.4528113 0.7741314 0.4423316 -0.4528073 0.7741501 0.442323 -0.4528027 0.7741578 -0.5287737 0.3779191 -0.7599838 -0.7176263 0.1985228 -0.6675337 -0.451632 0.01347255 -0.8921026 -0.7328279 -0.09234464 -0.6741186 -0.5527471 -0.3256685 -0.7670793 -0.4516215 0.01348185 -0.8921077 0.2435609 -0.3089352 -0.9193678 -0.4516445 0.01348191 -0.8920962 -0.2714216 0.3454916 -0.8983128 -0.115163 -0.6573173 -0.7447627 -0.4516329 0.0134865 -0.892102 -0.4516441 0.01348316 -0.8920964 -0.08992964 0.1139664 -0.9894061 -0.4516309 0.01346826 -0.8921033 -0.09492838 -0.1773669 -0.9795559 -0.2850099 -0.3586384 -0.8889027 -0.4516452 0.01345646 -0.8920963 -0.4516502 0.01348209 -0.8920934 0.2780407 0.2241944 -0.9340398 0.5700984 -0.4170381 -0.707861 0.1021471 -0.8724316 -0.4779425 -0.597277 -0.6208259 -0.507775 -0.9139912 -0.2084789 -0.3480758 -0.8738137 0.3237622 -0.3628055 -0.5159466 0.6670173 -0.5374822 -0.04000502 0.631564 -0.774291 0.6178728 0.2864394 -0.7322471 0.1929316 0.8310375 -0.5216841 -0.4385013 0.8744758 -0.2073855 -0.9055851 0.4235494 0.02283883 -0.9592053 -0.2789595 0.04589986 -0.5353013 -0.8283427 -0.1652301 -0.4318596 0.4135189 -0.8015606 -0.4318637 0.4135108 -0.8015626 -0.4318485 0.4135385 -0.8015564 -0.4358294 0.3745825 -0.8183768 -0.435829 0.374576 -0.8183801 0.4407758 -0.4135324 0.7966855 0.4407855 -0.4135215 0.7966858 0.4407724 -0.4135165 0.7966956 0.4407839 -0.4135237 0.7966855 0.4407779 -0.413532 0.7966845 0.4490656 -0.4925684 0.745464 0.4490644 -0.4925686 0.7454646 0.4490304 -0.4925985 0.7454652 0.4423381 -0.4528036 0.7741485 0.4423678 -0.4527865 0.7741416 0.4408087 -0.4135429 0.7966619 0.4408109 -0.4135435 0.7966603 0.4404703 -0.3580744 0.8232672 0.4405413 -0.3580515 0.823239 0.440393 -0.358101 0.823297 0.4405502 -0.3580811 0.8232213 0.440544 -0.3580662 0.8232313 0.8952172 0.1517219 -0.4190068 0.8952161 0.1517145 -0.419012 0.8952199 0.1517347 -0.4189965 0.8952163 0.1517236 -0.4190081 0.8999599 0.2215867 -0.3754616 0.8999595 0.221591 -0.3754601 0.8835898 0.3463095 -0.315181 0.8835917 0.3463197 -0.3151642 0.8999336 0.2217654 -0.3754193 0.8951952 0.1517382 -0.4190479 0.8999695 0.221552 -0.3754596 0.8959422 0.1148883 -0.4290552 0.895219 0.1517446 -0.4189949 0.8999619 0.2215856 -0.3754579 0.899959 0.2215873 -0.3754637 0.8835906 0.3463134 -0.3151742 0.8835905 0.346314 -0.3151738 0.8999489 0.2215822 -0.3754908 0.8885978 0.3133115 -0.3350073 0.8886114 0.3132893 -0.334992 0.8999605 0.2215806 -0.3754642 0.8959861 0.1148685 -0.4289686 0.895796 0.1147317 -0.4294024 0.8958144 0.1150924 -0.4292672 0.8999608 0.221564 -0.3754732 0.8999549 0.2215737 -0.3754817 0.8886148 0.3132988 -0.3349742 0.8886094 0.313305 -0.3349829 -0.4433846 0.4697584 -0.7633723 -0.443387 0.4697586 -0.7633706 -0.4433758 0.46976 -0.7633764 -0.4433536 0.4697638 -0.7633869 -0.4433507 0.4697654 -0.7633877 -0.08904618 -0.8981347 -0.4306101 -0.089037 -0.8981354 -0.4306103 -0.08900552 -0.8981403 -0.4306067 -0.08903092 -0.8981348 -0.4306126 -0.08888512 -0.898153 -0.4306051 -0.08887326 -0.898153 -0.4306076 -0.08895081 -0.8981481 -0.4306019 -0.08881008 -0.8981519 -0.4306228 -0.08920353 -0.8981136 -0.4306214 -0.08910393 -0.8981318 -0.4306041 -0.08864825 -0.8982143 -0.4305259 -0.08979851 -0.8980042 -0.4307258 -0.4317837 0.4135014 -0.8016105 -0.435644 0.3744637 -0.81853 -0.4318084 0.4135094 -0.8015931 -0.4356586 0.3745763 -0.8184707 -0.4394105 0.3399733 -0.8314666 -0.4393595 0.3399225 -0.8315143 -0.4358493 0.3746252 -0.8183467 0.2361299 0.4492799 0.8616208 0.2361217 0.4492691 0.8616287 0.2361242 0.4492755 0.8616246 0.2361383 0.4492765 0.8616203 -0.2844188 0.9540219 -0.09459465 -0.2844222 0.954021 -0.09459483 -0.2844575 0.9540104 -0.09459453 -0.2844458 0.954014 -0.09459376 0.7902981 -0.5059402 -0.3456206 0.2559393 -0.9536679 -0.1581542 0.790295 -0.5059478 -0.3456165 0.2559921 -0.953654 -0.1581528 -0.4473901 -0.8811947 0.1527683 -0.4473692 -0.8812056 0.1527663 -0.8837109 -0.2463623 0.3979457 -0.8837081 -0.2463691 0.3979477 -0.7609633 0.5013886 0.4117579 -0.7609656 0.5013827 0.4117607 -0.2055765 0.9570282 0.2045373 -0.2055566 0.957034 0.2045298 0.4997948 0.8618597 -0.08604121 0.4997775 0.86187 -0.08603894 0.9142568 0.2314066 -0.3325442 0.9142578 0.2314129 -0.3325371 0.7707208 -0.5160432 -0.3737497 0.2045669 -0.9571076 -0.2051767 0.7706992 -0.5160828 -0.3737399 0.2045782 -0.9571056 -0.2051747 -0.4993942 -0.8618369 0.08855932 -0.4993927 -0.8618382 0.08855456 -0.9137867 -0.2313736 0.3338567 -0.9137905 -0.2313591 0.3338561 -0.7716069 0.5160434 0.3719168 -0.7716233 0.5160145 0.3719229 -0.2055663 0.9570301 0.2045381 -0.2055509 0.9570339 0.2045362 0.4997791 0.86187 -0.08602887 0.49981 0.8618509 -0.08604264 0.9142599 0.2313914 -0.3325461 0.9142608 0.231382 -0.3325505 -0.440671 0.0718348 -0.8947899 -0.4406108 0.0718404 -0.894819 -0.4406343 0.07198429 -0.8947959 -0.4404713 0.07194149 -0.8948796 -0.4404489 0.07202869 -0.8948837 -0.4405905 0.07215064 -0.8948042 -0.4406619 0.07217866 -0.8947667 -0.4407892 0.07202637 -0.8947162 -0.4408024 0.07194304 -0.8947165 -0.440791 0.07177871 -0.8947353 -0.4407685 0.07173979 -0.8947495 -0.4409496 0.07181179 -0.8946545 -0.4407359 0.07155144 -0.8947806 -0.4409432 0.07147097 -0.8946849 -0.4410202 0.0721178 -0.894595 -0.4409241 0.07208186 -0.8946453 -0.4408055 0.0719608 -0.8947135 -0.4408487 0.07189226 -0.8946977</float_array>
          <technique_common>
            <accessor source="#medkit_medium_bday-mesh-normals-array" count="464" stride="3">
              <param name="X" type="float"/>
              <param name="Y" type="float"/>
              <param name="Z" type="float"/>
            </accessor>
          </technique_common>
        </source>
        <source id="medkit_medium_bday-mesh-map-0">
          <float_array id="medkit_medium_bday-mesh-map-0-array" count="3312">0.310857 0.665505 0.278594 0.665505 0.312618 0.806861 0.491895 0.256147 0.464623 0.250753 0.503595 0.249629 0.491895 0.256147 0.476995 0.256576 0.464623 0.250753 0.470244 0.227575 0.46665 0.204791 0.470922 0.204668 0.470244 0.227575 0.465201 0.22772 0.46665 0.204791 0.46978 0.243106 0.465201 0.22772 0.470244 0.227575 0.46978 0.243106 0.464212 0.2432669 0.465201 0.22772 0.464623 0.250753 0.464212 0.2432669 0.46978 0.243106 0.475347 0.242945 0.464623 0.250753 0.46978 0.243106 0.480917 0.242785 0.464623 0.250753 0.475347 0.242945 0.503595 0.249629 0.464623 0.250753 0.480917 0.242785 0.503595 0.249629 0.480917 0.242785 0.486483 0.2426249 0.492051 0.242464 0.503595 0.249629 0.486483 0.2426249 0.486483 0.2426249 0.49042 0.226993 0.492051 0.242464 0.486483 0.2426249 0.485375 0.2271389 0.49042 0.226993 0.485375 0.2271389 0.488015 0.2041749 0.49042 0.226993 0.485375 0.2271389 0.483739 0.204298 0.488015 0.2041749 0.480331 0.227284 0.475197 0.204545 0.479468 0.204421 0.480331 0.227284 0.475288 0.227429 0.475197 0.204545 0.480917 0.242785 0.475288 0.227429 0.480331 0.227284 0.480917 0.242785 0.475347 0.242945 0.475288 0.227429 0.497619 0.242304 0.503595 0.249629 0.492051 0.242464 0.503187 0.242143 0.503595 0.249629 0.497619 0.242304 0.497619 0.242304 0.500505 0.226702 0.503187 0.242143 0.497619 0.242304 0.495462 0.226848 0.500505 0.226702 0.339021 0.665505 0.310857 0.665505 0.312618 0.806861 0.456622 0.216426 0.455273 0.201983 0.453717 0.215297 0.456622 0.216426 0.457878 0.2028959 0.455273 0.201983 0.918929 0.361944 0.912574 0.27984 0.962219 0.299622 0.918929 0.361944 0.880932 0.325394 0.912574 0.27984 0.912574 0.27984 0.833576 0.355832 0.777716 0.226107 0.912574 0.27984 0.880932 0.325394 0.833576 0.355832 0.854139 0.403587 0.833576 0.355832 0.880932 0.325394 0.854139 0.403587 0.880932 0.325394 0.918929 0.361944 0.863839 0.426113 0.854139 0.403587 0.918929 0.361944 0.863839 0.426113 0.918929 0.361944 0.93685 0.379184 0.93685 0.379184 0.918929 0.361944 0.962219 0.299622 0.93685 0.379184 0.962219 0.299622 0.985636 0.308952 0.04063796 0.628416 0.01111799 0.75887 0.188044 0.650119 0.04063796 0.628416 0.004485964 0.672911 0.01111799 0.75887 0.04063796 0.628416 0.031192 0.625438 0.004485964 0.672911 0.009817957 0.632367 0.004485964 0.672911 0.031192 0.625438 0.009817957 0.632367 0.031192 0.625438 0.02180898 0.625438 0.800642 0.668166 0.686811 0.823841 0.686403 0.668166 0.800642 0.668166 0.801188 0.823841 0.686811 0.823841 0.801188 0.823841 0.68711 0.969539 0.686811 0.823841 0.801188 0.823841 0.801588 0.969538 0.68711 0.969539 0.801588 0.969538 0.687172 0.978874 0.68711 0.969539 0.801588 0.969538 0.801671 0.978874 0.687172 0.978874 0.801671 0.978874 0.687171 0.988148 0.687172 0.978874 0.686403 0.668166 0.573579 0.823841 0.573362 0.668166 0.686403 0.668166 0.686811 0.823841 0.573579 0.823841 0.686811 0.823841 0.573738 0.969539 0.573579 0.823841 0.686811 0.823841 0.68711 0.969539 0.573738 0.969539 0.68711 0.969539 0.573771 0.978874 0.573738 0.969539 0.68711 0.969539 0.687172 0.978874 0.573771 0.978874 0.687172 0.978874 0.573771 0.988148 0.573771 0.978874 0.687172 0.978874 0.687171 0.988148 0.573771 0.988148 0.687171 0.988148 0.573693 0.997732 0.573771 0.988148 0.687171 0.988148 0.687026 0.997731 0.573693 0.997732 0.801671 0.988148 0.687026 0.997731 0.687171 0.988148 0.801671 0.978874 0.801671 0.988148 0.687171 0.988148 0.801671 0.988148 0.801475 0.997731 0.687026 0.997731 0.647226 0.501276 0.622901 0.521011 0.633774 0.509523 0.647226 0.501276 0.615341 0.534949 0.622901 0.521011 0.647226 0.501276 0.678071 0.49647 0.693362 0.500239 0.647226 0.501276 0.662335 0.496824 0.678071 0.49647 0.574025 0.518763 0.587143 0.494579 0.622901 0.521011 0.587143 0.494579 0.633774 0.509523 0.622901 0.521011 0.587143 0.494579 0.606015 0.474649 0.633774 0.509523 0.606015 0.474649 0.647226 0.501276 0.633774 0.509523 0.606015 0.474649 0.629356 0.460333 0.647226 0.501276 0.629356 0.460333 0.662335 0.496824 0.647226 0.501276 0.629356 0.460333 0.655572 0.452606 0.662335 0.496824 0.655572 0.452606 0.678071 0.49647 0.662335 0.496824 0.655572 0.452606 0.682873 0.451993 0.678071 0.49647 0.682873 0.451993 0.693362 0.500239 0.678071 0.49647 0.682873 0.451993 0.709399 0.458532 0.693362 0.500239 0.709399 0.458532 0.707166 0.507873 0.693362 0.500239 0.693362 0.500239 0.707166 0.507873 0.718545 0.518853 0.693362 0.500239 0.718545 0.518853 0.647226 0.501276 0.718545 0.518853 0.731141 0.547685 0.647226 0.501276 0.731141 0.547685 0.727775 0.579017 0.647226 0.501276 0.731141 0.547685 0.7315 0.563574 0.727775 0.579017 0.718545 0.518853 0.726721 0.532432 0.731141 0.547685 0.709399 0.458532 0.733343 0.471776 0.707166 0.507873 0.733343 0.471776 0.718545 0.518853 0.707166 0.507873 0.733343 0.471776 0.753078 0.49082 0.718545 0.518853 0.753078 0.49082 0.726721 0.532432 0.718545 0.518853 0.753078 0.49082 0.767263 0.514367 0.726721 0.532432 0.767263 0.514367 0.731141 0.547685 0.726721 0.532432 0.767263 0.514367 0.774937 0.540817 0.731141 0.547685 0.774937 0.540817 0.7315 0.563574 0.731141 0.547685 0.774937 0.540817 0.77558 0.568376 0.7315 0.563574 0.77558 0.568376 0.727775 0.579017 0.7315 0.563574 0.77558 0.568376 0.769144 0.595177 0.727775 0.579017 0.769144 0.595177 0.720214 0.592961 0.727775 0.579017 0.769144 0.595177 0.756051 0.619409 0.720214 0.592961 0.756051 0.619409 0.709333 0.604453 0.720214 0.592961 0.756051 0.619409 0.737164 0.639421 0.709333 0.604453 0.737164 0.639421 0.695874 0.612707 0.709333 0.604453 0.737164 0.639421 0.713741 0.653734 0.695874 0.612707 0.713741 0.653734 0.680759 0.617158 0.695874 0.612707 0.709333 0.604453 0.695874 0.612707 0.680759 0.617158 0.727775 0.579017 0.720214 0.592961 0.709333 0.604453 0.727775 0.579017 0.709333 0.604453 0.647226 0.501276 0.709333 0.604453 0.680759 0.617158 0.647226 0.501276 0.680759 0.617158 0.649727 0.613733 0.647226 0.501276 0.680759 0.617158 0.665019 0.617508 0.649727 0.613733 0.649727 0.613733 0.635924 0.606092 0.624549 0.595107 0.649727 0.613733 0.624549 0.595107 0.647226 0.501276 0.624549 0.595107 0.611965 0.566273 0.647226 0.501276 0.611965 0.566273 0.615341 0.534949 0.647226 0.501276 0.611965 0.566273 0.611611 0.550386 0.615341 0.534949 0.624549 0.595107 0.616378 0.581526 0.611965 0.566273 0.713741 0.653734 0.687485 0.661423 0.680759 0.617158 0.687485 0.661423 0.665019 0.617508 0.680759 0.617158 0.687485 0.661423 0.660174 0.661998 0.665019 0.617508 0.660174 0.661998 0.649727 0.613733 0.665019 0.617508 0.660174 0.661998 0.633656 0.655433 0.649727 0.613733 0.633656 0.655433 0.635924 0.606092 0.649727 0.613733 0.633656 0.655433 0.609724 0.642174 0.635924 0.606092 0.609724 0.642174 0.624549 0.595107 0.635924 0.606092 0.609724 0.642174 0.59 0.62312 0.624549 0.595107 0.59 0.62312 0.616378 0.581526 0.624549 0.595107 0.59 0.62312 0.575827 0.599564 0.616378 0.581526 0.575827 0.599564 0.611965 0.566273 0.616378 0.581526 0.575827 0.599564 0.568171 0.573106 0.611965 0.566273 0.568171 0.573106 0.611611 0.550386 0.611965 0.566273 0.568171 0.573106 0.567556 0.545546 0.611611 0.550386 0.567556 0.545546 0.615341 0.534949 0.611611 0.550386 0.567556 0.545546 0.574025 0.518763 0.615341 0.534949 0.574025 0.518763 0.622901 0.521011 0.615341 0.534949 0.455804 0.527235 0.48247 0.523173 0.444156 0.534322 0.455804 0.527235 0.468873 0.523433 0.48247 0.523173 0.48247 0.523173 0.495672 0.526474 0.507578 0.533112 0.48247 0.523173 0.507578 0.533112 0.444156 0.534322 0.507578 0.533112 0.524403 0.55439 0.444156 0.534322 0.524403 0.55439 0.528441 0.581311 0.444156 0.534322 0.524403 0.55439 0.528176 0.567582 0.528441 0.581311 0.507578 0.533112 0.517377 0.542633 0.524403 0.55439 0.468873 0.523433 0.484607 0.494934 0.48247 0.523173 0.48247 0.523173 0.484607 0.494934 0.505057 0.5001 0.48247 0.523173 0.505057 0.5001 0.495672 0.526474 0.495672 0.526474 0.505057 0.5001 0.523499 0.510485 0.495672 0.526474 0.523499 0.510485 0.507578 0.533112 0.507578 0.533112 0.523499 0.510485 0.538677 0.525381 0.507578 0.533112 0.538677 0.525381 0.517377 0.542633 0.517377 0.542633 0.538677 0.525381 0.54956 0.54377 0.517377 0.542633 0.54956 0.54377 0.524403 0.55439 0.524403 0.55439 0.54956 0.54377 0.555409 0.564404 0.524403 0.55439 0.555409 0.564404 0.528176 0.567582 0.528176 0.567582 0.555409 0.564404 0.555827 0.58588 0.528176 0.567582 0.555827 0.58588 0.528441 0.581311 0.528441 0.581311 0.555827 0.58588 0.550786 0.606744 0.528441 0.581311 0.550786 0.606744 0.525177 0.594643 0.525177 0.594643 0.550786 0.606744 0.54062 0.625582 0.525177 0.594643 0.54062 0.625582 0.518605 0.606668 0.518605 0.606668 0.54062 0.625582 0.526001 0.64111 0.518605 0.606668 0.509172 0.616566 0.49752 0.623657 0.518605 0.606668 0.49752 0.623657 0.444156 0.534322 0.528441 0.581311 0.518605 0.606668 0.444156 0.534322 0.528441 0.581311 0.525177 0.594643 0.518605 0.606668 0.54062 0.625582 0.552991 0.607622 0.542529 0.627013 0.54062 0.625582 0.550786 0.606744 0.552991 0.607622 0.550786 0.606744 0.558179 0.586147 0.552991 0.607622 0.550786 0.606744 0.555827 0.58588 0.558179 0.586147 0.555827 0.58588 0.557747 0.564042 0.558179 0.586147 0.555827 0.58588 0.555409 0.564404 0.557747 0.564042 0.555409 0.564404 0.551728 0.542804 0.557747 0.564042 0.555409 0.564404 0.54956 0.54377 0.551728 0.542804 0.54956 0.54377 0.540525 0.523876 0.551728 0.542804 0.54956 0.54377 0.538677 0.525381 0.540525 0.523876 0.538677 0.525381 0.524903 0.508544 0.540525 0.523876 0.538677 0.525381 0.523499 0.510485 0.524903 0.508544 0.523499 0.510485 0.505921 0.497854 0.524903 0.508544 0.523499 0.510485 0.505057 0.5001 0.505921 0.497854 0.505057 0.5001 0.484871 0.492536 0.505921 0.497854 0.505057 0.5001 0.484607 0.494934 0.484871 0.492536 0.484607 0.494934 0.463186 0.492953 0.484871 0.492536 0.484607 0.494934 0.46354 0.495339 0.463186 0.492953 0.52748 0.642999 0.544222 0.628282 0.528791 0.644675 0.52748 0.642999 0.542529 0.627013 0.544222 0.628282 0.542529 0.627013 0.554948 0.6084 0.544222 0.628282 0.542529 0.627013 0.552991 0.607622 0.554948 0.6084 0.552991 0.607622 0.560265 0.586383 0.554948 0.6084 0.552991 0.607622 0.558179 0.586147 0.560265 0.586383 0.558179 0.586147 0.559821 0.563721 0.560265 0.586383 0.558179 0.586147 0.557747 0.564042 0.559821 0.563721 0.557747 0.564042 0.55365 0.541947 0.559821 0.563721 0.557747 0.564042 0.551728 0.542804 0.55365 0.541947 0.551728 0.542804 0.542165 0.522541 0.55365 0.541947 0.551728 0.542804 0.540525 0.523876 0.542165 0.522541 0.540525 0.523876 0.526148 0.506822 0.542165 0.522541 0.540525 0.523876 0.524903 0.508544 0.526148 0.506822 0.524903 0.508544 0.506687 0.495862 0.526148 0.506822 0.524903 0.508544 0.505921 0.497854 0.506687 0.495862 0.505921 0.497854 0.485105 0.49041 0.506687 0.495862 0.505921 0.497854 0.484871 0.492536 0.485105 0.49041 0.484871 0.492536 0.462874 0.490837 0.485105 0.49041 0.484871 0.492536 0.463186 0.492953 0.462874 0.490837 0.463186 0.492953 0.441506 0.497118 0.462874 0.490837 0.463186 0.492953 0.442346 0.49908 0.441506 0.497118 0.442346 0.49908 0.42246 0.508827 0.441506 0.497118 0.442346 0.49908 0.42377 0.5105 0.42246 0.508827 0.42377 0.5105 0.407039 0.525166 0.42246 0.508827 0.42377 0.5105 0.408729 0.526436 0.407039 0.525166 0.408729 0.526436 0.396295 0.545017 0.407039 0.525166 0.408729 0.526436 0.398248 0.545797 0.396295 0.545017 0.398248 0.545797 0.390955 0.567025 0.396295 0.545017 0.398248 0.545797 0.393041 0.567263 0.390955 0.567025 0.400451 0.546678 0.393041 0.567263 0.398248 0.545797 0.400451 0.546678 0.395391 0.567532 0.393041 0.567263 0.424891 0.569566 0.395391 0.567532 0.400451 0.546678 0.425152 0.583294 0.395391 0.567532 0.424891 0.569566 0.428922 0.596487 0.425152 0.583294 0.424891 0.569566 0.428922 0.596487 0.395797 0.58901 0.425152 0.583294 0.425152 0.583294 0.395797 0.58901 0.395391 0.567532 0.395391 0.567532 0.395797 0.58901 0.393457 0.589371 0.395797 0.58901 0.399469 0.610614 0.393457 0.589371 0.395391 0.567532 0.393457 0.589371 0.393041 0.567263 0.428922 0.596487 0.424891 0.569566 0.444156 0.534322 0.46354 0.495339 0.442346 0.49908 0.463186 0.492953 0.46354 0.495339 0.443293 0.501291 0.442346 0.49908 0.443293 0.501291 0.42377 0.5105 0.442346 0.49908 0.443293 0.501291 0.425246 0.512386 0.42377 0.5105 0.425246 0.512386 0.408729 0.526436 0.42377 0.5105 0.425246 0.512386 0.410633 0.527868 0.408729 0.526436 0.410633 0.527868 0.398248 0.545797 0.408729 0.526436 0.410633 0.527868 0.400451 0.546678 0.398248 0.545797 0.428158 0.556237 0.400451 0.546678 0.410633 0.527868 0.424891 0.569566 0.400451 0.546678 0.428158 0.556237 0.424891 0.569566 0.428158 0.556237 0.434729 0.544217 0.424891 0.569566 0.434729 0.544217 0.444156 0.534322 0.425246 0.512386 0.444156 0.534322 0.434729 0.544217 0.444156 0.534322 0.425246 0.512386 0.443293 0.501291 0.444156 0.534322 0.443293 0.501291 0.455804 0.527235 0.455804 0.527235 0.443293 0.501291 0.46354 0.495339 0.455804 0.527235 0.46354 0.495339 0.468873 0.523433 0.468873 0.523433 0.46354 0.495339 0.484607 0.494934 0.425246 0.512386 0.434729 0.544217 0.410633 0.527868 0.428158 0.556237 0.410633 0.527868 0.434729 0.544217 0.393041 0.567263 0.391382 0.589691 0.390955 0.567025 0.393041 0.567263 0.393457 0.589371 0.391382 0.589691 0.393457 0.589371 0.397546 0.61147 0.391382 0.589691 0.393457 0.589371 0.399469 0.610614 0.397546 0.61147 0.399469 0.610614 0.409025 0.630882 0.397546 0.61147 0.399469 0.610614 0.410666 0.629547 0.409025 0.630882 0.410666 0.629547 0.425037 0.646604 0.409025 0.630882 0.410666 0.629547 0.426283 0.644883 0.425037 0.646604 0.426283 0.644883 0.44449 0.65757 0.425037 0.646604 0.426283 0.644883 0.445259 0.65558 0.44449 0.65757 0.445259 0.65558 0.466066 0.663037 0.44449 0.65757 0.445259 0.65558 0.466302 0.66091 0.466066 0.663037 0.466302 0.66091 0.488301 0.662633 0.466066 0.663037 0.466302 0.66091 0.48799 0.660516 0.488301 0.662633 0.48799 0.660516 0.509693 0.65638 0.488301 0.662633 0.48799 0.660516 0.508853 0.654414 0.509693 0.65638 0.508853 0.654414 0.528791 0.644675 0.509693 0.65638 0.508853 0.654414 0.52748 0.642999 0.528791 0.644675 0.428922 0.596487 0.401637 0.609649 0.395797 0.58901 0.395797 0.58901 0.401637 0.609649 0.399469 0.610614 0.401637 0.609649 0.410666 0.629547 0.399469 0.610614 0.401637 0.609649 0.412514 0.628043 0.410666 0.629547 0.412514 0.628043 0.426283 0.644883 0.410666 0.629547 0.412514 0.628043 0.427687 0.642942 0.426283 0.644883 0.427687 0.642942 0.445259 0.65558 0.426283 0.644883 0.427687 0.642942 0.446123 0.653334 0.445259 0.65558 0.446123 0.653334 0.466302 0.66091 0.445259 0.65558 0.446123 0.653334 0.466568 0.658513 0.466302 0.66091 0.466568 0.658513 0.48799 0.660516 0.466302 0.66091 0.466568 0.658513 0.487639 0.658129 0.48799 0.660516 0.487639 0.658129 0.508853 0.654414 0.48799 0.660516 0.487639 0.658129 0.507909 0.652199 0.508853 0.654414 0.507909 0.652199 0.52748 0.642999 0.508853 0.654414 0.507909 0.652199 0.526001 0.64111 0.52748 0.642999 0.526001 0.64111 0.542529 0.627013 0.52748 0.642999 0.526001 0.64111 0.54062 0.625582 0.542529 0.627013 0.518605 0.606668 0.526001 0.64111 0.509172 0.616566 0.509172 0.616566 0.526001 0.64111 0.507909 0.652199 0.509172 0.616566 0.507909 0.652199 0.49752 0.623657 0.49752 0.623657 0.507909 0.652199 0.487639 0.658129 0.49752 0.623657 0.487639 0.658129 0.484448 0.62746 0.484448 0.62746 0.487639 0.658129 0.466568 0.658513 0.484448 0.62746 0.466568 0.658513 0.470847 0.627716 0.470847 0.627716 0.466568 0.658513 0.446123 0.653334 0.470847 0.627716 0.446123 0.653334 0.457645 0.62441 0.457645 0.62441 0.446123 0.653334 0.427687 0.642942 0.457645 0.62441 0.427687 0.642942 0.445742 0.61777 0.445742 0.61777 0.427687 0.642942 0.412514 0.628043 0.445742 0.61777 0.412514 0.628043 0.435944 0.608245 0.435944 0.608245 0.412514 0.628043 0.401637 0.609649 0.435944 0.608245 0.401637 0.609649 0.428922 0.596487 0.445742 0.61777 0.435944 0.608245 0.428922 0.596487 0.445742 0.61777 0.428922 0.596487 0.444156 0.534322 0.470847 0.627716 0.445742 0.61777 0.444156 0.534322 0.49752 0.623657 0.470847 0.627716 0.444156 0.534322 0.49752 0.623657 0.484448 0.62746 0.470847 0.627716 0.470847 0.627716 0.457645 0.62441 0.445742 0.61777 0.538338 0.252157 0.542706 0.307515 0.540318 0.307839 0.538338 0.252157 0.540745 0.252135 0.542706 0.307515 0.538153 0.229454 0.540745 0.252135 0.538338 0.252157 0.538153 0.229454 0.540565 0.229417 0.540745 0.252135 0.538341 0.211722 0.540565 0.229417 0.538153 0.229454 0.538341 0.211722 0.540758 0.211781 0.540565 0.229417 0.540758 0.211781 0.538341 0.211722 0.538698 0.1940039 0.540758 0.211781 0.538698 0.1940039 0.541461 0.194175 0.345592 0.659226 0.188044 0.650119 0.01111799 0.75887 0.01111799 0.75887 0.345592 0.99237 0.345592 0.659226 0.01111799 0.75887 0.01111799 0.99237 0.345592 0.99237 0.53029 0.317476 0.51043 0.267866 0.515879 0.318787 0.53029 0.317476 0.53029 0.26606 0.51043 0.267866 0.508633 0.245296 0.51043 0.267866 0.53029 0.26606 0.508633 0.245296 0.53029 0.26606 0.529678 0.243381 0.508024 0.225965 0.508633 0.245296 0.529678 0.243381 0.508024 0.225965 0.529678 0.243381 0.528233 0.2241269 0.507712 0.205585 0.508024 0.225965 0.528233 0.2241269 0.507712 0.205585 0.528233 0.2241269 0.526381 0.203886 0.469482 0.310338 0.458423 0.261706 0.466429 0.309473 0.469482 0.310338 0.461294 0.262752 0.458423 0.261706 0.455956 0.242844 0.458423 0.261706 0.461294 0.262752 0.455956 0.242844 0.461294 0.262752 0.458828 0.243863 0.4546 0.2288579 0.455956 0.242844 0.458828 0.243863 0.4546 0.2288579 0.458828 0.243863 0.457484 0.2299489 0.453717 0.215297 0.4546 0.2288579 0.457484 0.2299489 0.453717 0.215297 0.457484 0.2299489 0.456622 0.216426 0.497531 0.307639 0.476995 0.256576 0.491895 0.256147 0.497531 0.307639 0.476995 0.30823 0.476995 0.256576 0.499309 0.328527 0.476995 0.30823 0.497531 0.307639 0.499309 0.328527 0.477499 0.329156 0.476995 0.30823 0.499764 0.344547 0.477499 0.329156 0.499309 0.328527 0.499764 0.344547 0.478793 0.345151 0.477499 0.329156 0.478793 0.345151 0.499764 0.344547 0.499846 0.360412 0.478793 0.345151 0.499846 0.360412 0.480441 0.360971 0.351493 0.589288 0.346839 0.594632 0.342717 0.586342 0.346839 0.594632 0.33977 0.595119 0.342717 0.586342 0.33977 0.595119 0.334458 0.590918 0.342717 0.586342 0.334458 0.590918 0.333908 0.582943 0.342717 0.586342 0.333908 0.582943 0.338594 0.578053 0.342717 0.586342 0.338594 0.578053 0.345663 0.577565 0.342717 0.586342 0.345663 0.577565 0.351006 0.582219 0.342717 0.586342 0.351006 0.582219 0.351493 0.589288 0.342717 0.586342 0.342098 0.551141 0.344445 0.557552 0.342871 0.557672 0.342098 0.551141 0.342871 0.557672 0.337294 0.55382 0.336652 0.545626 0.342098 0.551141 0.337294 0.55382 0.336652 0.545626 0.337294 0.55382 0.329677 0.548559 0.329567 0.542486 0.336652 0.545626 0.329677 0.548559 0.329567 0.542486 0.329677 0.548559 0.322059 0.543297 0.322059 0.543297 0.329677 0.548559 0.322721 0.558256 0.329677 0.548559 0.331309 0.562134 0.322721 0.558256 0.322721 0.558256 0.331309 0.562134 0.329031 0.572122 0.331309 0.562134 0.335608 0.573757 0.329031 0.572122 0.326365 0.582012 0.329031 0.572122 0.335608 0.573757 0.326365 0.582012 0.335608 0.573757 0.333908 0.582943 0.327758 0.592161 0.326365 0.582012 0.333908 0.582943 0.327758 0.592161 0.333908 0.582943 0.334458 0.590918 0.327758 0.592161 0.334458 0.590918 0.335951 0.600152 0.327758 0.592161 0.335951 0.600152 0.328754 0.602357 0.328754 0.602357 0.335951 0.600152 0.339658 0.608246 0.328754 0.602357 0.339658 0.608246 0.333639 0.611361 0.329677 0.548559 0.337294 0.55382 0.331309 0.562134 0.337294 0.55382 0.33817 0.565231 0.331309 0.562134 0.337294 0.55382 0.342871 0.557672 0.33817 0.565231 0.331309 0.562134 0.33817 0.565231 0.335608 0.573757 0.322721 0.558256 0.329031 0.572122 0.320047 0.569887 0.316961 0.581415 0.320047 0.569887 0.329031 0.572122 0.316961 0.581415 0.329031 0.572122 0.326365 0.582012 0.318563 0.593241 0.316961 0.581415 0.326365 0.582012 0.318563 0.593241 0.326365 0.582012 0.327758 0.592161 0.318563 0.593241 0.327758 0.592161 0.328754 0.602357 0.318563 0.593241 0.328754 0.602357 0.319744 0.605116 0.325416 0.615617 0.319744 0.605116 0.328754 0.602357 0.325416 0.615617 0.328754 0.602357 0.333639 0.611361 0.338078 0.614424 0.333639 0.611361 0.339658 0.608246 0.331978 0.619205 0.333639 0.611361 0.338078 0.614424 0.331978 0.619205 0.325416 0.615617 0.333639 0.611361 0.317194 0.619872 0.325416 0.615617 0.331978 0.619205 0.317194 0.619872 0.319744 0.605116 0.325416 0.615617 0.317194 0.619872 0.311336 0.607692 0.319744 0.605116 0.311336 0.607692 0.318563 0.593241 0.319744 0.605116 0.311336 0.607692 0.309368 0.594321 0.318563 0.593241 0.309368 0.594321 0.316961 0.581415 0.318563 0.593241 0.309368 0.594321 0.308185 0.580858 0.316961 0.581415 0.311062 0.567652 0.316961 0.581415 0.308185 0.580858 0.311062 0.567652 0.320047 0.569887 0.316961 0.581415 0.314707 0.554638 0.320047 0.569887 0.311062 0.567652 0.314707 0.554638 0.322721 0.558256 0.320047 0.569887 0.322059 0.543297 0.322721 0.558256 0.314707 0.554638 0.317194 0.619872 0.331978 0.619205 0.324552 0.621423 0.338078 0.614424 0.339658 0.608246 0.341217 0.608361 0.511551 0.331652 0.510583 0.356318 0.506673 0.332095 0.511551 0.331652 0.514714 0.355943 0.510583 0.356318 0.508079 0.276546 0.50713 0.277209 0.505184 0.266107 0.508448 0.284742 0.50713 0.277209 0.508079 0.276546 0.508448 0.284742 0.506973 0.285415 0.50713 0.277209 0.505235 0.287197 0.504988 0.295959 0.503755 0.287781 0.505235 0.287197 0.505997 0.29578 0.504988 0.295959 0.504988 0.295959 0.505997 0.29578 0.504601 0.308913 0.278833 0.562425 0.270668 0.555347 0.273109 0.54802 0.25989 0.556115 0.273109 0.54802 0.270668 0.555347 0.252811 0.56428 0.256435 0.549209 0.25989 0.556115 0.25989 0.556115 0.256435 0.549209 0.273109 0.54802 0.256435 0.549209 0.275549 0.540694 0.273109 0.54802 0.285739 0.558971 0.273109 0.54802 0.275549 0.540694 0.278833 0.562425 0.273109 0.54802 0.285739 0.558971 0.279601 0.573204 0.278833 0.562425 0.285739 0.558971 0.285739 0.558971 0.275549 0.540694 0.292645 0.555516 0.286927 0.575644 0.285739 0.558971 0.292645 0.555516 0.279601 0.573204 0.285739 0.558971 0.286927 0.575644 0.279601 0.573204 0.286927 0.575644 0.275977 0.588275 0.279601 0.573204 0.275977 0.588275 0.272523 0.581369 0.272523 0.581369 0.275977 0.588275 0.259304 0.589463 0.272523 0.581369 0.259304 0.589463 0.261744 0.582137 0.253579 0.575058 0.261744 0.582137 0.259304 0.589463 0.253579 0.575058 0.259304 0.589463 0.246673 0.578513 0.252811 0.56428 0.253579 0.575058 0.246673 0.578513 0.252811 0.56428 0.246673 0.578513 0.245485 0.561839 0.252811 0.56428 0.245485 0.561839 0.256435 0.549209 0.245485 0.561839 0.25298 0.542303 0.256435 0.549209 0.256435 0.549209 0.25298 0.542303 0.275549 0.540694 0.25298 0.542303 0.27656 0.53766 0.275549 0.540694 0.275549 0.540694 0.27656 0.53766 0.295506 0.554085 0.275549 0.540694 0.295506 0.554085 0.292645 0.555516 0.294253 0.578085 0.292645 0.555516 0.295506 0.554085 0.286927 0.575644 0.292645 0.555516 0.294253 0.578085 0.286927 0.575644 0.294253 0.578085 0.279432 0.595181 0.286927 0.575644 0.279432 0.595181 0.275977 0.588275 0.275977 0.588275 0.279432 0.595181 0.256863 0.596789 0.275977 0.588275 0.256863 0.596789 0.259304 0.589463 0.246673 0.578513 0.259304 0.589463 0.256863 0.596789 0.246673 0.578513 0.256863 0.596789 0.239767 0.581968 0.245485 0.561839 0.246673 0.578513 0.239767 0.581968 0.245485 0.561839 0.239767 0.581968 0.238159 0.559399 0.245485 0.561839 0.238159 0.559399 0.25298 0.542303 0.238159 0.559399 0.251549 0.539442 0.25298 0.542303 0.25298 0.542303 0.251549 0.539442 0.27656 0.53766 0.238159 0.559399 0.235124 0.558388 0.251549 0.539442 0.238159 0.559399 0.236906 0.583399 0.235124 0.558388 0.238159 0.559399 0.239767 0.581968 0.236906 0.583399 0.239767 0.581968 0.255852 0.599824 0.236906 0.583399 0.239767 0.581968 0.256863 0.596789 0.255852 0.599824 0.279432 0.595181 0.255852 0.599824 0.256863 0.596789 0.279432 0.595181 0.280863 0.598042 0.255852 0.599824 0.294253 0.578085 0.280863 0.598042 0.279432 0.595181 0.294253 0.578085 0.297288 0.579096 0.280863 0.598042 0.294253 0.578085 0.295506 0.554085 0.297288 0.579096 0.499895 0.277995 0.498944 0.278611 0.496929 0.267523 0.500313 0.286121 0.498944 0.278611 0.499895 0.277995 0.500313 0.286121 0.498843 0.286759 0.498944 0.278611 0.509427 0.286629 0.509489 0.295444 0.507938 0.287276 0.509427 0.286629 0.510498 0.295266 0.509489 0.295444 0.509489 0.295444 0.510498 0.295266 0.509565 0.308431 0.553816 0.33749 0.555663 0.336951 0.554852 0.361788 0.552885 0.321143 0.555663 0.336951 0.553816 0.33749 0.552885 0.321143 0.553816 0.33749 0.550655 0.322363 0.54859 0.314813 0.552885 0.321143 0.550655 0.322363 0.54859 0.314813 0.550821 0.313593 0.552885 0.321143 0.501276 0.287993 0.501653 0.296826 0.499787 0.288633 0.501276 0.287993 0.502662 0.296648 0.501653 0.296826 0.501653 0.296826 0.502662 0.296648 0.50219 0.309845 0.51547 0.327559 0.50449 0.324581 0.510087 0.328049 0.50449 0.324581 0.5047 0.328539 0.510087 0.328049 0.510087 0.328049 0.5047 0.328539 0.506889 0.336151 0.510087 0.328049 0.506889 0.336151 0.511767 0.335707 0.511767 0.335707 0.506889 0.336151 0.510583 0.356318 0.511767 0.335707 0.510583 0.356318 0.514714 0.355943 0.515879 0.318787 0.542183 0.321152 0.53029 0.317476 0.515879 0.318787 0.50449 0.324581 0.542183 0.321152 0.52624 0.32658 0.542183 0.321152 0.50449 0.324581 0.52624 0.32658 0.50449 0.324581 0.520855 0.327069 0.520855 0.327069 0.50449 0.324581 0.51547 0.327559 0.520855 0.327069 0.51547 0.327559 0.516644 0.335263 0.520855 0.327069 0.516644 0.335263 0.521522 0.33482 0.521522 0.33482 0.516644 0.335263 0.518848 0.355566 0.521522 0.33482 0.518848 0.355566 0.522979 0.355191 0.5264 0.334376 0.527114 0.354815 0.531247 0.354438 0.5264 0.334376 0.531247 0.354438 0.531278 0.333932 0.52624 0.32658 0.5264 0.334376 0.531278 0.333932 0.52624 0.32658 0.531278 0.333932 0.531625 0.32609 0.531625 0.32609 0.542183 0.321152 0.52624 0.32658 0.537009 0.3256 0.542183 0.321152 0.531625 0.32609 0.542394 0.32511 0.542183 0.321152 0.537009 0.3256 0.537009 0.3256 0.541033 0.333045 0.542394 0.32511 0.537009 0.3256 0.536156 0.333488 0.541033 0.333045 0.536156 0.333488 0.539515 0.353687 0.541033 0.333045 0.536156 0.333488 0.53538 0.354063 0.539515 0.353687 0.504948 0.277642 0.503996 0.278206 0.503405 0.26766 0.504395 0.285353 0.503996 0.278206 0.504948 0.277642 0.504395 0.285353 0.502938 0.285905 0.503996 0.278206 0.504395 0.285353 0.503755 0.287781 0.502938 0.285905 0.504395 0.285353 0.505235 0.287197 0.503755 0.287781 0.508448 0.284742 0.507938 0.287276 0.506973 0.285415 0.508448 0.284742 0.509427 0.286629 0.507938 0.287276 0.500313 0.286121 0.499787 0.288633 0.498843 0.286759 0.500313 0.286121 0.501276 0.287993 0.499787 0.288633 0.463663 0.321186 0.468442 0.328919 0.466687 0.321663 0.463663 0.321186 0.465965 0.328538 0.468442 0.328919 0.468442 0.328919 0.465965 0.328538 0.469123 0.343805 0.468442 0.328919 0.469123 0.343805 0.47116 0.344499 0.47116 0.344499 0.469123 0.343805 0.469753 0.3657 0.542706 0.307515 0.54859 0.314813 0.540318 0.307839 0.542706 0.307515 0.550821 0.313593 0.54859 0.314813 0.469482 0.310338 0.463663 0.321186 0.466687 0.321663 0.469482 0.310338 0.466429 0.309473 0.463663 0.321186 0.285968 0.550965 0.286499 0.553088 0.285968 0.553088 0.285968 0.550965 0.286499 0.550965 0.286499 0.553088 0.286499 0.550965 0.287029 0.553088 0.286499 0.553088 0.286499 0.550965 0.287029 0.550965 0.287029 0.553088 0.28756 0.550965 0.287029 0.553088 0.287029 0.550965 0.28756 0.550965 0.287599 0.553088 0.287029 0.553088 0.288091 0.550965 0.287599 0.553088 0.28756 0.550965 0.288091 0.550965 0.288052 0.553088 0.287599 0.553088 0.288622 0.550965 0.288052 0.553088 0.288091 0.550965 0.288622 0.550965 0.288622 0.553088 0.288052 0.553088 0.288622 0.550965 0.289152 0.553088 0.288622 0.553088 0.288622 0.550965 0.289152 0.550965 0.289152 0.553088 0.289152 0.550965 0.289683 0.553088 0.289152 0.553088 0.289152 0.550965 0.289683 0.550965 0.289683 0.553088 0.289683 0.550965 0.290214 0.553088 0.289683 0.553088 0.289683 0.550965 0.290214 0.550965 0.290214 0.553088 0.079728 0.539034 0.09597295 0.604017 0.079728 0.604017 0.079728 0.539034 0.09597295 0.539034 0.09597295 0.604017 0.09597295 0.539034 0.112219 0.604017 0.09597295 0.604017 0.09597295 0.539034 0.112219 0.539034 0.112219 0.604017 0.128464 0.539034 0.112219 0.604017 0.112219 0.539034 0.128464 0.539034 0.129661 0.604022 0.112219 0.604017 0.14471 0.539034 0.129661 0.604022 0.128464 0.539034 0.14471 0.539034 0.143514 0.604013 0.129661 0.604022 0.160956 0.539034 0.143514 0.604013 0.14471 0.539034 0.160956 0.539034 0.160956 0.604017 0.143514 0.604013 0.160956 0.539034 0.177202 0.604017 0.160956 0.604017 0.160956 0.539034 0.177202 0.539034 0.177202 0.604017 0.177202 0.539034 0.1934469 0.604017 0.177202 0.604017 0.177202 0.539034 0.1934469 0.539034 0.1934469 0.604017 0.1934469 0.539034 0.209693 0.604017 0.1934469 0.604017 0.1934469 0.539034 0.209693 0.539034 0.209693 0.604017 0.142358 0.631673 0.130899 0.63169 0.136608 0.617849 0.130899 0.63169 0.122785 0.623599 0.136608 0.617849 0.122785 0.623599 0.122767 0.61214 0.136608 0.617849 0.122767 0.61214 0.129661 0.604022 0.136608 0.617849 0.129661 0.604022 0.143514 0.604013 0.136608 0.617849 0.143514 0.604013 0.150431 0.612099 0.136608 0.617849 0.150431 0.612099 0.150449 0.623558 0.136608 0.617849 0.150449 0.623558 0.142358 0.631673 0.136608 0.617849 0.288014 0.553992 0.28764 0.553992 0.287826 0.55354 0.28764 0.553992 0.287375 0.553728 0.287826 0.55354 0.287375 0.553728 0.287374 0.553354 0.287826 0.55354 0.287374 0.553354 0.287599 0.553088 0.287826 0.55354 0.287599 0.553088 0.288052 0.553088 0.287826 0.55354 0.288052 0.553088 0.288278 0.553352 0.287826 0.55354 0.288278 0.553352 0.288278 0.553727 0.287826 0.55354 0.288278 0.553727 0.288014 0.553992 0.287826 0.55354</float_array>
          <technique_common>
            <accessor source="#medkit_medium_bday-mesh-map-0-array" count="1656" stride="2">
              <param name="S" type="float"/>
              <param name="T" type="float"/>
            </accessor>
          </technique_common>
        </source>
        <vertices id="medkit_medium_bday-mesh-vertices">
          <input semantic="POSITION" source="#medkit_medium_bday-mesh-positions"/>
        </vertices>
        <triangles material="medkit_birthday-material" count="552">
          <input semantic="VERTEX" source="#medkit_medium_bday-mesh-vertices" offset="0"/>
          <input semantic="NORMAL" source="#medkit_medium_bday-mesh-normals" offset="1"/>
          <input semantic="TEXCOORD" source="#medkit_medium_bday-mesh-map-0" offset="2" set="0"/>
          <p>0 0 0 1 0 1 2 0 2 3 1 3 4 2 4 5 3 5 3 1 6 6 4 7 4 2 8 7 5 9 8 6 10 9 7 11 7 5 12 10 8 13 8 6 14 11 9 15 10 8 16 7 5 17 11 9 18 12 10 19 10 8 20 4 2 21 12 10 22 11 9 23 13 11 24 4 2 25 11 9 26 14 12 27 4 2 28 13 11 29 5 3 30 4 2 31 14 12 32 5 3 33 14 12 34 15 13 35 16 14 36 5 3 37 15 13 38 15 13 39 17 15 40 16 14 41 15 13 42 18 16 43 17 15 44 18 16 45 19 17 46 17 15 47 18 16 48 20 18 49 19 17 50 21 19 51 22 20 52 23 21 53 21 19 54 24 22 55 22 20 56 14 12 57 24 22 58 21 19 59 14 12 60 13 11 61 24 22 62 25 23 63 5 3 64 16 14 65 26 24 66 5 3 67 25 23 68 25 23 69 27 25 70 26 24 71 25 23 72 28 26 73 27 25 74 29 27 75 0 27 76 2 27 77 30 28 78 31 29 79 32 30 80 30 28 81 33 31 82 31 29 83 34 32 84 35 33 85 36 34 86 34 32 87 37 35 88 35 33 89 35 33 90 38 36 91 39 37 92 35 33 93 37 35 94 38 36 95 40 38 96 38 36 97 37 35 98 40 38 99 37 35 100 34 32 101 41 39 102 40 38 103 34 32 104 41 39 105 34 32 106 42 40 107 42 40 108 34 32 109 36 34 110 42 40 111 36 34 112 43 41 113 44 42 114 35 42 115 45 42 116 44 43 117 36 44 118 35 45 119 44 43 120 46 46 121 36 44 122 43 47 123 36 44 124 46 46 125 43 47 126 46 46 127 47 48 128 29 49 129 48 50 130 0 51 131 29 49 132 49 52 133 48 50 134 49 52 135 50 53 136 48 50 137 49 52 138 51 54 139 50 53 140 51 54 141 52 55 142 50 53 143 51 54 144 53 56 145 52 55 146 53 56 147 54 57 148 52 55 149 0 51 150 55 58 151 1 59 152 0 51 153 48 50 154 55 58 155 48 50 156 44 60 157 55 58 158 48 50 159 50 53 160 44 60 161 50 53 162 46 61 163 44 60 164 50 53 165 52 55 166 46 61 167 52 55 168 47 62 169 46 61 170 52 55 171 54 57 172 47 62 173 54 57 174 43 41 175 47 62 176 54 57 177 42 40 178 43 41 179 56 63 180 42 40 181 54 57 182 53 56 183 56 63 184 54 57 185 56 63 186 41 39 187 42 40 188 57 64 189 58 65 190 59 66 191 57 64 192 60 67 193 58 65 194 57 64 195 61 68 196 62 69 197 57 64 198 63 70 199 61 68 200 64 71 201 65 72 202 58 65 203 65 72 204 59 66 205 58 65 206 65 72 207 66 73 208 59 66 209 66 73 210 57 64 211 59 66 212 66 73 213 67 74 214 57 64 215 67 74 216 63 70 217 57 64 218 67 74 219 68 75 220 63 70 221 68 75 222 61 68 223 63 70 224 68 75 225 69 76 226 61 68 227 69 76 228 62 69 229 61 68 230 69 76 231 70 77 232 62 69 233 70 77 234 71 78 235 62 69 236 62 69 237 71 78 238 72 79 239 62 69 240 72 79 241 57 64 242 72 79 243 73 80 244 57 64 245 73 80 246 74 81 247 57 64 248 73 80 249 75 82 250 74 81 251 72 79 252 76 83 253 73 80 254 70 77 255 77 84 256 71 78 257 77 84 258 72 79 259 71 78 260 77 84 261 78 85 262 72 79 263 78 85 264 76 83 265 72 79 266 78 85 267 79 86 268 76 83 269 79 86 270 73 80 271 76 83 272 79 86 273 80 87 274 73 80 275 80 87 276 75 82 277 73 80 278 80 87 279 81 88 280 75 82 281 81 88 282 74 81 283 75 82 284 81 88 285 82 89 286 74 81 287 82 89 288 83 90 289 74 81 290 82 89 291 84 91 292 83 90 293 84 91 294 85 92 295 83 90 296 84 91 297 86 93 298 85 92 299 86 93 300 87 94 301 85 92 302 86 93 303 88 95 304 87 94 305 88 95 306 89 96 307 87 94 308 85 92 309 87 94 310 89 96 311 74 81 312 83 90 313 85 92 314 74 81 315 85 92 316 57 64 317 85 92 318 89 96 319 57 64 320 89 96 321 90 97 322 57 64 323 89 96 324 91 98 325 90 97 326 90 97 327 92 99 328 93 100 329 90 97 330 93 100 331 57 64 332 93 100 333 94 101 334 57 64 335 94 101 336 60 67 337 57 64 338 94 101 339 95 102 340 60 67 341 93 100 342 96 103 343 94 101 344 88 95 345 97 104 346 89 96 347 97 104 348 91 98 349 89 96 350 97 104 351 98 105 352 91 98 353 98 105 354 90 97 355 91 98 356 98 105 357 99 106 358 90 97 359 99 106 360 92 99 361 90 97 362 99 106 363 100 107 364 92 99 365 100 107 366 93 100 367 92 99 368 100 107 369 101 108 370 93 100 371 101 108 372 96 103 373 93 100 374 101 108 375 102 109 376 96 103 377 102 109 378 94 101 379 96 103 380 102 109 381 103 110 382 94 101 383 103 110 384 95 102 385 94 101 386 103 110 387 104 111 388 95 102 389 104 111 390 60 67 391 95 102 392 104 111 393 64 71 394 60 67 395 64 71 396 58 65 397 60 67 398 105 112 399 106 113 400 107 114 401 105 112 402 108 115 403 106 113 404 106 113 405 109 116 406 110 117 407 106 113 408 110 117 409 107 114 410 110 117 411 111 118 412 107 114 413 111 118 414 112 119 415 107 114 416 111 118 417 113 120 418 112 119 419 110 117 420 114 121 421 111 118 422 108 115 423 115 122 424 106 113 425 106 113 426 115 122 427 116 123 428 106 113 429 116 123 430 109 116 431 109 116 432 116 123 433 117 124 434 109 116 435 117 124 436 110 117 437 110 117 438 117 124 439 118 125 440 110 117 441 118 125 442 114 121 443 114 121 444 118 125 445 119 126 446 114 121 447 119 126 448 111 118 449 111 118 450 119 126 451 120 127 452 111 118 453 120 127 454 113 120 455 113 120 456 120 127 457 121 128 458 113 120 459 121 128 460 112 119 461 112 119 462 121 128 463 122 129 464 112 119 465 122 129 466 123 130 467 123 130 468 122 129 469 124 131 470 123 130 471 124 131 472 125 132 473 125 132 474 124 131 475 126 133 476 125 132 477 127 134 478 128 135 479 125 132 480 128 135 481 107 114 482 112 119 483 125 132 484 107 114 485 112 119 486 123 130 487 125 132 488 124 131 489 129 136 490 130 137 491 124 131 492 122 129 493 129 136 494 122 129 495 131 138 496 129 136 497 122 129 498 121 128 499 131 138 500 121 128 501 132 139 502 131 138 503 121 128 504 120 127 505 132 139 506 120 127 507 133 140 508 132 139 509 120 127 510 119 126 511 133 140 512 119 126 513 134 141 514 133 140 515 119 126 516 118 125 517 134 141 518 118 125 519 135 142 520 134 141 521 118 125 522 117 124 523 135 142 524 117 124 525 136 143 526 135 142 527 117 124 528 116 123 529 136 143 530 116 123 531 137 144 532 136 143 533 116 123 534 115 122 535 137 144 536 115 122 537 138 145 538 137 144 539 115 122 540 139 146 541 138 145 542 140 147 543 88 148 544 86 149 545 140 147 546 130 137 547 88 148 548 130 137 549 97 150 550 88 148 551 130 137 552 129 136 553 97 150 554 129 136 555 98 151 556 97 150 557 129 136 558 131 138 559 98 151 560 131 138 561 99 152 562 98 151 563 131 138 564 132 139 565 99 152 566 132 139 567 100 153 568 99 152 569 132 139 570 133 140 571 100 153 572 133 140 573 101 154 574 100 153 575 133 140 576 134 141 577 101 154 578 134 141 579 102 155 580 101 154 581 134 141 582 135 142 583 102 155 584 135 142 585 103 156 586 102 155 587 135 142 588 136 143 589 103 156 590 136 143 591 104 157 592 103 156 593 136 143 594 137 144 595 104 157 596 137 144 597 64 158 598 104 157 599 137 144 600 138 145 601 64 158 602 138 145 603 65 159 604 64 158 605 138 145 606 141 160 607 65 159 608 141 160 609 66 161 610 65 159 611 141 160 612 142 162 613 66 161 614 142 162 615 67 163 616 66 161 617 142 162 618 143 164 619 67 163 620 143 164 621 68 165 622 67 163 623 143 164 624 144 166 625 68 165 626 144 166 627 69 167 628 68 165 629 144 166 630 145 168 631 69 167 632 146 169 633 145 168 634 144 166 635 146 169 636 147 170 637 145 168 638 148 171 639 147 170 640 146 169 641 149 172 642 147 170 643 148 171 644 150 173 645 149 172 646 148 171 647 150 173 648 151 174 649 149 172 650 149 172 651 151 174 652 147 170 653 147 170 654 151 174 655 152 175 656 151 174 657 153 176 658 152 175 659 147 170 660 152 175 661 145 168 662 150 173 663 148 171 664 107 114 665 139 146 666 141 160 667 138 145 668 139 146 669 154 177 670 141 160 671 154 177 672 142 162 673 141 160 674 154 177 675 155 178 676 142 162 677 155 178 678 143 164 679 142 162 680 155 178 681 156 179 682 143 164 683 156 179 684 144 166 685 143 164 686 156 179 687 146 169 688 144 166 689 157 180 690 146 169 691 156 179 692 148 171 693 146 169 694 157 180 695 148 171 696 157 180 697 158 181 698 148 171 699 158 181 700 107 114 701 155 178 702 107 114 703 158 181 704 107 114 705 155 178 706 154 177 707 107 114 708 154 177 709 105 112 710 105 112 711 154 177 712 139 146 713 105 112 714 139 146 715 108 115 716 108 115 717 139 146 718 115 122 719 155 178 720 158 181 721 156 179 722 157 180 723 156 179 724 158 181 725 145 168 726 70 182 727 69 167 728 145 168 729 152 175 730 70 182 731 152 175 732 77 183 733 70 182 734 152 175 735 153 176 736 77 183 737 153 176 738 78 184 739 77 183 740 153 176 741 159 185 742 78 184 743 159 185 744 79 186 745 78 184 746 159 185 747 160 187 748 79 186 749 160 187 750 80 188 751 79 186 752 160 187 753 161 189 754 80 188 755 161 189 756 81 190 757 80 188 758 161 189 759 162 191 760 81 190 761 162 191 762 82 192 763 81 190 764 162 191 765 163 193 766 82 192 767 163 193 768 84 194 769 82 192 770 163 193 771 164 195 772 84 194 773 164 195 774 86 149 775 84 194 776 164 195 777 140 147 778 86 149 779 150 173 780 165 196 781 151 174 782 151 174 783 165 196 784 153 176 785 165 196 786 159 185 787 153 176 788 165 196 789 166 197 790 159 185 791 166 197 792 160 187 793 159 185 794 166 197 795 167 198 796 160 187 797 167 198 798 161 189 799 160 187 800 167 198 801 168 199 802 161 189 803 168 199 804 162 191 805 161 189 806 168 199 807 169 200 808 162 191 809 169 200 810 163 193 811 162 191 812 169 200 813 170 201 814 163 193 815 170 201 816 164 195 817 163 193 818 170 201 819 171 202 820 164 195 821 171 202 822 140 147 823 164 195 824 171 202 825 126 133 826 140 147 827 126 133 828 130 137 829 140 147 830 126 133 831 124 131 832 130 137 833 125 132 834 126 133 835 127 134 836 127 134 837 126 133 838 171 202 839 127 134 840 171 202 841 128 135 842 128 135 843 171 202 844 170 201 845 128 135 846 170 201 847 172 203 848 172 203 849 170 201 850 169 200 851 172 203 852 169 200 853 173 204 854 173 204 855 169 200 856 168 199 857 173 204 858 168 199 859 174 205 860 174 205 861 168 199 862 167 198 863 174 205 864 167 198 865 175 206 866 175 206 867 167 198 868 166 197 869 175 206 870 166 197 871 176 207 872 176 207 873 166 197 874 165 196 875 176 207 876 165 196 877 150 173 878 175 206 879 176 207 880 150 173 881 175 206 882 150 173 883 107 114 884 173 204 885 175 206 886 107 114 887 128 135 888 173 204 889 107 114 890 128 135 891 172 203 892 173 204 893 173 204 894 174 205 895 175 206 896 177 208 897 3 209 898 178 210 899 177 208 900 179 211 901 3 209 902 180 212 903 179 211 904 177 208 905 180 212 906 181 213 907 179 211 908 182 214 909 181 213 910 180 212 911 182 214 912 183 215 913 181 213 914 183 215 915 182 214 916 31 216 917 183 215 918 31 216 919 33 217 920 1 218 921 45 219 922 35 220 923 35 220 924 2 221 925 1 218 926 35 222 927 39 223 928 2 224 929 184 225 930 177 226 931 178 227 932 184 225 933 185 228 934 177 226 935 180 229 936 177 226 937 185 228 938 180 229 939 185 228 940 186 230 941 182 231 942 180 229 943 186 230 944 182 231 945 186 230 946 187 232 947 31 233 948 182 231 949 187 232 950 31 233 951 187 232 952 32 234 953 6 235 954 185 236 955 184 237 956 6 235 957 188 238 958 185 236 959 186 239 960 185 236 961 188 238 962 186 239 963 188 238 964 189 240 965 187 241 966 186 239 967 189 240 968 187 241 969 189 240 970 190 242 971 32 243 972 187 241 973 190 242 974 32 243 975 190 242 976 30 244 977 179 245 978 6 246 979 3 247 980 179 245 981 188 248 982 6 246 983 181 249 984 188 248 985 179 245 986 181 249 987 189 250 988 188 248 989 183 251 990 189 250 991 181 249 992 183 251 993 190 252 994 189 250 995 190 252 996 183 251 997 33 253 998 190 252 999 33 253 1000 30 254 1001 191 255 1002 192 256 1003 193 257 1004 192 256 1005 194 258 1006 193 257 1007 194 258 1008 195 259 1009 193 257 1010 195 259 1011 196 260 1012 193 257 1013 196 260 1014 197 261 1015 193 257 1016 197 261 1017 198 262 1018 193 257 1019 198 262 1020 199 263 1021 193 257 1022 199 263 1023 191 255 1024 193 257 1025 200 264 1026 191 255 1027 199 263 1028 200 264 1029 199 263 1030 201 265 1031 202 266 1032 200 264 1033 201 265 1034 202 266 1035 201 265 1036 203 267 1037 204 268 1038 202 266 1039 203 267 1040 204 268 1041 203 267 1042 205 269 1043 205 269 1044 203 267 1045 206 270 1046 203 267 1047 207 271 1048 206 270 1049 206 270 1050 207 271 1051 208 272 1052 207 271 1053 197 261 1054 208 272 1055 209 273 1056 208 272 1057 197 261 1058 209 273 1059 197 261 1060 196 260 1061 210 274 1062 209 273 1063 196 260 1064 210 274 1065 196 260 1066 195 259 1067 210 274 1068 195 259 1069 194 258 1070 210 274 1071 194 258 1072 211 275 1073 211 275 1074 194 258 1075 192 256 1076 211 275 1077 192 256 1078 212 276 1079 203 267 1080 201 265 1081 207 271 1082 201 265 1083 198 262 1084 207 271 1085 201 265 1086 199 263 1087 198 262 1088 207 271 1089 198 262 1090 197 261 1091 206 270 1092 208 272 1093 213 277 1094 214 278 1095 213 277 1096 208 272 1097 214 278 1098 208 272 1099 209 273 1100 215 279 1101 214 278 1102 209 273 1103 215 279 1104 209 273 1105 210 274 1106 215 279 1107 210 274 1108 211 275 1109 215 279 1110 211 275 1111 216 280 1112 217 281 1113 216 280 1114 211 275 1115 217 281 1116 211 275 1117 212 276 1118 200 264 1119 212 276 1120 192 256 1121 202 266 1122 212 276 1123 200 264 1124 202 266 1125 217 281 1126 212 276 1127 218 282 1128 217 281 1129 202 266 1130 218 282 1131 216 280 1132 217 281 1133 218 282 1134 219 283 1135 216 280 1136 219 283 1137 215 279 1138 216 280 1139 219 283 1140 220 284 1141 215 279 1142 220 284 1143 214 278 1144 215 279 1145 220 284 1146 221 285 1147 214 278 1148 222 286 1149 214 278 1150 221 285 1151 222 286 1152 213 277 1153 214 278 1154 223 287 1155 213 277 1156 222 286 1157 223 287 1158 206 270 1159 213 277 1160 205 269 1161 206 270 1162 223 287 1163 218 282 1164 202 266 1165 204 268 1166 200 264 1167 192 256 1168 191 255 1169 28 26 1170 224 288 1171 27 25 1172 28 26 1173 225 289 1174 224 288 1175 18 290 1176 226 291 1177 20 292 1178 15 293 1179 226 291 1180 18 290 1181 15 293 1182 227 294 1183 226 291 1184 16 295 1185 228 296 1186 229 297 1187 16 295 1188 17 298 1189 228 296 1190 228 296 1191 17 298 1192 19 299 1193 230 300 1194 231 301 1195 232 302 1196 233 303 1197 232 302 1198 231 301 1199 234 304 1200 235 305 1201 233 303 1202 233 303 1203 235 305 1204 232 302 1205 235 305 1206 236 306 1207 232 302 1208 237 307 1209 232 302 1210 236 306 1211 230 300 1212 232 302 1213 237 307 1214 238 308 1215 230 300 1216 237 307 1217 237 307 1218 236 306 1219 239 309 1220 240 310 1221 237 307 1222 239 309 1223 238 308 1224 237 307 1225 240 310 1226 238 308 1227 240 310 1228 241 311 1229 238 308 1230 241 311 1231 242 312 1232 242 312 1233 241 311 1234 243 313 1235 242 312 1236 243 313 1237 244 314 1238 245 315 1239 244 314 1240 243 313 1241 245 315 1242 243 313 1243 246 316 1244 234 304 1245 245 315 1246 246 316 1247 234 304 1248 246 316 1249 247 317 1250 234 304 1251 247 317 1252 235 305 1253 247 317 1254 248 318 1255 235 305 1256 235 305 1257 248 318 1258 236 306 1259 248 318 1260 249 319 1261 236 306 1262 236 306 1263 249 319 1264 250 320 1265 236 306 1266 250 320 1267 239 309 1268 251 321 1269 239 309 1270 250 320 1271 240 310 1272 239 309 1273 251 321 1274 240 310 1275 251 321 1276 252 322 1277 240 310 1278 252 322 1279 241 311 1280 241 311 1281 252 322 1282 253 323 1283 241 311 1284 253 323 1285 243 313 1286 246 316 1287 243 313 1288 253 323 1289 246 316 1290 253 323 1291 254 324 1292 247 317 1293 246 316 1294 254 324 1295 247 317 1296 254 324 1297 255 325 1298 247 317 1299 255 325 1300 248 318 1301 255 325 1302 256 326 1303 248 318 1304 248 318 1305 256 326 1306 249 319 1307 255 325 1308 257 327 1309 256 326 1310 255 325 1311 258 328 1312 257 327 1313 255 325 1314 254 324 1315 258 328 1316 254 324 1317 259 329 1318 258 328 1319 254 324 1320 253 323 1321 259 329 1322 252 322 1323 259 329 1324 253 323 1325 252 322 1326 260 330 1327 259 329 1328 251 321 1329 260 330 1330 252 322 1331 251 321 1332 261 331 1333 260 330 1334 251 321 1335 250 320 1336 261 331 1337 24 332 1338 262 333 1339 22 334 1340 13 335 1341 262 333 1342 24 332 1343 13 335 1344 263 336 1345 262 333 1346 14 337 1347 264 338 1348 265 339 1349 14 337 1350 21 340 1351 264 338 1352 264 338 1353 21 340 1354 23 341 1355 266 342 1356 27 343 1357 224 344 1358 26 345 1359 27 343 1360 266 342 1361 26 345 1362 266 342 1363 267 346 1364 268 347 1365 26 345 1366 267 346 1367 268 347 1368 5 348 1369 26 345 1370 11 349 1371 269 350 1372 270 351 1373 11 349 1374 7 352 1375 269 350 1376 269 350 1377 7 352 1378 9 353 1379 229 354 1380 268 355 1381 271 356 1382 268 355 1383 267 357 1384 271 356 1385 271 356 1386 267 357 1387 266 358 1388 271 356 1389 266 358 1390 272 359 1391 272 359 1392 266 358 1393 224 360 1394 272 359 1395 224 360 1396 225 361 1397 178 362 1398 273 363 1399 184 364 1400 178 362 1401 268 355 1402 273 363 1403 265 365 1404 273 363 1405 268 355 1406 265 365 1407 268 355 1408 227 366 1409 227 366 1410 268 355 1411 229 354 1412 227 366 1413 229 354 1414 228 367 1415 227 366 1416 228 367 1417 226 368 1418 226 368 1419 228 367 1420 19 369 1421 226 368 1422 19 369 1423 20 370 1424 264 371 1425 23 372 1426 22 373 1427 264 371 1428 22 373 1429 262 374 1430 265 365 1431 264 371 1432 262 374 1433 265 365 1434 262 374 1435 263 375 1436 263 375 1437 273 363 1438 265 365 1439 270 376 1440 273 363 1441 263 375 1442 274 377 1443 273 363 1444 270 376 1445 270 376 1446 275 378 1447 274 377 1448 270 376 1449 269 379 1450 275 378 1451 269 379 1452 8 380 1453 275 378 1454 269 379 1455 9 381 1456 8 380 1457 28 382 1458 272 383 1459 225 384 1460 25 385 1461 272 383 1462 28 382 1463 25 385 1464 271 386 1465 272 383 1466 25 387 1467 229 388 1468 271 389 1469 25 387 1470 16 390 1471 229 388 1472 15 391 1473 265 392 1474 227 393 1475 15 391 1476 14 394 1477 265 392 1478 13 395 1479 270 396 1480 263 397 1481 13 395 1482 11 398 1483 270 396 1484 273 399 1485 12 400 1486 4 401 1487 273 399 1488 274 402 1489 12 400 1490 12 400 1491 274 402 1492 275 403 1493 12 400 1494 275 403 1495 10 404 1496 10 404 1497 275 403 1498 8 405 1499 3 406 1500 268 407 1501 178 408 1502 3 406 1503 5 409 1504 268 407 1505 6 410 1506 273 411 1507 4 412 1508 6 410 1509 184 413 1510 273 411 1511 276 414 1512 277 415 1513 278 416 1514 276 414 1515 279 417 1516 277 415 1517 279 417 1518 280 418 1519 277 415 1520 279 417 1521 281 419 1522 280 418 1523 282 420 1524 280 418 1525 281 419 1526 282 420 1527 283 421 1528 280 418 1529 284 422 1530 283 421 1531 282 420 1532 284 422 1533 285 423 1534 283 421 1535 286 424 1536 285 423 1537 284 422 1538 286 424 1539 287 425 1540 285 423 1541 286 424 1542 288 426 1543 287 425 1544 286 424 1545 289 427 1546 288 426 1547 289 427 1548 290 428 1549 288 426 1550 289 427 1551 291 429 1552 290 428 1553 291 429 1554 278 416 1555 290 428 1556 291 429 1557 276 414 1558 278 416 1559 292 430 1560 293 431 1561 294 432 1562 292 430 1563 295 433 1564 293 431 1565 295 433 1566 296 434 1567 293 431 1568 295 433 1569 297 435 1570 296 434 1571 298 436 1572 296 434 1573 297 435 1574 298 436 1575 299 437 1576 296 434 1577 300 438 1578 299 437 1579 298 436 1580 300 438 1581 301 439 1582 299 437 1583 302 440 1584 301 439 1585 300 438 1586 302 440 1587 303 441 1588 301 439 1589 302 440 1590 304 442 1591 303 441 1592 302 440 1593 305 443 1594 304 442 1595 305 443 1596 306 444 1597 304 442 1598 305 443 1599 307 445 1600 306 444 1601 307 445 1602 294 432 1603 306 444 1604 307 445 1605 292 430 1606 294 432 1607 306 446 1608 294 447 1609 308 448 1610 294 447 1611 293 449 1612 308 448 1613 293 449 1614 296 450 1615 308 448 1616 296 450 1617 299 451 1618 308 448 1619 299 451 1620 301 452 1621 308 448 1622 301 452 1623 303 453 1624 308 448 1625 303 453 1626 304 454 1627 308 448 1628 304 454 1629 306 446 1630 308 448 1631 290 455 1632 278 456 1633 309 457 1634 278 456 1635 277 458 1636 309 457 1637 277 458 1638 280 459 1639 309 457 1640 280 459 1641 283 460 1642 309 457 1643 283 460 1644 285 461 1645 309 457 1646 285 461 1647 287 462 1648 309 457 1649 287 462 1650 288 463 1651 309 457 1652 288 463 1653 290 455 1654 309 457 1655</p>
        </triangles>
      </mesh>
    </geometry>
  </library_geometries>
  <library_controllers>
    <controller id="medkit_medium_bday_qc_skeleton_medkit_medium_bday-skin" name="medkit_medium_bday.qc_skeleton">
      <skin source="#medkit_medium_bday-mesh">
        <bind_shape_matrix>1 0 0 0 0 1 0 0 0 0 1 0 0 0 0 1</bind_shape_matrix>
        <source id="medkit_medium_bday_qc_skeleton_medkit_medium_bday-skin-joints">
          <Name_array id="medkit_medium_bday_qc_skeleton_medkit_medium_bday-skin-joints-array" count="1">medkit_root</Name_array>
          <technique_common>
            <accessor source="#medkit_medium_bday_qc_skeleton_medkit_medium_bday-skin-joints-array" count="1" stride="1">
              <param name="JOINT" type="name"/>
            </accessor>
          </technique_common>
        </source>
        <source id="medkit_medium_bday_qc_skeleton_medkit_medium_bday-skin-bind_poses">
          <float_array id="medkit_medium_bday_qc_skeleton_medkit_medium_bday-skin-bind_poses-array" count="16">1 0 0 0 0 1 0 0 0 0 1 0 0 0 0 1</float_array>
          <technique_common>
            <accessor source="#medkit_medium_bday_qc_skeleton_medkit_medium_bday-skin-bind_poses-array" count="1" stride="16">
              <param name="TRANSFORM" type="float4x4"/>
            </accessor>
          </technique_common>
        </source>
        <source id="medkit_medium_bday_qc_skeleton_medkit_medium_bday-skin-weights">
          <float_array id="medkit_medium_bday_qc_skeleton_medkit_medium_bday-skin-weights-array" count="310">1 1 1 1 1 1 1 1 1 1 1 1 1 1 1 1 1 1 1 1 1 1 1 1 1 1 1 1 1 1 1 1 1 1 1 1 1 1 1 1 1 1 1 1 1 1 1 1 1 1 1 1 1 1 1 1 1 1 1 1 1 1 1 1 1 1 1 1 1 1 1 1 1 1 1 1 1 1 1 1 1 1 1 1 1 1 1 1 1 1 1 1 1 1 1 1 1 1 1 1 1 1 1 1 1 1 1 1 1 1 1 1 1 1 1 1 1 1 1 1 1 1 1 1 1 1 1 1 1 1 1 1 1 1 1 1 1 1 1 1 1 1 1 1 1 1 1 1 1 1 1 1 1 1 1 1 1 1 1 1 1 1 1 1 1 1 1 1 1 1 1 1 1 1 1 1 1 1 1 1 1 1 1 1 1 1 1 1 1 1 1 1 1 1 1 1 1 1 1 1 1 1 1 1 1 1 1 1 1 1 1 1 1 1 1 1 1 1 1 1 1 1 1 1 1 1 1 1 1 1 1 1 1 1 1 1 1 1 1 1 1 1 1 1 1 1 1 1 1 1 1 1 1 1 1 1 1 1 1 1 1 1 1 1 1 1 1 1 1 1 1 1 1 1 1 1 1 1 1 1 1 1 1 1 1 1 1 1 1 1 1 1 1 1 1 1 1 1 1 1 1 1 1 1 1 1 1 1 1 1</float_array>
          <technique_common>
            <accessor source="#medkit_medium_bday_qc_skeleton_medkit_medium_bday-skin-weights-array" count="310" stride="1">
              <param name="WEIGHT" type="float"/>
            </accessor>
          </technique_common>
        </source>
        <joints>
          <input semantic="JOINT" source="#medkit_medium_bday_qc_skeleton_medkit_medium_bday-skin-joints"/>
          <input semantic="INV_BIND_MATRIX" source="#medkit_medium_bday_qc_skeleton_medkit_medium_bday-skin-bind_poses"/>
        </joints>
        <vertex_weights count="310">
          <input semantic="JOINT" source="#medkit_medium_bday_qc_skeleton_medkit_medium_bday-skin-joints" offset="0"/>
          <input semantic="WEIGHT" source="#medkit_medium_bday_qc_skeleton_medkit_medium_bday-skin-weights" offset="1"/>
          <vcount>1 1 1 1 1 1 1 1 1 1 1 1 1 1 1 1 1 1 1 1 1 1 1 1 1 1 1 1 1 1 1 1 1 1 1 1 1 1 1 1 1 1 1 1 1 1 1 1 1 1 1 1 1 1 1 1 1 1 1 1 1 1 1 1 1 1 1 1 1 1 1 1 1 1 1 1 1 1 1 1 1 1 1 1 1 1 1 1 1 1 1 1 1 1 1 1 1 1 1 1 1 1 1 1 1 1 1 1 1 1 1 1 1 1 1 1 1 1 1 1 1 1 1 1 1 1 1 1 1 1 1 1 1 1 1 1 1 1 1 1 1 1 1 1 1 1 1 1 1 1 1 1 1 1 1 1 1 1 1 1 1 1 1 1 1 1 1 1 1 1 1 1 1 1 1 1 1 1 1 1 1 1 1 1 1 1 1 1 1 1 1 1 1 1 1 1 1 1 1 1 1 1 1 1 1 1 1 1 1 1 1 1 1 1 1 1 1 1 1 1 1 1 1 1 1 1 1 1 1 1 1 1 1 1 1 1 1 1 1 1 1 1 1 1 1 1 1 1 1 1 1 1 1 1 1 1 1 1 1 1 1 1 1 1 1 1 1 1 1 1 1 1 1 1 1 1 1 1 1 1 1 1 1 1 1 1 1 1 1 1 1 1 1 1 1 1 1 1 1 1 1 1 1 1 1 1 1 1 1 1 </vcount>
          <v>0 0 0 1 0 2 0 3 0 4 0 5 0 6 0 7 0 8 0 9 0 10 0 11 0 12 0 13 0 14 0 15 0 16 0 17 0 18 0 19 0 20 0 21 0 22 0 23 0 24 0 25 0 26 0 27 0 28 0 29 0 30 0 31 0 32 0 33 0 34 0 35 0 36 0 37 0 38 0 39 0 40 0 41 0 42 0 43 0 44 0 45 0 46 0 47 0 48 0 49 0 50 0 51 0 52 0 53 0 54 0 55 0 56 0 57 0 58 0 59 0 60 0 61 0 62 0 63 0 64 0 65 0 66 0 67 0 68 0 69 0 70 0 71 0 72 0 73 0 74 0 75 0 76 0 77 0 78 0 79 0 80 0 81 0 82 0 83 0 84 0 85 0 86 0 87 0 88 0 89 0 90 0 91 0 92 0 93 0 94 0 95 0 96 0 97 0 98 0 99 0 100 0 101 0 102 0 103 0 104 0 105 0 106 0 107 0 108 0 109 0 110 0 111 0 112 0 113 0 114 0 115 0 116 0 117 0 118 0 119 0 120 0 121 0 122 0 123 0 124 0 125 0 126 0 127 0 128 0 129 0 130 0 131 0 132 0 133 0 134 0 135 0 136 0 137 0 138 0 139 0 140 0 141 0 142 0 143 0 144 0 145 0 146 0 147 0 148 0 149 0 150 0 151 0 152 0 153 0 154 0 155 0 156 0 157 0 158 0 159 0 160 0 161 0 162 0 163 0 164 0 165 0 166 0 167 0 168 0 169 0 170 0 171 0 172 0 173 0 174 0 175 0 176 0 177 0 178 0 179 0 180 0 181 0 182 0 183 0 184 0 185 0 186 0 187 0 188 0 189 0 190 0 191 0 192 0 193 0 194 0 195 0 196 0 197 0 198 0 199 0 200 0 201 0 202 0 203 0 204 0 205 0 206 0 207 0 208 0 209 0 210 0 211 0 212 0 213 0 214 0 215 0 216 0 217 0 218 0 219 0 220 0 221 0 222 0 223 0 224 0 225 0 226 0 227 0 228 0 229 0 230 0 231 0 232 0 233 0 234 0 235 0 236 0 237 0 238 0 239 0 240 0 241 0 242 0 243 0 244 0 245 0 246 0 247 0 248 0 249 0 250 0 251 0 252 0 253 0 254 0 255 0 256 0 257 0 258 0 259 0 260 0 261 0 262 0 263 0 264 0 265 0 266 0 267 0 268 0 269 0 270 0 271 0 272 0 273 0 274 0 275 0 276 0 277 0 278 0 279 0 280 0 281 0 282 0 283 0 284 0 285 0 286 0 287 0 288 0 289 0 290 0 291 0 292 0 293 0 294 0 295 0 296 0 297 0 298 0 299 0 300 0 301 0 302 0 303 0 304 0 305 0 306 0 307 0 308 0 309</v>
        </vertex_weights>
      </skin>
    </controller>
  </library_controllers>
  <library_animations>
    <animation id="action_container-medkit_medium_bday_qc_skeleton" name="medkit_medium_bday.qc_skeleton">
      <animation id="medkit_medium_bday_qc_skeleton_idle_003_medkit_root_pose_matrix" name="medkit_medium_bday.qc_skeleton">
        <source id="medkit_medium_bday_qc_skeleton_idle_003_medkit_root_pose_matrix-input">
          <float_array id="medkit_medium_bday_qc_skeleton_idle_003_medkit_root_pose_matrix-input-array" count="30">0 0.04166662 0.08333331 0.125 0.1666666 0.2083333 0.25 0.2916666 0.3333333 0.375 0.4166666 0.4583333 0.5 0.5416667 0.5833333 0.625 0.6666667 0.7083333 0.75 0.7916667 0.8333333 0.875 0.9166667 0.9583333 1 1.041667 1.083333 1.125 1.166667 1.208333</float_array>
          <technique_common>
            <accessor source="#medkit_medium_bday_qc_skeleton_idle_003_medkit_root_pose_matrix-input-array" count="30" stride="1">
              <param name="TIME" type="float"/>
            </accessor>
          </technique_common>
        </source>
        <source id="medkit_medium_bday_qc_skeleton_idle_003_medkit_root_pose_matrix-output">
          <float_array id="medkit_medium_bday_qc_skeleton_idle_003_medkit_root_pose_matrix-output-array" count="480">1 5.67389e-10 -1.2e-5 0 -1.2e-5 4.72824e-5 -1 0 0 1 4.72824e-5 0 0 0 0 1 0.9765227 -1.01853e-5 0.2154142 0 0.2154142 4.61723e-5 -0.9765227 0 0 1 4.72824e-5 0 0 0 0 1 0.9075843 -1.98524e-5 0.4198699 0 0.4198699 4.29127e-5 -0.9075843 0 0 1 4.72824e-5 0 0 0 0 1 0.7961093 -2.86131e-5 0.6051529 0 0.6051529 3.76419e-5 -0.7961093 0 0 1 4.72824e-5 0 0 0 0 1 0.647051 -3.60503e-5 0.7624467 0 0.7624467 3.05941e-5 -0.647051 0 0 1 4.72824e-5 0 0 0 0 1 0.4684401 -4.17738e-5 0.8834953 0 0.8834953 2.2149e-5 -0.4684401 0 0 1 4.72824e-5 0 0 0 0 1 0.2675683 -4.55584e-5 0.9635389 0 0.9635389 1.26513e-5 -0.2675683 0 0 1 4.72824e-5 0 0 0 0 1 0.0536196 -4.72144e-5 0.9985614 0 0.9985614 2.53526e-6 -0.0536196 0 0 1 4.72824e-5 0 0 0 0 1 -0.1618717 -4.66588e-5 0.9868118 0 0.9868118 -7.65368e-6 0.1618717 0 0 1 4.72824e-5 0 0 0 0 1 -0.3702173 -4.39227e-5 0.9289452 0 0.9289452 -1.75048e-5 0.3702173 0 0 1 4.72824e-5 0 0 0 0 1 -0.5616437 -3.91205e-5 0.8273792 0 0.8273792 -2.65558e-5 0.5616437 0 0 1 4.72824e-5 0 0 0 0 1 -0.7260478 -3.25135e-5 0.6876442 0 0.6876442 -3.43293e-5 0.7260478 0 0 1 4.72824e-5 0 0 0 0 1 -0.856894 -2.43737e-5 0.5154927 0 0.5154927 -4.0516e-5 0.856894 0 0 1 4.72824e-5 0 0 0 0 1 -0.9478245 -1.50733e-5 0.3187927 0 0.3187927 -4.48154e-5 0.9478245 0 0 1 4.72824e-5 0 0 0 0 1 -0.9941446 -5.10924e-6 0.108058 0 0.108058 -4.70055e-5 0.9941446 0 0 1 4.72824e-5 0 0 0 0 1 -0.9941318 3.39581e-8 -0.1081755 0 -0.1081755 -3.12074e-7 0.9941318 0 0 1 3.13916e-7 0 0 0 0 1 -0.9474862 1.00389e-7 -0.3197965 0 -0.3197965 -2.97432e-7 0.9474862 0 0 1 3.13916e-7 0 0 0 0 1 -0.856833 1.61853e-7 -0.515594 0 -0.515594 -2.68974e-7 0.856833 0 0 1 3.13916e-7 0 0 0 0 1 -0.7259665 2.1589e-7 -0.6877301 0 -0.6877301 -2.27893e-7 0.7259665 0 0 1 3.13916e-7 0 0 0 0 1 -0.5606882 2.59931e-7 -0.828027 0 -0.828027 -1.76009e-7 0.5606882 0 0 1 3.13916e-7 0 0 0 0 1 -0.3701083 2.91625e-7 -0.9289886 0 -0.9289886 -1.16183e-7 0.3701083 0 0 1 3.13916e-7 0 0 0 0 1 -0.1617549 3.09783e-7 -0.9868309 0 -0.9868309 -5.07775e-8 0.1617549 0 0 1 3.13916e-7 0 0 0 0 1 0.05463211 4.72118e-5 -0.9985065 0 -0.9985065 2.58314e-6 -0.05463211 0 0 1 4.72824e-5 0 0 0 0 1 0.2674545 4.55599e-5 -0.9635705 0 -0.9635705 1.26459e-5 -0.2674545 0 0 1 4.72824e-5 0 0 0 0 1 0.4683367 4.17763e-5 -0.8835501 0 -0.8835501 2.21441e-5 -0.4683367 0 0 1 4.72824e-5 0 0 0 0 1 0.6477515 3.60222e-5 -0.7618517 0 -0.7618517 3.06272e-5 -0.6477515 0 0 1 4.72824e-5 0 0 0 0 1 0.7960378 2.86175e-5 -0.6052469 0 -0.6052469 3.76386e-5 -0.7960378 0 0 1 4.72824e-5 0 0 0 0 1 0.9075747 1.98534e-5 -0.4198908 0 -0.4198908 4.29123e-5 -0.9075747 0 0 1 4.72824e-5 0 0 0 0 1 0.9767203 1.01429e-5 -0.2145167 0 -0.2145167 4.61817e-5 -0.9767203 0 0 1 4.72824e-5 0 0 0 0 1 1 5.67389e-10 -1.2e-5 0 -1.2e-5 4.72824e-5 -1 0 0 1 4.72824e-5 0 0 0 0 1</float_array>
          <technique_common>
            <accessor source="#medkit_medium_bday_qc_skeleton_idle_003_medkit_root_pose_matrix-output-array" count="30" stride="16">
              <param name="TRANSFORM" type="float4x4"/>
            </accessor>
          </technique_common>
        </source>
        <source id="medkit_medium_bday_qc_skeleton_idle_003_medkit_root_pose_matrix-interpolation">
          <Name_array id="medkit_medium_bday_qc_skeleton_idle_003_medkit_root_pose_matrix-interpolation-array" count="30">LINEAR LINEAR LINEAR LINEAR LINEAR LINEAR LINEAR LINEAR LINEAR LINEAR LINEAR LINEAR LINEAR LINEAR LINEAR LINEAR LINEAR LINEAR LINEAR LINEAR LINEAR LINEAR LINEAR LINEAR LINEAR LINEAR LINEAR LINEAR LINEAR LINEAR</Name_array>
          <technique_common>
            <accessor source="#medkit_medium_bday_qc_skeleton_idle_003_medkit_root_pose_matrix-interpolation-array" count="30" stride="1">
              <param name="INTERPOLATION" type="name"/>
            </accessor>
          </technique_common>
        </source>
        <sampler id="medkit_medium_bday_qc_skeleton_idle_003_medkit_root_pose_matrix-sampler">
          <input semantic="INPUT" source="#medkit_medium_bday_qc_skeleton_idle_003_medkit_root_pose_matrix-input"/>
          <input semantic="OUTPUT" source="#medkit_medium_bday_qc_skeleton_idle_003_medkit_root_pose_matrix-output"/>
          <input semantic="INTERPOLATION" source="#medkit_medium_bday_qc_skeleton_idle_003_medkit_root_pose_matrix-interpolation"/>
        </sampler>
        <channel source="#medkit_medium_bday_qc_skeleton_idle_003_medkit_root_pose_matrix-sampler" target="medkit_medium_bday_qc_skeleton_medkit_root/transform"/>
      </animation>
    </animation>
  </library_animations>
  <library_visual_scenes>
    <visual_scene id="medkit_small_bday_qc" name="medkit_small_bday.qc">
      <node id="medkit_medium_bday_qc_skeleton" name="medkit_medium_bday.qc_skeleton" type="NODE">
        <matrix sid="transform">1 0 0 0 0 1 0 0 0 0 1 0 0 0 0 1</matrix>
        <node id="medkit_medium_bday_qc_skeleton_medkit_root" name="medkit_root" sid="medkit_root" type="JOINT">
          <matrix sid="transform">1 0 0 0 0 1 0 0 0 0 1 0 0 0 0 1</matrix>
          <extra>
            <technique profile="blender">
              <layer sid="layer" type="string">0</layer>
              <tip_x sid="tip_x" type="float">0</tip_x>
              <tip_y sid="tip_y" type="float">0.000999987</tip_y>
              <tip_z sid="tip_z" type="float">0</tip_z>
            </technique>
          </extra>
        </node>
        <node id="medkit_medium_bday" name="medkit_medium_bday" type="NODE">
          <matrix sid="transform">1 0 0 0 0 1 0 0 0 0 1 0 0 0 0 1</matrix>
          <instance_controller url="#medkit_medium_bday_qc_skeleton_medkit_medium_bday-skin">
            <skeleton>#medkit_medium_bday_qc_skeleton_medkit_root</skeleton>
            <bind_material>
              <technique_common>
                <instance_material symbol="medkit_birthday-material" target="#medkit_birthday-material">
                  <bind_vertex_input semantic="UVMap" input_semantic="TEXCOORD" input_set="0"/>
                </instance_material>
              </technique_common>
            </bind_material>
          </instance_controller>
        </node>
      </node>
    </visual_scene>
  </library_visual_scenes>
  <scene>
    <instance_visual_scene url="#medkit_small_bday_qc"/>
  </scene>
</COLLADA>