# Blender 3.3.0
# www.blender.org
mtllib target_heavy.mtl
o target_heavy
v -12.300933 19.150492 0.845175
v -7.876100 21.564041 0.845174
v -5.328456 24.245764 0.845175
v -22.491474 17.943718 0.845175
v -17.262115 17.943718 0.845175
v -31.609333 23.441246 0.845176
v -20.882442 50.124382 0.845177
v -0.099099 78.818810 0.845177
v -22.357395 75.868919 0.845178
v -12.569108 83.109558 0.845178
v -4.658019 81.366440 0.845177
v -8.680607 82.707314 0.845177
v -1.305868 79.891495 0.845177
v -27.452665 19.955008 0.845175
v -18.871149 81.098282 0.845178
v -20.748356 78.818810 0.845178
v -16.189434 82.439140 0.845178
v -35.229660 34.972652 0.845177
v -34.291054 28.804691 0.845177
v -32.011597 45.029110 0.845176
v -25.173197 49.319862 0.845177
v -21.821047 50.124382 0.845177
v -28.927610 47.710831 0.845177
v -34.425144 40.202011 0.845177
v 10.761879 87.802582 0.845177
v 9.286935 85.925377 0.845177
v 7.275640 80.964195 0.845177
v 22.159187 77.746109 0.845176
v 24.438656 45.833626 0.845174
v 22.159187 31.620499 0.845174
v 24.840919 37.788464 0.845174
v 23.634132 32.156845 0.845174
v 34.226936 62.326218 0.845174
v 29.533926 75.198486 0.845176
v 26.315863 76.539345 0.845176
v 32.886078 71.041817 0.845176
v 33.556515 68.091919 0.845174
v 31.411133 73.187195 0.845176
v 33.824688 53.342449 0.845174
v 34.226936 57.365032 0.845174
v 31.679308 47.979004 0.845175
v 28.193069 46.101799 0.845174
v 26.181776 45.833626 0.845174
v 30.204365 46.772228 0.845175
v 32.751991 49.722122 0.845175
v -6.689225 0.000000 0.845174
v 26.368055 0.000000 0.845173
v 26.368055 11.507582 0.845173
v -7.493750 11.892632 0.845174
v -5.194369 13.635754 0.845174
v -3.680988 15.781132 0.845174
v 25.831722 15.261995 0.845173
v 25.374327 18.345976 0.845173
v 24.840919 21.564041 0.845173
v 22.695538 28.134260 0.845174
v 34.226936 62.326218 0.000001
v 34.226936 57.365032 0.000001
v 33.824688 53.342449 0.000001
v 32.751991 49.722122 0.000001
v 31.679308 47.979004 0.000001
v 28.193069 46.101799 0.000001
v 24.438656 45.833626 0.000001
v 26.181776 45.833626 0.000001
v 30.204365 46.772228 0.000001
v -16.189434 82.439140 0.000004
v -12.569108 83.109558 0.000004
v -8.680607 82.707314 0.000003
v -1.305868 79.891495 0.000003
v -20.882442 50.124382 0.000003
v -0.099099 78.818810 0.000003
v 21.488768 81.768700 0.000002
v 22.159187 77.746109 0.000002
v 32.886078 71.041817 0.000002
v 33.556515 68.091919 0.000002
v 22.025101 79.489235 0.000002
v -4.658019 81.366440 0.000003
v 7.275640 80.964195 0.000003
v 26.315863 76.539345 0.000002
v 29.533926 75.198486 0.000002
v 31.411133 73.187195 0.000002
v -20.748356 78.818810 0.000004
v -18.871149 81.098282 0.000004
v -22.357395 75.868919 0.000004
v 19.075212 86.729881 0.000003
v 20.684244 84.182259 0.000002
v 15.320800 89.277527 0.000003
v 10.761879 87.802582 0.000004
v 9.286935 85.925377 0.000004
v 12.773173 89.009354 0.000003
v 17.466181 88.338913 0.000003
v -32.011597 45.029110 0.000003
v -28.927610 47.710831 0.000003
v -25.173197 49.319862 0.000003
v -35.229660 34.972652 0.000003
v -34.425144 40.202011 0.000004
v -5.328456 24.245764 0.000001
v -21.821047 50.124382 0.000003
v -31.609333 23.441246 0.000002
v -34.291054 28.804691 0.000002
v -22.491474 17.943718 0.000002
v -12.300933 19.150492 0.000002
v -7.876100 21.564041 0.000001
v -17.262115 17.943718 0.000002
v -27.452665 19.955008 0.000002
v 24.840919 37.788464 0.000000
v 23.634132 32.156845 0.000000
v 22.159187 31.620499 0.000000
v 22.695538 28.134260 0.000000
v 24.840919 21.564041 0.000000
v -3.680988 15.781132 0.000001
v 25.374327 18.345976 0.000000
v 25.831722 15.261995 -0.000001
v 26.368055 11.507582 -0.000001
v -5.194369 13.635754 0.000000
v -7.493750 11.892632 0.000000
v -6.689225 0.000000 0.000000
v 26.368055 0.000000 -0.000001
v 15.320800 89.277527 0.845176
v 12.773173 89.009354 0.845176
v 19.075212 86.729881 0.845176
v 17.466181 88.338913 0.845176
v 21.488768 81.768700 0.845176
v 20.684244 84.182259 0.845176
v 22.025101 79.489235 0.845176
vn -0.0000 -0.0000 1.0000
vn -0.0000 -0.0000 -1.0000
vn -0.1175 0.9931 -0.0000
vn -0.0000 1.0000 -0.0000
vn -0.3148 0.9492 -0.0000
vn -0.5315 0.8471 -0.0000
vn -0.7904 0.6126 -0.0000
vn -0.9529 0.3033 -0.0000
vn -1.0000 0.0008 -0.0000
vn -0.9531 -0.3025 -0.0000
vn -0.7849 -0.6196 -0.0000
vn -0.5154 -0.8569 -0.0000
vn -0.1914 -0.9815 -0.0000
vn 0.1190 -0.9929 -0.0000
vn 0.3607 -0.9327 -0.0000
vn 0.6093 -0.7929 -0.0000
vn 0.7250 -0.6888 -0.0000
vn 0.0662 -0.9978 -0.0000
vn -0.0000 -1.0000 -0.0000
vn 0.2252 -0.9743 -0.0000
vn 0.4827 -0.8758 -0.0000
vn 0.7529 -0.6582 -0.0000
vn 0.9131 -0.4076 -0.0000
vn 0.9813 -0.1926 -0.0000
vn 0.9988 -0.0498 -0.0000
vn 0.9983 0.0578 -0.0000
vn 0.9856 0.1688 -0.0000
vn 0.9160 0.4013 -0.0000
vn 0.7797 0.6262 -0.0000
vn 0.5707 0.8212 -0.0000
vn 0.3322 0.9432 -0.0000
vn 0.2788 0.9603 -0.0000
vn 0.9882 0.1533 -0.0000
vn 0.9971 0.0767 -0.0000
vn 0.9620 0.2729 -0.0000
vn 0.9037 0.4282 -0.0000
vn 0.7811 0.6244 -0.0000
vn 0.5637 0.8260 -0.0000
vn 0.1532 0.9882 -0.0000
vn -0.3171 0.9484 -0.0000
vn -0.6614 0.7501 -0.0000
vn -0.8650 0.5017 -0.0000
vn -0.9267 0.3757 -0.0000
vn 0.5401 0.8416 -0.0000
vn 0.6644 0.7474 -0.0000
vn 0.3599 0.9330 -0.0000
vn 0.2108 0.9775 -0.0000
vn -0.0400 0.9992 -0.0000
vn -0.3178 0.9482 -0.0000
vn -0.6231 0.7821 -0.0000
vn -0.8286 0.5598 -0.0000
vn -0.9757 0.2193 -0.0000
vn -0.9984 -0.0572 -0.0000
vn -0.2793 0.9602 -0.0000
vn 0.9975 0.0709 -0.0000
vn 1.0000 -0.0000 -0.0000
vn 0.9896 0.1441 -0.0000
vn 0.9879 0.1551 -0.0000
vn 0.9714 0.2376 -0.0000
vn 0.9727 0.2320 -0.0000
vn 0.9884 0.1521 -0.0000
vn -0.7191 0.6949 -0.0000
vn -0.8171 0.5764 -0.0000
vn -0.9101 0.4144 -0.0000
vn -0.9977 -0.0675 -0.0000
vn -0.9816 -0.1910 -0.0000
vn 0.3417 -0.9398 -0.0000
vn 0.9968 -0.0805 -0.0000
vn 0.9778 -0.2095 -0.0000
vn 0.9988 0.0499 -0.0000
vt 0.258920 0.217266
vt 0.999277 0.214505
vt 0.306933 0.244033
vt 0.999277 0.241539
vt 0.334577 0.273774
vt 0.999277 0.271578
vt 0.148345 0.203883
vt 0.999277 0.200988
vt 0.205088 0.203883
vt 0.999277 0.200988
vt 0.049409 0.264851
vt 0.999277 0.262566
vt 0.165804 0.560771
vt 0.999277 0.561445
vt 0.391320 0.878996
vt 0.999277 0.882852
vt 0.149800 0.846281
vt 0.999277 0.849810
vt 0.256010 0.926581
vt 0.999277 0.930912
vt 0.341852 0.907249
vt 0.999277 0.911388
vt 0.298204 0.922120
vt 0.999277 0.926407
vt 0.378225 0.890892
vt 0.999277 0.894867
vt 0.094512 0.226189
vt 0.999277 0.223517
vt 0.187628 0.904275
vt 0.999277 0.908384
vt 0.167259 0.878996
vt 0.999277 0.882852
vt 0.216727 0.919145
vt 0.999277 0.923403
vt 0.010126 0.392736
vt 0.999277 0.391730
vt 0.020311 0.324333
vt 0.999277 0.322642
vt 0.045045 0.504264
vt 0.999277 0.504372
vt 0.119246 0.551849
vt 0.999277 0.552433
vt 0.155620 0.560771
vt 0.999277 0.561445
vt 0.078508 0.534004
vt 0.999277 0.534410
vt 0.018856 0.450730
vt 0.999277 0.450304
vt 0.509170 0.978627
vt 0.999277 0.983479
vt 0.493165 0.957808
vt 0.999277 0.962452
vt 0.471341 0.902788
vt 0.999277 0.906882
vt 0.632839 0.867099
vt 0.999277 0.870836
vt 0.657573 0.513186
vt 0.999277 0.513384
vt 0.632839 0.355560
vt 0.999277 0.354182
vt 0.661938 0.423964
vt 0.999277 0.423270
vt 0.648843 0.361509
vt 0.999277 0.360190
vt 0.763784 0.696091
vt 0.999277 0.698118
vt 0.712861 0.838846
vt 0.999277 0.842300
vt 0.677942 0.853716
vt 0.999277 0.857319
vt 0.749234 0.792748
vt 0.999277 0.795741
vt 0.756509 0.760033
vt 0.999277 0.762699
vt 0.733230 0.816540
vt 0.999277 0.819772
vt 0.759419 0.596460
vt 0.999277 0.597490
vt 0.763784 0.641070
vt 0.999277 0.642547
vt 0.736140 0.536978
vt 0.999277 0.537414
vt 0.698311 0.516160
vt 0.999277 0.516388
vt 0.676487 0.513186
vt 0.999277 0.513384
vt 0.720136 0.523595
vt 0.999277 0.523897
vt 0.747779 0.556310
vt 0.999277 0.556939
vt 0.319773 0.004871
vt 0.999277 0.000649
vt 0.678508 0.004885
vt 0.999277 0.000010
vt 0.678495 0.132519
vt 0.999281 0.129435
vt 0.310994 0.136819
vt 1.000726 0.141215
vt 0.336134 0.156336
vt 1.000348 0.166626
vt 0.352391 0.179975
vt 1.002648 0.184428
vt 0.672673 0.174199
vt 0.999326 0.173046
vt 0.667707 0.208391
vt 0.999353 0.207669
vt 0.661938 0.244033
vt 0.999277 0.241539
vt 0.638659 0.316898
vt 0.999277 0.315133
vt 0.767976 0.703220
vt 0.977565 0.698118
vt 0.767976 0.647650
vt 0.977565 0.642547
vt 0.769262 0.602593
vt 0.977565 0.597490
vt 0.772691 0.562041
vt 0.977565 0.556939
vt 0.776120 0.542517
vt 0.977565 0.537414
vt 0.787266 0.521490
vt 0.977565 0.516388
vt 0.799269 0.518486
vt 0.977565 0.513384
vt 0.793696 0.518486
vt 0.977565 0.513384
vt 0.780836 0.529000
vt 0.977565 0.523897
vt 0.929158 0.928505
vt 0.977565 0.923403
vt 0.917584 0.936015
vt 0.977565 0.930912
vt 0.905152 0.931509
vt 0.977565 0.926407
vt 0.881575 0.899969
vt 0.977565 0.894867
vt 0.944162 0.566547
vt 0.977565 0.561445
vt 0.877717 0.887954
vt 0.977565 0.882852
vt 0.808700 0.920996
vt 0.977565 0.915893
vt 0.806556 0.875939
vt 0.977565 0.870836
vt 0.772262 0.800844
vt 0.977565 0.795741
vt 0.770119 0.767802
vt 0.977565 0.762699
vt 0.806985 0.895464
vt 0.977565 0.890361
vt 0.892292 0.916490
vt 0.977565 0.911388
vt 0.854140 0.911985
vt 0.977565 0.906882
vt 0.793267 0.862422
vt 0.977565 0.857319
vt 0.782979 0.847403
vt 0.977565 0.842300
vt 0.776978 0.824874
vt 0.977565 0.819772
vt 0.943733 0.887954
vt 0.977565 0.882852
vt 0.937731 0.913487
vt 0.977565 0.908384
vt 0.948877 0.854912
vt 0.977565 0.849810
vt 0.816416 0.976566
vt 0.977565 0.971464
vt 0.811272 0.948030
vt 0.977565 0.942928
vt 0.828419 1.005103
vt 0.977565 1.000000
vt 0.842994 0.988582
vt 0.977565 0.983479
vt 0.847709 0.967555
vt 0.977565 0.962452
vt 0.836564 1.002099
vt 0.977565 0.996996
vt 0.821560 0.994589
vt 0.977565 0.989487
vt 0.979742 0.509475
vt 0.977565 0.504372
vt 0.969882 0.539513
vt 0.977565 0.534410
vt 0.957879 0.557536
vt 0.977565 0.552433
vt 0.990030 0.396832
vt 0.977565 0.391730
vt 0.987458 0.455406
vt 0.977565 0.450304
vt 0.894435 0.276680
vt 0.977565 0.271578
vt 0.947162 0.566547
vt 0.977565 0.561445
vt 0.978456 0.267669
vt 0.977565 0.262566
vt 0.987029 0.327745
vt 0.977565 0.322642
vt 0.949306 0.206091
vt 0.977565 0.200988
vt 0.916726 0.219608
vt 0.977565 0.214505
vt 0.902580 0.246642
vt 0.977565 0.241539
vt 0.932587 0.206091
vt 0.977565 0.200988
vt 0.965167 0.228619
vt 0.977565 0.223517
vt 0.797983 0.428372
vt 0.977565 0.423270
vt 0.801841 0.365292
vt 0.977565 0.360190
vt 0.806556 0.359285
vt 0.977565 0.354182
vt 0.804842 0.320235
vt 0.977565 0.315133
vt 0.797983 0.246642
vt 0.977565 0.241539
vt 0.894492 0.188267
vt 0.979817 0.182763
vt 0.796514 0.211490
vt 0.977650 0.207902
vt 0.795029 0.176897
vt 0.977681 0.173542
vt 0.793702 0.133845
vt 0.977608 0.130054
vt 0.900612 0.164895
vt 0.979355 0.170019
vt 0.903586 0.145902
vt 0.976797 0.139456
vt 0.900082 0.003945
vt 0.977565 0.000323
vt 0.793139 0.005068
vt 0.977330 0.000003
vt 0.558637 0.994984
vt 0.999277 1.000000
vt 0.530994 0.992010
vt 0.999277 0.996996
vt 0.599376 0.966731
vt 0.999277 0.971464
vt 0.581916 0.984575
vt 0.999277 0.989487
vt 0.625565 0.911710
vt 0.999277 0.915893
vt 0.616835 0.938477
vt 0.999277 0.942928
vt 0.631384 0.886431
vt 0.999277 0.890361
s 1
usemtl target_heavy
f 1/1/1 2/3/1 3/5/1
f 4/7/1 5/9/1 1/1/1
f 6/11/1 4/7/1 1/1/1
f 6/11/1 1/1/1 3/5/1
f 7/13/1 6/11/1 3/5/1
f 8/15/1 7/13/1 3/5/1
f 8/15/1 9/17/1 7/13/1
f 8/15/1 10/19/1 9/17/1
f 8/15/1 11/21/1 10/19/1
f 11/21/1 12/23/1 10/19/1
f 8/15/1 13/25/1 11/21/1
f 6/11/1 14/27/1 4/7/1
f 15/29/1 16/31/1 9/17/1
f 10/19/1 15/29/1 9/17/1
f 10/19/1 17/33/1 15/29/1
f 18/35/1 19/37/1 6/11/1
f 20/39/1 18/35/1 6/11/1
f 7/13/1 20/39/1 6/11/1
f 7/13/1 21/41/1 20/39/1
f 7/13/1 22/43/1 21/41/1
f 21/41/1 23/45/1 20/39/1
f 20/39/1 24/47/1 18/35/1
f 25/49/1 26/51/1 27/53/1
f 28/55/1 25/49/1 27/53/1
f 28/55/1 27/53/1 8/15/1
f 28/55/1 8/15/1 3/5/1
f 29/57/1 28/55/1 3/5/1
f 30/59/1 29/57/1 3/5/1
f 30/59/1 31/61/1 29/57/1
f 30/59/1 32/63/1 31/61/1
f 29/57/1 33/65/1 28/55/1
f 34/67/1 35/69/1 28/55/1
f 33/65/1 34/67/1 28/55/1
f 33/65/1 36/71/1 34/67/1
f 33/65/1 37/73/1 36/71/1
f 36/71/1 38/75/1 34/67/1
f 39/77/1 40/79/1 33/65/1
f 41/81/1 39/77/1 33/65/1
f 29/57/1 41/81/1 33/65/1
f 29/57/1 42/83/1 41/81/1
f 29/57/1 43/85/1 42/83/1
f 42/83/1 44/87/1 41/81/1
f 41/81/1 45/89/1 39/77/1
f 46/91/1 47/93/1 48/95/1
f 49/97/1 46/91/1 48/95/1
f 50/99/1 49/97/1 48/95/1
f 51/101/1 50/99/1 48/95/1
f 51/101/1 48/95/1 52/103/1
f 51/101/1 52/103/1 53/105/1
f 51/101/1 53/105/1 54/107/1
f 3/5/1 51/101/1 54/107/1
f 3/5/1 54/107/1 55/109/1
f 30/59/1 3/5/1 55/109/1
f 56/111/2 57/113/2 58/115/2
f 58/115/2 59/117/2 60/119/2
f 58/115/2 60/119/2 61/121/2
f 58/115/2 61/121/2 62/123/2
f 61/121/2 63/125/2 62/123/2
f 60/119/2 64/127/2 61/121/2
f 65/129/2 66/131/2 67/133/2
f 65/129/2 67/133/2 68/135/2
f 69/137/2 65/129/2 68/135/2
f 69/137/2 68/135/2 70/139/2
f 69/137/2 70/139/2 71/141/2
f 69/137/2 71/141/2 62/123/2
f 71/141/2 72/143/2 62/123/2
f 72/143/2 58/115/2 62/123/2
f 72/143/2 73/145/2 58/115/2
f 73/145/2 56/111/2 58/115/2
f 73/145/2 74/147/2 56/111/2
f 71/141/2 75/149/2 72/143/2
f 67/133/2 76/151/2 68/135/2
f 70/139/2 77/153/2 71/141/2
f 72/143/2 78/155/2 79/157/2
f 72/143/2 79/157/2 73/145/2
f 79/157/2 80/159/2 73/145/2
f 81/161/2 82/163/2 65/129/2
f 69/137/2 81/161/2 65/129/2
f 69/137/2 83/165/2 81/161/2
f 84/167/2 85/169/2 71/141/2
f 86/171/2 84/167/2 71/141/2
f 77/153/2 86/171/2 71/141/2
f 77/153/2 87/173/2 86/171/2
f 77/153/2 88/175/2 87/173/2
f 87/173/2 89/177/2 86/171/2
f 86/171/2 90/179/2 84/167/2
f 91/181/2 92/183/2 93/185/2
f 94/187/2 91/181/2 93/185/2
f 94/187/2 95/189/2 91/181/2
f 96/191/2 94/187/2 62/123/2
f 94/187/2 69/137/2 62/123/2
f 94/187/2 93/185/2 69/137/2
f 93/185/2 97/193/2 69/137/2
f 98/195/2 99/197/2 94/187/2
f 100/199/2 98/195/2 94/187/2
f 96/191/2 100/199/2 94/187/2
f 96/191/2 101/201/2 100/199/2
f 96/191/2 102/203/2 101/201/2
f 101/201/2 103/205/2 100/199/2
f 100/199/2 104/207/2 98/195/2
f 105/209/2 106/211/2 62/123/2
f 106/211/2 107/213/2 62/123/2
f 107/213/2 96/191/2 62/123/2
f 107/213/2 108/215/2 96/191/2
f 108/215/2 109/217/2 96/191/2
f 109/217/2 110/219/2 96/191/2
f 109/217/2 111/221/2 110/219/2
f 111/221/2 112/223/2 110/219/2
f 112/223/2 113/225/2 110/219/2
f 113/225/2 114/227/2 110/219/2
f 113/225/2 115/229/2 114/227/2
f 113/225/2 116/231/2 115/229/2
f 113/225/2 117/233/2 116/231/2
f 118/235/1 119/237/1 25/49/1
f 120/239/1 118/235/1 25/49/1
f 120/239/1 121/241/1 118/235/1
f 122/243/1 123/245/1 120/239/1
f 28/55/1 122/243/1 120/239/1
f 28/55/1 120/239/1 25/49/1
f 28/55/1 124/247/1 122/243/1
f 22/44/3 7/14/4 69/138/4
f 69/138/4 97/194/3 22/44/3
f 21/42/5 22/44/3 97/194/3
f 97/194/3 93/186/5 21/42/5
f 23/46/6 21/42/5 93/186/5
f 93/186/5 92/184/6 23/46/6
f 20/40/7 23/46/6 92/184/6
f 92/184/6 91/182/7 20/40/7
f 24/48/8 20/40/7 91/182/7
f 91/182/7 95/190/8 24/48/8
f 18/36/9 24/48/8 95/190/8
f 95/190/8 94/188/9 18/36/9
f 19/38/10 18/36/9 94/188/9
f 94/188/9 99/198/10 19/38/10
f 6/12/11 19/38/10 99/198/10
f 99/198/10 98/196/11 6/12/11
f 14/28/12 6/12/11 98/196/11
f 98/196/11 104/208/12 14/28/12
f 4/8/13 14/28/12 104/208/12
f 104/208/12 100/200/13 4/8/13
f 5/10/14 4/8/13 100/200/13
f 100/200/13 103/206/14 5/10/14
f 1/2/15 5/10/14 103/206/14
f 103/206/14 101/202/15 1/2/15
f 2/4/16 1/2/15 101/202/15
f 101/202/15 102/204/16 2/4/16
f 3/6/17 2/4/16 102/204/16
f 102/204/16 96/192/17 3/6/17
f 43/86/18 29/58/19 62/124/19
f 62/124/19 63/126/18 43/86/18
f 42/84/20 43/86/18 63/126/18
f 63/126/18 61/122/20 42/84/20
f 44/88/21 42/84/20 61/122/20
f 61/122/20 64/128/21 44/88/21
f 41/82/22 44/88/21 64/128/21
f 64/128/21 60/120/22 41/82/22
f 45/90/23 41/82/22 60/120/22
f 60/120/22 59/118/23 45/90/23
f 39/78/24 45/90/23 59/118/23
f 59/118/23 58/116/24 39/78/24
f 40/80/25 39/78/24 58/116/24
f 58/116/24 57/114/25 40/80/25
f 33/66/26 40/80/25 57/114/25
f 57/114/25 56/112/26 33/66/26
f 37/74/27 33/66/26 56/112/26
f 56/112/26 74/148/27 37/74/27
f 36/72/28 37/74/27 74/148/27
f 74/148/27 73/146/28 36/72/28
f 38/76/29 36/72/28 73/146/28
f 73/146/28 80/160/29 38/76/29
f 34/68/30 38/76/29 80/160/29
f 80/160/29 79/158/30 34/68/30
f 35/70/31 34/68/30 79/158/30
f 79/158/30 78/156/31 35/70/31
f 28/56/32 35/70/31 78/156/31
f 78/156/31 72/144/32 28/56/32
f 124/248/33 28/56/34 72/144/34
f 72/144/34 75/150/33 124/248/33
f 122/244/35 124/248/33 75/150/33
f 75/150/33 71/142/35 122/244/35
f 123/246/36 122/244/35 71/142/35
f 71/142/35 85/170/36 123/246/36
f 120/240/37 123/246/36 85/170/36
f 85/170/36 84/168/37 120/240/37
f 121/242/38 120/240/37 84/168/37
f 84/168/37 90/180/38 121/242/38
f 118/236/39 121/242/38 90/180/38
f 90/180/38 86/172/39 118/236/39
f 119/238/40 118/236/39 86/172/39
f 86/172/39 89/178/40 119/238/40
f 25/50/41 119/238/40 89/178/40
f 89/178/40 87/174/41 25/50/41
f 26/52/42 25/50/41 87/174/41
f 87/174/41 88/176/42 26/52/42
f 27/54/43 26/52/42 88/176/42
f 88/176/42 77/154/43 27/54/43
f 13/26/44 8/16/45 70/140/45
f 70/140/45 68/136/44 13/26/44
f 11/22/46 13/26/44 68/136/44
f 68/136/44 76/152/46 11/22/46
f 12/24/47 11/22/46 76/152/46
f 76/152/46 67/134/47 12/24/47
f 10/20/48 12/24/47 67/134/47
f 67/134/47 66/132/48 10/20/48
f 17/34/49 10/20/48 66/132/48
f 66/132/48 65/130/49 17/34/49
f 15/30/50 17/34/49 65/130/49
f 65/130/49 82/164/50 15/30/50
f 16/32/51 15/30/50 82/164/50
f 82/164/50 81/162/51 16/32/51
f 9/18/52 16/32/51 81/162/51
f 81/162/51 83/166/52 9/18/52
f 7/14/53 9/18/52 83/166/52
f 83/166/52 69/138/53 7/14/53
f 8/16/54 27/54/54 77/154/54
f 77/154/54 70/140/54 8/16/54
f 47/94/19 46/92/19 116/232/19
f 116/232/19 117/234/19 47/94/19
f 48/96/55 47/94/56 117/234/56
f 117/234/56 113/226/55 48/96/55
f 52/104/57 48/96/55 113/226/55
f 113/226/55 112/224/57 52/104/57
f 53/106/58 52/104/57 112/224/57
f 112/224/57 111/222/58 53/106/58
f 54/108/59 53/106/58 111/222/58
f 111/222/58 109/218/59 54/108/59
f 55/110/60 54/108/59 109/218/59
f 109/218/59 108/216/60 55/110/60
f 30/60/61 55/110/60 108/216/60
f 108/216/60 107/214/61 30/60/61
f 50/100/62 51/102/63 110/220/63
f 110/220/63 114/228/62 50/100/62
f 49/98/64 50/100/62 114/228/62
f 114/228/62 115/230/64 49/98/64
f 46/92/65 49/98/64 115/230/64
f 115/230/64 116/232/65 46/92/65
f 51/102/66 3/6/66 96/192/66
f 96/192/66 110/220/66 51/102/66
f 32/64/67 30/60/67 107/214/67
f 107/214/67 106/212/67 32/64/67
f 31/62/68 32/64/69 106/212/69
f 106/212/69 105/210/68 31/62/68
f 29/58/70 31/62/68 105/210/68
f 105/210/68 62/124/70 29/58/70
