# Blender 3.3.0
# www.blender.org
mtllib target_spy.mtl
o target_spy
v 9.302308 41.098644 0.398456
v 8.125295 40.283798 0.398456
v 8.125295 40.283798 -0.408617
v 9.302308 41.098644 -0.408617
v 7.944224 69.437317 0.398457
v 6.857759 72.877800 0.398457
v 1.425422 73.239960 0.398457
v 9.030689 44.086422 0.398456
v -9.891939 46.168816 0.398456
v 10.207695 45.535038 0.398456
v 10.479313 46.802593 0.398456
v 9.754997 58.663181 0.398456
v -11.612182 48.522827 0.398457
v -13.241884 51.329533 0.398457
v -13.332423 52.416008 0.398457
v -9.801408 70.252167 0.398457
v 9.573927 62.194206 0.398457
v -8.081166 71.429169 0.398457
v 9.302308 65.091454 0.398457
v -6.451464 72.968338 0.398457
v -7.356850 77.404739 0.398457
v 1.697041 74.326416 0.398457
v 1.787580 76.861504 0.398457
v 12.199547 47.707970 0.398455
v -13.060805 68.531921 0.398458
v 1.425422 79.306053 0.398457
v -7.266311 79.758751 0.398457
v 0.610567 81.207367 0.398457
v -6.270385 81.660065 0.398457
v -4.369072 82.746536 0.398457
v -2.196133 82.927612 0.398457
v -0.566438 82.293839 0.398457
v -8.081166 71.429169 -0.408615
v -6.451464 72.968338 -0.408615
v 1.425422 73.239960 -0.408615
v -7.356850 77.404739 -0.408615
v 1.697041 74.326416 -0.408615
v 1.787580 76.861504 -0.408615
v 1.425422 79.306053 -0.408615
v -7.266311 79.758751 -0.408615
v 0.610567 81.207367 -0.408615
v -6.270385 81.660065 -0.408615
v -4.369072 82.746536 -0.408615
v -2.196133 82.927612 -0.408615
v -0.566438 82.293839 -0.408615
v 9.030689 44.086422 -0.408617
v -9.891939 46.168816 -0.408616
v 10.207695 45.535038 -0.408616
v 10.479313 46.802593 -0.408616
v 9.754997 58.663181 -0.408616
v -11.612182 48.522827 -0.408615
v -13.241884 51.329533 -0.408615
v -13.332423 52.416008 -0.408615
v -9.801408 70.252167 -0.408615
v 9.573927 62.194206 -0.408616
v 9.302308 65.091454 -0.408616
v 7.944224 69.437317 -0.408615
v 6.857759 72.877800 -0.408615
v 12.199547 47.707970 -0.408617
v -13.060805 68.531921 -0.408614
v 7.853684 30.143442 -0.408617
v -10.163558 24.530025 -0.408617
v -10.706795 22.266556 -0.408618
v 10.026616 20.546314 -0.408618
v 11.203621 12.941046 -0.408618
v -14.328349 18.101765 -0.408617
v 12.109015 8.685715 -0.408619
v 12.018476 0.000000 -0.408619
v -14.237810 0.000000 -0.408617
v 12.018476 0.000000 0.398453
v -14.237810 0.000000 0.398455
v 7.853684 30.143442 0.398455
v -10.163558 24.530025 0.398455
v -10.706795 22.266556 0.398455
v 10.026616 20.546314 0.398455
v 11.203621 12.941046 0.398454
v -14.328349 18.101765 0.398456
v 12.109015 8.685715 0.398453
vn 0.5692 -0.8222 -0.0000
vn -0.0000 -0.0000 1.0000
vn -0.0000 -0.0000 -1.0000
vn -0.0000 -1.0000 -0.0000
vn 0.0665 0.9978 -0.0000
vn 0.4657 -0.8849 -0.0000
vn 0.9566 -0.2915 -0.0000
vn 0.9959 0.0905 -0.0000
vn 0.9019 -0.4320 -0.0000
vn 0.9778 -0.2095 -0.0000
vn -0.6276 0.7786 -0.0000
vn -0.6866 0.7270 -0.0000
vn -0.5166 0.8562 -0.0000
vn -0.4668 0.8844 -0.0000
vn 0.9952 0.0978 -0.0000
vn 0.9996 -0.0268 -0.0000
vn 0.9824 0.1870 -0.0000
vn 0.9836 0.1806 -0.0000
vn 0.9950 0.0994 -0.0000
vn 0.9999 -0.0104 -0.0000
vn 0.9540 0.2997 -0.0000
vn 0.9536 0.3011 -0.0000
vn 0.9804 0.1969 -0.0000
vn 0.9974 0.0723 -0.0000
vn 0.9908 0.1350 -0.0000
vn 0.9760 0.2178 -0.0000
vn -0.9967 -0.0813 -0.0000
vn -0.9798 -0.2000 -0.0000
vn -0.9663 0.2575 -0.0000
vn -0.7199 0.6940 -0.0000
vn -0.2966 0.9550 -0.0000
vn 0.1434 0.9897 -0.0000
vn 0.5296 0.8482 -0.0000
vn 0.8167 0.5771 -0.0000
vn 0.9622 0.2725 -0.0000
vn 0.9984 0.0557 -0.0000
vn 0.9902 -0.1399 -0.0000
vn 0.9701 -0.2425 -0.0000
vn -0.9375 0.3479 -0.0000
vn -1.0000 -0.0050 -0.0000
vn -0.8890 0.4579 -0.0000
vn -0.9923 0.1237 -0.0000
vn -0.9526 -0.3044 -0.0000
vn -0.8372 -0.5468 -0.0000
vn -0.9540 -0.2999 -0.0000
vn -0.9995 -0.0331 -0.0000
vn -0.9999 0.0169 -0.0000
vt 0.288236 0.497862
vt 1.000655 0.495597
vt 0.274228 0.488134
vt 1.000655 0.485771
vt 0.691977 0.487160
vt 0.979699 0.485771
vt 0.677968 0.496888
vt 0.979699 0.495597
vt 0.272073 0.836207
vt 1.000655 0.837324
vt 0.259143 0.877284
vt 1.000655 0.878812
vt 0.194490 0.881608
vt 1.000655 0.883179
vt 0.285004 0.533534
vt 1.000655 0.531625
vt 0.059797 0.558397
vt 1.000655 0.556736
vt 0.299012 0.550830
vt 1.000655 0.549094
vt 0.302245 0.565964
vt 1.000655 0.564379
vt 0.293624 0.707571
vt 1.000655 0.707402
vt 0.039324 0.586502
vt 1.000655 0.585123
vt 0.019928 0.620012
vt 1.000655 0.618968
vt 0.018850 0.632984
vt 1.000655 0.632069
vt 0.060875 0.845935
vt 1.000655 0.847151
vt 0.291469 0.749729
vt 1.000655 0.749982
vt 0.081348 0.859988
vt 1.000655 0.861344
vt 0.288236 0.784320
vt 1.000655 0.784919
vt 0.100744 0.878365
vt 1.000655 0.879904
vt 0.089968 0.931332
vt 1.000655 0.933401
vt 0.197723 0.894579
vt 1.000655 0.896281
vt 0.198800 0.924846
vt 1.000655 0.926850
vt 0.322718 0.576773
vt 1.000655 0.575297
vt 0.022083 0.825397
vt 1.000655 0.826406
vt 0.194490 0.954033
vt 1.000655 0.956329
vt 0.091046 0.959438
vt 1.000655 0.961788
vt 0.184792 0.976733
vt 1.000655 0.979256
vt 0.102899 0.982138
vt 1.000655 0.984715
vt 0.125527 0.995110
vt 1.000655 0.997816
vt 0.151388 0.997272
vt 1.000655 1.000000
vt 0.170784 0.989705
vt 1.000655 0.992357
vt 0.884857 0.859014
vt 0.979699 0.861344
vt 0.865461 0.877391
vt 0.979699 0.879904
vt 0.771715 0.880634
vt 0.979699 0.883179
vt 0.876236 0.930358
vt 0.979699 0.933401
vt 0.768482 0.893605
vt 0.979699 0.896281
vt 0.767405 0.923872
vt 0.979699 0.926850
vt 0.771715 0.953059
vt 0.979699 0.956329
vt 0.875159 0.958464
vt 0.979699 0.961788
vt 0.781413 0.975759
vt 0.979699 0.979256
vt 0.863306 0.981164
vt 0.979699 0.984715
vt 0.840678 0.994136
vt 0.979699 0.997816
vt 0.814817 0.996298
vt 0.979699 1.000000
vt 0.795421 0.988731
vt 0.979699 0.992357
vt 0.681201 0.532560
vt 0.979699 0.531625
vt 0.906408 0.557423
vt 0.979699 0.556736
vt 0.667193 0.549856
vt 0.979699 0.549094
vt 0.663960 0.564990
vt 0.979699 0.564379
vt 0.672581 0.706597
vt 0.979699 0.707402
vt 0.926881 0.585528
vt 0.979699 0.585123
vt 0.946277 0.619038
vt 0.979699 0.618968
vt 0.947354 0.632010
vt 0.979699 0.632069
vt 0.905330 0.844961
vt 0.979699 0.847151
vt 0.674736 0.748755
vt 0.979699 0.749982
vt 0.677968 0.783346
vt 0.979699 0.784919
vt 0.694132 0.835233
vt 0.979699 0.837324
vt 0.707062 0.876310
vt 0.979699 0.878812
vt 0.643487 0.575799
vt 0.979699 0.575297
vt 0.944122 0.824423
vt 0.979699 0.826406
vt 0.695209 0.366091
vt 0.979699 0.363491
vt 0.909640 0.299070
vt 0.979699 0.295800
vt 0.916106 0.272046
vt 0.979699 0.268506
vt 0.669348 0.251508
vt 0.979699 0.247762
vt 0.655340 0.160706
vt 0.979699 0.156052
vt 0.959207 0.222321
vt 0.979699 0.218284
vt 0.644565 0.109900
vt 0.979699 0.104739
vt 0.645642 0.006199
vt 0.979699 0.000000
vt 0.958130 0.006199
vt 0.979699 0.000000
vt 0.320563 0.007173
vt 1.000655 0.000000
vt 0.008075 0.007173
vt 1.000655 0.000000
vt 0.270996 0.367065
vt 1.000655 0.363491
vt 0.056565 0.300044
vt 1.000655 0.295800
vt 0.050099 0.273020
vt 1.000655 0.268506
vt 0.296857 0.252482
vt 1.000655 0.247762
vt 0.310865 0.161680
vt 1.000655 0.156052
vt 0.006997 0.223295
vt 1.000655 0.218284
vt 0.321640 0.110874
vt 1.000655 0.104739
s 1
usemtl target_spy
f 1/2/1 2/4/1 3/6/1
f 3/6/1 4/8/1 1/2/1
f 5/9/2 6/11/2 7/13/2
f 2/3/2 1/1/2 8/15/2
f 2/3/2 8/15/2 9/17/2
f 8/15/2 10/19/2 9/17/2
f 10/19/2 11/21/2 9/17/2
f 11/21/2 12/23/2 9/17/2
f 12/23/2 13/25/2 9/17/2
f 12/23/2 14/27/2 13/25/2
f 12/23/2 15/29/2 14/27/2
f 12/23/2 16/31/2 15/29/2
f 12/23/2 17/33/2 16/31/2
f 17/33/2 18/35/2 16/31/2
f 17/33/2 19/37/2 18/35/2
f 19/37/2 5/9/2 18/35/2
f 5/9/2 7/13/2 18/35/2
f 7/13/2 20/39/2 18/35/2
f 7/13/2 21/41/2 20/39/2
f 7/13/2 22/43/2 21/41/2
f 22/43/2 23/45/2 21/41/2
f 11/21/2 24/47/2 12/23/2
f 16/31/2 25/49/2 15/29/2
f 23/45/2 26/51/2 21/41/2
f 26/51/2 27/53/2 21/41/2
f 26/51/2 28/55/2 27/53/2
f 28/55/2 29/57/2 27/53/2
f 28/55/2 30/59/2 29/57/2
f 28/55/2 31/61/2 30/59/2
f 28/55/2 32/63/2 31/61/2
f 33/65/3 34/67/3 35/69/3
f 34/67/3 36/71/3 35/69/3
f 36/71/3 37/73/3 35/69/3
f 36/71/3 38/75/3 37/73/3
f 36/71/3 39/77/3 38/75/3
f 36/71/3 40/79/3 39/77/3
f 40/79/3 41/81/3 39/77/3
f 40/79/3 42/83/3 41/81/3
f 42/83/3 43/85/3 41/81/3
f 43/85/3 44/87/3 41/81/3
f 44/87/3 45/89/3 41/81/3
f 46/91/3 4/7/3 3/5/3
f 47/93/3 46/91/3 3/5/3
f 47/93/3 48/95/3 46/91/3
f 47/93/3 49/97/3 48/95/3
f 47/93/3 50/99/3 49/97/3
f 47/93/3 51/101/3 50/99/3
f 51/101/3 52/103/3 50/99/3
f 52/103/3 53/105/3 50/99/3
f 53/105/3 54/107/3 50/99/3
f 54/107/3 55/109/3 50/99/3
f 54/107/3 33/65/3 55/109/3
f 33/65/3 56/111/3 55/109/3
f 33/65/3 57/113/3 56/111/3
f 33/65/3 35/69/3 57/113/3
f 35/69/3 58/115/3 57/113/3
f 50/99/3 59/117/3 49/97/3
f 53/105/3 60/119/3 54/107/3
f 47/93/3 3/5/3 61/121/3
f 62/123/3 47/93/3 61/121/3
f 63/125/3 62/123/3 61/121/3
f 63/125/3 61/121/3 64/127/3
f 63/125/3 64/127/3 65/129/3
f 66/131/3 63/125/3 65/129/3
f 66/131/3 65/129/3 67/133/3
f 68/135/3 66/131/3 67/133/3
f 68/135/3 69/137/3 66/131/3
f 70/140/4 71/142/4 69/138/4
f 69/138/4 68/136/4 70/140/4
f 7/14/5 6/12/5 58/116/5
f 58/116/5 35/70/5 7/14/5
f 24/48/6 11/22/6 49/98/6
f 49/98/6 59/118/6 24/48/6
f 8/16/7 1/2/8 4/8/8
f 4/8/8 46/92/7 8/16/7
f 10/20/9 8/16/7 46/92/7
f 46/92/7 48/96/9 10/20/9
f 11/22/10 10/20/9 48/96/9
f 48/96/9 49/98/10 11/22/10
f 18/36/11 20/40/12 34/68/12
f 34/68/12 33/66/11 18/36/11
f 16/32/13 18/36/11 33/66/11
f 33/66/11 54/108/13 16/32/13
f 25/50/14 16/32/13 54/108/13
f 54/108/13 60/120/14 25/50/14
f 72/143/2 2/3/2 9/17/2
f 72/143/2 9/17/2 73/145/2
f 72/143/2 73/145/2 74/147/2
f 75/149/2 72/143/2 74/147/2
f 76/151/2 75/149/2 74/147/2
f 77/153/2 76/151/2 74/147/2
f 77/153/2 78/155/2 76/151/2
f 77/153/2 70/139/2 78/155/2
f 77/153/2 71/141/2 70/139/2
f 61/122/15 3/6/16 2/4/16
f 2/4/16 72/144/15 61/122/15
f 64/128/17 61/122/15 72/144/15
f 72/144/15 75/150/17 64/128/17
f 65/130/18 64/128/17 75/150/17
f 75/150/17 76/152/18 65/130/18
f 67/134/19 65/130/18 76/152/18
f 76/152/18 78/156/19 67/134/19
f 68/136/20 67/134/19 78/156/19
f 78/156/19 70/140/20 68/136/20
f 57/114/21 58/116/22 6/12/22
f 6/12/22 5/10/21 57/114/21
f 56/112/23 57/114/21 5/10/21
f 5/10/21 19/38/23 56/112/23
f 55/110/24 56/112/23 19/38/23
f 19/38/23 17/34/24 55/110/24
f 50/100/25 55/110/24 17/34/24
f 17/34/24 12/24/25 50/100/25
f 59/118/26 50/100/25 12/24/25
f 12/24/25 24/48/26 59/118/26
f 36/72/27 34/68/28 20/40/28
f 20/40/28 21/42/27 36/72/27
f 40/80/29 36/72/27 21/42/27
f 21/42/27 27/54/29 40/80/29
f 42/84/30 40/80/29 27/54/29
f 27/54/29 29/58/30 42/84/30
f 43/86/31 42/84/30 29/58/30
f 29/58/30 30/60/31 43/86/31
f 44/88/32 43/86/31 30/60/31
f 30/60/31 31/62/32 44/88/32
f 45/90/33 44/88/32 31/62/32
f 31/62/32 32/64/33 45/90/33
f 41/82/34 45/90/33 32/64/33
f 32/64/33 28/56/34 41/82/34
f 39/78/35 41/82/34 28/56/34
f 28/56/34 26/52/35 39/78/35
f 38/76/36 39/78/35 26/52/35
f 26/52/35 23/46/36 38/76/36
f 37/74/37 38/76/36 23/46/36
f 23/46/36 22/44/37 37/74/37
f 35/70/38 37/74/37 22/44/37
f 22/44/37 7/14/38 35/70/38
f 66/132/39 69/138/40 71/142/40
f 71/142/40 77/154/39 66/132/39
f 63/126/41 66/132/39 77/154/39
f 77/154/39 74/148/41 63/126/41
f 62/124/42 63/126/41 74/148/41
f 74/148/41 73/146/42 62/124/42
f 47/94/43 62/124/42 73/146/42
f 73/146/42 9/18/43 47/94/43
f 51/102/44 47/94/43 9/18/43
f 9/18/43 13/26/44 51/102/44
f 52/104/45 51/102/44 13/26/44
f 13/26/44 14/28/45 52/104/45
f 53/106/46 52/104/45 14/28/45
f 14/28/45 15/30/46 53/106/46
f 60/120/47 53/106/46 15/30/46
f 15/30/46 25/50/47 60/120/47
