# Blender 3.3.0
# www.blender.org
mtllib target_medic.mtl
o target_medic
v 6.307971 77.592957 0.501960
v 6.910476 76.387955 0.501960
v 6.910476 76.387955 -0.393165
v 6.307971 77.592957 -0.393165
v 0.483794 79.099205 0.501960
v 13.337148 57.610004 0.501958
v 14.341323 59.116261 0.501958
v 13.738818 73.576286 0.501958
v 11.730477 56.907089 0.501958
v 10.224234 56.405006 0.501959
v 9.220059 56.405006 0.501959
v -10.662472 48.572495 0.501958
v 13.437566 74.781281 0.501959
v 12.132148 76.086700 0.501959
v 10.525477 76.890045 0.501960
v 8.717981 76.890045 0.501960
v -8.051636 74.078369 0.501959
v -0.018284 81.308380 0.501960
v -1.022459 82.714211 0.501960
v -2.930372 83.216293 0.501960
v -5.039130 82.915047 0.501960
v -6.947044 82.111717 0.501960
v -8.453297 80.404625 0.501960
v -10.461637 72.471695 0.501960
v -11.365385 70.061691 0.501960
v -12.570386 69.660027 0.501960
v -13.875813 68.856689 0.501960
v -15.181231 67.350433 0.501960
v -15.884144 65.342102 0.501960
v -15.884144 53.492916 0.501960
v -12.972055 49.074577 0.501959
v -14.478309 50.078747 0.501959
v -15.582891 51.685417 0.501959
v 8.717981 51.584999 0.501958
v 9.621729 52.689583 0.501958
v 10.826730 44.756653 0.501958
v 10.023399 42.547482 0.501958
v -13.072474 41.041233 0.501959
v 14.040071 30.095797 0.501957
v 14.843401 26.882460 0.501956
v 15.947993 17.945360 0.501956
v 14.040071 16.639942 0.501956
v -14.578726 34.815388 0.501959
v -17.691650 23.869955 0.501958
v -17.189562 0.472831 0.501957
v 14.742984 0.673666 0.501955
v 9.621729 52.689583 -0.393166
v 9.220059 56.405006 -0.393166
v 8.717981 51.584999 -0.393167
v 14.040071 16.639942 -0.393169
v 15.947993 17.945360 -0.393169
v -10.662472 48.572495 -0.393167
v -13.072474 41.041233 -0.393166
v -14.578726 34.815388 -0.393166
v -17.691650 23.869955 -0.393167
v -17.189562 0.472831 -0.393168
v 14.742984 0.673666 -0.393170
v -8.453297 80.404625 -0.393165
v -8.051636 74.078369 -0.393166
v 0.483794 79.099205 -0.393165
v -0.018284 81.308380 -0.393165
v -1.022459 82.714211 -0.393165
v -2.930372 83.216293 -0.393165
v -5.039130 82.915047 -0.393165
v -6.947044 82.111717 -0.393165
v -10.461637 72.471695 -0.393166
v -11.365385 70.061691 -0.393165
v 10.826730 44.756653 -0.393167
v 10.023399 42.547482 -0.393167
v 14.040071 30.095797 -0.393168
v 14.843401 26.882460 -0.393169
v -12.570386 69.660027 -0.393165
v -13.875813 68.856689 -0.393165
v -15.181231 67.350433 -0.393165
v -15.884144 65.342102 -0.393165
v -15.884144 53.492916 -0.393165
v -12.972055 49.074577 -0.393166
v -14.478309 50.078747 -0.393166
v -15.582891 51.685417 -0.393166
v 8.717981 76.890045 -0.393165
v 10.525477 76.890045 -0.393165
v 12.132148 76.086700 -0.393166
v 13.437566 74.781281 -0.393167
v 13.738818 73.576286 -0.393167
v 10.224234 56.405006 -0.393166
v 11.730477 56.907089 -0.393167
v 13.337148 57.610004 -0.393167
v 14.341323 59.116261 -0.393167
vn 0.8944 0.4472 -0.0000
vn -0.0000 -0.0000 1.0000
vn 0.9942 0.1075 -0.0000
vn 0.7740 -0.6332 -0.0000
vn 0.5647 -0.8253 -0.0000
vn -0.9628 0.2701 -0.0000
vn -0.9524 0.3048 -0.0000
vn -0.9671 0.2544 -0.0000
vn -0.9918 0.1275 -0.0000
vn -0.9998 -0.0215 -0.0000
vn 0.9990 0.0440 -0.0000
vn 0.0063 -1.0000 -0.0000
vn -0.9980 -0.0634 -0.0000
vn 0.9123 0.4095 -0.0000
vn 0.9751 0.2216 -0.0000
vn 0.5679 0.8231 -0.0000
vn 0.0577 0.9983 -0.0000
vn -0.2669 0.9637 -0.0000
vn -0.5836 0.8120 -0.0000
vn -0.7498 0.6616 -0.0000
vn 0.2504 0.9681 -0.0000
vn -0.7833 0.6216 -0.0000
vn -0.5547 0.8320 -0.0000
vn -0.9363 0.3511 -0.0000
vn 0.9997 -0.0246 -0.0000
vn 0.9555 0.2951 -0.0000
vn 0.9998 -0.0184 -0.0000
vn 0.9615 0.2749 -0.0000
vn 0.9831 0.1829 -0.0000
vn 0.9924 0.1227 -0.0000
vn -0.0000 -0.0000 -1.0000
vn -0.1351 0.9908 -0.0000
vn -0.2677 0.9635 -0.0000
vn 0.2298 0.9732 -0.0000
vn 0.5847 0.8112 -0.0000
vn 0.8702 0.4927 -0.0000
vn 0.9897 0.1428 -0.0000
vn 0.9629 -0.2698 -0.0000
vn 0.6424 -0.7664 -0.0000
vn 0.3589 -0.9334 -0.0000
vn 0.1602 -0.9871 -0.0000
vn -0.0000 -1.0000 -0.0000
vn -0.4230 0.9062 -0.0000
vn -0.3162 0.9487 -0.0000
vn -0.4229 0.9062 -0.0000
vn -0.6474 0.7621 -0.0000
vn -0.8651 0.5015 -0.0000
vn -0.9859 0.1675 -0.0000
vn -0.9966 -0.0825 -0.0000
vn -0.9273 -0.3744 -0.0000
vn -0.7020 -0.7121 -0.0000
vn -0.3904 -0.9207 -0.0000
vn -0.2124 -0.9772 -0.0000
vt 0.286838 0.928755
vt 0.998728 0.929613
vt 0.293918 0.914335
vt 0.998728 0.915050
vt 0.701926 0.923555
vt 0.981242 0.915050
vt 0.981242 0.929613
vt 0.708736 0.938118
vt 0.218394 0.946781
vt 0.998728 0.947817
vt 0.369443 0.689618
vt 0.998728 0.688108
vt 0.381244 0.707644
vt 0.998728 0.706312
vt 0.374164 0.880688
vt 0.998728 0.881070
vt 0.350562 0.681206
vt 0.998728 0.679613
vt 0.332861 0.675198
vt 0.998728 0.673545
vt 0.321060 0.675198
vt 0.998728 0.673545
vt 0.087405 0.581466
vt 0.998728 0.578885
vt 0.370623 0.895108
vt 0.998728 0.895633
vt 0.355282 0.910730
vt 0.998728 0.911409
vt 0.336401 0.920344
vt 0.998728 0.921118
vt 0.315160 0.920344
vt 0.998728 0.921118
vt 0.118087 0.886696
vt 0.998728 0.887137
vt 0.212493 0.973218
vt 0.998728 0.974516
vt 0.200692 0.990042
vt 0.998728 0.991506
vt 0.178271 0.996050
vt 0.998728 0.997574
vt 0.153489 0.992445
vt 0.998728 0.993934
vt 0.131068 0.982832
vt 0.998728 0.984225
vt 0.113367 0.962403
vt 0.998728 0.963594
vt 0.089765 0.867469
vt 0.998728 0.867720
vt 0.079145 0.838628
vt 0.998728 0.838594
vt 0.064984 0.833821
vt 0.998728 0.833739
vt 0.049643 0.824208
vt 0.998728 0.824031
vt 0.034302 0.806183
vt 0.998728 0.805827
vt 0.026041 0.782149
vt 0.998728 0.781555
vt 0.026041 0.640349
vt 0.998728 0.638351
vt 0.060263 0.587474
vt 0.998728 0.584953
vt 0.042562 0.599491
vt 0.998728 0.597089
vt 0.029581 0.618718
vt 0.998728 0.616506
vt 0.315160 0.617517
vt 0.998728 0.615293
vt 0.325780 0.630735
vt 0.998728 0.628642
vt 0.339941 0.535801
vt 0.998728 0.532768
vt 0.330501 0.509364
vt 0.998728 0.506069
vt 0.059083 0.491339
vt 0.998728 0.487866
vt 0.377704 0.360354
vt 0.998728 0.355584
vt 0.387144 0.321900
vt 0.998728 0.316749
vt 0.400125 0.214949
vt 0.998728 0.208739
vt 0.377704 0.199327
vt 0.998728 0.192963
vt 0.041382 0.416834
vt 0.998728 0.412623
vt 0.004800 0.285849
vt 0.998728 0.280341
vt 0.010700 0.005854
vt 0.998728 -0.002426
vt 0.385964 0.008258
vt 0.998728 0.000001
vt 0.981242 0.628642
vt 0.671281 0.637147
vt 0.675821 0.682050
vt 0.981242 0.673545
vt 0.981242 0.615293
vt 0.681496 0.623798
vt 0.981242 0.192963
vt 0.621341 0.201468
vt 0.981242 0.208739
vt 0.599775 0.217244
vt 0.900553 0.587390
vt 0.981242 0.578885
vt 0.981242 0.487866
vt 0.927793 0.496370
vt 0.981242 0.412623
vt 0.944818 0.421128
vt 0.981242 0.280341
vt 0.980004 0.288846
vt 0.981242 -0.002426
vt 0.974329 0.006079
vt 0.981242 0.000001
vt 0.613396 0.008506
vt 0.981242 0.963594
vt 0.875583 0.972099
vt 0.981242 0.887137
vt 0.871043 0.895642
vt 0.981242 0.947817
vt 0.774567 0.956322
vt 0.981242 0.974516
vt 0.780242 0.983021
vt 0.981242 0.991506
vt 0.791592 1.000011
vt 0.981242 0.997574
vt 0.813157 1.006079
vt 0.981242 0.993934
vt 0.836993 1.002438
vt 0.981242 0.984225
vt 0.858558 0.992730
vt 0.981242 0.867720
vt 0.898283 0.876225
vt 0.908498 0.847099
vt 0.981242 0.838594
vt 0.981242 0.532768
vt 0.657661 0.541273
vt 0.981242 0.506069
vt 0.666741 0.514574
vt 0.981242 0.355584
vt 0.621341 0.364089
vt 0.981242 0.316749
vt 0.612261 0.325254
vt 0.922118 0.842244
vt 0.981242 0.833739
vt 0.936873 0.832535
vt 0.981242 0.824031
vt 0.951628 0.814332
vt 0.981242 0.805827
vt 0.959573 0.790060
vt 0.981242 0.781555
vt 0.959573 0.646856
vt 0.981242 0.638351
vt 0.926658 0.593458
vt 0.981242 0.584953
vt 0.943683 0.605594
vt 0.981242 0.597089
vt 0.956168 0.625011
vt 0.981242 0.616506
vt 0.681496 0.929623
vt 0.981242 0.921118
vt 0.661066 0.929623
vt 0.981242 0.921118
vt 0.642906 0.919914
vt 0.981242 0.911409
vt 0.628151 0.904137
vt 0.981242 0.895633
vt 0.624746 0.889574
vt 0.981242 0.881070
vt 0.664471 0.682050
vt 0.981242 0.673545
vt 0.647446 0.688118
vt 0.981242 0.679613
vt 0.629286 0.696613
vt 0.981242 0.688108
vt 0.617936 0.714817
vt 0.981242 0.706312
s 1
usemtl target_medic
f 1/2/1 2/4/1 3/6/1
f 3/6/1 4/7/1 1/2/1
f 2/3/2 1/1/2 5/9/2
f 6/11/2 7/13/2 8/15/2
f 9/17/2 6/11/2 8/15/2
f 10/19/2 9/17/2 8/15/2
f 11/21/2 10/19/2 8/15/2
f 11/21/2 8/15/2 12/23/2
f 8/15/2 13/25/2 12/23/2
f 13/25/2 14/27/2 12/23/2
f 14/27/2 15/29/2 12/23/2
f 15/29/2 16/31/2 12/23/2
f 16/31/2 2/3/2 12/23/2
f 2/3/2 17/33/2 12/23/2
f 2/3/2 5/9/2 17/33/2
f 5/9/2 18/35/2 17/33/2
f 18/35/2 19/37/2 17/33/2
f 19/37/2 20/39/2 17/33/2
f 20/39/2 21/41/2 17/33/2
f 21/41/2 22/43/2 17/33/2
f 22/43/2 23/45/2 17/33/2
f 17/33/2 24/47/2 12/23/2
f 24/47/2 25/49/2 12/23/2
f 25/49/2 26/51/2 12/23/2
f 26/51/2 27/53/2 12/23/2
f 27/53/2 28/55/2 12/23/2
f 28/55/2 29/57/2 12/23/2
f 29/57/2 30/59/2 12/23/2
f 30/59/2 31/61/2 12/23/2
f 30/59/2 32/63/2 31/61/2
f 30/59/2 33/65/2 32/63/2
f 34/67/2 35/69/2 11/21/2
f 34/67/2 11/21/2 12/23/2
f 34/67/2 12/23/2 36/71/2
f 12/23/2 37/73/2 36/71/2
f 12/23/2 38/75/2 37/73/2
f 38/75/2 39/77/2 37/73/2
f 38/75/2 40/79/2 39/77/2
f 38/75/2 41/81/2 40/79/2
f 38/75/2 42/83/2 41/81/2
f 38/75/2 43/85/2 42/83/2
f 43/85/2 44/87/2 42/83/2
f 44/87/2 45/89/2 42/83/2
f 45/89/2 46/91/2 42/83/2
f 11/22/3 35/70/3 47/93/3
f 47/93/3 48/96/3 11/22/3
f 35/70/4 34/68/4 49/97/4
f 49/97/4 47/93/4 35/70/4
f 41/82/5 42/84/5 50/99/5
f 50/99/5 51/101/5 41/82/5
f 38/76/6 12/24/7 52/104/7
f 52/104/7 53/105/6 38/76/6
f 43/86/8 38/76/6 53/105/6
f 53/105/6 54/107/8 43/86/8
f 44/88/9 43/86/8 54/107/8
f 54/107/8 55/109/9 44/88/9
f 45/90/10 44/88/9 55/109/9
f 55/109/9 56/111/10 45/90/10
f 42/84/11 46/92/11 57/113/11
f 57/113/11 50/99/11 42/84/11
f 46/92/12 45/90/12 56/111/12
f 56/111/12 57/113/12 46/92/12
f 17/34/13 23/46/13 58/115/13
f 58/115/13 59/117/13 17/34/13
f 18/36/14 5/10/15 60/119/15
f 60/119/15 61/121/14 18/36/14
f 19/38/16 18/36/14 61/121/14
f 61/121/14 62/123/16 19/38/16
f 20/40/17 19/38/16 62/123/16
f 62/123/16 63/125/17 20/40/17
f 21/42/18 20/40/17 63/125/17
f 63/125/17 64/127/18 21/42/18
f 22/44/19 21/42/18 64/127/18
f 64/127/18 65/129/19 22/44/19
f 23/46/20 22/44/19 65/129/19
f 65/129/19 58/115/20 23/46/20
f 5/10/21 1/2/21 4/7/21
f 4/7/21 60/119/21 5/10/21
f 24/48/22 17/34/23 59/117/23
f 59/117/23 66/131/22 24/48/22
f 25/50/24 24/48/22 66/131/22
f 66/131/22 67/134/24 25/50/24
f 68/135/25 49/97/26 34/68/26
f 34/68/26 36/72/25 68/135/25
f 69/137/27 68/135/25 36/72/25
f 36/72/25 37/74/27 69/137/27
f 70/139/28 69/137/27 37/74/27
f 37/74/27 39/78/28 70/139/28
f 71/141/29 70/139/28 39/78/28
f 39/78/28 40/80/29 71/141/29
f 51/101/30 71/141/29 40/80/29
f 40/80/29 41/82/30 51/101/30
f 49/98/31 68/136/31 52/103/31
f 68/136/31 69/138/31 52/103/31
f 69/138/31 53/106/31 52/103/31
f 69/138/31 70/140/31 53/106/31
f 70/140/31 71/142/31 53/106/31
f 71/142/31 51/102/31 53/106/31
f 51/102/31 50/100/31 53/106/31
f 50/100/31 54/108/31 53/106/31
f 50/100/31 55/110/31 54/108/31
f 50/100/31 56/112/31 55/110/31
f 50/100/31 57/114/31 56/112/31
f 52/103/31 66/132/31 59/118/31
f 52/103/31 67/133/31 66/132/31
f 52/103/31 72/143/31 67/133/31
f 52/103/31 73/145/31 72/143/31
f 52/103/31 74/147/31 73/145/31
f 52/103/31 75/149/31 74/147/31
f 52/103/31 76/151/31 75/149/31
f 52/103/31 77/153/31 76/151/31
f 77/153/31 78/155/31 76/151/31
f 78/155/31 79/157/31 76/151/31
f 59/118/31 58/116/31 65/130/31
f 59/118/31 65/130/31 64/128/31
f 59/118/31 64/128/31 63/126/31
f 59/118/31 63/126/31 62/124/31
f 59/118/31 62/124/31 61/122/31
f 59/118/31 61/122/31 60/120/31
f 59/118/31 60/120/31 3/5/31
f 52/103/31 59/118/31 3/5/31
f 52/103/31 3/5/31 80/159/31
f 52/103/31 80/159/31 81/161/31
f 52/103/31 81/161/31 82/163/31
f 52/103/31 82/163/31 83/165/31
f 52/103/31 83/165/31 84/167/31
f 48/95/31 52/103/31 84/167/31
f 48/95/31 49/98/31 52/103/31
f 48/95/31 47/94/31 49/98/31
f 60/120/31 4/8/31 3/5/31
f 48/95/31 84/167/31 85/169/31
f 84/167/31 86/171/31 85/169/31
f 84/167/31 87/173/31 86/171/31
f 84/167/31 88/175/31 87/173/31
f 80/160/32 3/6/33 2/4/33
f 2/4/33 16/32/32 80/160/32
f 81/162/34 80/160/32 16/32/32
f 16/32/32 15/30/34 81/162/34
f 82/164/35 81/162/34 15/30/34
f 15/30/34 14/28/35 82/164/35
f 83/166/36 82/164/35 14/28/35
f 14/28/35 13/26/36 83/166/36
f 84/168/37 83/166/36 13/26/36
f 13/26/36 8/16/37 84/168/37
f 88/176/38 84/168/37 8/16/37
f 8/16/37 7/14/38 88/176/38
f 87/174/39 88/176/38 7/14/38
f 7/14/38 6/12/39 87/174/39
f 86/172/40 87/174/39 6/12/39
f 6/12/39 9/18/40 86/172/40
f 85/170/41 86/172/40 9/18/40
f 9/18/40 10/20/41 85/170/41
f 48/96/42 85/170/41 10/20/41
f 10/20/41 11/22/42 48/96/42
f 26/52/43 25/50/44 67/134/44
f 67/134/44 72/144/45 26/52/43
f 27/54/46 26/52/43 72/144/45
f 72/144/45 73/146/46 27/54/46
f 28/56/47 27/54/46 73/146/46
f 73/146/46 74/148/47 28/56/47
f 29/58/48 28/56/47 74/148/47
f 74/148/47 75/150/48 29/58/48
f 30/60/49 29/58/48 75/150/48
f 75/150/48 76/152/49 30/60/49
f 33/66/50 30/60/49 76/152/49
f 76/152/49 79/158/50 33/66/50
f 32/64/51 33/66/50 79/158/50
f 79/158/50 78/156/51 32/64/51
f 31/62/52 32/64/51 78/156/51
f 78/156/51 77/154/52 31/62/52
f 12/24/53 31/62/52 77/154/52
f 77/154/52 52/104/53 12/24/53
