# Blender 3.3.0
# www.blender.org
mtllib target_pyro.mtl
o target_pyro
v -13.846336 71.298203 0.612455
v -12.314541 72.358688 0.612455
v -12.314541 72.358688 -0.437904
v -13.846336 71.298203 -0.437904
v -12.432373 67.291954 -0.437904
v -1.002727 79.546402 -0.437905
v 0.764733 80.724724 -0.437905
v 2.767878 80.724724 -0.437905
v 5.124498 79.664230 -0.437905
v -1.945383 78.250244 -0.437905
v 7.363286 77.189781 -0.437905
v 9.366431 73.537010 -0.437905
v 10.426898 69.648575 -0.437905
v 11.958715 67.409782 -0.437906
v 13.137014 63.050018 -0.437906
v 13.726175 59.279415 -0.437907
v 13.844007 54.448341 -0.437907
v 13.961839 51.031235 -0.437907
v 29.279922 38.541107 -0.437908
v 29.751251 30.057253 -0.437908
v 29.515587 23.105215 -0.437908
v 26.923281 19.098946 -0.437908
v 24.920156 18.509785 -0.437908
v 28.101601 43.372192 -0.437907
v 17.025452 51.266895 -0.437907
v 26.098478 47.260628 -0.437907
v 21.503048 50.795570 -0.437907
v 23.859669 49.499428 -0.437907
v 19.971231 17.567139 -0.437908
v -14.199833 65.995796 -0.437904
v -15.495985 63.992653 -0.437904
v -16.792137 60.929039 -0.437905
v -17.970438 55.744473 -0.437905
v -18.677429 45.257492 -0.437905
v -21.269714 44.314850 -0.437905
v -23.272860 42.311714 -0.437905
v -24.804655 39.365932 -0.437906
v -25.511646 35.477497 -0.437906
v -25.275982 32.413883 -0.437906
v -23.744165 28.289783 -0.437906
v -22.565866 24.519190 -0.437906
v -21.976706 19.923771 -0.437906
v -22.565866 14.032200 -0.437907
v 22.445705 8.258461 -0.437909
v 20.089064 -0.058914 -0.437909
v -23.744165 0.058918 -0.437907
v 22.445705 8.258461 0.612451
v 20.089064 -0.058914 0.612450
v 19.971231 17.567139 0.612451
v -23.744165 0.058918 0.612452
v -12.432373 67.291954 0.612455
v -1.945383 78.250244 0.612455
v -12.668037 75.775795 0.612456
v -3.595011 80.017731 0.612455
v -12.432373 78.014587 0.612456
v -11.371884 79.782066 0.612455
v -9.604424 81.196030 0.612455
v -7.483448 81.667358 0.612455
v -5.362492 81.313858 0.612455
v 2.767878 80.724724 0.612455
v 0.764733 80.724724 0.612455
v -1.002727 79.546402 0.612455
v 5.124498 79.664230 0.612455
v 7.363286 77.189781 0.612455
v 9.366431 73.537010 0.612454
v 10.426898 69.648575 0.612454
v 11.958715 67.409782 0.612453
v 13.137014 63.050018 0.612453
v 13.726175 59.279415 0.612453
v 13.844007 54.448341 0.612453
v 13.961839 51.031235 0.612452
v 29.279922 38.541107 0.612452
v 29.751251 30.057253 0.612452
v 29.515587 23.105215 0.612451
v 26.923281 19.098946 0.612451
v 24.920156 18.509785 0.612451
v 28.101601 43.372192 0.612452
v 17.025452 51.266895 0.612452
v 26.098478 47.260628 0.612452
v 21.503048 50.795570 0.612452
v 23.859669 49.499428 0.612452
v -14.199833 65.995796 0.612455
v -15.495985 63.992653 0.612455
v -16.792137 60.929039 0.612455
v -17.970438 55.744473 0.612455
v -18.677429 45.257492 0.612454
v -21.269714 44.314850 0.612454
v -23.272860 42.311714 0.612454
v -24.804655 39.365932 0.612454
v -25.511646 35.477497 0.612454
v -25.275982 32.413883 0.612454
v -23.744165 28.289783 0.612453
v -22.565866 24.519190 0.612453
v -21.976706 19.923771 0.612453
v -22.565866 14.032200 0.612453
v -12.668037 75.775795 -0.437904
v -12.432373 78.014587 -0.437904
v -11.371884 79.782066 -0.437905
v -9.604424 81.196030 -0.437905
v -7.483448 81.667358 -0.437905
v -5.362492 81.313858 -0.437905
v -3.595011 80.017731 -0.437905
vn -0.5692 0.8222 -0.0000
vn -0.0000 -0.0000 -1.0000
vn 1.0000 -0.0081 -0.0000
vn 0.9621 -0.2726 -0.0000
vn 0.9664 0.2569 -0.0000
vn -0.0027 -1.0000 -0.0000
vn -0.9430 -0.3328 -0.0000
vn -0.0000 -0.0000 1.0000
vn -0.9894 0.1449 -0.0000
vn -0.9977 0.0673 -0.0000
vn -0.9518 0.3068 -0.0000
vn -0.8836 0.4682 -0.0000
vn -0.7275 0.6861 -0.0000
vn -0.5914 0.8064 -0.0000
vn -1.0000 0.0009 -0.0000
vn -0.9947 -0.1029 -0.0000
vn -0.9484 0.3171 -0.0000
vn -0.7530 0.6581 -0.0000
vn -0.4320 0.9019 -0.0000
vn -0.0268 0.9996 -0.0000
vn 0.3884 0.9215 -0.0000
vn 0.6641 0.7476 -0.0000
vn 0.7311 0.6823 -0.0000
vn -0.9958 0.0918 -0.0000
vn -0.9965 0.0840 -0.0000
vn -0.9999 -0.0139 -0.0000
vn -0.9769 -0.2135 -0.0000
vn -0.9463 -0.3233 -0.0000
vn -0.9767 -0.2145 -0.0000
vn -0.9987 0.0515 -0.0000
vn -0.9461 0.3237 -0.0000
vn -0.8066 0.5911 -0.0000
vn -0.5372 0.8435 -0.0000
vn -0.3417 0.9398 -0.0000
vn 0.0141 0.9999 -0.0000
vn 0.2992 0.9542 -0.0000
vn -0.0767 0.9971 -0.0000
vn 0.2349 -0.9720 -0.0000
vn 0.1871 -0.9823 -0.0000
vn 0.5982 -0.8013 -0.0000
vn 0.9541 -0.2994 -0.0000
vn 0.9999 0.0108 -0.0000
vn 0.9892 0.1468 -0.0000
vn 0.9368 0.3499 -0.0000
vn 0.8077 0.5896 -0.0000
vn 0.6005 0.7996 -0.0000
vn -0.2898 0.9571 -0.0000
vn 0.2099 0.9777 -0.0000
vn -0.6925 0.7214 -0.0000
vn -0.8087 0.5882 -0.0000
vn 0.9996 0.0294 -0.0000
vn 0.9994 0.0345 -0.0000
vn 0.9960 0.0896 -0.0000
vn 0.9781 0.2080 -0.0000
vn 0.9081 0.4187 -0.0000
vn 0.9076 0.4197 -0.0000
vn 0.9272 0.3746 -0.0000
vn 0.8147 0.5798 -0.0000
vn 0.5884 0.8086 -0.0000
vt 1.001202 0.873123
vt 0.128751 0.800112
vt 0.144063 0.811072
vt 1.001202 0.886099
vt 0.979971 0.886099
vt 0.901148 0.812153
vt 0.911767 0.801437
vt 0.979971 0.873123
vt 0.901965 0.760955
vt 0.979971 0.824103
vt 0.822733 0.884784
vt 0.979971 0.974048
vt 0.810480 0.896690
vt 0.979971 0.988466
vt 0.796594 0.896690
vt 0.979971 0.988466
vt 0.780257 0.885974
vt 0.979971 0.975490
vt 0.979971 0.958188
vt 0.829267 0.871686
vt 0.764738 0.860971
vt 0.979971 0.945213
vt 0.750851 0.824060
vt 0.979971 0.900517
vt 0.743500 0.784768
vt 0.979971 0.852939
vt 0.732881 0.762146
vt 0.979971 0.825545
vt 0.724713 0.718091
vt 0.979971 0.772199
vt 0.720629 0.679990
vt 0.979971 0.726062
vt 0.719812 0.631173
vt 0.979971 0.666949
vt 0.718995 0.596644
vt 0.979971 0.625137
vt 0.612807 0.470434
vt 0.979971 0.472309
vt 0.609540 0.384707
vt 0.979971 0.368500
vt 0.611173 0.314458
vt 0.979971 0.283436
vt 0.629144 0.273976
vt 0.979971 0.234415
vt 0.643030 0.268022
vt 0.979971 0.227206
vt 0.620975 0.519251
vt 0.979971 0.531422
vt 0.697757 0.599026
vt 0.979971 0.628021
vt 0.634861 0.558543
vt 0.979971 0.579000
vt 0.666718 0.594263
vt 0.979971 0.622254
vt 0.650381 0.581166
vt 0.979971 0.606394
vt 0.677337 0.258497
vt 0.979971 0.215672
vt 0.914218 0.747858
vt 0.979971 0.808243
vt 0.923203 0.727617
vt 0.979971 0.783733
vt 0.932188 0.696659
vt 0.979971 0.746247
vt 0.940356 0.644271
vt 0.979971 0.682808
vt 0.945257 0.538302
vt 0.979971 0.554490
vt 0.963228 0.528777
vt 0.979971 0.542956
vt 0.977114 0.508536
vt 0.979971 0.518446
vt 0.987733 0.478769
vt 0.979971 0.482401
vt 0.992634 0.439477
vt 0.979971 0.434822
vt 0.991000 0.408520
vt 0.979971 0.397336
vt 0.980381 0.366847
vt 0.979971 0.346874
vt 0.972213 0.328746
vt 0.979971 0.300737
vt 0.968129 0.282310
vt 0.979971 0.244507
vt 0.972213 0.222777
vt 0.979971 0.172418
vt 0.660183 0.164435
vt 0.979971 0.101771
vt 0.676520 0.080390
vt 0.979971 0.000000
vt 0.980381 0.081580
vt 0.979971 0.001442
vt 1.001202 0.101771
vt 0.491546 0.148633
vt 1.001202 0.000000
vt 0.467988 0.062677
vt 0.466810 0.244832
vt 1.001202 0.215672
vt 0.029806 0.063895
vt 1.001203 0.001442
vt 0.142885 0.758710
vt 1.001202 0.824103
vt 0.247719 0.871958
vt 1.001202 0.958188
vt 0.140529 0.846386
vt 1.001202 0.927911
vt 0.231229 0.890224
vt 1.001202 0.979815
vt 0.142885 0.869522
vt 1.001202 0.955305
vt 0.153487 0.887788
vt 1.001202 0.976932
vt 0.171155 0.902401
vt 1.001202 0.994233
vt 0.192358 0.907272
vt 1.001202 1.000000
vt 0.213560 0.903619
vt 1.001202 0.995675
vt 0.294836 0.897530
vt 1.001202 0.988466
vt 0.274811 0.897530
vt 1.001202 0.988466
vt 0.257142 0.885353
vt 1.001202 0.974048
vt 0.318394 0.886571
vt 1.001202 0.975490
vt 0.340774 0.860999
vt 1.001202 0.945213
vt 0.360798 0.823249
vt 1.001202 0.900517
vt 0.371399 0.783064
vt 1.001202 0.852939
vt 0.386712 0.759928
vt 1.001202 0.825545
vt 0.398491 0.714872
vt 1.001202 0.772199
vt 0.404381 0.675905
vt 1.001202 0.726062
vt 0.405559 0.625979
vt 1.001202 0.666949
vt 0.406737 0.590665
vt 1.001202 0.625137
vt 0.559865 0.461586
vt 1.001202 0.472309
vt 0.564577 0.373911
vt 1.001202 0.368500
vt 0.562221 0.302065
vt 1.001202 0.283436
vt 0.536307 0.260663
vt 1.001202 0.234415
vt 0.516282 0.254574
vt 1.001202 0.227206
vt 0.548086 0.511513
vt 1.001202 0.531422
vt 0.437362 0.593100
vt 1.001202 0.628021
vt 0.528062 0.551698
vt 1.001202 0.579000
vt 0.482123 0.588229
vt 1.001202 0.622254
vt 0.505681 0.574834
vt 1.001202 0.606394
vt 0.125217 0.745315
vt 1.001202 0.808243
vt 0.112260 0.724614
vt 1.001203 0.783733
vt 0.099303 0.692953
vt 1.001203 0.746247
vt 0.087524 0.639373
vt 1.001203 0.682808
vt 0.080456 0.530997
vt 1.001203 0.554490
vt 0.054542 0.521255
vt 1.001203 0.542956
vt 0.034518 0.500554
vt 1.001203 0.518446
vt 0.019205 0.470111
vt 1.001203 0.482401
vt 0.012137 0.429926
vt 1.001203 0.434822
vt 0.014493 0.398265
vt 1.001203 0.397336
vt 0.029806 0.355645
vt 1.001203 0.346874
vt 0.041585 0.316678
vt 1.001203 0.300737
vt 0.047475 0.269187
vt 1.001203 0.244507
vt 0.041585 0.208301
vt 1.001203 0.172418
vt 0.979971 0.927911
vt 0.903599 0.846683
vt 0.979971 0.955305
vt 0.901965 0.869305
vt 0.979971 0.976932
vt 0.894614 0.887165
vt 0.979971 0.994233
vt 0.882361 0.901453
vt 0.979971 1.000000
vt 0.867658 0.906215
vt 0.979971 0.995675
vt 0.852955 0.902644
vt 0.979971 0.979815
vt 0.840703 0.889546
s 1
usemtl target_pyro
f 1/1/1 2/4/1 3/5/1
f 3/5/1 4/8/1 1/1/1
f 5/9/2 4/7/2 3/6/2
f 6/11/2 7/13/2 8/15/2
f 6/11/2 8/15/2 9/17/2
f 6/11/2 9/17/2 10/20/2
f 9/17/2 11/21/2 10/20/2
f 11/21/2 12/23/2 10/20/2
f 12/23/2 13/25/2 10/20/2
f 13/25/2 3/6/2 10/20/2
f 13/25/2 14/27/2 3/6/2
f 14/27/2 15/29/2 3/6/2
f 15/29/2 16/31/2 3/6/2
f 16/31/2 17/33/2 3/6/2
f 17/33/2 18/35/2 3/6/2
f 18/35/2 19/37/2 3/6/2
f 19/37/2 5/9/2 3/6/2
f 19/37/2 20/39/2 5/9/2
f 20/39/2 21/41/2 5/9/2
f 21/41/2 22/43/2 5/9/2
f 22/43/2 23/45/2 5/9/2
f 18/35/2 24/47/2 19/37/2
f 18/35/2 25/49/2 24/47/2
f 25/49/2 26/51/2 24/47/2
f 25/49/2 27/53/2 26/51/2
f 27/53/2 28/55/2 26/51/2
f 23/45/2 29/57/2 5/9/2
f 29/57/2 30/59/2 5/9/2
f 29/57/2 31/61/2 30/59/2
f 29/57/2 32/63/2 31/61/2
f 29/57/2 33/65/2 32/63/2
f 29/57/2 34/67/2 33/65/2
f 29/57/2 35/69/2 34/67/2
f 29/57/2 36/71/2 35/69/2
f 29/57/2 37/73/2 36/71/2
f 29/57/2 38/75/2 37/73/2
f 29/57/2 39/77/2 38/75/2
f 29/57/2 40/79/2 39/77/2
f 29/57/2 41/81/2 40/79/2
f 29/57/2 42/83/2 41/81/2
f 29/57/2 43/85/2 42/83/2
f 29/57/2 44/87/2 43/85/2
f 44/87/2 45/89/2 43/85/2
f 45/89/2 46/91/2 43/85/2
f 47/93/3 48/95/4 45/90/4
f 45/90/4 44/88/3 47/93/3
f 49/98/5 47/93/3 44/88/3
f 44/88/3 29/58/5 49/98/5
f 48/95/6 50/100/6 46/92/6
f 46/92/6 45/90/6 48/95/6
f 51/102/7 1/1/7 4/8/7
f 4/8/7 5/10/7 51/102/7
f 52/103/8 53/105/8 2/3/8
f 52/103/8 54/107/8 53/105/8
f 54/107/8 55/109/8 53/105/8
f 54/107/8 56/111/8 55/109/8
f 54/107/8 57/113/8 56/111/8
f 54/107/8 58/115/8 57/113/8
f 54/107/8 59/117/8 58/115/8
f 2/3/8 1/2/8 51/101/8
f 60/119/8 61/121/8 62/123/8
f 60/119/8 62/123/8 63/125/8
f 62/123/8 52/103/8 63/125/8
f 52/103/8 64/127/8 63/125/8
f 52/103/8 65/129/8 64/127/8
f 52/103/8 66/131/8 65/129/8
f 52/103/8 2/3/8 66/131/8
f 2/3/8 67/133/8 66/131/8
f 2/3/8 68/135/8 67/133/8
f 2/3/8 69/137/8 68/135/8
f 2/3/8 70/139/8 69/137/8
f 2/3/8 71/141/8 70/139/8
f 2/3/8 72/143/8 71/141/8
f 2/3/8 51/101/8 72/143/8
f 51/101/8 73/145/8 72/143/8
f 51/101/8 74/147/8 73/145/8
f 51/101/8 75/149/8 74/147/8
f 51/101/8 76/151/8 75/149/8
f 72/143/8 77/153/8 71/141/8
f 77/153/8 78/155/8 71/141/8
f 77/153/8 79/157/8 78/155/8
f 79/157/8 80/159/8 78/155/8
f 79/157/8 81/161/8 80/159/8
f 51/101/8 49/97/8 76/151/8
f 51/101/8 82/163/8 49/97/8
f 82/163/8 83/165/8 49/97/8
f 83/165/8 84/167/8 49/97/8
f 84/167/8 85/169/8 49/97/8
f 85/169/8 86/171/8 49/97/8
f 86/171/8 87/173/8 49/97/8
f 87/173/8 88/175/8 49/97/8
f 88/175/8 89/177/8 49/97/8
f 89/177/8 90/179/8 49/97/8
f 90/179/8 91/181/8 49/97/8
f 91/181/8 92/183/8 49/97/8
f 92/183/8 93/185/8 49/97/8
f 93/185/8 94/187/8 49/97/8
f 94/187/8 95/189/8 49/97/8
f 95/189/8 47/94/8 49/97/8
f 95/189/8 48/96/8 47/94/8
f 95/189/8 50/99/8 48/96/8
f 33/66/9 34/68/10 86/172/10
f 86/172/10 85/170/9 33/66/9
f 32/64/11 33/66/9 85/170/9
f 85/170/9 84/168/11 32/64/11
f 31/62/12 32/64/11 84/168/11
f 84/168/11 83/166/12 31/62/12
f 30/60/13 31/62/12 83/166/12
f 83/166/12 82/164/13 30/60/13
f 5/10/14 30/60/13 82/164/13
f 82/164/13 51/102/14 5/10/14
f 96/191/15 3/5/16 2/4/16
f 2/4/16 53/106/15 96/191/15
f 97/193/17 96/191/15 53/106/15
f 53/106/15 55/110/17 97/193/17
f 98/195/18 97/193/17 55/110/17
f 55/110/17 56/112/18 98/195/18
f 99/197/19 98/195/18 56/112/18
f 56/112/18 57/114/19 99/197/19
f 100/199/20 99/197/19 57/114/19
f 57/114/19 58/116/20 100/199/20
f 101/201/21 100/199/20 58/116/20
f 58/116/20 59/118/21 101/201/21
f 102/203/22 101/201/21 59/118/21
f 59/118/21 54/108/22 102/203/22
f 10/19/23 102/203/22 54/108/22
f 54/108/22 52/104/23 10/19/23
f 43/86/24 46/92/25 50/100/25
f 50/100/25 95/190/24 43/86/24
f 42/84/26 43/86/24 95/190/24
f 95/190/24 94/188/26 42/84/26
f 41/82/27 42/84/26 94/188/26
f 94/188/26 93/186/27 41/82/27
f 40/80/28 41/82/27 93/186/27
f 93/186/27 92/184/28 40/80/28
f 39/78/29 40/80/28 92/184/28
f 92/184/28 91/182/29 39/78/29
f 38/76/30 39/78/29 91/182/29
f 91/182/29 90/180/30 38/76/30
f 37/74/31 38/76/30 90/180/30
f 90/180/30 89/178/31 37/74/31
f 36/72/32 37/74/31 89/178/31
f 89/178/31 88/176/32 36/72/32
f 35/70/33 36/72/32 88/176/32
f 88/176/32 87/174/33 35/70/33
f 34/68/34 35/70/33 87/174/33
f 87/174/33 86/172/34 34/68/34
f 78/156/35 80/160/36 27/54/36
f 27/54/36 25/50/35 78/156/35
f 71/142/37 78/156/35 25/50/35
f 25/50/35 18/36/37 71/142/37
f 76/152/38 49/98/39 29/58/39
f 29/58/39 23/46/38 76/152/38
f 75/150/40 76/152/38 23/46/38
f 23/46/38 22/44/40 75/150/40
f 74/148/41 75/150/40 22/44/40
f 22/44/40 21/42/41 74/148/41
f 73/146/42 74/148/41 21/42/41
f 21/42/41 20/40/42 73/146/42
f 72/144/43 73/146/42 20/40/42
f 20/40/42 19/38/43 72/144/43
f 77/154/44 72/144/43 19/38/43
f 19/38/43 24/48/44 77/154/44
f 79/158/45 77/154/44 24/48/44
f 24/48/44 26/52/45 79/158/45
f 81/162/46 79/158/45 26/52/45
f 26/52/45 28/56/46 81/162/46
f 80/160/36 81/162/46 28/56/46
f 28/56/46 27/54/36 80/160/36
f 61/122/47 60/120/48 8/16/48
f 8/16/48 7/14/47 61/122/47
f 62/124/49 61/122/47 7/14/47
f 7/14/47 6/12/49 62/124/49
f 52/104/50 62/124/49 6/12/49
f 6/12/49 10/19/50 52/104/50
f 70/140/51 71/142/52 18/36/52
f 18/36/52 17/34/51 70/140/51
f 69/138/53 70/140/51 17/34/51
f 17/34/51 16/32/53 69/138/53
f 68/136/54 69/138/53 16/32/53
f 16/32/53 15/30/54 68/136/54
f 67/134/55 68/136/54 15/30/54
f 15/30/54 14/28/55 67/134/55
f 66/132/56 67/134/55 14/28/55
f 14/28/55 13/26/56 66/132/56
f 65/130/57 66/132/56 13/26/56
f 13/26/56 12/24/57 65/130/57
f 64/128/58 65/130/57 12/24/57
f 12/24/57 11/22/58 64/128/58
f 63/126/59 64/128/58 11/22/58
f 11/22/58 9/18/59 63/126/59
f 60/120/48 63/126/59 9/18/59
f 9/18/59 8/16/48 60/120/48
f 3/6/2 96/192/2 10/20/2
f 96/192/2 102/204/2 10/20/2
f 96/192/2 97/194/2 102/204/2
f 97/194/2 98/196/2 102/204/2
f 98/196/2 99/198/2 102/204/2
f 99/198/2 100/200/2 102/204/2
f 100/200/2 101/202/2 102/204/2
