# Blender 5.0.1
# www.blender.org
mtllib Cow.mtl
o Body_cow001_reference.smd
v 3.238500 -0.000000 2.251770
v 2.857500 -0.000000 2.251770
v 2.857500 -0.000000 3.287613
v 3.238500 -0.000000 3.287613
v 3.238500 3.711773 2.064246
v 3.238500 6.098977 1.635621
v 3.238500 3.896320 1.879699
v 3.238500 3.556992 3.073301
v 3.238500 2.946797 2.769691
v 3.238500 1.077515 2.829223
v 3.238500 2.455664 2.186285
v 3.238500 1.324570 1.849934
v 3.238500 1.017984 1.849934
v 3.238500 0.955476 2.126754
v 3.238500 -0.000000 2.251770
v 3.238500 -0.000000 3.287613
v 3.238500 6.221015 0.748605
v 3.238500 6.098977 -5.249168
v 3.238500 5.825133 -2.403574
v 3.238501 14.948297 5.124152
v 3.238500 2.914054 4.022824
v 3.238500 3.434953 3.228082
v 3.238500 1.017984 4.115098
v 3.238500 0.985242 3.287613
v 3.238500 0.741164 3.626941
v 3.238500 -0.000000 3.820418
v 3.238500 -0.000000 4.722317
v 3.238500 5.456039 -6.597551
v 3.238500 5.884664 -5.525989
v 3.238500 5.363766 -7.237512
v 3.238500 5.241727 -9.196090
v 3.238500 2.455664 -7.362527
v 3.238500 0.895945 -6.933903
v 3.238500 3.741539 -8.707933
v 3.238500 2.485430 -8.216801
v 3.238500 0.895945 -8.005465
v 3.238500 0.681633 -7.636371
v 3.238500 -0.000000 -7.353598
v 3.238500 -0.000000 -6.380262
v 3.238500 4.842867 -6.841629
v 3.238500 4.842867 -6.597551
v 3.238500 1.047750 -9.657457
v 3.238500 -0.000000 -10.258722
v 3.238500 -0.000000 -9.014520
v 3.238500 0.925711 -10.422434
v 3.238500 1.047750 -10.666512
v 3.238500 1.842492 -10.729019
v 3.238500 3.283148 -9.871770
v 3.238500 14.671477 -10.145613
v 3.238501 15.129868 3.686473
v 3.238500 13.969007 -11.002864
v 3.238500 11.578828 -11.157645
v 3.238500 7.233047 -11.095137
v 3.238500 3.863578 -12.104192
v 3.238500 3.342680 -12.011918
v 3.238500 2.363390 -11.982153
v 3.238500 1.934765 -11.187410
v 3.238501 16.784836 7.389317
v 3.238501 17.335501 8.309074
v 3.238501 17.335501 7.666137
v 3.238501 16.844368 8.889504
v 3.238501 16.415743 9.716989
v 3.238501 15.498961 11.276708
v 3.238501 15.100101 12.041683
v 3.238501 14.058305 12.104192
v 3.238501 13.721953 10.818317
v 3.238501 13.570148 9.133582
v 3.238501 12.129493 7.758410
v 3.238501 10.843618 7.481590
v 3.238501 10.325695 6.746379
v 3.238501 7.968258 5.767090
v 3.238501 16.019859 6.564808
v 3.238501 5.518547 4.299644
v 3.238500 3.527227 4.177606
v 3.238501 5.485805 4.665762
v 3.238501 6.283524 5.552778
v 2.857500 2.914054 4.022824
v 2.857500 5.518547 4.299644
v 2.857500 3.527227 4.177606
v 2.857501 6.283524 5.552778
v 2.857500 5.485805 4.665762
v 2.857501 7.968258 5.767090
v 2.857501 10.325695 6.746379
v 2.857500 3.434953 3.228082
v 2.857500 0.741164 3.626941
v 2.857500 1.017984 4.115098
v 2.857500 -0.000000 4.722317
v 2.857500 -0.000000 3.820418
v 2.857500 0.985242 3.287613
v 2.857500 3.556992 3.073301
v 2.857500 6.098977 -5.249168
v 2.857500 6.221015 0.748605
v 2.857500 5.825133 -2.403574
v 2.857500 6.098977 1.635621
v 2.857500 3.711773 2.064246
v 2.857500 2.455664 2.186285
v 2.857500 2.946797 2.769691
v 2.857500 1.077516 2.829223
v 2.857500 -0.000000 3.287613
v 2.857500 -0.000000 2.251770
v 2.857500 0.955477 2.126754
v 2.857500 1.017984 1.849934
v 2.857500 1.324570 1.849934
v 2.857500 3.896320 1.879699
v 2.857500 5.363766 -7.237512
v 2.857500 4.842867 -6.597551
v 2.857500 4.842867 -6.841629
v 2.857500 5.456039 -6.597551
v 2.857500 5.884664 -5.525989
v 2.857500 5.241727 -9.196090
v 2.857500 7.233047 -11.095137
v 2.857500 3.283148 -9.871770
v 2.857500 -0.000000 -10.258722
v 2.857500 1.047750 -9.657457
v 2.857500 -0.000000 -9.014520
v 2.857499 0.925711 -10.422434
v 2.857499 1.047750 -10.666512
v 2.857499 1.842492 -10.729019
v 2.857499 1.934765 -11.187410
v 2.857500 2.363390 -11.982153
v 2.857500 3.342680 -12.011918
v 2.857500 3.863578 -12.104192
v 2.857501 13.570148 9.133582
v 2.857501 14.058305 12.104192
v 2.857501 13.721953 10.818317
v 2.857501 15.100101 12.041683
v 2.857501 15.498961 11.276708
v 2.857501 16.415743 9.716989
v 2.857501 16.844368 8.889504
v 2.857501 17.335501 8.309074
v 2.857501 17.335501 7.666137
v 2.857501 16.784836 7.389317
v 2.857501 16.019859 6.564808
v 2.857501 14.948297 5.124152
v 2.857501 15.129868 3.686473
v 2.857500 14.671477 -10.145613
v 2.857500 13.969007 -11.002864
v 2.857500 11.578828 -11.157645
v 2.857501 12.129493 7.758410
v 2.857501 10.843618 7.481590
v 2.476500 0.381000 5.334000
v -3.238500 0.381000 5.334000
v -3.238500 0.381000 3.810000
v 2.476500 0.381000 3.810000
v -2.286000 0.381000 4.762500
v 2.476501 8.382000 4.762500
v 2.476501 7.048500 4.762500
v -1.524000 0.381000 4.762500
v -1.524000 0.381000 4.762500
v 2.476501 7.048500 4.762500
v 2.476501 7.048500 4.381500
v -1.524000 0.381000 4.381500
v -2.286000 0.381000 4.381500
v 2.476501 8.382000 4.381500
v 2.476501 8.382000 4.762500
v -2.286000 0.381000 4.762500
v -1.524000 0.381000 4.381500
v 2.476501 7.048500 4.381500
v 2.476501 8.382000 4.381500
v -2.286000 0.381000 4.381500
v -3.238500 0.381000 5.334000
v -3.238500 0.000000 5.334000
v -3.238500 0.000000 3.810000
v -3.238500 0.381000 3.810000
v 2.857500 -0.000000 5.334000
v 2.857500 -0.000000 3.810000
v -3.238500 0.000000 3.810000
v -3.238500 0.000000 5.334000
v 2.476501 13.716001 5.334000
v 2.857501 13.716001 5.334000
v 2.857500 -0.000000 5.334000
v 2.476500 0.381000 5.334000
v -3.238500 0.000000 5.334000
v -3.238500 0.381000 5.334000
v 2.476501 13.716001 5.334000
v 2.476500 0.381000 5.334000
v 2.476500 0.381000 3.810000
v 2.476501 13.716001 3.810000
v 2.476501 13.716001 5.334000
v 2.476501 13.716001 3.810000
v 2.857501 13.716001 3.810000
v 2.857501 13.716001 5.334000
v -2.712538 0.741703 4.454562
v -2.712538 0.381000 4.421572
v -2.753169 0.381000 4.462372
v -2.753169 0.738003 4.495024
v -2.640671 0.726503 4.453172
v -2.640671 0.756617 4.455926
v -2.753169 0.766864 4.343896
v -2.753169 0.736749 4.341142
v -2.753169 0.716257 4.565202
v -2.753169 0.746371 4.567956
v -2.640671 0.756617 4.455926
v -2.640671 0.726503 4.453172
v -2.865667 0.726503 4.453172
v -2.865667 0.756617 4.455926
v -2.753169 0.746371 4.567956
v -2.753169 0.716257 4.565202
v -2.753169 0.736749 4.341142
v -2.753169 0.766864 4.343896
v -2.865667 0.756617 4.455926
v -2.865667 0.726503 4.453172
v -2.753169 0.766864 4.343896
v -2.640671 0.756617 4.455926
v -2.753169 0.746371 4.567956
v -2.865667 0.756617 4.455926
v -2.793800 0.741703 4.454562
v -2.793800 0.381000 4.421572
v -2.753169 0.381000 4.380772
v -2.753169 0.745404 4.414101
v -2.753169 0.745404 4.414101
v -2.753169 0.381000 4.380772
v -2.712538 0.381000 4.421572
v -2.712538 0.741703 4.454562
v -2.753169 0.738003 4.495024
v -2.753169 0.381000 4.462372
v -2.793800 0.381000 4.421572
v -2.793800 0.741703 4.454562
v -2.753169 0.745404 4.414101
v -2.753169 0.736749 4.341142
v -2.865667 0.726503 4.453172
v -2.793800 0.741703 4.454562
v -2.793800 0.741703 4.454562
v -2.865667 0.726503 4.453172
v -2.753169 0.716257 4.565202
v -2.753169 0.738003 4.495024
v -2.753169 0.738003 4.495024
v -2.753169 0.716257 4.565202
v -2.640671 0.726503 4.453172
v -2.712538 0.741703 4.454562
v -2.712538 0.741703 4.454562
v -2.640671 0.726503 4.453172
v -2.753169 0.736749 4.341142
v -2.753169 0.745404 4.414101
v 1.877303 10.149799 4.149124
v 2.476501 10.452003 4.149124
v 2.476501 10.406499 4.189754
v 1.895599 10.113522 4.189754
v 1.913896 10.077246 4.149124
v 2.476501 10.360993 4.149124
v 2.476501 10.406499 4.108493
v 1.895599 10.113522 4.108493
v 1.895599 10.113522 4.108493
v 2.476501 10.406499 4.108493
v 2.476501 10.452003 4.149124
v 1.877303 10.149799 4.149124
v 1.895599 10.113522 4.189754
v 2.476501 10.406499 4.189754
v 2.476501 10.360993 4.149124
v 1.913896 10.077246 4.149124
v 1.858568 10.220842 4.149124
v 1.831568 10.207224 4.149124
v 1.882228 10.106778 4.036626
v 1.909228 10.120397 4.036626
v 1.882228 10.106778 4.036626
v 1.831568 10.207224 4.149124
v 1.882228 10.106778 4.261621
v 1.932887 10.006332 4.149124
v 1.909228 10.120397 4.261621
v 1.882228 10.106778 4.261621
v 1.831568 10.207224 4.149124
v 1.858568 10.220842 4.149124
v 1.959888 10.019951 4.149124
v 1.932887 10.006332 4.149124
v 1.882228 10.106778 4.261621
v 1.909228 10.120397 4.261621
v 1.909228 10.120397 4.036626
v 1.882228 10.106778 4.036626
v 1.932887 10.006332 4.149124
v 1.959888 10.019951 4.149124
v 1.895599 10.113522 4.108493
v 1.909228 10.120397 4.036626
v 1.959888 10.019951 4.149124
v 1.913896 10.077246 4.149124
v 1.913896 10.077246 4.149124
v 1.959888 10.019951 4.149124
v 1.909228 10.120397 4.261621
v 1.895599 10.113522 4.189754
v 1.895599 10.113522 4.189754
v 1.909228 10.120397 4.261621
v 1.858568 10.220842 4.149124
v 1.877303 10.149799 4.149124
v 1.877303 10.149799 4.149124
v 1.858568 10.220842 4.149124
v 1.909228 10.120397 4.036626
v 1.895599 10.113522 4.108493
v -2.554502 1.319154 -8.051123
v -2.667000 1.369814 -7.950677
v -2.779498 1.319154 -8.051123
v -2.667000 1.268495 -8.151568
v -2.626370 1.305783 -8.044378
v -2.667000 1.287486 -8.080656
v -2.667000 0.502689 -7.679970
v -2.626370 0.502689 -7.639339
v -2.626370 0.381000 -7.639339
v -2.667000 0.381000 -7.679970
v -2.707631 0.502689 -7.639339
v -2.707631 0.381000 -7.639339
v -2.667000 0.381000 -7.679970
v -2.667000 0.502689 -7.679970
v -2.667000 1.287486 -8.080656
v -2.707631 1.305783 -8.044378
v -2.626370 1.305783 -8.044378
v -2.554502 1.292154 -8.037505
v -2.667000 1.241495 -8.137951
v -2.667000 1.287486 -8.080656
v -2.667000 1.287486 -8.080656
v -2.667000 1.241495 -8.137951
v -2.779498 1.292154 -8.037505
v -2.707631 1.305783 -8.044378
v -2.707631 1.305783 -8.044378
v -2.779498 1.292154 -8.037505
v -2.667000 1.342814 -7.937059
v -2.667000 1.324080 -8.008101
v -2.667000 1.324080 -8.008101
v -2.667000 1.342814 -7.937059
v -2.554502 1.292154 -8.037505
v -2.626370 1.305783 -8.044378
v -2.554502 1.292154 -8.037505
v -2.554502 1.319154 -8.051123
v -2.667000 1.268495 -8.151568
v -2.667000 1.241495 -8.137951
v -2.667000 1.241495 -8.137951
v -2.667000 1.268495 -8.151568
v -2.779498 1.319154 -8.051123
v -2.779498 1.292154 -8.037505
v -2.779498 1.292154 -8.037505
v -2.779498 1.319154 -8.051123
v -2.667000 1.369814 -7.950677
v -2.667000 1.342814 -7.937059
v -2.667000 1.342814 -7.937059
v -2.667000 1.369814 -7.950677
v -2.554502 1.319154 -8.051123
v -2.554502 1.292154 -8.037505
v 2.857500 13.716001 -6.858000
v 2.857500 13.716001 -8.382000
v 2.857500 -0.000000 -8.382000
v 2.857500 -0.000000 -6.858000
v 2.476500 13.716001 -6.858000
v 2.476500 0.381000 -6.858000
v 2.476500 0.381000 -8.382000
v 2.476500 13.716001 -8.382000
v 2.476500 13.716001 -6.858000
v 2.476500 13.716001 -8.382000
v 2.857500 13.716001 -8.382000
v 2.857500 13.716001 -6.858000
v -2.286000 0.381000 -7.429500
v 2.476500 8.382000 -7.429500
v 2.476500 7.048500 -7.429500
v -1.524000 0.381000 -7.429500
v -1.524000 0.381000 -7.429500
v 2.476500 7.048500 -7.429500
v 2.476500 7.048500 -7.810500
v -1.524000 0.381000 -7.810500
v -2.286000 0.381000 -7.810500
v 2.476500 8.382000 -7.810500
v 2.476500 8.382000 -7.429500
v -2.286000 0.381000 -7.429500
v -1.524000 0.381000 -7.810500
v 2.476500 7.048500 -7.810500
v 2.476500 8.382000 -7.810500
v -2.286000 0.381000 -7.810500
v -3.238500 0.381000 -6.858000
v -3.238500 0.000000 -6.858000
v -3.238500 0.000000 -8.382000
v -3.238500 0.381000 -8.382000
v 2.857500 -0.000000 -6.858000
v 2.857500 -0.000000 -8.382000
v -3.238500 0.000000 -8.382000
v -3.238500 0.000000 -6.858000
v 2.476500 0.381000 -6.858000
v -3.238500 0.381000 -6.858000
v -3.238500 0.381000 -8.382000
v 2.476500 0.381000 -8.382000
v 2.857501 13.716001 5.334000
v 2.857501 13.716001 3.810000
v 2.857500 -0.000000 3.810000
v 2.857500 -0.000000 5.334000
v 3.238500 -0.000000 3.820418
v 2.857500 -0.000000 3.820418
v 2.857500 -0.000000 4.722317
v 3.238500 -0.000000 4.722317
v 3.238500 1.842492 -10.729019
v 2.857499 1.842492 -10.729019
v 2.857499 1.047750 -10.666512
v 3.238500 1.047750 -10.666512
v 2.857499 0.925711 -10.422434
v 3.238500 0.925711 -10.422434
v 2.857500 -0.000000 -10.258722
v 3.238500 -0.000000 -10.258722
v 3.238500 -0.000000 -10.258722
v 2.857500 -0.000000 -10.258722
v 2.857500 -0.000000 -9.014520
v 3.238500 -0.000000 -9.014520
v 3.238500 -0.000000 -9.014520
v 2.857500 -0.000000 -9.014520
v 2.857500 1.047750 -9.657457
v 3.238500 1.047750 -9.657457
v 2.857500 3.283148 -9.871770
v 3.238500 3.283148 -9.871770
v 2.857500 5.241727 -9.196090
v 3.238500 5.241727 -9.196090
v 3.238500 5.241727 -9.196090
v 2.857500 5.241727 -9.196090
v 2.857500 3.741539 -8.707933
v 3.238500 3.741539 -8.707933
v 2.857500 2.485430 -8.216801
v 3.238500 2.485430 -8.216801
v 2.857500 0.895945 -8.005465
v 3.238500 0.895945 -8.005465
v 2.857500 0.681633 -7.636371
v 3.238500 0.681633 -7.636371
v 2.857500 -0.000000 -7.353598
v 3.238500 -0.000000 -7.353598
v 3.238500 -0.000000 -7.353598
v 2.857500 -0.000000 -7.353598
v 2.857500 -0.000000 -6.380262
v 3.238500 -0.000000 -6.380262
v 3.238500 -0.000000 -6.380262
v 2.857500 -0.000000 -6.380262
v 2.857500 0.895945 -6.933903
v 3.238500 0.895945 -6.933903
v 2.857500 2.455664 -7.362527
v 3.238500 2.455664 -7.362527
v 2.857500 5.363766 -7.237512
v 3.238500 5.363766 -7.237512
v 3.238500 5.363766 -7.237512
v 2.857500 5.363766 -7.237512
v 2.857500 4.842867 -6.841629
v 3.238500 4.842867 -6.841629
v 2.857500 4.842867 -6.597551
v 3.238500 4.842867 -6.597551
v 3.238500 4.842867 -6.597551
v 2.857500 4.842867 -6.597551
v 2.857500 5.456039 -6.597551
v 3.238500 5.456039 -6.597551
v 3.238500 6.098977 1.635621
v 2.857500 6.098977 1.635621
v 2.857500 3.896320 1.879699
v 3.238500 3.896320 1.879699
v 2.857500 3.711773 2.064246
v 3.238500 3.711773 2.064246
v 2.857500 2.455664 2.186285
v 3.238500 2.455664 2.186285
v 2.857500 1.324570 1.849934
v 3.238500 1.324570 1.849934
v 2.857500 1.017984 1.849934
v 3.238500 1.017984 1.849934
v 3.238500 1.017984 1.849934
v 2.857500 1.017984 1.849934
v 2.857500 0.955477 2.126754
v 3.238500 0.955476 2.126754
v 3.238500 0.955476 2.126754
v 2.857500 0.955477 2.126754
v 2.857500 -0.000000 2.251770
v 3.238500 -0.000000 2.251770
v 2.476500 13.716001 -6.858000
v 2.857500 13.716001 -6.858000
v 2.857500 -0.000000 -6.858000
v 2.476500 0.381000 -6.858000
v -3.238500 0.000000 -6.858000
v -3.238500 0.381000 -6.858000
v 3.238500 -0.000000 3.287613
v 2.857500 -0.000000 3.287613
v 2.857500 1.077516 2.829223
v 3.238500 1.077515 2.829223
v 2.857500 2.946797 2.769691
v 3.238500 2.946797 2.769691
v 2.857500 3.556992 3.073301
v 3.238500 3.556992 3.073301
v 3.238500 -0.000000 4.722317
v 2.857500 -0.000000 4.722317
v 2.857500 1.017984 4.115098
v 3.238500 1.017984 4.115098
v 2.857500 2.914054 4.022824
v 3.238500 2.914054 4.022824
v 2.857500 3.527227 4.177606
v 3.238500 3.527227 4.177606
v 2.857500 5.518547 4.299644
v 3.238501 5.518547 4.299644
v 3.238500 3.556992 3.073301
v 2.857500 3.556992 3.073301
v 2.857500 3.434953 3.228082
v 3.238500 3.434953 3.228082
v 2.857500 0.985242 3.287613
v 3.238500 0.985242 3.287613
v 2.857500 0.741164 3.626941
v 3.238500 0.741164 3.626941
v 2.857500 -0.000000 3.820418
v 3.238500 -0.000000 3.820418
v 3.238500 5.456039 -6.597551
v 2.857500 5.456039 -6.597551
v 2.857500 5.884664 -5.525989
v 3.238500 5.884664 -5.525989
v 2.857500 6.098977 -5.249168
v 3.238500 6.098977 -5.249168
v 2.857500 5.825133 -2.403574
v 3.238500 5.825133 -2.403574
v 2.857500 6.221015 0.748605
v 3.238500 6.221015 0.748605
v 2.857500 6.098977 1.635621
v 3.238500 6.098977 1.635621
v 3.238501 14.058305 12.104192
v 2.857501 14.058305 12.104192
v 2.857501 15.100101 12.041683
v 3.238501 15.100101 12.041683
v 2.857501 15.498961 11.276708
v 3.238501 15.498961 11.276708
v 2.857501 16.415743 9.716989
v 3.238501 16.415743 9.716989
v 2.857501 16.844368 8.889504
v 3.238501 16.844368 8.889504
v 2.857501 17.335501 8.309074
v 3.238501 17.335501 8.309074
v 2.857501 17.335501 7.666137
v 3.238501 17.335501 7.666137
v 3.238501 5.518547 4.299644
v 2.857500 5.518547 4.299644
v 2.857500 5.485805 4.665762
v 3.238501 5.485805 4.665762
v 2.857501 6.283524 5.552778
v 3.238501 6.283524 5.552778
v 2.857501 7.968258 5.767090
v 3.238501 7.968258 5.767090
v 2.857501 10.325695 6.746379
v 3.238501 10.325695 6.746379
v 2.857501 10.843618 7.481590
v 3.238501 10.843618 7.481590
v 2.857501 12.129493 7.758410
v 3.238501 12.129493 7.758410
v 2.857501 13.570148 9.133582
v 3.238501 13.570148 9.133582
v 2.857501 13.721953 10.818317
v 3.238501 13.721953 10.818317
v 2.857501 14.058305 12.104192
v 3.238501 14.058305 12.104192
v 3.238500 3.863578 -12.104192
v 2.857500 3.863578 -12.104192
v 2.857500 3.342680 -12.011918
v 3.238500 3.342680 -12.011918
v 2.857500 2.363390 -11.982153
v 3.238500 2.363390 -11.982153
v 2.857499 1.934765 -11.187410
v 3.238500 1.934765 -11.187410
v 2.857499 1.842492 -10.729019
v 3.238500 1.842492 -10.729019
v 3.238501 17.335501 7.666137
v 2.857501 17.335501 7.666137
v 2.857501 16.784836 7.389317
v 3.238501 16.784836 7.389317
v 2.857501 16.019859 6.564808
v 3.238501 16.019859 6.564808
v 2.857501 14.948297 5.124152
v 3.238501 14.948297 5.124152
v 2.857501 15.129868 3.686473
v 3.238501 15.129868 3.686473
v 2.857500 14.671477 -10.145613
v 3.238500 14.671477 -10.145613
v 2.857500 13.969007 -11.002864
v 3.238500 13.969007 -11.002864
v 2.857500 11.578828 -11.157645
v 3.238500 11.578828 -11.157645
v 2.857500 7.233047 -11.095137
v 3.238500 7.233047 -11.095137
v 2.857500 2.485430 -8.216801
v 2.857500 3.741539 -8.707933
v 2.857500 2.455664 -7.362527
v 2.857500 0.895945 -6.933903
v 2.857500 -0.000000 -6.380262
v 2.857500 -0.000000 -7.353598
v 2.857500 0.681633 -7.636371
v 2.857500 0.895945 -8.005465
v -2.626370 0.502689 -7.639339
v -2.626370 0.381000 -7.639339
v -2.667000 0.381000 -7.598710
v -2.667000 0.502689 -7.598710
v -2.626370 1.305783 -8.044378
v -2.667000 1.324080 -8.008101
v 2.476500 0.381000 -8.382000
v -3.238500 0.381000 -8.382000
v -3.238500 0.000000 -8.382000
v 2.857500 -0.000000 -8.382000
v 2.476500 13.716001 -8.382000
v 2.857500 13.716001 -8.382000
v 2.476500 0.381000 3.810000
v -3.238500 0.381000 3.810000
v -3.238500 0.000000 3.810000
v 2.857500 -0.000000 3.810000
v 2.476501 13.716001 3.810000
v 2.857501 13.716001 3.810000
v -2.667000 0.502689 -7.598710
v -2.667000 0.381000 -7.598710
v -2.707631 0.381000 -7.639339
v -2.707631 0.502689 -7.639339
v -2.667000 1.324080 -8.008101
v -2.707631 1.305783 -8.044378
vn -0.6876 0.3254 0.6491
vn -0.7071 0.1650 0.6876
vn -0.7071 -0.0000 0.7071
vn -0.0000 -0.0000 -1.0000
vn 0.6876 0.3254 0.6491
vn 0.7071 0.1650 0.6876
vn 0.7071 -0.0000 0.7071
vn -1.0000 -0.0000 -0.0000
vn -0.0000 0.0578 -0.9983
vn -0.0000 0.1379 -0.9905
vn -0.0000 0.0251 -0.9997
vn -0.0000 0.4569 -0.8895
vn -0.0000 0.9360 -0.3521
vn -0.0000 0.9989 0.0462
vn -0.0000 0.9672 -0.2541
vn -0.0000 0.7689 -0.6394
vn -0.0000 0.6007 -0.7995
vn -0.0000 0.4491 -0.8935
vn -0.0000 -0.9803 -0.1973
vn -0.0000 -0.9405 -0.3397
vn -0.0000 -0.5255 -0.8508
vn -0.0000 -0.1027 -0.9947
vn -0.0000 -0.9675 0.2531
vn -0.0000 -0.9851 0.1720
vn -0.0000 -0.9008 0.4343
vn -0.0000 -0.4681 0.8837
vn -0.0000 -0.5518 0.8339
vn -0.0000 -0.5518 0.8340
vn -0.0000 -0.6252 0.7805
vn -0.0000 -0.2572 0.9664
vn -0.0000 -0.4639 0.8859
vn -0.0000 -0.9487 0.3161
vn -0.0000 -0.9960 -0.0891
vn -0.0000 1.0000 -0.0000
vn -0.0000 0.9390 0.3440
vn -0.0000 0.8309 0.5564
vn -0.0000 0.8753 0.4835
vn -0.0000 0.8747 0.4847
vn -0.0000 0.5439 0.8392
vn -0.0000 0.0599 0.9982
vn -0.0000 -0.9907 -0.1363
vn -0.0000 -1.0000 -0.0059
vn -0.0000 -0.9999 0.0145
vn -0.0000 -0.9607 0.2777
vn -0.0000 -0.8680 0.4966
vn -0.0000 -0.9285 0.3714
vn -0.0000 -0.2526 -0.9676
vn -0.0000 -0.5657 -0.8246
vn -0.0000 -0.4669 -0.8843
vn -0.0000 -0.4473 -0.8944
vn -0.0000 -0.7853 -0.6192
vn -0.0000 -0.0612 0.9981
vn -0.0000 -0.1536 0.9881
vn -0.0000 -0.0992 0.9951
vn -0.0000 0.2891 0.9573
vn -0.0000 0.2890 0.9573
vn -0.0000 0.5123 0.8588
vn -0.0000 -0.4455 0.8953
vn -0.0000 -0.2133 0.9770
vn -0.0000 0.2153 0.9765
vn -0.0000 0.3915 0.9202
vn -0.0000 -0.0000 1.0000
vn -0.0000 -0.1297 -0.9915
vn -0.0000 -0.9754 -0.2203
vn -0.0000 0.1440 -0.9896
vn -0.0000 0.0959 -0.9954
vn -0.0000 0.0960 -0.9954
vn -0.0000 -0.4270 -0.9043
vn -0.0000 -0.4331 -0.9014
vn -0.0000 -0.1101 -0.9939
vn -0.0000 -1.0000 -0.0000
vn -0.0000 -0.8958 -0.4444
vn -0.0000 -0.6051 -0.7962
vn -0.0000 -0.0429 0.9991
vn -0.0000 0.1124 0.9937
vn -0.0000 0.3994 0.9168
vn -0.0000 0.5257 0.8507
vn -0.0000 -0.3832 -0.9237
vn -0.0000 -0.6586 -0.7525
vn -0.0000 -0.5551 -0.8318
vn -0.0000 -0.2498 -0.9683
vn -0.0000 -0.3369 -0.9415
vn -0.0000 -0.3094 -0.9509
vn -0.0000 -0.3261 0.9453
vn -0.0000 -0.1180 0.9930
vn -0.0000 0.3174 0.9483
vn -0.0000 0.5230 0.8523
vn -0.0000 -0.1741 -0.9847
vn -0.0000 -0.5981 -0.8014
vn -0.0000 -0.5587 -0.8294
vn -0.0000 -0.0784 -0.9969
vn 1.0000 -0.0000 -0.0000
vn -0.8593 0.5115 -0.0000
vn 0.8575 -0.5145 -0.0000
vn 0.7071 0.3184 0.6313
vn 0.7071 0.3184 0.6314
vn -0.7071 0.3184 0.6313
vn -0.7071 0.3184 0.6314
vn -0.7071 -0.3184 -0.6314
vn 0.7071 -0.3184 -0.6314
vn -0.2078 -0.8734 0.4405
vn -0.2077 -0.8734 0.4405
vn -0.0000 -0.9669 0.2550
vn 0.2077 -0.8734 0.4404
vn 0.2078 -0.8734 0.4404
vn 0.2078 -0.8734 0.4405
vn 0.2077 -0.8734 0.4405
vn -0.0000 -0.7798 0.6260
vn -0.0001 -0.7798 0.6260
vn -0.7071 -0.1667 -0.6872
vn -0.6872 -0.3287 -0.6479
vn -0.7071 -0.0000 -0.7071
vn 0.7071 -0.0000 -0.7071
vn 0.7071 -0.1667 -0.6872
vn 0.6872 -0.3287 -0.6479
vn 0.6872 -0.3287 -0.6478
vn -0.0000 0.8929 -0.4503
vn 0.8734 0.4404 0.2078
vn 0.8734 0.4404 0.2077
vn 0.9669 0.2550 -0.0000
vn 0.9669 0.2550 -0.0001
vn 0.8734 0.4404 -0.2078
vn 0.8734 0.4405 -0.2078
vn 0.8734 0.4405 -0.2077
vn 0.7798 0.6260 -0.0001
vn 0.7798 0.6260 -0.0000
vn 0.7798 0.6260 0.0001
vn 0.8734 0.4405 0.2077
vn 0.3185 -0.6313 -0.7071
vn 0.3184 -0.6313 -0.7071
vn 0.3184 -0.6313 0.7071
vn -0.3184 0.6313 0.7071
vn -0.8929 -0.4503 -0.0000
vn -0.3184 0.6313 -0.7071
vn 0.3184 -0.6314 0.7071
vn -0.3184 0.6314 -0.7071
vn 0.3184 -0.6314 -0.7071
vn -0.3184 0.6314 0.7071
vn -0.0001 -0.9930 0.1178
vn -0.2078 -0.9741 -0.0890
vn -0.2078 -0.9741 -0.0891
vn -0.2077 -0.9741 -0.0891
vn -0.0001 -0.9552 -0.2960
vn 0.0001 -0.9552 -0.2960
vn 0.2078 -0.9741 -0.0891
vn 0.2077 -0.9741 -0.0890
vn 0.0001 -0.9930 0.1178
vn -0.7071 -0.0644 0.7042
vn 0.7071 0.0644 -0.7042
vn -0.7071 0.0644 -0.7042
vn -0.0000 0.9958 0.0911
vn 0.7071 -0.0644 0.7042
vt 0.455229 0.032758
vt 0.474684 0.041885
vt 0.454185 0.034834
vt 0.474537 0.043531
vt 0.477638 0.042496
vt 0.477638 0.043531
vt 0.661690 0.647608
vt 0.661690 0.996469
vt 0.671380 0.647608
vt 0.671380 0.986779
vt 0.816739 0.996469
vt 0.816739 0.986779
vt 0.818525 0.646987
vt 0.818525 0.995849
vt 0.828216 0.646987
vt 0.828216 0.986158
vt 0.973575 0.995849
vt 0.973575 0.986158
vt 0.512794 0.034834
vt 0.492442 0.043531
vt 0.511750 0.032758
vt 0.492296 0.041885
vt 0.489341 0.043531
vt 0.489341 0.042496
vt 0.136017 0.148257
vt 0.145244 0.142899
vt 0.130733 0.187995
vt 0.152314 0.125857
vt 0.176648 0.125857
vt 0.162807 0.148257
vt 0.152091 0.187251
vt 0.155216 0.259956
vt 0.106250 0.256905
vt 0.118454 0.219399
vt 0.015908 0.118871
vt 0.025171 0.118871
vt 0.015908 0.204382
vt 0.025171 0.204382
vt 0.015908 0.310046
vt 0.025171 0.310046
vt 0.015908 0.368277
vt 0.025171 0.368277
vt 0.015908 0.395222
vt 0.025171 0.395222
vt 0.015908 0.731687
vt 0.025171 0.731687
vt 0.015908 0.766917
vt 0.025171 0.766917
vt 0.015908 0.810568
vt 0.025171 0.810568
vt 0.015908 0.837912
vt 0.025171 0.837912
vt 0.015908 0.852896
vt 0.025171 0.852896
vt 0.015908 0.048870
vt 0.025171 0.048870
vt 0.015908 0.060238
vt 0.025171 0.060238
vt 0.015908 0.082190
vt 0.025171 0.082190
vt 0.015908 0.106010
vt 0.025171 0.106010
vt 0.002911 0.000000
vt 0.008892 0.000000
vt 0.002911 0.020865
vt 0.008892 0.020865
vt 0.002911 0.047419
vt 0.008892 0.047419
vt 0.002911 0.078684
vt 0.008892 0.078684
vt 0.002911 0.099332
vt 0.008892 0.099332
vt 0.002911 0.113450
vt 0.008892 0.113450
vt 0.002911 0.153523
vt 0.008892 0.153523
vt 0.002911 0.180183
vt 0.008892 0.180183
vt 0.002911 0.198910
vt 0.008892 0.198910
vt 0.002911 0.204681
vt 0.008892 0.204681
vt 0.015908 0.868527
vt 0.025171 0.868527
vt 0.015908 0.887012
vt 0.025171 0.887012
vt 0.015908 0.909668
vt 0.025171 0.909668
vt 0.015908 0.953653
vt 0.025171 0.953653
vt 0.015908 0.974627
vt 0.025171 0.974627
vt 0.015908 1.000000
vt 0.025171 1.000000
vt 0.002911 0.544957
vt 0.008892 0.544957
vt 0.002911 0.559013
vt 0.008892 0.559013
vt 0.002911 0.608885
vt 0.008892 0.608885
vt 0.002911 0.653761
vt 0.008892 0.653761
vt 0.002911 0.659257
vt 0.008892 0.659257
vt 0.002911 0.677374
vt 0.008892 0.677374
vt 0.002911 0.308492
vt 0.008892 0.308492
vt 0.002911 0.320517
vt 0.008892 0.320517
vt 0.002911 0.327078
vt 0.008892 0.327078
vt 0.002911 0.365546
vt 0.008892 0.365546
vt 0.002911 0.368640
vt 0.008892 0.368640
vt 0.002911 0.235999
vt 0.008892 0.235999
vt 0.002911 0.245927
vt 0.008892 0.245927
vt 0.002911 0.275727
vt 0.008892 0.275727
vt 0.002911 0.294334
vt 0.008892 0.294334
vt 0.002911 0.379339
vt 0.008892 0.379339
vt 0.002911 0.408698
vt 0.008892 0.408698
vt 0.002911 0.427080
vt 0.008892 0.427080
vt 0.818526 0.645387
vt 0.818526 0.635696
vt 0.963885 0.645387
vt 0.973575 0.635696
vt 0.963885 0.984558
vt 0.973575 0.984558
vt 0.002911 0.443340
vt 0.008892 0.443340
vt 0.002911 0.458467
vt 0.008892 0.458467
vt 0.002911 0.462922
vt 0.008892 0.462922
vt 0.002911 0.467735
vt 0.008892 0.467735
vt 0.002911 0.486260
vt 0.008892 0.486260
vt 0.002911 0.506071
vt 0.008892 0.506071
vt 0.002911 0.510168
vt 0.008892 0.510168
vt 0.002911 0.687000
vt 0.008892 0.687000
vt 0.002911 0.690831
vt 0.008892 0.690831
vt 0.002911 0.701102
vt 0.008892 0.701102
vt 0.002911 0.746796
vt 0.008892 0.746796
vt 0.002911 0.772188
vt 0.008892 0.772188
vt 0.002911 0.788721
vt 0.008892 0.788721
vt 0.002911 0.804001
vt 0.008892 0.804001
vt 0.002911 0.815585
vt 0.008892 0.815585
vt 0.002911 0.822285
vt 0.008892 0.822285
vt 0.002911 0.847457
vt 0.008892 0.847457
vt 0.002911 0.868629
vt 0.008892 0.868629
vt 0.002911 0.893395
vt 0.008892 0.893395
vt 0.002911 0.925919
vt 0.008892 0.925919
vt 0.002911 0.961171
vt 0.008892 0.961171
vt 0.002911 0.980468
vt 0.008892 0.980468
vt 0.002911 1.000000
vt 0.008892 1.000000
vt 0.015908 0.000000
vt 0.025171 0.000000
vt 0.015908 0.022855
vt 0.025171 0.022855
vt 0.015908 0.029489
vt 0.025171 0.029489
vt 0.749768 0.279767
vt 0.788531 0.279767
vt 0.749768 0.628629
vt 0.788531 0.628629
vt 0.915501 0.482770
vt 0.915501 0.628130
vt 0.876739 0.482770
vt 0.876739 0.628130
vt 0.872441 0.470537
vt 0.833678 0.470537
vt 0.872441 0.315487
vt 0.833678 0.315487
vt 0.666935 0.289458
vt 0.666935 0.279767
vt 0.705697 0.289458
vt 0.705697 0.279767
vt 0.949348 0.986158
vt 0.828216 0.782656
vt 0.929967 0.986158
vt 0.828216 0.816573
vt 0.928949 0.369863
vt 0.928949 0.628218
vt 0.918378 0.369863
vt 0.918378 0.628218
vt 0.968078 0.391166
vt 0.968078 0.606914
vt 0.957507 0.391166
vt 0.957507 0.606914
vt 0.862134 0.645387
vt 0.963885 0.814972
vt 0.842752 0.645387
vt 0.963885 0.848890
vt 0.876739 0.473080
vt 0.915501 0.473080
vt 0.666935 0.628629
vt 0.705697 0.628629
vt 0.792589 0.279767
vt 0.831352 0.279767
vt 0.792589 0.628629
vt 0.831352 0.628629
vt 0.857515 0.030672
vt 0.858225 0.030673
vt 0.857515 0.034726
vt 0.858225 0.034727
vt 0.904312 0.030672
vt 0.905083 0.030672
vt 0.904312 0.034726
vt 0.905083 0.034726
vt 0.947279 0.030672
vt 0.948050 0.030672
vt 0.947279 0.034726
vt 0.948050 0.034726
vt 0.892592 0.030672
vt 0.893362 0.030672
vt 0.892592 0.034726
vt 0.893362 0.034726
vt 0.856532 0.031054
vt 0.856529 0.034342
vt 0.903404 0.031056
vt 0.903406 0.034345
vt 0.946374 0.031053
vt 0.946373 0.034351
vt 0.891685 0.031047
vt 0.891686 0.034345
vt 0.456282 0.030672
vt 0.474809 0.040499
vt 0.477638 0.041460
vt 0.489341 0.041460
vt 0.492171 0.040499
vt 0.510697 0.030672
vt 0.832052 0.036405
vt 0.829185 0.033539
vt 0.834918 0.033539
vt 0.832052 0.030672
vt 0.596671 0.031720
vt 0.597313 0.030989
vt 0.598007 0.034684
vt 0.598982 0.034684
vt 0.879966 0.031072
vt 0.880941 0.030672
vt 0.879967 0.034324
vt 0.880941 0.034726
vt 0.570831 0.033409
vt 0.571787 0.033228
vt 0.570069 0.036565
vt 0.570833 0.037168
vt 0.958094 0.031076
vt 0.958978 0.030672
vt 0.958091 0.034323
vt 0.958978 0.034726
vt 0.959748 0.030672
vt 0.959748 0.034726
vt 0.572536 0.033409
vt 0.571582 0.037349
vt 0.881643 0.030673
vt 0.881643 0.034727
vt 0.919177 0.034726
vt 0.915123 0.034726
vt 0.919177 0.030672
vt 0.915123 0.030672
vt 0.598016 0.030672
vt 0.599684 0.034367
vt 0.555910 0.032218
vt 0.555748 0.030672
vt 0.583218 0.040378
vt 0.583091 0.038829
vt 0.707821 0.033070
vt 0.692466 0.033070
vt 0.707630 0.030672
vt 0.692900 0.031946
vt 0.653599 0.033078
vt 0.638300 0.031778
vt 0.653599 0.030672
vt 0.637779 0.030693
vt 0.775675 0.033815
vt 0.774870 0.033306
vt 0.778419 0.032299
vt 0.778419 0.031347
vt 0.969810 0.031134
vt 0.970644 0.030672
vt 0.969811 0.034267
vt 0.970644 0.034726
vt 0.791535 0.032389
vt 0.791318 0.031356
vt 0.794540 0.033182
vt 0.795207 0.032381
vt 0.868248 0.031132
vt 0.869200 0.030672
vt 0.868248 0.034267
vt 0.869200 0.034726
vt 0.791501 0.040399
vt 0.790123 0.039944
vt 0.781558 0.039711
vt 0.780322 0.040502
vt 0.805748 0.038772
vt 0.805827 0.030672
vt 0.808122 0.038772
vt 0.806936 0.030766
vt 0.930748 0.030672
vt 0.934802 0.030672
vt 0.930748 0.034726
vt 0.934802 0.034726
vt 0.869876 0.030673
vt 0.869876 0.034727
vt 0.791535 0.030672
vt 0.795424 0.031697
vt 0.971415 0.030672
vt 0.971415 0.034726
vt 0.774498 0.032632
vt 0.778047 0.030672
vt 0.817466 0.038680
vt 0.817562 0.030766
vt 0.819841 0.038680
vt 0.818672 0.030672
vt 0.833483 0.473080
vt 0.872246 0.473080
vt 0.833483 0.482770
vt 0.872246 0.482770
vt 0.709317 0.628629
vt 0.709317 0.289458
vt 0.748079 0.628629
vt 0.748079 0.289458
vt 0.661341 0.645387
vt 0.661341 0.635696
vt 0.806700 0.645387
vt 0.816391 0.635696
vt 0.806700 0.984558
vt 0.816391 0.984558
vt 0.915446 0.470537
vt 0.876684 0.470537
vt 0.915446 0.315487
vt 0.876684 0.315487
vt 0.709317 0.279767
vt 0.748079 0.279767
vt 0.792513 0.986779
vt 0.671380 0.783276
vt 0.773132 0.986779
vt 0.671380 0.817193
vt 0.942685 0.369863
vt 0.942685 0.628218
vt 0.932113 0.369863
vt 0.932113 0.628218
vt 0.955354 0.391166
vt 0.955354 0.606914
vt 0.944782 0.391166
vt 0.944782 0.606914
vt 0.704949 0.645387
vt 0.806700 0.814972
vt 0.685568 0.645387
vt 0.806700 0.848890
vt 0.872246 0.628130
vt 0.833483 0.628130
vt 0.523205 0.396956
vt 0.530126 0.429104
vt 0.504825 0.384008
vt 0.058772 0.306689
vt 0.564507 0.465122
vt 0.057210 0.415337
vt 0.061079 0.475094
vt 0.082511 0.492656
vt 0.428324 0.504116
vt 0.464268 0.499577
vt 0.500285 0.526367
vt 0.520899 0.545492
vt 0.527819 0.559259
vt 0.543893 0.559259
vt 0.558404 0.546980
vt 0.579092 0.536264
vt 0.618086 0.513344
vt 0.637211 0.503372
vt 0.638774 0.477326
vt 0.606626 0.468917
vt 0.033545 0.222450
vt 0.035852 0.209427
vt 0.036596 0.184944
vt 0.056465 0.174228
vt 0.067926 0.171921
vt 0.069488 0.152052
vt 0.075590 0.149001
vt 0.079683 0.125857
vt 0.110789 0.125857
vt 0.094715 0.152052
vt 0.089357 0.207939
vt 0.204926 0.278337
vt 0.198006 0.272979
vt 0.171216 0.262263
vt 0.171216 0.246933
vt 0.165113 0.246933
vt 0.383154 0.223268
vt 0.387767 0.218655
vt 0.377051 0.278337
vt 0.382409 0.158973
vt 0.382409 0.151308
vt 0.390818 0.187251
vt 0.389330 0.149745
vt 0.392456 0.125857
vt 0.418353 0.125857
vt 0.406892 0.152796
vt 0.405404 0.199530
vt 0.412995 0.214785
vt 0.354875 0.281388
vt 0.276068 0.271490
vt 0.416864 0.211734
vt 0.418353 0.150489
vt 0.426836 0.144387
vt 0.431673 0.125857
vt 0.454221 0.125857
vt 0.439040 0.151308
vt 0.436733 0.198711
vt 0.443654 0.263825
vt 0.480342 0.325070
vt 0.474984 0.282950
vt 0.452807 0.263007
vt 0.440603 0.214041
vt 0.197336 0.719854
vt 0.219512 0.699911
vt 0.191978 0.761974
vt 0.228665 0.700729
vt 0.231716 0.650945
vt 0.235586 0.635615
vt 0.208052 0.936481
vt 0.172034 0.963271
vt 0.151421 0.982396
vt 0.167495 0.820912
vt 0.149114 0.833860
vt 0.142193 0.866008
vt 0.107813 0.902026
vt 0.065693 0.905821
vt 0.033545 0.914230
vt 0.035108 0.940276
vt 0.054233 0.950248
vt 0.093227 0.973168
vt 0.113915 0.983884
vt 0.128426 0.996163
vt 0.144500 0.996163
vt 0.615854 0.611132
vt 0.635723 0.621848
vt 0.604394 0.608825
vt 0.636467 0.646331
vt 0.638774 0.659354
vt 0.613547 0.743593
vt 0.615110 0.852241
vt 0.611240 0.911998
vt 0.589808 0.929560
vt 0.243995 0.941020
vt 0.566069 0.693809
vt 0.582962 0.644843
vt 0.577604 0.588956
vt 0.602831 0.588956
vt 0.596729 0.585905
vt 0.592636 0.562761
vt 0.561530 0.562761
vt 0.501104 0.683837
vt 0.507206 0.683837
vt 0.501104 0.699167
vt 0.517103 0.696860
vt 0.495671 0.562761
vt 0.520006 0.562761
vt 0.509513 0.585161
vt 0.527075 0.579803
vt 0.536303 0.585161
vt 0.541586 0.624899
vt 0.553865 0.656303
vt 0.520229 0.624155
vt 0.467393 0.715241
vt 0.474314 0.709883
vt 0.218098 0.562761
vt 0.240646 0.562761
vt 0.233279 0.588212
vt 0.245483 0.581291
vt 0.253967 0.587393
vt 0.255455 0.648638
vt 0.259325 0.651689
vt 0.295268 0.715241
vt 0.317444 0.718292
vt 0.396251 0.708394
vt 0.253967 0.562761
vt 0.279864 0.562761
vt 0.265427 0.589700
vt 0.282989 0.586649
vt 0.289910 0.588212
vt 0.289910 0.595877
vt 0.281501 0.624155
vt 0.284552 0.655559
vt 0.266915 0.636434
vt 0.289166 0.660172
s 1
usemtl cow001
f 596/1/1 594/2/2 595/3/1
f 594/2/2 591/4/2 595/3/1
f 594/2/2 593/5/3 591/4/2
f 593/5/3 592/6/3 591/4/2
f 590/7/4 588/8/4 589/9/4
f 588/8/4 585/10/4 589/9/4
f 588/8/4 587/11/4 585/10/4
f 587/11/4 586/12/4 585/10/4
f 584/13/4 582/14/4 583/15/4
f 582/14/4 579/16/4 583/15/4
f 582/14/4 581/17/4 579/16/4
f 581/17/4 580/18/4 579/16/4
f 578/19/5 576/20/6 577/21/5
f 576/20/6 573/22/6 577/21/5
f 576/20/6 575/23/7 573/22/6
f 575/23/7 574/24/7 573/22/6
f 572/25/8 571/26/8 565/27/8
f 571/26/8 570/28/8 565/27/8
f 570/28/8 569/29/8 565/27/8
f 569/29/8 568/30/8 565/27/8
f 568/30/8 567/31/8 565/27/8
f 567/31/8 105/32/8 565/27/8
f 565/27/8 105/32/8 110/33/8
f 566/34/8 565/27/8 110/33/8
f 537/35/9 538/36/9 564/37/10
f 538/36/9 563/38/10 564/37/10
f 564/37/10 563/38/10 562/39/11
f 563/38/10 561/40/11 562/39/11
f 562/39/11 561/40/11 560/41/12
f 561/40/11 559/42/12 560/41/12
f 560/41/12 559/42/12 558/43/13
f 559/42/12 557/44/13 558/43/13
f 558/43/13 557/44/13 556/45/14
f 557/44/13 555/46/14 556/45/14
f 556/45/14 555/46/14 554/47/15
f 555/46/14 553/48/15 554/47/15
f 554/47/15 553/48/15 552/49/16
f 553/48/15 551/50/16 552/49/16
f 552/49/16 551/50/16 550/51/17
f 551/50/16 549/52/17 550/51/17
f 550/51/17 549/52/17 547/53/18
f 549/52/17 548/54/18 547/53/18
f 546/55/19 545/56/19 544/57/20
f 545/56/19 543/58/20 544/57/20
f 544/57/20 543/58/20 542/59/21
f 543/58/20 541/60/21 542/59/21
f 542/59/21 541/60/21 540/61/22
f 541/60/21 539/62/22 540/61/22
f 540/61/22 539/62/22 537/35/9
f 539/62/22 538/36/9 537/35/9
f 536/63/23 535/64/23 534/65/24
f 535/64/23 533/66/24 534/65/24
f 534/65/24 533/66/24 532/67/25
f 533/66/24 531/68/25 532/67/25
f 532/67/25 531/68/25 530/69/26
f 531/68/25 529/70/26 530/69/26
f 530/69/26 529/70/26 528/71/27
f 529/70/26 527/72/28 528/71/27
f 528/71/27 527/72/28 526/73/29
f 527/72/28 525/74/29 526/73/29
f 526/73/29 525/74/29 524/75/30
f 525/74/29 523/76/30 524/75/30
f 524/75/30 523/76/30 522/77/31
f 523/76/30 521/78/31 522/77/31
f 522/77/31 521/78/31 520/79/32
f 521/78/31 519/80/32 520/79/32
f 520/79/32 519/80/32 517/81/33
f 519/80/32 518/82/33 517/81/33
f 516/53/34 515/54/34 514/83/35
f 515/54/34 513/84/35 514/83/35
f 514/83/35 513/84/35 512/85/36
f 513/84/35 511/86/36 512/85/36
f 512/85/36 511/86/36 510/87/37
f 511/86/36 509/88/37 510/87/37
f 510/87/37 509/88/37 508/89/38
f 509/88/37 507/90/38 508/89/38
f 508/89/38 507/90/38 506/91/39
f 507/90/38 505/92/39 506/91/39
f 506/91/39 505/92/39 503/93/40
f 505/92/39 504/94/40 503/93/40
f 502/95/41 501/96/41 500/97/42
f 501/96/41 499/98/42 500/97/42
f 500/97/42 499/98/42 498/99/43
f 499/98/42 497/100/43 498/99/43
f 498/99/43 497/100/43 496/101/44
f 497/100/43 495/102/44 496/101/44
f 496/101/44 495/102/44 494/103/45
f 495/102/44 493/104/45 494/103/45
f 494/103/45 493/104/45 491/105/46
f 493/104/45 492/106/46 491/105/46
f 490/107/47 489/108/47 488/109/48
f 489/108/47 487/110/48 488/109/48
f 488/109/48 487/110/48 486/111/49
f 487/110/48 485/112/49 486/111/49
f 486/111/49 485/112/49 484/113/50
f 485/112/49 483/114/50 484/113/50
f 484/113/50 483/114/50 481/115/51
f 483/114/50 482/116/51 481/115/51
f 480/81/52 479/82/52 478/117/53
f 479/82/52 477/118/53 478/117/53
f 478/117/53 477/118/53 476/119/54
f 477/118/53 475/120/54 476/119/54
f 476/119/54 475/120/54 474/121/55
f 475/120/54 473/122/56 474/121/55
f 474/121/55 473/122/56 471/123/57
f 473/122/56 472/124/57 471/123/57
f 470/115/58 469/116/58 468/125/59
f 469/116/58 467/126/59 468/125/59
f 468/125/59 467/126/59 466/127/60
f 467/126/59 465/128/60 466/127/60
f 466/127/60 465/128/60 463/129/61
f 465/128/60 464/130/61 463/129/61
f 462/131/62 461/132/62 460/133/62
f 461/132/62 459/134/62 460/133/62
f 460/133/62 459/134/62 457/135/62
f 459/134/62 458/136/62 457/135/62
f 456/137/63 455/138/63 453/139/63
f 455/138/63 454/140/63 453/139/63
f 452/139/64 451/140/64 449/141/64
f 451/140/64 450/142/64 449/141/64
f 448/141/4 447/142/4 446/143/65
f 447/142/4 445/144/65 446/143/65
f 446/143/65 445/144/65 444/145/66
f 445/144/65 443/146/67 444/145/66
f 444/145/66 443/146/67 442/147/68
f 443/146/67 441/148/68 442/147/68
f 442/147/68 441/148/68 440/149/69
f 441/148/68 439/150/69 440/149/69
f 440/149/69 439/150/69 437/95/70
f 439/150/69 438/96/70 437/95/70
f 436/105/62 435/106/62 433/151/62
f 435/106/62 434/152/62 433/151/62
f 432/151/71 431/152/71 430/153/72
f 431/152/71 429/154/72 430/153/72
f 430/153/72 429/154/72 427/155/73
f 429/154/72 428/156/73 427/155/73
f 426/155/74 425/156/74 424/157/75
f 425/156/74 423/158/75 424/157/75
f 424/157/75 423/158/75 422/159/76
f 423/158/75 421/160/76 422/159/76
f 422/159/76 421/160/76 419/161/77
f 421/160/76 420/162/77 419/161/77
f 418/161/71 417/162/71 415/163/71
f 417/162/71 416/164/71 415/163/71
f 414/163/78 413/164/78 412/165/79
f 413/164/78 411/166/79 412/165/79
f 412/165/79 411/166/79 410/167/80
f 411/166/79 409/168/80 410/167/80
f 410/167/80 409/168/80 408/169/81
f 409/168/80 407/170/81 408/169/81
f 408/169/81 407/170/81 406/171/82
f 407/170/81 405/172/82 406/171/82
f 406/171/82 405/172/82 403/173/83
f 405/172/82 404/174/83 403/173/83
f 402/173/84 401/174/84 400/175/85
f 401/174/84 399/176/85 400/175/85
f 400/175/85 399/176/85 398/177/86
f 399/176/85 397/178/86 398/177/86
f 398/177/86 397/178/86 395/179/87
f 397/178/86 396/180/87 395/179/87
f 394/179/71 393/180/71 391/181/71
f 393/180/71 392/182/71 391/181/71
f 390/183/88 389/184/88 388/185/89
f 389/184/88 387/186/89 388/185/89
f 388/185/89 387/186/89 386/187/90
f 387/186/89 385/188/90 386/187/90
f 386/187/90 385/188/90 383/55/91
f 385/188/90 384/56/91 383/55/91
f 382/123/71 381/124/71 379/107/71
f 381/124/71 380/108/71 379/107/71
f 378/189/92 377/190/92 375/191/92
f 377/190/92 376/192/92 375/191/92
f 374/193/34 373/194/34 371/195/34
f 373/194/34 372/196/34 371/195/34
f 370/197/71 369/198/71 367/199/71
f 369/198/71 368/200/71 367/199/71
f 366/201/8 365/202/8 363/203/8
f 365/202/8 364/204/8 363/203/8
f 362/205/4 361/206/4 359/207/4
f 361/206/4 360/208/4 359/207/4
f 358/209/93 357/210/93 355/211/93
f 357/210/93 356/212/93 355/211/93
f 354/213/94 353/214/94 351/215/94
f 353/214/94 352/216/94 351/215/94
f 350/217/62 349/218/62 347/219/62
f 349/218/62 348/220/62 347/219/62
f 346/221/34 345/222/34 343/195/34
f 345/222/34 344/193/34 343/195/34
f 342/223/8 341/201/8 339/224/8
f 341/201/8 340/203/8 339/224/8
f 338/225/92 337/226/92 335/227/92
f 337/226/92 336/228/92 335/227/92
f 334/229/95 333/230/95 331/231/96
f 333/230/95 332/232/96 331/231/96
f 330/233/97 329/234/97 327/235/98
f 329/234/97 328/236/98 327/235/98
f 326/237/99 325/238/99 323/239/99
f 325/238/99 324/240/99 323/239/99
f 322/241/100 321/242/100 319/243/100
f 321/242/100 320/244/100 319/243/100
f 318/245/101 317/229/102 315/246/103
f 317/229/102 316/231/103 315/246/103
f 314/247/103 313/233/103 311/248/104
f 313/233/103 312/235/105 311/248/104
f 310/249/106 309/237/107 307/250/108
f 309/237/107 308/239/108 307/250/108
f 306/251/109 305/241/109 303/252/102
f 305/241/109 304/243/101 303/252/102
f 297/2/110 302/1/111 301/253/111
f 300/254/110 297/2/110 301/253/111
f 300/254/110 299/255/112 297/2/110
f 299/255/112 298/5/112 297/2/110
f 295/24/113 296/256/113 293/257/114
f 294/22/114 295/24/113 293/257/114
f 294/22/114 293/257/114 291/21/115
f 293/257/114 292/258/116 291/21/115
f 290/259/117 289/260/117 287/261/117
f 289/260/117 288/262/117 287/261/117
f 286/263/118 285/264/119 283/265/120
f 285/264/119 284/266/120 283/265/120
f 282/267/121 281/268/121 279/269/122
f 281/268/121 280/270/122 279/269/122
f 278/271/123 277/272/124 275/273/125
f 277/272/124 276/274/125 275/273/125
f 274/275/126 273/276/127 271/277/128
f 273/276/127 272/278/128 271/277/128
f 270/276/129 269/279/129 267/278/130
f 269/279/129 268/280/130 267/278/130
f 266/272/131 265/281/131 263/274/131
f 265/281/131 264/282/131 263/274/131
f 262/268/132 261/283/132 259/270/132
f 261/283/132 260/284/132 259/270/132
f 258/285/133 257/286/133 255/287/133
f 257/286/133 256/288/133 255/287/133
f 254/264/134 253/289/134 251/266/134
f 253/289/134 252/290/134 251/266/134
f 250/273/135 249/291/135 247/271/135
f 249/291/135 248/292/135 247/271/135
f 246/265/136 245/293/136 243/263/136
f 245/293/136 244/294/136 243/263/136
f 242/295/137 241/296/137 239/297/137
f 241/296/137 240/298/137 239/297/137
f 238/299/132 237/300/138 235/301/132
f 237/300/138 236/302/138 235/301/132
f 234/303/139 233/304/139 231/305/140
f 233/304/139 232/306/140 231/305/140
f 230/307/141 229/308/142 227/309/143
f 229/308/142 228/310/143 227/309/143
f 226/311/144 225/312/144 223/313/145
f 225/312/144 224/314/145 223/313/145
f 222/315/145 221/316/146 219/317/147
f 221/316/146 220/318/147 219/317/147
f 218/313/148 217/319/148 215/311/148
f 217/319/148 216/320/148 215/311/148
f 214/305/149 213/321/149 211/303/149
f 213/321/149 212/322/149 211/303/149
f 210/323/150 209/324/150 207/325/150
f 209/324/150 208/326/150 207/325/150
f 206/327/151 205/328/151 203/329/151
f 205/328/151 204/330/151 203/329/151
f 202/316/150 201/331/150 199/318/150
f 201/331/150 200/332/150 199/318/150
f 198/312/148 197/333/148 195/314/148
f 197/333/148 196/334/148 195/314/148
f 194/308/152 193/335/152 191/310/152
f 193/335/152 192/336/152 191/310/152
f 190/304/149 189/337/149 187/306/149
f 189/337/149 188/338/149 187/306/149
f 186/339/152 185/340/152 183/341/152
f 185/340/152 184/342/152 183/341/152
f 182/343/34 181/344/34 179/345/34
f 181/344/34 180/346/34 179/345/34
f 178/347/8 177/348/8 175/349/8
f 177/348/8 176/350/8 175/349/8
f 174/351/62 173/352/62 172/353/62
f 173/352/62 171/354/62 172/353/62
f 172/353/62 171/354/62 169/355/62
f 171/354/62 170/356/62 169/355/62
f 168/357/71 167/358/71 165/359/71
f 167/358/71 166/360/71 165/359/71
f 164/348/8 163/361/8 161/350/8
f 163/361/8 162/362/8 161/350/8
f 160/363/4 159/364/4 157/365/4
f 159/364/4 158/366/4 157/365/4
f 156/367/93 155/368/93 153/369/93
f 155/368/93 154/370/93 153/369/93
f 152/371/94 151/372/94 149/373/94
f 151/372/94 150/374/94 149/373/94
f 148/375/62 147/376/62 145/377/62
f 147/376/62 146/378/62 145/377/62
f 144/346/34 143/379/34 141/345/34
f 143/379/34 142/380/34 141/345/34
f 140/381/8 139/382/8 83/383/8
f 139/382/8 111/384/8 83/383/8
f 123/385/8 111/384/8 139/382/8
f 138/386/8 111/384/8 123/385/8
f 137/387/8 138/386/8 123/385/8
f 136/388/8 137/387/8 123/385/8
f 135/389/8 136/388/8 123/385/8
f 134/390/8 135/389/8 123/385/8
f 133/391/8 134/390/8 123/385/8
f 132/392/8 133/391/8 123/385/8
f 131/393/8 132/392/8 123/385/8
f 130/394/8 131/393/8 123/385/8
f 129/395/8 130/394/8 123/385/8
f 128/396/8 129/395/8 123/385/8
f 127/397/8 128/396/8 123/385/8
f 126/398/8 127/397/8 123/385/8
f 124/399/8 126/398/8 123/385/8
f 125/400/8 124/399/8 123/385/8
f 122/401/8 121/402/8 111/384/8
f 121/402/8 120/403/8 111/384/8
f 120/403/8 119/404/8 111/384/8
f 119/404/8 118/405/8 111/384/8
f 118/405/8 117/406/8 111/384/8
f 117/406/8 116/407/8 111/384/8
f 116/407/8 113/408/8 111/384/8
f 115/409/8 114/410/8 113/408/8
f 114/410/8 112/411/8 113/408/8
f 113/408/8 112/411/8 111/384/8
f 112/411/8 110/33/8 111/384/8
f 111/384/8 110/33/8 83/383/8
f 110/33/8 91/412/8 83/383/8
f 105/32/8 91/412/8 110/33/8
f 109/413/8 91/412/8 105/32/8
f 108/414/8 109/413/8 105/32/8
f 106/415/8 108/414/8 105/32/8
f 107/416/8 106/415/8 105/32/8
f 104/417/8 95/418/8 94/419/8
f 103/420/8 102/421/8 96/422/8
f 102/421/8 101/423/8 96/422/8
f 101/423/8 100/424/8 96/422/8
f 100/424/8 99/425/8 96/422/8
f 99/425/8 98/426/8 96/422/8
f 98/426/8 97/427/8 96/422/8
f 97/427/8 90/428/8 96/422/8
f 96/422/8 90/428/8 95/418/8
f 95/418/8 90/428/8 83/383/8
f 94/419/8 95/418/8 83/383/8
f 92/429/8 94/419/8 83/383/8
f 91/412/8 92/429/8 83/383/8
f 93/430/8 92/429/8 91/412/8
f 84/431/8 83/383/8 90/428/8
f 89/432/8 85/433/8 84/431/8
f 88/434/8 87/435/8 85/433/8
f 87/435/8 86/436/8 85/433/8
f 86/436/8 77/437/8 85/433/8
f 85/433/8 77/437/8 84/431/8
f 77/437/8 78/438/8 84/431/8
f 78/438/8 83/383/8 84/431/8
f 82/439/8 83/383/8 78/438/8
f 80/440/8 82/439/8 78/438/8
f 81/441/8 80/440/8 78/438/8
f 79/442/8 78/438/8 77/437/8
f 76/443/92 75/444/92 71/445/92
f 75/444/92 73/446/92 71/445/92
f 74/447/92 21/448/92 73/446/92
f 73/446/92 21/448/92 20/449/92
f 72/450/92 73/446/92 20/449/92
f 71/445/92 73/446/92 72/450/92
f 58/451/92 71/445/92 72/450/92
f 70/452/92 71/445/92 58/451/92
f 69/453/92 70/452/92 58/451/92
f 68/454/92 69/453/92 58/451/92
f 67/455/92 68/454/92 58/451/92
f 66/456/92 67/455/92 58/451/92
f 65/457/92 66/456/92 58/451/92
f 64/458/92 65/457/92 58/451/92
f 63/459/92 64/458/92 58/451/92
f 62/460/92 63/459/92 58/451/92
f 61/461/92 62/460/92 58/451/92
f 59/462/92 61/461/92 58/451/92
f 60/463/92 59/462/92 58/451/92
f 57/464/92 56/465/92 47/466/92
f 56/465/92 55/467/92 47/466/92
f 55/467/92 54/468/92 47/466/92
f 54/468/92 53/469/92 47/466/92
f 53/469/92 52/470/92 47/466/92
f 52/470/92 51/471/92 47/466/92
f 51/471/92 49/472/92 47/466/92
f 50/473/92 20/449/92 49/472/92
f 49/472/92 20/449/92 31/474/92
f 48/475/92 49/472/92 31/474/92
f 47/466/92 49/472/92 48/475/92
f 42/476/92 47/466/92 48/475/92
f 46/477/92 47/466/92 42/476/92
f 45/478/92 46/477/92 42/476/92
f 43/479/92 45/478/92 42/476/92
f 44/480/92 43/479/92 42/476/92
f 41/481/92 40/482/92 28/483/92
f 40/482/92 30/484/92 28/483/92
f 39/485/92 38/486/92 33/487/92
f 38/486/92 37/488/92 33/487/92
f 37/488/92 36/489/92 33/487/92
f 36/489/92 35/490/92 33/487/92
f 35/490/92 34/491/92 33/487/92
f 34/491/92 31/474/92 33/487/92
f 33/487/92 31/474/92 32/492/92
f 32/492/92 31/474/92 30/484/92
f 30/484/92 31/474/92 20/449/92
f 18/493/92 30/484/92 20/449/92
f 28/483/92 30/484/92 18/493/92
f 29/494/92 28/483/92 18/493/92
f 27/495/92 26/496/92 23/497/92
f 26/496/92 25/498/92 23/497/92
f 25/498/92 24/499/92 23/497/92
f 24/499/92 22/500/92 23/497/92
f 23/497/92 22/500/92 21/448/92
f 22/500/92 8/501/92 21/448/92
f 21/448/92 8/501/92 20/449/92
f 8/501/92 6/502/92 20/449/92
f 6/502/92 17/503/92 20/449/92
f 17/503/92 18/493/92 20/449/92
f 19/504/92 18/493/92 17/503/92
f 16/505/92 15/506/92 10/507/92
f 15/506/92 14/508/92 10/507/92
f 14/508/92 13/509/92 10/507/92
f 13/509/92 12/510/92 10/507/92
f 12/510/92 11/511/92 10/507/92
f 11/511/92 5/512/92 10/507/92
f 10/507/92 5/512/92 9/513/92
f 5/512/92 6/502/92 9/513/92
f 9/513/92 6/502/92 8/501/92
f 7/514/92 6/502/92 5/512/92
f 4/129/71 3/130/71 1/137/71
f 3/130/71 2/138/71 1/137/71
