# Blender 3.3.0
# www.blender.org
mtllib target_sniper.mtl
o target_sniper
v -10.600912 41.754341 0.499226
v -11.197630 50.008945 0.499226
v -11.197630 50.008945 -0.387308
v -10.600912 41.754341 -0.387308
v -15.175753 66.418694 0.499228
v -15.374657 64.628540 0.499228
v -14.380127 61.346592 0.499228
v -11.297083 69.899551 0.499227
v -14.280674 67.512672 0.499228
v -12.689426 59.556435 0.499227
v -10.998722 58.959717 0.499226
v -8.611853 59.059170 0.499226
v -11.595442 79.645950 0.499227
v -12.689426 77.358521 0.499228
v -12.192160 78.551971 0.499228
v -12.888332 75.468918 0.499228
v -13.186689 85.215309 0.499229
v -13.286144 83.624069 0.499228
v -12.291613 86.806564 0.499229
v -4.037011 86.309296 0.499228
v -8.015133 88.795624 0.499228
v -10.402004 88.099449 0.499228
v -6.324432 88.198898 0.499228
v 4.217589 78.054703 0.499227
v 4.814306 78.651421 0.499227
v 5.709385 80.342117 0.499227
v -1.550688 86.707115 0.499228
v 5.013214 76.463448 0.499227
v 12.969458 56.473389 0.499225
v -7.915682 58.760811 0.499226
v 14.262346 48.517151 0.499225
v -7.617321 57.567375 0.499226
v -8.910210 51.799099 0.499226
v 12.074379 45.334648 0.499225
v 11.278753 44.737930 0.499225
v -8.910210 40.461452 0.499226
v -10.392963 30.740471 0.499225
v -10.591869 29.248672 0.499225
v 12.273287 28.825447 0.499224
v -9.199527 16.059006 0.499225
v 13.068911 24.250610 0.499224
v 13.466721 46.826447 0.499225
v 0.338923 86.309296 0.499228
v 10.980392 74.673294 0.499227
v 9.090786 76.264542 0.499227
v 7.201181 76.761810 0.499227
v 13.367268 68.905014 0.499226
v 14.859064 65.324707 0.499226
v 15.057972 59.158619 0.499225
v 13.963985 57.467922 0.499225
v 12.074379 72.087517 0.499226
v 15.356327 61.446041 0.499226
v -9.298979 14.666663 0.499225
v 13.566175 21.068111 0.499224
v 14.063438 16.592728 0.499224
v -10.094603 13.174869 0.499225
v 14.859064 8.537029 0.499223
v -11.884758 11.583621 0.499225
v -14.768896 9.694015 0.499226
v -14.819790 0.000000 0.499225
v 15.455782 0.000000 0.499223
v -12.689426 77.358521 -0.387305
v -11.297083 69.899551 -0.387306
v -12.888332 75.468918 -0.387305
v -13.186689 85.215309 -0.387305
v -12.291613 86.806564 -0.387305
v -10.402004 88.099449 -0.387306
v -11.595442 79.645950 -0.387305
v -12.192160 78.551971 -0.387305
v -13.286144 83.624069 -0.387305
v -8.015133 88.795624 -0.387306
v -6.324432 88.198898 -0.387306
v -4.037011 86.309296 -0.387306
v 4.814306 78.651421 -0.387306
v 4.217589 78.054703 -0.387306
v -7.915682 58.760811 -0.387307
v -7.617321 57.567375 -0.387307
v 5.013214 76.463448 -0.387306
v 15.356327 61.446041 -0.387308
v 12.074379 72.087517 -0.387308
v 13.367268 68.905014 -0.387308
v 14.859064 65.324707 -0.387308
v 0.338923 86.309296 -0.387306
v 5.709385 80.342117 -0.387306
v -1.550688 86.707115 -0.387306
v 9.090786 76.264542 -0.387306
v 10.980392 74.673294 -0.387307
v 7.201181 76.761810 -0.387306
v 12.969458 56.473389 -0.387308
v 14.262346 48.517151 -0.387309
v -8.910210 51.799099 -0.387308
v 13.963985 57.467922 -0.387308
v 15.057972 59.158619 -0.387308
v -8.910210 40.461452 -0.387308
v 14.859064 8.537029 -0.387310
v 15.455782 0.000000 -0.387311
v -14.819790 0.000000 -0.387309
v -14.768896 9.694015 -0.387308
v -11.884758 11.583621 -0.387309
v -10.094603 13.174869 -0.387309
v 14.063438 16.592728 -0.387310
v -9.298979 14.666663 -0.387309
v 13.566175 21.068111 -0.387310
v 13.068911 24.250610 -0.387310
v -9.199527 16.059006 -0.387309
v 12.273287 28.825447 -0.387310
v -10.591869 29.248672 -0.387308
v 11.278753 44.737930 -0.387309
v -10.392963 30.740471 -0.387308
v 12.074379 45.334648 -0.387309
v 13.466721 46.826447 -0.387309
v -15.374657 64.628540 -0.387306
v -15.175753 66.418694 -0.387306
v -14.280674 67.512672 -0.387306
v -8.611853 59.059170 -0.387307
v -12.689426 59.556435 -0.387306
v -10.998722 58.959717 -0.387307
v -14.380127 61.346592 -0.387306
vn -0.9974 -0.0721 -0.0000
vn -0.0000 -0.0000 1.0000
vn -0.0000 -0.0000 -1.0000
vn 0.4993 0.8665 -0.0000
vn 0.7433 0.6690 -0.0000
vn 0.0244 0.9997 -0.0000
vn -0.1580 0.9874 -0.0000
vn 0.8044 -0.5941 -0.0000
vn 0.7071 -0.7071 -0.0000
vn 0.8838 -0.4679 -0.0000
vn 0.8944 0.4472 -0.0000
vn -1.0000 0.0052 -0.0000
vn 0.9965 0.0840 -0.0000
vn 0.9976 0.0697 -0.0000
vn 0.9945 0.1044 -0.0000
vn 0.9912 0.1324 -0.0000
vn 0.9866 0.1629 -0.0000
vn 0.9931 0.1170 -0.0000
vn 0.9981 0.0624 -0.0000
vn -0.0000 -1.0000 -0.0000
vn -0.6074 -0.7944 -0.0000
vn -0.6075 -0.7944 -0.0000
vn -0.9999 -0.0122 -0.0000
vn -0.9701 -0.2425 -0.0000
vn -0.8453 0.5343 -0.0000
vn -0.6163 0.7875 -0.0000
vn 0.7777 -0.6287 -0.0000
vn 0.9387 -0.3448 -0.0000
vn 1.0000 -0.0011 -0.0000
vn 0.9661 0.2582 -0.0000
vn 0.9248 0.3805 -0.0000
vn 0.9237 0.3830 -0.0000
vn 0.8047 0.5936 -0.0000
vn 0.4605 0.8876 -0.0000
vn 0.0609 0.9981 -0.0000
vn -0.1351 0.9908 -0.0000
vn -0.7032 0.7110 -0.0000
vn -0.6247 0.7809 -0.0000
vn -0.9218 0.3878 -0.0000
vn -0.9958 -0.0917 -0.0000
vn -0.8651 -0.5017 -0.0000
vn -0.5452 -0.8383 -0.0000
vn -0.1483 -0.9889 -0.0000
vn -0.1806 -0.9836 -0.0000
vn -0.3939 -0.9191 -0.0000
vn -0.6078 0.7941 -0.0000
vn -0.5480 0.8365 -0.0000
vn -0.7856 0.6187 -0.0000
vn -0.9609 0.2770 -0.0000
vn -0.9999 -0.0169 -0.0000
vn -0.9999 0.0137 -0.0000
vn -0.9899 0.1415 -0.0000
vn -0.9886 0.1508 -0.0000
vn -0.9856 -0.1689 -0.0000
vn -0.9203 -0.3911 -0.0000
vn -0.9590 0.2835 -0.0000
vn -0.7374 0.6754 -0.0000
vn -0.4277 0.9039 -0.0000
vn 0.0277 0.9996 -0.0000
vn 0.4924 0.8704 -0.0000
vn 0.6369 0.7710 -0.0000
vn 0.6681 -0.7440 -0.0000
vn 0.6000 -0.8000 -0.0000
vn 0.6681 -0.7441 -0.0000
vn 0.8279 -0.5608 -0.0000
vn 0.9903 -0.1389 -0.0000
vn 0.9871 0.1604 -0.0000
vn -0.9017 0.4323 -0.0000
vn -0.8779 0.4789 -0.0000
vn -0.9690 0.2472 -0.0000
vn -0.9962 -0.0866 -0.0000
vn -0.9615 -0.2747 -0.0000
vt 0.058862 0.472399
vt 1.000896 0.470230
vt 0.052176 0.565466
vt 1.000896 0.563192
vt 0.912124 0.558395
vt 0.978169 0.563192
vt 0.905037 0.468040
vt 0.978169 0.470230
vt 0.007603 0.750476
vt 1.000896 0.747995
vt 0.005374 0.730293
vt 1.000896 0.727835
vt 0.016518 0.693291
vt 1.000896 0.690874
vt 0.051062 0.789721
vt 1.000896 0.787196
vt 0.017632 0.762810
vt 1.000896 0.760315
vt 0.035461 0.673108
vt 1.000896 0.670714
vt 0.054405 0.666381
vt 1.000896 0.663994
vt 0.081149 0.667502
vt 1.000896 0.665114
vt 0.047719 0.899606
vt 1.000896 0.896958
vt 0.035461 0.873817
vt 1.000896 0.871198
vt 0.041033 0.887272
vt 1.000896 0.884638
vt 0.033233 0.852513
vt 1.000896 0.849917
vt 0.029890 0.962398
vt 1.000896 0.959679
vt 0.028775 0.944457
vt 1.000896 0.941759
vt 0.039919 0.980338
vt 1.000896 0.977600
vt 0.132408 0.974732
vt 1.000896 0.972000
vt 0.087835 1.002764
vt 1.000896 1.000000
vt 0.061091 0.994915
vt 1.000896 0.992160
vt 0.106779 0.996036
vt 1.000896 0.993280
vt 0.224898 0.881666
vt 1.000896 0.879038
vt 0.231584 0.888394
vt 1.000896 0.885758
vt 0.241613 0.907455
vt 1.000896 0.904798
vt 0.160267 0.979217
vt 1.000896 0.976480
vt 0.233813 0.863725
vt 1.000896 0.861117
vt 0.322960 0.638349
vt 1.000896 0.635993
vt 0.088949 0.664138
vt 1.000896 0.661753
vt 0.337446 0.548647
vt 1.000896 0.546391
vt 0.092292 0.650683
vt 1.000896 0.648313
vt 0.077806 0.585649
vt 1.000896 0.583352
vt 0.312931 0.512766
vt 1.000896 0.510551
vt 0.304016 0.506038
vt 1.000896 0.503830
vt 0.077806 0.457823
vt 1.000896 0.455669
vt 0.061289 0.348273
vt 1.001380 0.346078
vt 0.058987 0.331448
vt 1.008581 0.324337
vt 0.315159 0.326633
vt 1.000896 0.324627
vt 0.074650 0.182748
vt 1.018474 0.184320
vt 0.324074 0.275055
vt 1.000896 0.273106
vt 0.328531 0.529585
vt 1.000896 0.527351
vt 0.181439 0.974732
vt 1.000896 0.972000
vt 0.300673 0.843542
vt 1.000896 0.840957
vt 0.279501 0.861483
vt 1.000896 0.858877
vt 0.258328 0.867089
vt 1.000896 0.864477
vt 0.327417 0.778508
vt 1.000896 0.775996
vt 0.344132 0.738142
vt 1.000896 0.735675
vt 0.346361 0.668623
vt 1.000896 0.666234
vt 0.334103 0.649561
vt 1.000896 0.647193
vt 0.312931 0.814389
vt 1.000896 0.811836
vt 0.349704 0.694412
vt 1.000896 0.691994
vt 0.073459 0.167085
vt 1.022732 0.174518
vt 0.329646 0.239174
vt 1.000896 0.237265
vt 0.335217 0.188716
vt 1.000896 0.186864
vt 0.064513 0.150335
vt 0.998619 0.191446
vt 0.344132 0.097893
vt 1.000896 0.096142
vt 0.044492 0.132368
vt 0.998770 0.181165
vt 0.012066 0.110910
vt 1.006128 0.139134
vt 0.011587 0.001641
vt 1.000903 0.000770
vt 0.350818 0.001642
vt 1.000896 0.000000
vt 0.929842 0.857766
vt 0.978169 0.871198
vt 0.913305 0.776119
vt 0.978169 0.787196
vt 0.932204 0.837082
vt 0.978169 0.849917
vt 0.935748 0.943766
vt 0.978169 0.959679
vt 0.925117 0.961185
vt 0.978169 0.977600
vt 0.902675 0.975336
vt 0.978169 0.992160
vt 0.916849 0.882804
vt 0.978169 0.896958
vt 0.923936 0.870829
vt 0.978169 0.884638
vt 0.936929 0.926349
vt 0.978169 0.941759
vt 0.874326 0.982957
vt 0.978169 1.000000
vt 0.854246 0.976425
vt 0.978169 0.993280
vt 0.827078 0.955741
vt 0.978169 0.972000
vt 0.721952 0.871918
vt 0.978169 0.885758
vt 0.729039 0.865386
vt 0.978169 0.879038
vt 0.873145 0.654194
vt 0.978169 0.661753
vt 0.869601 0.641130
vt 0.978169 0.648313
vt 0.719589 0.847968
vt 0.978169 0.861117
vt 0.596745 0.683587
vt 0.978169 0.691994
vt 0.635725 0.800069
vt 0.978169 0.811836
vt 0.620369 0.765233
vt 0.978169 0.775996
vt 0.602651 0.726043
vt 0.978169 0.735675
vt 0.775106 0.955741
vt 0.978169 0.972000
vt 0.711321 0.890424
vt 0.978169 0.904798
vt 0.797548 0.960096
vt 0.978169 0.976480
vt 0.671160 0.845791
vt 0.978169 0.858877
vt 0.648718 0.828373
vt 0.978169 0.840957
vt 0.693603 0.851234
vt 0.978169 0.864477
vt 0.625094 0.629156
vt 0.978169 0.635993
vt 0.609738 0.542066
vt 0.978169 0.546391
vt 0.884957 0.577991
vt 0.978169 0.583352
vt 0.613282 0.640042
vt 0.978169 0.647193
vt 0.600289 0.658548
vt 0.978169 0.666234
vt 0.884957 0.453888
vt 0.978169 0.455669
vt 0.602651 0.104441
vt 0.978169 0.096142
vt 0.595564 0.010994
vt 0.978169 0.000000
vt 0.955081 0.010863
vt 0.978169 0.000354
vt 0.955576 0.115898
vt 0.976009 0.121349
vt 0.920867 0.135894
vt 0.976197 0.177340
vt 0.897296 0.153499
vt 0.978466 0.195309
vt 0.612101 0.192619
vt 0.978169 0.186864
vt 0.889353 0.170989
vt 0.984227 0.194493
vt 0.618007 0.241607
vt 0.978169 0.237265
vt 0.623913 0.276443
vt 0.978169 0.273106
vt 0.889999 0.186147
vt 0.985007 0.183157
vt 0.633362 0.326519
vt 0.978169 0.324627
vt 0.905309 0.330595
vt 0.978302 0.330074
vt 0.645174 0.500699
vt 0.978169 0.503830
vt 0.903757 0.346949
vt 0.985790 0.341215
vt 0.635725 0.507230
vt 0.978169 0.510551
vt 0.619188 0.523560
vt 0.978169 0.527351
vt 0.961734 0.718422
vt 0.978169 0.727835
vt 0.959372 0.738018
vt 0.978169 0.747995
vt 0.948741 0.749992
vt 0.978169 0.760315
vt 0.881413 0.657460
vt 0.978169 0.665114
vt 0.929842 0.662903
vt 0.978169 0.670714
vt 0.909762 0.656371
vt 0.978169 0.663994
vt 0.949922 0.682498
vt 0.978169 0.690874
s 1
usemtl target_sniper
f 1/2/1 2/4/1 3/6/1
f 3/6/1 4/8/1 1/2/1
f 5/9/2 6/11/2 7/13/2
f 8/15/2 5/9/2 7/13/2
f 8/15/2 9/17/2 5/9/2
f 7/13/2 10/19/2 11/21/2
f 7/13/2 11/21/2 12/23/2
f 8/15/2 7/13/2 12/23/2
f 13/25/2 8/15/2 12/23/2
f 13/25/2 14/27/2 8/15/2
f 13/25/2 15/29/2 14/27/2
f 14/27/2 16/31/2 8/15/2
f 13/25/2 17/33/2 18/35/2
f 13/25/2 19/37/2 17/33/2
f 13/25/2 20/39/2 19/37/2
f 13/25/2 12/23/2 20/39/2
f 21/41/2 22/43/2 19/37/2
f 20/39/2 21/41/2 19/37/2
f 20/39/2 23/45/2 21/41/2
f 24/47/2 25/49/2 26/51/2
f 24/47/2 26/51/2 27/53/2
f 28/55/2 24/47/2 27/53/2
f 28/55/2 27/53/2 20/39/2
f 12/23/2 28/55/2 20/39/2
f 12/23/2 29/57/2 28/55/2
f 12/23/2 30/59/2 29/57/2
f 30/59/2 31/61/2 29/57/2
f 30/59/2 32/63/2 31/61/2
f 32/63/2 33/65/2 31/61/2
f 33/65/2 34/67/2 31/61/2
f 33/65/2 35/69/2 34/67/2
f 33/65/2 36/71/2 35/69/2
f 36/71/2 37/73/2 35/69/2
f 37/73/2 38/75/2 35/69/2
f 38/75/2 39/77/2 35/69/2
f 38/75/2 40/79/2 39/77/2
f 40/79/2 41/81/2 39/77/2
f 34/67/2 42/83/2 31/61/2
f 26/51/2 43/85/2 27/53/2
f 33/65/2 1/1/2 36/71/2
f 33/65/2 2/3/2 1/1/2
f 44/87/2 45/89/2 46/91/2
f 47/93/2 44/87/2 46/91/2
f 47/93/2 46/91/2 28/55/2
f 29/57/2 47/93/2 28/55/2
f 29/57/2 48/95/2 47/93/2
f 29/57/2 49/97/2 48/95/2
f 29/57/2 50/99/2 49/97/2
f 47/93/2 51/101/2 44/87/2
f 49/97/2 52/103/2 48/95/2
f 40/79/2 53/105/2 41/81/2
f 53/105/2 54/107/2 41/81/2
f 53/105/2 55/109/2 54/107/2
f 53/105/2 56/111/2 55/109/2
f 56/111/2 57/113/2 55/109/2
f 56/111/2 58/115/2 57/113/2
f 58/115/2 59/117/2 57/113/2
f 59/117/2 60/119/2 57/113/2
f 60/119/2 61/121/2 57/113/2
f 62/123/3 63/125/3 64/127/3
f 65/129/3 66/131/3 67/133/3
f 68/135/3 65/129/3 67/133/3
f 68/135/3 67/133/3 63/125/3
f 62/123/3 68/135/3 63/125/3
f 62/123/3 69/137/3 68/135/3
f 68/135/3 70/139/3 65/129/3
f 67/133/3 71/141/3 72/143/3
f 67/133/3 72/143/3 73/145/3
f 67/133/3 73/145/3 74/147/3
f 67/133/3 74/147/3 63/125/3
f 74/147/3 75/149/3 63/125/3
f 75/149/3 76/151/3 63/125/3
f 75/149/3 77/153/3 76/151/3
f 75/149/3 78/155/3 77/153/3
f 78/155/3 79/157/3 77/153/3
f 78/155/3 80/159/3 79/157/3
f 80/159/3 81/161/3 79/157/3
f 81/161/3 82/163/3 79/157/3
f 83/165/3 84/167/3 74/147/3
f 73/145/3 83/165/3 74/147/3
f 73/145/3 85/169/3 83/165/3
f 86/171/3 87/173/3 80/159/3
f 78/155/3 86/171/3 80/159/3
f 78/155/3 88/175/3 86/171/3
f 89/177/3 90/179/3 91/181/3
f 89/177/3 91/181/3 77/153/3
f 79/157/3 89/177/3 77/153/3
f 79/157/3 92/183/3 89/177/3
f 79/157/3 93/185/3 92/183/3
f 94/187/3 4/7/3 91/181/3
f 4/7/3 3/5/3 91/181/3
f 95/189/3 96/191/3 97/193/3
f 95/189/3 97/193/3 98/195/3
f 95/189/3 98/195/3 99/197/3
f 95/189/3 99/197/3 100/199/3
f 101/201/3 95/189/3 100/199/3
f 101/201/3 100/199/3 102/203/3
f 103/205/3 101/201/3 102/203/3
f 104/207/3 103/205/3 102/203/3
f 104/207/3 102/203/3 105/209/3
f 106/211/3 104/207/3 105/209/3
f 106/211/3 105/209/3 107/213/3
f 108/215/3 106/211/3 107/213/3
f 108/215/3 107/213/3 109/217/3
f 108/215/3 109/217/3 94/187/3
f 108/215/3 94/187/3 91/181/3
f 110/219/3 108/215/3 91/181/3
f 90/179/3 110/219/3 91/181/3
f 90/179/3 111/221/3 110/219/3
f 43/86/4 26/52/5 84/168/5
f 84/168/5 83/166/4 43/86/4
f 27/54/6 43/86/4 83/166/4
f 83/166/4 85/170/6 27/54/6
f 20/40/7 27/54/6 85/170/6
f 85/170/6 73/146/7 20/40/7
f 25/50/8 24/48/9 75/150/9
f 75/150/9 74/148/8 25/50/8
f 26/52/10 25/50/8 74/148/8
f 74/148/8 84/168/10 26/52/10
f 24/48/11 28/56/11 78/156/11
f 78/156/11 75/150/11 24/48/11
f 60/120/12 59/118/12 98/196/12
f 98/196/12 97/194/12 60/120/12
f 57/114/13 61/122/14 96/192/14
f 96/192/14 95/190/13 57/114/13
f 55/110/15 57/114/13 95/190/13
f 95/190/13 101/202/15 55/110/15
f 54/108/16 55/110/15 101/202/15
f 101/202/15 103/206/16 54/108/16
f 41/82/17 54/108/16 103/206/16
f 103/206/16 104/208/17 41/82/17
f 39/78/18 41/82/17 104/208/17
f 104/208/17 106/212/18 39/78/18
f 35/70/19 39/78/18 106/212/18
f 106/212/18 108/216/19 35/70/19
f 61/122/20 60/120/20 97/194/20
f 97/194/20 96/192/20 61/122/20
f 36/72/21 1/2/22 4/8/22
f 4/8/22 94/188/21 36/72/21
f 32/64/23 30/60/24 76/152/24
f 76/152/24 77/154/23 32/64/23
f 33/66/25 32/64/23 77/154/23
f 77/154/23 91/182/25 33/66/25
f 2/4/26 33/66/25 91/182/25
f 91/182/25 3/6/26 2/4/26
f 112/223/3 113/225/3 114/227/3
f 112/223/3 114/227/3 63/125/3
f 76/151/3 112/223/3 63/125/3
f 76/151/3 115/229/3 112/223/3
f 115/229/3 116/231/3 112/223/3
f 115/229/3 117/233/3 116/231/3
f 116/231/3 118/235/3 112/223/3
f 50/100/27 29/58/9 89/178/9
f 89/178/9 92/184/27 50/100/27
f 49/98/28 50/100/27 92/184/27
f 92/184/27 93/186/28 49/98/28
f 52/104/29 49/98/28 93/186/28
f 93/186/28 79/158/29 52/104/29
f 48/96/30 52/104/29 79/158/29
f 79/158/29 82/164/30 48/96/30
f 47/94/31 48/96/30 82/164/30
f 82/164/30 81/162/31 47/94/31
f 51/102/32 47/94/31 81/162/31
f 81/162/31 80/160/32 51/102/32
f 44/88/33 51/102/32 80/160/32
f 80/160/32 87/174/33 44/88/33
f 45/90/34 44/88/33 87/174/33
f 87/174/33 86/172/34 45/90/34
f 46/92/35 45/90/34 86/172/34
f 86/172/34 88/176/35 46/92/35
f 28/56/36 46/92/35 88/176/35
f 88/176/35 78/156/36 28/56/36
f 9/18/37 8/16/38 63/126/38
f 63/126/38 114/228/37 9/18/37
f 5/10/39 9/18/37 114/228/37
f 114/228/37 113/226/39 5/10/39
f 6/12/40 5/10/39 113/226/39
f 113/226/39 112/224/40 6/12/40
f 7/14/41 6/12/40 112/224/40
f 112/224/40 118/236/41 7/14/41
f 10/20/42 7/14/41 118/236/41
f 118/236/41 116/232/42 10/20/42
f 11/22/43 10/20/42 116/232/42
f 116/232/42 117/234/43 11/22/43
f 12/24/44 11/22/43 117/234/43
f 117/234/43 115/230/44 12/24/44
f 30/60/45 12/24/44 115/230/44
f 115/230/44 76/152/45 30/60/45
f 99/198/46 98/196/47 59/118/47
f 59/118/47 58/116/46 99/198/46
f 100/200/48 99/198/46 58/116/46
f 58/116/46 56/112/48 100/200/48
f 102/204/49 100/200/48 56/112/48
f 56/112/48 53/106/49 102/204/49
f 105/210/50 102/204/49 53/106/49
f 53/106/49 40/80/50 105/210/50
f 107/214/51 105/210/50 40/80/50
f 40/80/50 38/76/51 107/214/51
f 109/218/52 107/214/51 38/76/51
f 38/76/51 37/74/52 109/218/52
f 94/188/53 109/218/52 37/74/52
f 37/74/52 36/72/53 94/188/53
f 70/140/54 68/136/55 13/26/55
f 13/26/55 18/36/54 70/140/54
f 65/130/56 70/140/54 18/36/54
f 18/36/54 17/34/56 65/130/56
f 66/132/57 65/130/56 17/34/56
f 17/34/56 19/38/57 66/132/57
f 67/134/58 66/132/57 19/38/57
f 19/38/57 22/44/58 67/134/58
f 71/142/59 67/134/58 22/44/58
f 22/44/58 21/42/59 71/142/59
f 72/144/60 71/142/59 21/42/59
f 21/42/59 23/46/60 72/144/60
f 73/146/61 72/144/60 23/46/60
f 23/46/60 20/40/61 73/146/61
f 34/68/62 35/70/63 108/216/63
f 108/216/63 110/220/64 34/68/62
f 42/84/65 34/68/62 110/220/64
f 110/220/64 111/222/65 42/84/65
f 31/62/66 42/84/65 111/222/65
f 111/222/65 90/180/66 31/62/66
f 29/58/67 31/62/66 90/180/66
f 90/180/66 89/178/67 29/58/67
f 15/30/68 13/26/69 68/136/69
f 68/136/69 69/138/68 15/30/68
f 14/28/70 15/30/68 69/138/68
f 69/138/68 62/124/70 14/28/70
f 16/32/71 14/28/70 62/124/70
f 62/124/70 64/128/71 16/32/71
f 8/16/72 16/32/71 64/128/71
f 64/128/71 63/126/72 8/16/72
