# Blender v2.93.18 OBJ File: ''
# www.blender.org
mtllib bottle001.mtl
o Body_bottle001_reference.smd_Body_bottle001_reference.smd_MESH
v -0.037309 0.121585 0.000000
v -0.021225 0.179500 -0.021225
v -0.030017 0.179500 0.000000
v -0.026382 0.121585 -0.026382
v -0.000000 0.179500 -0.030017
v -0.038369 0.082713 -0.000088
v -0.000000 0.121585 -0.037309
v 0.021225 0.179500 -0.021225
v -0.027069 0.082713 -0.027193
v -0.028359 0.078890 -0.028410
v -0.040141 0.078890 -0.000036
v -0.052444 0.067066 -0.000013
v 0.066663 0.037426 -0.000000
v 0.043985 0.051807 0.043985
v 0.062204 0.051807 -0.000000
v 0.047138 0.037426 -0.047138
v 0.043985 0.051807 -0.043985
v -0.000000 0.037426 -0.066663
v -0.000000 0.051807 -0.062204
v -0.047138 0.037426 -0.047138
v -0.043985 0.051807 -0.043985
v -0.066663 0.037426 0.000000
v -0.062204 0.051807 0.000000
v -0.037074 0.067066 -0.037093
v 0.000036 0.078890 -0.040141
v 0.000088 0.082713 -0.038369
v 0.026382 0.121585 -0.026382
v 0.000013 0.067066 -0.052444
v 0.037093 0.067066 -0.037074
v 0.052444 0.067066 0.000013
v 0.037074 0.067066 0.037093
v -0.000036 0.078890 0.040141
v -0.000013 0.067066 0.052444
v 0.000000 0.051807 0.062204
v 0.047138 0.037426 0.047138
v 0.028410 0.078890 -0.028359
v 0.040141 0.078890 0.000036
v 0.028359 0.078890 0.028410
v 0.027069 0.082713 0.027193
v -0.000088 0.082713 0.038369
v 0.027193 0.082713 -0.027069
v 0.038369 0.082713 0.000088
v 0.037309 0.121585 -0.000000
v 0.026382 0.121585 0.026382
v 0.000000 0.121585 0.037309
v -0.026382 0.121585 0.026382
v -0.027193 0.082713 0.027069
v -0.028410 0.078890 0.028359
v 0.030017 0.179500 -0.000000
v 0.021225 0.179500 0.021225
v 0.000000 0.179500 0.030017
v -0.021225 0.179500 0.021225
v -0.030017 0.179500 0.000000
v -0.037309 0.121585 0.000000
v -0.038369 0.082713 -0.000088
v -0.040141 0.078890 -0.000036
v -0.037093 0.067066 0.037074
v -0.043985 0.051807 0.043985
v 0.025081 -0.199726 0.060447
v 0.000040 -0.199726 0.065444
v 0.000000 0.037426 0.066663
v -0.025007 -0.199726 0.060478
v -0.047138 0.037426 0.047138
v -0.062204 0.051807 0.000000
v -0.052444 0.067066 -0.000013
v -0.066663 0.037426 0.000000
v -0.046248 -0.199726 0.046304
v -0.060447 -0.199726 0.025081
v -0.065444 -0.199726 0.000040
v 0.046304 -0.199726 0.046248
v 0.060478 -0.199726 0.025007
v 0.065444 -0.199726 -0.000040
v 0.060447 -0.199726 -0.025081
v 0.046248 -0.199726 -0.046304
v 0.025007 -0.199726 -0.060478
v -0.000040 -0.199726 -0.065444
v -0.025081 -0.199726 -0.060447
v -0.046304 -0.199726 -0.046248
v -0.060478 -0.199726 -0.025007
v -0.065444 -0.199726 0.000040
v 0.000000 -0.209550 0.000000
v 0.043168 -0.209550 0.043115
v 0.056381 -0.209550 0.023313
v 0.061011 -0.209550 -0.000037
v 0.056353 -0.209550 -0.023382
v 0.043115 -0.209550 -0.043168
v 0.023313 -0.209550 -0.056381
v -0.000037 -0.209550 -0.061011
v -0.023382 -0.209550 -0.056353
v -0.043168 -0.209550 -0.043115
v -0.056381 -0.209550 -0.023313
v -0.061011 -0.209550 0.000037
v -0.056353 -0.209550 0.023382
v -0.043115 -0.209550 0.043168
v -0.023313 -0.209550 0.056381
v 0.000037 -0.209550 0.061011
v 0.023382 -0.209550 0.056353
v -0.032219 0.188978 0.000000
v -0.030017 0.179500 0.000000
v -0.021225 0.179500 -0.021225
v -0.022782 0.188978 -0.022782
v -0.000000 0.179500 -0.030017
v -0.000000 0.188978 -0.032219
v 0.021225 0.179500 -0.021225
v 0.022782 0.188978 -0.022782
v 0.030017 0.179500 -0.000000
v 0.032219 0.188978 -0.000000
v 0.021225 0.179500 0.021225
v 0.022782 0.188978 0.022782
v 0.000000 0.179500 0.030017
v 0.000000 0.188978 0.032219
v -0.021225 0.179500 0.021225
v -0.022782 0.188978 0.022782
v -0.030017 0.179500 0.000000
v -0.032219 0.188978 0.000000
v -0.028500 0.201587 0.000000
v -0.020153 0.201587 0.020153
v 0.000000 0.201587 0.028500
v 0.020153 0.201587 0.020153
v 0.028500 0.201587 -0.000000
v 0.020153 0.201587 -0.020153
v -0.000000 0.201587 -0.028500
v -0.020153 0.201587 -0.020153
v -0.028500 0.201587 0.000000
v 0.018827 0.209812 -0.018827
v 0.000000 0.012312 0.000000
v -0.000000 0.209812 -0.026625
v -0.018827 0.209812 -0.018827
v -0.026625 0.209812 0.000000
v -0.018827 0.209812 0.018827
v 0.000000 0.209812 0.026625
v 0.018827 0.209812 0.018827
v 0.026625 0.209812 -0.000000
v -0.018827 0.209812 -0.018827
v -0.026625 0.209812 0.000000
v -0.030281 0.207839 0.000000
v -0.021412 0.207839 -0.021412
v -0.000000 0.209812 -0.026625
v -0.000000 0.207839 -0.030281
v 0.018827 0.209812 -0.018827
v 0.021412 0.207839 -0.021412
v 0.026625 0.209812 -0.000000
v 0.030281 0.207839 -0.000000
v 0.018827 0.209812 0.018827
v 0.021412 0.207839 0.021412
v 0.000000 0.209812 0.026625
v 0.000000 0.207839 0.030281
v -0.018827 0.209812 0.018827
v -0.021412 0.207839 0.021412
v -0.026625 0.209812 0.000000
v -0.030281 0.207839 0.000000
v -0.020153 0.201587 0.020153
v -0.028500 0.201587 0.000000
v -0.030281 0.207839 0.000000
v -0.021412 0.207839 0.021412
v 0.000000 0.201587 0.028500
v 0.000000 0.207839 0.030281
v 0.020153 0.201587 0.020153
v 0.021412 0.207839 0.021412
v 0.028500 0.201587 -0.000000
v 0.030281 0.207839 -0.000000
v 0.020153 0.201587 -0.020153
v 0.021412 0.207839 -0.021412
v -0.000000 0.201587 -0.028500
v -0.000000 0.207839 -0.030281
v -0.020153 0.201587 -0.020153
v -0.021412 0.207839 -0.021412
v -0.028500 0.201587 0.000000
v -0.030281 0.207839 0.000000
v -0.000040 -0.199726 -0.065444
v 0.023313 -0.209550 -0.056381
v 0.025007 -0.199726 -0.060478
v 0.043115 -0.209550 -0.043168
v 0.046248 -0.199726 -0.046304
v 0.056353 -0.209550 -0.023382
v 0.060447 -0.199726 -0.025081
v 0.061011 -0.209550 -0.000037
v 0.065444 -0.199726 -0.000040
v 0.056381 -0.209550 0.023313
v 0.060478 -0.199726 0.025007
v 0.043168 -0.209550 0.043115
v 0.046304 -0.199726 0.046248
v 0.023382 -0.209550 0.056353
v 0.025081 -0.199726 0.060447
v 0.000037 -0.209550 0.061011
v 0.000040 -0.199726 0.065444
v -0.023313 -0.209550 0.056381
v -0.025007 -0.199726 0.060478
v -0.043115 -0.209550 0.043168
v -0.046248 -0.199726 0.046304
v -0.056353 -0.209550 0.023382
v -0.060447 -0.199726 0.025081
v -0.061011 -0.209550 0.000037
v -0.065444 -0.199726 0.000040
v -0.056381 -0.209550 -0.023313
v -0.060478 -0.199726 -0.025007
v -0.043168 -0.209550 -0.043115
v -0.046304 -0.199726 -0.046248
v -0.023382 -0.209550 -0.056353
v -0.025081 -0.199726 -0.060447
v -0.000037 -0.209550 -0.061011
vt 0.981135 0.406894
vt 0.999137 0.316099
vt 0.947684 0.316130
vt 0.933499 0.245045
vt 0.981024 0.225325
vt 0.893191 0.184798
vt 0.929551 0.148393
vt 0.832895 0.144564
vt 0.852556 0.097015
vt 0.761792 0.130466
vt 0.761761 0.079013
vt 0.690706 0.144651
vt 0.670987 0.097127
vt 0.630460 0.184960
vt 0.594055 0.148599
vt 0.590226 0.245255
vt 0.542677 0.225594
vt 0.576128 0.316358
vt 0.524675 0.316389
vt 0.590313 0.387444
vt 0.542789 0.407163
vt 0.630621 0.447690
vt 0.594261 0.484095
vt 0.690917 0.487925
vt 0.671256 0.535473
vt 0.762020 0.502023
vt 0.762051 0.553475
vt 0.833105 0.487837
vt 0.852825 0.535362
vt 0.893351 0.447529
vt 0.929757 0.483889
vt 0.933587 0.387233
vt 1.000000 0.995299
vt 0.875000 0.995299
vt 1.000000 0.980400
vt 0.875000 0.980400
vt 0.750000 0.995299
vt 0.750000 0.980400
vt 0.625000 0.995299
vt 0.625000 0.980400
vt 0.500000 0.995299
vt 0.500000 0.980400
vt 0.375000 0.995299
vt 0.375000 0.980400
vt 0.250000 0.995299
vt 0.250000 0.980400
vt 0.125000 0.995299
vt 0.125000 0.980400
vt 0.000000 0.995299
vt 0.000000 0.980400
vt 0.000000 0.995299
vt 0.125000 0.995299
vt 0.000000 1.000000
vt 0.125000 1.000000
vt 0.250000 0.995299
vt 0.250000 1.000000
vt 0.375000 0.995299
vt 0.375000 1.000000
vt 0.500000 0.995299
vt 0.500000 1.000000
vt 0.625000 0.995299
vt 0.625000 1.000000
vt 0.750000 0.995299
vt 0.750000 1.000000
vt 0.875000 0.995299
vt 0.875000 1.000000
vt 1.000000 0.995299
vt 1.000000 1.000000
vt 0.994053 0.987000
vt 0.991872 0.987943
vt 0.994053 0.990219
vt 0.996234 0.987943
vt 0.997137 0.990219
vt 0.996234 0.992496
vt 0.994053 0.993438
vt 0.991872 0.992496
vt 0.990969 0.990219
vt 1.000000 0.950351
vt 1.000000 0.980400
vt 0.875000 0.980400
vt 0.875000 0.950351
vt 0.750000 0.980400
vt 0.750000 0.950351
vt 0.625000 0.980400
vt 0.625000 0.950351
vt 0.500000 0.980400
vt 0.500000 0.950351
vt 0.375000 0.980400
vt 0.375000 0.950351
vt 0.250000 0.980400
vt 0.250000 0.950351
vt 0.125000 0.980400
vt 0.125000 0.950351
vt 0.000000 0.980400
vt 0.000000 0.950351
vt 0.000000 0.927764
vt 0.125000 0.927764
vt 0.250000 0.927764
vt 0.375000 0.927764
vt 0.500000 0.927764
vt 0.625000 0.927764
vt 0.750000 0.927764
vt 0.875000 0.927764
vt 1.000000 0.927764
vt 0.594261 0.484095
vt 0.542789 0.407163
vt 0.761906 0.316244
vt 0.524675 0.316389
vt 0.542677 0.225594
vt 0.594055 0.148599
vt 0.670987 0.097127
vt 0.761761 0.079013
vt 0.852556 0.097015
vt 0.929551 0.148393
vt 0.981024 0.225325
vt 0.999137 0.316099
vt 0.981135 0.406894
vt 0.929757 0.483889
vt 0.852825 0.535362
vt 0.762051 0.553475
vt 0.671256 0.535473
vt 1.000000 0.589189
vt 0.937598 0.000000
vt 1.000098 0.000000
vt 0.875000 0.589189
vt 0.875098 0.000000
vt 0.812598 0.000000
vt 0.750000 0.589189
vt 0.750098 0.000000
vt 0.687598 0.000000
vt 0.625000 0.589189
vt 0.625098 0.000000
vt 0.562598 0.000000
vt 0.500000 0.589189
vt 0.500098 0.000000
vt 0.437597 0.000000
vt 0.375000 0.589189
vt 0.375097 0.000000
vt 0.312597 0.000000
vt 0.250000 0.589189
vt 0.250000 0.623461
vt 0.125000 0.623461
vt 0.000000 0.589189
vt 0.000097 0.000000
vt 0.062597 0.000000
vt 0.125000 0.589189
vt 0.125097 0.000000
vt 0.187597 0.000000
vt 0.000000 0.623461
vt -0.000040 0.659824
vt 0.124960 0.659824
vt -0.000143 0.688002
vt 0.250097 0.000000
vt 0.249960 0.659824
vt 0.124858 0.688002
vt 0.124636 0.697113
vt -0.000364 0.697113
vt 0.000000 0.789748
vt 0.125000 0.789748
vt 0.000000 0.927764
vt 0.125000 0.927764
vt 0.250000 0.789748
vt 0.250000 0.927764
vt 0.375000 0.789748
vt 0.375000 0.927764
vt 0.500000 0.789748
vt 0.500000 0.927764
vt 0.625000 0.789748
vt 0.625000 0.927764
vt 0.249858 0.688002
vt 0.249636 0.697113
vt 0.374636 0.697113
vt 0.499636 0.697113
vt 0.624636 0.697113
vt 0.749636 0.697113
vt 0.624857 0.688002
vt 0.749857 0.688002
vt 0.749960 0.659824
vt 0.874960 0.659824
vt 0.750000 0.623461
vt 0.875000 0.623461
vt 0.374858 0.688002
vt 0.499858 0.688002
vt 0.374960 0.659824
vt 0.499960 0.659824
vt 0.624960 0.659824
vt 0.375000 0.623461
vt 0.500000 0.623461
vt 0.625000 0.623461
vt 0.750000 0.789748
vt 0.874636 0.697113
vt 0.874857 0.688002
vt 0.999960 0.659824
vt 1.000000 0.623461
vt 0.999857 0.688002
vt 0.999636 0.697113
vt 0.875000 0.789748
vt 0.750000 0.927764
vt 1.000000 0.789748
vt 0.875000 0.927764
vt 1.000000 0.927764
vn 0.3483 -0.4113 -0.8423
vn -0.0006 -0.4113 -0.9115
vn -0.0006 -0.2132 -0.9770
vn -0.3778 -0.1666 -0.9108
vn -0.3493 -0.4113 -0.8419
vn -0.6913 -0.2132 -0.6904
vn -0.6449 -0.4113 -0.6441
vn -0.9112 -0.1666 -0.3769
vn -0.8423 -0.4113 -0.3483
vn -0.9770 -0.2132 0.0006
vn -0.9115 -0.4113 0.0006
vn -0.9108 -0.1666 0.3778
vn -0.8419 -0.4113 0.3493
vn -0.6904 -0.2132 0.6913
vn -0.6441 -0.4113 0.6449
vn -0.3769 -0.1666 0.9112
vn -0.3483 -0.4113 0.8423
vn 0.0006 -0.2132 0.9770
vn 0.0006 -0.4113 0.9115
vn 0.3778 -0.1666 0.9108
vn 0.3493 -0.4113 0.8419
vn 0.6913 -0.2132 0.6904
vn 0.6449 -0.4113 0.6441
vn 0.9112 -0.1666 0.3769
vn 0.8423 -0.4113 0.3483
vn 0.9757 -0.2134 -0.0500
vn 0.9115 -0.4113 -0.0006
vn 0.8877 -0.2765 -0.3682
vn 0.8419 -0.4113 -0.3493
vn 0.7246 -0.2134 -0.6553
vn 0.6441 -0.4113 -0.6449
vn 0.3769 -0.1666 -0.9112
vn -0.9618 -0.2739 -0.0000
vn -0.6801 -0.2739 -0.6801
vn 0.0000 -0.2739 -0.9618
vn 0.6801 -0.2739 -0.6801
vn 0.9618 -0.2739 -0.0000
vn 0.6801 -0.2739 0.6801
vn -0.0000 -0.2739 0.9618
vn -0.6801 -0.2739 0.6801
vn -0.4749 0.8800 0.0000
vn -0.3358 0.8801 0.3358
vn -0.4749 0.8801 0.0000
vn 0.0000 0.8801 0.4749
vn 0.3358 0.8801 0.3358
vn 0.4749 0.8801 -0.0000
vn 0.3358 0.8801 -0.3358
vn -0.0000 0.8801 -0.4749
vn -0.3358 0.8801 -0.3358
vn -0.9910 0.1336 0.0000
vn -0.7008 0.1336 0.7008
vn 0.0000 1.0000 0.0000
vn -0.7008 0.1336 -0.7008
vn -0.0000 0.1336 -0.9910
vn 0.7008 0.1336 -0.7008
vn 0.9910 0.1336 -0.0000
vn 0.7008 0.1336 0.7008
vn 0.0000 0.1336 0.9910
vn -0.9996 0.0296 0.0000
vn -0.9592 0.2829 0.0000
vn -0.6782 0.2829 -0.6782
vn -0.7068 0.0295 -0.7068
vn -0.0000 0.2829 -0.9592
vn -0.0000 0.0297 -0.9996
vn 0.6782 0.2829 -0.6782
vn 0.7068 0.0296 -0.7068
vn 0.9592 0.2829 0.0000
vn 0.9996 0.0297 0.0000
vn 0.6782 0.2829 0.6782
vn 0.7068 0.0297 0.7068
vn 0.0000 0.2829 0.9592
vn -0.0000 0.0297 0.9996
vn -0.6782 0.2829 0.6782
vn -0.7068 0.0296 0.7068
vn -0.9741 -0.2263 -0.0000
vn -0.6888 -0.2263 0.6888
vn -0.0000 -0.2263 0.9741
vn 0.6888 -0.2263 0.6888
vn 0.9741 -0.2263 -0.0000
vn 0.6888 -0.2263 -0.6888
vn -0.0000 -0.2263 -0.9741
vn -0.6888 -0.2263 -0.6888
vn 0.0000 -1.0000 -0.0000
vn -0.9948 0.1021 0.0002
vn -0.7036 0.1021 -0.7033
vn -0.0002 0.1021 -0.9948
vn 0.6713 0.1222 -0.7310
vn 0.9916 0.1222 0.0418
vn 0.7036 0.1021 0.7033
vn 0.0002 0.1021 0.9948
vn -0.0000 0.4222 0.9065
vn -0.6410 0.4222 0.6410
vn -0.7033 0.1021 0.7036
vn -0.9065 0.4222 -0.0000
vn -0.7724 0.6352 -0.0003
vn -0.5463 0.6352 0.5460
vn -0.8127 0.5827 -0.0009
vn -0.0002 0.6352 0.7724
vn -0.5753 0.5827 0.5740
vn -0.6891 0.2299 0.6872
vn -0.9732 0.2299 -0.0013
vn -0.9971 0.0762 -0.0006
vn -0.7055 0.0763 0.7046
vn -0.9922 0.1249 -0.0000
vn -0.7016 0.1249 0.7016
vn -0.0006 0.0762 0.9971
vn -0.0000 0.1249 0.9922
vn 0.7046 0.0763 0.7055
vn 0.7016 0.1249 0.7016
vn 0.9971 0.0762 0.0006
vn 0.9922 0.1249 0.0000
vn 0.7055 0.0763 -0.7046
vn 0.7016 0.1249 -0.7016
vn -0.0009 0.5827 0.8127
vn -0.0013 0.2299 0.9732
vn 0.6872 0.2299 0.6891
vn 0.9732 0.2299 0.0013
vn 0.6891 0.2299 -0.6872
vn 0.0013 0.2299 -0.9732
vn 0.5753 0.5827 -0.5740
vn 0.0009 0.5827 -0.8127
vn 0.0003 0.6352 -0.7724
vn -0.5460 0.6352 -0.5463
vn 0.0000 0.4222 -0.9065
vn -0.6410 0.4222 -0.6410
vn 0.5740 0.5827 0.5753
vn 0.8127 0.5827 0.0009
vn 0.5460 0.6352 0.5463
vn 0.7724 0.6352 0.0002
vn 0.5463 0.6352 -0.5460
vn 0.6410 0.4222 0.6410
vn 0.9065 0.4222 -0.0000
vn 0.6410 0.4222 -0.6410
vn 0.0006 0.0762 -0.9971
vn -0.6872 0.2299 -0.6891
vn -0.5740 0.5827 -0.5753
vn -0.7724 0.6352 -0.0002
vn -0.7046 0.0763 -0.7055
vn 0.0000 0.1249 -0.9922
vn -0.7016 0.1249 -0.7016
usemtl bottle001
s 1
f 171/1/1 201/2/2 170/3/3
f 170/3/3 201/2/2 200/4/4
f 201/2/2 199/5/5 200/4/4
f 200/4/4 199/5/5 198/6/6
f 199/5/5 197/7/7 198/6/6
f 198/6/6 197/7/7 196/8/8
f 197/7/7 195/9/9 196/8/8
f 196/8/8 195/9/9 194/10/10
f 195/9/9 193/11/11 194/10/10
f 194/10/10 193/11/11 192/12/12
f 193/11/11 191/13/13 192/12/12
f 192/12/12 191/13/13 190/14/14
f 191/13/13 189/15/15 190/14/14
f 190/14/14 189/15/15 188/16/16
f 189/15/15 187/17/17 188/16/16
f 188/16/16 187/17/17 186/18/18
f 187/17/17 185/19/19 186/18/18
f 186/18/18 185/19/19 184/20/20
f 185/19/19 183/21/21 184/20/20
f 184/20/20 183/21/21 182/22/22
f 183/21/21 181/23/23 182/22/22
f 182/22/22 181/23/23 180/24/24
f 181/23/23 179/25/25 180/24/24
f 180/24/24 179/25/25 178/26/26
f 179/25/25 177/27/27 178/26/26
f 178/26/26 177/27/27 176/28/28
f 177/27/27 175/29/29 176/28/28
f 176/28/28 175/29/29 174/30/30
f 175/29/29 173/31/31 174/30/30
f 174/30/30 173/31/31 172/32/32
f 173/31/31 171/1/1 172/32/32
f 172/32/32 171/1/1 170/3/3
f 169/33/33 167/34/34 168/35/33
f 167/34/34 166/36/34 168/35/33
f 167/34/34 165/37/35 166/36/34
f 165/37/35 164/38/35 166/36/34
f 165/37/35 163/39/36 164/38/35
f 163/39/36 162/40/36 164/38/35
f 163/39/36 161/41/37 162/40/36
f 161/41/37 160/42/37 162/40/36
f 161/41/37 159/43/38 160/42/37
f 159/43/38 158/44/38 160/42/37
f 159/43/38 157/45/39 158/44/38
f 157/45/39 156/46/39 158/44/38
f 157/45/39 155/47/40 156/46/39
f 155/47/40 152/48/40 156/46/39
f 155/47/40 154/49/33 152/48/40
f 154/49/33 153/50/33 152/48/40
f 151/51/41 149/52/42 150/53/43
f 149/52/42 148/54/42 150/53/43
f 149/52/42 147/55/44 148/54/42
f 147/55/44 146/56/44 148/54/42
f 147/55/44 145/57/45 146/56/44
f 145/57/45 144/58/45 146/56/44
f 145/57/45 143/59/46 144/58/45
f 143/59/46 142/60/46 144/58/45
f 143/59/46 141/61/47 142/60/46
f 141/61/47 140/62/47 142/60/46
f 141/61/47 139/63/48 140/62/47
f 139/63/48 138/64/48 140/62/47
f 139/63/48 137/65/49 138/64/48
f 137/65/49 134/66/49 138/64/48
f 137/65/49 136/67/43 134/66/49
f 136/67/43 135/68/43 134/66/49
f 133/69/50 125/70/51 126/71/52
f 132/72/53 133/69/50 126/71/52
f 131/73/54 132/72/53 126/71/52
f 130/74/55 131/73/54 126/71/52
f 129/75/56 130/74/55 126/71/52
f 128/76/57 129/75/56 126/71/52
f 127/77/58 128/76/57 126/71/52
f 127/77/58 126/71/52 125/70/51
f 98/78/59 124/79/60 123/80/61
f 101/81/62 98/78/59 123/80/61
f 101/81/62 123/80/61 122/82/63
f 103/83/64 101/81/62 122/82/63
f 103/83/64 122/82/63 121/84/65
f 105/85/66 103/83/64 121/84/65
f 105/85/66 121/84/65 120/86/67
f 107/87/68 105/85/66 120/86/67
f 107/87/68 120/86/67 119/88/69
f 109/89/70 107/87/68 119/88/69
f 109/89/70 119/88/69 118/90/71
f 111/91/72 109/89/70 118/90/71
f 111/91/72 118/90/71 117/92/73
f 113/93/74 111/91/72 117/92/73
f 113/93/74 117/92/73 116/94/60
f 115/95/59 113/93/74 116/94/60
f 115/95/59 114/96/75 113/93/74
f 114/96/75 112/97/76 113/93/74
f 113/93/74 112/97/76 111/91/72
f 112/97/76 110/98/77 111/91/72
f 111/91/72 110/98/77 109/89/70
f 110/98/77 108/99/78 109/89/70
f 109/89/70 108/99/78 107/87/68
f 108/99/78 106/100/79 107/87/68
f 107/87/68 106/100/79 105/85/66
f 106/100/79 104/101/80 105/85/66
f 103/83/64 105/85/66 104/101/80
f 102/102/81 103/83/64 104/101/80
f 103/83/64 102/102/81 101/81/62
f 102/102/81 100/103/82 101/81/62
f 101/81/62 100/103/82 98/78/59
f 100/103/82 99/104/75 98/78/59
f 82/105/83 97/106/83 81/107/83
f 97/106/83 96/108/83 81/107/83
f 96/108/83 95/109/83 81/107/83
f 95/109/83 94/110/83 81/107/83
f 94/110/83 93/111/83 81/107/83
f 93/111/83 92/112/83 81/107/83
f 92/112/83 91/113/83 81/107/83
f 91/113/83 90/114/83 81/107/83
f 90/114/83 89/115/83 81/107/83
f 89/115/83 88/116/83 81/107/83
f 88/116/83 87/117/83 81/107/83
f 87/117/83 86/118/83 81/107/83
f 86/118/83 85/119/83 81/107/83
f 85/119/83 84/120/83 81/107/83
f 84/120/83 83/121/83 81/107/83
f 83/121/83 82/105/83 81/107/83
f 22/122/84 79/123/8 80/124/10
f 79/123/8 22/122/84 20/125/85
f 20/125/85 78/126/6 79/123/8
f 20/125/85 77/127/4 78/126/6
f 77/127/4 20/125/85 18/128/86
f 18/128/86 76/129/3 77/127/4
f 18/128/86 75/130/32 76/129/3
f 75/130/32 18/128/86 16/131/87
f 75/130/32 16/131/87 74/132/30
f 74/132/30 16/131/87 73/133/28
f 16/131/87 13/134/88 73/133/28
f 13/134/88 72/135/26 73/133/28
f 13/134/88 71/136/24 72/135/26
f 71/136/24 13/134/88 35/137/89
f 35/137/89 70/138/22 71/136/24
f 35/137/89 59/139/20 70/138/22
f 59/139/20 35/137/89 61/140/90
f 34/141/91 61/140/90 35/137/89
f 34/141/91 58/142/92 61/140/90
f 66/143/84 69/144/10 68/145/12
f 68/145/12 63/146/93 66/143/84
f 63/146/93 68/145/12 67/147/14
f 63/146/93 67/147/14 62/148/16
f 64/149/94 66/143/84 63/146/93
f 65/150/95 57/151/96 56/152/97
f 65/150/95 64/149/94 57/151/96
f 64/149/94 58/142/92 57/151/96
f 58/142/92 64/149/94 63/146/93
f 58/142/92 63/146/93 61/140/90
f 62/148/16 61/140/90 63/146/93
f 61/140/90 62/148/16 60/153/18
f 61/140/90 60/153/18 59/139/20
f 58/142/92 34/141/91 33/154/98
f 57/151/96 58/142/92 33/154/98
f 57/151/96 33/154/98 48/155/99
f 57/151/96 48/155/99 56/152/97
f 56/152/97 48/155/99 47/156/100
f 55/157/101 56/152/97 47/156/100
f 55/157/101 47/156/100 54/158/102
f 47/156/100 46/159/103 54/158/102
f 53/160/104 54/158/102 46/159/103
f 52/161/105 53/160/104 46/159/103
f 52/161/105 46/159/103 45/162/106
f 51/163/107 52/161/105 45/162/106
f 51/163/107 45/162/106 44/164/108
f 50/165/109 51/163/107 44/164/108
f 50/165/109 44/164/108 43/166/110
f 49/167/111 50/165/109 43/166/110
f 49/167/111 43/166/110 27/168/112
f 8/169/113 49/167/111 27/168/112
f 33/154/98 32/170/114 48/155/99
f 48/155/99 32/170/114 40/171/115
f 47/156/100 48/155/99 40/171/115
f 47/156/100 40/171/115 46/159/103
f 40/171/115 45/162/106 46/159/103
f 40/171/115 39/172/116 45/162/106
f 39/172/116 44/164/108 45/162/106
f 39/172/116 42/173/117 44/164/108
f 42/173/117 43/166/110 44/164/108
f 42/173/117 41/174/118 43/166/110
f 41/174/118 27/168/112 43/166/110
f 41/174/118 26/175/119 27/168/112
f 26/175/119 41/174/118 36/176/120
f 25/177/121 26/175/119 36/176/120
f 28/178/122 25/177/121 36/176/120
f 28/178/122 24/179/123 25/177/121
f 28/178/122 19/180/124 24/179/123
f 19/180/124 21/181/125 24/179/123
f 39/172/116 38/182/126 42/173/117
f 38/182/126 37/183/127 42/173/117
f 42/173/117 37/183/127 41/174/118
f 37/183/127 36/176/120 41/174/118
f 40/171/115 32/170/114 39/172/116
f 32/170/114 38/182/126 39/172/116
f 31/184/128 38/182/126 32/170/114
f 31/184/128 30/185/129 38/182/126
f 30/185/129 37/183/127 38/182/126
f 30/185/129 29/186/130 37/183/127
f 29/186/130 36/176/120 37/183/127
f 29/186/130 28/178/122 36/176/120
f 14/187/131 35/137/89 13/134/88
f 14/187/131 34/141/91 35/137/89
f 34/141/91 14/187/131 31/184/128
f 33/154/98 34/141/91 31/184/128
f 33/154/98 31/184/128 32/170/114
f 31/184/128 14/187/131 30/185/129
f 14/187/131 15/188/132 30/185/129
f 30/185/129 15/188/132 29/186/130
f 15/188/132 17/189/133 29/186/130
f 28/178/122 29/186/130 17/189/133
f 19/180/124 28/178/122 17/189/133
f 8/169/113 27/168/112 7/190/134
f 26/175/119 7/190/134 27/168/112
f 26/175/119 9/191/135 7/190/134
f 26/175/119 25/177/121 9/191/135
f 25/177/121 10/192/136 9/191/135
f 24/179/123 10/192/136 25/177/121
f 24/179/123 12/193/137 10/192/136
f 24/179/123 21/181/125 12/193/137
f 21/181/125 23/194/94 12/193/137
f 23/194/94 21/181/125 22/122/84
f 21/181/125 20/125/85 22/122/84
f 21/181/125 19/180/124 20/125/85
f 19/180/124 18/128/86 20/125/85
f 19/180/124 17/189/133 18/128/86
f 17/189/133 16/131/87 18/128/86
f 17/189/133 15/188/132 16/131/87
f 15/188/132 13/134/88 16/131/87
f 15/188/132 14/187/131 13/134/88
f 12/193/137 11/195/97 10/192/136
f 10/192/136 11/195/97 6/196/101
f 9/191/135 10/192/136 6/196/101
f 9/191/135 6/196/101 4/197/138
f 9/191/135 4/197/138 7/190/134
f 5/198/139 7/190/134 4/197/138
f 5/198/139 8/169/113 7/190/134
f 6/196/101 1/199/102 4/197/138
f 2/200/140 4/197/138 1/199/102
f 2/200/140 5/198/139 4/197/138
f 3/201/104 2/200/140 1/199/102
