# Blender 3.3.0
# www.blender.org
mtllib target_engineer.mtl
o target_engineer
v 14.444612 0.000000 0.779024
v -12.730455 0.000000 0.779026
v -12.730455 0.000000 0.000001
v 14.444612 0.000000 -0.000001
v -12.357881 59.427650 0.779028
v -13.951544 57.689106 0.779028
v -14.820811 56.240322 0.779028
v -15.255446 54.791538 0.779028
v -15.110568 52.328602 0.779028
v -6.852502 67.395966 0.779028
v -9.750072 65.657425 0.779028
v 13.140705 64.208641 0.779027
v 12.126556 65.947182 0.779027
v 6.041667 68.699860 0.779028
v 13.430463 49.575928 0.779026
v 14.009976 47.402752 0.779026
v 15.603640 43.635910 0.779026
v -13.806665 48.127144 0.779028
v -16.269596 45.084694 0.779028
v 13.681205 42.042248 0.779026
v 13.681205 40.593460 0.779026
v 7.200696 72.176941 0.779028
v 6.766060 75.074509 0.779028
v 5.172397 77.392563 0.779028
v -4.244693 78.261841 0.779028
v -6.562749 73.335968 0.779028
v -8.446165 70.438400 0.779028
v 6.621181 70.003761 0.779028
v -5.983235 75.798904 0.779028
v 0.246536 79.855499 0.779028
v -2.216398 79.420868 0.779028
v 2.999223 79.131104 0.779028
v 13.430463 51.893982 0.779026
v 14.589490 57.544228 0.779026
v 14.009976 54.212025 0.779026
v 14.154855 61.600826 0.779027
v -17.138866 42.476883 0.779028
v -16.993988 39.434448 0.779028
v -16.269596 36.971516 0.779027
v -11.508618 35.812485 0.779026
v 16.472910 36.392002 0.779025
v -11.702525 29.920473 0.779027
v -12.754347 27.892176 0.779027
v 15.748518 30.162235 0.779025
v 14.299733 27.844179 0.779025
v -12.913469 25.525511 0.779027
v -12.044199 23.545820 0.779027
v -10.324822 21.082893 0.779026
v -8.644926 14.206169 0.779026
v 14.299733 22.338804 0.779025
v 13.430463 17.992456 0.779025
v 12.850948 14.225616 0.779024
v 12.995827 12.197319 0.779024
v -10.039828 13.047142 0.779026
v 16.472910 32.335411 0.779025
v -13.599723 11.598358 0.779027
v 14.444612 7.126579 0.779024
v -15.255446 54.791538 0.000003
v -14.820811 56.240322 0.000003
v -13.951544 57.689106 0.000003
v -6.852502 67.395966 0.000003
v -12.357881 59.427650 0.000004
v -9.750072 65.657425 0.000003
v 5.172397 77.392563 0.000003
v -13.806665 48.127144 0.000003
v -15.110568 52.328602 0.000003
v 6.041667 68.699860 0.000003
v -16.269596 45.084694 0.000003
v 7.200696 72.176941 0.000003
v 6.766060 75.074509 0.000003
v 6.621181 70.003761 0.000003
v 0.246536 79.855499 0.000003
v 2.999223 79.131104 0.000003
v -4.244693 78.261841 0.000003
v -6.562749 73.335968 0.000003
v -8.446165 70.438400 0.000003
v -5.983235 75.798904 0.000003
v -2.216398 79.420868 0.000003
v 12.126556 65.947182 0.000002
v 13.140705 64.208641 0.000002
v 14.154855 61.600826 0.000002
v 14.589490 57.544228 0.000001
v 13.430463 51.893982 0.000001
v 13.430463 49.575928 0.000001
v 14.009976 47.402752 0.000001
v 15.603640 43.635910 0.000001
v -11.508618 35.812485 0.000002
v 13.681205 42.042248 0.000001
v 13.681205 40.593460 0.000001
v 16.472910 36.392002 0.000001
v -11.702525 29.920473 0.000002
v 16.472910 32.335411 0.000000
v 14.299733 27.844179 0.000000
v -12.754347 27.892176 0.000002
v -12.913469 25.525511 0.000002
v -12.044199 23.545820 0.000002
v -10.324822 21.082893 0.000001
v 15.748518 30.162235 0.000000
v 14.009976 54.212025 0.000001
v -17.138866 42.476883 0.000003
v -13.536913 35.667610 0.000002
v -16.993988 39.434448 0.000003
v -16.269596 36.971516 0.000003
v -14.820811 35.522728 0.000002
v -8.644926 14.206169 0.000001
v 14.299733 22.338804 0.000000
v 13.430463 17.992456 0.000000
v 12.850948 14.225616 0.000000
v 12.995827 12.197319 -0.000001
v -10.039828 13.047142 0.000001
v -13.599723 11.598358 0.000002
v 14.444612 7.126579 -0.000001
v -14.820811 35.522728 0.779027
v -13.536913 35.667610 0.779027
vn -0.0000 -1.0000 -0.0000
vn -0.0000 -0.0000 1.0000
vn -0.0000 -0.0000 -1.0000
vn 0.9573 0.2891 -0.0000
vn 1.0000 -0.0000 -0.0000
vn 0.9871 -0.1602 -0.0000
vn 0.9047 -0.4261 -0.0000
vn 0.9612 -0.2757 -0.0000
vn 0.9951 -0.0985 -0.0000
vn 0.9847 -0.1741 -0.0000
vn 0.9992 -0.0407 -0.0000
vn 0.9848 0.1739 -0.0000
vn 0.9903 0.1387 -0.0000
vn -0.9196 0.3929 -0.0000
vn -0.8384 0.5450 -0.0000
vn -0.9119 0.4104 -0.0000
vn -0.6725 0.7401 -0.0000
vn -0.3400 0.9404 -0.0000
vn 0.0413 0.9991 -0.0000
vn 0.4493 0.8934 -0.0000
vn 0.7323 0.6810 -0.0000
vn 0.9303 0.3668 -0.0000
vn 0.9984 -0.0558 -0.0000
vn 0.9430 -0.3329 -0.0000
vn 0.9138 -0.4061 -0.0000
vn 0.9459 0.3244 -0.0000
vn 0.9210 0.3896 -0.0000
vn 0.9915 0.1299 -0.0000
vn 0.9925 -0.1222 -0.0000
vn 0.9783 -0.2071 -0.0000
vn 0.9995 -0.0327 -0.0000
vn 0.9716 0.2366 -0.0000
vn 0.9716 0.2365 -0.0000
vn 0.9007 0.4345 -0.0000
vn 0.6697 0.7427 -0.0000
vn 0.4122 0.9111 -0.0000
vn -0.7561 0.6544 -0.0000
vn -0.5145 0.8575 -0.0000
vn -0.8423 0.5390 -0.0000
vn -0.8014 0.5981 -0.0000
vn -0.9147 0.4040 -0.0000
vn -0.9932 0.1161 -0.0000
vn -0.9839 -0.1789 -0.0000
vn -0.9551 -0.2964 -0.0000
vn -0.8599 -0.5105 -0.0000
vn -0.7071 -0.7071 -0.0000
vn -0.9861 -0.1660 -0.0000
vn -0.9906 0.1367 -0.0000
vn -0.8770 0.4804 -0.0000
vn -0.7772 0.6292 -0.0000
vn -0.8858 -0.4640 -0.0000
vn 0.6382 -0.7699 -0.0000
vn -0.9675 0.2529 -0.0000
vn -0.9995 0.0329 -0.0000
vn -0.9630 0.2694 -0.0000
vn -0.9850 -0.1724 -0.0000
vn -0.8720 -0.4896 -0.0000
vn -0.9112 -0.4119 -0.0000
vn -0.9714 -0.2373 -0.0000
vn -0.5141 0.8578 -0.0000
vn -0.6391 0.7691 -0.0000
vn -0.3770 0.9262 -0.0000
vn -0.9972 -0.0747 -0.0000
vn 0.0917 -0.9958 -0.0000
vn 0.0712 -0.9975 -0.0000
vn 0.1121 -0.9937 -0.0000
vt 0.389617 -0.005997
vt 0.997205 0.000000
vt 0.055772 -0.005997
vt 0.997260 0.001017
vt 0.920670 0.005137
vt 0.982391 0.000929
vt 0.565569 0.005447
vt 0.982391 0.000000
vt 0.060349 0.738193
vt 0.997205 0.744190
vt 0.040771 0.716422
vt 0.997205 0.722419
vt 0.030092 0.698279
vt 0.997205 0.704276
vt 0.024752 0.680136
vt 0.997205 0.686134
vt 0.026532 0.649294
vt 0.997205 0.655291
vt 0.127982 0.837977
vt 0.997205 0.843974
vt 0.092386 0.816206
vt 0.997205 0.822203
vt 0.373599 0.798063
vt 0.997205 0.804060
vt 0.361140 0.819834
vt 0.997205 0.825831
vt 0.286387 0.854305
vt 0.997205 0.860302
vt 0.377158 0.614823
vt 0.997205 0.620821
vt 0.384278 0.587609
vt 0.997205 0.593607
vt 0.403856 0.540439
vt 0.997205 0.546436
vt 0.042551 0.596681
vt 0.997205 0.602678
vt 0.012294 0.558581
vt 0.997205 0.564578
vt 0.380253 0.520492
vt 0.997205 0.526978
vt 0.380241 0.502339
vt 0.997205 0.507343
vt 0.300626 0.897847
vt 0.997205 0.903844
vt 0.295286 0.934132
vt 0.997205 0.940130
vt 0.275708 0.963161
vt 0.997205 0.969158
vt 0.160019 0.974046
vt 0.997205 0.980043
vt 0.131542 0.912361
vt 0.997205 0.918358
vt 0.108404 0.876076
vt 0.997205 0.882073
vt 0.293506 0.870633
vt 0.997205 0.876631
vt 0.138661 0.943204
vt 0.997205 0.949201
vt 0.215194 0.994003
vt 0.997205 1.000000
vt 0.184937 0.988560
vt 0.997205 0.994557
vt 0.249011 0.984932
vt 0.997205 0.990929
vt 0.377158 0.643851
vt 0.997205 0.649849
vt 0.391397 0.714607
vt 0.997205 0.720605
vt 0.384278 0.672879
vt 0.997205 0.678877
vt 0.386057 0.765407
vt 0.997205 0.771404
vt 0.001615 0.525925
vt 0.997205 0.531922
vt 0.003394 0.487825
vt 0.997205 0.493823
vt 0.997205 0.462980
vt 0.012294 0.456983
vt 0.070769 0.442445
vt 0.997383 0.447215
vt 0.414535 0.449726
vt 0.997205 0.455723
vt 0.068555 0.368800
vt 0.997577 0.378034
vt 0.055414 0.343301
vt 0.997333 0.354270
vt 0.405636 0.371713
vt 0.997205 0.377710
vt 0.387837 0.342685
vt 0.997205 0.348682
vt 0.053452 0.313763
vt 1.000336 0.320632
vt 0.064029 0.289043
vt 0.997274 0.304327
vt 0.085352 0.258197
vt 0.996928 0.286781
vt 0.105955 0.172223
vt 1.019317 0.205842
vt 0.387837 0.273743
vt 0.997205 0.279740
vt 0.377158 0.219316
vt 0.997205 0.225313
vt 0.370039 0.172145
vt 0.997205 0.178142
vt 0.371819 0.146745
vt 0.997205 0.152742
vt 0.088859 0.157969
vt 1.001034 0.231335
vt 0.414535 0.398927
vt 0.997205 0.404924
vt 0.044701 0.139027
vt 1.002618 0.148417
vt 0.389617 0.083246
vt 0.997205 0.089243
vt 0.953693 0.683730
vt 0.982391 0.686134
vt 0.948013 0.701665
vt 0.982391 0.704276
vt 0.936653 0.719600
vt 0.982391 0.722419
vt 0.843882 0.839764
vt 0.982391 0.843974
vt 0.915827 0.741122
vt 0.982391 0.744190
vt 0.881748 0.818242
vt 0.982391 0.822203
vt 0.686740 0.963516
vt 0.982391 0.969158
vt 0.934760 0.601229
vt 0.982391 0.602678
vt 0.951799 0.653240
vt 0.982391 0.655291
vt 0.675380 0.855906
vt 0.982391 0.860302
vt 0.966946 0.563566
vt 0.982391 0.564578
vt 0.660233 0.898950
vt 0.982391 0.903844
vt 0.665913 0.934820
vt 0.982391 0.940130
vt 0.667807 0.872047
vt 0.982391 0.876631
vt 0.751111 0.994005
vt 0.982391 1.000000
vt 0.715139 0.985038
vt 0.982391 0.990929
vt 0.809803 0.974277
vt 0.982391 0.980043
vt 0.840096 0.913298
vt 0.982391 0.918358
vt 0.864708 0.877428
vt 0.982391 0.882073
vt 0.832522 0.943787
vt 0.982391 0.949201
vt 0.783297 0.988625
vt 0.982391 0.994557
vt 0.595862 0.821829
vt 0.982391 0.825831
vt 0.582609 0.800308
vt 0.982391 0.804060
vt 0.569356 0.768025
vt 0.982391 0.771404
vt 0.563676 0.717807
vt 0.982391 0.720605
vt 0.578822 0.647860
vt 0.982391 0.649849
vt 0.578822 0.619164
vt 0.982391 0.620821
vt 0.571249 0.592262
vt 0.982391 0.593607
vt 0.550423 0.545631
vt 0.982391 0.546436
vt 0.904598 0.448674
vt 0.982396 0.446849
vt 0.575556 0.525900
vt 0.982379 0.527462
vt 0.575593 0.508019
vt 0.982391 0.507839
vt 0.539063 0.455956
vt 0.982391 0.455723
vt 0.907523 0.375744
vt 0.982446 0.379649
vt 0.539063 0.405738
vt 0.982391 0.404924
vt 0.567463 0.350139
vt 0.982391 0.348682
vt 0.921047 0.350323
vt 0.983488 0.351279
vt 0.922988 0.321423
vt 0.984199 0.324852
vt 0.911761 0.296734
vt 0.982334 0.311024
vt 0.888736 0.265784
vt 0.982456 0.280285
vt 0.548530 0.378835
vt 0.982391 0.377710
vt 0.571249 0.676556
vt 0.982391 0.678877
vt 0.978305 0.531283
vt 0.982391 0.531922
vt 0.931031 0.446795
vt 0.982570 0.445791
vt 0.976412 0.493619
vt 0.982391 0.493823
vt 0.966946 0.463130
vt 0.982391 0.462980
vt 0.948013 0.445195
vt 0.982391 0.444838
vt 0.866631 0.180409
vt 0.980868 0.243724
vt 0.567463 0.281987
vt 0.982391 0.279740
vt 0.578822 0.228182
vt 0.982391 0.225313
vt 0.586395 0.181551
vt 0.982391 0.178142
vt 0.584502 0.156442
vt 0.982391 0.152742
vt 0.886224 0.165694
vt 0.986237 0.216710
vt 0.932290 0.147831
vt 0.982802 0.148466
vt 0.565569 0.093669
vt 0.982391 0.089243
vt 0.030092 0.438841
vt 0.997205 0.444838
vt 0.045840 0.440663
vt 0.997330 0.445823
s 1
usemtl target_engineer
f 1/2/1 2/4/1 3/6/1
f 3/6/1 4/8/1 1/2/1
f 5/9/2 6/11/2 7/13/2
f 7/13/2 8/15/2 9/17/2
f 5/9/2 7/13/2 9/17/2
f 10/19/2 5/9/2 9/17/2
f 10/19/2 11/21/2 5/9/2
f 12/23/2 13/25/2 14/27/2
f 15/29/2 12/23/2 14/27/2
f 10/19/2 15/29/2 14/27/2
f 10/19/2 16/31/2 15/29/2
f 10/19/2 9/17/2 16/31/2
f 9/17/2 17/33/2 16/31/2
f 9/17/2 18/35/2 17/33/2
f 18/35/2 19/37/2 17/33/2
f 19/37/2 20/39/2 17/33/2
f 19/37/2 21/41/2 20/39/2
f 22/43/2 23/45/2 24/47/2
f 14/27/2 22/43/2 24/47/2
f 14/27/2 24/47/2 25/49/2
f 10/19/2 14/27/2 25/49/2
f 26/51/2 10/19/2 25/49/2
f 26/51/2 27/53/2 10/19/2
f 14/27/2 28/55/2 22/43/2
f 26/51/2 25/49/2 29/57/2
f 30/59/2 31/61/2 25/49/2
f 24/47/2 30/59/2 25/49/2
f 24/47/2 32/63/2 30/59/2
f 15/29/2 33/65/2 12/23/2
f 33/65/2 34/67/2 12/23/2
f 33/65/2 35/69/2 34/67/2
f 34/67/2 36/71/2 12/23/2
f 37/73/2 38/75/2 39/78/2
f 19/37/2 37/73/2 39/78/2
f 19/37/2 39/78/2 21/41/2
f 39/78/2 40/79/2 21/41/2
f 40/79/2 41/81/2 21/41/2
f 40/79/2 42/83/2 41/81/2
f 42/83/2 43/85/2 41/81/2
f 43/85/2 44/87/2 41/81/2
f 43/85/2 45/89/2 44/87/2
f 43/85/2 46/91/2 45/89/2
f 46/91/2 47/93/2 45/89/2
f 47/93/2 48/95/2 45/89/2
f 48/95/2 49/97/2 45/89/2
f 49/97/2 50/99/2 45/89/2
f 49/97/2 51/101/2 50/99/2
f 49/97/2 52/103/2 51/101/2
f 49/97/2 53/105/2 52/103/2
f 49/97/2 54/107/2 53/105/2
f 44/87/2 55/109/2 41/81/2
f 54/107/2 56/111/2 53/105/2
f 56/111/2 57/113/2 53/105/2
f 56/111/2 2/3/2 57/113/2
f 2/3/2 1/1/2 57/113/2
f 58/115/3 59/117/3 60/119/3
f 61/121/3 62/123/3 63/125/3
f 61/121/3 64/127/3 62/123/3
f 64/127/3 65/129/3 62/123/3
f 65/129/3 60/119/3 62/123/3
f 65/129/3 58/115/3 60/119/3
f 65/129/3 66/131/3 58/115/3
f 67/133/3 68/135/3 65/129/3
f 64/127/3 67/133/3 65/129/3
f 64/127/3 69/137/3 67/133/3
f 64/127/3 70/139/3 69/137/3
f 69/137/3 71/141/3 67/133/3
f 72/143/3 73/145/3 64/127/3
f 74/147/3 72/143/3 64/127/3
f 61/121/3 74/147/3 64/127/3
f 61/121/3 75/149/3 74/147/3
f 61/121/3 76/151/3 75/149/3
f 75/149/3 77/153/3 74/147/3
f 74/147/3 78/155/3 72/143/3
f 67/133/3 79/157/3 80/159/3
f 80/159/3 81/161/3 82/163/3
f 67/133/3 80/159/3 82/163/3
f 67/133/3 82/163/3 83/165/3
f 67/133/3 83/165/3 68/135/3
f 83/165/3 84/167/3 68/135/3
f 84/167/3 85/169/3 68/135/3
f 85/169/3 86/171/3 68/135/3
f 86/171/3 87/173/3 68/135/3
f 86/171/3 88/175/3 87/173/3
f 88/175/3 89/177/3 87/173/3
f 89/177/3 90/179/3 87/173/3
f 90/179/3 91/181/3 87/173/3
f 90/179/3 92/183/3 91/181/3
f 92/183/3 93/185/3 91/181/3
f 93/185/3 94/187/3 91/181/3
f 93/185/3 95/189/3 94/187/3
f 93/185/3 96/191/3 95/189/3
f 93/185/3 97/193/3 96/191/3
f 92/183/3 98/195/3 93/185/3
f 82/163/3 99/197/3 83/165/3
f 87/173/3 100/199/3 68/135/3
f 87/173/3 101/201/3 100/199/3
f 101/201/3 102/203/3 100/199/3
f 101/201/3 103/205/3 102/203/3
f 101/201/3 104/207/3 103/205/3
f 93/185/3 105/209/3 97/193/3
f 93/185/3 106/211/3 105/209/3
f 106/211/3 107/213/3 105/209/3
f 107/213/3 108/215/3 105/209/3
f 108/215/3 109/217/3 105/209/3
f 109/217/3 110/219/3 105/209/3
f 109/217/3 111/221/3 110/219/3
f 109/217/3 112/223/3 111/221/3
f 112/223/3 3/5/3 111/221/3
f 112/223/3 4/7/3 3/5/3
f 89/178/4 88/176/5 20/40/5
f 20/40/5 21/42/4 89/178/4
f 90/180/4 89/178/4 21/42/4
f 21/42/4 41/82/4 90/180/4
f 92/184/6 90/180/4 41/82/4
f 41/82/4 55/110/6 92/184/6
f 98/196/7 92/184/6 55/110/6
f 55/110/6 44/88/7 98/196/7
f 93/186/8 98/196/7 44/88/7
f 44/88/7 45/90/8 93/186/8
f 106/212/9 93/186/8 45/90/8
f 45/90/8 50/100/9 106/212/9
f 107/214/10 106/212/9 50/100/9
f 50/100/9 51/102/10 107/214/10
f 108/216/11 107/214/10 51/102/10
f 51/102/10 52/104/11 108/216/11
f 109/218/12 108/216/11 52/104/11
f 52/104/11 53/106/12 109/218/12
f 112/224/13 109/218/12 53/106/12
f 53/106/12 57/114/13 112/224/13
f 4/8/5 112/224/13 57/114/13
f 57/114/13 1/2/5 4/8/5
f 75/150/14 76/152/15 27/54/15
f 27/54/15 26/52/14 75/150/14
f 77/154/16 75/150/14 26/52/14
f 26/52/14 29/58/16 77/154/16
f 74/148/17 77/154/16 29/58/16
f 29/58/16 25/50/17 74/148/17
f 78/156/18 74/148/17 25/50/17
f 25/50/17 31/62/18 78/156/18
f 72/144/19 78/156/18 31/62/18
f 31/62/18 30/60/19 72/144/19
f 73/146/20 72/144/19 30/60/19
f 30/60/19 32/64/20 73/146/20
f 64/128/21 73/146/20 32/64/20
f 32/64/20 24/48/21 64/128/21
f 70/140/22 64/128/21 24/48/21
f 24/48/21 23/46/22 70/140/22
f 69/138/23 70/140/22 23/46/22
f 23/46/22 22/44/23 69/138/23
f 71/142/24 69/138/23 22/44/23
f 22/44/23 28/56/24 71/142/24
f 67/134/25 71/142/24 28/56/24
f 28/56/24 14/28/25 67/134/25
f 16/32/26 17/34/27 86/172/27
f 86/172/27 85/170/26 16/32/26
f 15/30/28 16/32/26 85/170/26
f 85/170/26 84/168/28 15/30/28
f 33/66/29 15/30/28 84/168/28
f 84/168/28 83/166/29 33/66/29
f 35/70/30 33/66/29 83/166/29
f 83/166/29 99/198/30 35/70/30
f 34/68/31 35/70/30 99/198/30
f 99/198/30 82/164/31 34/68/31
f 36/72/32 34/68/31 82/164/31
f 82/164/31 81/162/33 36/72/32
f 12/24/34 36/72/32 81/162/33
f 81/162/33 80/160/34 12/24/34
f 13/26/35 12/24/34 80/160/34
f 80/160/34 79/158/35 13/26/35
f 14/28/36 13/26/35 79/158/35
f 79/158/35 67/134/36 14/28/36
f 11/22/37 10/20/38 61/122/38
f 61/122/38 63/126/37 11/22/37
f 5/10/39 11/22/37 63/126/37
f 63/126/37 62/124/39 5/10/39
f 6/12/40 5/10/39 62/124/39
f 62/124/39 60/120/40 6/12/40
f 7/14/41 6/12/40 60/120/40
f 60/120/40 59/118/41 7/14/41
f 8/16/42 7/14/41 59/118/41
f 59/118/41 58/116/42 8/16/42
f 9/18/43 8/16/42 58/116/42
f 58/116/42 66/132/43 9/18/43
f 18/36/44 9/18/43 66/132/43
f 66/132/43 65/130/44 18/36/44
f 103/206/45 104/208/46 113/226/46
f 113/226/46 39/77/45 103/206/45
f 102/204/47 103/206/45 39/77/45
f 39/77/45 38/76/47 102/204/47
f 100/200/48 102/204/47 38/76/47
f 38/76/47 37/74/48 100/200/48
f 68/136/49 100/200/48 37/74/48
f 37/74/48 19/38/49 68/136/49
f 65/130/50 68/136/49 19/38/49
f 19/38/49 18/36/50 65/130/50
f 10/20/51 27/54/51 76/152/51
f 76/152/51 61/122/51 10/20/51
f 17/34/52 20/40/52 88/176/52
f 88/176/52 86/172/52 17/34/52
f 42/84/53 40/80/54 87/174/54
f 87/174/54 91/182/53 42/84/53
f 43/86/55 42/84/53 91/182/53
f 91/182/53 94/188/55 43/86/55
f 46/92/56 43/86/55 94/188/55
f 94/188/55 95/190/56 46/92/56
f 47/94/57 46/92/56 95/190/56
f 95/190/56 96/192/57 47/94/57
f 48/96/58 47/94/57 96/192/57
f 96/192/57 97/194/58 48/96/58
f 49/98/59 48/96/58 97/194/58
f 97/194/58 105/210/59 49/98/59
f 54/108/60 49/98/61 105/210/61
f 105/210/61 110/220/60 54/108/60
f 56/112/62 54/108/60 110/220/60
f 110/220/60 111/222/62 56/112/62
f 2/4/63 56/112/63 111/222/63
f 111/222/63 3/6/63 2/4/63
f 39/78/2 114/227/2 40/79/2
f 39/78/2 113/225/2 114/227/2
f 101/202/64 87/174/65 40/80/65
f 40/80/65 114/228/64 101/202/64
f 104/208/66 101/202/64 114/228/64
f 114/228/64 113/226/66 104/208/66
