<?xml version="1.0" encoding="utf-8"?>
<COLLADA xmlns="http://www.collada.org/2005/11/COLLADASchema" version="1.4.1" xmlns:xsi="http://www.w3.org/2001/XMLSchema-instance">
  <asset>
    <contributor>
      <author>Blender User</author>
      <authoring_tool>Blender 2.90.1 commit date:2020-09-23, commit time:06:43, hash:3e85bb34d0d7</authoring_tool>
    </contributor>
    <created>2023-10-29T01:46:06</created>
    <modified>2023-10-29T01:46:06</modified>
    <unit name="meter" meter="1"/>
    <up_axis>Z_UP</up_axis>
  </asset>
  <library_effects>
    <effect id="emitter001-effect">
      <profile_COMMON>
        <newparam sid="emitter001_png-surface">
          <surface type="2D">
            <init_from>emitter001_png</init_from>
          </surface>
        </newparam>
        <newparam sid="emitter001_png-sampler">
          <sampler2D>
            <source>emitter001_png-surface</source>
          </sampler2D>
        </newparam>
        <technique sid="common">
          <lambert>
            <emission>
              <color sid="emission">0 0 0 1</color>
            </emission>
            <diffuse>
              <texture texture="emitter001_png-sampler" texcoord="UVMap"/>
            </diffuse>
            <index_of_refraction>
              <float sid="ior">1.45</float>
            </index_of_refraction>
          </lambert>
        </technique>
      </profile_COMMON>
    </effect>
  </library_effects>
  <library_images>
    <image id="emitter001_png" name="emitter001_png">
      <init_from>emitter001.png</init_from>
    </image>
  </library_images>
  <library_materials>
    <material id="emitter001-material" name="emitter001">
      <instance_effect url="#emitter001-effect"/>
    </material>
  </library_materials>
  <library_geometries>
    <geometry id="emitter-mesh" name="emitter">
      <mesh>
        <source id="emitter-mesh-positions">
          <float_array id="emitter-mesh-positions-array" count="627">4.422269 8.2002 2.831557 4.422269 16.081 3.607378 4.422269 8.2002 6.091797 4.422269 17.18696 2.831557 4.422269 17.18696 -0.800621 4.422269 7.749444 -0.800621 1.28853 -1.28781 8.033655 1.235066 -2.980489 7.625533 2.281807 -2.281085 7.625533 1.733235 -4.183169 6.856569 3.202292 -3.201577 6.856569 3.68e-4 -4.527858 6.856569 3.68e-4 -3.226086 7.625533 2.149424 -5.187943 5.818329 3.971315 -3.970598 5.818329 5.188654 -2.148713 5.818329 4.183884 -1.732521 6.856569 2.981202 -1.234355 7.625533 1.683427 -0.696798 8.033655 3.68e-4 -5.615418 5.818328 -2.148687 -5.187944 5.818329 0.697511 -1.682712 8.033655 3.68e-4 3.48e-4 8.244922 1.822101 3.48e-4 8.033655 3.226806 3.48e-4 7.625533 4.52858 3.48e-4 6.856569 5.616138 3.48e-4 5.818329 5.188654 2.149409 5.818329 4.183884 1.733218 6.856569 3.202291 3.202273 6.856569 2.281807 2.281781 7.625533 1.733234 4.183866 6.856569 1.235065 2.981185 7.625533 3.68e-4 4.528553 6.856569 3.68e-4 3.226782 7.625533 3.68e-4 1.822079 8.033655 1.683427 0.697494 8.033655 2.981202 1.235051 7.625533 1.28853 1.288507 8.033655 0.697511 1.683408 8.033655 3.971314 3.971295 5.818329 2.149423 5.18864 5.818329 3.68e-4 5.616115 5.818329 -2.148688 5.188639 5.818329 -1.234329 2.981184 7.625533 -0.696775 1.683408 8.033655 -1.287793 1.288506 8.033655 -1.68269 0.697494 8.033655 -2.980465 1.235051 7.625533 -2.281071 2.281781 7.625533 -4.183147 1.733217 6.856569 -3.201555 3.202273 6.856569 -5.187918 2.149409 5.818329 -3.970579 3.971295 5.818329 -1.732498 4.183865 6.856569 -1.821365 3.48e-4 8.033655 -3.226068 3.48e-4 7.625533 -4.527843 3.48e-4 6.856569 -5.6154 3.48e-4 5.818329 -5.187918 -2.148713 5.818329 -4.183147 -1.732522 6.856569 -2.980465 -1.234355 7.625533 -1.68269 -0.696798 8.033655 -1.287793 -1.28781 8.033655 -2.281071 -2.281085 7.625533 -3.201555 -3.201577 6.856569 -3.970579 -3.970599 5.818329 -1.732498 -4.183169 6.856569 -1.234329 -2.980489 7.625533 3.68e-4 -1.821383 8.033655 -0.696775 -1.682712 8.033655 14.25749 -0.008572995 5.27751 13.16881 5.464555 5.277511 12.90554 5.345846 5.543125 -14.43103 3.47e-4 4.953461 -13.33251 -5.522312 4.953461 -13.17491 -5.447374 5.27751 -10.08725 -10.07465 5.27751 -10.20417 -10.20419 4.953461 -5.463842 -13.1681 5.27751 -5.522289 -13.33253 4.953461 -0.008555948 -14.25677 5.27751 3.69e-4 -14.43105 4.953461 5.448094 -13.17493 5.27751 5.523026 -13.33253 4.953461 10.07537 -10.08727 5.27751 10.20491 -10.20419 4.953461 13.16881 -5.463858 5.27751 13.33325 -5.52231 4.953461 14.43177 3.49e-4 4.953461 13.33325 5.523007 4.953462 10.20491 10.20489 4.953462 -12.90481 -5.34515 5.543125 -9.87682 -9.876842 5.543124 -5.345123 -12.90482 5.543124 3.69e-4 -13.96811 5.543124 5.34586 -12.90482 5.543124 9.877557 -9.876842 5.543124 12.90554 -5.345149 5.543125 13.96883 3.49e-4 5.543125 6.590145 2.729922 8.133476 7.133083 3.48e-4 8.133476 6.590145 -2.729225 8.133476 5.043959 -5.043246 8.133476 2.729939 -6.589426 8.133476 3.68e-4 -7.132372 8.133476 -2.729202 -6.589426 8.133476 -5.043222 -5.043247 8.133476 -6.589409 -2.729226 8.133476 -13.96809 3.47e-4 5.543125 -14.25675 -0.008574962 5.27751 -13.17491 5.448068 5.27751 -12.90481 5.345844 5.543125 -10.08725 10.07534 5.277511 9.877557 9.877539 5.543125 10.07537 10.08796 5.277511 5.523025 13.33323 4.953462 5.448093 13.17562 5.277511 3.67e-4 14.43175 4.953462 -0.008556962 14.25747 5.277511 -5.52229 13.33323 4.953462 -5.463843 13.1688 5.277511 -10.20417 10.20489 4.953462 -13.33251 5.523006 4.953462 -9.87682 9.877538 5.543125 -5.345124 12.90552 5.543125 3.68e-4 13.96881 5.543125 5.345859 12.90552 5.543125 2.729938 6.590122 8.133476 5.043959 5.043943 8.133476 -7.132352 3.48e-4 8.133476 -6.589409 2.729921 8.133476 -5.043222 5.043943 8.133476 -2.729203 6.590121 8.133476 3.68e-4 7.133068 8.133476 -4.42227 16.081 3.607378 -4.42227 8.2002 6.091797 -4.422271 17.18696 2.831557 -4.422271 17.18696 -0.800621 -5.52229 13.33323 -0.800621 3.67e-4 14.43175 -0.800621 -10.20417 10.20489 -0.800621 -13.33251 5.523006 -0.800621 -14.43103 3.48e-4 -0.800621 -13.33251 -5.522311 -0.800622 -10.20417 -10.20419 -0.800622 -5.522289 -13.33253 -0.800622 3.69e-4 -14.43105 -0.800622 -4.42227 8.2002 2.831557 -4.42227 7.749444 -0.800621 5.523026 -13.33253 -0.800622 10.20491 -10.20419 -0.800622 13.33325 -5.52231 -0.800622 14.43177 3.49e-4 -0.800621 13.33325 5.523007 -0.800621 10.20491 10.20489 -0.800621 5.523025 13.33323 -0.800621 -8.200203 4.422274 2.831557 -16.081 4.422274 3.607377 -8.200203 4.422274 6.091796 -17.18697 4.422274 2.831557 -17.18697 4.422274 -0.800621 -7.749443 4.422274 -0.800621 -16.081 -4.422276 3.607377 -8.200203 -4.422275 2.831556 -8.200203 -4.422275 6.091796 -17.18697 -4.422276 2.831556 -17.18697 -4.422276 -0.800622 -7.749443 -4.422275 -0.800622 8.200203 4.422275 2.831557 17.18696 4.422276 -0.800621 7.749443 4.422275 -0.800621 17.18696 4.422275 2.831557 16.081 4.422275 3.607377 8.200203 4.422275 6.091796 8.200203 -4.422275 2.831556 16.081 -4.422274 3.607377 8.200203 -4.422275 6.091796 17.18696 -4.422274 2.831556 17.18696 -4.422274 -0.800622 7.749443 -4.422274 -0.800622 -4.422269 -8.2002 2.831556 -4.422269 -16.081 3.607376 -4.422269 -8.2002 6.091796 -4.422269 -17.18696 2.831556 -4.422269 -17.18696 -0.800622 -4.422269 -7.749445 -0.800622 4.42227 -16.081 3.607376 4.42227 -8.2002 6.091796 4.422271 -17.18696 2.831556 4.422271 -17.18696 -0.800622 4.42227 -8.2002 2.831556 4.42227 -7.749445 -0.800622 6.236992 -2.582946 8.010282 6.750835 3.48e-4 8.010282 6.236992 2.583642 8.010282 4.773667 4.773654 8.010282 2.583659 6.236972 8.010282 3.68e-4 6.750822 8.010282 -2.582922 6.236971 8.010282 -4.772932 4.773654 8.010282 -6.236256 2.583642 8.010282 -6.750106 3.48e-4 8.010282 -6.236256 -2.582947 8.010282 -4.772932 -4.772957 8.010282 -2.582922 -6.236276 8.010282 3.68e-4 -6.750125 8.010282 2.583659 -6.236276 8.010282 4.773667 -4.772957 8.010282</float_array>
          <technique_common>
            <accessor source="#emitter-mesh-positions-array" count="209" stride="3">
              <param name="X" type="float"/>
              <param name="Y" type="float"/>
              <param name="Z" type="float"/>
            </accessor>
          </technique_common>
        </source>
        <source id="emitter-mesh-normals">
          <float_array id="emitter-mesh-normals-array" count="831">1 0 0 0.1398438 -0.1398445 0.9802485 0.1219282 -0.2943742 0.9478805 0.2253004 -0.2253003 0.9478816 0.225532 -0.5444777 0.8078858 0.4167315 -0.4167315 0.8078799 1.87568e-6 -0.5893417 0.8078839 5.5707e-5 -0.3006755 0.9537266 0.2693326 -0.6502249 0.7103996 0.497646 -0.4976468 0.7104197 0.6502254 -0.2693325 0.7103992 0.5444834 -0.2255297 0.8078827 0.2943478 -0.1219183 0.9478899 0.1827241 -0.07568782 0.9802466 -7.73463e-7 -0.7037791 0.7104189 -0.2693324 -0.6502248 0.7103998 0.07568556 -0.1827247 0.9802466 0 0 1 0.1977695 0 0.9802486 0.3006458 0 0.953736 0.5893471 0 0.8078801 0.7037797 -9.55071e-7 0.7104184 0.6502258 0.2693325 0.7103989 0.5444831 0.2255313 0.8078823 0.4167327 0.4167302 0.8078798 0.2253037 0.2252972 0.9478816 0.2255319 0.5444776 0.8078858 0.1219282 0.2943742 0.9478805 1.79745e-6 0.5893412 0.8078842 -5.7742e-6 0.3006756 0.9537266 -7.38539e-7 0.1977694 0.9802486 0.1826344 0.0756492 0.9802663 0.2943445 0.1219259 0.9478901 0.1398447 0.1398435 0.9802486 0.07568544 0.1827248 0.9802466 0.4976459 0.4976467 0.7104198 0.2693325 0.6502246 0.7103999 8.30507e-7 0.7037782 0.7104198 -0.2693325 0.6502244 0.7104001 -0.1219363 0.2943708 0.9478805 -0.07568657 0.1827242 0.9802467 -0.1398441 0.139844 0.9802486 -0.1827244 0.07568675 0.9802467 -0.2943461 0.1219217 0.94789 -0.225297 0.2253038 0.9478815 -0.5444819 0.2255329 0.8078826 -0.4167326 0.4167301 0.8078799 -0.6502254 0.2693322 0.7103993 -0.4976457 0.4976464 0.7104202 -0.2255273 0.5444795 0.8078858 -0.1977696 7.93953e-7 0.9802486 -0.3006458 0 0.9537358 -0.589347 0 0.8078801 -0.7037799 -9.42033e-7 0.7104181 -0.6502255 -0.2693322 0.7103992 -0.5444825 -0.2255311 0.8078827 -0.2943446 -0.1219257 0.94789 -0.1827249 -0.07568573 0.9802466 -0.1398442 -0.139844 0.9802486 -0.2253004 -0.2253003 0.9478817 -0.4167313 -0.4167315 0.80788 -0.4976458 -0.4976466 0.71042 -0.2255317 -0.5444777 0.8078859 -0.1219407 -0.2943691 0.9478805 -7.52974e-7 -0.1977693 0.9802487 -0.07568699 -0.1827241 0.9802466 0.7893435 -1.0296e-4 0.613952 0.7292211 0.3021631 0.6139496 0.4855302 0.2010518 0.8507871 -0.9698352 -1.8164e-4 0.2437612 -0.8960781 -0.3709679 0.2437764 -0.7296225 -0.3021142 0.6134967 -0.5584939 -0.5581339 0.613654 -0.6857002 -0.6854994 0.2447566 -0.3023728 -0.7293506 0.6136925 -0.3711759 -0.8957254 0.2447542 -2.44876e-4 -0.7895458 0.6136917 -1.41709e-4 -0.9695843 0.2447578 0.3019199 -0.7295379 0.6136928 0.3709126 -0.8958344 0.2447543 0.5581214 -0.5584669 0.61369 0.6855014 -0.6857007 0.2447499 0.7293503 -0.3023727 0.6136929 0.895739 -0.3711729 0.2447088 0.9693309 -1.66163e-4 0.2457595 0.8954543 0.371106 0.2458494 0.6855006 0.6857014 0.2447502 -0.4843069 -0.2006692 0.8515743 -0.3712111 -0.3710569 0.851187 -0.2009581 -0.4848739 0.8511835 -1.08555e-4 -0.5248715 0.8511816 0.2007542 -0.484953 0.8511865 0.3710591 -0.3712139 0.8511848 0.4848788 -0.200962 0.8511796 0.5255317 5.83793e-5 0.8507741 0.3281036 0.1359059 0.9348142 0.3553217 0 0.9347441 0.3278908 -0.1358175 0.9349018 0.2511206 -0.2511199 0.9348141 0.1358886 -0.3280614 0.9348315 0 -0.355276 0.9347615 -0.1359062 -0.3281041 0.934814 -0.2511209 -0.25112 0.934814 -0.3279762 -0.1358529 0.9348667 -0.5242284 5.87781e-5 0.8515778 -0.7897318 -1.08033e-4 0.6134523 -0.7295389 0.3019204 0.6136915 -0.4849597 0.2007609 0.851181 -0.5584646 0.5581186 0.6136946 0.3710562 0.3712104 0.8511876 0.5581218 0.5584677 0.613689 0.370913 0.895834 0.2447552 0.3019185 0.7295387 0.6136926 -1.4371e-4 0.9695841 0.2447588 -2.52935e-4 0.7895758 0.6136533 -0.371175 0.8957257 0.2447542 -0.3023737 0.7293514 0.613691 -0.6857005 0.6854988 0.2447577 -0.8958334 0.3709115 0.2447596 -0.3712119 0.3710567 0.8511866 -0.2009583 0.4848742 0.8511831 -1.09367e-4 0.524868 0.8511838 0.2007579 0.4849554 0.8511842 0.1358883 0.3280616 0.9348315 0.251088 0.2510873 0.9348316 -0.3552299 0 0.9347791 -0.3279761 0.1358529 0.9348667 -0.251088 0.2510873 0.9348316 -0.1358526 0.3279764 0.9348666 1.8155e-7 0.355322 0.934744 0 0.3006632 0.9537304 -1.06807e-5 0.4426494 0.8966948 0 0.3006632 0.9537304 0 0.4426532 0.8966929 0 0.4426485 0.8966953 0 0.8872088 0.4613683 0 0.8872089 0.4613681 0 1 0 -0.3826835 0.9238796 0 0 1 0 -0.7071068 0.7071068 1.20043e-7 -0.9238798 0.3826832 0 -1 0 0 -0.9238798 -0.3826831 0 -0.7071067 -0.7071069 0 -0.3826833 -0.9238797 0 0 -1 0 -1 0 9.2455e-7 -1 0 0 -1 0 0 -1 -1.22449e-7 3.02136e-7 -1 0 0 -1 0 0 0.3826836 -0.9238795 0 0.7071065 -0.7071071 0 0.9238796 -0.3826836 0 1 0 0 0.9238798 0.3826832 0 0.7071066 0.707107 2.9928e-7 0.3826836 0.9238796 1.21697e-7 0 1 0 0 1 -7.03901e-7 0 1 -2.30029e-7 0 1 0 0 -1 0 0 -1 0 1.21012e-7 -1 0 0 -1 0 0 -1 0 0 -1 -1.59972e-7 0 1 0 0 1 1.7658e-7 0 1 0 0 1 3.59913e-7 0 1 5.86585e-7 -0.3006632 0 0.9537305 -0.4426494 -1.07711e-5 0.8966948 -0.3006632 0 0.9537305 -0.442653 0 0.8966931 -0.4426487 0 0.8966952 -0.8872087 0 0.4613685 -0.8872089 -1.97569e-7 0.461368 -1 0 0 -1 -2.37491e-7 0 0 -1 0 0 -1 8.21218e-7 1.21012e-7 -1 0 0 -1 2.68369e-7 0 -1 0 0 -1 -4.45139e-7 0.3006634 0 0.9537304 0.4426495 1.07535e-5 0.8966948 0.3006633 0 0.9537304 0.4426544 0 0.8966923 0.4426499 0 0.8966946 0.8872094 0 0.4613671 0.8872094 0 0.4613671 1 0 0 1 -2.37491e-7 0 -1 0 0 0 -0.3006633 0.9537304 1.06807e-5 -0.4426494 0.8966948 0 -0.442653 0.896693 0 -0.4426482 0.8966954 0 -0.8872087 0.4613686 0 -0.8872087 0.4613683 0 -1 0 1 0 0 1 0 0 1 0 0 1 0 3.02136e-7 1 0 9.24551e-7 1 0 0 -0.2943688 0.1219315 0.9478817 -0.2252907 0.2252897 0.9478864 -0.2943476 0.1219223 0.9478895 -0.3005907 -3.44007e-7 0.9537533 -0.3006066 -3.44357e-7 0.9537484 -0.2943678 -0.1219313 0.9478821 -0.2943874 -0.1219393 0.947875 -0.2252904 -0.2252897 0.9478865 -0.2252854 -0.2252857 0.9478887 -0.1219359 -0.2943785 0.9478782 -0.1219401 -0.2943884 0.9478745 0 -0.3005849 0.9537551 0 -0.3006259 0.9537422 0.121941 -0.294391 0.9478736 0.121926 -0.2943564 0.9478864 0.2252865 -0.2252863 0.9478883 0.2252913 -0.2252907 0.9478861 0.2943508 -0.1219245 0.9478882 0.2943569 -0.1219267 0.9478861 0.3005846 -1.91969e-7 0.9537551 0.3005812 -2.18861e-7 0.9537562 0.2943686 0.121931 0.9478819 0.2943878 0.1219396 0.9478749 0.2252905 0.2252901 0.9478864 0.225286 0.2252857 0.9478886 0.1219273 0.2943572 0.9478859 0.1219246 0.2943514 0.9478881 1.83354e-7 0.3005811 0.9537563 0 0.3005843 0.9537553 -0.1219359 0.2943779 0.9478784 -0.121923 0.294347 0.9478896 -0.2252863 0.2252849 0.9478886 0.3394574 0.8195225 0.4616836 0.3394477 0.8194988 0.4617325 0 0.8872435 0.4613016 0.627304 0.6273041 0.4614967 0.6272774 0.6272776 0.461569 0.8195163 0.339455 0.4616963 0.8195171 0.3394553 0.4616947 0.8872277 0 0.461332 0.8872244 0 0.4613384 0.8195162 -0.339455 0.4616964 0.8195171 -0.3394553 0.4616945 0.6272773 -0.6272776 0.4615691 0.6272749 -0.6272752 0.4615756 0.3394491 -0.8195019 0.4617262 0.3394554 -0.8195172 0.4616945 0 -0.8872471 0.4612946 0 -0.8872644 0.4612612 -0.3394576 -0.8195223 0.4616836 -0.3394477 -0.819499 0.4617325 -0.6272598 -0.6272599 0.4616169 -0.6272758 -0.6272759 0.4615734 -0.8195391 -0.3394645 0.4616488 -0.8194978 -0.3394474 0.4617346 -0.8872488 0 0.4612913 -0.8872463 0 0.461296 -0.8194979 0.3394474 0.4617347 -0.8195014 0.3394488 0.4617272 -0.6272745 0.6272745 0.4615773 -0.6272615 0.6272615 0.4616125 -0.3394497 0.8195036 0.4617228 -0.3394557 0.8195177 0.4616934 0 0.8872244 0.4613384</float_array>
          <technique_common>
            <accessor source="#emitter-mesh-normals-array" count="277" stride="3">
              <param name="X" type="float"/>
              <param name="Y" type="float"/>
              <param name="Z" type="float"/>
            </accessor>
          </technique_common>
        </source>
        <source id="emitter-mesh-map-0">
          <float_array id="emitter-mesh-map-0-array" count="2160">0.676187 0.516026 0.620877 0.619198 0.620877 0.4945 0.676187 0.516026 0.628124 0.639518 0.620877 0.619198 0.676187 0.516026 0.689743 0.6635 0.628124 0.639518 0.676187 0.516026 0.740217 0.533814 0.689743 0.6635 0.887368 0.136856 0.889059 0.111441 0.90345 0.121297 0.897753 0.09113198 0.90345 0.121297 0.889059 0.111441 0.897753 0.09113198 0.919344 0.105782 0.90345 0.121297 0.872309 0.085819 0.889059 0.111441 0.872018 0.10782 0.872309 0.085819 0.897753 0.09113198 0.889059 0.111441 0.908206 0.06645196 0.897753 0.09113198 0.872309 0.085819 0.919344 0.105782 0.897753 0.09113198 0.908206 0.06645196 0.919344 0.105782 0.908206 0.06645196 0.938602 0.08681595 0.959217 0.117669 0.919344 0.105782 0.938602 0.08681595 0.959217 0.117669 0.933726 0.127741 0.919344 0.105782 0.90345 0.121297 0.919344 0.105782 0.933726 0.127741 0.90345 0.121297 0.933726 0.127741 0.912958 0.135948 0.912958 0.135948 0.887368 0.136856 0.90345 0.121297 0.912958 0.135948 0.892121 0.144181 0.887368 0.136856 0.908206 0.06645196 0.872309 0.085819 0.872613 0.05915296 0.872309 0.085819 0.837045 0.065764 0.872613 0.05915296 0.887368 0.136856 0.880172 0.131928 0.889059 0.111441 0.880172 0.131928 0.887368 0.136856 0.871285 0.152415 0.892121 0.144181 0.871285 0.152415 0.887368 0.136856 0.892121 0.144181 0.893659 0.152777 0.871285 0.152415 0.893659 0.152777 0.892121 0.144181 0.912958 0.135948 0.893659 0.152777 0.912958 0.135948 0.916033 0.15314 0.933726 0.127741 0.916033 0.15314 0.912958 0.135948 0.933726 0.127741 0.938239 0.1536 0.916033 0.15314 0.938239 0.1536 0.933726 0.127741 0.959217 0.117669 0.938239 0.1536 0.959217 0.117669 0.96526 0.15428 0.956994 0.189921 0.938239 0.1536 0.96526 0.15428 0.956994 0.189921 0.932495 0.1790519 0.938239 0.1536 0.917555 0.200323 0.932495 0.1790519 0.956994 0.189921 0.932495 0.1790519 0.917555 0.200323 0.902303 0.184463 0.902303 0.184463 0.917555 0.200323 0.895744 0.214313 0.902303 0.184463 0.895744 0.214313 0.887669 0.1938779 0.887669 0.1938779 0.895744 0.214313 0.870261 0.219011 0.887669 0.1938779 0.870261 0.219011 0.870552 0.197009 0.870919 0.174712 0.887669 0.1938779 0.870552 0.197009 0.893659 0.152777 0.891776 0.161293 0.871285 0.152415 0.916033 0.15314 0.938239 0.1536 0.932495 0.1790519 0.916033 0.15314 0.932495 0.1790519 0.912266 0.170171 0.932495 0.1790519 0.902303 0.184463 0.912266 0.170171 0.886794 0.168439 0.912266 0.170171 0.902303 0.184463 0.887669 0.1938779 0.886794 0.168439 0.902303 0.184463 0.887669 0.1938779 0.879477 0.173146 0.886794 0.168439 0.870919 0.174712 0.879477 0.173146 0.887669 0.1938779 0.879477 0.173146 0.870919 0.174712 0.871285 0.152415 0.886794 0.168439 0.879477 0.173146 0.871285 0.152415 0.891776 0.161293 0.886794 0.168439 0.871285 0.152415 0.886794 0.168439 0.891776 0.161293 0.912266 0.170171 0.912266 0.170171 0.891776 0.161293 0.893659 0.152777 0.912266 0.170171 0.893659 0.152777 0.916033 0.15314 0.917555 0.200323 0.956994 0.189921 0.936004 0.219578 0.905525 0.239066 0.917555 0.200323 0.936004 0.219578 0.905525 0.239066 0.895744 0.214313 0.917555 0.200323 0.870261 0.219011 0.895744 0.214313 0.905525 0.239066 0.870261 0.219011 0.905525 0.239066 0.869958 0.245676 0.834365 0.238377 0.870261 0.219011 0.869958 0.245676 0.870261 0.219011 0.853511 0.193388 0.870552 0.197009 0.853511 0.193388 0.870919 0.174712 0.870552 0.197009 0.853511 0.193388 0.862398 0.172901 0.870919 0.174712 0.870919 0.174712 0.862398 0.172901 0.871285 0.152415 0.862398 0.172901 0.855203 0.167973 0.871285 0.152415 0.855203 0.167973 0.850449 0.160648 0.871285 0.152415 0.829613 0.1688809 0.850449 0.160648 0.855203 0.167973 0.829613 0.1688809 0.855203 0.167973 0.83912 0.1835319 0.83912 0.1835319 0.808844 0.177088 0.829613 0.1688809 0.83912 0.1835319 0.823227 0.199047 0.808844 0.177088 0.783353 0.18716 0.808844 0.177088 0.823227 0.199047 0.783353 0.18716 0.823227 0.199047 0.803968 0.218013 0.823227 0.199047 0.834365 0.238377 0.803968 0.218013 0.823227 0.199047 0.844817 0.213697 0.834365 0.238377 0.834365 0.238377 0.844817 0.213697 0.870261 0.219011 0.870261 0.219011 0.844817 0.213697 0.853511 0.193388 0.844817 0.213697 0.83912 0.1835319 0.853511 0.193388 0.855203 0.167973 0.853511 0.193388 0.83912 0.1835319 0.855203 0.167973 0.862398 0.172901 0.853511 0.193388 0.844817 0.213697 0.823227 0.199047 0.83912 0.1835319 0.848911 0.152052 0.829613 0.1688809 0.826538 0.1516889 0.808844 0.177088 0.826538 0.1516889 0.829613 0.1688809 0.808844 0.177088 0.804332 0.151229 0.826538 0.1516889 0.804332 0.151229 0.808844 0.177088 0.783353 0.18716 0.804332 0.151229 0.783353 0.18716 0.77731 0.1505489 0.785576 0.114908 0.804332 0.151229 0.77731 0.1505489 0.785576 0.114908 0.810076 0.125777 0.804332 0.151229 0.826538 0.1516889 0.804332 0.151229 0.810076 0.125777 0.826538 0.1516889 0.810076 0.125777 0.830304 0.134658 0.830304 0.134658 0.848911 0.152052 0.826538 0.1516889 0.830304 0.134658 0.850795 0.143536 0.848911 0.152052 0.848911 0.152052 0.850449 0.160648 0.829613 0.1688809 0.850449 0.160648 0.848911 0.152052 0.871285 0.152415 0.848911 0.152052 0.850795 0.143536 0.871285 0.152415 0.850795 0.143536 0.855776 0.13639 0.871285 0.152415 0.855776 0.13639 0.850795 0.143536 0.830304 0.134658 0.855776 0.13639 0.830304 0.134658 0.840267 0.120366 0.810076 0.125777 0.840267 0.120366 0.830304 0.134658 0.810076 0.125777 0.825015 0.104506 0.840267 0.120366 0.825015 0.104506 0.810076 0.125777 0.785576 0.114908 0.825015 0.104506 0.785576 0.114908 0.806566 0.08525097 0.837045 0.065764 0.825015 0.104506 0.806566 0.08525097 0.837045 0.065764 0.846826 0.09051597 0.825015 0.104506 0.872309 0.085819 0.846826 0.09051597 0.837045 0.065764 0.854901 0.110951 0.846826 0.09051597 0.872309 0.085819 0.854901 0.110951 0.872309 0.085819 0.872018 0.10782 0.871651 0.1301169 0.854901 0.110951 0.872018 0.10782 0.889059 0.111441 0.871651 0.1301169 0.872018 0.10782 0.889059 0.111441 0.880172 0.131928 0.871651 0.1301169 0.871651 0.1301169 0.880172 0.131928 0.871285 0.152415 0.863093 0.131683 0.871651 0.1301169 0.871285 0.152415 0.855776 0.13639 0.863093 0.131683 0.871285 0.152415 0.854901 0.110951 0.863093 0.131683 0.855776 0.13639 0.854901 0.110951 0.855776 0.13639 0.840267 0.120366 0.840267 0.120366 0.846826 0.09051597 0.854901 0.110951 0.840267 0.120366 0.825015 0.104506 0.846826 0.09051597 0.871651 0.1301169 0.863093 0.131683 0.854901 0.110951 0.484912 0.264846 0.468359 0.348319 0.462366 0.345711 0.04352396 0.265852 0.06062197 0.180164 0.066679 0.18281 0.06062197 0.180164 0.113497 0.11211 0.066679 0.18281 0.06062197 0.180164 0.10885 0.107325 0.113497 0.11211 0.10885 0.107325 0.183761 0.06450498 0.113497 0.11211 0.10885 0.107325 0.181272 0.058263 0.183761 0.06450498 0.181272 0.058263 0.26702 0.04722398 0.183761 0.06450498 0.181272 0.058263 0.267104 0.04053896 0.26702 0.04722398 0.267104 0.04053896 0.350796 0.06313997 0.26702 0.04722398 0.267104 0.04053896 0.35348 0.05694895 0.350796 0.06313997 0.35348 0.05694895 0.421574 0.110777 0.350796 0.06313997 0.35348 0.05694895 0.426412 0.106144 0.421574 0.110777 0.468517 0.1815789 0.421574 0.110777 0.426412 0.106144 0.468517 0.1815789 0.426412 0.106144 0.474758 0.179179 0.474758 0.179179 0.484912 0.264846 0.468517 0.1815789 0.474758 0.179179 0.491575 0.264981 0.484912 0.264846 0.474523 0.35071 0.484912 0.264846 0.491575 0.264981 0.474523 0.35071 0.468359 0.348319 0.484912 0.264846 0.426228 0.423588 0.468359 0.348319 0.474523 0.35071 0.07279795 0.185192 0.066679 0.18281 0.113497 0.11211 0.07279795 0.185192 0.113497 0.11211 0.118293 0.116666 0.118293 0.116666 0.113497 0.11211 0.183761 0.06450498 0.118293 0.116666 0.183761 0.06450498 0.186469 0.07056295 0.186469 0.07056295 0.183761 0.06450498 0.26702 0.04722398 0.186469 0.07056295 0.26702 0.04722398 0.267214 0.05386096 0.267214 0.05386096 0.26702 0.04722398 0.350796 0.06313997 0.267214 0.05386096 0.350796 0.06313997 0.348377 0.06937795 0.348377 0.06937795 0.350796 0.06313997 0.421574 0.110777 0.348377 0.06937795 0.421574 0.110777 0.416959 0.115528 0.416959 0.115528 0.421574 0.110777 0.468517 0.1815789 0.416959 0.115528 0.468517 0.1815789 0.462433 0.184217 0.462433 0.184217 0.468517 0.1815789 0.484912 0.264846 0.462433 0.184217 0.484912 0.264846 0.478306 0.264968 0.484912 0.264846 0.462366 0.345711 0.478306 0.264968 0.478306 0.264968 0.462366 0.345711 0.360434 0.303591 0.478306 0.264968 0.360434 0.303591 0.368125 0.264882 0.360619 0.226164 0.478306 0.264968 0.368125 0.264882 0.360619 0.226164 0.462433 0.184217 0.478306 0.264968 0.360619 0.226164 0.416959 0.115528 0.462433 0.184217 0.360619 0.226164 0.338991 0.193409 0.416959 0.115528 0.338991 0.193409 0.348377 0.06937795 0.416959 0.115528 0.338991 0.193409 0.306367 0.171572 0.348377 0.06937795 0.267813 0.164106 0.348377 0.06937795 0.306367 0.171572 0.267813 0.164106 0.267214 0.05386096 0.348377 0.06937795 0.267813 0.164106 0.186469 0.07056295 0.267214 0.05386096 0.267813 0.164106 0.2293339 0.172125 0.186469 0.07056295 0.2293339 0.172125 0.118293 0.116666 0.186469 0.07056295 0.2293339 0.172125 0.196712 0.194281 0.118293 0.116666 0.174896 0.227141 0.118293 0.116666 0.196712 0.194281 0.174896 0.227141 0.07279795 0.185192 0.118293 0.116666 0.174896 0.227141 0.056813 0.265863 0.07279795 0.185192 0.05019795 0.265725 0.07279795 0.185192 0.056813 0.265863 0.06653195 0.34901 0.05019795 0.265725 0.056813 0.265863 0.06653195 0.34901 0.056813 0.265863 0.07273495 0.3466 0.1134459 0.41991 0.06653195 0.34901 0.07273495 0.3466 0.360434 0.303591 0.462366 0.345711 0.416805 0.414235 0.468359 0.348319 0.416805 0.414235 0.462366 0.345711 0.468359 0.348319 0.421404 0.418981 0.416805 0.414235 0.426228 0.423588 0.421404 0.418981 0.468359 0.348319 0.353847 0.472633 0.421404 0.418981 0.426228 0.423588 0.353847 0.472633 0.351108 0.466526 0.421404 0.418981 0.268091 0.490395 0.351108 0.466526 0.353847 0.472633 0.268091 0.490395 0.267927 0.483693 0.351108 0.466526 0.181671 0.473918 0.267927 0.483693 0.268091 0.490395 0.181671 0.473918 0.1841329 0.467618 0.267927 0.483693 0.108797 0.424723 0.1841329 0.467618 0.181671 0.473918 0.108797 0.424723 0.1134459 0.41991 0.1841329 0.467618 0.06036394 0.351691 0.1134459 0.41991 0.108797 0.424723 0.06036394 0.351691 0.06653195 0.34901 0.1134459 0.41991 0.04352396 0.265852 0.06653195 0.34901 0.06036394 0.351691 0.04352396 0.265852 0.05019795 0.265725 0.06653195 0.34901 0.04352396 0.265852 0.066679 0.18281 0.05019795 0.265725 0.05019795 0.265725 0.066679 0.18281 0.07279795 0.185192 0.1134459 0.41991 0.07273495 0.3466 0.118264 0.415332 0.1841329 0.467618 0.1134459 0.41991 0.118264 0.415332 0.1841329 0.467618 0.118264 0.415332 0.186816 0.461476 0.267927 0.483693 0.1841329 0.467618 0.186816 0.461476 0.267927 0.483693 0.186816 0.461476 0.267999 0.477063 0.351108 0.466526 0.267927 0.483693 0.267999 0.477063 0.351108 0.466526 0.267999 0.477063 0.348651 0.460345 0.421404 0.418981 0.351108 0.466526 0.348651 0.460345 0.421404 0.418981 0.348651 0.460345 0.416805 0.414235 0.306042 0.358663 0.416805 0.414235 0.348651 0.460345 0.306042 0.358663 0.338636 0.336476 0.416805 0.414235 0.360434 0.303591 0.416805 0.414235 0.338636 0.336476 0.174896 0.227141 0.167224 0.265818 0.056813 0.265863 0.174765 0.304515 0.056813 0.265863 0.167224 0.265818 0.174765 0.304515 0.07273495 0.3466 0.056813 0.265863 0.174765 0.304515 0.118264 0.415332 0.07273495 0.3466 0.174765 0.304515 0.19643 0.337296 0.118264 0.415332 0.229073 0.359159 0.118264 0.415332 0.19643 0.337296 0.229073 0.359159 0.186816 0.461476 0.118264 0.415332 0.267626 0.366658 0.186816 0.461476 0.229073 0.359159 0.267626 0.366658 0.267999 0.477063 0.186816 0.461476 0.267626 0.366658 0.348651 0.460345 0.267999 0.477063 0.267626 0.366658 0.306042 0.358663 0.348651 0.460345 0.620877 0.4945 0.490458 0.619198 0.490458 0.4945 0.620877 0.4945 0.620877 0.619198 0.490458 0.619198 0.490458 0.619198 0.620877 0.619198 0.620877 0.640772 0.490458 0.619198 0.620877 0.640772 0.490458 0.640772 0.620877 0.706894 0.490458 0.640772 0.620877 0.640772 0.620877 0.706894 0.490458 0.706894 0.490458 0.640772 0.861726 0.396095 0.756976 0.313064 0.861726 0.313064 0.861726 0.396095 0.756976 0.396095 0.756976 0.313064 0.861726 0.479125 0.756976 0.396095 0.861726 0.396095 0.861726 0.479125 0.756976 0.479125 0.756976 0.396095 0.861726 0.562156 0.756976 0.479125 0.861726 0.479125 0.861726 0.562156 0.756976 0.562156 0.756976 0.479125 0.861726 0.645186 0.756976 0.562156 0.861726 0.562156 0.861726 0.645186 0.756976 0.645186 0.756976 0.562156 0.861726 0.728217 0.756976 0.645186 0.861726 0.645186 0.861726 0.728217 0.756976 0.728217 0.756976 0.645186 0.861726 0.811247 0.756976 0.728217 0.861726 0.728217 0.861726 0.811247 0.756976 0.811247 0.756976 0.728217 0.861726 0.894278 0.756976 0.811247 0.861726 0.811247 0.861726 0.894278 0.756976 0.894278 0.756976 0.811247 0.861726 0.977308 0.756976 0.894278 0.861726 0.894278 0.861726 0.977308 0.756976 0.977308 0.756976 0.894278 0.490458 0.619198 0.435149 0.516026 0.490458 0.4945 0.490458 0.619198 0.483212 0.639518 0.435149 0.516026 0.421592 0.6635 0.435149 0.516026 0.483212 0.639518 0.421592 0.6635 0.371119 0.533814 0.435149 0.516026 0.983557 0.395681 0.878807 0.31265 0.983557 0.31265 0.983557 0.395681 0.878807 0.395681 0.878807 0.31265 0.983557 0.478711 0.878807 0.395681 0.983557 0.395681 0.983557 0.478711 0.878807 0.478711 0.878807 0.395681 0.983557 0.561742 0.878807 0.478711 0.983557 0.478711 0.983557 0.561742 0.878807 0.561742 0.878807 0.478711 0.983557 0.644772 0.878807 0.561742 0.983557 0.561742 0.983557 0.644772 0.878807 0.644772 0.878807 0.561742 0.983557 0.727803 0.878807 0.644772 0.983557 0.644772 0.983557 0.727803 0.878807 0.727803 0.878807 0.644772 0.983557 0.810833 0.878807 0.727803 0.983557 0.727803 0.983557 0.810833 0.878807 0.810833 0.878807 0.727803 0.983557 0.893864 0.878807 0.810833 0.983557 0.810833 0.983557 0.893864 0.878807 0.893864 0.878807 0.810833 0.983557 0.976894 0.878807 0.893864 0.983557 0.893864 0.983557 0.976894 0.878807 0.976894 0.878807 0.893864 0.09284996 0.946387 0.14816 0.843215 0.14816 0.967914 0.09284996 0.946387 0.140913 0.822895 0.14816 0.843215 0.07929295 0.798913 0.140913 0.822895 0.09284996 0.946387 0.07929295 0.798913 0.09284996 0.946387 0.02881997 0.928599 0.278578 0.843215 0.333888 0.946387 0.278578 0.967914 0.278578 0.843215 0.285825 0.822895 0.333888 0.946387 0.347444 0.798913 0.333888 0.946387 0.285825 0.822895 0.347444 0.798913 0.397918 0.928599 0.333888 0.946387 0.329427 0.70592 0.342984 0.558446 0.393458 0.688132 0.329427 0.70592 0.281364 0.582428 0.342984 0.558446 0.329427 0.70592 0.274118 0.602748 0.281364 0.582428 0.329427 0.70592 0.274118 0.727446 0.274118 0.602748 0.14816 0.967914 0.278578 0.843215 0.278578 0.967914 0.14816 0.967914 0.14816 0.843215 0.278578 0.843215 0.278578 0.843215 0.14816 0.843215 0.14816 0.821642 0.278578 0.843215 0.14816 0.821642 0.278578 0.821642 0.14816 0.75552 0.278578 0.821642 0.14816 0.821642 0.14816 0.75552 0.278578 0.75552 0.278578 0.821642 0.08838999 0.70592 0.143699 0.602748 0.143699 0.727446 0.08838999 0.70592 0.136452 0.582428 0.143699 0.602748 0.08838999 0.70592 0.07483297 0.558446 0.136452 0.582428 0.08838999 0.70592 0.02435898 0.688132 0.07483297 0.558446 0.143699 0.727446 0.274118 0.602748 0.274118 0.727446 0.143699 0.727446 0.143699 0.602748 0.274118 0.602748 0.274118 0.602748 0.143699 0.602748 0.143699 0.581174 0.274118 0.602748 0.143699 0.581174 0.274118 0.581174 0.143699 0.515052 0.274118 0.581174 0.143699 0.581174 0.143699 0.515052 0.274118 0.515052 0.274118 0.581174 0.677678 0.769788 0.622369 0.87296 0.622369 0.748261 0.677678 0.769788 0.629615 0.89328 0.622369 0.87296 0.691235 0.917262 0.629615 0.89328 0.677678 0.769788 0.691235 0.917262 0.677678 0.769788 0.741708 0.787576 0.622369 0.748261 0.49195 0.87296 0.49195 0.748261 0.622369 0.748261 0.622369 0.87296 0.49195 0.87296 0.49195 0.87296 0.622369 0.87296 0.622369 0.894534 0.49195 0.87296 0.622369 0.894534 0.49195 0.894534 0.622369 0.960655 0.49195 0.894534 0.622369 0.894534 0.622369 0.960655 0.49195 0.960655 0.49195 0.894534 0.43664 0.769788 0.423084 0.917262 0.37261 0.787576 0.43664 0.769788 0.484703 0.89328 0.423084 0.917262 0.43664 0.769788 0.49195 0.87296 0.484703 0.89328 0.43664 0.769788 0.49195 0.748261 0.49195 0.87296 0.72644 0.120992 0.708848 0.08471399 0.731648 0.118835 0.739654 0.159085 0.72644 0.120992 0.731648 0.118835 0.739654 0.159085 0.734017 0.159085 0.72644 0.120992 0.739654 0.159085 0.72644 0.1971769 0.734017 0.159085 0.739654 0.159085 0.731648 0.199334 0.72644 0.1971769 0.708848 0.233456 0.72644 0.1971769 0.731648 0.199334 0.708848 0.233456 0.704863 0.22947 0.72644 0.1971769 0.674726 0.256255 0.704863 0.22947 0.708848 0.233456 0.674726 0.256255 0.67257 0.251048 0.704863 0.22947 0.674726 0.256255 0.634477 0.258625 0.67257 0.251048 0.674726 0.256255 0.634477 0.264261 0.634477 0.258625 0.634477 0.264261 0.596385 0.251048 0.634477 0.258625 0.634477 0.264261 0.594228 0.256255 0.596385 0.251048 0.594228 0.256255 0.564092 0.22947 0.596385 0.251048 0.594228 0.256255 0.560106 0.233456 0.564092 0.22947 0.560106 0.233456 0.542514 0.1971769 0.564092 0.22947 0.560106 0.233456 0.537307 0.199334 0.542514 0.1971769 0.537307 0.199334 0.534937 0.159085 0.542514 0.1971769 0.537307 0.199334 0.529301 0.159085 0.534937 0.159085 0.529301 0.159085 0.542514 0.120992 0.534937 0.159085 0.529301 0.159085 0.537307 0.118835 0.542514 0.120992 0.560106 0.08471399 0.542514 0.120992 0.537307 0.118835 0.560106 0.08471399 0.564092 0.08869898 0.542514 0.120992 0.594228 0.06191396 0.564092 0.08869898 0.560106 0.08471399 0.594228 0.06191396 0.596385 0.06712198 0.564092 0.08869898 0.634477 0.05390799 0.596385 0.06712198 0.594228 0.06191396 0.634477 0.05390799 0.634477 0.05954498 0.596385 0.06712198 0.674726 0.06191396 0.634477 0.05954498 0.634477 0.05390799 0.674726 0.06191396 0.67257 0.06712198 0.634477 0.05954498 0.674726 0.06191396 0.704863 0.08869898 0.67257 0.06712198 0.674726 0.06191396 0.708848 0.08471399 0.704863 0.08869898 0.72644 0.120992 0.704863 0.08869898 0.708848 0.08471399 0.602788 0.08257997 0.596385 0.06712198 0.634477 0.05954498 0.564092 0.08869898 0.596385 0.06712198 0.602788 0.08257997 0.564092 0.08869898 0.602788 0.08257997 0.575923 0.100531 0.542514 0.120992 0.564092 0.08869898 0.575923 0.100531 0.542514 0.120992 0.575923 0.100531 0.557973 0.127395 0.551669 0.159085 0.542514 0.120992 0.557973 0.127395 0.551669 0.159085 0.534937 0.159085 0.542514 0.120992 0.542514 0.1971769 0.534937 0.159085 0.551669 0.159085 0.542514 0.1971769 0.551669 0.159085 0.557973 0.190774 0.575923 0.217639 0.542514 0.1971769 0.557973 0.190774 0.575923 0.217639 0.564092 0.22947 0.542514 0.1971769 0.602788 0.235589 0.564092 0.22947 0.575923 0.217639 0.602788 0.235589 0.596385 0.251048 0.564092 0.22947 0.634477 0.2418929 0.596385 0.251048 0.602788 0.235589 0.634477 0.2418929 0.634477 0.258625 0.596385 0.251048 0.666166 0.235589 0.634477 0.258625 0.634477 0.2418929 0.666166 0.235589 0.67257 0.251048 0.634477 0.258625 0.704863 0.22947 0.67257 0.251048 0.666166 0.235589 0.704863 0.22947 0.666166 0.235589 0.693031 0.217639 0.710982 0.190774 0.704863 0.22947 0.693031 0.217639 0.710982 0.190774 0.72644 0.1971769 0.704863 0.22947 0.717285 0.159085 0.72644 0.1971769 0.710982 0.190774 0.717285 0.159085 0.734017 0.159085 0.72644 0.1971769 0.72644 0.120992 0.734017 0.159085 0.717285 0.159085 0.72644 0.120992 0.717285 0.159085 0.710982 0.127395 0.704863 0.08869898 0.72644 0.120992 0.710982 0.127395 0.704863 0.08869898 0.710982 0.127395 0.693031 0.100531 0.666166 0.08257997 0.704863 0.08869898 0.693031 0.100531 0.666166 0.08257997 0.67257 0.06712198 0.704863 0.08869898 0.634477 0.05954498 0.67257 0.06712198 0.666166 0.08257997 0.634477 0.05954498 0.666166 0.08257997 0.634477 0.07627695 0.602788 0.08257997 0.634477 0.05954498 0.634477 0.07627695</float_array>
          <technique_common>
            <accessor source="#emitter-mesh-map-0-array" count="1080" stride="2">
              <param name="S" type="float"/>
              <param name="T" type="float"/>
            </accessor>
          </technique_common>
        </source>
        <vertices id="emitter-mesh-vertices">
          <input semantic="POSITION" source="#emitter-mesh-positions"/>
        </vertices>
        <triangles material="emitter001-material" count="360">
          <input semantic="VERTEX" source="#emitter-mesh-vertices" offset="0"/>
          <input semantic="NORMAL" source="#emitter-mesh-normals" offset="1"/>
          <input semantic="TEXCOORD" source="#emitter-mesh-map-0" offset="2" set="0"/>
          <p>0 0 0 1 0 1 2 0 2 0 0 3 3 0 4 1 0 5 0 0 6 4 0 7 3 0 8 0 0 9 5 0 10 4 0 11 6 1 12 7 2 13 8 3 14 9 4 15 8 3 16 7 2 17 9 4 18 10 5 19 8 3 20 11 6 21 7 2 22 12 7 23 11 6 24 9 4 25 7 2 26 13 8 27 9 4 28 11 6 29 10 5 30 9 4 31 13 8 32 10 5 33 13 8 34 14 9 35 15 10 36 10 5 37 14 9 38 15 10 39 16 11 40 10 5 41 8 3 42 10 5 43 16 11 44 8 3 45 16 11 46 17 12 47 17 12 48 6 1 49 8 3 50 17 12 51 18 13 52 6 1 53 13 8 54 11 6 55 19 14 56 11 6 57 20 15 58 19 14 59 6 1 60 21 16 61 7 2 62 21 16 63 6 1 64 22 17 65 18 13 66 22 17 67 6 1 68 18 13 69 23 18 70 22 17 71 23 18 72 18 13 73 17 12 74 23 18 75 17 12 76 24 19 77 16 11 78 24 19 79 17 12 80 16 11 81 25 20 82 24 19 83 25 20 84 16 11 85 15 10 86 25 20 87 15 10 88 26 21 89 27 22 90 25 20 91 26 21 92 27 22 93 28 23 94 25 20 95 29 24 96 28 23 97 27 22 98 28 23 99 29 24 100 30 25 101 30 25 102 29 24 103 31 26 104 30 25 105 31 26 106 32 27 107 32 27 108 31 26 109 33 28 110 32 27 111 33 28 112 34 29 113 35 30 114 32 27 115 34 29 116 23 18 117 36 31 118 22 17 119 24 19 120 25 20 121 28 23 122 24 19 123 28 23 124 37 32 125 28 23 126 30 25 127 37 32 128 38 33 129 37 32 130 30 25 131 32 27 132 38 33 133 30 25 134 32 27 135 39 34 136 38 33 137 35 30 138 39 34 139 32 27 140 39 34 141 35 30 142 22 17 143 38 33 144 39 34 145 22 17 146 36 31 147 38 33 148 22 17 149 38 33 150 36 31 151 37 32 152 37 32 153 36 31 154 23 18 155 37 32 156 23 18 157 24 19 158 29 24 159 27 22 160 40 35 161 41 36 162 29 24 163 40 35 164 41 36 165 31 26 166 29 24 167 33 28 168 31 26 169 41 36 170 33 28 171 41 36 172 42 37 173 43 38 174 33 28 175 42 37 176 33 28 177 44 39 178 34 29 179 44 39 180 35 30 181 34 29 182 44 39 183 45 40 184 35 30 185 35 30 186 45 40 187 22 17 188 45 40 189 46 41 190 22 17 191 46 41 192 47 42 193 22 17 194 48 43 195 47 42 196 46 41 197 48 43 198 46 41 199 49 44 200 49 44 201 50 45 202 48 43 203 49 44 204 51 46 205 50 45 206 52 47 207 50 45 208 51 46 209 52 47 210 51 46 211 53 48 212 51 46 213 43 38 214 53 48 215 51 46 216 54 49 217 43 38 218 43 38 219 54 49 220 33 28 221 33 28 222 54 49 223 44 39 224 54 49 225 49 44 226 44 39 227 46 41 228 44 39 229 49 44 230 46 41 231 45 40 232 44 39 233 54 49 234 51 46 235 49 44 236 55 50 237 48 43 238 56 51 239 50 45 240 56 51 241 48 43 242 50 45 243 57 52 244 56 51 245 57 52 246 50 45 247 52 47 248 57 52 249 52 47 250 58 53 251 59 54 252 57 52 253 58 53 254 59 54 255 60 55 256 57 52 257 56 51 258 57 52 259 60 55 260 56 51 261 60 55 262 61 56 263 61 56 264 55 50 265 56 51 266 61 56 267 62 57 268 55 50 269 55 50 270 47 42 271 48 43 272 47 42 273 55 50 274 22 17 275 55 50 276 62 57 277 22 17 278 62 57 279 63 58 280 22 17 281 63 58 282 62 57 283 61 56 284 63 58 285 61 56 286 64 59 287 60 55 288 64 59 289 61 56 290 60 55 291 65 60 292 64 59 293 65 60 294 60 55 295 59 54 296 65 60 297 59 54 298 66 61 299 20 15 300 65 60 301 66 61 302 20 15 303 67 62 304 65 60 305 11 6 306 67 62 307 20 15 308 68 63 309 67 62 310 11 6 311 68 63 312 11 6 313 12 7 314 69 64 315 68 63 316 12 7 317 7 2 318 69 64 319 12 7 320 7 2 321 21 16 322 69 64 323 69 64 324 21 16 325 22 17 326 70 65 327 69 64 328 22 17 329 63 58 330 70 65 331 22 17 332 68 63 333 70 65 334 63 58 335 68 63 336 63 58 337 64 59 338 64 59 339 67 62 340 68 63 341 64 59 342 65 60 343 67 62 344 69 64 345 70 65 346 68 63 347 71 66 348 72 67 349 73 68 350 74 69 351 75 70 352 76 71 353 75 70 354 77 72 355 76 71 356 75 70 357 78 73 358 77 72 359 78 73 360 79 74 361 77 72 362 78 73 363 80 75 364 79 74 365 80 75 366 81 76 367 79 74 368 80 75 369 82 77 370 81 76 371 82 77 372 83 78 373 81 76 374 82 77 375 84 79 376 83 78 377 84 79 378 85 80 379 83 78 380 84 79 381 86 81 382 85 80 383 87 82 384 85 80 385 86 81 386 87 82 387 86 81 388 88 83 389 88 83 390 71 66 391 87 82 392 88 83 393 89 84 394 71 66 395 90 85 396 71 66 397 89 84 398 90 85 399 72 67 400 71 66 401 91 86 402 72 67 403 90 85 404 92 87 405 76 71 406 77 72 407 92 87 408 77 72 409 93 88 410 93 88 411 77 72 412 79 74 413 93 88 414 79 74 415 94 89 416 94 89 417 79 74 418 81 76 419 94 89 420 81 76 421 95 90 422 95 90 423 81 76 424 83 78 425 95 90 426 83 78 427 96 91 428 96 91 429 83 78 430 85 80 431 96 91 432 85 80 433 97 92 434 97 92 435 85 80 436 87 82 437 97 92 438 87 82 439 98 93 440 98 93 441 87 82 442 71 66 443 98 93 444 71 66 445 99 94 446 71 66 447 73 68 448 99 94 449 99 94 450 73 68 451 100 95 452 99 94 453 100 95 454 101 96 455 102 97 456 99 94 457 101 96 458 102 97 459 98 93 460 99 94 461 102 97 462 97 92 463 98 93 464 102 97 465 103 98 466 97 92 467 103 98 468 96 91 469 97 92 470 103 98 471 104 99 472 96 91 473 105 100 474 96 91 475 104 99 476 105 100 477 95 90 478 96 91 479 105 100 480 94 89 481 95 90 482 105 100 483 106 101 484 94 89 485 106 101 486 93 88 487 94 89 488 106 101 489 107 102 490 93 88 491 108 103 492 93 88 493 107 102 494 108 103 495 92 87 496 93 88 497 108 103 498 109 104 499 92 87 500 110 105 501 92 87 502 109 104 503 111 106 504 110 105 505 109 104 506 111 106 507 109 104 508 112 107 509 113 108 510 111 106 511 112 107 512 100 95 513 73 68 514 114 109 515 72 67 516 114 109 517 73 68 518 72 67 519 115 110 520 114 109 521 91 86 522 115 110 523 72 67 524 116 111 525 115 110 526 91 86 527 116 111 528 117 112 529 115 110 530 118 113 531 117 112 532 116 111 533 118 113 534 119 114 535 117 112 536 120 115 537 119 114 538 118 113 539 120 115 540 121 116 541 119 114 542 122 117 543 121 116 544 120 115 545 122 117 546 113 108 547 121 116 548 123 118 549 113 108 550 122 117 551 123 118 552 111 106 553 113 108 554 74 69 555 111 106 556 123 118 557 74 69 558 110 105 559 111 106 560 74 69 561 76 71 562 110 105 563 110 105 564 76 71 565 92 87 566 113 108 567 112 107 568 124 119 569 121 116 570 113 108 571 124 119 572 121 116 573 124 119 574 125 120 575 119 114 576 121 116 577 125 120 578 119 114 579 125 120 580 126 121 581 117 112 582 119 114 583 126 121 584 117 112 585 126 121 586 127 122 587 115 110 588 117 112 589 127 122 590 115 110 591 127 122 592 114 109 593 128 123 594 114 109 595 127 122 596 128 123 597 129 124 598 114 109 599 100 95 600 114 109 601 129 124 602 108 103 603 130 125 604 109 104 605 131 126 606 109 104 607 130 125 608 131 126 609 112 107 610 109 104 611 131 126 612 124 119 613 112 107 614 131 126 615 132 127 616 124 119 617 133 128 618 124 119 619 132 127 620 133 128 621 125 120 622 124 119 623 134 129 624 125 120 625 133 128 626 134 129 627 126 121 628 125 120 629 134 129 630 127 122 631 126 121 632 134 129 633 128 123 634 127 122 635 2 130 636 135 131 637 136 130 638 2 132 639 1 133 640 135 134 641 135 134 642 1 133 643 3 135 644 135 134 645 3 135 646 137 136 647 4 137 648 137 136 649 3 135 650 4 137 651 138 137 652 137 136 653 139 138 654 118 113 655 140 139 656 139 138 657 120 115 658 118 113 659 141 140 660 120 115 661 139 138 662 141 140 663 122 117 664 120 115 665 142 141 666 122 117 667 141 140 668 142 141 669 123 118 670 122 117 671 143 142 672 123 118 673 142 141 674 143 142 675 74 69 676 123 118 677 144 143 678 74 69 679 143 142 680 144 143 681 75 70 682 74 69 683 145 144 684 75 70 685 144 143 686 145 144 687 78 73 688 75 70 689 146 145 690 78 73 691 145 144 692 146 145 693 80 75 694 78 73 695 147 146 696 80 75 697 146 145 698 147 146 699 82 77 700 80 75 701 135 147 702 148 148 703 136 149 704 135 147 705 137 150 706 148 148 707 138 151 708 148 148 709 137 150 710 138 151 711 149 152 712 148 148 713 150 153 714 82 77 715 147 146 716 150 153 717 84 79 718 82 77 719 151 154 720 84 79 721 150 153 722 151 154 723 86 81 724 84 79 725 152 155 726 86 81 727 151 154 728 152 155 729 88 83 730 86 81 731 153 156 732 88 83 733 152 155 734 153 156 735 89 84 736 88 83 737 154 157 738 89 84 739 153 156 740 154 157 741 90 85 742 89 84 743 155 158 744 90 85 745 154 157 746 155 158 747 91 86 748 90 85 749 156 159 750 91 86 751 155 158 752 156 159 753 116 111 754 91 86 755 140 139 756 116 111 757 156 159 758 140 139 759 118 113 760 116 111 761 157 160 762 158 161 763 159 137 764 157 160 765 160 162 766 158 161 767 161 137 768 160 162 769 157 160 770 161 163 771 157 163 772 162 163 773 163 164 774 164 165 775 165 166 776 163 164 777 166 167 778 164 165 779 167 168 780 164 165 781 166 167 782 167 168 783 168 169 784 164 165 785 169 170 786 170 171 787 171 172 788 169 170 789 172 173 790 170 171 791 169 170 792 173 174 793 172 173 794 169 170 795 174 137 796 173 174 797 159 175 798 163 176 799 165 175 800 159 177 801 158 178 802 163 179 803 163 179 804 158 178 805 160 180 806 163 179 807 160 180 808 166 181 809 161 182 810 166 181 811 160 180 812 161 182 813 167 183 814 166 181 815 175 184 816 176 185 817 177 186 818 175 184 819 178 187 820 176 185 821 175 184 822 179 188 823 178 187 824 175 189 825 180 189 826 179 189 827 177 190 828 173 191 829 174 190 830 177 192 831 176 193 832 173 194 833 173 194 834 176 193 835 178 195 836 173 194 837 178 195 838 172 196 839 179 197 840 172 196 841 178 195 842 179 197 843 170 198 844 172 196 845 181 199 846 182 199 847 183 199 848 181 199 849 184 199 850 182 199 851 185 199 852 184 199 853 181 199 854 185 199 855 181 199 856 186 199 857 183 200 858 187 201 859 188 200 860 183 200 861 182 202 862 187 203 863 187 203 864 182 202 865 184 204 866 187 203 867 184 204 868 189 205 869 185 206 870 189 205 871 184 204 872 185 206 873 190 206 874 189 205 875 191 207 876 190 208 877 192 209 878 191 207 879 189 210 880 190 208 881 191 207 882 187 211 883 189 210 884 191 207 885 188 212 886 187 211 887 193 213 888 103 214 889 102 215 890 101 216 891 193 213 892 102 215 893 101 216 894 194 217 895 193 213 896 101 216 897 195 218 898 194 217 899 101 216 900 100 219 901 195 218 902 129 220 903 195 218 904 100 219 905 129 220 906 196 221 907 195 218 908 128 222 909 196 221 910 129 220 911 128 222 912 197 223 913 196 221 914 128 222 915 198 224 916 197 223 917 128 222 918 134 225 919 198 224 920 134 225 921 199 226 922 198 224 923 134 225 924 133 227 925 199 226 926 133 227 927 200 228 928 199 226 929 133 227 930 132 229 931 200 228 932 132 229 933 201 230 934 200 228 935 132 229 936 131 231 937 201 230 938 131 231 939 202 232 940 201 230 941 131 231 942 130 233 943 202 232 944 130 233 945 203 234 946 202 232 947 130 233 948 108 235 949 203 234 950 107 236 951 203 234 952 108 235 953 107 236 954 204 237 955 203 234 956 106 238 957 204 237 958 107 236 959 106 238 960 205 239 961 204 237 962 105 240 963 205 239 964 106 238 965 105 240 966 206 241 967 205 239 968 104 242 969 206 241 970 105 240 971 104 242 972 207 243 973 206 241 974 104 242 975 208 244 976 207 243 977 104 242 978 103 214 979 208 244 980 193 213 981 208 244 982 103 214 983 20 245 984 205 246 985 206 247 986 204 248 987 205 246 988 20 245 989 204 248 990 20 245 991 66 249 992 203 250 993 204 248 994 66 249 995 203 250 996 66 249 997 59 251 998 58 252 999 203 250 1000 59 251 1001 58 252 1002 202 253 1003 203 250 1004 201 254 1005 202 253 1006 58 252 1007 201 254 1008 58 252 1009 52 255 1010 53 256 1011 201 254 1012 52 255 1013 53 256 1014 200 257 1015 201 254 1016 43 258 1017 200 257 1018 53 256 1019 43 258 1020 199 259 1021 200 257 1022 42 260 1023 199 259 1024 43 258 1025 42 260 1026 198 261 1027 199 259 1028 41 262 1029 198 261 1030 42 260 1031 41 262 1032 197 263 1033 198 261 1034 196 264 1035 197 263 1036 41 262 1037 196 264 1038 41 262 1039 40 265 1040 27 266 1041 196 264 1042 40 265 1043 27 266 1044 195 267 1045 196 264 1046 26 268 1047 195 267 1048 27 266 1049 26 268 1050 194 269 1051 195 267 1052 193 270 1053 194 269 1054 26 268 1055 193 270 1056 26 268 1057 15 271 1058 208 272 1059 193 270 1060 15 271 1061 208 272 1062 15 271 1063 14 273 1064 13 274 1065 208 272 1066 14 273 1067 13 274 1068 207 275 1069 208 272 1070 206 247 1071 207 275 1072 13 274 1073 206 247 1074 13 274 1075 19 276 1076 20 245 1077 206 247 1078 19 276 1079</p>
        </triangles>
      </mesh>
    </geometry>
  </library_geometries>
  <library_controllers>
    <controller id="emitter_qc_skeleton_emitter-skin" name="emitter.qc_skeleton">
      <skin source="#emitter-mesh">
        <bind_shape_matrix>1 0 0 0 0 1 0 0 0 0 1 0 0 0 0 1</bind_shape_matrix>
        <source id="emitter_qc_skeleton_emitter-skin-joints">
          <Name_array id="emitter_qc_skeleton_emitter-skin-joints-array" count="1">static_prop</Name_array>
          <technique_common>
            <accessor source="#emitter_qc_skeleton_emitter-skin-joints-array" count="1" stride="1">
              <param name="JOINT" type="name"/>
            </accessor>
          </technique_common>
        </source>
        <source id="emitter_qc_skeleton_emitter-skin-bind_poses">
          <float_array id="emitter_qc_skeleton_emitter-skin-bind_poses-array" count="16">1 0 0 0 0 1 0 0 0 0 1 0 0 0 0 1</float_array>
          <technique_common>
            <accessor source="#emitter_qc_skeleton_emitter-skin-bind_poses-array" count="1" stride="16">
              <param name="TRANSFORM" type="float4x4"/>
            </accessor>
          </technique_common>
        </source>
        <source id="emitter_qc_skeleton_emitter-skin-weights">
          <float_array id="emitter_qc_skeleton_emitter-skin-weights-array" count="209">1 1 1 1 1 1 1 1 1 1 1 1 1 1 1 1 1 1 1 1 1 1 1 1 1 1 1 1 1 1 1 1 1 1 1 1 1 1 1 1 1 1 1 1 1 1 1 1 1 1 1 1 1 1 1 1 1 1 1 1 1 1 1 1 1 1 1 1 1 1 1 1 1 1 1 1 1 1 1 1 1 1 1 1 1 1 1 1 1 1 1 1 1 1 1 1 1 1 1 1 1 1 1 1 1 1 1 1 1 1 1 1 1 1 1 1 1 1 1 1 1 1 1 1 1 1 1 1 1 1 1 1 1 1 1 1 1 1 1 1 1 1 1 1 1 1 1 1 1 1 1 1 1 1 1 1 1 1 1 1 1 1 1 1 1 1 1 1 1 1 1 1 1 1 1 1 1 1 1 1 1 1 1 1 1 1 1 1 1 1 1 1 1 1 1 1 1 1 1 1 1 1 1 1 1 1 1 1 1</float_array>
          <technique_common>
            <accessor source="#emitter_qc_skeleton_emitter-skin-weights-array" count="209" stride="1">
              <param name="WEIGHT" type="float"/>
            </accessor>
          </technique_common>
        </source>
        <joints>
          <input semantic="JOINT" source="#emitter_qc_skeleton_emitter-skin-joints"/>
          <input semantic="INV_BIND_MATRIX" source="#emitter_qc_skeleton_emitter-skin-bind_poses"/>
        </joints>
        <vertex_weights count="209">
          <input semantic="JOINT" source="#emitter_qc_skeleton_emitter-skin-joints" offset="0"/>
          <input semantic="WEIGHT" source="#emitter_qc_skeleton_emitter-skin-weights" offset="1"/>
          <vcount>1 1 1 1 1 1 1 1 1 1 1 1 1 1 1 1 1 1 1 1 1 1 1 1 1 1 1 1 1 1 1 1 1 1 1 1 1 1 1 1 1 1 1 1 1 1 1 1 1 1 1 1 1 1 1 1 1 1 1 1 1 1 1 1 1 1 1 1 1 1 1 1 1 1 1 1 1 1 1 1 1 1 1 1 1 1 1 1 1 1 1 1 1 1 1 1 1 1 1 1 1 1 1 1 1 1 1 1 1 1 1 1 1 1 1 1 1 1 1 1 1 1 1 1 1 1 1 1 1 1 1 1 1 1 1 1 1 1 1 1 1 1 1 1 1 1 1 1 1 1 1 1 1 1 1 1 1 1 1 1 1 1 1 1 1 1 1 1 1 1 1 1 1 1 1 1 1 1 1 1 1 1 1 1 1 1 1 1 1 1 1 1 1 1 1 1 1 1 1 1 1 1 1 1 1 1 1 1 1 </vcount>
          <v>0 0 0 1 0 2 0 3 0 4 0 5 0 6 0 7 0 8 0 9 0 10 0 11 0 12 0 13 0 14 0 15 0 16 0 17 0 18 0 19 0 20 0 21 0 22 0 23 0 24 0 25 0 26 0 27 0 28 0 29 0 30 0 31 0 32 0 33 0 34 0 35 0 36 0 37 0 38 0 39 0 40 0 41 0 42 0 43 0 44 0 45 0 46 0 47 0 48 0 49 0 50 0 51 0 52 0 53 0 54 0 55 0 56 0 57 0 58 0 59 0 60 0 61 0 62 0 63 0 64 0 65 0 66 0 67 0 68 0 69 0 70 0 71 0 72 0 73 0 74 0 75 0 76 0 77 0 78 0 79 0 80 0 81 0 82 0 83 0 84 0 85 0 86 0 87 0 88 0 89 0 90 0 91 0 92 0 93 0 94 0 95 0 96 0 97 0 98 0 99 0 100 0 101 0 102 0 103 0 104 0 105 0 106 0 107 0 108 0 109 0 110 0 111 0 112 0 113 0 114 0 115 0 116 0 117 0 118 0 119 0 120 0 121 0 122 0 123 0 124 0 125 0 126 0 127 0 128 0 129 0 130 0 131 0 132 0 133 0 134 0 135 0 136 0 137 0 138 0 139 0 140 0 141 0 142 0 143 0 144 0 145 0 146 0 147 0 148 0 149 0 150 0 151 0 152 0 153 0 154 0 155 0 156 0 157 0 158 0 159 0 160 0 161 0 162 0 163 0 164 0 165 0 166 0 167 0 168 0 169 0 170 0 171 0 172 0 173 0 174 0 175 0 176 0 177 0 178 0 179 0 180 0 181 0 182 0 183 0 184 0 185 0 186 0 187 0 188 0 189 0 190 0 191 0 192 0 193 0 194 0 195 0 196 0 197 0 198 0 199 0 200 0 201 0 202 0 203 0 204 0 205 0 206 0 207 0 208</v>
        </vertex_weights>
      </skin>
    </controller>
  </library_controllers>
  <library_animations>
    <animation id="action_container-emitter_qc_skeleton" name="emitter.qc_skeleton"/>
  </library_animations>
  <library_visual_scenes>
    <visual_scene id="emitter_qc" name="emitter.qc">
      <node id="emitter_qc_skeleton" name="emitter.qc_skeleton" type="NODE">
        <matrix sid="transform">1 0 0 0 0 1 0 0 0 0 1 0 0 0 0 1</matrix>
        <node id="emitter_qc_skeleton_static_prop" name="static_prop" sid="static_prop" type="JOINT">
          <matrix sid="transform">1 0 0 0 0 1 0 0 0 0 1 0 0 0 0 1</matrix>
          <extra>
            <technique profile="blender">
              <layer sid="layer" type="string">0</layer>
              <tip_x sid="tip_x" type="float">0</tip_x>
              <tip_y sid="tip_y" type="float">0.000999987</tip_y>
              <tip_z sid="tip_z" type="float">0</tip_z>
            </technique>
          </extra>
        </node>
        <node id="emitter" name="emitter" type="NODE">
          <matrix sid="transform">1 0 0 0 0 1 0 0 0 0 1 0 0 0 0 1</matrix>
          <instance_controller url="#emitter_qc_skeleton_emitter-skin">
            <skeleton>#emitter_qc_skeleton_static_prop</skeleton>
            <bind_material>
              <technique_common>
                <instance_material symbol="emitter001-material" target="#emitter001-material">
                  <bind_vertex_input semantic="UVMap" input_semantic="TEXCOORD" input_set="0"/>
                </instance_material>
              </technique_common>
            </bind_material>
          </instance_controller>
        </node>
      </node>
    </visual_scene>
  </library_visual_scenes>
  <scene>
    <instance_visual_scene url="#emitter_qc"/>
  </scene>
</COLLADA>