<?xml version="1.0" encoding="utf-8"?>
<COLLADA xmlns="http://www.collada.org/2005/11/COLLADASchema" version="1.4.1" xmlns:xsi="http://www.w3.org/2001/XMLSchema-instance">
  <asset>
    <contributor>
      <author>Blender User</author>
      <authoring_tool>Blender 2.90.1 commit date:2020-09-23, commit time:06:43, hash:3e85bb34d0d7</authoring_tool>
    </contributor>
    <created>2023-10-29T01:42:48</created>
    <modified>2023-10-29T01:42:48</modified>
    <unit name="meter" meter="1"/>
    <up_axis>Z_UP</up_axis>
  </asset>
  <library_effects>
    <effect id="pickup_powerup_set_new-effect">
      <profile_COMMON>
        <newparam sid="pickup_powerup_set_new_png-surface">
          <surface type="2D">
            <init_from>pickup_powerup_set_new_png</init_from>
          </surface>
        </newparam>
        <newparam sid="pickup_powerup_set_new_png-sampler">
          <sampler2D>
            <source>pickup_powerup_set_new_png-surface</source>
          </sampler2D>
        </newparam>
        <technique sid="common">
          <lambert>
            <emission>
              <color sid="emission">0 0 0 1</color>
            </emission>
            <diffuse>
              <texture texture="pickup_powerup_set_new_png-sampler" texcoord="UVMap"/>
            </diffuse>
            <index_of_refraction>
              <float sid="ior">1.45</float>
            </index_of_refraction>
          </lambert>
        </technique>
      </profile_COMMON>
    </effect>
  </library_effects>
  <library_images>
    <image id="pickup_powerup_set_new_png" name="pickup_powerup_set_new_png">
      <init_from>pickup_powerup_set_new.png</init_from>
    </image>
  </library_images>
  <library_materials>
    <material id="pickup_powerup_set_new-material" name="pickup_powerup_set_new">
      <instance_effect url="#pickup_powerup_set_new-effect"/>
    </material>
  </library_materials>
  <library_geometries>
    <geometry id="pickup_powerup_reflect-mesh" name="pickup_powerup_reflect">
      <mesh>
        <source id="pickup_powerup_reflect-mesh-positions">
          <float_array id="pickup_powerup_reflect-mesh-positions-array" count="432">18.1686 53.4293 2.8125 -18.1661 53.4293 2.8125 4.1e-5 19.7924 2.8125 -21.4338 55.3755 0 -21.4338 55.3755 -1.08751 -3e-6 15.776 -1.0875 -4e-6 15.776 0 -4e-6 15.776 1.0875 -21.4338 55.3755 1.0875 21.4338 55.3755 -1.08749 21.4338 55.3755 0 21.4338 55.3755 1.0875 7.29368 41.5711 -4.28437 2.56288 43.072 -3.68437 8.934301 41.6258 -3.68437 2.00468 42.4329 -4.28437 0 48.3123 -4.28437 -2.44328 43.0679 -3.68438 2e-6 49.9058 -3.684371 -1.87861 42.4345 -4.28438 -7.07064 41.551 -4.28438 -8.708681 41.6052 -3.68438 -2.4974 39.714 -3.68438 -1.91702 40.333 -4.28438 5e-6 34.6466 -4.28437 2.08106 40.3788 -4.28437 2.65432 39.7532 -3.68437 7e-6 33.0635 -3.68437 14.556 31.609 -3.68437 5.69999 39.3797 -2.83584 14.3875 32.801 -2.83584 4.21523 39.6338 -3.68437 11.8273 29.3194 -2.83584 11.2996 27.3059 -3.68437 9.962761 26.7456 -2.83584 13.0079 29.5027 -3.684371 -2.99899 36.5317 -2.83585 8e-6 30.2406 -3.68437 -2e-6 28.66 -2.83585 -2.61652 37.8296 -3.68438 -6.31848 39.3797 -2.83585 -10.246 41.7097 -3.68438 -4.83575 39.6058 -3.68438 -11.8694 41.7794 -2.83586 2.90205 35.905 -2.83585 2.53699 37.1956 -3.68437 2.56288 43.072 3.68437 7.29367 41.5711 4.28437 8.934302 41.6258 3.68437 2.00468 42.4329 4.28437 -2.44328 43.0679 3.68437 -3e-6 48.3123 4.28437 0 49.9058 3.68437 -1.87861 42.4345 4.28437 -7.07064 41.551 4.28437 -8.708682 41.6052 3.68437 -1.91703 40.333 4.28437 2.08105 40.3788 4.28437 3e-6 34.6466 4.28437 -2.49741 39.714 3.68437 4e-6 33.0635 3.68437 2.65432 39.7532 3.68437 18.1686 53.4293 -2.81249 4.3e-5 19.7924 -2.8125 -18.1661 53.4293 -2.81251 10e-7 18.3 -1.0875 -19.4185 54.1755 -1.96398 10e-7 18.3 -1.96397 -19.4185 54.1755 -1.08751 19.421 54.1755 -1.96396 19.421 54.1755 -1.08749 -20.1539 28.1998 -3.68439 -20.1539 24.6821 -3.68439 -3.13185 43.572 -3.68438 4e-6 51.8356 -3.68437 3.17776 43.5703 -3.68437 10.2434 41.7283 -3.68437 19.8228 25.9739 -3.68436 16.1606 33.9305 -3.68436 -20.8737 28.5808 -2.83586 -20.8737 23.3294 -2.83586 -3.6999 44.2023 -2.83585 10e-7 53.4255 -2.83585 16.3167 35.3823 -2.83584 0 18.3 1.0875 -19.4185 54.1755 1.96397 -19.4185 54.1755 1.0875 0 18.3 1.96397 19.421 54.1755 1.96397 19.421 54.1755 1.0875 21.0136 25.0749 -2.83583 21.0136 25.0749 7e-6 9.962752 26.7456 3e-6 9.962751 26.7456 2.83585 21.0136 25.0749 2.83585 -20.8703 23.3294 -7e-6 -2.99899 36.5317 -10e-7 -2.99899 36.5317 2.83585 -20.8737 23.3294 2.83585 -20.1539 24.6821 3.68437 -2.61652 37.8296 3.68437 19.8228 25.9739 3.68437 11.2996 27.3059 3.68437 14.3875 32.801 2.83585 16.1606 33.9305 3.68437 16.3167 35.3823 2.83585 14.556 31.609 3.68437 -3.69991 44.2023 2.83585 -10.246 41.7097 3.68437 -3.13185 43.572 3.68437 -11.8694 41.7794 2.83585 5.69999 39.3797 2.83585 10.2434 41.7283 3.68437 4.21522 39.6338 3.68437 11.8737 41.7756 2.83585 3.74397 44.2023 2.83585 10e-7 51.8356 3.68437 3.17776 43.5703 3.68437 -10e-7 53.4255 2.83585 11.8273 29.3194 2.83585 13.0079 29.5027 3.68437 6e-6 30.2406 3.68437 -4e-6 28.66 2.83585 -11.8694 41.7794 -4e-6 -6.31848 39.3797 -2e-6 -6.31848 39.3797 2.83585 -4.83575 39.6058 3.68437 2.90205 35.905 2.83585 2.53699 37.1956 3.68437 16.3167 35.3823 5e-6 14.3875 32.801 5e-6 -4e-6 28.66 0 11.8737 41.7756 -2.83584 5.69999 39.3797 2e-6 11.8737 41.7756 4e-6 -3.69991 44.2023 -10e-7 -20.8737 28.5808 2.83585 -20.8771 28.5808 -7e-6 -20.1539 28.1998 3.68437 -10e-7 53.4255 0 3.74397 44.2023 10e-7 3.74397 44.2023 -2.83584 2.90205 35.905 10e-7 11.8273 29.3194 4e-6</float_array>
          <technique_common>
            <accessor source="#pickup_powerup_reflect-mesh-positions-array" count="144" stride="3">
              <param name="X" type="float"/>
              <param name="Y" type="float"/>
              <param name="Z" type="float"/>
            </accessor>
          </technique_common>
        </source>
        <source id="pickup_powerup_reflect-mesh-normals">
          <float_array id="pickup_powerup_reflect-mesh-normals-array" count="1101">0 0 1 -0.8794402 -0.4760096 0 -0.8794402 -0.4760096 0 -0.8794401 -0.4760096 6.34434e-7 -0.8794401 -0.4760096 3.22169e-7 -0.8794401 -0.4760096 0 0.8794401 -0.4760097 0 0.8794401 -0.4760097 0 0.8794401 -0.4760097 0 0.8794401 -0.4760097 0 0.8794401 -0.4760097 0 0.1818336 0.801121 -0.570212 0.181833 0.8011321 -0.5701967 0.1818352 0.8011001 -0.5702408 0.1818447 0.8011459 -0.5701736 -0.6905806 0.2770052 -0.6681067 -0.2314253 0.2360419 -0.9437832 -0.6905857 0.2770057 -0.6681012 -0.4486679 0.4576439 -0.7676323 -0.2314013 0.2360188 -0.9437948 -0.1249046 0.007161378 -0.9921429 -0.02956426 0.1267082 -0.9914994 -0.1514712 0.154486 -0.9763148 -0.1615703 -0.1721594 -0.9717285 -0.0373705 -0.1227256 -0.9917368 -0.1249464 0.007171809 -0.9921376 -0.1615856 -0.1721938 -0.9717199 -0.002052068 -0.1707142 -0.9853185 0.1321379 -0.1443134 -0.9806698 0.1595845 -0.1742861 -0.9716776 0.09342259 -0.3133539 -0.94503 0.0365889 -0.1227066 -0.9917684 -0.1201244 -0.04509419 -0.9917342 0.1189998 -0.04720699 -0.9917715 -0.02957987 0.1267113 -0.9914985 0.1530282 0.05738699 -0.9865542 0.2057714 0.0771681 -0.9755528 0.3107742 0.1165501 -0.9433109 0.1530221 0.05739504 -0.9865547 0 1 0 0.4361261 0.5619795 -0.7028322 0.4361265 0.5619952 -0.7028194 0.4361354 0.5619836 -0.7028232 0.4361276 0.5619892 -0.7028236 -0.5726408 0.4148219 -0.7071105 -0.5726457 0.4148416 -0.7070951 -0.5726476 0.4148401 -0.7070945 -0.572647 0.4148403 -0.7070948 -0.6721839 -0.2560881 -0.6946852 -0.6721863 -0.256101 -0.6946783 -0.6721735 -0.2560755 -0.6947001 -0.6721888 -0.2560837 -0.6946822 -0.289418 -0.6694569 -0.6841526 -0.2894062 -0.6694635 -0.6841512 -0.2894172 -0.6694568 -0.6841531 -0.2894166 -0.6694515 -0.6841585 -0.4192357 -0.5703852 -0.7063301 -0.41909 -0.5704344 -0.7063768 -0.4190942 -0.5704397 -0.7063701 -0.4191309 -0.5703688 -0.7064055 0.1818323 0.8011265 0.5702049 0.181833 0.8011178 0.5702165 0.1818346 0.8010973 0.5702452 0.1818442 0.8011407 0.5701808 -0.2314267 0.2360411 0.9437831 -0.7021577 0.2508878 0.6663557 -0.7021726 0.2508965 0.6663367 -0.4486693 0.457643 0.7676321 -0.231426 0.2360319 0.9437855 -0.07557618 0.3238053 0.9431005 -0.1514714 0.154486 0.9763148 -0.02957421 0.126703 0.9914997 -0.0295816 0.126711 0.9914985 -0.07557779 0.323815 0.9430969 -0.1511349 -0.05675888 0.9868824 0.1321635 -0.1443541 0.9806604 -0.002051532 -0.1707139 0.9853186 -0.1511436 -0.05675452 0.9868813 -0.1511169 -0.05673301 0.9868866 0.1595824 -0.1742848 0.971678 0.1190007 -0.04720729 0.9917713 0.09340959 -0.3133137 0.9450445 0.1530699 0.0574131 0.9865462 0.3107746 0.1165504 0.9433108 0.2057717 0.07716828 0.9755527 0.1530207 0.05739468 0.9865549 0.0365889 -0.1227068 0.9917684 5.49332e-7 0 -1 -0.8794363 -0.4760168 0 -0.8794363 -0.4760168 2.33358e-6 -0.8794363 -0.4760168 0 -0.8794363 -0.4760168 2.36594e-6 0 1 0 0 1 5.98369e-6 0 1 6.07089e-6 0.8794106 -0.4760642 -3.36732e-6 0.8265287 -0.4474454 -0.3415305 0.8265393 -0.4474484 -0.3415009 0.8794106 -0.4760641 0 0.6747736 -0.3653199 -0.6412659 0.6742849 -0.3650211 -0.6419498 3.64876e-7 0.7509351 -0.660376 3.42545e-7 0.750937 -0.6603739 3.65842e-7 0.750935 -0.6603761 3.4225e-7 0.750937 -0.6603739 -0.6601418 -0.3577563 -0.660472 -0.6603707 -0.3574416 -0.6604136 -0.6603765 -0.3574457 -0.6604056 -0.6604315 -0.357784 -0.6601674 4.91009e-7 0 -1 1.83955e-6 0 -1 4.94682e-7 0 -1 1.58145e-7 1.46591e-7 -1 1.75474e-7 0 -1 -9.58236e-4 -0.07972681 -0.9968163 1.76055e-6 0 -1 -0.1615544 -0.172171 -0.971729 -0.05792486 0.003331124 -0.9983154 1.72705e-7 0 -1 2.27291e-7 4.58955e-7 -1 -0.2313893 0.2360252 -0.9437962 1.56668e-6 4.94182e-7 -1 0 0 -1 0 0 -1 0 0 -1 1.82488e-6 5.89067e-7 -1 8.53892e-7 -4.90675e-7 -1 2.00596e-6 0 -1 1.04454e-6 -1.20169e-6 -1 3.67678e-6 1.72419e-6 -1 -0.6455725 0.3223254 -0.6923456 -0.4513016 0.6060952 -0.6549623 -0.4513034 0.6060998 -0.6549567 -0.6455506 0.3223654 -0.6923476 -0.7625825 0 -0.646891 -0.7625825 0 -0.6468911 -0.4764578 0.5224446 -0.7071349 -0.2110801 0.7117199 -0.67 -0.2110828 0.7117175 -0.6700018 -0.4765194 0.522434 -0.7071012 -0.6905893 0.2770276 -0.6680884 -0.690579 0.2770224 -0.6681012 0.4280386 -0.5795215 -0.6934968 0.4280323 -0.579513 -0.6935078 0.4280372 -0.5795208 -0.6934983 0.4280313 -0.5795295 -0.6934946 -0.5726523 0.4148464 -0.7070869 -0.5726466 0.414842 -0.7070941 -0.5726567 0.4148403 -0.707087 -0.5726506 0.4148474 -0.7070876 0.6680223 -0.2675713 -0.6943716 0.6680063 -0.2675786 -0.6943842 0.6680177 -0.2675725 -0.6943755 0.6680058 -0.2675855 -0.694382 -0.8794363 -0.4760167 0 -0.8794363 -0.4760168 2.33358e-6 -0.8794364 -0.4760167 0 0 1 0 0 1 5.98369e-6 0 1 6.07089e-6 0.8794107 -0.4760641 -3.36732e-6 0.8265122 -0.4474756 0.3415306 0.8794106 -0.476064 0 0.8265408 -0.4474493 0.3414961 0.6742994 -0.3650308 0.641929 0.674259 -0.3650057 0.6419858 0 0.750935 0.6603763 0 0.7509368 0.6603742 0 0.7509347 0.6603764 0 0.7509368 0.6603741 -0.6608238 -0.3569195 0.6602427 -0.6603996 -0.3574571 0.6603764 -0.6603516 -0.3571505 0.6605901 -0.6604053 -0.3574611 0.6603683 -0.2376448 -0.7804851 0.5782457 -0.237654 -0.7804974 0.5782251 -0.2376384 -0.7804761 0.5782604 -0.2376772 -0.7805001 0.5782122 -0.1404909 -0.9292665 -0.3416521 -0.1145828 -0.757929 -0.6421951 -0.1145821 -0.7579686 -0.6421486 -0.1404811 -0.9292669 -0.3416549 -0.1494843 -0.9887642 1.03406e-6 -0.1494842 -0.9887641 -8.04761e-7 -0.1494842 -0.9887642 -1.05027e-6 -0.1494843 -0.9887642 1.92573e-6 0.5941834 -0.8043296 -5.74284e-5 0.5941222 -0.8043748 0 0.5941162 -0.8043791 -7.10607e-4 0.5941894 -0.8043252 0 0.5941835 -0.8043296 5.74283e-5 0.5941162 -0.8043791 7.10606e-4 0.4279956 -0.5795164 0.6935278 0.4280296 -0.5795098 0.6935122 0.4280288 -0.5795261 0.693499 0.4279914 -0.5795243 0.6935236 -0.1118662 -0.739187 0.6641451 -0.1117498 -0.7391897 0.6641616 -0.1117919 -0.7391388 0.6642112 -0.1117484 -0.7391903 0.6641611 -0.5726505 0.4148445 0.7070895 -0.5726449 0.4148403 0.7070965 -0.5726486 0.4148467 0.7070898 -0.5726553 0.4148429 0.7070865 -0.2110942 0.7116999 0.6700167 -0.2110813 0.7117214 0.6699981 -0.2110928 0.7117079 0.6700087 -0.2110842 0.7117191 0.6699995 0.2672867 -0.6887171 0.6739634 0.267286 -0.6887151 0.6739656 0.2672961 -0.6887069 0.6739701 0.2672918 -0.6887063 0.6739724 0.4361263 0.5619785 0.7028329 0.4361212 0.5619894 0.7028273 0.4361222 0.5619831 0.7028318 0.4361338 0.5619844 0.7028235 0.6892454 0.2797961 0.6683225 0.6892596 0.2797872 0.6683116 0.6892588 0.2797819 0.6683146 0.689262 0.2797948 0.6683059 -0.5726474 0.4148554 0.7070856 -0.5726397 0.4148392 0.7071014 -0.5726479 0.4148363 0.7070964 -0.5726405 0.4148379 0.7071014 -0.6721822 -0.2560888 0.6946867 -0.6721863 -0.2561007 0.6946784 -0.6721867 -0.2560818 0.6946849 -0.6721735 -0.2560753 0.6947001 -0.3968139 -0.9178991 0 -0.3968139 -0.9178991 0 -0.3968139 -0.9178991 0 -0.3791031 -0.8769405 0.2953919 -0.3791165 -0.8769354 0.2953897 -0.3275653 -0.7576996 0.56444 -0.327565 -0.7576867 0.5644572 -0.4191043 -0.5704356 0.7063674 -0.4190906 -0.5704336 0.706377 -0.4190725 -0.570482 0.7063487 -0.4190941 -0.5704398 0.7063701 -0.8098441 0.5866452 7.15562e-7 -0.8098441 0.5866451 3.31588e-7 -0.8098443 0.5866449 0 -0.809844 0.5866454 -1.23968e-7 -0.8098441 0.5866452 -1.6218e-6 -0.8098443 0.5866449 0 -0.9344782 -0.3560206 0 -0.9344781 -0.3560206 -2.53353e-7 -0.9344782 -0.3560205 0 -0.9344782 -0.3560206 -1.32053e-7 -0.9344781 -0.3560208 -6.38759e-7 5.07664e-7 0 -1 1.77852e-7 -2.26309e-7 -1 1.95662e-7 -1.92388e-7 -1 0 1.7713e-7 -1 0 1.9681e-7 -1 5.15629e-7 0 -1 0.347131 -0.8944442 -0.2819035 0.304292 -0.7840757 -0.5409545 0.3042929 -0.7840805 -0.540947 0.3471238 -0.8944448 -0.2819107 0.3617921 -0.9322588 0 0.3617921 -0.9322588 6.03225e-7 0.3617922 -0.9322588 4.18566e-7 0.3617922 -0.9322589 1.62502e-6 -0.2843376 0.9587243 2.5629e-7 -0.2843375 0.9587243 4.984e-7 -0.2843374 0.9587243 1.25309e-6 -0.2843376 0.9587243 0 -0.2843376 0.9587243 0 -0.2843376 0.9587242 0 -0.5958333 0.8031083 0 -0.5957477 0.8031717 -2.18688e-4 -0.5958421 0.8031016 0 -0.5957524 0.8031682 0 -0.5957477 0.8031716 2.1869e-4 -0.5958422 0.8031017 0 -0.645576 0.3223161 0.6923467 -0.7625786 0 0.6468957 -0.7625787 0 0.6468956 -0.6455098 0.3224166 0.6923617 -0.4512993 0.6060919 0.654967 -0.4513041 0.6060942 0.6549615 -0.9281076 0.3723123 -2.86707e-7 -0.9281077 0.3723119 0 -0.9281075 0.3723125 -2.66685e-6 -0.9281074 0.3723126 -1.62013e-6 -0.885389 0.3551794 0.2998897 -0.8854001 0.3551797 0.299857 -0.7611559 0.3053333 0.5722005 -0.7611867 0.3053534 0.5721487 0 0 1 0 0 1 0 0 1 0 0 1 0 0 1 0 0 1 0 0 1 3.00901e-7 0 1 -9.59978e-4 -0.07972687 0.9968163 -0.151116 -0.05674308 0.9868862 1.6878e-7 0 1 0 0 1 0 0 1 0 0 1 0 0 1 0 0 1 2.96721e-7 0 1 -1.56533e-7 0 1 0 0 1 0.9265701 0.3761224 0 0.92657 0.3761224 0 0.9265701 0.3761224 0 0.92657 0.3761222 4.46191e-7 0.8832561 0.3585449 -0.3021662 0.8832589 0.3585335 -0.3021714 0.7573689 0.3074374 -0.5760855 0.7573734 0.3074396 -0.5760784 0.9282975 -0.3718384 5.36456e-7 0.9282976 -0.3718382 0 0.9282975 -0.3718383 0 0.9282975 -0.3718385 3.44711e-7 0.8860288 -0.3549541 0.2982625 0.8860457 -0.3549092 0.2982661 0.7631444 -0.3056921 0.5693533 0.7631323 -0.3056721 0.5693802 -0.8098284 0.5866668 -6.77164e-7 -0.8098281 0.5866673 -1.42341e-7 -0.8098278 0.5866678 0 -0.8098283 0.5866671 -1.46004e-6 -0.8098288 0.5866663 -1.42341e-6 -0.8098295 0.5866655 0 0.6973839 0.3178168 -0.642377 0.6975212 0.317852 -0.6422105 0.855224 0.3897094 -0.3416411 0.8552142 0.3897 -0.3416763 0.9099764 0.41466 0 0.9099765 0.41466 0 0.8552192 0.389707 0.3416556 0.8552276 0.3897069 0.3416349 0.6977719 0.3179178 0.6419056 0.6975512 0.3178597 0.6421741 -0.999998 -0.001462996 0.001426935 -0.9999982 -0.001357674 0.001416444 -0.9999981 -0.001581788 0.001219689 -0.9999981 -0.001294553 0.00153321 -0.9999977 -0.001505196 0.001580297 -0.9999982 -0.001369237 0.001330912 0.6036976 0.7972134 0 0.6036975 0.7972136 0 0.6036975 0.7972134 0 0.6036975 0.7972134 8.06757e-7 0.6036976 0.7972134 3.12092e-7 0.6036976 0.7972134 1.92561e-6 0.2449559 0.8206163 -0.5163193 0.2449471 0.8206215 -0.5163152 0.2755748 0.9231773 -0.2679594 0.2755644 0.9231815 -0.2679557 0.2860264 0.9582218 0 0.2755708 0.9231716 0.2679829 0.2756094 0.9231613 0.2679787 0.2449679 0.8206364 0.5162816 0.2449466 0.8206173 0.5163221 -0.5937305 -0.804664 0 -0.5937305 -0.804664 0 -0.5937304 -0.804664 0 -0.5937304 -0.804664 1.36643e-7 -0.5937305 -0.804664 0</float_array>
          <technique_common>
            <accessor source="#pickup_powerup_reflect-mesh-normals-array" count="367" stride="3">
              <param name="X" type="float"/>
              <param name="Y" type="float"/>
              <param name="Z" type="float"/>
            </accessor>
          </technique_common>
        </source>
        <source id="pickup_powerup_reflect-mesh-map-0">
          <float_array id="pickup_powerup_reflect-mesh-map-0-array" count="1680">0.389396 0.602745 0.08425998 0.602745 0.23703 0.320241 0.990866 0.277013 0.974902 0.277013 0.974902 0.497567 0.990866 0.277013 0.974902 0.497567 0.990866 0.497567 0.974902 0.497567 0.990866 0.277013 0.990866 0.497567 0.974902 0.497567 0.974902 0.277013 0.990866 0.277013 0.990866 0.497567 0.974902 0.497567 0.974902 0.718121 0.990866 0.497567 0.974902 0.718121 0.990866 0.718121 0.974902 0.718121 0.990866 0.497567 0.990866 0.718121 0.974902 0.718121 0.974902 0.497567 0.990866 0.497567 0.354888 0.502607 0.28064 0.526162 0.380638 0.503465 0.354888 0.502607 0.27188 0.516132 0.28064 0.526162 0.240682 0.608407 0.202071 0.526098 0.240505 0.633417 0.240682 0.608407 0.210933 0.516158 0.202071 0.526098 0.202071 0.526098 0.129446 0.50229 0.1037369 0.503142 0.202071 0.526098 0.210933 0.516158 0.129446 0.50229 0.201221 0.473459 0.1037369 0.503142 0.129446 0.50229 0.201221 0.473459 0.129446 0.50229 0.21033 0.483174 0.201221 0.473459 0.21033 0.483174 0.240714 0.39393 0.21033 0.483174 0.273078 0.483893 0.240714 0.39393 0.282076 0.474075 0.240714 0.39393 0.273078 0.483893 0.282076 0.474075 0.273078 0.483893 0.354888 0.502607 0.282076 0.474075 0.354888 0.502607 0.380638 0.503465 0.201221 0.473459 0.240714 0.39393 0.2405019 0.369084 0.282076 0.474075 0.2405019 0.369084 0.240714 0.39393 0.210933 0.516158 0.21033 0.483174 0.129446 0.50229 0.210933 0.516158 0.273078 0.483893 0.21033 0.483174 0.27188 0.516132 0.273078 0.483893 0.210933 0.516158 0.273078 0.483893 0.27188 0.516132 0.354888 0.502607 0.28064 0.526162 0.240682 0.608407 0.240505 0.633417 0.28064 0.526162 0.27188 0.516132 0.240682 0.608407 0.27188 0.516132 0.210933 0.516158 0.240682 0.608407 0.990866 0.01850795 0.974902 0.277013 0.974902 0.01850795 0.990866 0.01850795 0.990866 0.277013 0.974902 0.277013 0.974902 0.277013 0.990866 0.277013 0.990866 0.01850795 0.974902 0.277013 0.990866 0.01850795 0.974902 0.01850795 0.865568 0.246692 0.776777 0.324601 0.863878 0.258642 0.865568 0.246692 0.76189 0.327149 0.776777 0.324601 0.83821 0.223736 0.832918 0.203548 0.819516 0.197931 0.83821 0.223736 0.850046 0.225574 0.832918 0.203548 0.68956 0.296047 0.71957 0.232972 0.719393 0.2171249 0.68956 0.296047 0.693395 0.30906 0.71957 0.232972 0.656279 0.324601 0.60863 0.347962 0.671145 0.326868 0.656279 0.324601 0.592353 0.348661 0.60863 0.347962 0.850046 0.225574 0.748724 0.289764 0.745064 0.302703 0.850046 0.225574 0.83821 0.223736 0.748724 0.289764 0.28064 0.526162 0.354888 0.502607 0.380638 0.503465 0.28064 0.526162 0.27188 0.516132 0.354888 0.502607 0.202071 0.526098 0.240682 0.608407 0.240505 0.633417 0.202071 0.526098 0.210933 0.516158 0.240682 0.608407 0.202071 0.526098 0.129446 0.50229 0.210933 0.516158 0.202071 0.526098 0.1037369 0.503142 0.129446 0.50229 0.210933 0.516158 0.129446 0.50229 0.21033 0.483174 0.210933 0.516158 0.21033 0.483174 0.273078 0.483893 0.21033 0.483174 0.240714 0.39393 0.273078 0.483893 0.201221 0.473459 0.240714 0.39393 0.21033 0.483174 0.201221 0.473459 0.2405019 0.369084 0.240714 0.39393 0.282076 0.474075 0.240714 0.39393 0.2405019 0.369084 0.282076 0.474075 0.273078 0.483893 0.240714 0.39393 0.282076 0.474075 0.354888 0.502607 0.273078 0.483893 0.273078 0.483893 0.354888 0.502607 0.27188 0.516132 0.27188 0.516132 0.210933 0.516158 0.273078 0.483893 0.27188 0.516132 0.240682 0.608407 0.210933 0.516158 0.28064 0.526162 0.240682 0.608407 0.27188 0.516132 0.28064 0.526162 0.240505 0.633417 0.240682 0.608407 0.282076 0.474075 0.380638 0.503465 0.354888 0.502607 0.389396 0.602745 0.23703 0.320241 0.08425998 0.602745 0.934453 0.23809 0.953196 0.01888895 0.953196 0.23809 0.934453 0.23809 0.934453 0.01888895 0.953196 0.01888895 0.934454 0.72203 0.953196 0.457291 0.953197 0.72203 0.934454 0.72203 0.934453 0.457291 0.953196 0.457291 0.934453 0.457291 0.953196 0.23809 0.953196 0.457291 0.934453 0.457291 0.934453 0.23809 0.953196 0.23809 0.23751 0.318307 0.07276195 0.609978 0.237511 0.305647 0.23751 0.318307 0.08338695 0.603648 0.07276195 0.609978 0.402238 0.609978 0.08338695 0.603648 0.391613 0.603648 0.402238 0.609978 0.07276195 0.609978 0.08338695 0.603648 0.402238 0.609978 0.23751 0.318307 0.237511 0.305647 0.402238 0.609978 0.391613 0.603648 0.23751 0.318307 0.517564 0.212511 0.693395 0.30906 0.517564 0.177242 0.671145 0.326868 0.693395 0.30906 0.517564 0.212511 0.746241 0.328346 0.745064 0.302703 0.719683 0.261275 0.719683 0.261275 0.745064 0.302703 0.71957 0.232972 0.719683 0.261275 0.71957 0.232972 0.693395 0.30906 0.719683 0.261275 0.693395 0.30906 0.694589 0.327953 0.694589 0.327953 0.693395 0.30906 0.671145 0.326868 0.694589 0.327953 0.671145 0.326868 0.632314 0.346915 0.632314 0.346915 0.671145 0.326868 0.60863 0.347962 0.632314 0.346915 0.60863 0.347962 0.688228 0.366634 0.632314 0.346915 0.688228 0.366634 0.695132 0.36158 0.688228 0.366634 0.719685 0.430137 0.695132 0.36158 0.719491 0.457004 0.719685 0.430137 0.688228 0.366634 0.751489 0.366617 0.719685 0.430137 0.719491 0.457004 0.751489 0.366617 0.745324 0.36162 0.719685 0.430137 0.751489 0.366617 0.809204 0.347121 0.745324 0.36162 0.830789 0.348149 0.809204 0.347121 0.751489 0.366617 0.809204 0.347121 0.830789 0.348149 0.76189 0.327149 0.809204 0.347121 0.76189 0.327149 0.746241 0.328346 0.746241 0.328346 0.76189 0.327149 0.745064 0.302703 0.745064 0.302703 0.76189 0.327149 0.865568 0.246692 0.745064 0.302703 0.865568 0.246692 0.850046 0.225574 0.850046 0.225574 0.865568 0.246692 0.918373 0.190194 0.850046 0.225574 0.918373 0.190194 0.832918 0.203548 0.918373 0.190194 0.865568 0.246692 0.881656 0.269968 0.517564 0.212511 0.656279 0.324601 0.671145 0.326868 0.517564 0.212511 0.510347 0.216331 0.656279 0.324601 0.510347 0.216331 0.517564 0.212511 0.517564 0.177242 0.510347 0.216331 0.517564 0.177242 0.510347 0.16368 0.682533 0.372953 0.60863 0.347962 0.592353 0.348661 0.682533 0.372953 0.688228 0.366634 0.60863 0.347962 0.682533 0.372953 0.719491 0.457004 0.688228 0.366634 0.682533 0.372953 0.719433 0.472945 0.719491 0.457004 0.68956 0.296047 0.517564 0.177242 0.693395 0.30906 0.68956 0.296047 0.510347 0.16368 0.517564 0.177242 0.863878 0.258642 0.881656 0.269968 0.865568 0.246692 0.863878 0.258642 0.883221 0.284524 0.881656 0.269968 0.748724 0.289764 0.71957 0.232972 0.745064 0.302703 0.748724 0.289764 0.719393 0.2171249 0.71957 0.232972 0.970235 0.502534 0.951492 0.283333 0.970235 0.283333 0.970235 0.502534 0.951492 0.502534 0.951492 0.283333 0.970235 0.283333 0.951492 0.01859498 0.970235 0.01859498 0.970235 0.283333 0.951492 0.283333 0.951492 0.01859498 0.970235 0.721734 0.951492 0.502534 0.970235 0.502534 0.970235 0.721734 0.951492 0.721734 0.951492 0.502534 0.402238 0.609978 0.2374899 0.318307 0.237489 0.305647 0.402238 0.609978 0.391613 0.603648 0.2374899 0.318307 0.402238 0.609978 0.08338695 0.603648 0.391613 0.603648 0.402238 0.609978 0.07276195 0.609978 0.08338695 0.603648 0.07276195 0.609978 0.2374899 0.318307 0.08338695 0.603648 0.07276195 0.609978 0.237489 0.305647 0.2374899 0.318307 0.201221 0.473459 0.129446 0.50229 0.1037369 0.503142 0.201221 0.473459 0.21033 0.483174 0.129446 0.50229 0.819516 0.197931 0.832918 0.203548 0.918373 0.190194 0.819516 0.197931 0.918373 0.190194 0.930313 0.181181 0.819516 0.197931 0.930313 0.181181 0.930313 0.181181 0.819516 0.197931 0.930313 0.181181 0.819516 0.197931 0.930313 0.181181 0.819516 0.197931 0.819516 0.197931 0.930313 0.181181 0.930313 0.181181 0.819516 0.197931 0.68956 0.296047 0.510381 0.16368 0.510347 0.16368 0.68956 0.296047 0.68956 0.296047 0.510381 0.16368 0.68956 0.296047 0.510381 0.16368 0.68956 0.296047 0.68956 0.296047 0.510347 0.16368 0.510381 0.16368 0.68956 0.296047 0.517564 0.177242 0.510347 0.16368 0.68956 0.296047 0.693395 0.30906 0.517564 0.177242 0.819516 0.197931 0.918373 0.190194 0.832918 0.203548 0.819516 0.197931 0.930313 0.181181 0.918373 0.190194 0.863878 0.258642 0.881656 0.269968 0.883221 0.284524 0.863878 0.258642 0.865568 0.246692 0.881656 0.269968 0.682533 0.372953 0.60863 0.347962 0.688228 0.366634 0.682533 0.372953 0.592353 0.348661 0.60863 0.347962 0.776777 0.324601 0.830789 0.348149 0.76189 0.327149 0.776777 0.324601 0.847134 0.348623 0.830789 0.348149 0.865568 0.246692 0.776777 0.324601 0.76189 0.327149 0.865568 0.246692 0.863878 0.258642 0.776777 0.324601 0.757166 0.372953 0.719491 0.457004 0.751489 0.366617 0.757166 0.372953 0.719433 0.472945 0.719491 0.457004 0.83821 0.223736 0.832918 0.203548 0.850046 0.225574 0.83821 0.223736 0.819516 0.197931 0.832918 0.203548 0.68956 0.296047 0.71957 0.232972 0.693395 0.30906 0.68956 0.296047 0.719393 0.2171249 0.71957 0.232972 0.656279 0.324601 0.592353 0.348661 0.592353 0.348661 0.656279 0.324601 0.656279 0.324601 0.592353 0.348661 0.656279 0.324601 0.592353 0.348661 0.592353 0.348661 0.656279 0.324601 0.656279 0.324601 0.592353 0.348661 0.656279 0.324601 0.60863 0.347962 0.592353 0.348661 0.656279 0.324601 0.671145 0.326868 0.60863 0.347962 0.850046 0.225574 0.748724 0.289764 0.83821 0.223736 0.850046 0.225574 0.745064 0.302703 0.748724 0.289764 0.863878 0.258642 0.883221 0.284524 0.883221 0.284524 0.863878 0.258642 0.863878 0.258642 0.883221 0.284524 0.863878 0.258642 0.883221 0.284524 0.863878 0.258642 0.863878 0.258642 0.883221 0.284524 0.883221 0.284524 0.68956 0.296047 0.719393 0.2171249 0.719393 0.2171249 0.68956 0.296047 0.68956 0.296047 0.719393 0.2171249 0.719393 0.2171249 0.68956 0.296047 0.68956 0.296047 0.719393 0.2171249 0.68956 0.296047 0.719393 0.2171249 0.749928 0.537333 0.571266 0.894602 0.55275 0.906552 0.55275 0.906552 0.571266 0.894602 0.928566 0.894602 0.55275 0.906552 0.928566 0.894602 0.947105 0.906552 0.947105 0.906552 0.928566 0.894602 0.749928 0.537333 0.947105 0.906552 0.749928 0.537333 0.749928 0.512198 0.749928 0.537333 0.55275 0.906552 0.749928 0.512198 0.776777 0.324601 0.76189 0.327149 0.830789 0.348149 0.776777 0.324601 0.830789 0.348149 0.847134 0.348623 0.847134 0.348623 0.776777 0.324601 0.776777 0.324601 0.847134 0.348623 0.847134 0.348623 0.776777 0.324601 0.847134 0.348623 0.776777 0.324601 0.776777 0.324601 0.847134 0.348623 0.847134 0.348623 0.776777 0.324601 0.592353 0.348661 0.682533 0.372953 0.682533 0.372953 0.592353 0.348661 0.592353 0.348661 0.682533 0.372953 0.592353 0.348661 0.682533 0.372953 0.592353 0.348661 0.592353 0.348661 0.682533 0.372953 0.682533 0.372953 0.656279 0.324601 0.510347 0.216331 0.656279 0.324601 0.656279 0.324601 0.510312 0.216331 0.510347 0.216331 0.656279 0.324601 0.510347 0.216331 0.510312 0.216331 0.656279 0.324601 0.656279 0.324601 0.510347 0.216331 0.510347 0.216331 0.510347 0.16368 0.517564 0.177242 0.510347 0.216331 0.517564 0.177242 0.517564 0.212511 0.517564 0.212511 0.656279 0.324601 0.510347 0.216331 0.517564 0.212511 0.671145 0.326868 0.656279 0.324601 0.719433 0.472945 0.719433 0.472945 0.682533 0.372953 0.719433 0.472945 0.682533 0.372953 0.682533 0.372953 0.682533 0.372953 0.719433 0.472945 0.682533 0.372953 0.682533 0.372953 0.719433 0.472945 0.719433 0.472945 0.682533 0.372953 0.719491 0.457004 0.719433 0.472945 0.682533 0.372953 0.688228 0.366634 0.719491 0.457004 0.946468 0.906552 0.570653 0.894602 0.927952 0.894602 0.946468 0.906552 0.552114 0.906552 0.570653 0.894602 0.749291 0.537333 0.570653 0.894602 0.552114 0.906552 0.749291 0.537333 0.552114 0.906552 0.749291 0.512198 0.946468 0.906552 0.749291 0.537333 0.749291 0.512198 0.946468 0.906552 0.927952 0.894602 0.749291 0.537333 0.671145 0.326868 0.517564 0.212511 0.693395 0.30906 0.517564 0.212511 0.517564 0.177242 0.693395 0.30906 0.719683 0.261275 0.694589 0.327953 0.693395 0.30906 0.719683 0.261275 0.693395 0.30906 0.71957 0.232972 0.719683 0.261275 0.71957 0.232972 0.745064 0.302703 0.746241 0.328346 0.719683 0.261275 0.745064 0.302703 0.850046 0.225574 0.832918 0.203548 0.918373 0.190194 0.850046 0.225574 0.918373 0.190194 0.865568 0.246692 0.745064 0.302703 0.850046 0.225574 0.865568 0.246692 0.745064 0.302703 0.865568 0.246692 0.76189 0.327149 0.746241 0.328346 0.745064 0.302703 0.76189 0.327149 0.809204 0.347121 0.746241 0.328346 0.76189 0.327149 0.809204 0.347121 0.76189 0.327149 0.830789 0.348149 0.830789 0.348149 0.751489 0.366617 0.809204 0.347121 0.751489 0.366617 0.745324 0.36162 0.809204 0.347121 0.751489 0.366617 0.719685 0.430137 0.745324 0.36162 0.751489 0.366617 0.719491 0.457004 0.719685 0.430137 0.719491 0.457004 0.688228 0.366634 0.719685 0.430137 0.688228 0.366634 0.695132 0.36158 0.719685 0.430137 0.632314 0.346915 0.695132 0.36158 0.688228 0.366634 0.632314 0.346915 0.688228 0.366634 0.60863 0.347962 0.632314 0.346915 0.60863 0.347962 0.671145 0.326868 0.694589 0.327953 0.632314 0.346915 0.671145 0.326868 0.694589 0.327953 0.671145 0.326868 0.693395 0.30906 0.918373 0.190194 0.881656 0.269968 0.865568 0.246692 0.757166 0.372953 0.719433 0.472945 0.757166 0.372953 0.757166 0.372953 0.719433 0.472945 0.719433 0.472945 0.757166 0.372953 0.719433 0.472945 0.757166 0.372953 0.757166 0.372953 0.719433 0.472945 0.719433 0.472945 0.757166 0.372953 0.719491 0.457004 0.719433 0.472945 0.757166 0.372953 0.751489 0.366617 0.719491 0.457004 0.719393 0.2171249 0.748724 0.289764 0.748724 0.289764 0.719393 0.2171249 0.748724 0.289764 0.719393 0.2171249 0.748724 0.289764 0.719393 0.2171249 0.719393 0.2171249 0.748724 0.289764 0.748724 0.289764 0.719393 0.2171249 0.748724 0.289764 0.71957 0.232972 0.719393 0.2171249 0.748724 0.289764 0.745064 0.302703 0.71957 0.232972 0.83821 0.223736 0.819516 0.197931 0.83821 0.223736 0.83821 0.223736 0.819516 0.197931 0.819516 0.197931 0.83821 0.223736 0.819516 0.197931 0.819516 0.197931 0.83821 0.223736 0.83821 0.223736 0.819516 0.197931 0.918373 0.190194 0.881656 0.269968 0.883221 0.284524 0.918373 0.190194 0.883221 0.284524 0.930313 0.181181 0.883221 0.284524 0.930313 0.181181 0.883221 0.284524 0.883221 0.284524 0.930313 0.181181 0.930313 0.181181 0.930313 0.181181 0.883221 0.284524 0.883221 0.284524 0.930313 0.181181 0.883221 0.284524 0.930313 0.181181 0.883221 0.284524 0.918373 0.190194 0.930313 0.181181 0.883221 0.284524 0.881656 0.269968 0.918373 0.190194 0.510312 0.216331 0.510347 0.16368 0.510347 0.216331 0.510312 0.216331 0.510381 0.16368 0.510347 0.16368 0.510347 0.16368 0.510381 0.16368 0.510312 0.216331 0.510347 0.16368 0.510312 0.216331 0.510347 0.216331 0.863878 0.258642 0.776777 0.324601 0.776777 0.324601 0.863878 0.258642 0.776777 0.324601 0.863878 0.258642 0.776777 0.324601 0.863878 0.258642 0.776777 0.324601 0.776777 0.324601 0.863878 0.258642 0.863878 0.258642 0.830789 0.348149 0.751489 0.366617 0.757166 0.372953 0.830789 0.348149 0.757166 0.372953 0.847134 0.348623 0.757166 0.372953 0.847134 0.348623 0.757166 0.372953 0.757166 0.372953 0.847134 0.348623 0.847134 0.348623 0.847134 0.348623 0.757166 0.372953 0.757166 0.372953 0.847134 0.348623 0.757166 0.372953 0.847134 0.348623 0.757166 0.372953 0.830789 0.348149 0.847134 0.348623 0.757166 0.372953 0.751489 0.366617 0.830789 0.348149 0.748724 0.289764 0.83821 0.223736 0.748724 0.289764 0.748724 0.289764 0.83821 0.223736 0.83821 0.223736 0.748724 0.289764 0.83821 0.223736 0.83821 0.223736 0.748724 0.289764 0.748724 0.289764 0.83821 0.223736</float_array>
          <technique_common>
            <accessor source="#pickup_powerup_reflect-mesh-map-0-array" count="840" stride="2">
              <param name="S" type="float"/>
              <param name="T" type="float"/>
            </accessor>
          </technique_common>
        </source>
        <vertices id="pickup_powerup_reflect-mesh-vertices">
          <input semantic="POSITION" source="#pickup_powerup_reflect-mesh-positions"/>
        </vertices>
        <triangles material="pickup_powerup_set_new-material" count="280">
          <input semantic="VERTEX" source="#pickup_powerup_reflect-mesh-vertices" offset="0"/>
          <input semantic="NORMAL" source="#pickup_powerup_reflect-mesh-normals" offset="1"/>
          <input semantic="TEXCOORD" source="#pickup_powerup_reflect-mesh-map-0" offset="2" set="0"/>
          <p>0 0 0 1 0 1 2 0 2 3 1 3 4 2 4 5 3 5 3 1 6 5 3 7 6 4 8 7 2 9 3 1 10 6 4 11 7 2 12 8 5 13 3 1 14 6 6 15 5 7 16 9 8 17 6 6 18 9 8 19 10 9 20 11 10 21 6 6 22 10 9 23 11 10 24 7 7 25 6 6 26 12 11 27 13 12 28 14 13 29 12 11 30 15 14 31 13 12 32 16 15 33 17 16 34 18 17 35 16 15 36 19 18 37 17 16 38 17 19 39 20 20 40 21 21 41 17 19 42 19 22 43 20 20 44 22 23 45 21 24 46 20 25 47 22 23 48 20 25 49 23 26 50 22 23 51 23 26 52 24 27 53 23 26 54 25 28 55 24 27 56 26 29 57 24 27 58 25 28 59 26 29 60 25 28 61 12 30 62 26 29 63 12 30 64 14 31 65 22 23 66 24 27 67 27 32 68 26 29 69 27 33 70 24 27 71 19 34 72 23 26 73 20 25 74 19 34 75 25 28 76 23 26 77 15 35 78 25 28 79 19 34 80 25 28 81 15 35 82 12 30 83 13 36 84 16 37 85 18 38 86 13 36 87 15 35 88 16 37 89 15 35 90 19 34 91 16 37 92 10 39 93 8 39 94 11 39 95 10 39 96 3 39 97 8 39 98 4 39 99 3 39 100 10 39 101 4 39 102 10 39 103 9 39 104 28 40 105 29 41 106 30 42 107 28 40 108 31 43 109 29 41 110 32 44 111 33 45 112 34 46 113 32 44 114 35 47 115 33 45 116 36 48 117 37 49 118 38 50 119 36 48 120 39 51 121 37 49 122 40 52 123 41 53 124 42 54 125 40 52 126 43 55 127 41 53 128 35 56 129 44 57 130 45 58 131 35 56 132 32 59 133 44 57 134 46 60 135 47 61 136 48 62 137 46 60 138 49 63 139 47 61 140 50 64 141 51 65 142 52 66 143 50 64 144 53 67 145 51 65 146 50 68 147 54 69 148 53 70 149 50 68 150 55 71 151 54 69 152 53 72 153 54 73 154 56 74 155 53 72 156 56 74 157 57 75 158 56 74 159 58 76 160 57 75 161 59 77 162 58 76 163 56 74 164 59 77 165 60 78 166 58 76 167 61 79 168 58 76 169 60 80 170 61 79 171 57 75 172 58 76 173 61 79 174 47 81 175 57 75 176 57 75 177 47 81 178 49 82 179 49 82 180 53 72 181 57 75 182 49 82 183 51 83 184 53 72 185 46 84 186 51 83 187 49 82 188 46 84 189 52 85 190 51 83 191 61 79 192 48 86 193 47 81 194 62 87 195 63 87 196 64 87 197 65 88 198 66 89 199 67 90 200 65 88 201 68 91 202 66 89 203 68 92 204 69 93 205 66 39 206 68 92 207 70 94 208 69 93 209 70 95 210 67 96 211 69 97 212 70 95 213 65 98 214 67 96 215 63 99 216 69 97 217 67 96 218 63 99 219 62 100 220 69 97 221 66 101 222 62 102 223 64 103 224 66 101 225 69 104 226 62 102 227 66 105 228 63 106 229 67 107 230 66 105 231 64 108 232 63 106 233 71 109 234 39 110 235 72 111 236 42 112 237 39 110 238 71 109 239 26 29 240 45 113 241 27 114 242 27 114 243 45 113 244 37 115 245 27 114 246 37 115 247 39 110 248 27 114 249 39 110 250 22 116 251 22 116 252 39 110 253 42 112 254 22 116 255 42 112 256 21 117 257 21 117 258 42 112 259 41 118 260 21 117 261 41 118 262 73 119 263 21 117 264 73 119 265 17 120 266 73 119 267 18 38 268 17 120 269 74 121 270 18 38 271 73 119 272 75 122 273 18 38 274 74 121 275 75 122 276 13 36 277 18 38 278 75 122 279 14 31 280 13 36 281 76 123 282 14 31 283 75 122 284 14 31 285 76 123 286 31 124 287 14 31 288 31 124 289 26 29 290 26 29 291 31 124 292 45 113 293 45 113 294 31 124 295 28 125 296 45 113 297 28 125 298 35 126 299 35 126 300 28 125 301 77 127 302 35 126 303 77 127 304 33 128 305 77 127 306 28 125 307 78 129 308 71 130 309 40 131 310 42 132 311 71 130 312 79 133 313 40 131 314 79 133 315 71 130 316 72 134 317 79 133 318 72 134 319 80 135 320 81 136 321 41 137 322 43 138 323 81 136 324 73 139 325 41 137 326 81 136 327 74 140 328 73 139 329 81 136 330 82 141 331 74 140 332 36 142 333 72 143 334 39 144 335 36 142 336 80 145 337 72 143 338 30 146 339 78 147 340 28 148 341 30 146 342 83 149 343 78 147 344 44 150 345 37 151 346 45 152 347 44 150 348 38 153 349 37 151 350 84 154 351 85 155 352 86 91 353 84 154 354 87 156 355 85 155 356 86 157 357 88 158 358 89 159 359 86 157 360 85 39 361 88 158 362 89 160 363 87 161 364 84 162 365 89 160 366 88 163 367 87 161 368 88 163 369 2 164 370 87 161 371 88 163 372 0 165 373 2 164 374 88 166 375 1 167 376 0 168 377 88 166 378 85 169 379 1 167 380 85 170 381 2 171 382 1 172 383 85 170 384 87 173 385 2 171 386 59 174 387 54 175 388 55 176 389 59 174 390 56 177 391 54 175 392 34 178 393 33 179 394 77 180 395 34 178 396 77 180 397 90 181 398 34 178 399 90 181 400 91 182 401 34 178 402 91 182 403 92 183 404 91 182 405 93 184 406 92 183 407 91 182 408 94 185 409 93 184 410 36 186 411 95 187 412 80 188 413 36 186 414 96 189 415 95 187 416 97 190 417 95 187 418 96 189 419 97 190 420 98 191 421 95 187 422 97 192 423 99 193 424 98 194 425 97 192 426 100 195 427 99 193 428 93 196 429 101 197 430 102 198 431 93 196 432 94 199 433 101 197 434 103 200 435 104 201 436 105 202 437 103 200 438 106 203 439 104 201 440 107 204 441 108 205 442 109 206 443 107 204 444 110 207 445 108 205 446 111 208 447 112 209 448 113 210 449 111 208 450 114 211 451 112 209 452 106 212 453 111 213 454 113 214 455 106 212 456 103 215 457 111 213 458 115 216 459 116 217 460 117 218 461 115 216 462 118 219 463 116 217 464 119 220 465 102 221 466 120 222 467 119 220 468 93 223 469 102 221 470 97 224 471 121 225 472 100 226 473 97 224 474 122 227 475 121 225 476 40 228 477 123 229 478 43 229 479 40 228 480 124 230 481 123 229 482 124 230 483 110 231 484 123 229 485 124 230 486 125 232 487 110 231 488 125 232 489 108 233 490 110 231 491 125 232 492 126 234 493 108 233 494 120 235 495 127 236 496 119 237 497 120 235 498 128 238 499 127 236 500 30 239 501 129 240 502 83 241 503 30 239 504 130 242 505 129 240 506 103 243 507 129 240 508 130 242 509 103 243 510 105 244 511 129 240 512 97 245 513 131 246 514 122 247 515 97 245 516 96 245 517 131 246 518 131 246 519 96 245 520 36 248 521 131 246 522 36 248 523 38 249 524 65 250 525 70 251 526 9 252 527 9 252 528 70 251 529 68 253 530 9 252 531 68 253 532 4 254 533 4 254 534 68 253 535 65 250 536 4 254 537 65 250 538 5 255 539 65 250 540 9 252 541 5 255 542 29 256 543 31 257 544 76 258 545 29 256 546 76 258 547 132 259 548 132 259 549 133 260 550 29 256 551 132 259 552 134 261 553 133 260 554 134 261 555 111 262 556 133 260 557 134 261 558 114 263 559 111 262 560 43 264 561 135 265 562 81 266 563 43 264 564 123 267 565 135 265 566 110 268 567 135 265 568 123 267 569 110 268 570 107 269 571 135 265 572 124 270 573 136 271 574 125 272 575 124 270 576 137 273 577 136 271 578 124 270 579 79 274 580 137 273 581 124 270 582 40 275 583 79 274 584 136 276 585 98 277 586 99 278 587 136 276 588 99 278 589 138 279 590 138 279 591 125 280 592 136 276 593 138 279 594 126 281 595 125 280 596 139 282 597 82 283 598 81 284 599 139 282 600 81 284 601 135 285 602 107 286 603 139 282 604 135 285 605 107 286 606 118 287 607 139 282 608 107 286 609 116 288 610 118 287 611 107 286 612 109 289 613 116 288 614 11 290 615 86 291 616 89 0 617 11 290 618 8 292 619 86 291 620 84 293 621 86 291 622 8 292 623 84 293 624 8 292 625 7 294 626 11 290 627 84 293 628 7 294 629 11 290 630 89 0 631 84 293 632 126 295 633 138 296 634 100 297 635 138 296 636 99 0 637 100 297 638 60 298 639 59 299 640 100 297 641 60 298 642 100 297 643 121 0 644 60 298 645 121 0 646 128 300 647 61 79 648 60 298 649 128 300 650 120 301 651 102 302 652 101 303 653 120 301 654 101 303 655 106 304 656 128 300 657 120 301 658 106 304 659 128 300 660 106 304 661 113 305 662 61 79 663 128 300 664 113 305 665 48 86 666 61 79 667 113 305 668 48 86 669 113 305 670 112 0 671 112 0 672 117 306 673 48 86 674 117 306 675 46 84 676 48 86 677 117 306 678 52 85 679 46 84 680 117 306 681 116 307 682 52 85 683 116 307 684 109 0 685 52 85 686 109 0 687 50 68 688 52 85 689 55 71 690 50 68 691 109 0 692 55 71 693 109 0 694 108 0 695 55 71 696 108 0 697 126 295 698 59 299 699 55 71 700 126 295 701 59 299 702 126 295 703 100 297 704 101 303 705 104 308 706 106 304 707 140 309 708 118 310 709 115 311 710 140 309 711 139 312 712 118 310 713 141 313 714 139 312 715 140 309 716 141 313 717 82 314 718 139 312 719 141 313 720 74 315 721 82 314 722 141 313 723 75 316 724 74 315 725 38 317 726 44 318 727 142 319 728 38 317 729 142 319 730 131 320 731 142 319 732 122 321 733 131 320 734 142 319 735 127 322 736 122 321 737 127 322 738 121 323 739 122 321 740 127 322 741 128 324 742 121 323 743 143 325 744 93 326 745 119 327 746 143 325 747 92 328 748 93 326 749 143 325 750 34 329 751 92 328 752 143 325 753 32 330 754 34 329 755 77 331 756 78 332 757 83 333 758 77 331 759 83 333 760 90 334 761 129 335 762 90 334 763 83 333 764 129 335 765 91 336 766 90 334 767 91 336 768 129 335 769 105 337 770 91 336 771 105 337 772 94 338 773 105 337 774 101 339 775 94 338 776 105 337 777 104 340 778 101 339 779 137 341 780 98 342 781 136 343 782 137 341 783 95 344 784 98 342 785 80 345 786 95 344 787 137 341 788 80 345 789 137 341 790 79 346 791 30 347 792 29 348 793 133 349 794 30 347 795 133 349 796 130 350 797 111 351 798 130 350 799 133 349 800 111 351 801 103 352 802 130 350 803 76 353 804 75 354 805 141 355 806 76 353 807 141 355 808 132 356 809 140 357 810 132 356 811 141 355 812 140 357 813 134 357 814 132 356 815 134 357 816 140 357 817 115 358 818 134 357 819 115 358 820 114 359 821 115 358 822 112 360 823 114 359 824 115 358 825 117 361 826 112 360 827 142 362 828 119 363 829 127 363 830 142 362 831 143 364 832 119 363 833 142 362 834 32 365 835 143 364 836 142 362 837 44 366 838 32 365 839</p>
        </triangles>
      </mesh>
    </geometry>
  </library_geometries>
  <library_controllers>
    <controller id="pickup_powerup_reflect_qc_skeleton_pickup_powerup_reflect-skin" name="pickup_powerup_reflect.qc_skeleton">
      <skin source="#pickup_powerup_reflect-mesh">
        <bind_shape_matrix>1 0 0 0 0 1 0 0 0 0 1 0 0 0 0 1</bind_shape_matrix>
        <source id="pickup_powerup_reflect_qc_skeleton_pickup_powerup_reflect-skin-joints">
          <Name_array id="pickup_powerup_reflect_qc_skeleton_pickup_powerup_reflect-skin-joints-array" count="1">jnt_spin</Name_array>
          <technique_common>
            <accessor source="#pickup_powerup_reflect_qc_skeleton_pickup_powerup_reflect-skin-joints-array" count="1" stride="1">
              <param name="JOINT" type="name"/>
            </accessor>
          </technique_common>
        </source>
        <source id="pickup_powerup_reflect_qc_skeleton_pickup_powerup_reflect-skin-bind_poses">
          <float_array id="pickup_powerup_reflect_qc_skeleton_pickup_powerup_reflect-skin-bind_poses-array" count="16">0.9985334 0 -0.05413848 0 0 1 0 0 0.05413848 0 0.9985334 0 0 0 0 1</float_array>
          <technique_common>
            <accessor source="#pickup_powerup_reflect_qc_skeleton_pickup_powerup_reflect-skin-bind_poses-array" count="1" stride="16">
              <param name="TRANSFORM" type="float4x4"/>
            </accessor>
          </technique_common>
        </source>
        <source id="pickup_powerup_reflect_qc_skeleton_pickup_powerup_reflect-skin-weights">
          <float_array id="pickup_powerup_reflect_qc_skeleton_pickup_powerup_reflect-skin-weights-array" count="144">1 1 1 1 1 1 1 1 1 1 1 1 1 1 1 1 1 1 1 1 1 1 1 1 1 1 1 1 1 1 1 1 1 1 1 1 1 1 1 1 1 1 1 1 1 1 1 1 1 1 1 1 1 1 1 1 1 1 1 1 1 1 1 1 1 1 1 1 1 1 1 1 1 1 1 1 1 1 1 1 1 1 1 1 1 1 1 1 1 1 1 1 1 1 1 1 1 1 1 1 1 1 1 1 1 1 1 1 1 1 1 1 1 1 1 1 1 1 1 1 1 1 1 1 1 1 1 1 1 1 1 1 1 1 1 1 1 1 1 1 1 1 1 1</float_array>
          <technique_common>
            <accessor source="#pickup_powerup_reflect_qc_skeleton_pickup_powerup_reflect-skin-weights-array" count="144" stride="1">
              <param name="WEIGHT" type="float"/>
            </accessor>
          </technique_common>
        </source>
        <joints>
          <input semantic="JOINT" source="#pickup_powerup_reflect_qc_skeleton_pickup_powerup_reflect-skin-joints"/>
          <input semantic="INV_BIND_MATRIX" source="#pickup_powerup_reflect_qc_skeleton_pickup_powerup_reflect-skin-bind_poses"/>
        </joints>
        <vertex_weights count="144">
          <input semantic="JOINT" source="#pickup_powerup_reflect_qc_skeleton_pickup_powerup_reflect-skin-joints" offset="0"/>
          <input semantic="WEIGHT" source="#pickup_powerup_reflect_qc_skeleton_pickup_powerup_reflect-skin-weights" offset="1"/>
          <vcount>1 1 1 1 1 1 1 1 1 1 1 1 1 1 1 1 1 1 1 1 1 1 1 1 1 1 1 1 1 1 1 1 1 1 1 1 1 1 1 1 1 1 1 1 1 1 1 1 1 1 1 1 1 1 1 1 1 1 1 1 1 1 1 1 1 1 1 1 1 1 1 1 1 1 1 1 1 1 1 1 1 1 1 1 1 1 1 1 1 1 1 1 1 1 1 1 1 1 1 1 1 1 1 1 1 1 1 1 1 1 1 1 1 1 1 1 1 1 1 1 1 1 1 1 1 1 1 1 1 1 1 1 1 1 1 1 1 1 1 1 1 1 1 1 </vcount>
          <v>0 0 0 1 0 2 0 3 0 4 0 5 0 6 0 7 0 8 0 9 0 10 0 11 0 12 0 13 0 14 0 15 0 16 0 17 0 18 0 19 0 20 0 21 0 22 0 23 0 24 0 25 0 26 0 27 0 28 0 29 0 30 0 31 0 32 0 33 0 34 0 35 0 36 0 37 0 38 0 39 0 40 0 41 0 42 0 43 0 44 0 45 0 46 0 47 0 48 0 49 0 50 0 51 0 52 0 53 0 54 0 55 0 56 0 57 0 58 0 59 0 60 0 61 0 62 0 63 0 64 0 65 0 66 0 67 0 68 0 69 0 70 0 71 0 72 0 73 0 74 0 75 0 76 0 77 0 78 0 79 0 80 0 81 0 82 0 83 0 84 0 85 0 86 0 87 0 88 0 89 0 90 0 91 0 92 0 93 0 94 0 95 0 96 0 97 0 98 0 99 0 100 0 101 0 102 0 103 0 104 0 105 0 106 0 107 0 108 0 109 0 110 0 111 0 112 0 113 0 114 0 115 0 116 0 117 0 118 0 119 0 120 0 121 0 122 0 123 0 124 0 125 0 126 0 127 0 128 0 129 0 130 0 131 0 132 0 133 0 134 0 135 0 136 0 137 0 138 0 139 0 140 0 141 0 142 0 143</v>
        </vertex_weights>
      </skin>
    </controller>
  </library_controllers>
  <library_animations>
    <animation id="action_container-pickup_powerup_reflect_qc_skeleton" name="pickup_powerup_reflect.qc_skeleton"/>
  </library_animations>
  <library_visual_scenes>
    <visual_scene id="emitter_qc" name="emitter.qc">
      <node id="pickup_powerup_reflect_qc_skeleton" name="pickup_powerup_reflect.qc_skeleton" type="NODE">
        <matrix sid="transform">1 0 0 0 0 1 0 0 0 0 1 0 0 0 0 1</matrix>
        <node id="pickup_powerup_reflect_qc_skeleton_jnt_spin" name="jnt_spin" sid="jnt_spin" type="JOINT">
          <matrix sid="transform">0.9985334 0 0.05413851 0 0 1 0 0 -0.05413851 0 0.9985334 0 0 0 0 1</matrix>
          <extra>
            <technique profile="blender">
              <layer sid="layer" type="string">0</layer>
              <roll sid="roll" type="float">0.05416494</roll>
              <tip_x sid="tip_x" type="float">0</tip_x>
              <tip_y sid="tip_y" type="float">0.000999987</tip_y>
              <tip_z sid="tip_z" type="float">0</tip_z>
            </technique>
          </extra>
        </node>
        <node id="pickup_powerup_reflect" name="pickup_powerup_reflect" type="NODE">
          <matrix sid="transform">1 0 0 0 0 1 0 0 0 0 1 0 0 0 0 1</matrix>
          <instance_controller url="#pickup_powerup_reflect_qc_skeleton_pickup_powerup_reflect-skin">
            <skeleton>#pickup_powerup_reflect_qc_skeleton_jnt_spin</skeleton>
            <bind_material>
              <technique_common>
                <instance_material symbol="pickup_powerup_set_new-material" target="#pickup_powerup_set_new-material">
                  <bind_vertex_input semantic="UVMap" input_semantic="TEXCOORD" input_set="0"/>
                </instance_material>
              </technique_common>
            </bind_material>
          </instance_controller>
        </node>
      </node>
    </visual_scene>
  </library_visual_scenes>
  <scene>
    <instance_visual_scene url="#emitter_qc"/>
  </scene>
</COLLADA>