<?xml version="1.0" encoding="utf-8"?>
<COLLADA xmlns="http://www.collada.org/2005/11/COLLADASchema" version="1.4.1" xmlns:xsi="http://www.w3.org/2001/XMLSchema-instance">
  <asset>
    <contributor>
      <author>Blender User</author>
      <authoring_tool>Blender 2.90.1 commit date:2020-09-23, commit time:06:43, hash:3e85bb34d0d7</authoring_tool>
    </contributor>
    <created>2023-10-29T01:45:05</created>
    <modified>2023-10-29T01:45:05</modified>
    <unit name="meter" meter="1"/>
    <up_axis>Z_UP</up_axis>
  </asset>
  <library_effects>
    <effect id="pickup_powerup_set_new-effect">
      <profile_COMMON>
        <newparam sid="pickup_powerup_set_new_png-surface">
          <surface type="2D">
            <init_from>pickup_powerup_set_new_png</init_from>
          </surface>
        </newparam>
        <newparam sid="pickup_powerup_set_new_png-sampler">
          <sampler2D>
            <source>pickup_powerup_set_new_png-surface</source>
          </sampler2D>
        </newparam>
        <technique sid="common">
          <lambert>
            <emission>
              <color sid="emission">0 0 0 1</color>
            </emission>
            <diffuse>
              <texture texture="pickup_powerup_set_new_png-sampler" texcoord="UVMap"/>
            </diffuse>
            <index_of_refraction>
              <float sid="ior">1.45</float>
            </index_of_refraction>
          </lambert>
        </technique>
      </profile_COMMON>
    </effect>
  </library_effects>
  <library_images>
    <image id="pickup_powerup_set_new_png" name="pickup_powerup_set_new_png">
      <init_from>pickup_powerup_set_new.png</init_from>
    </image>
  </library_images>
  <library_materials>
    <material id="pickup_powerup_set_new-material" name="pickup_powerup_set_new">
      <instance_effect url="#pickup_powerup_set_new-effect"/>
    </material>
  </library_materials>
  <library_geometries>
    <geometry id="pickup_powerup_supernova-mesh" name="pickup_powerup_supernova">
      <mesh>
        <source id="pickup_powerup_supernova-mesh-positions">
          <float_array id="pickup_powerup_supernova-mesh-positions-array" count="600">-10.5439 36.5621 2.856 -15.352 41.4517 4.284 -17.6565 42.1563 2.856 -8.472001 36.5078 4.284 -6.957331 42.9392 2.856 -4.85726 42.0275 4.284 -6.95733 42.9392 2.38 -17.6565 42.1563 2.38 -14.1407 51.8465 2.38 -14.1407 51.8465 2.856 -12.1218 50.3808 4.284 -3.14843 26.8863 2.856 0.08066296 19.7183 4.284 -2.45133 28.7752 4.284 0.08352196 17.2674 2.856 3.60663 47.646 2.856 0.06481695 54.3891 4.284 2.99971 45.7334 4.284 6.25e-4 56.8178 2.856 10.8053 37.2036 2.856 16.4653 41.7074 4.284 8.684261 37.3125 4.283999 18.8398 42.1853 2.856 -13.6978 21.1886 4.284 -15.544 19.4635 2.856 22.4708 42.9161 -1.309 10.6467 44.7974 1.309 22.4708 42.9161 1.309 10.6467 44.7974 -1.309 13.0701 37.0873 -1.309 13.0701 37.0873 1.309 0.08827096 13.1959 -1.309 3.94208 24.7548 1.309 0.08827096 13.1959 1.309 3.94208 24.7548 -1.309 -12.7063 36.6187 -1.309 -21.0762 43.2018 1.309 -21.0762 43.2018 -1.309 -12.7063 36.6187 1.309 -0.09945195 60.6041 -1.309 4.22681 49.6004 1.309 4.22681 49.6004 -1.309 -0.09945195 60.6041 1.309 10.5395 29.4684 1.309 16.6309 16.8911 -1.309 10.5395 29.4684 -1.309 16.6309 16.8911 1.309 -3.86209 49.3161 -1.309 -3.86209 49.3161 1.309 -22.5698 29.6644 -1.309 -10.1822 29.4428 1.309 -22.5698 29.6644 1.309 -10.1822 29.4428 -1.309 -9.511712 44.048 -1.309 -9.511711 44.048 1.309 -3.86203 24.9527 1.309 -3.86203 24.9527 -1.309 -20.0328 15.2693 1.309 -20.0328 15.2693 -1.309 18.2285 58.807 -1.309 18.2285 58.807 1.309 22.5698 29.7509 1.309 22.5698 29.7509 -1.309 -18.1456 54.7539 1.309 -18.1456 54.7539 -1.309 -19.3246 15.931 -2.38 -3.52646 25.862 -2.38 21.6489 30.0531 2.38 9.7123 29.9734 2.38 17.5731 58.0929 -2.38 3.93366 48.6766 -2.38 -0.07384395 59.6352 2.38 -3.44695 48.4403 2.38 0.08714097 14.1651 2.38 3.6124 25.6662 2.38 -0.07384395 59.6352 -2.38 -3.44695 48.4403 -2.38 -20.1493 42.9184 2.38 -8.622651 43.6621 2.38 21.6489 30.0531 -2.38 9.712301 29.9734 -2.38 -9.31928 29.8841 -2.38 3.93366 48.6766 2.38 21.5206 42.7249 2.38 9.777561 44.3684 2.38 -21.6433 29.9491 2.38 -9.319281 29.8841 2.38 -21.6433 29.9491 -2.38 15.982 17.611 2.38 -3.52646 25.862 2.38 15.982 17.611 -2.38 17.5731 58.0929 2.38 -17.3613 54.1845 2.38 -11.7374 36.5933 -2.38 3.6124 25.6662 -2.38 12.1022 37.137 2.38 -19.3246 15.931 2.38 21.5206 42.7249 -2.38 9.777562 44.3684 -2.38 -20.1493 42.9184 -2.38 -17.3613 54.1845 -2.38 -11.7374 36.5933 2.38 0.08714097 14.1651 -2.38 12.1022 37.137 -2.38 -8.622651 43.6621 -2.38 14.648 54.9061 -2.38 3.60663 47.646 -2.856 3.60663 47.646 -2.38 14.648 54.9061 -2.856 18.8398 42.1853 -2.38 8.641772 43.8079 -2.856 8.641772 43.8079 -2.38 18.8398 42.1853 -2.856 18.8936 30.9572 -2.38 10.8053 37.2036 -2.856 10.8053 37.2036 -2.38 18.8936 30.9572 -2.856 0.08352196 17.2674 -2.38 3.23322 26.7145 -2.856 3.23322 26.7145 -2.38 0.08352196 17.2674 -2.856 -15.544 19.4635 -2.38 -3.14843 26.8863 -2.856 -3.14843 26.8863 -2.38 -15.544 19.4635 -2.856 -17.6565 42.1563 -2.38 -10.5439 36.5621 -2.856 -10.5439 36.5621 -2.38 -17.6565 42.1563 -2.856 6.25e-4 56.8178 -2.38 -3.06232 47.6289 -2.856 -3.06232 47.6289 -2.38 6.25e-4 56.8178 -2.856 16.5788 31.7168 -4.284 8.68426 37.3125 -4.284 -14.1407 51.8465 -2.856 -14.1407 51.8465 -2.38 -12.1218 50.3808 -4.284 -2.26325 45.9432 -4.284 -7.74051 30.6916 -2.38 -7.74051 30.6916 -2.856 -13.6978 21.1886 -4.284 -5.710929 31.7297 -4.284 8.500801 30.7131 -2.38 8.500802 30.7131 -2.856 6.6456 31.8458 -4.284 0.06481695 54.3891 -4.284 12.9531 53.0596 -4.284 2.99971 45.7334 -4.284 -18.5948 30.8858 -2.856 -18.5948 30.8858 -2.38 -16.2466 31.6073 -4.284 -8.472002 36.5078 -4.284 13.5271 20.3349 -2.856 13.5271 20.3349 -2.38 11.8654 22.1787 -4.284 2.54352 28.6211 -4.284 6.75047 42.8744 -4.284 -15.352 41.4517 -4.284 0.08066296 19.7183 -4.284 16.4653 41.7074 -4.284 -6.957331 42.9392 -2.38 -6.957331 42.9392 -2.856 -4.85726 42.0275 -4.284 -2.45133 28.7752 -4.284 14.648 54.9061 2.38 14.648 54.9061 2.856 3.60663 47.646 2.38 8.641771 43.8079 2.38 8.641771 43.8079 2.856 10.8053 37.2036 2.38 18.8398 42.1853 2.38 18.8936 30.9572 2.38 18.8936 30.9572 2.856 3.23322 26.7145 2.38 13.5271 20.3349 2.856 3.23322 26.7145 2.856 13.5271 20.3349 2.38 -3.14843 26.8863 2.38 0.08352196 17.2674 2.38 -15.544 19.4635 2.38 -10.5439 36.5621 2.38 -18.5948 30.8858 2.856 -18.5948 30.8858 2.38 -3.06232 47.6289 2.38 -3.06232 47.6289 2.856 6.25e-4 56.8178 2.38 16.5788 31.7168 4.284 -2.26325 45.9432 4.284 12.9531 53.0596 4.284 -16.2466 31.6073 4.284 11.8654 22.1787 4.284 2.54352 28.6211 4.284 6.75047 42.8744 4.284 8.500801 30.7131 2.38 -7.74051 30.6916 2.38 8.5008 30.7131 2.856 6.6456 31.8458 4.284 -5.71093 31.7297 4.284 -7.74051 30.6916 2.856</float_array>
          <technique_common>
            <accessor source="#pickup_powerup_supernova-mesh-positions-array" count="200" stride="3">
              <param name="X" type="float"/>
              <param name="Y" type="float"/>
              <param name="Z" type="float"/>
            </accessor>
          </technique_common>
        </source>
        <source id="pickup_powerup_supernova-mesh-normals">
          <float_array id="pickup_powerup_supernova-mesh-normals-array" count="1584">-0.4670695 -0.5938584 0.655117 -0.4670851 -0.5938522 0.6551116 -0.4670674 -0.5938479 0.6551281 -0.4670729 -0.5938409 0.6551305 -0.06927704 0.9467579 0.3144045 -0.0585491 0.8001751 0.5969018 -0.05852925 0.8001803 0.596897 -0.06928014 0.9467648 0.3143832 -0.07297891 0.9973336 -1.16152e-5 -0.07297891 0.9973335 0 -0.7784103 -0.6277559 1.07139e-5 -0.7784102 -0.627756 -7.37498e-6 -0.7389253 -0.5959259 0.3144229 -0.738935 -0.595915 0.3144209 -0.6245145 -0.5036529 0.5969216 -0.6245228 -0.5036374 0.5969261 -0.710206 -0.2386142 0.6623222 -0.7101858 -0.2386102 0.6623454 -0.7102045 -0.23861 0.6623253 -0.7101949 -0.2386282 0.6623291 0.6967017 0.2739237 0.6630027 0.6967229 0.2739199 0.6629821 0.6967172 0.2739148 0.6629901 0.6967018 0.2739021 0.6630116 0.38491 -0.642789 0.6623191 0.3849148 -0.6427838 0.6623213 0.384909 -0.6427922 0.6623167 0.3849013 -0.6427636 0.6623489 0.3848967 -0.642773 0.6623423 0.3849222 -0.642763 0.6623373 0.3849372 -0.6427634 0.6623282 0.3849108 -0.6427778 0.6623296 0.1525887 0.9590471 -0.2386323 0.1552999 0.9760511 0.1523361 0.1552965 0.9760547 0.1523165 0.1525926 0.959047 -0.2386304 0.5051638 -0.8317674 -0.2301576 0.5133467 -0.8458769 0.1448018 0.5128026 -0.8462052 0.1448111 0.5051566 -0.8317689 -0.2301684 0.9178154 -0.3060013 -0.252939 0.9394042 -0.3131951 0.1393864 0.9393999 -0.3132007 0.1394035 0.9178214 -0.3060146 -0.2529014 -0.6025385 -0.784032 -0.1491349 -0.5924268 -0.7692682 0.2392846 -0.6030023 -0.7836751 -0.1491357 -0.5924292 -0.7692683 0.2392783 0.9202435 0.3617926 -0.1491917 0.8995729 0.3536606 0.2563061 0.9202393 0.3617992 -0.1492013 0.8995708 0.3536849 0.2562801 0.8931447 0.4325629 0.1232151 0.8767811 0.4246371 -0.2256957 0.8767864 0.4246371 -0.2256743 0.8931404 0.4325622 0.1232486 -0.911795 0.3039144 -0.2761629 -0.9380667 0.3126882 0.1491882 -0.9117907 0.3039343 -0.276155 -0.9380649 0.3126946 0.1491856 -0.01752829 -0.9796003 -0.2001897 -0.01771199 -0.9904597 0.1366604 -0.01770621 -0.9904644 0.1366263 -0.01752221 -0.9796022 -0.2001816 -0.07154315 0.9776864 0.197512 -0.07206535 0.9849051 -0.1573802 -0.07206958 0.9849055 -0.1573758 -0.07153266 0.9776853 0.1975207 -0.9386711 -0.315379 -0.1394015 -0.9165341 -0.307956 0.2552025 -0.938664 -0.3153978 -0.1394073 -0.9165338 -0.3079525 0.2552083 -0.8045342 0.5591471 0.2001982 -0.8175264 0.5681785 -0.09393537 -0.8175274 0.5681815 -0.0939098 -0.8045381 0.5591522 0.2001686 -0.5622103 0.8171288 0.1273581 -0.5589522 0.7927843 -0.243034 -0.5589552 0.7927864 -0.2430202 -0.5622055 0.8171341 0.1273459 -0.5227587 -0.8435224 -0.123261 -0.5096504 -0.8223677 0.2529187 -0.5096569 -0.8223577 0.2529385 -0.5227632 -0.8435273 -0.1232084 0.5973773 0.7898632 -0.138768 0.5877891 0.7755603 0.2302399 0.5978973 0.7894743 -0.1387419 0.5877825 0.7755563 0.2302693 0.3419625 0.8982278 0.2761316 0.3533968 0.9282835 -0.1157612 0.3533892 0.9282828 -0.1157896 0.3419626 0.8982208 0.2761539 -0.5589655 0.7927865 -0.2429963 -0.5622148 0.8171246 0.1273656 -0.5616661 0.8175002 0.1273759 -0.558962 0.7927842 -0.243012 0.854055 -0.4622049 0.2386564 0.874283 -0.4731407 -0.1084768 0.8742845 -0.4731385 -0.1084752 0.8540597 -0.4622048 0.2386397 0.5114895 -0.8541402 0.09393155 0.5082753 -0.8197246 -0.2640222 0.508279 -0.819734 -0.2639862 0.5114901 -0.854144 0.09389245 -0.7731766 -0.623537 0.1157574 -0.7630793 -0.6153965 -0.197477 -0.7630738 -0.6153941 -0.1975059 -0.7731741 -0.6235356 0.1157816 0.02287238 -0.9739313 0.2256873 0.02323353 -0.9889773 -0.1462334 0.02322435 -0.98898 -0.1462171 0.02287662 -0.973934 0.2256751 0.4535174 -0.7314025 -0.5092862 0.4534978 -0.7314011 -0.5093057 0.02108877 -0.8978803 0.4397345 0.02109605 -0.8978877 0.439719 -0.4772449 0.7257971 -0.4954353 -0.4772311 0.7258065 -0.4954345 -0.9064612 0.3021518 0.2950124 -0.9064592 0.302173 0.2949972 0.9193146 -0.3065031 0.2468131 0.9193171 -0.3064873 0.2468234 -0.8039991 0.2679941 -0.5308153 -0.8040034 0.2679997 -0.530806 -0.06728559 0.9195297 0.3872184 -0.0672937 0.9195322 0.3872107 0.02269792 -0.9663956 -0.2560556 0.02270847 -0.9663931 -0.2560641 -0.8081539 0.5616687 -0.1772443 -0.8081635 0.5616639 -0.1772167 0.8084174 0.317846 0.4954143 0.8084238 0.3178231 0.4954185 0.1498436 0.9417616 0.3010514 0.1498306 0.9417472 0.3011032 -0.01734769 -0.969858 0.2430524 -0.01734727 -0.9698665 0.2430187 -0.01645469 -0.9197074 -0.3922597 -0.01646465 -0.9197082 -0.3922575 0.8772056 0.4248427 0.2236497 0.8771912 0.4248469 0.2236979 -0.8244379 -0.277018 0.4935215 -0.8244631 -0.2769998 0.4934894 0.8083335 0.3914929 -0.4396935 0.808324 0.3914962 -0.4397078 -0.536478 0.8158922 0.2156651 -0.5364588 0.8159033 0.2156707 -0.7575629 -0.6109367 0.2299022 -0.7575364 -0.6109401 0.2299801 0.889222 0.349605 -0.2950605 0.8892373 0.3496121 -0.2950059 -0.5081706 0.7207518 -0.4714654 -0.5081895 0.7207347 -0.4714713 -0.5134357 -0.8284694 -0.2236565 -0.5134386 -0.828463 -0.2236737 0.488845 -0.8239658 0.2865502 0.4888486 -0.8239674 0.2865395 0.5046898 -0.8428012 0.1870144 0.5046695 -0.8428199 0.186985 0.1392303 0.8750903 -0.4634997 0.1392422 0.8750939 -0.4634892 -0.5742453 -0.7637352 -0.2948746 -0.5742602 -0.763713 -0.2949029 0.3476726 0.9132407 -0.2124033 0.3476938 0.9132383 -0.2123794 -0.538969 0.8035418 0.252652 -0.538964 0.8035442 0.252655 0.8272978 -0.2758182 -0.4893903 0.8272912 -0.2758297 -0.489395 -0.4593766 -0.7412492 0.4894108 -0.459384 -0.7412573 0.4893914 0.5327162 0.7179123 0.4481246 0.5327144 0.7179188 0.448116 0.4561894 -0.7689034 -0.4479718 0.4561907 -0.7689098 -0.4479596 -0.06935274 0.9479093 -0.310899 -0.06936168 0.9479292 -0.3108364 0.3015269 0.7920337 0.5308147 0.3015075 0.7920404 0.5308157 0.8615256 -0.4662442 -0.2009731 0.8615218 -0.4662526 -0.2009692 0.7792867 -0.4217547 0.4635033 0.7793045 -0.4217403 0.4634865 -0.9185953 -0.3086483 -0.246818 -0.9185842 -0.3086555 -0.2468501 -0.7553583 0.5249665 0.3922295 -0.7553524 0.5249528 0.3922591 -0.5321666 -0.7077392 0.4646548 -0.5321662 -0.7077409 0.4646527 0.5729539 0.7721451 -0.2748013 0.572956 0.7721488 -0.2747868 -0.7176831 -0.5787935 -0.3872068 -0.7176867 -0.5787932 -0.3872006 -0.5762311 0.8172868 2.89601e-7 -0.5762307 0.8172872 2.00206e-6 -0.5762307 0.8172872 -1.55011e-6 -0.5762309 0.817287 1.93966e-5 0.1571328 0.9875776 0 0.1571326 0.9875776 0 0.1571326 0.9875776 0 0.1571328 0.9875776 0 0.6112237 0.791458 0 0.6112241 0.7914577 0 0.6112241 0.7914576 0 0.6112236 0.791458 0 0.9486634 -0.3162878 0 0.9486633 -0.3162878 0 0.9486633 -0.3162878 0 0.5137556 -0.8579366 8.68878e-6 0.5137553 -0.8579367 1.86076e-7 0.5137553 -0.8579368 0 0.5137557 -0.8579366 8.87487e-6 -0.6182126 -0.7860109 0 -0.618213 -0.7860107 0 -0.6182131 -0.7860107 0 -0.6182127 -0.786011 0 -0.9486841 0.3162257 0 -0.948684 0.3162259 0 -0.948684 0.3162259 0 -0.948684 0.3162257 0 0.466283 0.6037721 -0.6465596 0.4662757 0.6037715 -0.6465656 0.4662759 0.6038023 -0.6465367 0.4662982 0.6037719 -0.6465489 0.355794 0.9345645 0 0.3476763 0.913249 -0.2123616 0.355794 0.9345645 0 0.347666 0.9132543 -0.2123556 0.323696 0.8502662 -0.4150521 0.3236808 0.8502669 -0.4150627 -0.8211578 0.5707014 0 -0.8081461 0.5616934 -0.1772017 -0.8211578 0.5707015 3.67384e-6 -0.8081496 0.5616797 -0.1772291 -0.7695714 0.534856 -0.3488394 -0.7695758 0.5348486 -0.348841 0.02348077 -0.9997243 0 0.02270019 -0.9663949 -0.2560577 0.02348077 -0.9997243 0 0.02269345 -0.9663937 -0.2560629 0.02041119 -0.8686338 -0.495034 0.0204035 -0.8686257 -0.4950489 -0.7036804 0.2345734 -0.6706782 -0.7036967 0.2345545 -0.6706678 -0.7037009 0.2345597 -0.6706616 -0.7037088 0.2345527 -0.6706557 -0.4112942 0.6255127 -0.6630015 -0.4113013 0.6255246 -0.6629859 -0.4113169 0.6255146 -0.6629856 -0.4112984 0.6255047 -0.6630064 -0.5762301 0.8172876 0 -0.5589534 0.7927857 -0.2430269 -0.5762301 0.8172876 9.06457e-7 -0.5589673 0.7927849 -0.2429976 -0.5081752 0.7207577 -0.4714513 -0.5081894 0.7207528 -0.4714436 -0.5267844 -0.849999 0 -0.513436 -0.8284581 -0.2236981 -0.5267842 -0.8499991 0 -0.5134317 -0.8284624 -0.2236918 -0.4740651 -0.7649326 -0.4360509 -0.4740737 -0.7649545 -0.4360035 0.8794678 -0.4759585 -1.74573e-7 0.8615211 -0.4662495 -0.2009801 0.8794677 -0.4759587 -7.27347e-6 0.8615249 -0.4662356 -0.2009953 0.8084063 -0.4375043 -0.3937883 0.8084105 -0.4375176 -0.3937653 -0.4670698 -0.5938586 -0.6551167 -0.4670866 -0.5938542 -0.6551086 -0.4670729 -0.5938409 -0.6551305 -0.467069 -0.59385 -0.655125 0.7119852 -0.2373865 -0.6608517 0.7119953 -0.2373827 -0.6608422 0.7119986 -0.2373797 -0.6608396 0.7119849 -0.2373807 -0.6608539 0.1195145 0.7511015 -0.6492788 0.1195152 0.7511171 -0.6492605 0.1195144 0.7511033 -0.6492768 0.1195038 0.7510958 -0.6492873 -0.07297891 0.9973335 1.23233e-7 -0.07026147 0.9601805 -0.2704012 -0.07297891 0.9973335 4.36548e-6 -0.07025611 0.9601713 -0.2704354 -0.06231617 0.8515035 -0.5206328 -0.06230348 0.8514729 -0.5206844 -0.9479223 -0.3185021 0 -0.9185943 -0.3086487 -0.2468212 -0.9479222 -0.3185021 0 -0.9185975 -0.3086537 -0.2468029 -0.8324334 -0.279704 -0.4783517 -0.8324168 -0.27969 -0.4783888 0.930655 0.3658983 0 0.8986435 0.3533571 -0.2599593 0.9306548 0.3658986 0 0.8986644 0.353314 -0.259945 0.8048906 0.3164579 -0.5020015 0.8048815 0.3164492 -0.5020216 0.513741 -0.8579453 -7.4317e-7 0.5082628 -0.8197276 -0.2640374 0.5137405 -0.8579456 0 0.5082656 -0.8197299 -0.2640249 0.4534925 -0.731397 -0.5093163 0.453494 -0.7314051 -0.5093032 0.3849349 -0.6427801 -0.6623134 0.3849217 -0.6427625 -0.662338 0.3849108 -0.6427779 -0.6623296 0.3849367 -0.642763 -0.6623289 -0.5762311 0.8172868 0 -0.5762307 0.8172872 -1.55011e-6 -0.5762311 0.8172869 0 -0.5762307 0.8172872 1.55745e-6 0.8794678 -0.4759585 0 0.8794677 -0.4759587 0 0.8794678 -0.4759585 0 0.8794677 -0.4759587 0 0.513741 -0.8579453 7.42136e-6 0.5137405 -0.8579457 0 0.5137411 -0.8579454 -7.4317e-7 0.5137405 -0.8579456 0 -0.5267845 -0.849999 0 -0.5267842 -0.8499991 1.39843e-6 -0.5267845 -0.849999 0 -0.5267842 -0.8499991 1.43431e-6 0.5137557 -0.8579366 0 0.5137553 -0.8579368 0 0.5137556 -0.8579366 0 0.5137552 -0.8579368 0 -0.5762301 0.8172875 0 -0.5762299 0.8172878 0 -0.5762302 0.8172875 0 -0.5762299 0.8172877 0 -0.6182129 -0.7860108 0 -0.6182129 -0.7860108 0 -0.6182129 -0.7860108 0 -0.6182129 -0.7860107 0 0.355794 0.9345645 0 0.3557939 0.9345645 4.0033e-6 0.355794 0.9345645 0 0.3557939 0.9345645 4.10826e-6 0.9306549 0.3658982 0 0.4662839 0.6037732 0.6465581 0.4662752 0.6037707 0.6465667 0.4662725 0.6037904 0.6465502 0.4662707 0.6038039 0.6465389 0.2638988 0.6932196 0.6706744 0.263908 0.6932097 0.6706809 0.2639196 0.6932212 0.6706646 0.2639069 0.6932218 0.6706689 -0.4353351 0.6174678 0.6551465 -0.4353396 0.6174832 0.655129 -0.4353606 0.6174877 0.6551107 -0.4353354 0.6174755 0.655139 -0.4353605 0.6174592 0.6551377 -0.4353578 0.617481 0.6551189 -0.4353549 0.6174737 0.6551278 -0.4353603 0.6174756 0.6551225 -0.3953571 -0.6379455 0.6608467 -0.3953699 -0.6379429 0.6608416 -0.3953651 -0.637947 0.6608405 -0.3953582 -0.6379578 0.6608341 0.6688876 -0.3619992 0.6492658 0.6688948 -0.3619862 0.6492657 0.6688851 -0.3619859 0.6492757 0.6688923 -0.3619993 0.6492608 0.1515541 0.9525348 0.2640244 0.1352222 0.8498982 0.5093017 0.1352116 0.849879 0.5093365 0.151558 0.9525408 0.2640008 0.1571327 0.9875775 0 0.1571326 0.9875776 0 0 0 -1 4.74247e-5 0 -1 0 0 -1 0 0 -1 4.75489e-5 0 -1 0 0 -1 3.74814e-7 0 -1 0 0 -1 0 0 -1 0 0 -1 0 0 -1 0 0 -1 0 0 -1 0 0 -1 0 0 -1 4.73406e-5 0 -1 -4.60538e-5 1.26937e-5 -1 0 0 -1 0 0 -1 -1.70482e-7 0 -1 0 0 -1 0 0 -1 0 0 -1 0 0 -1 0 0 -1 0 0 -1 0 0 -1 0 0 -1 0 0 -1 0 0 -1 0 0 -1 0 0 -1 0 0 -1 0 0 -1 0 0 -1 0 0 -1 0 0 -1 0 0 -1 0 0 -1 -1.19455e-7 0 -1 -1.28062e-7 0 -1 3.05645e-7 0 -1 3.22782e-7 0 -1 0 0 -1 0 0 -1 0 0 -1 0 0 -1 0 0 -1 0 0 -1 0 0 -1 0 0 -1 0 0 -1 0 0 -1 -1.78682e-7 0 -1 -0.01696163 -0.9483062 -0.3169035 -0.01429623 -0.7990217 -0.6011323 -0.01429265 -0.7990157 -0.6011404 -0.01696383 -0.948309 -0.3168947 -0.01788854 -0.9998401 0 -0.01788854 -0.99984 0 0 0 1 0 0 1 0 0 1 0 0 1 0 0 1 0 0 1 0 0 1 0 0 1 0 0 1 -1.57066e-7 0 1 -1.68707e-7 0 1 0 0 1 0 0 1 0 0 1 0 0 1 0 0 1 0 0 1 0 0 1 0 0 1 -2.03226e-7 0 1 -2.14194e-7 0 1 1.91197e-7 0 1 2.05929e-7 0 1 0 0 1 0 0 1 0 0 1 0 0 1 0 0 1 0 0 1 0 0 1 0 0 1 0 0 1 0 0 1 -1.70109e-7 0 1 -1.75319e-7 0 1 0 0 1 0 0 1 0 0 1 0.8471368 0.4102791 -0.3376838 0.6947387 0.3364797 -0.6357041 0.6947515 0.3364812 -0.6356893 0.8471396 0.4102849 -0.3376697 0.9000031 0.4358835 1.34282e-7 0.9000033 0.4358834 5.11269e-6 0.9193166 -0.306499 0.2468106 0.9193103 -0.3065022 0.2468301 0.8330687 -0.2777491 0.4783848 0.833081 -0.2777436 0.4783666 -0.7389492 -0.5959187 -0.3143804 -0.6245145 -0.5036529 -0.5969216 -0.6245228 -0.5036374 -0.596926 -0.738937 -0.5959166 -0.3144131 -0.7784103 -0.6277558 0 -0.7784102 -0.6277559 0 0.9000033 0.4358834 5.40211e-6 0.9000031 0.4358837 -4.47188e-7 0.8771943 0.4248434 0.2236924 0.8771978 0.4248403 0.2236848 0.8099445 0.3922672 0.4360234 0.8099388 0.3922794 0.4360231 0 0 1 1.96089e-5 4.35611e-5 1 4.73406e-5 0 1 0 0 1 0 0 1 0 -1.76507e-7 1 0 2.00305e-7 1 0 1.47833e-7 1 0 0 1 0 0 1 0 0 1 0 0 1 3.74814e-7 0 1 0 0 1 4.75489e-5 0 1 0 0 1 4.74247e-5 0 1 -0.01788854 -0.99984 0 -0.01788848 -0.99984 0 -0.01735097 -0.9698612 0.2430394 -0.01735049 -0.969864 0.2430289 -0.01576632 -0.8817314 0.4714885 -0.01577377 -0.8817536 0.4714466 -0.7788372 0.5412863 0.316894 -0.6562356 0.4560686 0.6011294 -0.6562238 0.4560833 0.6011309 -0.778822 0.5413002 0.3169078 -0.8211578 0.5707014 0 -0.8211576 0.5707015 1.01498e-6 0.0221008 -0.9410006 0.3376827 0.01813328 -0.7717197 0.6357044 0.01812827 -0.771728 0.6356943 0.02210521 -0.9409974 0.3376911 0.02348077 -0.9997244 0 -0.9160705 0.3053592 0.2599437 -0.916075 0.3053537 0.2599341 -0.8204928 0.2735059 0.5019821 -0.820472 0.2735015 0.5020187</float_array>
          <technique_common>
            <accessor source="#pickup_powerup_supernova-mesh-normals-array" count="528" stride="3">
              <param name="X" type="float"/>
              <param name="Y" type="float"/>
              <param name="Z" type="float"/>
            </accessor>
          </technique_common>
        </source>
        <source id="pickup_powerup_supernova-mesh-map-0">
          <float_array id="pickup_powerup_supernova-mesh-map-0-array" count="2376">0.111971 0.495012 0.05869096 0.549196 0.03315299 0.557004 0.111971 0.495012 0.134931 0.494411 0.05869096 0.549196 0.1517159 0.56568 0.05869096 0.549196 0.174988 0.555578 0.1517159 0.56568 0.03315299 0.557004 0.05869096 0.549196 0.1517159 0.56568 0.03315299 0.557004 0.1517159 0.56568 0.1517159 0.56568 0.03315299 0.557004 0.03315299 0.557004 0.07211297 0.664386 0.1517159 0.56568 0.1517159 0.56568 0.07211297 0.664386 0.1517159 0.56568 0.07211297 0.664386 0.1517159 0.56568 0.09448599 0.648144 0.07211297 0.664386 0.1517159 0.56568 0.174988 0.555578 0.09448599 0.648144 0.193924 0.38779 0.229707 0.308359 0.201649 0.408722 0.193924 0.38779 0.229739 0.281199 0.229707 0.308359 0.268781 0.617839 0.229532 0.692563 0.262055 0.596644 0.268781 0.617839 0.228821 0.719476 0.229532 0.692563 0.348553 0.502121 0.411274 0.55203 0.325048 0.503328 0.348553 0.502121 0.437587 0.557326 0.411274 0.55203 0.193924 0.38779 0.077021 0.324652 0.05656194 0.305535 0.193924 0.38779 0.201649 0.408722 0.077021 0.324652 0.93552 0.245734 0.944028 0.203963 0.943794 0.245775 0.93552 0.245734 0.935752 0.203914 0.944028 0.203963 0.935344 0.284368 0.943794 0.245775 0.943618 0.284401 0.935344 0.284368 0.93552 0.245734 0.943794 0.245775 0.935028 0.5117 0.943263 0.469195 0.943292 0.511691 0.935028 0.5117 0.934998 0.469195 0.943263 0.469195 0.935591 0.766503 0.944031 0.803697 0.935748 0.803736 0.935591 0.766503 0.943873 0.766472 0.944031 0.803697 0.936788 0.04840099 0.94477 0.089778 0.936492 0.08972001 0.936788 0.04840099 0.945067 0.04845994 0.94477 0.089778 0.943364 0.368331 0.93502 0.417105 0.935092 0.368314 0.943364 0.368331 0.943289 0.417113 0.93502 0.417105 0.936539 0.945864 0.945078 0.987452 0.936788 0.987502 0.936539 0.945864 0.944829 0.945814 0.945078 0.987452 0.935453 0.724313 0.943624 0.680999 0.943733 0.72429 0.935453 0.724313 0.935349 0.681018 0.943624 0.680999 0.944031 0.803697 0.935953 0.844286 0.935748 0.803736 0.944031 0.803697 0.944238 0.844241 0.935953 0.844286 0.935028 0.5117 0.943359 0.554953 0.935092 0.554968 0.935028 0.5117 0.943292 0.511691 0.943359 0.554953 0.943494 0.620728 0.935349 0.681018 0.935223 0.620745 0.943494 0.620728 0.943624 0.680999 0.935349 0.681018 0.94477 0.089778 0.936095 0.148268 0.936492 0.08972001 0.94477 0.089778 0.944372 0.148321 0.936095 0.148268 0.934998 0.469195 0.943289 0.417113 0.943263 0.469195 0.934998 0.469195 0.93502 0.417105 0.943289 0.417113 0.935344 0.284368 0.94347 0.326313 0.935197 0.326289 0.935344 0.284368 0.943618 0.284401 0.94347 0.326313 0.944511 0.892344 0.936539 0.945864 0.936223 0.892392 0.944511 0.892344 0.944829 0.945814 0.936539 0.945864 0.935591 0.766503 0.943733 0.72429 0.943873 0.766472 0.935591 0.766503 0.935453 0.724313 0.943733 0.72429 0.944372 0.148321 0.935752 0.203914 0.936095 0.148268 0.944372 0.148321 0.944028 0.203963 0.935752 0.203914 0.943359 0.554953 0.935223 0.620745 0.935092 0.554968 0.943359 0.554953 0.943494 0.620728 0.935223 0.620745 0.944238 0.844241 0.936223 0.892392 0.935953 0.844286 0.944238 0.844241 0.944511 0.892344 0.936223 0.892392 0.94347 0.326313 0.935092 0.368314 0.935197 0.326289 0.94347 0.326313 0.943364 0.368331 0.935092 0.368314 0.691225 0.205646 0.567606 0.133521 0.693907 0.212916 0.691225 0.205646 0.561944 0.12823 0.567606 0.133521 0.806361 0.628752 0.895177 0.633426 0.799747 0.632789 0.806361 0.628752 0.902539 0.63101 0.895177 0.633426 0.755892 0.402697 0.862592 0.470592 0.753549 0.395311 0.755892 0.402697 0.867831 0.476301 0.862592 0.470592 0.691224 0.787428 0.72151 0.869926 0.721305 0.877672 0.691224 0.787428 0.694543 0.780426 0.72151 0.869926 0.753616 0.591068 0.722797 0.506407 0.722806 0.498658 0.753616 0.591068 0.75098 0.598355 0.722797 0.506407 0.691224 0.400424 0.72151 0.482922 0.694543 0.393423 0.691224 0.400424 0.721305 0.490668 0.72151 0.482922 0.646057 0.745311 0.561013 0.73628 0.653165 0.742225 0.646057 0.745311 0.553603 0.738546 0.561013 0.73628 0.806361 0.241748 0.895177 0.2464219 0.902539 0.244007 0.806361 0.241748 0.799747 0.2457849 0.895177 0.2464219 0.640697 0.2415429 0.567606 0.133521 0.561944 0.12823 0.640697 0.2415429 0.647596 0.2450709 0.567606 0.133521 0.755892 0.789701 0.72151 0.869926 0.753549 0.782315 0.755892 0.789701 0.721305 0.877672 0.72151 0.869926 0.807217 0.751302 0.894151 0.734733 0.901747 0.736262 0.807217 0.751302 0.800269 0.747873 0.894151 0.734733 0.640697 0.628547 0.549069 0.632594 0.541662 0.630319 0.640697 0.628547 0.647596 0.632075 0.549069 0.632594 0.640697 0.2415429 0.549068 0.24559 0.647596 0.2450709 0.640697 0.2415429 0.541662 0.243315 0.549068 0.24559 0.806361 0.628752 0.849872 0.533956 0.855059 0.5282 0.806361 0.628752 0.799747 0.632789 0.849872 0.533956 0.691225 0.59265 0.722797 0.506407 0.693907 0.59992 0.691225 0.59265 0.722806 0.498658 0.722797 0.506407 0.806361 0.241748 0.849872 0.146952 0.799747 0.2457849 0.806361 0.241748 0.855059 0.141196 0.849872 0.146952 0.755892 0.789701 0.862592 0.857596 0.867831 0.863305 0.755892 0.789701 0.753549 0.782315 0.862592 0.857596 0.646057 0.745311 0.583302 0.826349 0.577032 0.830901 0.646057 0.745311 0.653165 0.742225 0.583302 0.826349 0.755892 0.402697 0.72151 0.482922 0.721305 0.490668 0.755892 0.402697 0.753549 0.395311 0.72151 0.482922 0.549068 0.24559 0.620518 0.298912 0.628264 0.298709 0.549068 0.24559 0.541662 0.243315 0.620518 0.298912 0.753616 0.204064 0.849872 0.146952 0.855059 0.141196 0.753616 0.204064 0.75098 0.211351 0.849872 0.146952 0.894151 0.734733 0.826592 0.689662 0.901747 0.736262 0.894151 0.734733 0.818854 0.69006 0.826592 0.689662 0.691225 0.59265 0.567606 0.520525 0.561944 0.515234 0.691225 0.59265 0.693907 0.59992 0.567606 0.520525 0.807217 0.364298 0.894151 0.347729 0.800269 0.360869 0.807217 0.364298 0.901748 0.349258 0.894151 0.347729 0.561013 0.349277 0.620518 0.298912 0.553603 0.351542 0.561013 0.349277 0.628264 0.298709 0.620518 0.298912 0.691224 0.400424 0.583302 0.439345 0.577032 0.443898 0.691224 0.400424 0.694543 0.393423 0.583302 0.439345 0.549069 0.632594 0.620518 0.685916 0.541662 0.630319 0.549069 0.632594 0.628264 0.685713 0.620518 0.685916 0.753616 0.204064 0.722797 0.119403 0.75098 0.211351 0.753616 0.204064 0.722806 0.111654 0.722797 0.119403 0.753616 0.591068 0.849872 0.533956 0.75098 0.598355 0.753616 0.591068 0.855059 0.5282 0.849872 0.533956 0.895177 0.633426 0.826592 0.689662 0.818854 0.69006 0.895177 0.633426 0.902539 0.63101 0.826592 0.689662 0.894151 0.347729 0.826592 0.302658 0.818854 0.303056 0.894151 0.347729 0.901748 0.349258 0.826592 0.302658 0.646057 0.358307 0.561013 0.349277 0.553603 0.351542 0.646057 0.358307 0.653165 0.355222 0.561013 0.349277 0.691224 0.787428 0.583302 0.826349 0.694543 0.780426 0.691224 0.787428 0.577032 0.830901 0.583302 0.826349 0.807217 0.364298 0.862592 0.470592 0.867831 0.476301 0.807217 0.364298 0.800269 0.360869 0.862592 0.470592 0.807217 0.751302 0.862592 0.857596 0.800269 0.747873 0.807217 0.751302 0.867831 0.863305 0.862592 0.857596 0.691225 0.205646 0.722797 0.119403 0.722806 0.111654 0.691225 0.205646 0.693907 0.212916 0.722797 0.119403 0.640697 0.628547 0.567606 0.520525 0.647596 0.632075 0.640697 0.628547 0.561944 0.515234 0.567606 0.520525 0.561013 0.73628 0.620518 0.685916 0.628264 0.685713 0.561013 0.73628 0.553603 0.738546 0.620518 0.685916 0.895177 0.2464219 0.826592 0.302658 0.902539 0.244007 0.895177 0.2464219 0.818854 0.303056 0.826592 0.302658 0.646057 0.358307 0.583302 0.439345 0.653165 0.355222 0.646057 0.358307 0.577032 0.443898 0.583302 0.439345 0.06980299 0.697617 0.192157 0.617165 0.192157 0.617165 0.06980299 0.697617 0.06980299 0.697617 0.192157 0.617165 0.02335095 0.556652 0.13636 0.574632 0.13636 0.574632 0.02335095 0.556652 0.02335095 0.556652 0.13636 0.574632 0.02275496 0.432228 0.112385 0.501447 0.112385 0.501447 0.02275496 0.432228 0.02275496 0.432228 0.112385 0.501447 0.231198 0.280524 0.196295 0.385212 0.196295 0.385212 0.231198 0.280524 0.231198 0.280524 0.196295 0.385212 0.404375 0.304861 0.267013 0.387117 0.267013 0.387117 0.404375 0.304861 0.404375 0.304861 0.267013 0.387117 0.427785 0.55633 0.348966 0.494338 0.348966 0.494338 0.427785 0.55633 0.427785 0.55633 0.348966 0.494338 0.2321169 0.718802 0.266059 0.616975 0.266059 0.616975 0.2321169 0.718802 0.2321169 0.718802 0.266059 0.616975 0.112385 0.501447 0.048406 0.440645 0.1358889 0.502653 0.112385 0.501447 0.02275496 0.432228 0.048406 0.440645 0.266059 0.616975 0.388824 0.663712 0.388824 0.663712 0.266059 0.616975 0.266059 0.616975 0.388824 0.663712 0.266059 0.616975 0.366451 0.64747 0.388824 0.663712 0.266059 0.616975 0.257204 0.598294 0.366451 0.64747 0.3179 0.429285 0.404375 0.304861 0.404375 0.304861 0.3179 0.429285 0.3179 0.429285 0.404375 0.304861 0.3179 0.429285 0.383916 0.323977 0.404375 0.304861 0.3179 0.429285 0.29541 0.440788 0.383916 0.323977 0.137922 0.429523 0.02275496 0.432228 0.02275496 0.432228 0.137922 0.429523 0.137922 0.429523 0.02275496 0.432228 0.137922 0.429523 0.048406 0.440645 0.02275496 0.432228 0.137922 0.429523 0.158481 0.442075 0.048406 0.440645 0.266059 0.616975 0.231406 0.691889 0.257204 0.598294 0.266059 0.616975 0.2321169 0.718802 0.231406 0.691889 0.192157 0.617165 0.088584 0.677155 0.1988829 0.59597 0.192157 0.617165 0.06980299 0.697617 0.088584 0.677155 0.348966 0.494338 0.438182 0.431436 0.438182 0.431436 0.348966 0.494338 0.348966 0.494338 0.438182 0.431436 0.348966 0.494338 0.41216 0.439432 0.438182 0.431436 0.348966 0.494338 0.326006 0.493737 0.41216 0.439432 0.196295 0.385212 0.08222299 0.314517 0.08222299 0.314517 0.196295 0.385212 0.196295 0.385212 0.08222299 0.314517 0.196295 0.385212 0.100638 0.334949 0.08222299 0.314517 0.196295 0.385212 0.203938 0.406341 0.100638 0.334949 0.13636 0.574632 0.06980299 0.697617 0.06980299 0.697617 0.13636 0.574632 0.13636 0.574632 0.06980299 0.697617 0.13636 0.574632 0.088584 0.677155 0.06980299 0.697617 0.13636 0.574632 0.157319 0.564288 0.088584 0.677155 0.348966 0.494338 0.402247 0.548522 0.326006 0.493737 0.348966 0.494338 0.427785 0.55633 0.402247 0.548522 0.196295 0.385212 0.23123 0.307684 0.203938 0.406341 0.196295 0.385212 0.231198 0.280524 0.23123 0.307684 0.13636 0.574632 0.04966396 0.551356 0.157319 0.564288 0.13636 0.574632 0.02335095 0.556652 0.04966396 0.551356 0.309222 0.565006 0.427785 0.55633 0.427785 0.55633 0.309222 0.565006 0.309222 0.565006 0.427785 0.55633 0.309222 0.565006 0.402247 0.548522 0.427785 0.55633 0.309222 0.565006 0.28595 0.554904 0.402247 0.548522 0.267013 0.387117 0.231198 0.280524 0.231198 0.280524 0.267013 0.387117 0.267013 0.387117 0.231198 0.280524 0.267013 0.387117 0.23123 0.307684 0.231198 0.280524 0.267013 0.387117 0.259288 0.408048 0.23123 0.307684 0.192157 0.617165 0.2321169 0.718802 0.2321169 0.718802 0.192157 0.617165 0.192157 0.617165 0.2321169 0.718802 0.192157 0.617165 0.231406 0.691889 0.2321169 0.718802 0.192157 0.617165 0.1988829 0.59597 0.231406 0.691889 0.112385 0.501447 0.02335095 0.556652 0.02335095 0.556652 0.112385 0.501447 0.112385 0.501447 0.02335095 0.556652 0.112385 0.501447 0.04966396 0.551356 0.02335095 0.556652 0.112385 0.501447 0.1358889 0.502653 0.04966396 0.551356 0.267013 0.387117 0.383916 0.323977 0.259288 0.408048 0.267013 0.387117 0.404375 0.304861 0.383916 0.323977 0.391135 0.698291 0.268781 0.617839 0.391135 0.698291 0.391135 0.698291 0.268781 0.617839 0.268781 0.617839 0.324577 0.575306 0.391135 0.698291 0.324577 0.575306 0.324577 0.575306 0.391135 0.698291 0.391135 0.698291 0.348553 0.502121 0.437587 0.557326 0.348553 0.502121 0.348553 0.502121 0.437587 0.557326 0.437587 0.557326 0.438182 0.432902 0.348553 0.502121 0.438182 0.432902 0.438182 0.432902 0.348553 0.502121 0.348553 0.502121 0.264643 0.385886 0.378714 0.315192 0.264643 0.385886 0.264643 0.385886 0.378714 0.315192 0.378714 0.315192 0.193924 0.38779 0.229739 0.281199 0.193924 0.38779 0.193924 0.38779 0.229739 0.281199 0.229739 0.281199 0.05656194 0.305535 0.193924 0.38779 0.05656194 0.305535 0.05656194 0.305535 0.193924 0.38779 0.193924 0.38779 0.111971 0.495012 0.02275496 0.43211 0.111971 0.495012 0.111971 0.495012 0.02275496 0.43211 0.02275496 0.43211 0.03315299 0.557004 0.111971 0.495012 0.03315299 0.557004 0.03315299 0.557004 0.111971 0.495012 0.111971 0.495012 0.1948789 0.617649 0.07211297 0.664386 0.1948789 0.617649 0.1948789 0.617649 0.07211297 0.664386 0.07211297 0.664386 0.268781 0.617839 0.228821 0.719476 0.268781 0.617839 0.268781 0.617839 0.228821 0.719476 0.228821 0.719476 0.348553 0.502121 0.412532 0.441319 0.438182 0.432902 0.348553 0.502121 0.325048 0.503328 0.412532 0.441319 0.1948789 0.617649 0.09448599 0.648144 0.203733 0.598969 0.1948789 0.617649 0.07211297 0.664386 0.09448599 0.648144 0.268781 0.617839 0.372353 0.677829 0.391135 0.698291 0.268781 0.617839 0.262055 0.596644 0.372353 0.677829 0.111971 0.495012 0.04877698 0.440106 0.134931 0.494411 0.111971 0.495012 0.02275496 0.43211 0.04877698 0.440106 0.264643 0.385886 0.3603 0.335624 0.257 0.407015 0.264643 0.385886 0.378714 0.315192 0.3603 0.335624 0.324577 0.575306 0.372353 0.677829 0.303619 0.564962 0.324577 0.575306 0.391135 0.698291 0.372353 0.677829 0.324577 0.575306 0.303619 0.564962 0.411274 0.55203 0.324577 0.575306 0.411274 0.55203 0.437587 0.557326 0.437587 0.557326 0.324577 0.575306 0.437587 0.557326 0.437587 0.557326 0.324577 0.575306 0.324577 0.575306 0.28595 0.554904 0.326006 0.493737 0.402247 0.548522 0.28595 0.554904 0.41216 0.439432 0.326006 0.493737 0.28595 0.554904 0.29541 0.440788 0.41216 0.439432 0.28595 0.554904 0.383916 0.323977 0.29541 0.440788 0.28595 0.554904 0.259288 0.408048 0.383916 0.323977 0.28595 0.554904 0.23123 0.307684 0.259288 0.408048 0.28595 0.554904 0.203938 0.406341 0.23123 0.307684 0.28595 0.554904 0.100638 0.334949 0.203938 0.406341 0.28595 0.554904 0.158481 0.442075 0.100638 0.334949 0.28595 0.554904 0.048406 0.440645 0.158481 0.442075 0.28595 0.554904 0.1358889 0.502653 0.048406 0.440645 0.28595 0.554904 0.04966396 0.551356 0.1358889 0.502653 0.28595 0.554904 0.157319 0.564288 0.04966396 0.551356 0.28595 0.554904 0.088584 0.677155 0.157319 0.564288 0.28595 0.554904 0.1988829 0.59597 0.088584 0.677155 0.28595 0.554904 0.231406 0.691889 0.1988829 0.59597 0.28595 0.554904 0.257204 0.598294 0.231406 0.691889 0.28595 0.554904 0.366451 0.64747 0.257204 0.598294 0.694543 0.393423 0.697618 0.386935 0.60905 0.420654 0.722105 0.460398 0.697618 0.386935 0.694543 0.393423 0.722105 0.460398 0.694543 0.393423 0.72151 0.482922 0.753549 0.395311 0.722105 0.460398 0.72151 0.482922 0.753549 0.395311 0.750934 0.387072 0.722105 0.460398 0.839206 0.445114 0.750934 0.387072 0.753549 0.395311 0.839206 0.445114 0.753549 0.395311 0.862592 0.470592 0.800269 0.360869 0.839206 0.445114 0.862592 0.470592 0.800269 0.360869 0.791189 0.356387 0.839206 0.445114 0.872719 0.343415 0.791189 0.356387 0.800269 0.360869 0.872719 0.343415 0.800269 0.360869 0.894151 0.347729 0.818854 0.303056 0.872719 0.343415 0.894151 0.347729 0.818854 0.303056 0.808486 0.303588 0.872719 0.343415 0.873149 0.25365 0.808486 0.303588 0.818854 0.303056 0.873149 0.25365 0.818854 0.303056 0.895177 0.2464219 0.799747 0.2457849 0.873149 0.25365 0.895177 0.2464219 0.799747 0.2457849 0.790062 0.251699 0.873149 0.25365 0.830245 0.1687279 0.790062 0.251699 0.799747 0.2457849 0.830245 0.1687279 0.799747 0.2457849 0.849872 0.146952 0.75098 0.211351 0.830245 0.1687279 0.849872 0.146952 0.75098 0.211351 0.747949 0.219731 0.830245 0.1687279 0.722768 0.144204 0.747949 0.219731 0.75098 0.211351 0.722768 0.144204 0.75098 0.211351 0.722797 0.119403 0.693907 0.212916 0.722768 0.144204 0.722797 0.119403 0.693907 0.212916 0.69693 0.221105 0.722768 0.144204 0.59783 0.1617619 0.69693 0.221105 0.693907 0.212916 0.59783 0.1617619 0.693907 0.212916 0.567606 0.133521 0.647596 0.2450709 0.59783 0.1617619 0.567606 0.133521 0.647596 0.2450709 0.660217 0.251527 0.59783 0.1617619 0.57344 0.253079 0.660217 0.251527 0.647596 0.2450709 0.57344 0.253079 0.647596 0.2450709 0.549068 0.24559 0.628264 0.298709 0.57344 0.253079 0.549068 0.24559 0.628264 0.298709 0.637805 0.29846 0.57344 0.253079 0.580942 0.343184 0.637805 0.29846 0.628264 0.298709 0.580942 0.343184 0.628264 0.298709 0.561013 0.349277 0.653165 0.355222 0.580942 0.343184 0.561013 0.349277 0.653165 0.355222 0.666479 0.349442 0.580942 0.343184 0.60905 0.420654 0.666479 0.349442 0.653165 0.355222 0.60905 0.420654 0.653165 0.355222 0.583302 0.439345 0.694543 0.393423 0.60905 0.420654 0.583302 0.439345 0.3179 0.429285 0.41216 0.439432 0.29541 0.440788 0.3179 0.429285 0.438182 0.431436 0.41216 0.439432 0.438182 0.431436 0.438182 0.431436 0.3179 0.429285 0.438182 0.431436 0.3179 0.429285 0.3179 0.429285 0.722105 0.847402 0.750934 0.774076 0.753549 0.782315 0.753549 0.782315 0.750934 0.774076 0.839206 0.832118 0.753549 0.782315 0.839206 0.832118 0.862592 0.857596 0.839206 0.832118 0.800269 0.747873 0.862592 0.857596 0.839206 0.832118 0.791189 0.743391 0.800269 0.747873 0.800269 0.747873 0.791189 0.743391 0.872719 0.730419 0.800269 0.747873 0.872719 0.730419 0.894151 0.734733 0.872719 0.730419 0.818854 0.69006 0.894151 0.734733 0.872719 0.730419 0.808486 0.690592 0.818854 0.69006 0.818854 0.69006 0.808486 0.690592 0.873149 0.640654 0.818854 0.69006 0.873149 0.640654 0.895177 0.633426 0.873149 0.640654 0.799747 0.632789 0.895177 0.633426 0.873149 0.640654 0.790062 0.638703 0.799747 0.632789 0.799747 0.632789 0.790062 0.638703 0.830245 0.555732 0.799747 0.632789 0.830245 0.555732 0.849872 0.533956 0.830245 0.555732 0.75098 0.598355 0.849872 0.533956 0.830245 0.555732 0.747949 0.606735 0.75098 0.598355 0.75098 0.598355 0.747949 0.606735 0.722768 0.531208 0.75098 0.598355 0.722768 0.531208 0.722797 0.506407 0.722768 0.531208 0.693907 0.59992 0.722797 0.506407 0.722768 0.531208 0.69693 0.608109 0.693907 0.59992 0.693907 0.59992 0.69693 0.608109 0.59783 0.548766 0.693907 0.59992 0.59783 0.548766 0.567606 0.520525 0.59783 0.548766 0.647596 0.632075 0.567606 0.520525 0.59783 0.548766 0.660217 0.638531 0.647596 0.632075 0.647596 0.632075 0.660217 0.638531 0.57344 0.640083 0.647596 0.632075 0.57344 0.640083 0.549069 0.632594 0.57344 0.640083 0.628264 0.685713 0.549069 0.632594 0.57344 0.640083 0.637805 0.685464 0.628264 0.685713 0.628264 0.685713 0.637805 0.685464 0.580942 0.730187 0.628264 0.685713 0.580942 0.730187 0.561013 0.73628 0.580942 0.730187 0.653165 0.742225 0.561013 0.73628 0.580942 0.730187 0.666479 0.736446 0.653165 0.742225 0.653165 0.742225 0.666479 0.736446 0.60905 0.807657 0.653165 0.742225 0.60905 0.807657 0.583302 0.826349 0.60905 0.807657 0.694543 0.780426 0.583302 0.826349 0.60905 0.807657 0.697618 0.773939 0.694543 0.780426 0.694543 0.780426 0.697618 0.773939 0.722105 0.847402 0.694543 0.780426 0.722105 0.847402 0.72151 0.869926 0.722105 0.847402 0.753549 0.782315 0.72151 0.869926 0.137922 0.429523 0.100638 0.334949 0.158481 0.442075 0.137922 0.429523 0.08222299 0.314517 0.100638 0.334949 0.08222299 0.314517 0.08222299 0.314517 0.137922 0.429523 0.08222299 0.314517 0.137922 0.429523 0.137922 0.429523 0.229739 0.281199 0.264643 0.385886 0.264643 0.385886 0.229739 0.281199 0.264643 0.385886 0.229739 0.281199 0.264643 0.385886 0.229707 0.308359 0.229739 0.281199 0.264643 0.385886 0.257 0.407015 0.229707 0.308359 0.309222 0.565006 0.366451 0.64747 0.28595 0.554904 0.309222 0.565006 0.388824 0.663712 0.366451 0.64747 0.388824 0.663712 0.388824 0.663712 0.309222 0.565006 0.388824 0.663712 0.309222 0.565006 0.309222 0.565006 0.378714 0.315192 0.323015 0.430197 0.323015 0.430197 0.378714 0.315192 0.323015 0.430197 0.378714 0.315192 0.323015 0.430197 0.3603 0.335624 0.378714 0.315192 0.323015 0.430197 0.302457 0.442749 0.3603 0.335624 0.174988 0.555578 0.203733 0.598969 0.09448599 0.648144 0.174988 0.555578 0.229532 0.692563 0.203733 0.598969 0.174988 0.555578 0.262055 0.596644 0.229532 0.692563 0.174988 0.555578 0.372353 0.677829 0.262055 0.596644 0.174988 0.555578 0.303619 0.564962 0.372353 0.677829 0.174988 0.555578 0.411274 0.55203 0.303619 0.564962 0.174988 0.555578 0.325048 0.503328 0.411274 0.55203 0.174988 0.555578 0.412532 0.441319 0.325048 0.503328 0.174988 0.555578 0.302457 0.442749 0.412532 0.441319 0.174988 0.555578 0.3603 0.335624 0.302457 0.442749 0.174988 0.555578 0.257 0.407015 0.3603 0.335624 0.174988 0.555578 0.229707 0.308359 0.257 0.407015 0.174988 0.555578 0.201649 0.408722 0.229707 0.308359 0.174988 0.555578 0.077021 0.324652 0.201649 0.408722 0.174988 0.555578 0.1655279 0.441462 0.077021 0.324652 0.174988 0.555578 0.04877698 0.440106 0.1655279 0.441462 0.174988 0.555578 0.134931 0.494411 0.04877698 0.440106 0.174988 0.555578 0.05869096 0.549196 0.134931 0.494411 0.02275496 0.43211 0.143037 0.429959 0.143037 0.429959 0.02275496 0.43211 0.143037 0.429959 0.02275496 0.43211 0.143037 0.429959 0.04877698 0.440106 0.02275496 0.43211 0.143037 0.429959 0.1655279 0.441462 0.04877698 0.440106 0.143037 0.429959 0.077021 0.324652 0.1655279 0.441462 0.143037 0.429959 0.05656194 0.305535 0.077021 0.324652 0.143037 0.429959 0.05656194 0.305535 0.143037 0.429959 0.143037 0.429959 0.05656194 0.305535 0.05656194 0.305535 0.323015 0.430197 0.412532 0.441319 0.302457 0.442749 0.323015 0.430197 0.438182 0.432902 0.412532 0.441319 0.323015 0.430197 0.438182 0.432902 0.323015 0.430197 0.323015 0.430197 0.438182 0.432902 0.438182 0.432902 0.228821 0.719476 0.1948789 0.617649 0.1948789 0.617649 0.228821 0.719476 0.1948789 0.617649 0.228821 0.719476 0.1948789 0.617649 0.229532 0.692563 0.228821 0.719476 0.1948789 0.617649 0.203733 0.598969 0.229532 0.692563</float_array>
          <technique_common>
            <accessor source="#pickup_powerup_supernova-mesh-map-0-array" count="1188" stride="2">
              <param name="S" type="float"/>
              <param name="T" type="float"/>
            </accessor>
          </technique_common>
        </source>
        <vertices id="pickup_powerup_supernova-mesh-vertices">
          <input semantic="POSITION" source="#pickup_powerup_supernova-mesh-positions"/>
        </vertices>
        <triangles material="pickup_powerup_set_new-material" count="396">
          <input semantic="VERTEX" source="#pickup_powerup_supernova-mesh-vertices" offset="0"/>
          <input semantic="NORMAL" source="#pickup_powerup_supernova-mesh-normals" offset="1"/>
          <input semantic="TEXCOORD" source="#pickup_powerup_supernova-mesh-map-0" offset="2" set="0"/>
          <p>0 0 0 1 1 1 2 2 2 0 0 3 3 3 4 1 1 5 4 4 6 1 5 7 5 6 8 4 4 9 2 7 10 1 5 11 6 8 12 2 7 13 4 4 14 6 8 15 7 9 16 2 7 17 8 10 18 6 11 19 4 12 20 8 10 21 4 12 22 9 13 23 4 12 24 10 14 25 9 13 26 4 12 27 5 15 28 10 14 29 11 16 30 12 17 31 13 18 32 11 16 33 14 19 34 12 17 35 15 20 36 16 21 37 17 22 38 15 20 39 18 23 40 16 21 41 19 24 42 20 25 43 21 26 44 19 24 45 22 27 46 20 25 47 11 28 48 23 29 49 24 30 50 11 28 51 13 31 52 23 29 53 25 32 54 26 33 55 27 34 56 25 32 57 28 35 58 26 33 59 29 36 60 27 37 61 30 38 62 29 36 63 25 39 64 27 37 65 31 40 66 32 41 67 33 42 68 31 40 69 34 43 70 32 41 71 35 44 72 36 45 73 37 46 74 35 44 75 38 47 76 36 45 77 39 48 78 40 49 79 41 50 80 39 48 81 42 51 82 40 49 83 43 52 84 44 53 85 45 54 86 43 52 87 46 55 88 44 53 89 47 56 90 42 57 91 39 58 92 47 56 93 48 59 94 42 57 95 49 60 96 50 61 97 51 62 98 49 60 99 52 63 100 50 61 101 36 64 102 53 65 103 37 66 104 36 64 105 54 67 106 53 65 107 31 68 108 55 69 109 56 70 110 31 68 111 33 71 112 55 69 113 57 72 114 52 73 115 58 74 116 57 72 117 50 75 118 52 73 119 40 76 120 59 77 121 41 78 122 40 76 123 60 79 124 59 77 125 34 80 126 46 81 127 32 82 128 34 80 129 44 83 130 46 81 131 29 84 132 61 85 133 62 86 134 29 84 135 30 87 136 61 85 137 63 88 138 47 89 139 64 90 140 63 88 141 48 91 142 47 89 143 35 92 144 51 93 145 38 94 146 35 92 147 49 95 148 51 93 149 60 96 150 28 97 151 59 98 152 60 96 153 26 99 154 28 97 155 55 100 156 58 101 157 56 102 158 55 100 159 57 103 160 58 101 161 54 104 162 64 105 163 53 106 164 54 104 165 63 107 166 64 105 167 61 108 168 45 109 169 62 110 170 61 108 171 43 111 172 45 109 173 56 102 174 65 112 175 66 113 176 56 102 177 58 101 178 65 112 179 43 111 180 67 114 181 68 115 182 43 111 183 61 108 184 67 114 185 41 78 186 69 116 187 70 117 188 41 78 189 59 77 190 69 116 191 48 59 192 71 118 193 42 57 194 48 59 195 72 119 196 71 118 197 32 41 198 73 120 199 33 42 200 32 41 201 74 121 202 73 120 203 47 56 204 75 122 205 76 123 206 47 56 207 39 58 208 75 122 209 54 67 210 77 124 211 78 125 212 54 67 213 36 64 214 77 124 215 45 109 216 79 126 217 62 110 218 45 109 219 80 127 220 79 126 221 52 73 222 65 128 223 58 74 224 52 73 225 81 129 226 65 128 227 40 49 228 71 130 229 82 131 230 40 49 231 42 51 232 71 130 233 26 33 234 83 132 235 27 34 236 26 33 237 84 133 238 83 132 239 50 61 240 85 134 241 51 62 242 50 61 243 86 135 244 85 134 245 52 63 246 87 136 247 81 137 248 52 63 249 49 60 250 87 136 251 43 52 252 88 138 253 46 55 254 43 52 255 68 139 256 88 138 257 55 69 258 73 140 259 89 141 260 55 69 261 33 71 262 73 140 263 45 54 264 90 142 265 80 143 266 45 54 267 44 53 268 90 142 269 40 76 270 91 144 271 60 79 272 40 76 273 82 145 274 91 144 275 54 104 276 92 146 277 63 107 278 54 104 279 78 147 280 92 146 281 41 50 282 75 148 283 39 48 284 41 50 285 70 149 286 75 148 287 87 150 288 35 92 289 93 151 290 87 150 291 49 95 292 35 92 293 34 80 294 90 152 295 44 83 296 34 80 297 94 153 298 90 152 299 83 154 300 30 38 301 27 37 302 83 154 303 95 155 304 30 38 305 55 100 306 96 156 307 57 103 308 55 100 309 89 157 310 96 156 311 28 35 312 97 158 313 98 159 314 28 35 315 25 32 316 97 158 317 99 160 318 35 44 319 37 46 320 99 160 321 93 161 322 35 44 323 47 89 324 100 162 325 64 90 326 47 89 327 76 163 328 100 162 329 85 164 330 38 94 331 51 93 332 85 164 333 101 165 334 38 94 335 34 43 336 102 166 337 94 167 338 34 43 339 31 40 340 102 166 341 32 82 342 88 168 343 74 169 344 32 82 345 46 81 346 88 168 347 67 170 348 30 87 349 95 171 350 67 170 351 61 85 352 30 87 353 97 172 354 29 36 355 103 173 356 97 172 357 25 39 358 29 36 359 53 65 360 99 174 361 37 66 362 53 65 363 104 175 364 99 174 365 48 91 366 92 176 367 72 177 368 48 91 369 63 88 370 92 176 371 28 97 372 69 178 373 59 98 374 28 97 375 98 179 376 69 178 377 26 99 378 91 180 379 84 181 380 26 99 381 60 96 382 91 180 383 56 70 384 102 182 385 31 68 386 56 70 387 66 183 388 102 182 389 50 75 390 96 184 391 86 185 392 50 75 393 57 72 394 96 184 395 77 186 396 38 47 397 101 187 398 77 186 399 36 45 400 38 47 401 79 188 402 29 84 403 62 86 404 79 188 405 103 189 406 29 84 407 53 106 408 100 190 409 104 191 410 53 106 411 64 105 412 100 190 413 105 192 414 106 193 415 107 194 416 105 192 417 108 195 418 106 193 419 109 196 420 110 197 421 111 198 422 109 196 423 112 199 424 110 197 425 113 200 426 114 201 427 115 202 428 113 200 429 116 203 430 114 201 431 117 204 432 118 204 433 119 205 434 117 204 435 120 206 436 118 204 437 121 207 438 122 208 439 123 209 440 121 207 441 124 210 442 122 208 443 125 211 444 126 212 445 127 213 446 125 211 447 128 214 448 126 212 449 129 215 450 130 216 451 131 217 452 129 215 453 132 218 454 130 216 455 114 219 456 133 220 457 134 221 458 114 219 459 116 222 460 133 220 461 131 223 462 135 224 463 136 225 464 131 223 465 130 226 466 135 224 467 130 226 468 137 227 469 135 224 470 130 226 471 138 228 472 137 227 473 139 229 474 124 230 475 121 231 476 139 229 477 140 232 478 124 230 479 140 232 480 141 233 481 124 230 482 140 232 483 142 234 484 141 233 485 143 235 486 116 236 487 113 237 488 143 235 489 144 238 490 116 236 491 144 238 492 133 239 493 116 236 494 144 238 495 145 240 496 133 239 497 130 241 498 146 242 499 138 243 500 130 241 501 132 244 502 146 242 503 106 245 504 147 246 505 148 247 506 106 245 507 108 248 508 147 246 509 127 249 510 149 250 511 150 251 512 127 249 513 126 252 514 149 250 515 126 252 516 151 253 517 149 250 518 126 252 519 152 254 520 151 253 521 119 255 522 153 256 523 154 257 524 119 255 525 118 258 526 153 256 527 118 258 528 155 259 529 153 256 530 118 258 531 156 260 532 155 259 533 111 261 534 108 262 535 105 263 536 111 261 537 110 264 538 108 262 539 110 264 540 147 265 541 108 262 542 110 264 543 157 266 544 147 265 545 126 267 546 158 268 547 152 269 548 126 267 549 128 270 550 158 268 551 118 271 552 159 272 553 156 273 554 118 271 555 120 274 556 159 272 557 110 275 558 160 276 559 157 277 560 110 275 561 112 278 562 160 276 563 161 279 564 128 280 565 125 281 566 161 279 567 162 282 568 128 280 569 162 282 570 158 283 571 128 280 572 162 282 573 163 284 574 158 283 575 123 285 576 120 286 577 117 287 578 123 285 579 122 288 580 120 286 581 122 288 582 159 289 583 120 286 584 122 288 585 164 290 586 159 289 587 107 291 588 132 292 589 129 293 590 107 291 591 106 294 592 132 292 593 106 294 594 146 295 595 132 292 596 106 294 597 148 296 598 146 295 599 115 297 600 112 298 601 109 299 602 115 297 603 114 300 604 112 298 605 114 300 606 160 301 607 112 298 608 114 300 609 134 302 610 160 301 611 122 303 612 141 304 613 164 305 614 122 303 615 124 306 616 141 304 617 165 307 618 15 308 619 166 309 620 165 307 621 167 310 622 15 308 623 168 311 624 166 312 625 169 313 626 168 311 627 165 314 628 166 312 629 170 315 630 22 316 631 19 317 632 170 315 633 171 318 634 22 316 635 172 200 636 19 201 637 173 203 638 172 200 639 170 202 640 19 201 641 174 319 642 175 320 643 176 321 644 174 319 645 177 322 646 175 320 647 178 285 648 14 285 649 11 287 650 178 285 651 179 287 652 14 285 653 180 323 654 11 324 655 24 325 656 180 323 657 178 326 658 11 324 659 181 327 660 182 328 661 0 329 662 181 327 663 183 330 664 182 328 665 7 331 666 0 332 667 2 333 668 7 331 669 181 334 670 0 332 671 184 335 672 9 336 673 185 337 674 184 335 675 8 338 676 9 336 677 167 291 678 18 293 679 15 339 680 167 291 681 186 293 682 18 293 683 19 340 684 187 341 685 173 342 686 19 340 687 21 343 688 187 341 689 185 344 690 10 345 691 188 346 692 185 344 693 9 347 694 10 345 695 15 348 696 189 349 697 166 350 698 15 348 699 17 351 700 189 349 701 0 352 702 190 353 703 3 354 704 0 352 705 182 355 706 190 353 707 176 356 708 191 357 709 192 358 710 176 356 711 175 359 712 191 357 713 169 360 714 189 361 715 193 362 716 169 360 717 166 363 718 189 361 719 169 364 720 193 365 721 20 366 722 169 364 723 20 366 724 22 367 725 171 368 726 169 364 727 22 367 728 171 368 729 168 369 730 169 364 731 163 370 732 152 371 733 158 372 734 163 370 735 151 373 736 152 371 737 163 370 738 142 374 739 151 373 740 163 370 741 141 375 742 142 374 743 163 370 744 164 376 745 141 375 746 163 370 747 159 377 748 164 376 749 163 370 750 156 378 751 159 377 752 163 370 753 155 379 754 156 378 755 163 370 756 145 380 757 155 379 758 163 370 759 133 381 760 145 380 761 163 370 762 134 372 763 133 381 764 163 370 765 160 382 766 134 372 767 163 370 768 157 383 769 160 382 770 163 370 771 147 384 772 157 383 773 163 370 774 148 385 775 147 384 776 163 370 777 146 372 778 148 385 779 163 370 780 138 386 781 146 372 782 163 370 783 137 372 784 138 386 785 76 387 786 131 388 787 136 389 788 129 390 789 131 388 790 76 387 791 129 390 792 76 387 793 75 391 794 70 392 795 129 390 796 75 391 797 70 392 798 107 393 799 129 390 800 105 394 801 107 393 802 70 392 803 105 394 804 70 392 805 69 395 806 98 396 807 105 394 808 69 395 809 98 396 810 111 372 811 105 394 812 109 397 813 111 372 814 98 396 815 109 397 816 98 396 817 97 398 818 103 399 819 109 397 820 97 398 821 103 399 822 115 400 823 109 397 824 113 401 825 115 400 826 103 399 827 113 401 828 103 399 829 79 402 830 80 403 831 113 401 832 79 402 833 80 403 834 143 404 835 113 401 836 154 405 837 143 404 838 80 403 839 154 405 840 80 403 841 90 406 842 94 407 843 154 405 844 90 406 845 94 407 846 119 408 847 154 405 848 117 409 849 119 408 850 94 407 851 117 409 852 94 407 853 102 410 854 66 411 855 117 409 856 102 410 857 66 411 858 123 412 859 117 409 860 121 413 861 123 412 862 66 411 863 121 413 864 66 411 865 65 414 866 81 415 867 121 413 868 65 414 869 81 415 870 139 372 871 121 413 872 150 416 873 139 372 874 81 415 875 150 416 876 81 415 877 87 417 878 93 418 879 150 416 880 87 417 881 93 418 882 127 419 883 150 416 884 125 420 885 127 419 886 93 418 887 125 420 888 93 418 889 99 372 890 104 421 891 125 420 892 99 372 893 104 421 894 161 422 895 125 420 896 136 389 897 161 422 898 104 421 899 136 389 900 104 421 901 100 423 902 76 387 903 136 389 904 100 423 905 140 424 906 151 425 907 142 426 908 140 424 909 149 427 910 151 425 911 150 428 912 149 427 913 140 424 914 150 428 915 140 424 916 139 429 917 186 430 918 167 431 919 82 432 920 82 432 921 167 431 922 165 433 923 82 432 924 165 433 925 91 434 926 165 433 927 84 435 928 91 434 929 165 433 930 168 436 931 84 435 932 84 435 933 168 436 934 171 437 935 84 435 936 171 437 937 83 438 938 171 437 939 95 439 940 83 438 941 171 437 942 170 440 943 95 439 944 95 439 945 170 440 946 172 441 947 95 439 948 172 441 949 67 442 950 172 441 951 68 443 952 67 442 953 172 441 954 194 444 955 68 443 956 68 443 957 194 444 958 177 445 959 68 443 960 177 445 961 88 446 962 177 445 963 74 447 964 88 446 965 177 445 966 174 448 967 74 447 968 74 447 969 174 448 970 179 449 971 74 447 972 179 449 973 73 450 974 179 449 975 89 451 976 73 450 977 179 449 978 178 452 979 89 451 980 89 451 981 178 452 982 180 444 983 89 451 984 180 444 985 96 444 986 180 444 987 86 453 988 96 444 989 180 444 990 195 454 991 86 453 992 86 453 993 195 454 994 183 455 995 86 453 996 183 455 997 85 456 998 183 455 999 101 457 1000 85 456 1001 183 455 1002 181 458 1003 101 457 1004 101 457 1005 181 458 1006 7 459 1007 101 457 1008 7 459 1009 77 460 1010 7 459 1011 78 461 1012 77 460 1013 7 459 1014 6 462 1015 78 461 1016 78 461 1017 6 462 1018 8 463 1019 78 461 1020 8 463 1021 92 464 1022 8 463 1023 72 465 1024 92 464 1025 8 463 1026 184 466 1027 72 465 1028 72 465 1029 184 466 1030 186 430 1031 72 465 1032 186 430 1033 71 467 1034 186 430 1035 82 432 1036 71 467 1037 144 468 1038 155 469 1039 145 470 1040 144 468 1041 153 471 1042 155 469 1043 154 472 1044 153 471 1045 144 468 1046 154 472 1047 144 468 1048 143 473 1049 179 204 1050 174 205 1051 176 474 1052 179 204 1053 176 474 1054 14 475 1055 176 474 1056 12 476 1057 14 475 1058 176 474 1059 192 477 1060 12 476 1061 162 478 1062 137 479 1063 163 480 1064 162 478 1065 135 481 1066 137 479 1067 136 482 1068 135 481 1069 162 478 1070 136 482 1071 162 478 1072 161 483 1073 177 484 1074 194 485 1075 196 486 1076 177 484 1077 196 486 1078 175 487 1079 196 486 1080 191 488 1081 175 487 1082 196 486 1083 197 489 1084 191 488 1085 5 490 1086 188 491 1087 10 444 1088 5 490 1089 16 444 1090 188 491 1091 5 490 1092 17 492 1093 16 444 1094 5 490 1095 189 493 1096 17 492 1097 5 490 1098 193 494 1099 189 493 1100 5 490 1101 20 495 1102 193 494 1103 5 490 1104 21 496 1105 20 495 1106 5 490 1107 187 497 1108 21 496 1109 5 490 1110 197 498 1111 187 497 1112 5 490 1113 191 499 1114 197 498 1115 5 490 1116 192 500 1117 191 499 1118 5 490 1119 12 501 1120 192 500 1121 5 490 1122 13 502 1123 12 501 1124 5 490 1125 23 503 1126 13 502 1127 5 490 1128 198 504 1129 23 503 1130 5 490 1131 190 505 1132 198 504 1133 5 490 1134 3 506 1135 190 505 1136 5 490 1137 1 444 1138 3 506 1139 183 507 1140 195 508 1141 199 509 1142 183 507 1143 199 509 1144 182 510 1145 199 509 1146 190 511 1147 182 510 1148 199 509 1149 198 512 1150 190 511 1151 199 513 1152 23 514 1153 198 515 1154 199 513 1155 24 516 1156 23 514 1157 195 517 1158 24 516 1159 199 513 1160 195 517 1161 180 518 1162 24 516 1163 196 519 1164 187 520 1165 197 521 1166 196 519 1167 173 522 1168 187 520 1169 194 523 1170 173 522 1171 196 519 1172 194 523 1173 172 237 1174 173 522 1175 186 215 1176 184 217 1177 185 524 1178 186 215 1179 185 524 1180 18 525 1181 185 524 1182 16 526 1183 18 525 1184 185 524 1185 188 527 1186 16 526 1187</p>
        </triangles>
      </mesh>
    </geometry>
  </library_geometries>
  <library_controllers>
    <controller id="pickup_powerup_supernova_qc_skeleton_pickup_powerup_supernova-skin" name="pickup_powerup_supernova.qc_skeleton">
      <skin source="#pickup_powerup_supernova-mesh">
        <bind_shape_matrix>1 0 0 0 0 1 0 0 0 0 1 0 0 0 0 1</bind_shape_matrix>
        <source id="pickup_powerup_supernova_qc_skeleton_pickup_powerup_supernova-skin-joints">
          <Name_array id="pickup_powerup_supernova_qc_skeleton_pickup_powerup_supernova-skin-joints-array" count="1">jnt_spin</Name_array>
          <technique_common>
            <accessor source="#pickup_powerup_supernova_qc_skeleton_pickup_powerup_supernova-skin-joints-array" count="1" stride="1">
              <param name="JOINT" type="name"/>
            </accessor>
          </technique_common>
        </source>
        <source id="pickup_powerup_supernova_qc_skeleton_pickup_powerup_supernova-skin-bind_poses">
          <float_array id="pickup_powerup_supernova_qc_skeleton_pickup_powerup_supernova-skin-bind_poses-array" count="16">0.9985334 0 -0.05413848 0 0 1 0 0 0.05413848 0 0.9985334 0 0 0 0 1</float_array>
          <technique_common>
            <accessor source="#pickup_powerup_supernova_qc_skeleton_pickup_powerup_supernova-skin-bind_poses-array" count="1" stride="16">
              <param name="TRANSFORM" type="float4x4"/>
            </accessor>
          </technique_common>
        </source>
        <source id="pickup_powerup_supernova_qc_skeleton_pickup_powerup_supernova-skin-weights">
          <float_array id="pickup_powerup_supernova_qc_skeleton_pickup_powerup_supernova-skin-weights-array" count="200">1 1 1 1 1 1 1 1 1 1 1 1 1 1 1 1 1 1 1 1 1 1 1 1 1 1 1 1 1 1 1 1 1 1 1 1 1 1 1 1 1 1 1 1 1 1 1 1 1 1 1 1 1 1 1 1 1 1 1 1 1 1 1 1 1 1 1 1 1 1 1 1 1 1 1 1 1 1 1 1 1 1 1 1 1 1 1 1 1 1 1 1 1 1 1 1 1 1 1 1 1 1 1 1 1 1 1 1 1 1 1 1 1 1 1 1 1 1 1 1 1 1 1 1 1 1 1 1 1 1 1 1 1 1 1 1 1 1 1 1 1 1 1 1 1 1 1 1 1 1 1 1 1 1 1 1 1 1 1 1 1 1 1 1 1 1 1 1 1 1 1 1 1 1 1 1 1 1 1 1 1 1 1 1 1 1 1 1 1 1 1 1 1 1 1 1 1 1 1 1</float_array>
          <technique_common>
            <accessor source="#pickup_powerup_supernova_qc_skeleton_pickup_powerup_supernova-skin-weights-array" count="200" stride="1">
              <param name="WEIGHT" type="float"/>
            </accessor>
          </technique_common>
        </source>
        <joints>
          <input semantic="JOINT" source="#pickup_powerup_supernova_qc_skeleton_pickup_powerup_supernova-skin-joints"/>
          <input semantic="INV_BIND_MATRIX" source="#pickup_powerup_supernova_qc_skeleton_pickup_powerup_supernova-skin-bind_poses"/>
        </joints>
        <vertex_weights count="200">
          <input semantic="JOINT" source="#pickup_powerup_supernova_qc_skeleton_pickup_powerup_supernova-skin-joints" offset="0"/>
          <input semantic="WEIGHT" source="#pickup_powerup_supernova_qc_skeleton_pickup_powerup_supernova-skin-weights" offset="1"/>
          <vcount>1 1 1 1 1 1 1 1 1 1 1 1 1 1 1 1 1 1 1 1 1 1 1 1 1 1 1 1 1 1 1 1 1 1 1 1 1 1 1 1 1 1 1 1 1 1 1 1 1 1 1 1 1 1 1 1 1 1 1 1 1 1 1 1 1 1 1 1 1 1 1 1 1 1 1 1 1 1 1 1 1 1 1 1 1 1 1 1 1 1 1 1 1 1 1 1 1 1 1 1 1 1 1 1 1 1 1 1 1 1 1 1 1 1 1 1 1 1 1 1 1 1 1 1 1 1 1 1 1 1 1 1 1 1 1 1 1 1 1 1 1 1 1 1 1 1 1 1 1 1 1 1 1 1 1 1 1 1 1 1 1 1 1 1 1 1 1 1 1 1 1 1 1 1 1 1 1 1 1 1 1 1 1 1 1 1 1 1 1 1 1 1 1 1 1 1 1 1 1 1 </vcount>
          <v>0 0 0 1 0 2 0 3 0 4 0 5 0 6 0 7 0 8 0 9 0 10 0 11 0 12 0 13 0 14 0 15 0 16 0 17 0 18 0 19 0 20 0 21 0 22 0 23 0 24 0 25 0 26 0 27 0 28 0 29 0 30 0 31 0 32 0 33 0 34 0 35 0 36 0 37 0 38 0 39 0 40 0 41 0 42 0 43 0 44 0 45 0 46 0 47 0 48 0 49 0 50 0 51 0 52 0 53 0 54 0 55 0 56 0 57 0 58 0 59 0 60 0 61 0 62 0 63 0 64 0 65 0 66 0 67 0 68 0 69 0 70 0 71 0 72 0 73 0 74 0 75 0 76 0 77 0 78 0 79 0 80 0 81 0 82 0 83 0 84 0 85 0 86 0 87 0 88 0 89 0 90 0 91 0 92 0 93 0 94 0 95 0 96 0 97 0 98 0 99 0 100 0 101 0 102 0 103 0 104 0 105 0 106 0 107 0 108 0 109 0 110 0 111 0 112 0 113 0 114 0 115 0 116 0 117 0 118 0 119 0 120 0 121 0 122 0 123 0 124 0 125 0 126 0 127 0 128 0 129 0 130 0 131 0 132 0 133 0 134 0 135 0 136 0 137 0 138 0 139 0 140 0 141 0 142 0 143 0 144 0 145 0 146 0 147 0 148 0 149 0 150 0 151 0 152 0 153 0 154 0 155 0 156 0 157 0 158 0 159 0 160 0 161 0 162 0 163 0 164 0 165 0 166 0 167 0 168 0 169 0 170 0 171 0 172 0 173 0 174 0 175 0 176 0 177 0 178 0 179 0 180 0 181 0 182 0 183 0 184 0 185 0 186 0 187 0 188 0 189 0 190 0 191 0 192 0 193 0 194 0 195 0 196 0 197 0 198 0 199</v>
        </vertex_weights>
      </skin>
    </controller>
  </library_controllers>
  <library_animations>
    <animation id="action_container-pickup_powerup_supernova_qc_skeleton" name="pickup_powerup_supernova.qc_skeleton"/>
  </library_animations>
  <library_visual_scenes>
    <visual_scene id="emitter_qc" name="emitter.qc">
      <node id="pickup_powerup_supernova_qc_skeleton" name="pickup_powerup_supernova.qc_skeleton" type="NODE">
        <matrix sid="transform">1 0 0 0 0 1 0 0 0 0 1 0 0 0 0 1</matrix>
        <node id="pickup_powerup_supernova_qc_skeleton_jnt_spin" name="jnt_spin" sid="jnt_spin" type="JOINT">
          <matrix sid="transform">0.9985334 0 0.05413851 0 0 1 0 0 -0.05413851 0 0.9985334 0 0 0 0 1</matrix>
          <extra>
            <technique profile="blender">
              <layer sid="layer" type="string">0</layer>
              <roll sid="roll" type="float">0.05416494</roll>
              <tip_x sid="tip_x" type="float">0</tip_x>
              <tip_y sid="tip_y" type="float">0.000999987</tip_y>
              <tip_z sid="tip_z" type="float">0</tip_z>
            </technique>
          </extra>
        </node>
        <node id="pickup_powerup_supernova" name="pickup_powerup_supernova" type="NODE">
          <matrix sid="transform">1 0 0 0 0 1 0 0 0 0 1 0 0 0 0 1</matrix>
          <instance_controller url="#pickup_powerup_supernova_qc_skeleton_pickup_powerup_supernova-skin">
            <skeleton>#pickup_powerup_supernova_qc_skeleton_jnt_spin</skeleton>
            <bind_material>
              <technique_common>
                <instance_material symbol="pickup_powerup_set_new-material" target="#pickup_powerup_set_new-material">
                  <bind_vertex_input semantic="UVMap" input_semantic="TEXCOORD" input_set="0"/>
                </instance_material>
              </technique_common>
            </bind_material>
          </instance_controller>
        </node>
      </node>
    </visual_scene>
  </library_visual_scenes>
  <scene>
    <instance_visual_scene url="#emitter_qc"/>
  </scene>
</COLLADA>