<?xml version="1.0" encoding="utf-8"?>
<COLLADA xmlns="http://www.collada.org/2005/11/COLLADASchema" version="1.4.1" xmlns:xsi="http://www.w3.org/2001/XMLSchema-instance">
  <asset>
    <contributor>
      <author>Blender User</author>
      <authoring_tool>Blender 2.90.1 commit date:2020-09-23, commit time:06:43, hash:3e85bb34d0d7</authoring_tool>
    </contributor>
    <created>2023-10-29T01:40:33</created>
    <modified>2023-10-29T01:40:33</modified>
    <unit name="meter" meter="1"/>
    <up_axis>Z_UP</up_axis>
  </asset>
  <library_effects>
    <effect id="pickup_powerup_set_temp-effect">
      <profile_COMMON>
        <newparam sid="pickup_powerup_set_temp_png-surface">
          <surface type="2D">
            <init_from>pickup_powerup_set_temp_png</init_from>
          </surface>
        </newparam>
        <newparam sid="pickup_powerup_set_temp_png-sampler">
          <sampler2D>
            <source>pickup_powerup_set_temp_png-surface</source>
          </sampler2D>
        </newparam>
        <technique sid="common">
          <lambert>
            <emission>
              <color sid="emission">0 0 0 1</color>
            </emission>
            <diffuse>
              <texture texture="pickup_powerup_set_temp_png-sampler" texcoord="UVMap"/>
            </diffuse>
            <index_of_refraction>
              <float sid="ior">1.45</float>
            </index_of_refraction>
          </lambert>
        </technique>
      </profile_COMMON>
    </effect>
    <effect id="pickup_powerup_set_new-effect">
      <profile_COMMON>
        <newparam sid="pickup_powerup_set_new_png-surface">
          <surface type="2D">
            <init_from>pickup_powerup_set_new_png</init_from>
          </surface>
        </newparam>
        <newparam sid="pickup_powerup_set_new_png-sampler">
          <sampler2D>
            <source>pickup_powerup_set_new_png-surface</source>
          </sampler2D>
        </newparam>
        <technique sid="common">
          <lambert>
            <emission>
              <color sid="emission">0 0 0 1</color>
            </emission>
            <diffuse>
              <texture texture="pickup_powerup_set_new_png-sampler" texcoord="UVMap"/>
            </diffuse>
            <index_of_refraction>
              <float sid="ior">1.45</float>
            </index_of_refraction>
          </lambert>
        </technique>
      </profile_COMMON>
    </effect>
  </library_effects>
  <library_images>
    <image id="pickup_powerup_set_new_png" name="pickup_powerup_set_new_png">
      <init_from>pickup_powerup_set_new.png</init_from>
    </image>
    <image id="pickup_powerup_set_temp_png" name="pickup_powerup_set_temp_png">
      <init_from>pickup_powerup_set_temp.png</init_from>
    </image>
  </library_images>
  <library_materials>
    <material id="pickup_powerup_set_temp-material" name="pickup_powerup_set_temp">
      <instance_effect url="#pickup_powerup_set_temp-effect"/>
    </material>
    <material id="pickup_powerup_set_new-material" name="pickup_powerup_set_new">
      <instance_effect url="#pickup_powerup_set_new-effect"/>
    </material>
  </library_materials>
  <library_geometries>
    <geometry id="pickup_powerup_crit-mesh" name="pickup_powerup_crit">
      <mesh>
        <source id="pickup_powerup_crit-mesh-positions">
          <float_array id="pickup_powerup_crit-mesh-positions-array" count="681">-2.60254 42.0673 3.759 -2.81304 41.0609 4.296 10.8501 56.6864 4.296 11.1535 58.0291 3.759 12.3178 53.89 3.759001 15.4339 52.5052 4.296 16.7737 52.9934 3.759001 11.7737 53.2695 4.296 1.67507 40.2419 4.296 -3.42893 37.3253 4.296 4.89035 34.7302 4.296 9.35028 34.6021 4.296 7.4978 32.1473 4.296 3.61891 32.426 4.296 11.1439 29.2102 4.296 -2.29803 36.2946 3.759 4.11571 34.2865 3.759 2.62458 40.3478 3.759 10.2838 34.5874 3.759 8.25602 32.2016 3.759 -11.7411 52.8686 3.759 -8.830801 55.8587 4.296 -8.628211 57.0283 3.759 -11.3465 52.2869 4.296 -8.689162 42.2483 4.296 -5.83616 32.6904 4.296 0.290609 29.3189 4.296 -2.31687 29.0232 4.296 -9.047541 32.2646 4.296 1.05096 20.7997 4.296 -13.0037 42.2429 4.296 -17.6356 53.8643 4.296 -1.51227 28.3924 3.759 1.3897 28.6486 3.759 15.4339 52.5052 -4.296 12.3178 53.89 -3.759 16.7737 52.9934 -3.759 10.8501 56.6864 -4.296 11.1535 58.0291 -3.759 11.7737 53.2695 -4.296 1.67507 40.2419 -4.296 -2.81304 41.0609 -4.296 -3.42893 37.3253 -4.296 4.89035 34.7302 -4.296 9.35028 34.6021 -4.296 7.4978 32.1473 -4.296 3.61891 32.426 -4.296 11.1439 29.2102 -4.296 -2.29803 36.2946 -3.759 4.11571 34.2865 -3.759 -11.7411 52.8686 -3.759 -8.628211 57.0283 -3.759 -8.8308 55.8587 -4.296 -11.3465 52.2869 -4.296 -8.689161 42.2483 -4.296 -5.836161 32.6904 -4.296 0.290609 29.3189 -4.296 -2.31687 29.0232 -4.296 -9.047541 32.2646 -4.296 1.05096 20.7997 -4.296 -17.6356 53.8643 -4.296 -13.0037 42.2429 -4.296 8.25602 32.2016 -3.759 10.2838 34.5874 -3.759 -1.51227 28.3924 -3.759 1.3897 28.6486 -3.759 11.1575 58.0291 2.4165 12.3217 53.89 2.4165 -2.29409 36.2946 -2.4165 4.11965 34.2865 -2.4165 2.62458 40.3478 -3.759 2.62853 40.3478 -2.4165 16.7776 52.9934 -2.4165 10.2877 34.5874 -2.4165 -2.5986 42.0673 -2.4165 11.1575 58.0291 -2.4165 -2.60254 42.0673 -3.759 -8.62426 57.0283 -2.4165 12.3217 53.89 -2.4165 -8.624261 57.0283 2.4165 -2.5986 42.0673 2.4165 16.7776 52.9934 2.4165 2.62853 40.3478 2.4165 10.2877 34.5874 2.4165 2.53755 18.5418 -3.759 -1.50832 28.3924 -2.4165 2.5415 18.5418 -2.4165 -10.1557 32.7448 -3.759 -10.1518 32.7448 -2.4165 -6.53661 32.9704 -3.759 1.39365 28.6486 -2.4165 -6.53266 32.9704 -2.4165 -14.0766 42.7342 -3.759 -14.0727 42.7342 -2.4165 -9.642741 42.6888 -3.759 -18.9769 54.8402 -2.4165 -11.7372 52.8686 -2.4165 -18.9809 54.8402 -3.759 -9.63879 42.6888 -2.4165 13.3866 27.859 -3.759 8.259971 32.2016 -2.4165 13.3906 27.859 -2.4165 2.84511 32.2615 -3.759 2.84905 32.2615 -2.4165 2.53755 18.5418 3.759 -1.50832 28.3924 2.4165 2.5415 18.5418 2.4165 -10.1557 32.7448 3.759 -10.1518 32.7448 2.4165 -6.536611 32.9704 3.759 1.39365 28.6486 2.4165 -2.29409 36.2946 2.4165 -6.53266 32.9704 2.4165 -14.0766 42.7342 3.759 -14.0727 42.7342 2.4165 -9.642741 42.6888 3.759 -18.9769 54.8402 2.4165 -18.9809 54.8402 3.759 -11.7372 52.8686 2.4165 -9.638791 42.6888 2.4165 8.259971 32.2016 2.4165 13.3866 27.859 3.759 13.3906 27.859 2.4165 2.84511 32.2615 3.759 2.84905 32.2615 2.4165 4.11965 34.2865 2.4165 13.7185 55.3952 2.01375 19.2184 53.6568 2.4165 20.5546 54.0196 2.01375 5.387791 40.4644 2.01375 4.4114 40.4232 2.4165 11.6762 60.3649 2.4165 11.9613 61.6423 2.01375 13.2238 54.863 2.4165 11.9283 34.7698 2.4165 9.85693 32.3328 2.4165 10.7317 32.4045 2.01375 12.8268 34.8696 2.01375 -2.047 45.3877 2.01375 -2.24291 44.2138 2.4165 -8.32562 59.3165 2.4165 -12.1823 54.1629 2.4165 -12.4243 54.8707 2.01375 -21.9223 56.8154 2.4165 -23.5317 57.8956 2.01375 -8.160921 60.5678 2.01375 -13.2193 44.4764 2.01375 -11.9544 43.8444 2.4165 -17.6641 44.522 2.01375 -16.3953 43.89 2.4165 -8.73261 33.9674 2.4165 -12.5497 33.7294 2.4165 6.10113 12.8603 2.4165 -13.8597 34.2679 2.01375 8.04919 9.753141 2.01375 -9.934322 34.5126 2.01375 0.12338 27.4002 2.4165 1.0171 26.8576 2.01375 19.7097 23.9934 2.416501 23.1668 21.8794 2.01375 1.18208 31.6927 2.4165 2.38085 33.6449 2.4165 -0.140139 34.4342 2.4165 3.1246 27.6652 2.4165 4.0726 27.1274 2.01375 2.42758 30.5381 2.01375 -13.2193 44.4764 -2.01375 -16.3953 43.89 -2.4165 -17.6641 44.522 -2.01375 -11.9544 43.8444 -2.4165 -9.934322 34.5126 -2.01375 -8.73261 33.9674 -2.4165 -21.9223 56.8154 -2.416501 -12.1823 54.1629 -2.4165 -12.4243 54.8707 -2.01375 -8.32562 59.3165 -2.4165 -8.160921 60.5678 -2.01375 -23.5317 57.8956 -2.01375 -12.5497 33.7294 -2.4165 6.10113 12.8603 -2.4165 0.12338 27.4002 -2.4165 1.0171 26.8576 -2.01375 8.04919 9.753141 -2.01375 -13.8597 34.2679 -2.01375 2.38085 33.6449 -2.4165 1.18208 31.6927 -2.4165 -0.140139 34.4342 -2.4165 3.1246 27.6652 -2.4165 4.0726 27.1274 -2.01375 2.42758 30.5381 -2.01375 19.7097 23.9934 -2.4165 9.856931 32.3328 -2.4165 10.7317 32.4045 -2.01375 23.1668 21.8794 -2.01375 11.9283 34.7698 -2.4165 5.38779 40.4644 -2.01375 12.8268 34.8696 -2.01375 4.4114 40.4232 -2.4165 19.2184 53.6568 -2.4165 20.5546 54.0196 -2.01375 13.2238 54.863 -2.4165 -2.047 45.3877 -2.01375 -2.24291 44.2138 -2.4165 11.6762 60.3649 -2.4165 13.7185 55.3952 -2.01375 11.9613 61.6423 -2.01375 23.1668 21.8794 0 2.42758 30.5381 0 11.9676 61.6423 0 13.7248 55.3952 0 4.0726 27.1274 0 5.39401 40.4644 0 12.8331 34.8696 0 -2.04084 45.3877 0 20.561 54.0196 0 -23.5257 57.8956 0 -13.2133 44.4764 0 -8.15481 60.5678 0 -13.8536 34.2679 0 -9.92824 34.5126 0 -12.4183 54.8707 0 -17.658 44.522 0 8.055451 9.753141 0 1.02329 26.8576 0 4.078811 27.1274 0 10.7379 32.4045 0 23.1732 21.8794 0</float_array>
          <technique_common>
            <accessor source="#pickup_powerup_crit-mesh-positions-array" count="227" stride="3">
              <param name="X" type="float"/>
              <param name="Y" type="float"/>
              <param name="Z" type="float"/>
            </accessor>
          </technique_common>
        </source>
        <source id="pickup_powerup_crit-mesh-normals">
          <float_array id="pickup_powerup_crit-mesh-normals-array" count="1881">-0.4838865 0.4170187 0.7693824 -0.07116878 0.06130784 0.9955784 -0.2572275 0.22166 0.9405854 -0.4839141 0.4170418 0.7693525 0.3716227 0.3897854 0.8425937 0.06073093 0.3018285 0.951426 0.1155605 0.5743102 0.8104405 0.1497581 0.1570793 0.9761652 0.0791251 0.1052048 0.9912977 -0.07117366 0.06134796 0.9955756 0.04048287 0.2219425 0.9742191 0.3119506 0.08773398 0.946039 0.5902647 0.1660315 0.7899502 0.05401015 -0.05347549 0.9971076 -0.04937434 -0.1582948 0.9861567 0.2287678 0.04258257 0.9725493 0.161129 -0.1215964 0.979414 0 0 1 -0.04940181 -0.1582936 0.9861555 -0.1889154 -0.6056305 0.7729959 -0.1887658 -0.6058098 0.7728921 -0.03252255 -0.1042912 0.9940149 0.3809521 0.5065205 0.7735067 0.1498016 0.1570838 0.9761579 0.3809472 0.5065261 0.7735055 0.07909131 0.1052283 0.991298 0.1611073 -0.1215994 0.9794173 0.4630513 -0.3494305 0.8145439 0.4630481 -0.3494248 0.8145483 0.1611171 -0.1215996 0.9794156 -0.5031964 0.3765905 0.7778002 -0.2572196 0.2216805 0.9405828 -0.5032051 0.3765671 0.7778058 -0.1313781 0.09830701 0.9864459 0 0 1 0 0 1 0.2202669 -0.1181553 0.9682571 0.01757645 -0.1991153 0.9798185 0 0 1 1.71705e-7 0 1 0 0 1 0 0 1 0.02652144 -0.3003122 0.9534722 0.05055516 -0.5726432 0.8182445 0.05055469 -0.572634 0.8182509 0.01759541 -0.1991144 0.9798184 0.06073075 0.3018277 -0.9514263 0.3716236 0.3897851 -0.8425934 0.1155601 0.5743088 -0.8104414 0.3119508 0.08773428 -0.9460389 0.590265 0.166032 -0.7899498 0.1497583 0.1570801 -0.9761651 0.07912516 0.1052048 -0.9912977 -0.07117366 0.06134796 -0.9955757 0.04048275 0.2219425 -0.974219 0.05401009 -0.05347555 -0.9971076 -0.04937428 -0.1582948 -0.9861567 0.2287678 0.04258257 -0.9725493 0.161129 -0.1215964 -0.979414 0 0 -1 -0.04940187 -0.1582936 -0.9861555 -0.1889154 -0.6056305 -0.772996 -0.03252261 -0.1042912 -0.9940149 -0.1887658 -0.6058098 -0.7728921 -0.503196 0.3765905 -0.7778004 -0.5032313 0.3765869 -0.7777793 -0.2572165 0.2216785 -0.9405841 -0.1314554 0.0982508 -0.9864413 0 0 -1 0 0 -1 0.2202668 -0.1181553 -0.9682571 0.01757639 -0.1991153 -0.9798185 0 0 -1 1.71705e-7 0 -1 0 0 -1 0 0 -1 0.1611073 -0.1215995 -0.9794172 0.4630514 -0.3494306 -0.8145439 0.1611168 -0.1215999 -0.9794155 0.463048 -0.3494248 -0.8145483 0.0505551 -0.5726425 -0.8182451 0.02652132 -0.3003113 -0.9534725 0.05055469 -0.5726333 -0.8182514 0.01759517 -0.1991133 -0.9798186 0.9626412 0.2707657 0.002810418 0.9626375 0.2707784 0.002854347 0.9626363 0.2707825 0.002868056 0.9626424 0.2707616 0.002796709 -0.2987962 -0.9543165 -9.95847e-4 -0.2987976 -0.954316 -0.00103718 -0.2987975 -0.9543161 -9.88206e-4 -0.2987975 -0.954316 -0.001044869 0.2872532 0.1334311 -0.9485156 0.5449262 0.2531576 -0.799354 0.5449289 0.2531483 -0.7993551 0.0934562 0.0433889 -0.9946776 0.4639049 -0.5191391 -0.7178348 0.4639098 -0.5190636 -0.7178863 0.4639046 -0.519058 -0.7178937 0.4638916 -0.5191349 -0.7178466 0.6663871 -0.7456035 0.001946151 0.6663812 -0.7456088 0.001925468 0.6663811 -0.7456089 0.001924455 0.6663811 -0.7456088 0.001947164 0.601064 0.799199 0.00175178 0.601064 0.7991991 0.001734197 0.601064 0.7991991 0.001753687 0.6010729 0.7991923 0.001780211 -0.7575051 0.6528253 -0.00229448 -0.7575052 0.6528252 -0.002280771 -0.7575092 0.6528205 -0.002292931 -0.7575054 0.6528248 -0.002282321 0.9248813 0.3802462 0.002720654 0.9248678 0.3802791 0.002747118 0.9248669 0.3802813 0.002750217 0.924868 0.3802785 0.002747535 0.1972643 0.98035 8.19895e-4 0.1972643 0.9803501 7.71363e-4 0.1972661 0.9803497 7.72121e-4 0.1972644 0.98035 7.71193e-4 0.3809521 0.5065205 -0.7735067 0.1498016 0.1570837 -0.9761579 0.07909142 0.1052282 -0.991298 0.3809472 0.506526 -0.7735055 0.9626389 0.2707739 0.002800285 0.9626387 0.2707743 0.002802312 0.962639 0.2707735 0.00281465 0.9626376 0.2707791 0.002787888 -0.2572266 0.2216594 -0.9405859 -0.4838878 0.4170198 -0.7693811 -0.4839134 0.4170413 -0.7693532 -0.07117062 0.06130963 -0.9955782 0.924878 0.3802545 0.002719044 0.9248781 0.380254 0.002718925 0.92486 0.3802983 0.002722024 0.924878 0.3802546 0.002718746 0.1972624 0.9803506 5.75147e-4 0.1972622 0.9803507 5.75143e-4 0.1972621 0.9803506 5.75142e-4 0.1972624 0.9803506 5.75148e-4 0.6010686 0.7991956 0.001747608 0.6010665 0.7991971 0.001765251 0.6010662 0.7991973 0.001767158 0.6010688 0.7991954 0.00174576 -0.7575035 0.6528273 -0.002259612 -0.7575051 0.6528255 -0.002225339 -0.7575052 0.6528255 -0.002223849 -0.7575035 0.6528273 -0.002261102 0.924882 0.3802441 0.002791643 0.9248822 0.3802438 0.002791881 0.9248822 0.3802438 0.002743661 0.9248856 0.380236 0.002743959 -0.5425024 -0.4848788 -0.6859911 -0.5425225 -0.4848589 -0.6859892 -0.5425177 -0.4848627 -0.6859904 -0.542528 -0.4848728 -0.6859751 -0.7456285 -0.6663586 -0.002100288 -0.7456232 -0.6663644 -0.002120018 -0.7456228 -0.666365 -0.002118647 -0.7456227 -0.6663652 -0.002101719 -0.08591747 0.6479958 -0.7567825 -0.08592635 0.6479807 -0.7567944 -0.08590573 0.6480084 -0.756773 -0.08593338 0.6479752 -0.7567983 0.08796805 -0.996123 7.96441e-4 0.08796811 -0.996123 7.95798e-4 0.08796811 -0.996123 7.95405e-4 0.08796578 -0.9961233 7.00983e-4 0.6665773 0.2740624 -0.6932276 0.6666696 0.2740857 -0.6931297 0.6666707 0.2740844 -0.6931292 0.6666813 0.2740897 -0.6931168 0.900707 0.434419 0.002671837 0.900707 0.434419 0.002675294 0.9007074 0.4344185 0.002623438 0.9007102 0.4344124 0.002675712 -0.0622155 0.9980627 1.821e-4 -0.06221497 0.9980628 1.82831e-4 -0.06221568 0.9980627 1.81799e-4 -0.06221479 0.9980629 1.83131e-4 -0.5534736 -0.4274203 -0.7148279 -0.5534973 -0.4274364 -0.7147999 -0.5534965 -0.4274322 -0.714803 -0.5535096 -0.4274293 -0.7147946 -0.792885 -0.6093674 -0.002249956 -0.7928902 -0.6093604 -0.002267241 -0.7928904 -0.6093603 -0.00226885 -0.7928977 -0.6093507 -0.002291321 0.007638454 0.745296 -0.6666901 0.007658302 0.7452302 -0.6667633 0.007631421 0.7453295 -0.6666526 0.007635891 0.7453017 -0.6666836 0.2627621 0.9648602 0.001003086 0.2627624 0.9648601 9.47469e-4 0.2627622 0.9648602 9.5627e-4 0.2627636 0.9648597 9.94283e-4 0.1771663 0.6505436 -0.7385155 0.1771652 0.6505316 -0.7385264 0.1771736 0.6505893 -0.7384735 0.1771607 0.65056 -0.7385023 -0.8006293 0.5991551 -0.002440869 -0.8006291 0.5991553 -0.002463221 -0.8006338 0.599149 -0.002483487 -0.8006292 0.5991552 -0.002468466 0.6045435 0.2434825 -0.7584481 0.6043614 0.243394 -0.7586217 0.6045701 0.2434956 -0.7584227 0.6045562 0.2434916 -0.7584352 0.0102384 0.9999477 -3.10075e-5 0.01023852 0.9999476 -3.18383e-5 0.0102384 0.9999477 -3.07593e-5 0.01023852 0.9999476 -3.20864e-5 -0.5870084 -0.4512305 -0.6721698 -0.5869922 -0.4510913 -0.6722773 -0.586986 -0.4512301 -0.6721897 -0.5869969 -0.4510959 -0.6722702 -0.7929098 -0.6093348 -0.00226587 -0.7929132 -0.6093307 -0.002243101 -0.79291 -0.6093348 -0.002241671 -0.79291 -0.6093348 -0.002267301 0.646052 0.7632911 0.001913666 0.6460522 0.7632909 0.001930832 0.6460523 0.7632909 0.001910746 0.6460641 0.7632809 0.001933753 -0.2953194 -0.7072704 -0.6423045 -0.295366 -0.7072511 -0.6423043 -0.2953749 -0.7072706 -0.6422788 -0.2953703 -0.707261 -0.6422915 -0.3853828 -0.9227558 -0.001309394 -0.3853697 -0.9227614 -0.001295924 -0.3853695 -0.9227614 -0.001294732 -0.3853695 -0.9227616 -0.001310586 -0.5849808 0.3227829 -0.7440488 -0.5849754 0.3227756 -0.7440563 -0.5849738 0.3227841 -0.7440539 -0.5849784 0.3227806 -0.7440518 0.7619724 -0.647606 0.002140939 0.7619649 -0.6476147 0.002175569 0.7619649 -0.647615 0.002120494 0.761965 -0.6476147 0.002148032 0.4592632 0.5426382 -0.7032931 0.4592658 0.5426046 -0.7033174 0.4592629 0.5426167 -0.7033099 0.4592644 0.542608 -0.7033156 -0.8470634 0.531486 -0.002547204 -0.8470634 0.5314859 -0.002547442 -0.8470631 0.5314863 -0.002546966 -0.8470629 0.5314864 -0.002595663 0.9248831 0.3802418 0.00272119 0.9248833 0.3802416 0.002720952 0.9248832 0.3802416 0.002720952 0.9248831 0.3802418 0.00272125 -0.5425022 -0.4848788 0.6859912 -0.5425226 -0.484859 0.6859892 -0.542528 -0.4848728 0.6859751 -0.5425177 -0.4848628 0.6859903 -0.7456215 -0.6663661 -0.002194404 -0.7456229 -0.6663647 -0.002166509 -0.7456215 -0.6663661 -0.002195775 -0.7456229 -0.6663647 -0.002165138 -0.08591747 0.6479955 0.7567827 -0.08592605 0.64798 0.7567951 -0.08593344 0.647975 0.7567985 -0.08590555 0.6480075 0.7567738 0.08794236 -0.9961255 2.57795e-4 0.08794242 -0.9961255 2.58284e-4 0.08794236 -0.9961255 2.57496e-4 0.08794242 -0.9961256 2.58582e-4 0.6666696 0.2740855 0.6931298 0.6665129 0.2740457 0.6932963 0.6666708 0.2740844 0.6931291 0.6666491 0.2740811 0.6931512 0.9007068 0.4344195 0.002649247 0.9007073 0.4344186 0.00264579 0.9007074 0.4344186 0.002645373 0.9007068 0.4344196 0.002649724 -0.06221497 0.9980628 -1.84447e-4 -0.0622155 0.9980628 -1.83269e-4 -0.06221568 0.9980628 -1.82785e-4 -0.06221479 0.9980629 -1.84931e-4 -0.5534984 -0.4274379 0.7147982 -0.5534454 -0.4274029 0.7148602 -0.5534974 -0.427433 0.714802 -0.5535109 -0.4274308 0.7147927 -0.7927863 -0.6094955 -0.002328395 -0.7928138 -0.6094596 -0.002328336 -0.7928156 -0.6094574 -0.002328991 -0.7928429 -0.6094217 -0.002331078 0.007648289 0.7452625 0.6667274 0.007638394 0.7452962 0.6666898 0.00763148 0.7453307 0.6666513 0.007635891 0.7453019 0.6666835 0.2627616 0.9648606 7.65539e-4 0.2627591 0.9648613 7.79926e-4 0.2627587 0.9648613 7.82016e-4 0.262762 0.9648604 7.63449e-4 0.177165 0.6505307 0.7385272 0.1771672 0.6505472 0.7385122 0.1771733 0.6505882 0.7384746 0.1771618 0.6505641 0.7384986 -0.80063 0.5991547 -0.002353131 -0.8006328 0.5991508 -0.002331674 -0.8006336 0.5991499 -0.002326607 -0.8006291 0.5991556 -0.002358257 0.6043609 0.2433938 0.7586222 0.6045766 0.2434987 0.7584164 0.6045695 0.2434952 0.7584233 0.6045565 0.2434918 0.7584346 0.01023852 0.9999477 3.48669e-5 0.01023846 0.9999477 3.14534e-5 0.0102384 0.9999477 3.0434e-5 0.01023852 0.9999476 3.58863e-5 -0.5870149 -0.4512639 0.6721416 -0.5869906 -0.4510901 0.6722795 -0.5869952 -0.4510948 0.6722725 -0.5869917 -0.4513441 0.6721081 -0.7929092 -0.6093354 -0.002333402 -0.7929079 -0.609337 -0.002359926 -0.7929093 -0.6093354 -0.002331733 -0.7929078 -0.6093372 -0.002361595 0.6460571 0.7632869 0.001903414 0.6460542 0.7632892 0.001920461 0.6460537 0.7632896 0.001923322 0.6460575 0.7632865 0.001900553 -0.2953194 -0.7072703 0.6423045 -0.295366 -0.7072511 0.6423043 -0.2953703 -0.707261 0.6422914 -0.2953748 -0.7072707 0.6422788 -0.3853751 -0.9227593 -0.001145303 -0.3853768 -0.9227586 -0.001136064 -0.3853749 -0.9227594 -0.001146137 -0.385377 -0.9227585 -0.00113523 -0.5849808 0.3227829 0.7440488 -0.5849754 0.3227756 0.7440563 -0.5849784 0.3227806 0.7440518 -0.5849738 0.3227841 0.7440539 0.7619633 -0.6476164 0.002236247 0.761967 -0.6476122 0.002223074 0.7619613 -0.6476188 0.00224328 0.761969 -0.6476099 0.002216041 0.4592632 0.5426382 0.7032931 0.4592658 0.5426046 0.7033174 0.4592644 0.542608 0.7033156 0.4592629 0.5426167 0.7033099 -0.847059 0.5314933 -0.002486288 -0.8470589 0.5314933 -0.00248599 -0.847059 0.5314933 -0.002485752 -0.8470589 0.5314933 -0.002486526 -0.2987912 -0.9543182 -8.7374e-4 -0.2987911 -0.9543182 -8.80286e-4 -0.2987912 -0.9543182 -8.72644e-4 -0.2987911 -0.9543182 -8.81381e-4 0.2872532 0.1334311 0.9485156 0.5449262 0.2531575 0.799354 0.09345608 0.04338914 0.9946776 0.5449289 0.2531483 0.7993551 0.463908 -0.5190644 0.717887 0.4639074 -0.5190613 0.7178895 0.4639003 -0.5190976 0.7178678 0.4639022 -0.5190557 0.7178969 0.666381 -0.7456089 0.001936793 0.6663798 -0.7456099 0.001957476 0.6663811 -0.7456089 0.00193578 0.6663797 -0.74561 0.001958489 0.3293542 0.3557401 0.8746285 0.09348142 0.04342806 0.9946735 0.107554 0.5344943 0.8383008 0.3630399 -0.4062035 0.8385707 0.2041673 0.01679891 0.9787919 0.3630499 -0.4062134 0.8385617 0.01828914 0.1428169 0.9895802 0.5242 0.1474484 0.8387333 0.1497846 0.1571116 0.976156 0 0 1 0 0 1 0 0 1 0.2041714 0.01679307 0.9787912 0.2041562 0.01674771 0.9787951 0.4150353 -0.3527637 0.838632 0.4150852 -0.3527825 0.8385993 0 0 1 0.3275023 0.4354552 0.8385233 0.3274992 0.4354521 0.838526 -1.2535e-7 0 1 0 1.38105e-7 1 -0.4136145 0.3564551 0.8377726 -0.413612 0.3564533 0.8377745 0.01828891 0.1428467 0.9895759 0 0 1 1.39977e-7 0 1 0.01829814 0.1428323 0.9895778 -0.07765203 0.225385 0.9711703 -0.1546528 0.448135 0.8804871 -0.07117938 0.06133693 0.995576 0.1432442 0.5259913 0.8383403 -0.4372112 0.3271837 0.8377334 0.5037069 0.2070057 0.8387063 0.5037075 0.2070069 0.8387056 -0.4320052 -0.3339803 0.8377522 -0.4320325 -0.3339436 0.8377527 -0.114944 0.05741703 0.9917113 0 0 1 0 0 1 0.005599439 0.545352 0.8381884 0.005595088 0.5453717 0.8381758 -0.1151128 0.05709749 0.9917101 -0.1151053 0.05709415 0.9917111 0 0 1 -0.1150953 0.05708026 0.9917132 0 0 1 0.0540139 -0.0534904 0.9971066 -0.4071341 -0.3638581 0.8377643 -0.4071096 -0.3638346 0.8377864 -0.03394025 0.5443538 0.8381689 -0.03393286 0.5443357 0.838181 -0.4321885 -0.3337559 0.8377472 -0.4321654 -0.3337409 0.837765 0.1611298 -0.1215871 0.9794151 0 0 1 0.5036793 0.2070761 0.8387054 0.5036885 0.2070794 0.8386991 0.3716105 0.3897888 0.8425975 0.05401515 -0.05347502 0.9971072 0.3716084 0.3897889 0.8425982 0.05401468 -0.05348384 0.9971069 0 0 1 0 0 1 -1.76229e-7 0 1 1.20387e-7 0 1 0 0 1 0.1444083 -0.08220374 0.9860978 0.04796224 -0.5431899 0.8382388 0.04796385 -0.5431943 0.8382359 0.5036785 0.2070767 0.8387058 0.5036789 0.2070757 0.8387058 -0.2101476 -0.5033406 0.8381446 -0.2101463 -0.5033406 0.8381449 0.005599439 0.5453519 -0.8381887 -0.1150658 0.05707317 -0.991717 0.005595088 0.5453717 -0.8381758 -0.1149441 0.05741691 -0.9917113 -0.4321883 -0.3337559 -0.8377472 -0.4321678 -0.3337425 -0.837763 -0.1151052 0.05709421 -0.9917112 0 0 -1 0 0 -1 3.00346e-7 0 -1 -0.07117718 0.06133919 -0.995576 -0.07765477 0.2253841 -0.9711704 -0.1546535 0.448135 -0.8804871 0.01829773 0.1428327 -0.9895778 -0.4372121 0.3271844 -0.8377327 0.1432446 0.5259931 -0.838339 0 0 -1 -0.432035 -0.3339426 -0.8377518 -0.4320095 -0.3339863 -0.8377476 0 0 -1 -0.1150953 0.0570808 -0.9917132 0 0 -1 0.05401372 -0.05349051 -0.9971066 0.1611297 -0.121587 -0.9794151 0.5036793 0.2070761 -0.8387054 0.5036885 0.2070794 -0.8386991 -0.4071341 -0.3638581 -0.8377644 -0.4071096 -0.3638346 -0.8377864 0 0 -1 0 0 -1 -0.03394025 0.5443539 -0.8381689 -0.03393298 0.5443369 -0.8381802 0 0 -1 0.05401468 -0.05348384 -0.9971068 1.20387e-7 0 -1 0 0 -1 0.1443978 -0.08222275 -0.9860978 0.04796224 -0.5431895 -0.8382393 0.04796403 -0.5431959 -0.8382349 0.5036783 0.2070767 -0.8387058 0.5036788 0.2070757 -0.8387058 0 0 -1 0 0 -1 0 0 -1 0.05401611 -0.05347853 -0.997107 0.2041563 0.01674777 -0.9787951 0.3716104 0.3897887 -0.8425976 0.3716119 0.3897906 -0.842596 -0.2101343 -0.5033034 -0.8381703 -0.2101448 -0.503337 -0.8381474 0.2041709 0.01679342 -0.9787913 0.3275029 0.4354559 -0.8385226 0.3274992 0.4354521 -0.838526 0.2041674 0.01679903 -0.9787919 0 0 -1 0 0 -1 0.4150352 -0.3527633 -0.8386321 0.415084 -0.3527819 -0.8386002 0 0 -1 0.3630399 -0.4062035 -0.8385707 0.09347999 0.04342955 -0.9946736 0.3630474 -0.4062108 -0.838564 0.1497861 0.1571095 -0.9761562 0 0 -1 0.5036524 0.2071387 -0.8387061 0.5036517 0.2071395 -0.8387063 0.01828896 0.1428467 -0.9895759 0.0182892 0.142817 -0.9895802 0.3293537 0.3557391 -0.874629 0.107554 0.5344948 -0.8383004 0.5242002 0.1474485 -0.838733 -0.4136145 0.3564551 -0.8377726 -0.413612 0.3564533 -0.8377745 -0.3853914 -0.9227523 -0.001384198 -0.3853995 -0.9227488 -0.001479327 -0.3853995 -0.9227488 -0.00147885 -0.3853914 -0.9227522 -0.001384258 -0.3853955 -0.9227504 -0.001432001 -0.3853995 -0.9227487 -0.001479744 0.962639 0.270774 0.002789199 0.9626404 0.2707688 0.00278908 0.9626384 0.2707759 0.002783119 0.9626392 0.2707739 0.00273621 0.9626385 0.2707734 0.003011643 0.9626384 0.2707734 0.003011226 0.9007071 0.434419 0.002636551 0.9007061 0.434421 0.002636551 0.900707 0.4344192 0.002636551 0.900707 0.434419 0.002636551 0.900707 0.4344189 0.002684533 0.900707 0.4344193 0.002636551 0.9007062 0.434421 0.002636551 0.6010634 0.7991995 0.001774728 0.601064 0.7991991 0.001765847 0.6010745 0.7991911 0.001739263 0.6010642 0.7991989 0.001775085 0.6010637 0.7991991 0.001877427 0.6010674 0.7991963 0.001856029 -0.757515 0.6528163 -0.001408338 -0.7575048 0.6528252 -0.002395331 -0.7575067 0.6528233 -0.00231707 -0.7575066 0.6528234 -0.002346575 -0.7575051 0.6528252 -0.002330958 -0.757505 0.6528251 -0.002332925 0.1972635 0.9803503 7.14623e-4 0.1972755 0.9803478 7.74529e-4 0.1972681 0.9803491 9.11497e-4 0.1972614 0.9803505 9.10253e-4 0.197269 0.9803493 6.26617e-4 0.1972714 0.9803488 6.17213e-4 0.666381 -0.7456089 0.001968145 0.6663811 -0.7456089 0.001922607 0.6663842 -0.7456063 0.001911938 0.6663734 -0.7456158 0.001872718 0.6663767 -0.7456123 0.002117812 0.666381 -0.7456086 0.00205934 -0.7929098 -0.609335 -0.002238094 -0.792912 -0.6093327 -0.002107679 -0.7929099 -0.609335 -0.002238571 -0.79291 -0.6093352 -0.002105355 -0.792909 -0.6093355 -0.002360582 -0.7929091 -0.6093354 -0.002363443 0.9248772 0.3802564 0.002718925 0.9248824 0.3802439 0.002718567 0.9248598 0.3802986 0.002718269 0.9248804 0.3802485 0.002720952 0.9248719 0.3802691 0.002739965 0.9248688 0.3802766 0.00274527 -0.06221753 0.9980626 0 -0.06221765 0.9980626 1.88426e-4 -0.06221747 0.9980626 1.9266e-4 -0.06221777 0.9980626 0 -0.06221765 0.9980626 -1.88426e-4 -0.06221747 0.9980626 -1.9266e-4 -0.8006282 0.5991566 -0.002422153 -0.8006289 0.5991552 -0.00253874 -0.8006343 0.5991486 -0.002385497 -0.8006294 0.5991547 -0.002490162 -0.8006293 0.5991552 -0.002467513 -0.8006292 0.5991553 -0.002456247 0.01025885 0.9999474 0 0.01025897 0.9999474 -3.03785e-5 0.01025879 0.9999474 -3.0684e-5 0.01025903 0.9999474 -3.76236e-7 0.01025897 0.9999474 2.98296e-5 0.01025879 0.9999474 3.0684e-5 -0.7456228 -0.6663649 -0.002093315 -0.7456257 -0.6663622 -0.001964211 -0.7456231 -0.6663647 -0.002105414 -0.7456229 -0.6663655 -0.001963496 -0.7456203 -0.666367 -0.002316951 -0.7456227 -0.6663646 -0.00225687 0.9248859 0.3802379 0.002297997 0.9248809 0.3802466 0.002830624 0.9248822 0.380247 0.002267718 0.9248822 0.3802436 0.002783775 0.9248822 0.380244 0.002735555 0.9248849 0.3802372 0.002765774 0.2627589 0.9648609 0.001150727 0.2627621 0.9648602 9.39315e-4 0.262767 0.9648589 9.46447e-4 0.262762 0.9648601 0.001150846 0.2627622 0.9648603 7.86468e-4 0.2627622 0.9648603 7.79324e-4 0.08795183 -0.9961244 7.85771e-4 0.08795291 -0.9961244 6.87026e-4 0.08796054 -0.9961237 8.30702e-4 0.08795434 -0.9961242 8.6287e-4 0.08795702 -0.9961243 2.71729e-4 0.08795762 -0.9961242 2.72358e-4 -0.7928608 -0.6093987 -0.002251863 -0.7928929 -0.609357 -0.002275526 -0.7928812 -0.6093722 -0.002237796 -0.7928607 -0.6093989 -0.002251327 -0.7928109 -0.6094634 -0.002334952 -0.7928102 -0.6094642 -0.002335429 0.7619652 -0.6476148 0.002063632 0.7619652 -0.6476145 0.002159297 0.7619695 -0.6476095 0.002135753 0.7619558 -0.647626 0.002015888 0.7619631 -0.6476161 0.002371311 0.761973 -0.6476048 0.002347648 0.6460519 0.7632913 0.001894176 0.6460522 0.763291 0.001894176 0.6460586 0.7632855 0.001894176 0.6460509 0.7632926 0.001700341 0.6460522 0.7632909 0.001919507 0.6460521 0.7632911 0.001877367 0.6460597 0.7632851 0.001713931 0.6460515 0.7632914 0.001988768</float_array>
          <technique_common>
            <accessor source="#pickup_powerup_crit-mesh-normals-array" count="627" stride="3">
              <param name="X" type="float"/>
              <param name="Y" type="float"/>
              <param name="Z" type="float"/>
            </accessor>
          </technique_common>
        </source>
        <source id="pickup_powerup_crit-mesh-map-0">
          <float_array id="pickup_powerup_crit-mesh-map-0-array" count="2676">0.210736 0.539497 0.208358 0.528375 0.367095 0.701212 0.210736 0.539497 0.367095 0.701212 0.367499 0.714591 0.376623 0.674138 0.406671 0.665814 0.418322 0.667657 0.376623 0.674138 0.370751 0.667621 0.406671 0.665814 0.370751 0.667621 0.253883 0.524812 0.406671 0.665814 0.253883 0.524812 0.370751 0.667621 0.208358 0.528375 0.208358 0.528375 0.370751 0.667621 0.367095 0.701212 0.376623 0.674138 0.367095 0.701212 0.370751 0.667621 0.376623 0.674138 0.367499 0.714591 0.367095 0.701212 0.253883 0.524812 0.208358 0.528375 0.201028 0.490762 0.253883 0.524812 0.201028 0.490762 0.294281 0.464345 0.253883 0.524812 0.294281 0.464345 0.337155 0.455223 0.337155 0.455223 0.294281 0.464345 0.323717 0.433389 0.286934 0.441792 0.323717 0.433389 0.294281 0.464345 0.286934 0.441792 0.364668 0.402533 0.323717 0.433389 0.294281 0.464345 0.2127709 0.478987 0.286878 0.459937 0.294281 0.464345 0.201028 0.490762 0.2127709 0.478987 0.264405 0.526185 0.337155 0.455223 0.347433 0.454356 0.264405 0.526185 0.253883 0.524812 0.337155 0.455223 0.337155 0.455223 0.331317 0.432058 0.347433 0.454356 0.337155 0.455223 0.323717 0.433389 0.331317 0.432058 0.108147 0.660553 0.133991 0.691927 0.135724 0.705929 0.108147 0.660553 0.112528 0.653607 0.133991 0.691927 0.112528 0.653607 0.208358 0.528375 0.133991 0.691927 0.112528 0.653607 0.147252 0.547785 0.208358 0.528375 0.208358 0.528375 0.147252 0.547785 0.201028 0.490762 0.178649 0.441299 0.201028 0.490762 0.147252 0.547785 0.178649 0.441299 0.234076 0.399608 0.201028 0.490762 0.178649 0.441299 0.210837 0.396621 0.234076 0.399608 0.210837 0.396621 0.178649 0.441299 0.146486 0.436835 0.210837 0.396621 0.146486 0.436835 0.252917 0.307269 0.178649 0.441299 0.147252 0.547785 0.103052 0.547589 0.147252 0.547785 0.112528 0.653607 0.04771494 0.677257 0.234076 0.399608 0.219132 0.388542 0.2451699 0.39206 0.234076 0.399608 0.210837 0.396621 0.219132 0.388542 0.406671 0.666219 0.376622 0.674544 0.418322 0.668063 0.376622 0.674544 0.367095 0.701617 0.367499 0.714997 0.376622 0.674544 0.370751 0.668026 0.367095 0.701617 0.406671 0.666219 0.370751 0.668026 0.376622 0.674544 0.370751 0.668026 0.406671 0.666219 0.253883 0.525217 0.208358 0.52878 0.367095 0.701617 0.370751 0.668026 0.253883 0.525217 0.208358 0.52878 0.370751 0.668026 0.253883 0.525217 0.201028 0.491168 0.208358 0.52878 0.253883 0.525217 0.294281 0.46475 0.201028 0.491168 0.253883 0.525217 0.337154 0.455629 0.294281 0.46475 0.337154 0.455629 0.323718 0.433795 0.294281 0.46475 0.286934 0.442198 0.323718 0.433795 0.364668 0.402938 0.286934 0.442198 0.294281 0.46475 0.323718 0.433795 0.294281 0.46475 0.2127709 0.479392 0.201028 0.491168 0.294281 0.46475 0.286878 0.460342 0.2127709 0.479392 0.108147 0.660958 0.135724 0.706334 0.133991 0.692332 0.108147 0.660958 0.133991 0.692332 0.112528 0.654012 0.112528 0.654012 0.133991 0.692332 0.208358 0.52878 0.112528 0.654012 0.208358 0.52878 0.147252 0.54819 0.208358 0.52878 0.201028 0.491168 0.147252 0.54819 0.178649 0.441705 0.147252 0.54819 0.201028 0.491168 0.234076 0.400013 0.178649 0.441705 0.201028 0.491168 0.234076 0.400013 0.210837 0.397026 0.178649 0.441705 0.146486 0.437241 0.178649 0.441705 0.210837 0.397026 0.146486 0.437241 0.210837 0.397026 0.252917 0.307674 0.147252 0.54819 0.04771494 0.677663 0.112528 0.654012 0.178649 0.441705 0.103052 0.547995 0.147252 0.54819 0.337154 0.455629 0.331317 0.432463 0.323718 0.433795 0.337154 0.455629 0.347433 0.454761 0.331317 0.432463 0.219132 0.388947 0.234076 0.400013 0.2451699 0.392465 0.219132 0.388947 0.210837 0.397026 0.234076 0.400013 0.376623 0.674138 0.367415 0.725841 0.367499 0.714591 0.376623 0.674138 0.380683 0.678671 0.367415 0.725841 0.218129 0.474528 0.286878 0.460342 0.283256 0.458444 0.218129 0.474528 0.2127709 0.479392 0.286878 0.460342 0.234076 0.400013 0.2127709 0.479392 0.2451699 0.392465 0.234076 0.400013 0.201028 0.491168 0.2127709 0.479392 0.264406 0.52659 0.406671 0.666219 0.418322 0.668063 0.264406 0.52659 0.253883 0.525217 0.406671 0.666219 0.418322 0.668063 0.270218 0.524749 0.264406 0.52659 0.418322 0.668063 0.431462 0.668859 0.270218 0.524749 0.347433 0.454761 0.270218 0.524749 0.351283 0.45528 0.347433 0.454761 0.264406 0.52659 0.270218 0.524749 0.367499 0.714997 0.21065 0.544344 0.367415 0.726247 0.367499 0.714997 0.210737 0.539903 0.21065 0.544344 0.210737 0.539903 0.135995 0.715392 0.21065 0.544344 0.210737 0.539903 0.135724 0.706334 0.135995 0.715392 0.380683 0.679077 0.418322 0.668063 0.376622 0.674544 0.380683 0.679077 0.431462 0.668859 0.418322 0.668063 0.264406 0.52659 0.337154 0.455629 0.253883 0.525217 0.264406 0.52659 0.347433 0.454761 0.337154 0.455629 0.376622 0.674544 0.367415 0.726247 0.380683 0.679077 0.376622 0.674544 0.367499 0.714997 0.367415 0.726247 0.367095 0.701617 0.210737 0.539903 0.367499 0.714997 0.367095 0.701617 0.208358 0.52878 0.210737 0.539903 0.135995 0.714987 0.210736 0.539497 0.21065 0.543939 0.135995 0.714987 0.135724 0.705929 0.210736 0.539497 0.418322 0.667657 0.380683 0.678671 0.376623 0.674138 0.418322 0.667657 0.431462 0.668454 0.380683 0.678671 0.347433 0.454356 0.270218 0.524343 0.264405 0.526185 0.347433 0.454356 0.351283 0.454874 0.270218 0.524343 0.367499 0.714591 0.21065 0.543939 0.210736 0.539497 0.367499 0.714591 0.367415 0.725841 0.21065 0.543939 0.269218 0.28163 0.223403 0.387121 0.274423 0.273346 0.269218 0.28163 0.219132 0.388947 0.223403 0.387121 0.13388 0.442188 0.252917 0.307674 0.269218 0.28163 0.13388 0.442188 0.146486 0.437241 0.252917 0.307674 0.125712 0.44526 0.269218 0.28163 0.274423 0.273346 0.125712 0.44526 0.13388 0.442188 0.269218 0.28163 0.146486 0.437241 0.170496 0.444634 0.178649 0.441705 0.146486 0.437241 0.13388 0.442188 0.170496 0.444634 0.223403 0.387121 0.2451699 0.392465 0.248979 0.39068 0.223403 0.387121 0.219132 0.388947 0.2451699 0.392465 0.252917 0.307674 0.219132 0.388947 0.269218 0.28163 0.252917 0.307674 0.210837 0.397026 0.219132 0.388947 0.2451699 0.392465 0.218129 0.474528 0.248979 0.39068 0.2451699 0.392465 0.2127709 0.479392 0.218129 0.474528 0.125712 0.44526 0.170496 0.444634 0.13388 0.442188 0.125712 0.44526 0.161967 0.44737 0.170496 0.444634 0.103052 0.547995 0.170496 0.444634 0.09037995 0.553187 0.103052 0.547995 0.178649 0.441705 0.170496 0.444634 0.170496 0.444634 0.08128297 0.557715 0.09037995 0.553187 0.170496 0.444634 0.161967 0.44737 0.08128297 0.557715 0.136107 0.553798 0.103052 0.547995 0.09037995 0.553187 0.136107 0.553798 0.147252 0.54819 0.103052 0.547995 0.108147 0.660958 0.02327597 0.695221 0.106506 0.667437 0.108147 0.660958 0.03188097 0.688987 0.02327597 0.695221 0.108147 0.660958 0.04771494 0.677663 0.03188097 0.688987 0.108147 0.660958 0.112528 0.654012 0.04771494 0.677663 0.135724 0.706334 0.106506 0.667437 0.135995 0.715392 0.135724 0.706334 0.108147 0.660958 0.106506 0.667437 0.210737 0.539903 0.133991 0.692332 0.135724 0.706334 0.210737 0.539903 0.208358 0.52878 0.133991 0.692332 0.136107 0.553798 0.08128297 0.557715 0.125185 0.557584 0.136107 0.553798 0.09037995 0.553187 0.08128297 0.557715 0.136107 0.553798 0.04771494 0.677663 0.147252 0.54819 0.136107 0.553798 0.03188097 0.688987 0.04771494 0.677663 0.136107 0.553798 0.02327597 0.695221 0.03188097 0.688987 0.136107 0.553798 0.125185 0.557584 0.02327597 0.695221 0.389306 0.387188 0.334395 0.431914 0.396899 0.382506 0.389306 0.387188 0.331317 0.432463 0.334395 0.431914 0.278988 0.440167 0.364668 0.402938 0.389306 0.387188 0.278988 0.440167 0.286934 0.442198 0.364668 0.402938 0.275346 0.438141 0.389306 0.387188 0.396899 0.382506 0.275346 0.438141 0.278988 0.440167 0.389306 0.387188 0.286934 0.442198 0.286878 0.460342 0.294281 0.46475 0.286934 0.442198 0.278988 0.440167 0.286878 0.460342 0.347433 0.454761 0.334395 0.431914 0.331317 0.432463 0.347433 0.454761 0.351283 0.45528 0.334395 0.431914 0.331317 0.432463 0.364668 0.402938 0.323718 0.433795 0.331317 0.432463 0.389306 0.387188 0.364668 0.402938 0.275346 0.438141 0.286878 0.460342 0.278988 0.440167 0.275346 0.438141 0.283256 0.458444 0.286878 0.460342 0.269218 0.281225 0.223403 0.386715 0.219132 0.388542 0.269218 0.281225 0.274423 0.272941 0.223403 0.386715 0.13388 0.441782 0.252917 0.307269 0.146486 0.436835 0.13388 0.441782 0.269218 0.281225 0.252917 0.307269 0.269218 0.281225 0.125712 0.444855 0.274423 0.272941 0.269218 0.281225 0.13388 0.441782 0.125712 0.444855 0.146486 0.436835 0.170497 0.444229 0.13388 0.441782 0.146486 0.436835 0.178649 0.441299 0.170497 0.444229 0.2451699 0.39206 0.223403 0.386715 0.248979 0.390275 0.2451699 0.39206 0.219132 0.388542 0.223403 0.386715 0.219132 0.388542 0.252917 0.307269 0.269218 0.281225 0.219132 0.388542 0.210837 0.396621 0.252917 0.307269 0.2451699 0.39206 0.218129 0.474122 0.2127709 0.478987 0.2451699 0.39206 0.248979 0.390275 0.218129 0.474122 0.170497 0.444229 0.125712 0.444855 0.13388 0.441782 0.170497 0.444229 0.161967 0.446965 0.125712 0.444855 0.170497 0.444229 0.103052 0.547589 0.09038096 0.552782 0.170497 0.444229 0.178649 0.441299 0.103052 0.547589 0.08128297 0.557311 0.170497 0.444229 0.09038096 0.552782 0.08128297 0.557311 0.161967 0.446965 0.170497 0.444229 0.103052 0.547589 0.136107 0.553393 0.09038096 0.552782 0.103052 0.547589 0.147252 0.547785 0.136107 0.553393 0.108147 0.660553 0.02327597 0.694817 0.03187996 0.688582 0.108147 0.660553 0.106506 0.667031 0.02327597 0.694817 0.04771494 0.677257 0.108147 0.660553 0.03187996 0.688582 0.04771494 0.677257 0.112528 0.653607 0.108147 0.660553 0.135724 0.705929 0.106506 0.667031 0.108147 0.660553 0.135724 0.705929 0.135995 0.714987 0.106506 0.667031 0.133991 0.691927 0.210736 0.539497 0.135724 0.705929 0.133991 0.691927 0.208358 0.528375 0.210736 0.539497 0.08128297 0.557311 0.136107 0.553393 0.125185 0.55718 0.08128297 0.557311 0.09038096 0.552782 0.136107 0.553393 0.136107 0.553393 0.04771494 0.677257 0.03187996 0.688582 0.136107 0.553393 0.147252 0.547785 0.04771494 0.677257 0.136107 0.553393 0.02327597 0.694817 0.125185 0.55718 0.136107 0.553393 0.03187996 0.688582 0.02327597 0.694817 0.334395 0.431508 0.389306 0.386783 0.396899 0.382101 0.334395 0.431508 0.331317 0.432058 0.389306 0.386783 0.278988 0.439761 0.364668 0.402533 0.286934 0.441792 0.278988 0.439761 0.389306 0.386783 0.364668 0.402533 0.389306 0.386783 0.275346 0.437737 0.396899 0.382101 0.389306 0.386783 0.278988 0.439761 0.275346 0.437737 0.286934 0.441792 0.286878 0.459937 0.278988 0.439761 0.286934 0.441792 0.294281 0.464345 0.286878 0.459937 0.334395 0.431508 0.347433 0.454356 0.331317 0.432058 0.334395 0.431508 0.351283 0.454874 0.347433 0.454356 0.331317 0.432058 0.364668 0.402533 0.389306 0.386783 0.331317 0.432058 0.323717 0.433389 0.364668 0.402533 0.275346 0.437737 0.286878 0.459937 0.283256 0.458038 0.275346 0.437737 0.278988 0.439761 0.286878 0.459937 0.218129 0.474122 0.286878 0.459937 0.2127709 0.478987 0.218129 0.474122 0.283256 0.458038 0.286878 0.459937 0.234076 0.399608 0.2127709 0.478987 0.201028 0.490762 0.234076 0.399608 0.2451699 0.39206 0.2127709 0.478987 0.264405 0.526185 0.406671 0.665814 0.253883 0.524812 0.264405 0.526185 0.418322 0.667657 0.406671 0.665814 0.418322 0.667657 0.270218 0.524343 0.431462 0.668454 0.418322 0.667657 0.264405 0.526185 0.270218 0.524343 0.812323 0.870267 0.855713 0.854013 0.866572 0.856361 0.739234 0.754023 0.855713 0.854013 0.731398 0.754102 0.739234 0.754023 0.866572 0.856361 0.855713 0.854013 0.798044 0.910982 0.812323 0.870267 0.800855 0.921107 0.798044 0.910982 0.808143 0.866207 0.812323 0.870267 0.812323 0.870267 0.808143 0.866207 0.855713 0.854013 0.808143 0.866207 0.835859 0.849718 0.855713 0.854013 0.835859 0.849718 0.731398 0.754102 0.855713 0.854013 0.835859 0.849718 0.717067 0.754246 0.731398 0.754102 0.776073 0.704828 0.731398 0.754102 0.717067 0.754246 0.776073 0.704828 0.789307 0.705603 0.731398 0.754102 0.77167 0.686927 0.789307 0.705603 0.776073 0.704828 0.789307 0.705603 0.77167 0.686927 0.778705 0.687136 0.789307 0.705603 0.778705 0.687136 0.796544 0.706025 0.808143 0.866207 0.798044 0.910982 0.792901 0.892467 0.808143 0.866207 0.792901 0.892467 0.800499 0.858782 0.808143 0.866207 0.800499 0.858782 0.835859 0.849718 0.789307 0.705603 0.739234 0.754023 0.731398 0.754102 0.789307 0.705603 0.796544 0.706025 0.739234 0.754023 0.77167 0.686927 0.758807 0.686547 0.79813 0.649563 0.77167 0.686927 0.776073 0.704828 0.758807 0.686547 0.681675 0.796632 0.798044 0.910982 0.800855 0.921107 0.681675 0.796632 0.679622 0.7873 0.798044 0.910982 0.679622 0.7873 0.792901 0.892467 0.798044 0.910982 0.679622 0.7873 0.675868 0.770235 0.792901 0.892467 0.633829 0.892756 0.675868 0.770235 0.679622 0.7873 0.633829 0.892756 0.679622 0.7873 0.637186 0.910981 0.604089 0.87127 0.633829 0.892756 0.637186 0.910981 0.602434 0.87705 0.604089 0.87127 0.637186 0.910981 0.527088 0.896637 0.604089 0.87127 0.602434 0.87705 0.527088 0.896637 0.602434 0.87705 0.514623 0.905978 0.602434 0.87705 0.637186 0.910981 0.639021 0.920948 0.681675 0.796632 0.637186 0.910981 0.679622 0.7873 0.681675 0.796632 0.639021 0.920948 0.637186 0.910981 0.591689 0.79402 0.527088 0.896637 0.514623 0.905978 0.591689 0.79402 0.60158 0.788419 0.527088 0.896637 0.584124 0.780405 0.619665 0.778177 0.60158 0.788419 0.60158 0.788419 0.619665 0.778177 0.549879 0.879558 0.60158 0.788419 0.549879 0.879558 0.527088 0.896637 0.604089 0.87127 0.527088 0.896637 0.549879 0.879558 0.604089 0.87127 0.549879 0.879558 0.607114 0.860703 0.604089 0.87127 0.607114 0.860703 0.633829 0.892756 0.591689 0.79402 0.556062 0.796254 0.565982 0.790652 0.591689 0.79402 0.565982 0.790652 0.60158 0.788419 0.584124 0.780405 0.60158 0.788419 0.565982 0.790652 0.623267 0.70785 0.584124 0.780405 0.565982 0.790652 0.623267 0.70785 0.640492 0.69893 0.584124 0.780405 0.611372 0.698643 0.640492 0.69893 0.623267 0.70785 0.611372 0.698643 0.623267 0.70785 0.592553 0.707547 0.707203 0.579398 0.611372 0.698643 0.592553 0.707547 0.707203 0.579398 0.592553 0.707547 0.733363 0.532334 0.582263 0.712416 0.733363 0.532334 0.592553 0.707547 0.582263 0.712416 0.747671 0.506597 0.733363 0.532334 0.613847 0.712729 0.592553 0.707547 0.623267 0.70785 0.613847 0.712729 0.582263 0.712416 0.592553 0.707547 0.613847 0.712729 0.565982 0.790652 0.556062 0.796254 0.613847 0.712729 0.623267 0.70785 0.565982 0.790652 0.691533 0.651459 0.702245 0.660937 0.678863 0.660103 0.691533 0.651459 0.678863 0.660103 0.707203 0.579398 0.691533 0.651459 0.707203 0.579398 0.733363 0.532334 0.698461 0.646731 0.691533 0.651459 0.733363 0.532334 0.698461 0.646731 0.733363 0.532334 0.747671 0.506597 0.778705 0.687136 0.847185 0.615903 0.874012 0.597496 0.778705 0.687136 0.77167 0.686927 0.847185 0.615903 0.77167 0.686927 0.79813 0.649563 0.847185 0.615903 0.701828 0.685441 0.847185 0.615903 0.79813 0.649563 0.701828 0.685441 0.79813 0.649563 0.715436 0.689301 0.712263 0.700592 0.701828 0.685441 0.715436 0.689301 0.712263 0.700592 0.715436 0.689301 0.726478 0.705008 0.692376 0.707983 0.712263 0.700592 0.726478 0.705008 0.692376 0.707983 0.726478 0.705008 0.675883 0.723809 0.701828 0.685441 0.692376 0.707983 0.675883 0.723809 0.701828 0.685441 0.675883 0.723809 0.702245 0.660937 0.701828 0.685441 0.702245 0.660937 0.715715 0.652323 0.691533 0.651459 0.715715 0.652323 0.702245 0.660937 0.715715 0.652323 0.691533 0.651459 0.698461 0.646731 0.715715 0.652323 0.698461 0.646731 0.723081 0.647611 0.712263 0.700592 0.692376 0.707983 0.701828 0.685441 0.715715 0.652323 0.711321 0.675657 0.701828 0.685441 0.715715 0.652323 0.723081 0.647611 0.711321 0.675657 0.847185 0.615903 0.711321 0.675657 0.874012 0.597496 0.847185 0.615903 0.701828 0.685441 0.711321 0.675657 0.591689 0.338817 0.565982 0.335448 0.556062 0.341051 0.591689 0.338817 0.60158 0.333216 0.565982 0.335448 0.565982 0.335448 0.613847 0.257526 0.556062 0.341051 0.565982 0.335448 0.623267 0.252647 0.613847 0.257526 0.584124 0.325202 0.623267 0.252647 0.565982 0.335448 0.60158 0.333216 0.584124 0.325202 0.565982 0.335448 0.60158 0.333216 0.619665 0.322974 0.584124 0.325202 0.549879 0.424355 0.619665 0.322974 0.60158 0.333216 0.549879 0.424355 0.60158 0.333216 0.527088 0.441434 0.604089 0.416067 0.549879 0.424355 0.527088 0.441434 0.602434 0.421847 0.604089 0.416067 0.527088 0.441434 0.637186 0.455778 0.604089 0.416067 0.602434 0.421847 0.637186 0.455778 0.602434 0.421847 0.639021 0.465745 0.602434 0.421847 0.527088 0.441434 0.514623 0.450775 0.604089 0.416067 0.607114 0.4055 0.549879 0.424355 0.604089 0.416067 0.633829 0.437553 0.607114 0.4055 0.604089 0.416067 0.637186 0.455778 0.633829 0.437553 0.527088 0.441434 0.591689 0.338817 0.514623 0.450775 0.527088 0.441434 0.60158 0.333216 0.591689 0.338817 0.584124 0.325202 0.640492 0.243727 0.623267 0.252647 0.623267 0.252647 0.640492 0.243727 0.611372 0.243439 0.623267 0.252647 0.611372 0.243439 0.592553 0.252343 0.592553 0.252343 0.611372 0.243439 0.707203 0.124195 0.592553 0.252343 0.707203 0.124195 0.733363 0.07713097 0.707203 0.124195 0.691533 0.196256 0.733363 0.07713097 0.698461 0.191528 0.733363 0.07713097 0.691533 0.196256 0.698461 0.191528 0.747671 0.05139398 0.733363 0.07713097 0.582263 0.257213 0.733363 0.07713097 0.747671 0.05139398 0.582263 0.257213 0.592553 0.252343 0.733363 0.07713097 0.707203 0.124195 0.678863 0.204899 0.691533 0.196256 0.691533 0.196256 0.678863 0.204899 0.702245 0.205734 0.613847 0.257526 0.592553 0.252343 0.582263 0.257213 0.613847 0.257526 0.623267 0.252647 0.592553 0.252343 0.712263 0.245389 0.701828 0.230238 0.692376 0.25278 0.701828 0.230238 0.675883 0.268606 0.692376 0.25278 0.701828 0.230238 0.702245 0.205734 0.675883 0.268606 0.701828 0.230238 0.715715 0.19712 0.702245 0.205734 0.691533 0.196256 0.702245 0.205734 0.715715 0.19712 0.698461 0.191528 0.691533 0.196256 0.715715 0.19712 0.698461 0.191528 0.715715 0.19712 0.723081 0.192408 0.711321 0.220454 0.715715 0.19712 0.701828 0.230238 0.711321 0.220454 0.723081 0.192408 0.715715 0.19712 0.726478 0.249805 0.692376 0.25278 0.675883 0.268606 0.726478 0.249805 0.712263 0.245389 0.692376 0.25278 0.715436 0.234098 0.712263 0.245389 0.726478 0.249805 0.715436 0.234098 0.701828 0.230238 0.712263 0.245389 0.701828 0.230238 0.715436 0.234098 0.79813 0.19436 0.701828 0.230238 0.79813 0.19436 0.847185 0.1607 0.79813 0.19436 0.77167 0.231724 0.847185 0.1607 0.778705 0.2319329 0.847185 0.1607 0.77167 0.231724 0.778705 0.2319329 0.874012 0.142293 0.847185 0.1607 0.711321 0.220454 0.847185 0.1607 0.874012 0.142293 0.711321 0.220454 0.701828 0.230238 0.847185 0.1607 0.789307 0.2504 0.739234 0.29882 0.796544 0.250822 0.789307 0.2504 0.731398 0.298899 0.739234 0.29882 0.731398 0.298899 0.789307 0.2504 0.776073 0.249625 0.77167 0.231724 0.776073 0.249625 0.789307 0.2504 0.77167 0.231724 0.758807 0.231344 0.776073 0.249625 0.79813 0.19436 0.758807 0.231344 0.77167 0.231724 0.778705 0.2319329 0.789307 0.2504 0.796544 0.250822 0.778705 0.2319329 0.77167 0.231724 0.789307 0.2504 0.731398 0.298899 0.717067 0.299043 0.835859 0.394515 0.731398 0.298899 0.776073 0.249625 0.717067 0.299043 0.739234 0.29882 0.855713 0.39881 0.866572 0.401158 0.739234 0.29882 0.731398 0.298899 0.855713 0.39881 0.731398 0.298899 0.835859 0.394515 0.855713 0.39881 0.835859 0.394515 0.808143 0.411004 0.855713 0.39881 0.835859 0.394515 0.800499 0.403579 0.808143 0.411004 0.808143 0.411004 0.800499 0.403579 0.792901 0.437264 0.681675 0.341429 0.637186 0.455778 0.639021 0.465745 0.681675 0.341429 0.679622 0.332097 0.637186 0.455778 0.679622 0.332097 0.633829 0.437553 0.637186 0.455778 0.679622 0.332097 0.675868 0.315032 0.633829 0.437553 0.679622 0.332097 0.792901 0.437264 0.675868 0.315032 0.679622 0.332097 0.798044 0.455779 0.792901 0.437264 0.808143 0.411004 0.792901 0.437264 0.798044 0.455779 0.812323 0.415063 0.808143 0.411004 0.798044 0.455779 0.855713 0.39881 0.808143 0.411004 0.812323 0.415063 0.855713 0.39881 0.812323 0.415063 0.866572 0.401158 0.812323 0.415063 0.798044 0.455779 0.800855 0.465904 0.681675 0.341429 0.798044 0.455779 0.679622 0.332097 0.681675 0.341429 0.800855 0.465904 0.798044 0.455779 0.95981 0.463174 0.946875 0.318681 0.95981 0.318639 0.95981 0.463174 0.946875 0.463216 0.946875 0.318681 0.93394 0.463258 0.946875 0.318681 0.946875 0.463216 0.93394 0.463258 0.93394 0.318724 0.946875 0.318681 0.933151 0.831034 0.933151 0.863432 0.947149 0.863432 0.933151 0.831034 0.947149 0.863432 0.947184 0.831034 0.947149 0.863432 0.933151 0.831034 0.947184 0.831034 0.947149 0.863432 0.933151 0.863432 0.933151 0.831034 0.95981 0.487526 0.946875 0.463216 0.95981 0.463174 0.95981 0.487526 0.946875 0.487569 0.946875 0.463216 0.93394 0.487611 0.946875 0.463216 0.946875 0.487569 0.93394 0.487611 0.93394 0.463258 0.946875 0.463216 0.947016 0.680359 0.933151 0.6253 0.933151 0.680359 0.947016 0.680359 0.947166 0.6253 0.933151 0.6253 0.947016 0.680359 0.933151 0.6253 0.947166 0.6253 0.947016 0.680359 0.933151 0.680359 0.933151 0.6253 0.933151 0.863432 0.946866 0.966823 0.933151 0.966823 0.933151 0.863432 0.947149 0.863432 0.946866 0.966823 0.933151 0.863432 0.946866 0.966823 0.947149 0.863432 0.933151 0.863432 0.933151 0.966823 0.946866 0.966823 0.933151 0.793995 0.933151 0.831034 0.947184 0.831034 0.933151 0.793995 0.947184 0.831034 0.947322 0.793995 0.947184 0.831034 0.933151 0.793995 0.947322 0.793995 0.947184 0.831034 0.933151 0.831034 0.933151 0.793995 0.947016 0.680359 0.933151 0.680359 0.933151 0.793995 0.947016 0.680359 0.933151 0.793995 0.947322 0.793995 0.933151 0.793995 0.947016 0.680359 0.947322 0.793995 0.933151 0.793995 0.933151 0.680359 0.947016 0.680359 0.912572 0.517371 0.899411 0.631182 0.912572 0.631182 0.912572 0.517371 0.899205 0.517371 0.899411 0.631182 0.912572 0.517371 0.899411 0.631182 0.899205 0.517371 0.912572 0.517371 0.912572 0.631182 0.899411 0.631182 0.912572 0.871105 0.899104 0.75818 0.912572 0.758179 0.912572 0.871105 0.898982 0.871105 0.899104 0.75818 0.912572 0.871105 0.899104 0.75818 0.898982 0.871105 0.912572 0.871105 0.912572 0.758179 0.899104 0.75818 0.899218 0.380342 0.912572 0.405537 0.912572 0.380342 0.899218 0.380342 0.899139 0.405537 0.912572 0.405537 0.899218 0.380342 0.912572 0.405537 0.899139 0.405537 0.899218 0.380342 0.912572 0.380342 0.912572 0.405537 0.912572 0.758179 0.899189 0.709374 0.912572 0.709374 0.912572 0.758179 0.899104 0.75818 0.899189 0.709374 0.912572 0.758179 0.899189 0.709374 0.899104 0.75818 0.912572 0.758179 0.912572 0.709374 0.899189 0.709374 0.899294 0.487876 0.912572 0.517371 0.912572 0.487876 0.899294 0.487876 0.899205 0.517371 0.912572 0.517371 0.899294 0.487876 0.912572 0.517371 0.899205 0.517371 0.899294 0.487876 0.912572 0.487876 0.912572 0.517371 0.912572 0.172159 0.899218 0.380342 0.912572 0.380342 0.912572 0.172159 0.89878 0.172159 0.899218 0.380342 0.912572 0.172159 0.899218 0.380342 0.89878 0.172159 0.912572 0.172159 0.912572 0.380342 0.899218 0.380342 0.933151 0.05538296 0.946928 0.213075 0.933151 0.213075 0.933151 0.05538296 0.94707 0.05538296 0.946928 0.213075 0.933151 0.05538296 0.946928 0.213075 0.94707 0.05538296 0.933151 0.05538296 0.933151 0.213075 0.946928 0.213075 0.899411 0.631182 0.912572 0.709374 0.912572 0.631182 0.899411 0.631182 0.899189 0.709374 0.912572 0.709374 0.899411 0.631182 0.912572 0.709374 0.899189 0.709374 0.899411 0.631182 0.912572 0.631182 0.912572 0.709374 0.946928 0.213075 0.933151 0.213075 0.933151 0.238605 0.946928 0.213075 0.933151 0.238605 0.94699 0.238605 0.933151 0.238605 0.946928 0.213075 0.94699 0.238605 0.933151 0.238605 0.933151 0.213075 0.946928 0.213075 0.899294 0.487876 0.912572 0.487876 0.912572 0.405537 0.899294 0.487876 0.912572 0.405537 0.899139 0.405537 0.912572 0.405537 0.899294 0.487876 0.899139 0.405537 0.912572 0.405537 0.912572 0.487876 0.899294 0.487876 0.947124 0.604414 0.933151 0.604414 0.933151 0.6253 0.947124 0.604414 0.933151 0.6253 0.947166 0.6253 0.933151 0.6253 0.947124 0.604414 0.947166 0.6253 0.933151 0.6253 0.933151 0.604414 0.947124 0.604414 0.947124 0.604414 0.933151 0.491639 0.933151 0.604414 0.947124 0.604414 0.947375 0.491639 0.933151 0.491639 0.947124 0.604414 0.933151 0.491639 0.947375 0.491639 0.947124 0.604414 0.933151 0.604414 0.933151 0.491639</float_array>
          <technique_common>
            <accessor source="#pickup_powerup_crit-mesh-map-0-array" count="1338" stride="2">
              <param name="S" type="float"/>
              <param name="T" type="float"/>
            </accessor>
          </technique_common>
        </source>
        <vertices id="pickup_powerup_crit-mesh-vertices">
          <input semantic="POSITION" source="#pickup_powerup_crit-mesh-positions"/>
        </vertices>
        <triangles material="pickup_powerup_set_temp-material" count="206">
          <input semantic="VERTEX" source="#pickup_powerup_crit-mesh-vertices" offset="0"/>
          <input semantic="NORMAL" source="#pickup_powerup_crit-mesh-normals" offset="1"/>
          <input semantic="TEXCOORD" source="#pickup_powerup_crit-mesh-map-0" offset="2" set="0"/>
          <p>0 0 0 1 1 1 2 2 2 0 0 3 2 2 4 3 3 5 4 4 6 5 5 7 6 6 8 4 4 9 7 7 10 5 5 11 7 7 12 8 8 13 5 5 14 8 8 15 7 7 16 1 9 17 1 9 18 7 7 19 2 10 20 4 4 21 2 11 22 7 7 23 4 4 24 3 12 25 2 11 26 8 8 27 1 9 28 9 13 29 8 8 30 9 13 31 10 14 32 8 8 33 10 14 34 11 15 35 11 15 36 10 14 37 12 16 38 13 17 39 12 16 40 10 14 41 13 17 42 14 17 43 12 16 44 10 18 45 15 19 46 16 20 47 10 18 48 9 21 49 15 19 50 17 22 51 11 23 52 18 24 53 17 22 54 8 25 55 11 23 56 11 26 57 19 27 58 18 28 59 11 26 60 12 29 61 19 27 62 20 30 63 21 31 64 22 32 65 20 30 66 23 33 67 21 31 68 23 33 69 1 9 70 21 31 71 23 33 72 24 34 73 1 9 74 1 9 75 24 34 76 9 13 77 25 35 78 9 13 79 24 34 80 25 35 81 26 36 82 9 13 83 25 35 84 27 37 85 26 36 86 27 37 87 25 35 88 28 38 89 27 37 90 28 38 91 29 39 92 25 35 93 24 34 94 30 40 95 24 34 96 23 33 97 31 41 98 26 42 99 32 43 100 33 44 101 26 42 102 27 45 103 32 43 104 34 46 105 35 47 106 36 48 107 35 47 108 37 49 109 38 50 110 35 47 111 39 51 112 37 49 113 34 46 114 39 51 115 35 47 116 39 51 117 34 46 118 40 52 119 41 53 120 37 54 121 39 51 122 40 52 123 41 53 124 39 51 125 40 52 126 42 55 127 41 53 128 40 52 129 43 56 130 42 55 131 40 52 132 44 57 133 43 56 134 44 57 135 45 58 136 43 56 137 46 59 138 45 58 139 47 59 140 46 59 141 43 56 142 45 58 143 43 60 144 48 61 145 42 62 146 43 60 147 49 63 148 48 61 149 50 64 150 51 65 151 52 66 152 50 64 153 52 66 154 53 67 155 53 67 156 52 66 157 41 53 158 53 67 159 41 53 160 54 68 161 41 53 162 42 55 163 54 68 164 55 69 165 54 68 166 42 55 167 56 70 168 55 69 169 42 55 170 56 70 171 57 71 172 55 69 173 58 72 174 55 69 175 57 71 176 58 72 177 57 71 178 59 73 179 54 68 180 60 74 181 53 67 182 55 69 183 61 75 184 54 68 185 44 76 186 62 77 187 45 78 188 44 76 189 63 79 190 62 77 191 64 80 192 56 81 193 65 82 194 64 80 195 57 83 196 56 81 197 4 84 198 66 85 199 3 86 200 4 84 201 67 87 202 66 85 203 68 88 204 49 89 205 69 90 206 68 88 207 48 91 208 49 89 209 56 92 210 48 93 211 65 94 212 56 92 213 42 95 214 48 93 215 70 96 216 34 97 217 36 98 218 70 96 219 40 99 220 34 97 221 36 100 222 71 101 223 70 102 224 36 100 225 72 103 226 71 101 227 63 104 228 71 105 229 73 106 230 63 104 231 70 107 232 71 105 233 38 108 234 74 109 235 75 110 236 38 108 237 76 111 238 74 109 239 76 112 240 77 113 241 74 114 242 76 112 243 51 115 244 77 113 245 78 116 246 36 117 247 35 118 248 78 116 249 72 119 250 36 117 251 70 120 252 44 121 253 40 122 254 70 120 255 63 123 256 44 121 257 35 124 258 75 125 259 78 126 260 35 124 261 38 127 262 75 125 263 37 128 264 76 129 265 38 130 266 37 128 267 41 131 268 76 129 269 79 132 270 0 133 271 80 134 272 79 132 273 22 135 274 0 133 275 6 136 276 67 137 277 4 138 278 6 136 279 81 139 280 67 137 281 18 140 282 82 141 283 17 142 284 18 140 285 83 143 286 82 141 287 3 144 288 80 145 289 0 146 290 3 144 291 66 147 292 80 145 293 84 148 294 85 149 295 86 150 296 84 148 297 64 151 298 85 149 299 87 152 300 59 153 301 84 154 302 87 152 303 58 155 304 59 153 305 88 156 306 84 157 307 86 158 308 88 156 309 87 159 310 84 157 311 58 160 312 89 161 313 55 162 314 58 160 315 87 163 316 89 161 317 85 164 318 65 165 319 90 166 320 85 164 321 64 167 322 65 165 323 59 168 324 64 169 325 84 170 326 59 168 327 57 171 328 64 169 329 65 172 330 68 173 331 90 174 332 65 172 333 48 175 334 68 173 335 88 176 336 89 177 337 87 178 338 88 176 339 91 179 340 89 177 341 61 180 342 89 181 343 92 182 344 61 180 345 55 183 346 89 181 347 89 184 348 93 185 349 92 186 350 89 184 351 91 187 352 93 185 353 94 188 354 61 189 355 92 190 356 94 188 357 54 191 358 61 189 359 50 192 360 95 193 361 96 194 362 50 192 363 97 195 364 95 193 365 50 196 366 60 197 367 97 198 368 50 196 369 53 199 370 60 197 371 51 200 372 96 201 373 77 202 374 51 200 375 50 203 376 96 201 377 76 204 378 52 205 379 51 206 380 76 204 381 41 207 382 52 205 383 94 208 384 93 209 385 98 210 386 94 208 387 92 211 388 93 209 389 94 212 390 60 213 391 54 214 392 94 212 393 97 215 394 60 213 395 94 216 396 95 217 397 97 218 398 94 216 399 98 219 400 95 217 401 99 220 402 100 221 403 101 222 404 99 220 405 62 223 406 100 221 407 102 224 408 47 225 409 99 226 410 102 224 411 46 227 412 47 225 413 103 228 414 99 229 415 101 230 416 103 228 417 102 231 418 99 229 419 46 232 420 49 233 421 43 234 422 46 232 423 102 235 424 49 233 425 63 236 426 100 237 427 62 238 428 63 236 429 73 239 430 100 237 431 62 240 432 47 241 433 45 242 434 62 240 435 99 243 436 47 241 437 103 244 438 49 245 439 102 246 440 103 244 441 69 247 442 49 245 443 104 248 444 105 249 445 32 250 446 104 248 447 106 251 448 105 249 449 107 252 450 29 253 451 28 254 452 107 252 453 104 255 454 29 253 455 104 256 456 108 257 457 106 258 458 104 256 459 107 259 460 108 257 461 28 260 462 109 261 463 107 262 464 28 260 465 25 263 466 109 261 467 33 264 468 105 265 469 110 266 470 33 264 471 32 267 472 105 265 473 32 268 474 29 269 475 104 270 476 32 268 477 27 271 478 29 269 479 33 272 480 111 273 481 15 274 482 33 272 483 110 275 484 111 273 485 109 276 486 108 277 487 107 278 488 109 276 489 112 279 490 108 277 491 109 280 492 30 281 493 113 282 494 109 280 495 25 283 496 30 281 497 114 284 498 109 285 499 113 286 500 114 284 501 112 287 502 109 285 503 30 288 504 115 289 505 113 290 506 30 288 507 24 291 508 115 289 509 20 292 510 116 293 511 117 294 512 20 292 513 118 295 514 116 293 515 31 296 516 20 297 517 117 298 518 31 296 519 23 299 520 20 297 521 22 300 522 118 301 523 20 302 524 22 300 525 79 303 526 118 301 527 21 304 528 0 305 529 22 306 530 21 304 531 1 307 532 0 305 533 114 308 534 115 309 535 119 310 536 114 308 537 113 311 538 115 309 539 115 312 540 31 313 541 117 314 542 115 312 543 24 315 544 31 313 545 115 316 546 116 317 547 119 318 548 115 316 549 117 319 550 116 317 551 120 320 552 121 321 553 122 322 554 120 320 555 19 323 556 121 321 557 123 324 558 14 325 559 13 326 560 123 324 561 121 327 562 14 325 563 121 328 564 124 329 565 122 330 566 121 328 567 123 331 568 124 329 569 13 332 570 16 333 571 123 334 572 13 332 573 10 335 574 16 333 575 120 336 576 18 337 577 19 338 578 120 336 579 83 339 580 18 337 581 19 340 582 14 341 583 121 342 584 19 340 585 12 343 586 14 341 587 124 344 588 16 345 589 125 346 590 124 344 591 123 347 592 16 345 593 111 348 594 16 349 595 15 350 596 111 348 597 125 351 598 16 349 599 26 352 600 15 353 601 9 354 602 26 352 603 33 355 604 15 353 605 17 356 606 5 357 607 8 358 608 17 356 609 6 359 610 5 357 611 6 360 612 82 361 613 81 362 614 6 360 615 17 363 616 82 361 617</p>
        </triangles>
        <triangles material="pickup_powerup_set_new-material" count="240">
          <input semantic="VERTEX" source="#pickup_powerup_crit-mesh-vertices" offset="0"/>
          <input semantic="NORMAL" source="#pickup_powerup_crit-mesh-normals" offset="1"/>
          <input semantic="TEXCOORD" source="#pickup_powerup_crit-mesh-map-0" offset="2" set="0"/>
          <p>126 364 618 127 365 619 128 366 620 129 367 621 127 365 622 130 368 623 129 367 624 128 369 625 127 365 626 131 370 627 126 364 628 132 371 629 131 370 630 133 372 631 126 364 632 126 364 633 133 372 634 127 365 635 133 372 636 81 373 637 127 365 638 81 373 639 130 368 640 127 365 641 81 373 642 82 374 643 130 368 644 83 375 645 130 368 646 82 374 647 83 375 648 134 376 649 130 368 650 135 377 651 134 376 652 83 375 653 134 376 654 135 377 655 136 378 656 134 376 657 136 378 658 137 379 659 133 372 660 131 370 661 66 380 662 133 372 663 66 380 664 67 17 665 133 372 666 67 17 667 81 373 668 134 376 669 129 381 670 130 368 671 134 376 672 137 382 673 129 381 674 135 377 675 120 383 676 122 384 677 135 377 678 83 375 679 120 383 680 138 385 681 131 370 682 132 386 683 138 385 684 139 387 685 131 370 686 139 387 687 66 380 688 131 370 689 139 387 690 80 388 691 66 380 692 79 389 693 80 388 694 139 387 695 79 389 696 139 387 697 140 390 698 141 391 699 79 389 700 140 390 701 142 392 702 141 391 703 140 390 704 143 393 705 141 391 706 142 392 707 143 393 708 142 392 709 144 394 710 142 392 711 140 390 712 145 395 713 138 396 714 140 390 715 139 387 716 138 396 717 145 397 718 140 390 719 146 398 720 143 393 721 144 399 722 146 398 723 147 400 724 143 393 725 114 401 726 119 17 727 147 400 728 147 400 729 119 17 730 116 402 731 147 400 732 116 402 733 143 393 734 141 391 735 143 393 736 116 402 737 141 391 738 116 402 739 118 17 740 141 391 741 118 17 742 79 389 743 146 403 744 148 404 745 149 405 746 146 403 747 149 405 748 147 400 749 114 401 750 147 400 751 149 405 752 150 406 753 114 401 754 149 405 755 150 406 756 112 17 757 114 401 758 108 407 759 112 17 760 150 406 761 108 407 762 150 406 763 151 408 764 106 409 765 108 407 766 151 408 767 106 409 768 151 408 769 152 410 770 153 411 771 152 410 772 151 408 773 153 411 774 154 412 775 152 410 776 155 413 777 151 408 778 150 406 779 155 413 780 153 414 781 151 408 782 155 415 783 149 405 784 148 416 785 155 415 786 150 406 787 149 405 788 156 417 789 110 418 790 105 17 791 156 417 792 105 17 793 106 409 794 156 417 795 106 409 796 152 410 797 157 419 798 156 417 799 152 410 800 157 419 801 152 410 802 154 420 803 136 421 804 158 422 805 159 423 806 136 421 807 135 377 808 158 422 809 135 377 810 122 384 811 158 422 812 160 424 813 158 422 814 122 384 815 160 424 816 122 384 817 124 425 818 161 426 819 160 424 820 124 425 821 161 426 822 124 425 823 125 427 824 162 428 825 161 426 826 125 427 827 162 428 828 125 427 829 111 429 830 160 424 831 162 428 832 111 429 833 160 424 834 111 429 835 110 418 836 160 424 837 110 418 838 163 430 839 156 417 840 163 430 841 110 418 842 163 430 843 156 417 844 157 431 845 163 430 846 157 431 847 164 432 848 161 426 849 162 428 850 160 424 851 163 430 852 165 433 853 160 424 854 163 430 855 164 434 856 165 433 857 158 422 858 165 435 859 159 436 860 158 422 861 160 424 862 165 435 863 166 437 864 167 438 865 168 439 866 166 437 867 169 440 868 167 438 869 167 438 870 170 441 871 168 442 872 167 438 873 171 443 874 170 441 875 93 444 876 171 443 877 167 438 878 169 440 879 93 444 880 167 438 881 169 440 882 98 445 883 93 444 884 95 446 885 98 445 886 169 440 887 95 446 888 169 440 889 172 447 890 173 448 891 95 446 892 172 447 893 174 449 894 173 448 895 172 447 896 175 450 897 173 448 898 174 449 899 175 450 900 174 449 901 176 451 902 174 449 903 172 447 904 177 452 905 173 448 906 96 59 907 95 446 908 173 448 909 77 453 910 96 59 911 173 448 912 175 450 913 77 453 914 172 447 915 166 454 916 177 455 917 172 447 918 169 440 919 166 454 920 93 444 921 91 456 922 171 443 923 171 443 924 91 456 925 88 59 926 171 443 927 88 59 928 178 457 929 178 457 930 88 59 931 86 458 932 178 457 933 86 458 934 179 459 935 86 458 936 180 460 937 179 459 938 181 461 939 179 459 940 180 460 941 181 461 942 182 462 943 179 459 944 183 463 945 179 459 946 182 464 947 183 463 948 178 457 949 179 459 950 86 458 951 85 465 952 180 460 953 180 460 954 85 465 955 90 466 956 170 467 957 178 457 958 183 468 959 170 467 960 171 443 961 178 457 962 184 469 963 185 470 964 186 471 965 185 470 966 68 472 967 186 471 968 185 470 969 90 466 970 68 472 971 185 470 972 187 473 973 90 466 974 180 460 975 90 466 976 187 473 977 181 474 978 180 460 979 187 473 980 181 474 981 187 473 982 188 475 983 189 476 984 187 473 985 185 470 986 189 476 987 188 477 988 187 473 989 69 478 990 186 471 991 68 472 992 69 478 993 184 469 994 186 471 995 103 479 996 184 469 997 69 478 998 103 479 999 185 470 1000 184 469 1001 185 470 1002 103 479 1003 101 480 1004 185 470 1005 101 480 1006 190 481 1007 101 480 1008 191 482 1009 190 481 1010 192 483 1011 190 481 1012 191 482 1013 192 483 1014 193 484 1015 190 481 1016 189 485 1017 190 481 1018 193 486 1019 189 485 1020 185 470 1021 190 481 1022 194 487 1023 195 488 1024 196 489 1025 194 487 1026 197 490 1027 195 488 1028 197 490 1029 194 487 1030 73 491 1031 191 482 1032 73 491 1033 194 487 1034 191 482 1035 100 492 1036 73 491 1037 101 480 1038 100 492 1039 191 482 1040 192 493 1041 194 487 1042 196 494 1043 192 493 1044 191 482 1045 194 487 1046 197 490 1047 71 59 1048 72 495 1049 197 490 1050 73 491 1051 71 59 1052 195 496 1053 198 497 1054 199 498 1055 195 496 1056 197 490 1057 198 497 1058 197 490 1059 72 495 1060 198 497 1061 72 495 1062 200 499 1063 198 497 1064 72 495 1065 78 59 1066 200 499 1067 200 499 1068 78 59 1069 75 500 1070 201 501 1071 175 450 1072 176 502 1073 201 501 1074 202 503 1075 175 450 1076 202 503 1077 77 453 1078 175 450 1079 202 503 1080 74 59 1081 77 453 1082 202 503 1083 75 500 1084 74 59 1085 202 503 1086 203 504 1087 75 500 1088 200 499 1089 75 500 1090 203 504 1091 204 505 1092 200 499 1093 203 504 1094 198 497 1095 200 499 1096 204 505 1097 198 497 1098 204 505 1099 199 506 1100 204 505 1101 203 504 1102 205 507 1103 201 508 1104 203 504 1105 202 503 1106 201 508 1107 205 509 1108 203 504 1109 165 510 1110 206 511 1111 159 512 1112 165 510 1113 207 513 1114 206 511 1115 189 514 1116 206 511 1117 207 513 1118 189 514 1119 193 515 1120 206 511 1121 204 516 1122 205 517 1123 208 518 1124 204 516 1125 208 518 1126 209 519 1127 208 518 1128 126 520 1129 209 519 1130 208 518 1131 132 521 1132 126 520 1133 164 522 1134 207 523 1135 165 524 1136 164 522 1137 210 525 1138 207 523 1139 188 526 1140 207 523 1141 210 525 1142 188 527 1143 189 528 1144 207 525 1145 211 529 1146 196 530 1147 195 531 1148 211 529 1149 212 532 1150 196 530 1151 211 529 1152 137 533 1153 212 532 1154 211 529 1155 129 534 1156 137 533 1157 132 535 1158 213 536 1159 138 537 1160 132 535 1161 208 538 1162 213 536 1163 205 539 1164 213 536 1165 208 538 1166 205 539 1167 201 540 1168 213 536 1169 199 541 1170 204 542 1171 209 543 1172 199 541 1173 209 543 1174 214 544 1175 209 543 1176 128 545 1177 214 544 1178 209 543 1179 126 546 1180 128 545 1181 211 547 1182 195 548 1183 199 549 1184 211 547 1185 199 549 1186 214 550 1187 128 551 1188 211 547 1189 214 550 1190 128 551 1191 129 552 1192 211 547 1193 166 553 1194 215 554 1195 177 555 1196 166 553 1197 216 556 1198 215 554 1199 146 557 1200 215 554 1201 216 556 1202 146 557 1203 144 558 1204 215 554 1205 138 559 1206 217 560 1207 145 561 1208 138 559 1209 213 562 1210 217 560 1211 201 563 1212 217 560 1213 213 562 1214 201 563 1215 176 564 1216 217 560 1217 218 565 1218 170 566 1219 183 567 1220 218 565 1221 219 568 1222 170 566 1223 218 565 1224 155 569 1225 219 568 1226 218 565 1227 153 570 1228 155 569 1229 145 571 1230 220 572 1231 142 573 1232 145 571 1233 217 574 1234 220 572 1235 176 575 1236 220 572 1237 217 574 1238 176 575 1239 174 576 1240 220 572 1241 221 577 1242 166 578 1243 168 579 1244 221 577 1245 216 580 1246 166 578 1247 221 577 1248 146 581 1249 216 580 1250 221 577 1251 148 582 1252 146 581 1253 182 583 1254 218 584 1255 183 585 1256 182 583 1257 222 586 1258 218 584 1259 154 587 1260 218 584 1261 222 586 1262 154 587 1263 153 588 1264 218 584 1265 154 589 1266 223 590 1267 157 591 1268 154 589 1269 222 592 1270 223 590 1271 182 593 1272 223 590 1273 222 592 1274 182 593 1275 181 594 1276 223 590 1277 215 595 1278 174 596 1279 177 597 1280 215 595 1281 220 598 1282 174 596 1283 215 595 1284 142 599 1285 220 598 1286 215 595 1287 144 600 1288 142 599 1289 223 601 1290 181 602 1291 188 603 1292 223 601 1293 188 603 1294 224 604 1295 164 605 1296 223 601 1297 224 604 1298 164 606 1299 157 606 1300 223 606 1301 221 607 1302 168 608 1303 170 609 1304 221 607 1305 170 609 1306 219 610 1307 155 611 1308 221 607 1309 219 610 1310 155 611 1311 148 612 1312 221 607 1313 225 613 1314 192 614 1315 196 615 1316 225 613 1317 196 615 1318 212 616 1319 137 617 1320 225 613 1321 212 616 1322 137 617 1323 136 618 1324 225 613 1325 225 619 1326 193 620 1327 192 621 1328 225 622 1329 226 623 1330 193 624 1331 225 622 1332 159 625 1333 226 623 1334 225 622 1335 136 626 1336 159 625 1337</p>
        </triangles>
      </mesh>
    </geometry>
  </library_geometries>
  <library_controllers>
    <controller id="pickup_powerup_crit_qc_skeleton_pickup_powerup_crit-skin" name="pickup_powerup_crit.qc_skeleton">
      <skin source="#pickup_powerup_crit-mesh">
        <bind_shape_matrix>1 0 0 0 0 1 0 0 0 0 1 0 0 0 0 1</bind_shape_matrix>
        <source id="pickup_powerup_crit_qc_skeleton_pickup_powerup_crit-skin-joints">
          <Name_array id="pickup_powerup_crit_qc_skeleton_pickup_powerup_crit-skin-joints-array" count="1">jnt_spin</Name_array>
          <technique_common>
            <accessor source="#pickup_powerup_crit_qc_skeleton_pickup_powerup_crit-skin-joints-array" count="1" stride="1">
              <param name="JOINT" type="name"/>
            </accessor>
          </technique_common>
        </source>
        <source id="pickup_powerup_crit_qc_skeleton_pickup_powerup_crit-skin-bind_poses">
          <float_array id="pickup_powerup_crit_qc_skeleton_pickup_powerup_crit-skin-bind_poses-array" count="16">0.9985334 0 -0.05413848 0 0 1 0 0 0.05413848 0 0.9985334 0 0 0 0 1</float_array>
          <technique_common>
            <accessor source="#pickup_powerup_crit_qc_skeleton_pickup_powerup_crit-skin-bind_poses-array" count="1" stride="16">
              <param name="TRANSFORM" type="float4x4"/>
            </accessor>
          </technique_common>
        </source>
        <source id="pickup_powerup_crit_qc_skeleton_pickup_powerup_crit-skin-weights">
          <float_array id="pickup_powerup_crit_qc_skeleton_pickup_powerup_crit-skin-weights-array" count="227">1 1 1 1 1 1 1 1 1 1 1 1 1 1 1 1 1 1 1 1 1 1 1 1 1 1 1 1 1 1 1 1 1 1 1 1 1 1 1 1 1 1 1 1 1 1 1 1 1 1 1 1 1 1 1 1 1 1 1 1 1 1 1 1 1 1 1 1 1 1 1 1 1 1 1 1 1 1 1 1 1 1 1 1 1 1 1 1 1 1 1 1 1 1 1 1 1 1 1 1 1 1 1 1 1 1 1 1 1 1 1 1 1 1 1 1 1 1 1 1 1 1 1 1 1 1 1 1 1 1 1 1 1 1 1 1 1 1 1 1 1 1 1 1 1 1 1 1 1 1 1 1 1 1 1 1 1 1 1 1 1 1 1 1 1 1 1 1 1 1 1 1 1 1 1 1 1 1 1 1 1 1 1 1 1 1 1 1 1 1 1 1 1 1 1 1 1 1 1 1 1 1 1 1 1 1 1 1 1 1 1 1 1 1 1 1 1 1 1 1 1 1 1 1 1 1 1</float_array>
          <technique_common>
            <accessor source="#pickup_powerup_crit_qc_skeleton_pickup_powerup_crit-skin-weights-array" count="227" stride="1">
              <param name="WEIGHT" type="float"/>
            </accessor>
          </technique_common>
        </source>
        <joints>
          <input semantic="JOINT" source="#pickup_powerup_crit_qc_skeleton_pickup_powerup_crit-skin-joints"/>
          <input semantic="INV_BIND_MATRIX" source="#pickup_powerup_crit_qc_skeleton_pickup_powerup_crit-skin-bind_poses"/>
        </joints>
        <vertex_weights count="227">
          <input semantic="JOINT" source="#pickup_powerup_crit_qc_skeleton_pickup_powerup_crit-skin-joints" offset="0"/>
          <input semantic="WEIGHT" source="#pickup_powerup_crit_qc_skeleton_pickup_powerup_crit-skin-weights" offset="1"/>
          <vcount>1 1 1 1 1 1 1 1 1 1 1 1 1 1 1 1 1 1 1 1 1 1 1 1 1 1 1 1 1 1 1 1 1 1 1 1 1 1 1 1 1 1 1 1 1 1 1 1 1 1 1 1 1 1 1 1 1 1 1 1 1 1 1 1 1 1 1 1 1 1 1 1 1 1 1 1 1 1 1 1 1 1 1 1 1 1 1 1 1 1 1 1 1 1 1 1 1 1 1 1 1 1 1 1 1 1 1 1 1 1 1 1 1 1 1 1 1 1 1 1 1 1 1 1 1 1 1 1 1 1 1 1 1 1 1 1 1 1 1 1 1 1 1 1 1 1 1 1 1 1 1 1 1 1 1 1 1 1 1 1 1 1 1 1 1 1 1 1 1 1 1 1 1 1 1 1 1 1 1 1 1 1 1 1 1 1 1 1 1 1 1 1 1 1 1 1 1 1 1 1 1 1 1 1 1 1 1 1 1 1 1 1 1 1 1 1 1 1 1 1 1 1 1 1 1 1 1 </vcount>
          <v>0 0 0 1 0 2 0 3 0 4 0 5 0 6 0 7 0 8 0 9 0 10 0 11 0 12 0 13 0 14 0 15 0 16 0 17 0 18 0 19 0 20 0 21 0 22 0 23 0 24 0 25 0 26 0 27 0 28 0 29 0 30 0 31 0 32 0 33 0 34 0 35 0 36 0 37 0 38 0 39 0 40 0 41 0 42 0 43 0 44 0 45 0 46 0 47 0 48 0 49 0 50 0 51 0 52 0 53 0 54 0 55 0 56 0 57 0 58 0 59 0 60 0 61 0 62 0 63 0 64 0 65 0 66 0 67 0 68 0 69 0 70 0 71 0 72 0 73 0 74 0 75 0 76 0 77 0 78 0 79 0 80 0 81 0 82 0 83 0 84 0 85 0 86 0 87 0 88 0 89 0 90 0 91 0 92 0 93 0 94 0 95 0 96 0 97 0 98 0 99 0 100 0 101 0 102 0 103 0 104 0 105 0 106 0 107 0 108 0 109 0 110 0 111 0 112 0 113 0 114 0 115 0 116 0 117 0 118 0 119 0 120 0 121 0 122 0 123 0 124 0 125 0 126 0 127 0 128 0 129 0 130 0 131 0 132 0 133 0 134 0 135 0 136 0 137 0 138 0 139 0 140 0 141 0 142 0 143 0 144 0 145 0 146 0 147 0 148 0 149 0 150 0 151 0 152 0 153 0 154 0 155 0 156 0 157 0 158 0 159 0 160 0 161 0 162 0 163 0 164 0 165 0 166 0 167 0 168 0 169 0 170 0 171 0 172 0 173 0 174 0 175 0 176 0 177 0 178 0 179 0 180 0 181 0 182 0 183 0 184 0 185 0 186 0 187 0 188 0 189 0 190 0 191 0 192 0 193 0 194 0 195 0 196 0 197 0 198 0 199 0 200 0 201 0 202 0 203 0 204 0 205 0 206 0 207 0 208 0 209 0 210 0 211 0 212 0 213 0 214 0 215 0 216 0 217 0 218 0 219 0 220 0 221 0 222 0 223 0 224 0 225 0 226</v>
        </vertex_weights>
      </skin>
    </controller>
  </library_controllers>
  <library_animations>
    <animation id="action_container-pickup_powerup_crit_qc_skeleton" name="pickup_powerup_crit.qc_skeleton"/>
  </library_animations>
  <library_visual_scenes>
    <visual_scene id="emitter_qc" name="emitter.qc">
      <node id="pickup_powerup_crit_qc_skeleton" name="pickup_powerup_crit.qc_skeleton" type="NODE">
        <matrix sid="transform">1 0 0 0 0 1 0 0 0 0 1 0 0 0 0 1</matrix>
        <node id="pickup_powerup_crit_qc_skeleton_jnt_spin" name="jnt_spin" sid="jnt_spin" type="JOINT">
          <matrix sid="transform">0.9985334 0 0.05413851 0 0 1 0 0 -0.05413851 0 0.9985334 0 0 0 0 1</matrix>
          <extra>
            <technique profile="blender">
              <layer sid="layer" type="string">0</layer>
              <roll sid="roll" type="float">0.05416494</roll>
              <tip_x sid="tip_x" type="float">0</tip_x>
              <tip_y sid="tip_y" type="float">0.000999987</tip_y>
              <tip_z sid="tip_z" type="float">0</tip_z>
            </technique>
          </extra>
        </node>
        <node id="pickup_powerup_crit" name="pickup_powerup_crit" type="NODE">
          <matrix sid="transform">1 0 0 0 0 1 0 0 0 0 1 0 0 0 0 1</matrix>
          <instance_controller url="#pickup_powerup_crit_qc_skeleton_pickup_powerup_crit-skin">
            <skeleton>#pickup_powerup_crit_qc_skeleton_jnt_spin</skeleton>
            <bind_material>
              <technique_common>
                <instance_material symbol="pickup_powerup_set_temp-material" target="#pickup_powerup_set_temp-material">
                  <bind_vertex_input semantic="UVMap" input_semantic="TEXCOORD" input_set="0"/>
                </instance_material>
                <instance_material symbol="pickup_powerup_set_new-material" target="#pickup_powerup_set_new-material">
                  <bind_vertex_input semantic="UVMap" input_semantic="TEXCOORD" input_set="0"/>
                </instance_material>
              </technique_common>
            </bind_material>
          </instance_controller>
        </node>
      </node>
    </visual_scene>
  </library_visual_scenes>
  <scene>
    <instance_visual_scene url="#emitter_qc"/>
  </scene>
</COLLADA>