<?xml version="1.0" encoding="utf-8"?>
<COLLADA xmlns="http://www.collada.org/2005/11/COLLADASchema" version="1.4.1" xmlns:xsi="http://www.w3.org/2001/XMLSchema-instance">
  <asset>
    <contributor>
      <author>Blender User</author>
      <authoring_tool>Blender 2.90.1 commit date:2020-09-23, commit time:06:43, hash:3e85bb34d0d7</authoring_tool>
    </contributor>
    <created>2023-10-29T01:41:19</created>
    <modified>2023-10-29T01:41:19</modified>
    <unit name="meter" meter="1"/>
    <up_axis>Z_UP</up_axis>
  </asset>
  <library_effects>
    <effect id="pickup_powerup_set_new-effect">
      <profile_COMMON>
        <newparam sid="pickup_powerup_set_new_png-surface">
          <surface type="2D">
            <init_from>pickup_powerup_set_new_png</init_from>
          </surface>
        </newparam>
        <newparam sid="pickup_powerup_set_new_png-sampler">
          <sampler2D>
            <source>pickup_powerup_set_new_png-surface</source>
          </sampler2D>
        </newparam>
        <technique sid="common">
          <lambert>
            <emission>
              <color sid="emission">0 0 0 1</color>
            </emission>
            <diffuse>
              <texture texture="pickup_powerup_set_new_png-sampler" texcoord="UVMap"/>
            </diffuse>
            <index_of_refraction>
              <float sid="ior">1.45</float>
            </index_of_refraction>
          </lambert>
        </technique>
      </profile_COMMON>
    </effect>
  </library_effects>
  <library_images>
    <image id="pickup_powerup_set_new_png" name="pickup_powerup_set_new_png">
      <init_from>pickup_powerup_set_new.png</init_from>
    </image>
  </library_images>
  <library_materials>
    <material id="pickup_powerup_set_new-material" name="pickup_powerup_set_new">
      <instance_effect url="#pickup_powerup_set_new-effect"/>
    </material>
  </library_materials>
  <library_geometries>
    <geometry id="pickup_powerup_haste-mesh" name="pickup_powerup_haste">
      <mesh>
        <source id="pickup_powerup_haste-mesh-positions">
          <float_array id="pickup_powerup_haste-mesh-positions-array" count="360">-8.21019 56.9816 1.357 -20.0268 56.7164 2.07282 -8.56216 56.5151 2.07282 -20.5475 56.9816 1.357 -7.42223 36.9041 4.29484 -9.604511 55.0188 4.29484 -16.8771 55.0188 4.29484 -0.14959 36.9041 4.29484 -9.604511 18.7894 4.29484 -16.8771 18.7894 4.29484 9.820611 16.8265 1.357 -2.51661 16.8265 -1.357 9.820611 16.8265 -1.357 -2.51661 16.8265 1.357 7.94229 36.9039 -1.357 7.94229 36.9039 1.357 20.5475 36.9041 1.357 20.5475 36.9041 -1.357 9.820611 56.9816 -1.357 9.820611 56.9816 1.357 -2.51668 56.9816 -1.357 -2.51668 56.9816 1.357 -8.21019 16.8265 -1.357 2.51668 36.9041 1.357 -8.21019 16.8265 1.357 2.51668 36.9041 -1.357 -10.0885 36.9039 1.357 -20.5475 56.9816 -1.357 -10.0885 36.9039 -1.357 -8.21019 56.9816 -1.357 -20.5474 16.8265 1.357 -20.5474 16.8265 -1.357 18.5404 36.9041 -3.57902 17.8812 36.9041 -4.29484 8.42628 55.0188 -4.29484 8.780401 55.6032 -3.57902 18.5404 36.9041 -2.07282 8.780401 55.6032 -2.07282 19.9632 36.9041 -2.07282 9.46871 17.2929 -2.07282 9.46863 56.5151 -2.07282 -1.99597 17.0917 -2.07282 8.526651 36.9039 -2.07282 -1.9959 56.7164 -2.07282 -9.250391 55.6032 -3.57902 -9.250391 55.6032 -2.07282 0.509565 36.9041 -2.07282 0.509565 36.9041 -3.579021 -9.604511 55.0188 -4.29484 -0.14959 36.9041 -4.29484 1.93232 36.9041 -2.07282 -8.56216 17.2929 -2.07282 -8.56216 56.5151 -2.07282 -20.0268 17.0917 -2.07282 -9.504211 36.9039 -2.07282 -20.0268 56.7164 -2.07282 19.9632 36.9041 2.07282 9.468711 17.2929 2.07282 9.468631 56.5151 2.07282 -1.99597 17.0917 2.07282 8.526652 36.9039 2.07282 -1.9959 56.7164 2.07282 1.93232 36.9041 2.07282 -8.56216 17.2929 2.07282 -20.0268 17.0917 2.07282 -9.504211 36.9039 2.07282 9.949412 36.9041 -3.57902 10.6086 36.9041 -4.29484 1.15365 18.7894 -4.29484 0.1895239 18.2051 -3.57902 9.949412 36.9041 -2.07282 0.1895239 18.2051 -2.07282 1.15365 55.0188 -4.29484 0.1895239 55.6032 -3.57902 0.1895239 55.6032 -2.07282 -9.250391 18.2051 -3.57902 -9.250391 18.2051 -2.07282 -17.8413 18.2051 -2.07282 -17.8413 18.2051 -3.57902 -16.8771 18.7894 -4.29484 -9.604511 18.7894 -4.29484 -8.081391 36.9041 -3.579021 -7.42223 36.9041 -4.29484 -8.081391 36.9041 -2.07282 -17.8413 55.6032 -2.07282 10.6086 36.9041 4.29484 8.426281 55.0188 4.29484 1.15365 55.0188 4.29484 17.8812 36.9041 4.29484 8.426281 18.7894 4.29484 1.15365 18.7894 4.29484 -17.8413 55.6032 -3.57902 -16.8771 55.0188 -4.29484 -9.250392 55.6032 3.57902 -17.8413 55.6032 3.57902 -9.250391 55.6032 2.07282 -17.8413 55.6032 2.07282 8.42628 18.7894 -4.29484 8.780401 18.2051 -3.57902 8.780401 18.2051 -2.07282 0.1895239 55.6032 2.07282 8.780402 55.6032 2.07282 18.5404 36.9041 2.07282 8.780402 18.2051 2.07282 0.1895239 18.2051 2.07282 9.949412 36.9041 2.07282 -17.8413 18.2051 2.07282 -8.08139 36.9041 2.07282 0.509565 36.9041 2.07282 -9.250391 18.2051 2.07282 18.5404 36.9041 3.57902 8.7804 18.2051 3.57902 8.7804 55.6032 3.57902 0.1895239 55.6032 3.57902 9.949411 36.9041 3.579021 0.509565 36.9041 3.57902 -9.250392 18.2051 3.57902 0.1895239 18.2051 3.57902 -17.8413 18.2051 3.57902 -8.081392 36.9041 3.57902</float_array>
          <technique_common>
            <accessor source="#pickup_powerup_haste-mesh-positions-array" count="120" stride="3">
              <param name="X" type="float"/>
              <param name="Y" type="float"/>
              <param name="Z" type="float"/>
            </accessor>
          </technique_common>
        </source>
        <source id="pickup_powerup_haste-mesh-normals">
          <float_array id="pickup_powerup_haste-mesh-normals-array" count="813">-8.24686e-7 0.9585908 0.2847877 -3.73693e-6 0.8377891 0.545994 -1.80332e-5 0.8378015 0.5459751 -5.29736e-6 0.9585973 0.2847657 0 0 1 1.77417e-6 -0.958596 0.28477 5.26011e-6 -0.9585974 -0.2847651 3.77512e-6 -0.9586001 -0.284756 5.78537e-5 -0.9585886 0.2847947 -0.8437023 0.4395102 -0.3082163 -0.8437055 0.4395078 0.3082107 -0.8437083 0.4395105 0.3081998 -0.843716 0.4395132 -0.3081743 0.8375666 -0.4474877 -0.3134279 0.8375715 -0.4474897 0.3134121 0.8375713 -0.4474904 0.3134114 0.8375762 -0.4474924 -0.3133957 0.8375707 0.4474915 0.3134117 0.8375693 0.4474889 -0.3134191 0.8375741 0.4474917 0.3134021 0.8375756 0.4474942 -0.3133949 -0.8437192 -0.4395099 0.3081703 -0.8437038 -0.4395089 -0.308214 -0.843708 -0.4395096 -0.3082013 -0.8437144 -0.4395144 0.3081772 4.00096e-6 0.9585853 0.2848059 -3.2559e-6 0.9585865 -0.284802 5.66135e-5 0.9585909 -0.284787 -1.25449e-6 0.9585906 0.2847877 0.8375735 -0.4474889 -0.3134079 0.8375664 -0.4474871 0.3134292 0.8375784 -0.4474917 0.3133906 0.8375712 -0.4474897 -0.3134127 -0.8437143 -0.4395085 0.308186 -0.8437125 -0.4395115 -0.3081867 -0.8437202 -0.4395086 -0.3081694 -0.8437091 -0.4395097 0.3081986 0.8375716 0.4474774 0.3134295 0.83757 0.4474908 -0.3134147 0.8375749 0.4474935 0.3133975 0.8375702 0.4474914 -0.3134133 -2.81446e-6 0.9585865 -0.2848016 -5.27559e-6 0.9585884 -0.2847955 -0.8437129 0.4395123 -0.3081843 -0.8437106 0.4395089 0.3081955 -0.843701 0.4395118 0.3082173 -0.8437065 0.4395067 -0.3082094 5.51343e-7 -0.9585961 -0.2847695 3.37325e-6 -0.9585981 0.2847624 5.30772e-5 -0.9585873 0.2847991 5.37653e-6 -0.9586024 -0.2847485 0.8375802 0.4474835 -0.3133977 0.6867231 0.3584335 -0.6324056 0.6867458 0.3584469 -0.6323733 0.8375706 0.4474902 -0.3134135 0.886508 0.4627133 -1.27183e-6 0.8865082 0.4627131 0 0.7087373 -0.3786568 -0.5952398 0.7086257 -0.3788264 -0.5952647 0.7087104 0.3786444 -0.5952798 0.7090833 0.3782055 -0.5951148 -7.91508e-6 -0.837796 -0.5459833 -1.20597e-5 -0.8378021 -0.5459741 -0.7184046 0.3742324 -0.5863829 -0.7184144 0.3741823 -0.5864028 -0.7184083 -0.3742341 -0.5863774 -0.7183742 -0.3743084 -0.5863717 2.05636e-6 0.8377891 -0.5459939 -1.64976e-5 0.8378009 -0.5459759 0.8375717 0.4474889 -0.3134126 0.886509 0.4627115 1.92114e-6 0.886509 0.4627116 0 0.8375858 0.4474799 -0.3133875 0.6867467 0.3584458 -0.632373 0.6867424 0.3584434 -0.6323789 0.7087392 -0.378657 -0.5952375 0.7086115 -0.3788246 -0.5952829 0.708712 0.3786443 -0.595278 0.7090262 0.3782714 -0.5951409 -1.0876e-5 -0.8377942 -0.5459862 -1.15931e-5 -0.8378018 -0.5459746 -0.7184001 0.3742295 -0.5863904 -0.7184091 0.3741975 -0.5863997 -0.7183969 -0.3742281 -0.5863952 -0.7183696 -0.3743258 -0.5863664 -3.59863e-6 0.8378088 -0.5459639 -1.80332e-5 0.8378013 -0.5459752 0.7087378 -0.3786569 0.5952393 0.7086258 -0.3788265 0.5952647 0.7087114 0.3786446 0.5952785 0.7090549 0.3782439 0.5951242 -7.81566e-6 -0.8377962 0.5459833 -1.20607e-5 -0.8378021 0.5459741 -0.7184045 0.3742325 0.586383 -0.7184144 0.3741823 0.586403 -0.7184082 -0.374234 0.5863775 -0.7183743 -0.3743077 0.5863722 2.06893e-6 0.8377893 0.5459937 -1.64965e-5 0.8378009 0.5459759 0.7087391 -0.378657 0.5952376 0.7086115 -0.3788246 0.5952829 0.7087119 0.3786443 0.595278 0.7090262 0.3782714 0.5951409 -1.0781e-5 -0.8377943 0.5459862 -1.15928e-5 -0.8378019 0.5459745 -0.7184016 0.3742304 0.5863879 -0.7184097 0.3741976 0.586399 -0.7183967 -0.3742279 0.5863955 -0.7183695 -0.3743259 0.5863663 -0.8437107 0.4395152 -0.3081865 -0.6867271 0.3584366 -0.6323996 -0.6867415 0.3584428 -0.6323803 -0.8437026 0.4395111 -0.3082143 -0.8865092 0.4627109 0 -0.8865094 0.4627109 0 1.44914e-6 0.9419884 -0.3356457 0 0.7746312 -0.6324135 0 0.7746266 -0.6324191 6.18474e-6 0.9419838 -0.3356584 0 1 0 -1.44917e-5 -0.9419811 -0.335666 0 -1 0 0 -1 -1.51962e-6 -3.00258e-6 -0.9419787 -0.3356726 0 -0.7746832 -0.6323497 0 -0.7746844 -0.632348 -0.8437142 0.4395158 -0.3081761 -0.6867401 0.3584405 -0.6323832 -0.6867133 0.3584287 -0.6324189 -0.8437113 0.4395176 -0.3081811 -0.8865089 0.4627117 0 -0.8865089 0.4627118 0 0 0 -1 0 0 -1 0 0 -1 0 0 -1 0 0 -1 0 0 -1 0 0 -1 0 0 -1 0 0 -1 0 0 -1 -4.98221e-6 0.9419868 -0.33565 0 1 1.10096e-6 1.44914e-6 0.9419882 -0.3356459 0 0.7746285 -0.6324166 0 0.7746293 -0.6324155 1.51016e-6 0.9419885 0.3356453 0 0.7746304 0.6324144 0 0.7746338 0.6324102 -4.8168e-6 0.9419871 0.335649 0 1 2.20192e-6 0.8375867 -0.4474783 -0.3133876 0.6867638 -0.3584583 -0.6323473 0.6867231 -0.3584335 -0.6324056 0.8375696 -0.4474884 -0.3134186 0.8865072 -0.4627151 0 0.886507 -0.4627151 0 0 0 1 0 0 1 0 0 1 0 0 1 0 0 1 0 0 1 0 0 1 0 0 1 0 0 1 -0.8433549 -0.440185 -0.3082042 -0.6867343 -0.3584376 -0.6323912 -0.6867387 -0.3584397 -0.6323851 -0.8437122 -0.4395071 -0.3081936 -0.8865098 -0.4627099 8.71498e-7 -0.8865099 -0.4627096 0 0 0 1 0 0 1 0 0 1 0 0 1 0 0 1 0 0 1 0 0 1 0 0 1 0 0 1 0 0 -1 0 0 -1 0 0 -1 0 0 -1 0 0 -1 0 0 -1 0 0 -1 0 0 -1 0 0 -1 0.8375873 -0.4474784 0.3133859 0.8865071 -0.4627151 -2.52754e-7 0.8865072 -0.4627149 0 0.8375699 -0.4474886 0.3134176 0.686765 -0.358459 0.6323457 0.6867259 -0.3584349 0.6324018 1.4878e-6 0.9419896 0.3356423 0 0.7746231 0.6324233 0 0.7746356 0.632408 6.12065e-6 0.9419833 0.3356601 0 1 -1.99382e-6 -0.8437194 -0.4395108 0.3081686 -0.8865103 -0.462709 0 -0.8865103 -0.4627089 0 -0.8437035 -0.4395006 0.308227 -0.6867653 -0.358453 0.6323487 -0.6867268 -0.3584364 0.6324 0.8375705 0.4474901 0.3134139 0.8865081 0.4627131 -1.27184e-6 0.8865083 0.462713 0 0.8375813 0.4474824 0.3133963 0.6867452 0.3584467 0.6323742 0.6867246 0.3584342 0.6324037 0.8865079 -0.4627134 1.83396e-6 0.8865079 -0.4627134 0 0.8375678 -0.4474903 0.3134212 0.8375698 -0.4474894 0.3134168 0.686767 -0.3584585 0.6323437 0.6867428 -0.3584437 0.6323785 7.76723e-7 -0.9419816 0.3356646 0 -1 -2.60594e-7 0 -1 -2.35847e-6 3.815e-5 -0.9419766 0.3356788 0 -0.7746834 0.6323493 0 -0.7746846 0.632348 7.87899e-7 -0.9419812 0.3356658 0 -1 3.17659e-7 0 -1 -2.35846e-6 -4.75557e-5 -0.9419792 0.3356714 0 -0.7746831 0.6323496 0 -0.7746827 0.6323502 -0.8437027 0.4395111 0.3082142 -0.8865092 0.4627109 -2.81061e-7 -0.8433602 0.4401902 0.3081824 -0.6867416 0.3584427 0.6323804 -0.6867268 0.3584364 0.6324 -0.8433641 0.440191 0.3081703 -0.6867122 0.3584282 0.6324205 -0.6867405 0.3584405 0.6323828 -0.8437108 0.4395174 0.3081828 -0.8865089 0.4627116 -2.3089e-6 -0.8865088 0.4627118 1.92115e-6 0.8375859 0.44748 0.3133872 0.6867473 0.3584462 0.6323722 0.6867428 0.3584437 0.6323785 0.8375716 0.4474888 0.3134128 0.886509 0.4627116 0 0.886509 0.4627114 0 -0.8437054 -0.4395105 0.3082072 -0.8865098 -0.4627099 8.71497e-7 -0.88651 -0.4627097 0 -0.8437118 -0.4395069 0.3081951 -0.6867336 -0.3584374 0.632392 -0.6867405 -0.3584405 0.6323828 0 -0.7746854 -0.6323468 0 -0.774684 -0.6323487 7.2351e-7 -0.9419812 -0.3356658 -6.67945e-6 -0.9419769 -0.3356778 0.8375918 -0.4474761 -0.3133769 0.6867659 -0.358458 -0.6323452 0.6867424 -0.3584434 -0.6323789 0.8375698 -0.4474895 -0.3134167 0.8865079 -0.4627135 0 0.8865079 -0.4627133 0 -0.8433664 -0.4401922 -0.3081626 -0.686764 -0.3584524 -0.6323506 -0.6867285 -0.3584373 -0.6323977 -0.8437033 -0.4395005 -0.3082276 -0.8865103 -0.462709 0 -0.8865104 -0.462709 0</float_array>
          <technique_common>
            <accessor source="#pickup_powerup_haste-mesh-normals-array" count="271" stride="3">
              <param name="X" type="float"/>
              <param name="Y" type="float"/>
              <param name="Z" type="float"/>
            </accessor>
          </technique_common>
        </source>
        <source id="pickup_powerup_haste-mesh-map-0">
          <float_array id="pickup_powerup_haste-mesh-map-0-array" count="1392">0.695139 0.93545 0.585993 0.933 0.691888 0.931141 0.695139 0.93545 0.581183 0.93545 0.585993 0.933 0.2217029 0.496988 0.186293 0.675076 0.129971 0.674958 0.2217029 0.496988 0.27983 0.496988 0.186293 0.675076 0.2217029 0.496988 0.186293 0.3189 0.27983 0.496988 0.2217029 0.496988 0.128735 0.319018 0.186293 0.3189 0.978069 0.885289 0.959143 0.990015 0.95926 0.88527 0.978069 0.885289 0.977953 0.990036 0.959143 0.990015 0.959372 0.202114 0.977936 0.01006996 0.978166 0.202094 0.959372 0.202114 0.959143 0.01009297 0.977936 0.01006996 0.95926 0.88527 0.978249 0.692039 0.978069 0.885289 0.95926 0.88527 0.959442 0.692024 0.978249 0.692039 0.978249 0.692039 0.959555 0.49883 0.978357 0.498836 0.978249 0.692039 0.959442 0.692024 0.959555 0.49883 0.978166 0.202094 0.959548 0.394157 0.959372 0.202114 0.978166 0.202094 0.978345 0.394145 0.959548 0.394157 0.978345 0.394145 0.959555 0.49883 0.959548 0.394157 0.978345 0.394145 0.978357 0.498836 0.959555 0.49883 0.97817 0.114841 0.959352 0.308 0.95937 0.11484 0.97817 0.114841 0.978153 0.308003 0.959352 0.308 0.959347 0.797903 0.978124 0.605838 0.978142 0.7979 0.959347 0.797903 0.959327 0.60584 0.978124 0.605838 0.959352 0.308 0.978121 0.50116 0.959321 0.501159 0.959352 0.308 0.978153 0.308003 0.978121 0.50116 0.959327 0.60584 0.978121 0.50116 0.978124 0.605838 0.959327 0.60584 0.959321 0.501159 0.978121 0.50116 0.978142 0.7979 0.959385 0.989939 0.959347 0.797903 0.978142 0.7979 0.978179 0.989936 0.959385 0.989939 0.978179 0.01015198 0.95937 0.11484 0.959378 0.01015096 0.978179 0.01015198 0.97817 0.114841 0.95937 0.11484 0.383135 0.49837 0.375905 0.49837 0.282368 0.676458 0.383135 0.49837 0.282368 0.676458 0.286025 0.683118 0.286025 0.683118 0.392228 0.49837 0.383135 0.49837 0.286025 0.683118 0.292037 0.690325 0.392228 0.49837 0.819736 0.06454998 0.91342 0.25 0.918817 0.25 0.819736 0.06454998 0.816486 0.06885898 0.91342 0.25 0.819736 0.43545 0.91342 0.25 0.816485 0.431141 0.819736 0.43545 0.918817 0.25 0.91342 0.25 0.819736 0.06454998 0.710591 0.06699997 0.816486 0.06885898 0.819736 0.06454998 0.705782 0.06454998 0.710591 0.06699997 0.802387 0.249999 0.710591 0.06699997 0.705782 0.06454998 0.802387 0.249999 0.807784 0.249999 0.710591 0.06699997 0.802387 0.249999 0.710591 0.433 0.807784 0.249999 0.802387 0.249999 0.705781 0.43545 0.710591 0.433 0.819736 0.43545 0.710591 0.433 0.705781 0.43545 0.819736 0.43545 0.816485 0.431141 0.710591 0.433 0.189949 0.683118 0.195962 0.690325 0.296153 0.49837 0.189949 0.683118 0.296153 0.49837 0.28706 0.49837 0.28706 0.49837 0.186293 0.676458 0.189949 0.683118 0.28706 0.49837 0.27983 0.49837 0.186293 0.676458 0.695139 0.06454998 0.788822 0.25 0.794219 0.25 0.695139 0.06454998 0.691888 0.06885898 0.788822 0.25 0.695139 0.43545 0.788822 0.25 0.691888 0.431141 0.695139 0.43545 0.794219 0.25 0.788822 0.25 0.695139 0.06454998 0.585993 0.06699997 0.691888 0.06885898 0.695139 0.06454998 0.581184 0.06454998 0.585993 0.06699997 0.677789 0.249999 0.585993 0.06699997 0.581184 0.06454998 0.677789 0.249999 0.683186 0.249999 0.585993 0.06699997 0.677789 0.249999 0.585993 0.433 0.683186 0.249999 0.677789 0.249999 0.581183 0.43545 0.585993 0.433 0.695139 0.43545 0.585993 0.433 0.581183 0.43545 0.695139 0.43545 0.691888 0.431141 0.585993 0.433 0.819736 0.56455 0.91342 0.75 0.816486 0.568859 0.819736 0.56455 0.918817 0.75 0.91342 0.75 0.819736 0.93545 0.91342 0.75 0.918817 0.75 0.819736 0.93545 0.816485 0.931141 0.91342 0.75 0.819736 0.56455 0.710591 0.567 0.705782 0.56455 0.819736 0.56455 0.816486 0.568859 0.710591 0.567 0.802387 0.749999 0.710591 0.567 0.807784 0.749999 0.802387 0.749999 0.705782 0.56455 0.710591 0.567 0.802387 0.749999 0.710591 0.933 0.705781 0.93545 0.802387 0.749999 0.807784 0.749999 0.710591 0.933 0.819736 0.93545 0.710591 0.933 0.816485 0.931141 0.819736 0.93545 0.705781 0.93545 0.710591 0.933 0.695139 0.56455 0.788822 0.75 0.691888 0.568859 0.695139 0.56455 0.794219 0.75 0.788822 0.75 0.695139 0.93545 0.788822 0.75 0.794219 0.75 0.695139 0.93545 0.691888 0.931141 0.788822 0.75 0.695139 0.56455 0.585993 0.567 0.581184 0.56455 0.695139 0.56455 0.691888 0.568859 0.585993 0.567 0.677789 0.749999 0.585993 0.567 0.683186 0.749999 0.677789 0.749999 0.581184 0.56455 0.585993 0.567 0.677789 0.749999 0.585993 0.933 0.581183 0.93545 0.677789 0.749999 0.683186 0.749999 0.585993 0.933 0.311221 0.49837 0.317778 0.49837 0.22481 0.320399 0.311221 0.49837 0.22481 0.320399 0.214715 0.313803 0.214715 0.313803 0.304038 0.49837 0.311221 0.49837 0.214715 0.313803 0.203847 0.306414 0.304038 0.49837 0.286025 0.683118 0.282368 0.676458 0.226046 0.67634 0.286025 0.683118 0.226046 0.67634 0.215951 0.682936 0.215951 0.682936 0.292037 0.690325 0.286025 0.683118 0.215951 0.682936 0.203847 0.690325 0.292037 0.690325 0.189949 0.313622 0.195962 0.306414 0.107772 0.306414 0.189949 0.313622 0.107772 0.306414 0.11864 0.313803 0.128735 0.3204 0.189949 0.313622 0.11864 0.313803 0.128735 0.3204 0.186293 0.320282 0.189949 0.313622 0.215146 0.49837 0.2217029 0.49837 0.128735 0.3204 0.215146 0.49837 0.128735 0.3204 0.11864 0.313803 0.11864 0.313803 0.207962 0.49837 0.215146 0.49837 0.11864 0.313803 0.107772 0.306414 0.207962 0.49837 0.691888 0.431141 0.685531 0.422718 0.60618 0.422718 0.77568 0.25 0.685531 0.422718 0.691888 0.431141 0.77568 0.25 0.691888 0.431141 0.788822 0.25 0.691888 0.06885898 0.77568 0.25 0.788822 0.25 0.691888 0.06885898 0.685531 0.07728397 0.77568 0.25 0.60618 0.07728397 0.685531 0.07728397 0.691888 0.06885898 0.60618 0.07728397 0.691888 0.06885898 0.585993 0.06699997 0.683186 0.249999 0.60618 0.07728397 0.585993 0.06699997 0.683186 0.249999 0.696328 0.25 0.60618 0.07728397 0.60618 0.422718 0.696328 0.25 0.683186 0.249999 0.60618 0.422718 0.683186 0.249999 0.585993 0.433 0.691888 0.431141 0.60618 0.422718 0.585993 0.433 0.317778 0.496988 0.282368 0.675076 0.226046 0.674958 0.317778 0.496988 0.375905 0.496988 0.282368 0.675076 0.317778 0.496988 0.282368 0.3189 0.375905 0.496988 0.317778 0.496988 0.22481 0.319018 0.282368 0.3189 0.119876 0.682936 0.107772 0.690325 0.195962 0.690325 0.119876 0.682936 0.195962 0.690325 0.189949 0.683118 0.189949 0.683118 0.129971 0.67634 0.119876 0.682936 0.189949 0.683118 0.186293 0.676458 0.129971 0.67634 0.189949 0.681736 0.129971 0.674958 0.186293 0.675076 0.189949 0.681736 0.119876 0.681554 0.129971 0.674958 0.119876 0.681554 0.189949 0.681736 0.195962 0.688943 0.119876 0.681554 0.195962 0.688943 0.107772 0.688943 0.383135 0.49837 0.282368 0.320282 0.375905 0.49837 0.383135 0.49837 0.286025 0.313621 0.282368 0.320282 0.383135 0.49837 0.292037 0.306414 0.286025 0.313621 0.383135 0.49837 0.392228 0.49837 0.292037 0.306414 0.730777 0.922717 0.816485 0.931141 0.710591 0.933 0.730777 0.922717 0.810128 0.922717 0.816485 0.931141 0.816485 0.931141 0.810128 0.922717 0.900278 0.75 0.816485 0.931141 0.900278 0.75 0.91342 0.75 0.900278 0.75 0.816486 0.568859 0.91342 0.75 0.900278 0.75 0.810128 0.577284 0.816486 0.568859 0.816486 0.568859 0.810128 0.577284 0.730777 0.577284 0.816486 0.568859 0.730777 0.577284 0.710591 0.567 0.730777 0.577284 0.807784 0.749999 0.710591 0.567 0.730777 0.577284 0.820926 0.75 0.807784 0.749999 0.807784 0.749999 0.820926 0.75 0.730777 0.922717 0.807784 0.749999 0.730777 0.922717 0.710591 0.933 0.215146 0.49837 0.129971 0.67634 0.2217029 0.49837 0.215146 0.49837 0.119876 0.682936 0.129971 0.67634 0.215146 0.49837 0.107772 0.690325 0.119876 0.682936 0.215146 0.49837 0.207962 0.49837 0.107772 0.690325 0.691888 0.568859 0.60618 0.577284 0.585993 0.567 0.60618 0.577284 0.683186 0.749999 0.585993 0.567 0.60618 0.577284 0.696328 0.75 0.683186 0.749999 0.683186 0.749999 0.696328 0.75 0.60618 0.922718 0.683186 0.749999 0.60618 0.922718 0.585993 0.933 0.60618 0.922718 0.691888 0.931141 0.585993 0.933 0.60618 0.922718 0.685531 0.922718 0.691888 0.931141 0.691888 0.931141 0.685531 0.922718 0.77568 0.75 0.691888 0.931141 0.77568 0.75 0.788822 0.75 0.77568 0.75 0.691888 0.568859 0.788822 0.75 0.77568 0.75 0.685531 0.577284 0.691888 0.568859 0.691888 0.568859 0.685531 0.577284 0.60618 0.577284 0.730777 0.07728397 0.810128 0.07728397 0.816486 0.06885898 0.816486 0.06885898 0.810128 0.07728397 0.900278 0.25 0.816486 0.06885898 0.900278 0.25 0.91342 0.25 0.900278 0.25 0.816485 0.431141 0.91342 0.25 0.900278 0.25 0.810128 0.422717 0.816485 0.431141 0.816485 0.431141 0.810128 0.422717 0.730777 0.422717 0.816485 0.431141 0.730777 0.422717 0.710591 0.433 0.730777 0.422717 0.807784 0.249999 0.710591 0.433 0.730777 0.422717 0.820926 0.25 0.807784 0.249999 0.807784 0.249999 0.820926 0.25 0.730777 0.07728397 0.807784 0.249999 0.730777 0.07728397 0.710591 0.06699997 0.730777 0.07728397 0.816486 0.06885898 0.710591 0.06699997 0.383135 0.496988 0.292037 0.305033 0.392228 0.496988 0.383135 0.496988 0.286025 0.31224 0.292037 0.305033 0.383135 0.496988 0.282368 0.3189 0.286025 0.31224 0.383135 0.496988 0.375905 0.496988 0.282368 0.3189 0.286025 0.681736 0.226046 0.674958 0.282368 0.675076 0.286025 0.681736 0.215951 0.681554 0.226046 0.674958 0.215951 0.681554 0.286025 0.681736 0.292037 0.688943 0.215951 0.681554 0.292037 0.688943 0.203847 0.688943 0.311221 0.496988 0.203847 0.688943 0.304038 0.496988 0.311221 0.496988 0.215951 0.681554 0.203847 0.688943 0.311221 0.496988 0.226046 0.674958 0.215951 0.681554 0.311221 0.496988 0.317778 0.496988 0.226046 0.674958 0.286025 0.681736 0.392228 0.496988 0.292037 0.688943 0.286025 0.681736 0.383135 0.496988 0.392228 0.496988 0.383135 0.496988 0.286025 0.681736 0.282368 0.675076 0.383135 0.496988 0.282368 0.675076 0.375905 0.496988 0.195962 0.305033 0.296153 0.496988 0.28706 0.496988 0.195962 0.305033 0.28706 0.496988 0.189949 0.31224 0.28706 0.496988 0.186293 0.3189 0.189949 0.31224 0.28706 0.496988 0.27983 0.496988 0.186293 0.3189 0.286025 0.31224 0.203847 0.305033 0.292037 0.305033 0.286025 0.31224 0.214715 0.312422 0.203847 0.305033 0.286025 0.31224 0.22481 0.319018 0.214715 0.312422 0.286025 0.31224 0.282368 0.3189 0.22481 0.319018 0.189949 0.31224 0.107772 0.305033 0.195962 0.305033 0.189949 0.31224 0.11864 0.312422 0.107772 0.305033 0.189949 0.31224 0.128735 0.319018 0.11864 0.312422 0.189949 0.31224 0.186293 0.3189 0.128735 0.319018 0.214715 0.312422 0.304038 0.496988 0.203847 0.305033 0.214715 0.312422 0.311221 0.496988 0.304038 0.496988 0.311221 0.496988 0.214715 0.312422 0.22481 0.319018 0.311221 0.496988 0.22481 0.319018 0.317778 0.496988 0.282368 0.320282 0.22481 0.320399 0.317778 0.49837 0.282368 0.320282 0.317778 0.49837 0.375905 0.49837 0.317778 0.49837 0.282368 0.676458 0.375905 0.49837 0.317778 0.49837 0.226046 0.67634 0.282368 0.676458 0.215146 0.496988 0.128735 0.319018 0.2217029 0.496988 0.215146 0.496988 0.11864 0.312422 0.128735 0.319018 0.11864 0.312422 0.215146 0.496988 0.207962 0.496988 0.11864 0.312422 0.207962 0.496988 0.107772 0.305033 0.28706 0.496988 0.186293 0.675076 0.27983 0.496988 0.28706 0.496988 0.189949 0.681736 0.186293 0.675076 0.189949 0.681736 0.28706 0.496988 0.296153 0.496988 0.189949 0.681736 0.296153 0.496988 0.195962 0.688943 0.215146 0.496988 0.107772 0.688943 0.207962 0.496988 0.215146 0.496988 0.119876 0.681554 0.107772 0.688943 0.215146 0.496988 0.129971 0.674958 0.119876 0.681554 0.215146 0.496988 0.2217029 0.496988 0.129971 0.674958 0.186293 0.320282 0.128735 0.3204 0.2217029 0.49837 0.186293 0.320282 0.2217029 0.49837 0.27983 0.49837 0.2217029 0.49837 0.186293 0.676458 0.27983 0.49837 0.2217029 0.49837 0.129971 0.67634 0.186293 0.676458 0.22481 0.320399 0.282368 0.320282 0.286025 0.313621 0.22481 0.320399 0.286025 0.313621 0.214715 0.313803 0.286025 0.313621 0.203847 0.306414 0.214715 0.313803 0.286025 0.313621 0.292037 0.306414 0.203847 0.306414 0.28706 0.49837 0.186293 0.320282 0.27983 0.49837 0.28706 0.49837 0.189949 0.313622 0.186293 0.320282 0.195962 0.306414 0.189949 0.313622 0.28706 0.49837 0.195962 0.306414 0.28706 0.49837 0.296153 0.49837 0.311221 0.49837 0.226046 0.67634 0.317778 0.49837 0.311221 0.49837 0.215951 0.682936 0.226046 0.67634 0.311221 0.49837 0.203847 0.690325 0.215951 0.682936 0.311221 0.49837 0.304038 0.49837 0.203847 0.690325</float_array>
          <technique_common>
            <accessor source="#pickup_powerup_haste-mesh-map-0-array" count="696" stride="2">
              <param name="S" type="float"/>
              <param name="T" type="float"/>
            </accessor>
          </technique_common>
        </source>
        <vertices id="pickup_powerup_haste-mesh-vertices">
          <input semantic="POSITION" source="#pickup_powerup_haste-mesh-positions"/>
        </vertices>
        <triangles material="pickup_powerup_set_new-material" count="232">
          <input semantic="VERTEX" source="#pickup_powerup_haste-mesh-vertices" offset="0"/>
          <input semantic="NORMAL" source="#pickup_powerup_haste-mesh-normals" offset="1"/>
          <input semantic="TEXCOORD" source="#pickup_powerup_haste-mesh-map-0" offset="2" set="0"/>
          <p>0 0 0 1 1 1 2 2 2 0 0 3 3 3 4 1 1 5 4 4 6 5 4 7 6 4 8 4 4 9 7 4 10 5 4 11 4 4 12 8 4 13 7 4 14 4 4 15 9 4 16 8 4 17 10 5 18 11 6 19 12 7 20 10 5 21 13 8 22 11 6 23 14 9 24 13 10 25 15 11 26 14 9 27 11 12 28 13 10 29 12 13 30 16 14 31 10 15 32 12 13 33 17 16 34 16 14 35 16 17 36 18 18 37 19 19 38 16 17 39 17 20 40 18 18 41 15 21 42 20 22 43 14 23 44 15 21 45 21 24 46 20 22 47 21 25 48 18 26 49 20 27 50 21 25 51 19 28 52 18 26 53 22 29 54 23 30 55 24 31 56 22 29 57 25 32 58 23 30 59 26 33 60 27 34 61 28 35 62 26 33 63 3 36 64 27 34 65 23 37 66 29 38 67 0 39 68 23 37 69 25 40 70 29 38 71 3 3 72 29 41 73 27 42 74 3 3 75 0 0 76 29 41 77 28 43 78 30 44 79 26 45 80 28 43 81 31 46 82 30 44 83 31 47 84 24 48 85 30 49 86 31 47 87 22 50 88 24 48 89 32 51 90 33 52 91 34 53 92 32 51 93 34 53 94 35 54 95 35 54 96 36 55 97 32 51 98 35 54 99 37 56 100 36 55 101 12 13 102 38 57 103 17 16 104 12 13 105 39 58 106 38 57 107 18 18 108 38 59 109 40 60 110 18 18 111 17 20 112 38 59 113 12 7 114 41 61 115 39 62 116 12 7 117 11 6 118 41 61 119 14 9 120 41 63 121 11 12 122 14 9 123 42 64 124 41 63 125 14 23 126 43 65 127 42 66 128 14 23 129 20 22 130 43 65 131 18 26 132 43 67 133 20 27 134 18 26 135 40 68 136 43 67 137 44 69 138 45 70 139 46 71 140 44 69 141 46 71 142 47 72 143 47 72 144 48 73 145 44 69 146 47 72 147 49 74 148 48 73 149 22 29 150 50 75 151 25 32 152 22 29 153 51 76 154 50 75 155 29 38 156 50 77 157 52 78 158 29 38 159 25 40 160 50 77 161 22 50 162 53 79 163 51 80 164 22 50 165 31 47 166 53 79 167 28 43 168 53 81 169 31 46 170 28 43 171 54 82 172 53 81 173 28 35 174 55 83 175 54 84 176 28 35 177 27 34 178 55 83 179 29 41 180 55 85 181 27 42 182 29 41 183 52 86 184 55 85 185 10 15 186 56 87 187 57 88 188 10 15 189 16 14 190 56 87 191 19 19 192 56 89 193 16 17 194 19 19 195 58 90 196 56 89 197 10 5 198 59 91 199 13 8 200 10 5 201 57 92 202 59 91 203 15 11 204 59 93 205 60 94 206 15 11 207 13 10 208 59 93 209 15 21 210 61 95 211 21 24 212 15 21 213 60 96 214 61 95 215 19 28 216 61 97 217 58 98 218 19 28 219 21 25 220 61 97 221 24 31 222 62 99 223 63 100 224 24 31 225 23 30 226 62 99 227 0 39 228 62 101 229 23 37 230 0 39 231 2 102 232 62 101 233 24 48 234 64 103 235 30 49 236 24 48 237 63 104 238 64 103 239 26 45 240 64 105 241 65 106 242 26 45 243 30 44 244 64 105 245 26 33 246 1 107 247 3 36 248 26 33 249 65 108 250 1 107 251 66 109 252 67 110 253 68 111 254 66 109 255 68 111 256 69 112 257 69 112 258 70 113 259 66 109 260 69 112 261 71 114 262 70 113 263 35 115 264 34 116 265 72 117 266 35 115 267 72 117 268 73 118 269 73 118 270 37 119 271 35 115 272 73 118 273 74 119 274 37 119 275 75 120 276 76 121 277 77 122 278 75 120 279 77 122 280 78 123 281 79 124 282 75 120 283 78 123 284 79 124 285 80 125 286 75 120 287 81 126 288 82 127 289 79 128 290 81 126 291 79 128 292 78 129 293 78 129 294 83 130 295 81 126 296 78 129 297 77 131 298 83 130 299 52 132 300 45 133 301 84 134 302 46 135 303 45 133 304 52 132 305 46 135 306 52 132 307 50 136 308 51 137 309 46 135 310 50 136 311 51 137 312 76 136 313 46 135 314 77 138 315 76 136 316 51 137 317 77 138 318 51 137 319 53 139 320 54 140 321 77 138 322 53 139 323 54 140 324 83 141 325 77 138 326 84 134 327 83 141 328 54 140 329 84 134 330 54 140 331 55 136 332 52 132 333 84 134 334 55 136 335 85 4 336 86 4 337 87 4 338 85 4 339 88 4 340 86 4 341 85 4 342 89 4 343 88 4 344 85 4 345 90 4 346 89 4 347 91 142 348 84 119 349 45 143 350 91 142 351 45 143 352 44 144 353 44 144 354 92 145 355 91 142 356 44 144 357 48 146 358 92 145 359 93 147 360 6 148 361 5 149 362 93 147 363 94 150 364 6 148 365 94 150 366 93 147 367 95 151 368 94 150 369 95 151 370 96 119 371 32 152 372 97 153 373 33 154 374 32 152 375 98 155 376 97 153 377 32 152 378 99 156 379 98 155 380 32 152 381 36 157 382 99 156 383 100 158 384 58 159 385 61 160 386 100 158 387 101 4 388 58 159 389 58 159 390 101 4 391 102 161 392 58 159 393 102 161 394 56 4 395 102 161 396 57 162 397 56 4 398 102 161 399 103 163 400 57 162 401 57 162 402 103 163 403 104 164 404 57 162 405 104 164 406 59 4 407 104 164 408 60 165 409 59 4 410 104 164 411 105 166 412 60 165 413 60 165 414 105 166 415 100 158 416 60 165 417 100 158 418 61 160 419 81 167 420 92 168 421 82 169 422 81 167 423 91 170 424 92 168 425 81 167 426 84 171 427 91 170 428 81 167 429 83 172 430 84 171 431 63 173 432 106 174 433 64 4 434 106 174 435 65 175 436 64 4 437 106 174 438 107 176 439 65 175 440 65 175 441 107 176 442 96 177 443 65 175 444 96 177 445 1 178 446 96 177 447 2 179 448 1 178 449 96 177 450 95 4 451 2 179 452 2 179 453 95 4 454 108 180 455 2 179 456 108 180 457 62 4 458 108 180 459 63 173 460 62 4 461 108 180 462 109 181 463 63 173 464 63 173 465 109 181 466 106 174 467 71 182 468 99 136 469 39 183 470 39 183 471 99 136 472 36 184 473 39 183 474 36 184 475 38 136 476 36 184 477 40 185 478 38 136 479 36 184 480 37 186 481 40 185 482 40 185 483 37 186 484 74 187 485 40 185 486 74 187 487 43 136 488 74 187 489 42 188 490 43 136 491 74 187 492 70 189 493 42 188 494 42 188 495 70 189 496 71 182 497 42 188 498 71 182 499 41 190 500 71 182 501 39 183 502 41 190 503 110 191 504 103 192 505 102 193 506 110 191 507 111 194 508 103 192 509 110 191 510 89 195 511 111 194 512 110 191 513 88 196 514 89 195 515 112 197 516 87 198 517 86 199 518 112 197 519 113 200 520 87 198 521 113 200 522 112 197 523 101 201 524 113 200 525 101 201 526 100 119 527 114 202 528 100 203 529 105 204 530 114 202 531 113 205 532 100 203 533 114 202 534 87 206 535 113 205 536 114 202 537 85 207 538 87 206 539 112 208 540 102 209 541 101 210 542 112 208 543 110 211 544 102 209 545 110 211 546 112 208 547 86 212 548 110 211 549 86 212 550 88 213 551 109 214 552 108 215 553 115 216 554 109 214 555 115 216 556 116 217 557 115 216 558 8 218 559 116 217 560 115 216 561 7 219 562 8 218 563 111 220 564 104 221 565 103 222 566 111 220 567 117 223 568 104 221 569 111 220 570 90 224 571 117 223 572 111 220 573 89 225 574 90 224 575 116 226 576 106 227 577 109 228 578 116 226 579 118 229 580 106 227 581 116 226 582 9 230 583 118 229 584 116 226 585 8 231 586 9 230 587 117 232 588 105 233 589 104 114 590 117 232 591 114 234 592 105 233 593 114 234 594 117 232 595 90 235 596 114 234 597 90 235 598 85 236 599 97 136 600 68 136 601 67 136 602 97 136 603 67 136 604 33 136 605 67 136 606 34 136 607 33 136 608 67 136 609 72 136 610 34 136 611 119 237 612 9 238 613 4 239 614 119 237 615 118 240 616 9 238 617 118 240 618 119 237 619 107 241 620 118 240 621 107 241 622 106 242 623 115 243 624 5 244 625 7 245 626 115 243 627 93 246 628 5 244 629 93 246 630 115 243 631 108 247 632 93 246 633 108 247 634 95 248 635 119 249 636 96 250 637 107 251 638 119 249 639 94 252 640 96 250 641 119 249 642 6 253 643 94 252 644 119 249 645 4 254 646 6 253 647 80 136 648 79 136 649 82 136 650 80 136 651 82 136 652 49 136 653 82 136 654 48 136 655 49 136 656 82 136 657 92 136 658 48 136 659 68 255 660 97 256 661 98 257 662 68 255 663 98 257 664 69 258 665 98 257 666 71 121 667 69 258 668 98 257 669 99 121 670 71 121 671 47 259 672 80 260 673 49 261 674 47 259 675 75 262 676 80 260 677 76 263 678 75 262 679 47 259 680 76 263 681 47 259 682 46 264 683 66 265 684 72 266 685 67 267 686 66 265 687 73 268 688 72 266 689 66 265 690 74 269 691 73 268 692 66 265 693 70 270 694 74 269 695</p>
        </triangles>
      </mesh>
    </geometry>
  </library_geometries>
  <library_controllers>
    <controller id="pickup_powerup_haste_qc_skeleton_pickup_powerup_haste-skin" name="pickup_powerup_haste.qc_skeleton">
      <skin source="#pickup_powerup_haste-mesh">
        <bind_shape_matrix>1 0 0 0 0 1 0 0 0 0 1 0 0 0 0 1</bind_shape_matrix>
        <source id="pickup_powerup_haste_qc_skeleton_pickup_powerup_haste-skin-joints">
          <Name_array id="pickup_powerup_haste_qc_skeleton_pickup_powerup_haste-skin-joints-array" count="1">jnt_spin</Name_array>
          <technique_common>
            <accessor source="#pickup_powerup_haste_qc_skeleton_pickup_powerup_haste-skin-joints-array" count="1" stride="1">
              <param name="JOINT" type="name"/>
            </accessor>
          </technique_common>
        </source>
        <source id="pickup_powerup_haste_qc_skeleton_pickup_powerup_haste-skin-bind_poses">
          <float_array id="pickup_powerup_haste_qc_skeleton_pickup_powerup_haste-skin-bind_poses-array" count="16">0.9985334 0 -0.05413848 0 0 1 0 0 0.05413848 0 0.9985334 0 0 0 0 1</float_array>
          <technique_common>
            <accessor source="#pickup_powerup_haste_qc_skeleton_pickup_powerup_haste-skin-bind_poses-array" count="1" stride="16">
              <param name="TRANSFORM" type="float4x4"/>
            </accessor>
          </technique_common>
        </source>
        <source id="pickup_powerup_haste_qc_skeleton_pickup_powerup_haste-skin-weights">
          <float_array id="pickup_powerup_haste_qc_skeleton_pickup_powerup_haste-skin-weights-array" count="120">1 1 1 1 1 1 1 1 1 1 1 1 1 1 1 1 1 1 1 1 1 1 1 1 1 1 1 1 1 1 1 1 1 1 1 1 1 1 1 1 1 1 1 1 1 1 1 1 1 1 1 1 1 1 1 1 1 1 1 1 1 1 1 1 1 1 1 1 1 1 1 1 1 1 1 1 1 1 1 1 1 1 1 1 1 1 1 1 1 1 1 1 1 1 1 1 1 1 1 1 1 1 1 1 1 1 1 1 1 1 1 1 1 1 1 1 1 1 1 1</float_array>
          <technique_common>
            <accessor source="#pickup_powerup_haste_qc_skeleton_pickup_powerup_haste-skin-weights-array" count="120" stride="1">
              <param name="WEIGHT" type="float"/>
            </accessor>
          </technique_common>
        </source>
        <joints>
          <input semantic="JOINT" source="#pickup_powerup_haste_qc_skeleton_pickup_powerup_haste-skin-joints"/>
          <input semantic="INV_BIND_MATRIX" source="#pickup_powerup_haste_qc_skeleton_pickup_powerup_haste-skin-bind_poses"/>
        </joints>
        <vertex_weights count="120">
          <input semantic="JOINT" source="#pickup_powerup_haste_qc_skeleton_pickup_powerup_haste-skin-joints" offset="0"/>
          <input semantic="WEIGHT" source="#pickup_powerup_haste_qc_skeleton_pickup_powerup_haste-skin-weights" offset="1"/>
          <vcount>1 1 1 1 1 1 1 1 1 1 1 1 1 1 1 1 1 1 1 1 1 1 1 1 1 1 1 1 1 1 1 1 1 1 1 1 1 1 1 1 1 1 1 1 1 1 1 1 1 1 1 1 1 1 1 1 1 1 1 1 1 1 1 1 1 1 1 1 1 1 1 1 1 1 1 1 1 1 1 1 1 1 1 1 1 1 1 1 1 1 1 1 1 1 1 1 1 1 1 1 1 1 1 1 1 1 1 1 1 1 1 1 1 1 1 1 1 1 1 1 </vcount>
          <v>0 0 0 1 0 2 0 3 0 4 0 5 0 6 0 7 0 8 0 9 0 10 0 11 0 12 0 13 0 14 0 15 0 16 0 17 0 18 0 19 0 20 0 21 0 22 0 23 0 24 0 25 0 26 0 27 0 28 0 29 0 30 0 31 0 32 0 33 0 34 0 35 0 36 0 37 0 38 0 39 0 40 0 41 0 42 0 43 0 44 0 45 0 46 0 47 0 48 0 49 0 50 0 51 0 52 0 53 0 54 0 55 0 56 0 57 0 58 0 59 0 60 0 61 0 62 0 63 0 64 0 65 0 66 0 67 0 68 0 69 0 70 0 71 0 72 0 73 0 74 0 75 0 76 0 77 0 78 0 79 0 80 0 81 0 82 0 83 0 84 0 85 0 86 0 87 0 88 0 89 0 90 0 91 0 92 0 93 0 94 0 95 0 96 0 97 0 98 0 99 0 100 0 101 0 102 0 103 0 104 0 105 0 106 0 107 0 108 0 109 0 110 0 111 0 112 0 113 0 114 0 115 0 116 0 117 0 118 0 119</v>
        </vertex_weights>
      </skin>
    </controller>
  </library_controllers>
  <library_animations>
    <animation id="action_container-pickup_powerup_haste_qc_skeleton" name="pickup_powerup_haste.qc_skeleton"/>
  </library_animations>
  <library_visual_scenes>
    <visual_scene id="emitter_qc" name="emitter.qc">
      <node id="pickup_powerup_haste_qc_skeleton" name="pickup_powerup_haste.qc_skeleton" type="NODE">
        <matrix sid="transform">1 0 0 0 0 1 0 0 0 0 1 0 0 0 0 1</matrix>
        <node id="pickup_powerup_haste_qc_skeleton_jnt_spin" name="jnt_spin" sid="jnt_spin" type="JOINT">
          <matrix sid="transform">0.9985334 0 0.05413851 0 0 1 0 0 -0.05413851 0 0.9985334 0 0 0 0 1</matrix>
          <extra>
            <technique profile="blender">
              <layer sid="layer" type="string">0</layer>
              <roll sid="roll" type="float">0.05416494</roll>
              <tip_x sid="tip_x" type="float">0</tip_x>
              <tip_y sid="tip_y" type="float">0.000999987</tip_y>
              <tip_z sid="tip_z" type="float">0</tip_z>
            </technique>
          </extra>
        </node>
        <node id="pickup_powerup_haste" name="pickup_powerup_haste" type="NODE">
          <matrix sid="transform">1 0 0 0 0 1 0 0 0 0 1 0 0 0 0 1</matrix>
          <instance_controller url="#pickup_powerup_haste_qc_skeleton_pickup_powerup_haste-skin">
            <skeleton>#pickup_powerup_haste_qc_skeleton_jnt_spin</skeleton>
            <bind_material>
              <technique_common>
                <instance_material symbol="pickup_powerup_set_new-material" target="#pickup_powerup_set_new-material">
                  <bind_vertex_input semantic="UVMap" input_semantic="TEXCOORD" input_set="0"/>
                </instance_material>
              </technique_common>
            </bind_material>
          </instance_controller>
        </node>
      </node>
    </visual_scene>
  </library_visual_scenes>
  <scene>
    <instance_visual_scene url="#emitter_qc"/>
  </scene>
</COLLADA>