# Blender 3.3.0
# www.blender.org
mtllib target_soldier.mtl
o target_soldier
v -25.429306 65.228706 0.410034
v -26.574591 62.556366 0.410034
v -26.701847 60.011284 0.410034
v -26.065577 57.211700 0.410034
v -24.411272 55.175621 0.410034
v -19.448355 54.666618 0.410034
v -16.903271 55.430145 0.410034
v -22.247950 54.412094 0.410034
v -20.593645 70.191635 0.410034
v -23.647747 67.392029 0.410034
v -19.066595 72.354950 0.410034
v -0.614730 83.935089 0.410034
v -15.630730 54.793858 0.410034
v -14.358186 53.775829 0.410033
v -13.085645 52.757801 0.410033
v -11.304085 51.994274 0.410033
v 17.709877 57.847965 0.410032
v -11.813102 46.395096 0.410033
v 20.382219 48.558414 0.410031
v 17.964388 44.359028 0.410031
v -9.777034 43.340988 0.410032
v 17.964388 40.032383 0.410031
v 20.127707 35.451233 0.410031
v 23.436321 29.979305 0.410030
v 22.291031 26.416183 0.410030
v 18.600658 45.377068 0.410031
v 20.891233 60.520309 0.410032
v 18.982422 58.611492 0.410032
v 17.709877 72.354950 0.410032
v 16.437336 73.500244 0.410032
v 10.583645 76.299828 0.410033
v 4.475439 84.571358 0.410034
v 1.930355 84.698616 0.410034
v 8.929336 81.517250 0.410034
v 6.638761 83.426071 0.410034
v 10.074625 79.099426 0.410034
v 21.909267 64.846947 0.410032
v 21.272997 67.010269 0.410032
v 21.909267 62.556366 0.410032
v -0.996493 85.080383 0.410034
v -1.887273 86.352913 0.410034
v -5.577645 87.370941 0.410034
v -3.414324 87.243683 0.410034
v -13.085645 86.861938 0.410035
v -13.212898 89.788780 0.410035
v -5.959408 90.679550 0.410034
v -17.285034 78.081398 0.410035
v -18.557577 76.554352 0.410034
v -16.648764 82.026276 0.410035
v -15.248966 85.080383 0.410035
v 20.382219 48.558414 -0.557656
v 18.600658 45.377068 -0.557656
v 17.964388 44.359028 -0.557657
v 21.909267 64.846947 -0.557656
v 21.909267 62.556366 -0.557656
v 20.891233 60.520309 -0.557656
v -11.304085 51.994274 -0.557655
v 18.982422 58.611492 -0.557656
v 17.709877 57.847965 -0.557656
v -11.813102 46.395096 -0.557654
v -9.777034 43.340988 -0.557656
v 17.964388 40.032383 -0.557657
v 20.127707 35.451233 -0.557657
v 23.436321 29.979305 -0.557657
v 22.291031 26.416183 -0.557657
v 21.145741 25.270893 -0.557657
v 20.382219 24.634628 -0.557657
v -11.558595 28.479477 -0.557656
v -11.940357 26.443409 -0.557655
v -11.685848 24.916367 -0.557655
v -9.649780 22.116772 -0.557656
v -14.358186 53.775829 -0.557654
v -15.630730 54.793858 -0.557654
v -13.085645 52.757801 -0.557654
v 1.930355 84.698616 -0.557654
v 4.475439 84.571358 -0.557654
v 6.638761 83.426071 -0.557654
v -0.614730 83.935089 -0.557654
v -0.996493 85.080383 -0.557654
v -1.887273 86.352913 -0.557654
v -5.577645 87.370941 -0.557654
v -3.414324 87.243683 -0.557654
v -22.247950 54.412094 -0.557654
v -24.411272 55.175621 -0.557654
v -26.065577 57.211700 -0.557654
v -16.903271 55.430145 -0.557654
v -23.647747 67.392029 -0.557654
v -20.593645 70.191635 -0.557653
v -19.066595 72.354950 -0.557653
v -13.085645 86.861938 -0.557653
v -5.959408 90.679550 -0.557653
v -19.448355 54.666618 -0.557654
v -13.212898 89.788780 -0.557652
v -26.574591 62.556366 -0.557654
v -25.429306 65.228706 -0.557654
v -26.701847 60.011284 -0.557654
v -17.285034 78.081398 -0.557653
v -16.648764 82.026276 -0.557653
v -15.248966 85.080383 -0.557653
v -18.557577 76.554352 -0.557653
v 10.583645 76.299828 -0.557655
v 16.437336 73.500244 -0.557655
v 17.709877 72.354950 -0.557655
v 21.272997 67.010269 -0.557656
v 10.074625 79.099426 -0.557654
v 8.929336 81.517250 -0.557654
v -9.777034 20.971481 -0.557656
v 20.000456 20.816994 -0.557658
v 20.636726 18.144653 -0.557658
v -13.085645 17.026596 -0.557656
v 22.418287 15.981335 -0.557658
v 24.581606 13.818016 -0.557658
v 25.472387 11.909199 -0.557658
v -13.212898 0.063629 -0.557656
v 25.599640 -0.063633 -0.557658
v 25.472387 11.909199 0.410030
v 25.599640 -0.063633 0.410029
v 24.581606 13.818016 0.410030
v 22.418287 15.981335 0.410030
v 20.636726 18.144653 0.410030
v 20.000456 20.816994 0.410030
v 20.382219 24.634628 0.410030
v 21.145741 25.270893 0.410030
v -11.558595 28.479477 0.410033
v -11.940357 26.443409 0.410032
v -11.685848 24.916367 0.410031
v -9.649780 22.116772 0.410031
v -9.777034 20.971481 0.410031
v -13.085645 17.026596 0.410032
v -13.212898 0.063629 0.410031
vn -0.0000 -0.0000 1.0000
vn -0.0000 -0.0000 -1.0000
vn -0.5140 -0.8578 -0.0000
vn -0.3939 -0.9191 -0.0000
vn -0.6247 -0.7809 -0.0000
vn -0.5390 -0.8423 -0.0000
vn -0.0860 -0.9963 -0.0000
vn 0.1899 -0.9818 -0.0000
vn -0.1240 -0.9923 -0.0000
vn -0.5761 -0.8174 -0.0000
vn -0.5760 -0.8174 -0.0000
vn -0.8992 -0.4376 -0.0000
vn -0.9962 -0.0867 -0.0000
vn -0.9743 0.2255 -0.0000
vn -0.8541 0.5200 -0.0000
vn -0.7256 0.6881 -0.0000
vn -0.7506 0.6607 -0.0000
vn -0.9332 0.3594 -0.0000
vn -0.9180 0.3965 -0.0000
vn -0.9101 0.4144 -0.0000
vn -0.9568 0.2906 -0.0000
vn -0.7925 0.6098 -0.0000
vn -0.6357 0.7719 -0.0000
vn 0.9751 0.2218 -0.0000
vn 0.9999 0.0106 -0.0000
vn 0.8191 0.5737 -0.0000
vn 0.7404 0.6722 -0.0000
vn 0.8955 0.4451 -0.0000
vn 0.9978 0.0670 -0.0000
vn 0.8833 -0.4687 -0.0000
vn 0.6743 -0.7384 -0.0000
vn 0.8535 -0.5212 -0.0000
vn 0.9520 -0.3060 -0.0000
vn -0.9692 -0.2461 -0.0000
vn -0.9959 0.0905 -0.0000
vn -0.9727 -0.2322 -0.0000
vn -0.9884 0.1517 -0.0000
vn -0.9999 0.0101 -0.0000
vn -0.9222 -0.3866 -0.0000
vn -0.9666 -0.2562 -0.0000
vn -0.9194 0.3934 -0.0000
vn -0.9384 0.3454 -0.0000
vn -1.0000 0.0075 -0.0000
vn 0.6154 -0.7882 -0.0000
vn 0.5145 -0.8575 -0.0000
vn 0.8112 -0.5847 -0.0000
vn 0.9732 -0.2298 -0.0000
vn 0.9898 0.1425 -0.0000
vn 0.9060 0.4232 -0.0000
vn 0.7564 0.6541 -0.0000
vn 0.5559 0.8312 -0.0000
vn 0.4315 0.9021 -0.0000
vn 0.9520 0.3061 -0.0000
vn 0.9839 0.1789 -0.0000
vn 0.7905 0.6125 -0.0000
vn 0.5570 0.8305 -0.0000
vn 0.2652 0.9642 -0.0000
vn -0.1205 0.9927 -0.0000
vn -0.2873 0.9578 -0.0000
vn 0.8812 0.4728 -0.0000
vn 0.8557 0.5174 -0.0000
vn 0.9758 0.2188 -0.0000
vn 0.9612 -0.2757 -0.0000
vn 0.8605 -0.5094 -0.0000
vn 0.8725 -0.4886 -0.0000
vn 0.9934 0.1146 -0.0000
vn -0.1219 0.9925 -0.0000
vn -0.9991 -0.0434 -0.0000
vn 0.8933 0.4495 -0.0000
vn 0.9487 0.3162 -0.0000
vn 0.6773 0.7357 -0.0000
vn 0.2892 0.9573 -0.0000
vn 0.0587 0.9983 -0.0000
vn -0.0033 -1.0000 -0.0000
vn 0.9610 0.2765 -0.0000
vt 0.018698 0.718561
vt 0.997838 0.719529
vt 0.006452 0.689403
vt 0.997838 0.690079
vt 0.005091 0.661634
vt 0.997838 0.662032
vt 0.011895 0.631088
vt 0.997838 0.631181
vt 0.029584 0.608872
vt 0.997838 0.608743
vt 0.082653 0.603318
vt 0.997838 0.603133
vt 0.109868 0.611649
vt 0.997838 0.611548
vt 0.052717 0.600541
vt 0.997838 0.600329
vt 0.070406 0.772712
vt 0.997838 0.774221
vt 0.037749 0.742165
vt 0.997838 0.743369
vt 0.086735 0.796316
vt 0.997838 0.798061
vt 0.284042 0.922667
vt 0.997838 0.925675
vt 0.123475 0.604707
vt 0.997838 0.604536
vt 0.137083 0.593599
vt 0.997838 0.593317
vt 0.150690 0.582491
vt 0.997838 0.582098
vt 0.169740 0.574160
vt 0.997838 0.573684
vt 0.479988 0.638030
vt 0.997838 0.638192
vt 0.164297 0.513068
vt 0.997838 0.511980
vt 0.508564 0.536672
vt 0.997838 0.535820
vt 0.482710 0.490852
vt 0.997838 0.489543
vt 0.997838 0.478324
vt 0.186069 0.479744
vt 0.482710 0.443644
vt 0.997838 0.441863
vt 0.505842 0.393659
vt 0.997838 0.391378
vt 0.541221 0.333955
vt 0.997838 0.331077
vt 0.997838 0.291811
vt 0.528975 0.295078
vt 0.489513 0.501960
vt 0.997838 0.500762
vt 0.514007 0.667188
vt 0.997838 0.667642
vt 0.493596 0.646361
vt 0.997838 0.646606
vt 0.479988 0.796316
vt 0.997838 0.798061
vt 0.466381 0.808812
vt 0.997838 0.810682
vt 0.403787 0.839358
vt 0.997838 0.841534
vt 0.338472 0.929609
vt 0.997838 0.932687
vt 0.311257 0.930997
vt 0.997838 0.934089
vt 0.386097 0.896285
vt 0.997838 0.899030
vt 0.361604 0.917113
vt 0.997838 0.920066
vt 0.398344 0.869905
vt 0.997838 0.872386
vt 0.524893 0.714396
vt 0.997838 0.715322
vt 0.518089 0.738000
vt 0.997838 0.739162
vt 0.524893 0.689403
vt 0.997838 0.690079
vt 0.279960 0.935163
vt 0.997838 0.938297
vt 0.270435 0.949047
vt 0.997838 0.952320
vt 0.230973 0.960155
vt 0.997838 0.963539
vt 0.254106 0.958767
vt 0.997838 0.962136
vt 0.150690 0.954601
vt 0.997838 0.957929
vt 0.149329 0.986536
vt 0.997838 0.990184
vt 0.226891 0.996255
vt 0.997838 1.000000
vt 0.105786 0.858797
vt 0.997838 0.861167
vt 0.092178 0.842135
vt 0.997838 0.844339
vt 0.112589 0.901839
vt 0.997838 0.904640
vt 0.127557 0.935163
vt 0.997838 0.938297
vt 0.607066 0.539121
vt 0.974440 0.535820
vt 0.621540 0.504327
vt 0.974440 0.500762
vt 0.626709 0.493192
vt 0.974440 0.489543
vt 0.594660 0.717271
vt 0.974440 0.715322
vt 0.594660 0.692218
vt 0.974440 0.690079
vt 0.602931 0.669950
vt 0.974440 0.667642
vt 0.864499 0.576700
vt 0.974440 0.573684
vt 0.618439 0.649073
vt 0.974440 0.646606
vt 0.628777 0.640722
vt 0.974440 0.638192
vt 0.868635 0.515461
vt 0.974440 0.511980
vt 0.852093 0.482058
vt 0.974440 0.478324
vt 0.626709 0.445871
vt 0.974440 0.441863
vt 0.609134 0.395767
vt 0.974440 0.391378
vt 0.582253 0.335920
vt 0.974440 0.331077
vt 0.591558 0.296950
vt 0.974440 0.291811
vt 0.600863 0.284423
vt 0.974440 0.279189
vt 0.607066 0.277464
vt 0.974440 0.272178
vt 0.869450 0.320774
vt 0.979329 0.311315
vt 0.871940 0.298166
vt 0.981901 0.288093
vt 0.869447 0.281157
vt 0.975269 0.285207
vt 0.853290 0.252721
vt 0.984393 0.244737
vt 0.889312 0.596185
vt 0.974440 0.593317
vt 0.899651 0.607319
vt 0.974440 0.604536
vt 0.878973 0.585051
vt 0.974440 0.582098
vt 0.756977 0.934391
vt 0.974440 0.934089
vt 0.736299 0.932999
vt 0.974440 0.932687
vt 0.718724 0.920473
vt 0.974440 0.920066
vt 0.777654 0.926040
vt 0.974440 0.925675
vt 0.780756 0.938566
vt 0.974440 0.938297
vt 0.787993 0.952484
vt 0.974440 0.952320
vt 0.817975 0.963618
vt 0.974440 0.963539
vt 0.800399 0.962226
vt 0.974440 0.962136
vt 0.953412 0.603144
vt 0.974440 0.600329
vt 0.970988 0.611494
vt 0.974440 0.608743
vt 0.984428 0.633763
vt 0.974440 0.631181
vt 0.909989 0.614278
vt 0.974440 0.611548
vt 0.964784 0.745107
vt 0.974440 0.743369
vt 0.939971 0.775726
vt 0.974440 0.774221
vt 0.927565 0.799387
vt 0.974440 0.798061
vt 0.878973 0.958051
vt 0.974440 0.957929
vt 0.821077 0.999805
vt 0.974440 1.000000
vt 0.930667 0.605927
vt 0.974440 0.603133
vt 0.880007 0.990062
vt 0.974440 0.990184
vt 0.988563 0.692218
vt 0.974440 0.690079
vt 0.979258 0.721446
vt 0.974440 0.719529
vt 0.989597 0.664383
vt 0.974440 0.662032
vt 0.913091 0.862017
vt 0.974440 0.861167
vt 0.907921 0.905163
vt 0.974440 0.904640
vt 0.896549 0.938566
vt 0.974440 0.938297
vt 0.923429 0.845316
vt 0.974440 0.844339
vt 0.686674 0.842532
vt 0.974440 0.841534
vt 0.639116 0.811913
vt 0.974440 0.810682
vt 0.628777 0.799387
vt 0.974440 0.798061
vt 0.599829 0.740931
vt 0.974440 0.739162
vt 0.690809 0.873152
vt 0.974440 0.872386
vt 0.700114 0.899596
vt 0.974440 0.899030
vt 0.854519 0.238075
vt 0.974686 0.244196
vt 0.610168 0.235711
vt 0.974440 0.230107
vt 0.604998 0.206483
vt 0.974440 0.200657
vt 0.881571 0.196306
vt 0.974440 0.197830
vt 0.590524 0.182822
vt 0.974440 0.176817
vt 0.572948 0.159162
vt 0.974440 0.152977
vt 0.565711 0.138285
vt 0.974440 0.131942
vt 0.880007 0.008729
vt 0.974440 0.001402
vt 0.564678 0.007337
vt 0.974440 0.000000
vt 0.997838 0.131942
vt 0.562993 0.136792
vt 0.564354 0.006156
vt 0.997838 0.000000
vt 0.997838 0.152977
vt 0.553468 0.157619
vt 0.997838 0.176817
vt 0.530336 0.181223
vt 0.997838 0.200657
vt 0.511285 0.204827
vt 0.997838 0.230107
vt 0.504482 0.233985
vt 0.997838 0.272178
vt 0.508564 0.275639
vt 0.997838 0.279189
vt 0.516728 0.282581
vt 0.997919 0.315491
vt 0.166821 0.317672
vt 1.002728 0.288877
vt 0.162774 0.295428
vt 1.005300 0.276046
vt 0.165388 0.278937
vt 0.998668 0.254127
vt 0.187381 0.248180
vt 1.007792 0.233143
vt 0.185993 0.235813
vt 0.998085 0.200536
vt 0.150460 0.192671
vt 0.149329 0.007545
vt 0.997838 0.001402
s 1
usemtl target_soldier
f 1/1/1 2/3/1 3/5/1
f 3/5/1 4/7/1 5/9/1
f 3/5/1 6/11/1 7/13/1
f 3/5/1 5/9/1 6/11/1
f 5/9/1 8/15/1 6/11/1
f 9/17/1 10/19/1 1/1/1
f 9/17/1 1/1/1 3/5/1
f 11/21/1 9/17/1 3/5/1
f 11/21/1 3/5/1 7/13/1
f 12/23/1 11/21/1 7/13/1
f 12/23/1 7/13/1 13/25/1
f 12/23/1 13/25/1 14/27/1
f 12/23/1 14/27/1 15/29/1
f 12/23/1 15/29/1 16/31/1
f 17/33/1 12/23/1 16/31/1
f 17/33/1 16/31/1 18/35/1
f 19/37/1 17/33/1 18/35/1
f 20/39/1 19/37/1 18/35/1
f 20/39/1 18/35/1 21/42/1
f 22/43/1 20/39/1 21/42/1
f 23/45/1 22/43/1 21/42/1
f 24/47/1 23/45/1 21/42/1
f 25/50/1 24/47/1 21/42/1
f 20/39/1 26/51/1 19/37/1
f 17/33/1 27/53/1 12/23/1
f 17/33/1 28/55/1 27/53/1
f 29/57/1 30/59/1 31/61/1
f 27/53/1 29/57/1 31/61/1
f 27/53/1 31/61/1 32/63/1
f 27/53/1 32/63/1 12/23/1
f 32/63/1 33/65/1 12/23/1
f 34/67/1 35/69/1 32/63/1
f 31/61/1 34/67/1 32/63/1
f 31/61/1 36/71/1 34/67/1
f 37/73/1 38/75/1 29/57/1
f 27/53/1 37/73/1 29/57/1
f 27/53/1 39/77/1 37/73/1
f 12/23/1 40/79/1 41/81/1
f 12/23/1 41/81/1 42/83/1
f 41/81/1 43/85/1 42/83/1
f 12/23/1 44/87/1 11/21/1
f 12/23/1 42/83/1 44/87/1
f 42/83/1 45/89/1 44/87/1
f 42/83/1 46/91/1 45/89/1
f 47/93/1 48/95/1 11/21/1
f 44/87/1 47/93/1 11/21/1
f 44/87/1 49/97/1 47/93/1
f 44/87/1 50/99/1 49/97/1
f 51/101/2 52/103/2 53/105/2
f 54/107/2 55/109/2 56/111/2
f 57/113/2 54/107/2 56/111/2
f 57/113/2 56/111/2 58/115/2
f 57/113/2 58/115/2 59/117/2
f 60/119/2 57/113/2 59/117/2
f 60/119/2 59/117/2 51/101/2
f 60/119/2 51/101/2 53/105/2
f 61/121/2 60/119/2 53/105/2
f 61/121/2 53/105/2 62/123/2
f 61/121/2 62/123/2 63/125/2
f 61/121/2 63/125/2 64/127/2
f 61/121/2 64/127/2 65/129/2
f 61/121/2 65/129/2 66/131/2
f 61/121/2 66/131/2 67/133/2
f 68/135/2 61/121/2 67/133/2
f 69/137/2 68/135/2 67/133/2
f 70/139/2 69/137/2 67/133/2
f 71/141/2 70/139/2 67/133/2
f 57/113/2 72/143/2 73/145/2
f 57/113/2 74/147/2 72/143/2
f 75/149/2 76/151/2 77/153/2
f 57/113/2 75/149/2 77/153/2
f 57/113/2 78/155/2 75/149/2
f 57/113/2 79/157/2 78/155/2
f 57/113/2 80/159/2 79/157/2
f 57/113/2 81/161/2 80/159/2
f 81/161/2 82/163/2 80/159/2
f 83/165/2 84/167/2 85/169/2
f 86/171/2 83/165/2 85/169/2
f 86/171/2 85/169/2 87/173/2
f 73/145/2 86/171/2 87/173/2
f 57/113/2 73/145/2 87/173/2
f 57/113/2 87/173/2 88/175/2
f 57/113/2 88/175/2 89/177/2
f 57/113/2 89/177/2 90/179/2
f 57/113/2 90/179/2 81/161/2
f 90/179/2 91/181/2 81/161/2
f 86/171/2 92/183/2 83/165/2
f 90/179/2 93/185/2 91/181/2
f 94/187/2 95/189/2 87/173/2
f 85/169/2 94/187/2 87/173/2
f 85/169/2 96/191/2 94/187/2
f 97/193/2 98/195/2 99/197/2
f 97/193/2 99/197/2 90/179/2
f 89/177/2 97/193/2 90/179/2
f 89/177/2 100/199/2 97/193/2
f 101/201/2 102/203/2 103/205/2
f 103/205/2 104/207/2 54/107/2
f 101/201/2 103/205/2 54/107/2
f 57/113/2 101/201/2 54/107/2
f 57/113/2 77/153/2 101/201/2
f 77/153/2 105/209/2 101/201/2
f 77/153/2 106/211/2 105/209/2
f 74/148/3 57/114/4 16/32/4
f 16/32/4 15/30/3 74/148/3
f 72/144/5 74/148/3 15/30/3
f 15/30/3 14/28/5 72/144/5
f 73/146/6 72/144/5 14/28/5
f 14/28/5 13/26/6 73/146/6
f 86/172/7 73/146/6 13/26/6
f 13/26/6 7/14/7 86/172/7
f 92/184/8 86/172/7 7/14/7
f 7/14/7 6/12/8 92/184/8
f 83/166/9 92/184/8 6/12/8
f 6/12/8 8/16/9 83/166/9
f 84/168/10 83/166/9 8/16/9
f 8/16/9 5/10/11 84/168/10
f 85/170/12 84/168/10 5/10/11
f 5/10/11 4/8/12 85/170/12
f 96/192/13 85/170/12 4/8/12
f 4/8/12 3/6/13 96/192/13
f 94/188/14 96/192/13 3/6/13
f 3/6/13 2/4/14 94/188/14
f 95/190/15 94/188/14 2/4/14
f 2/4/14 1/2/15 95/190/15
f 87/174/16 95/190/15 1/2/15
f 1/2/15 10/20/16 87/174/16
f 88/176/17 87/174/16 10/20/16
f 10/20/16 9/18/17 88/176/17
f 89/178/18 88/176/17 9/18/17
f 9/18/17 11/22/18 89/178/18
f 100/200/19 89/178/18 11/22/18
f 11/22/18 48/96/19 100/200/19
f 97/194/20 100/200/19 48/96/19
f 48/96/19 47/94/20 97/194/20
f 98/196/21 97/194/20 47/94/20
f 47/94/20 49/98/21 98/196/21
f 99/198/22 98/196/21 49/98/21
f 49/98/21 50/100/22 99/198/22
f 90/180/23 99/198/22 50/100/22
f 50/100/22 44/88/23 90/180/23
f 107/213/2 71/141/2 67/133/2
f 107/213/2 67/133/2 108/215/2
f 107/213/2 108/215/2 109/217/2
f 110/219/2 107/213/2 109/217/2
f 110/219/2 109/217/2 111/221/2
f 110/219/2 111/221/2 112/223/2
f 113/225/2 110/219/2 112/223/2
f 113/225/2 114/227/2 110/219/2
f 113/225/2 115/229/2 114/227/2
f 116/231/24 117/234/25 115/230/25
f 115/230/25 113/226/24 116/231/24
f 118/235/26 116/231/24 113/226/24
f 113/226/24 112/224/26 118/235/26
f 119/237/27 118/235/26 112/224/26
f 112/224/26 111/222/27 119/237/27
f 120/239/28 119/237/27 111/222/27
f 111/222/27 109/218/28 120/239/28
f 121/241/29 120/239/28 109/218/28
f 109/218/28 108/216/29 121/241/29
f 122/243/30 121/241/29 108/216/29
f 108/216/29 67/134/30 122/243/30
f 123/245/31 122/243/30 67/134/30
f 67/134/30 66/132/31 123/245/31
f 25/49/32 123/245/31 66/132/31
f 66/132/31 65/130/32 25/49/32
f 24/48/33 25/49/32 65/130/32
f 65/130/32 64/128/33 24/48/33
f 18/36/34 16/32/35 57/114/35
f 57/114/35 60/120/34 18/36/34
f 21/41/36 18/36/34 60/120/34
f 60/120/34 61/122/36 21/41/36
f 124/247/37 21/41/36 61/122/36
f 61/122/36 68/136/37 124/247/37
f 125/249/38 124/247/37 68/136/37
f 68/136/37 69/138/38 125/249/38
f 126/251/39 125/249/38 69/138/38
f 69/138/38 70/140/39 126/251/39
f 127/253/40 126/251/39 70/140/39
f 70/140/39 71/142/40 127/253/40
f 128/255/41 127/253/40 71/142/40
f 71/142/40 107/214/41 128/255/41
f 129/257/42 128/255/41 107/214/41
f 107/214/41 110/220/42 129/257/42
f 130/260/43 129/257/42 110/220/42
f 110/220/42 114/228/43 130/260/43
f 28/56/44 17/34/45 59/118/45
f 59/118/45 58/116/44 28/56/44
f 27/54/46 28/56/44 58/116/44
f 58/116/44 56/112/46 27/54/46
f 39/78/47 27/54/46 56/112/46
f 56/112/46 55/110/47 39/78/47
f 37/74/48 39/78/47 55/110/47
f 55/110/47 54/108/48 37/74/48
f 38/76/49 37/74/48 54/108/48
f 54/108/48 104/208/49 38/76/49
f 29/58/50 38/76/49 104/208/49
f 104/208/49 103/206/50 29/58/50
f 30/60/51 29/58/50 103/206/50
f 103/206/50 102/204/51 30/60/51
f 31/62/52 30/60/51 102/204/51
f 102/204/51 101/202/52 31/62/52
f 36/72/53 31/62/54 101/202/54
f 101/202/54 105/210/53 36/72/53
f 34/68/55 36/72/53 105/210/53
f 105/210/53 106/212/55 34/68/55
f 35/70/56 34/68/55 106/212/55
f 106/212/55 77/154/56 35/70/56
f 32/64/57 35/70/56 77/154/56
f 77/154/56 76/152/57 32/64/57
f 33/66/58 32/64/57 76/152/57
f 76/152/57 75/150/58 33/66/58
f 12/24/59 33/66/58 75/150/58
f 75/150/58 78/156/59 12/24/59
f 123/246/1 25/50/1 21/42/1
f 122/244/1 123/246/1 21/42/1
f 122/244/1 21/42/1 124/248/1
f 122/244/1 124/248/1 125/250/1
f 122/244/1 125/250/1 126/252/1
f 122/244/1 126/252/1 127/254/1
f 122/244/1 127/254/1 128/256/1
f 121/242/1 122/244/1 128/256/1
f 120/240/1 121/242/1 128/256/1
f 120/240/1 128/256/1 129/258/1
f 119/238/1 120/240/1 129/258/1
f 118/236/1 119/238/1 129/258/1
f 116/232/1 118/236/1 129/258/1
f 130/259/1 116/232/1 129/258/1
f 130/259/1 117/233/1 116/232/1
f 23/46/60 24/48/61 64/128/61
f 64/128/61 63/126/60 23/46/60
f 22/44/62 23/46/60 63/126/60
f 63/126/60 62/124/62 22/44/62
f 20/40/63 22/44/62 62/124/62
f 62/124/62 53/106/63 20/40/63
f 26/52/64 20/40/63 53/106/63
f 53/106/63 52/104/64 26/52/64
f 19/38/65 26/52/64 52/104/64
f 52/104/64 51/102/65 19/38/65
f 46/92/66 42/84/66 81/162/66
f 81/162/66 91/182/66 46/92/66
f 45/90/67 46/92/67 91/182/67
f 91/182/67 93/186/67 45/90/67
f 44/88/68 45/90/68 93/186/68
f 93/186/68 90/180/68 44/88/68
f 40/80/69 12/24/70 78/156/70
f 78/156/70 79/158/69 40/80/69
f 41/82/71 40/80/69 79/158/69
f 79/158/69 80/160/71 41/82/71
f 43/86/72 41/82/71 80/160/71
f 80/160/71 82/164/72 43/86/72
f 42/84/73 43/86/72 82/164/72
f 82/164/72 81/162/73 42/84/73
f 117/234/74 130/260/74 114/228/74
f 114/228/74 115/230/74 117/234/74
f 17/34/75 19/38/75 51/102/75
f 51/102/75 59/118/75 17/34/75
