# Blender 3.3.0
# www.blender.org
mtllib target_demoman.mtl
o target_demoman
v -14.143669 0.000000 0.445345
v -14.240017 15.534815 0.445346
v -14.240017 15.534815 -0.413498
v -14.143669 0.000000 -0.413499
v -21.182547 51.736504 0.445347
v -21.471590 49.327839 0.445347
v -20.797167 46.148392 0.445347
v 17.548830 68.789879 0.445346
v 15.814596 71.776627 0.445346
v 13.983997 73.414520 0.445346
v 7.336082 75.437790 0.445347
v -12.222305 36.610077 0.445346
v -14.920013 64.454269 0.445348
v -19.159271 53.759781 0.445347
v -20.122736 53.278046 0.445347
v 10.997264 74.667015 0.445347
v -21.182547 64.068878 0.445348
v -4.899952 81.218597 0.445347
v -14.630972 67.922752 0.445348
v -2.780328 83.530914 0.445348
v -3.936487 82.663811 0.445348
v 2.422394 84.301697 0.445348
v 6.661651 77.268394 0.445347
v -0.853390 84.205353 0.445348
v 6.372609 81.411293 0.445347
v 4.927416 83.338226 0.445348
v 6.757998 78.906281 0.445347
v -15.498098 71.294891 0.445348
v -15.305404 69.656990 0.445348
v -5.959764 81.411293 0.445347
v -8.079396 81.411293 0.445347
v -11.451527 79.388016 0.445348
v -13.185770 74.185295 0.445348
v -15.401751 72.836433 0.445348
v -10.006334 80.833206 0.445347
v -12.415000 77.653763 0.445348
v 21.113665 0.000000 0.445343
v 21.113665 0.000000 -0.413501
v -2.780328 83.530914 -0.413496
v -0.853390 84.205353 -0.413496
v 2.422394 84.301697 -0.413496
v -4.899952 81.218597 -0.413496
v -3.936487 82.663811 -0.413496
v 4.927416 83.338226 -0.413496
v 6.372609 81.411293 -0.413496
v 6.661651 77.268394 -0.413496
v 7.336082 75.437790 -0.413497
v -14.920013 64.454269 -0.413496
v -13.185770 74.185295 -0.413496
v -14.630972 67.922752 -0.413496
v -15.498098 71.294891 -0.413496
v -15.401751 72.836433 -0.413496
v -15.305404 69.656990 -0.413496
v 6.757998 78.906281 -0.413496
v -8.079396 81.411293 -0.413496
v -5.959764 81.411293 -0.413496
v -11.451527 79.388016 -0.413495
v -12.415000 77.653763 -0.413495
v -10.006334 80.833206 -0.413496
v -19.159271 53.759781 -0.413497
v -21.182547 64.068878 -0.413496
v -20.989861 39.307785 -0.413497
v -20.797167 46.148392 -0.413497
v -21.182547 51.736504 -0.413497
v -21.471590 49.327839 -0.413497
v -20.122736 53.278046 -0.413497
v -21.567936 44.028770 -0.413497
v -21.664284 41.716450 -0.413497
v 16.681705 50.098598 -0.413499
v 18.994041 63.876183 -0.413498
v 18.030567 51.543808 -0.413499
v 17.548830 68.789879 -0.413498
v 13.983997 73.414520 -0.413498
v 10.997264 74.667015 -0.413497
v 18.512304 66.092171 -0.413498
v 15.814596 71.776627 -0.413498
v -17.714069 36.321033 -0.413497
v -19.640999 37.669888 -0.413497
v -12.222305 36.610077 -0.413497
v -13.089423 30.691689 -0.413497
v 16.970747 44.414158 -0.413499
v 15.814596 43.257999 -0.413499
v 17.548830 31.503693 -0.413500
v -13.378465 28.961647 -0.413497
v -13.089423 26.583931 -0.413498
v -12.442828 23.884789 -0.413498
v -11.250563 19.922417 -0.413498
v 21.499054 23.217875 -0.413500
v 18.897694 18.015152 -0.413500
v -11.279103 16.797304 -0.413498
v 18.897694 13.872242 -0.413500
v 19.090387 11.463577 -0.413500
v 19.957497 9.825680 -0.413500
v 20.631927 7.609711 -0.413501
v 18.030567 51.543808 0.445345
v 16.681705 50.098598 0.445345
v 18.994041 63.876183 0.445346
v 18.512304 66.092171 0.445346
v 16.970747 44.414158 0.445345
v 15.814596 43.257999 0.445345
v 17.548830 31.503693 0.445344
v 21.499054 23.217875 0.445344
v -11.279103 16.797304 0.445346
v -11.250563 19.922417 0.445346
v -19.640999 37.669888 0.445347
v -17.714069 36.321033 0.445346
v -15.016361 35.839298 0.445346
v -21.664284 41.716450 0.445347
v -21.567936 44.028770 0.445347
v -20.989861 39.307785 0.445347
v -13.089423 30.691689 0.445346
v -13.378465 28.961647 0.445346
v -13.089423 26.583931 0.445346
v -12.442828 23.884789 0.445346
v 18.897694 18.015152 0.445344
v 18.897694 13.872242 0.445344
v 19.090387 11.463577 0.445343
v 20.631927 7.609711 0.445343
v 19.957497 9.825680 0.445343
v -15.016361 35.839298 -0.413497
vn -1.0000 -0.0062 -0.0000
vn -0.0000 -0.0000 1.0000
vn -0.0000 -1.0000 -0.0000
vn -0.0000 -0.0000 -1.0000
vn -0.9813 -0.1926 -0.0000
vn -0.0614 0.9981 -0.0000
vn -0.9996 -0.0273 -0.0000
vn -0.9981 0.0624 -0.0000
vn -0.9704 -0.2416 -0.0000
vn -0.9897 -0.1434 -0.0000
vn -0.9965 0.0830 -0.0000
vn -0.5199 0.8542 -0.0000
vn 0.9153 -0.4027 -0.0000
vn 0.7311 -0.6823 -0.0000
vn 0.9977 0.0680 -0.0000
vn 0.9615 0.2750 -0.0000
vn 0.9071 0.4210 -0.0000
vn 0.7754 0.6315 -0.0000
vn 0.5341 0.8454 -0.0000
vn 0.2977 0.9547 -0.0000
vn 0.2060 0.9785 -0.0000
vn 0.9987 0.0508 -0.0000
vn 0.7071 -0.7071 -0.0000
vn 0.9566 0.2914 -0.0000
vn 0.9027 0.4303 -0.0000
vn 0.9893 0.1460 -0.0000
vn -0.8318 0.5551 -0.0000
vn -1.0000 0.0091 -0.0000
vn -0.3922 0.9199 -0.0000
vn -0.9654 -0.2607 -0.0000
vn -0.9576 -0.2881 -0.0000
vn -0.9842 -0.1771 -0.0000
vn -0.9998 0.0223 -0.0000
vn -0.9879 0.1549 -0.0000
vn -0.9894 0.1450 -0.0000
vn 0.0898 0.9960 -0.0000
vn 0.1789 0.9839 -0.0000
vn -0.1452 0.9894 -0.0000
vn -0.5128 0.8585 -0.0000
vn -0.7983 0.6022 -0.0000
vn -0.9349 0.3550 -0.0000
vn -0.9762 0.2169 -0.0000
vn 0.9840 0.1784 -0.0000
vn 0.9980 0.0632 -0.0000
vn 0.9245 0.3813 -0.0000
vn 0.9601 0.2796 -0.0000
vn 0.9992 0.0399 -0.0000
vn 0.9732 -0.2298 -0.0000
vn 0.8944 -0.4472 -0.0000
vn 0.9892 0.1466 -0.0000
vn 0.9383 0.3457 -0.0000
vn 0.9989 0.0469 -0.0000
vn 0.9218 0.3876 -0.0000
vn 0.6030 0.7978 -0.0000
vn 0.1681 0.9858 -0.0000
vn -0.1820 0.9833 -0.0000
vn -0.4707 0.8823 -0.0000
vn -0.7265 0.6872 -0.0000
vn -0.8321 0.5547 -0.0000
vn -0.6564 0.7544 -0.0000
vn -0.9356 0.3531 -0.0000
vn -0.4472 0.8944 -0.0000
vn 0.0462 -0.9989 -0.0000
vn 0.2659 -0.9640 -0.0000
vn -0.3836 -0.9235 -0.0000
vn -0.6789 -0.7342 -0.0000
vn -0.8865 -0.4626 -0.0000
vn -0.9933 -0.1154 -0.0000
vn -0.9810 0.1940 -0.0000
vn -0.9976 0.0698 -0.0000
vn -0.9990 -0.0448 -0.0000
vt 0.999736 0.000015
vt 0.089852 -0.007192
vt 0.999736 0.206235
vt 0.088503 0.177310
vt 0.904384 0.199371
vt 0.979712 0.206235
vt 0.979712 0.000015
vt 0.903385 0.021858
vt 0.007308 0.607036
vt 0.999736 0.613707
vt 0.003918 0.578440
vt 0.999736 0.585135
vt 0.011827 0.540693
vt 0.999736 0.547419
vt 0.999736 0.815996
vt 0.461507 0.809498
vt 0.441170 0.844957
vt 0.999736 0.851426
vt 0.419703 0.864402
vt 0.999736 0.870854
vt 0.341743 0.888423
vt 0.999736 0.894855
vt 0.112384 0.427452
vt 0.999736 0.434274
vt 0.080748 0.758024
vt 0.999736 0.764567
vt 0.031034 0.631057
vt 0.999736 0.637707
vt 0.019736 0.625338
vt 0.999736 0.631993
vt 0.384678 0.879272
vt 0.999736 0.885712
vt 0.007308 0.753449
vt 0.999736 0.759995
vt 0.198252 0.957054
vt 0.999736 0.963428
vt 0.084137 0.799203
vt 0.999736 0.805710
vt 0.223109 0.984507
vt 0.999736 0.990857
vt 0.209551 0.974212
vt 0.999736 0.980571
vt 0.284121 0.993658
vt 0.999736 1.000000
vt 0.333834 0.910156
vt 0.999736 0.916570
vt 0.245706 0.992514
vt 0.999736 0.998857
vt 0.330445 0.959342
vt 0.999736 0.965714
vt 0.313497 0.982219
vt 0.999736 0.988571
vt 0.334964 0.929602
vt 0.999736 0.935999
vt 0.073969 0.839238
vt 0.999736 0.845711
vt 0.076228 0.819792
vt 0.999736 0.826282
vt 0.185824 0.959342
vt 0.999736 0.965714
vt 0.160967 0.959342
vt 0.999736 0.965714
vt 0.121423 0.935321
vt 0.999736 0.941713
vt 0.101085 0.873553
vt 0.999736 0.879998
vt 0.075099 0.857539
vt 0.999736 0.863997
vt 0.138370 0.952479
vt 0.999736 0.958856
vt 0.110124 0.914732
vt 0.999736 0.921141
vt 0.503312 -0.007192
vt 0.999736 0.000000
vt 0.555544 0.021851
vt 0.979712 0.000000
vt 0.791277 0.964412
vt 0.979712 0.990857
vt 0.772267 0.972022
vt 0.979712 0.998857
vt 0.739948 0.973109
vt 0.979712 1.000000
vt 0.812189 0.938320
vt 0.979712 0.963428
vt 0.802684 0.954627
vt 0.979712 0.980571
vt 0.715234 0.962237
vt 0.979712 0.988571
vt 0.700976 0.940494
vt 0.979712 0.965714
vt 0.698125 0.893746
vt 0.979712 0.916570
vt 0.691471 0.873089
vt 0.979712 0.894855
vt 0.911045 0.749152
vt 0.979712 0.764567
vt 0.893935 0.858956
vt 0.979712 0.879998
vt 0.908193 0.788290
vt 0.979712 0.805710
vt 0.916748 0.826341
vt 0.979712 0.845711
vt 0.915797 0.843736
vt 0.979712 0.863997
vt 0.914847 0.807859
vt 0.979712 0.826282
vt 0.697174 0.912228
vt 0.979712 0.935999
vt 0.843557 0.940494
vt 0.979712 0.965714
vt 0.822645 0.940494
vt 0.979712 0.965714
vt 0.876825 0.917663
vt 0.979712 0.941713
vt 0.886331 0.898094
vt 0.979712 0.921141
vt 0.862567 0.933971
vt 0.979712 0.958856
vt 0.952868 0.628475
vt 0.979712 0.637707
vt 0.972830 0.744803
vt 0.979712 0.759995
vt 0.970928 0.465399
vt 0.979712 0.466275
vt 0.969027 0.542589
vt 0.979712 0.547419
vt 0.972830 0.605645
vt 0.979712 0.613707
vt 0.975681 0.578465
vt 0.979712 0.585135
vt 0.962374 0.623039
vt 0.979712 0.631993
vt 0.976632 0.518671
vt 0.979712 0.522276
vt 0.977582 0.492579
vt 0.979712 0.494847
vt 0.599269 0.587163
vt 0.979712 0.594278
vt 0.576456 0.742628
vt 0.979712 0.757709
vt 0.585962 0.603470
vt 0.979712 0.611421
vt 0.590714 0.798074
vt 0.979712 0.815996
vt 0.625884 0.850259
vt 0.979712 0.870854
vt 0.655351 0.864392
vt 0.979712 0.885712
vt 0.581209 0.767634
vt 0.979712 0.783996
vt 0.607824 0.831777
vt 0.979712 0.851426
vt 0.979712 0.430846
vt 0.938610 0.431697
vt 0.957621 0.446917
vt 0.979712 0.446846
vt 0.979712 0.434274
vt 0.884430 0.434959
vt 0.891119 0.369217
vt 0.979712 0.366680
vt 0.596418 0.523019
vt 0.979712 0.526848
vt 0.607824 0.509973
vt 0.979712 0.513133
vt 0.590714 0.377338
vt 0.979712 0.373702
vt 0.895959 0.348938
vt 0.979712 0.344699
vt 0.892844 0.322360
vt 0.979712 0.317230
vt 0.886365 0.292672
vt 0.979712 0.286752
vt 0.876574 0.247429
vt 0.979712 0.237950
vt 0.551742 0.283841
vt 0.979712 0.275414
vt 0.577407 0.225134
vt 0.979712 0.213699
vt 0.874968 0.211340
vt 0.979712 0.218981
vt 0.577407 0.178385
vt 0.979712 0.164555
vt 0.575506 0.151206
vt 0.979712 0.135983
vt 0.566951 0.132724
vt 0.979712 0.116554
vt 0.560297 0.107719
vt 0.979712 0.090268
vt 0.999736 0.611421
vt 0.467157 0.604748
vt 0.999736 0.594278
vt 0.451339 0.587590
vt 0.999736 0.757709
vt 0.478455 0.751161
vt 0.999736 0.783996
vt 0.472806 0.777470
vt 0.999736 0.526848
vt 0.454728 0.520103
vt 0.999736 0.513133
vt 0.441170 0.506377
vt 0.999736 0.373702
vt 0.461507 0.366827
vt 0.507831 0.268456
vt 0.999736 0.275414
vt 0.999736 0.218981
vt 0.123355 0.192485
vt 0.123655 0.229337
vt 0.999736 0.237950
vt 0.025385 0.440034
vt 0.999736 0.446846
vt 0.047982 0.424020
vt 0.999736 0.430846
vt 0.079618 0.418301
vt 0.999736 0.425131
vt 0.001658 0.488076
vt 0.999736 0.494847
vt 0.002788 0.515528
vt 0.999736 0.522276
vt 0.009567 0.459479
vt 0.999736 0.466275
vt 0.102343 0.357231
vt 0.999736 0.366680
vt 0.098819 0.336651
vt 0.999736 0.344699
vt 0.102240 0.308424
vt 0.999736 0.317230
vt 0.109826 0.276375
vt 0.999736 0.286752
vt 0.477325 0.206689
vt 0.999736 0.213699
vt 0.477325 0.157503
vt 0.999736 0.164555
vt 0.479585 0.128907
vt 0.999736 0.135983
vt 0.497663 0.083153
vt 0.999736 0.090268
vt 0.489754 0.109461
vt 0.999736 0.116554
vt 0.979712 0.425131
vt 0.911995 0.426261
s 1
usemtl target_demoman
f 1/1/1 2/3/1 3/6/1
f 3/6/1 4/7/1 1/1/1
f 5/9/2 6/11/2 7/13/2
f 8/16/2 9/17/2 10/19/2
f 8/16/2 10/19/2 11/21/2
f 12/23/2 8/16/2 11/21/2
f 13/25/2 12/23/2 11/21/2
f 13/25/2 7/13/2 12/23/2
f 13/25/2 14/27/2 7/13/2
f 14/27/2 5/9/2 7/13/2
f 14/27/2 15/29/2 5/9/2
f 10/19/2 16/31/2 11/21/2
f 13/25/2 17/33/2 14/27/2
f 13/25/2 11/21/2 18/35/2
f 19/37/2 13/25/2 18/35/2
f 20/39/2 21/41/2 18/35/2
f 22/43/2 20/39/2 18/35/2
f 11/21/2 22/43/2 18/35/2
f 11/21/2 23/45/2 22/43/2
f 22/43/2 24/47/2 20/39/2
f 25/49/2 26/51/2 22/43/2
f 23/45/2 25/49/2 22/43/2
f 23/45/2 27/53/2 25/49/2
f 28/55/2 29/57/2 19/37/2
f 18/35/2 30/59/2 31/61/2
f 18/35/2 31/61/2 32/63/2
f 19/37/2 18/35/2 32/63/2
f 33/65/2 19/37/2 32/63/2
f 33/65/2 28/55/2 19/37/2
f 33/65/2 34/67/2 28/55/2
f 31/61/2 35/69/2 32/63/2
f 33/65/2 32/63/2 36/71/2
f 37/74/3 1/1/3 4/7/3
f 4/7/3 38/76/3 37/74/3
f 39/77/4 40/79/4 41/81/4
f 42/83/4 39/77/4 41/81/4
f 42/83/4 43/85/4 39/77/4
f 41/81/4 44/87/4 45/89/4
f 41/81/4 45/89/4 46/91/4
f 42/83/4 41/81/4 46/91/4
f 42/83/4 46/91/4 47/93/4
f 42/83/4 47/93/4 48/95/4
f 49/97/4 42/83/4 48/95/4
f 49/97/4 48/95/4 50/99/4
f 51/101/4 49/97/4 50/99/4
f 51/101/4 52/103/4 49/97/4
f 51/101/4 50/99/4 53/105/4
f 45/89/4 54/107/4 46/91/4
f 55/109/4 56/111/4 42/83/4
f 49/97/4 55/109/4 42/83/4
f 49/97/4 57/113/4 55/109/4
f 49/97/4 58/115/4 57/113/4
f 57/113/4 59/117/4 55/109/4
f 60/119/4 61/121/4 48/95/4
f 47/93/4 62/123/4 48/95/4
f 62/123/4 60/119/4 48/95/4
f 62/123/4 63/125/4 60/119/4
f 63/125/4 64/127/4 60/119/4
f 63/125/4 65/129/4 64/127/4
f 64/127/4 66/131/4 60/119/4
f 62/123/4 67/133/4 63/125/4
f 62/123/4 68/135/4 67/133/4
f 47/93/4 69/137/4 62/123/4
f 70/139/4 71/141/4 69/137/4
f 72/143/4 70/139/4 69/137/4
f 47/93/4 72/143/4 69/137/4
f 47/93/4 73/145/4 72/143/4
f 47/93/4 74/147/4 73/145/4
f 72/143/4 75/149/4 70/139/4
f 73/145/4 76/151/4 72/143/4
f 77/154/4 78/155/4 62/123/4
f 79/158/4 77/154/4 62/123/4
f 69/137/4 79/158/4 62/123/4
f 69/137/4 80/159/4 79/158/4
f 69/137/4 81/161/4 80/159/4
f 81/161/4 82/163/4 80/159/4
f 82/163/4 83/165/4 80/159/4
f 83/165/4 84/167/4 80/159/4
f 83/165/4 85/169/4 84/167/4
f 83/165/4 86/171/4 85/169/4
f 83/165/4 87/173/4 86/171/4
f 83/165/4 88/175/4 87/173/4
f 88/175/4 89/177/4 87/173/4
f 89/177/4 90/179/4 87/173/4
f 89/177/4 3/5/4 90/179/4
f 89/177/4 91/181/4 3/5/4
f 91/181/4 92/183/4 3/5/4
f 92/183/4 93/185/4 3/5/4
f 93/185/4 4/8/4 3/5/4
f 93/185/4 38/75/4 4/8/4
f 93/185/4 94/187/4 38/75/4
f 14/28/5 17/34/5 61/122/5
f 61/122/5 60/120/5 14/28/5
f 17/34/6 13/26/6 48/96/6
f 48/96/6 61/122/6 17/34/6
f 28/56/7 34/68/8 52/104/8
f 52/104/8 51/102/7 28/56/7
f 29/58/9 28/56/7 51/102/7
f 51/102/7 53/106/9 29/58/9
f 19/38/10 29/58/9 53/106/9
f 53/106/9 50/100/10 19/38/10
f 13/26/11 19/38/10 50/100/10
f 50/100/10 48/96/11 13/26/11
f 34/68/12 33/66/12 49/98/12
f 49/98/12 52/104/12 34/68/12
f 95/189/13 96/191/14 69/138/14
f 69/138/14 71/142/13 95/189/13
f 97/193/15 95/189/13 71/142/13
f 71/142/13 70/140/15 97/193/15
f 98/195/16 97/193/15 70/140/15
f 70/140/15 75/150/16 98/195/16
f 8/15/17 98/195/16 75/150/16
f 75/150/16 72/144/17 8/15/17
f 9/18/18 8/15/17 72/144/17
f 72/144/17 76/152/18 9/18/18
f 10/20/19 9/18/18 76/152/18
f 76/152/18 73/146/19 10/20/19
f 16/32/20 10/20/19 73/146/19
f 73/146/19 74/148/20 16/32/20
f 11/22/21 16/32/20 74/148/20
f 74/148/20 47/94/21 11/22/21
f 96/191/22 99/197/22 81/162/22
f 81/162/22 69/138/22 96/191/22
f 81/162/23 99/197/23 100/199/23
f 100/199/23 82/164/23 81/162/23
f 101/201/24 102/204/25 88/176/25
f 88/176/25 83/166/24 101/201/24
f 100/199/26 101/201/24 83/166/24
f 83/166/24 82/164/26 100/199/26
f 103/205/27 104/208/28 87/174/28
f 87/174/28 90/180/27 103/205/27
f 2/3/29 103/205/27 90/180/27
f 90/180/27 3/6/29 2/3/29
f 105/209/2 106/211/2 107/213/2
f 105/209/2 107/213/2 12/23/2
f 7/13/2 105/209/2 12/23/2
f 7/13/2 108/215/2 105/209/2
f 7/13/2 109/217/2 108/215/2
f 108/215/2 110/219/2 105/209/2
f 97/194/2 98/196/2 8/16/2
f 96/192/2 97/194/2 8/16/2
f 12/23/2 96/192/2 8/16/2
f 12/23/2 100/200/2 96/192/2
f 12/23/2 111/221/2 100/200/2
f 111/221/2 101/202/2 100/200/2
f 111/221/2 112/223/2 101/202/2
f 112/223/2 113/225/2 101/202/2
f 113/225/2 114/227/2 101/202/2
f 114/227/2 104/207/2 101/202/2
f 104/207/2 102/203/2 101/202/2
f 104/207/2 115/229/2 102/203/2
f 104/207/2 103/206/2 115/229/2
f 103/206/2 116/231/2 115/229/2
f 103/206/2 117/233/2 116/231/2
f 103/206/2 2/4/2 117/233/2
f 2/4/2 1/2/2 117/233/2
f 1/2/2 118/235/2 117/233/2
f 1/2/2 37/73/2 118/235/2
f 118/235/2 119/237/2 117/233/2
f 100/200/2 99/198/2 96/192/2
f 86/172/30 87/174/31 104/208/31
f 104/208/31 114/228/30 86/172/30
f 85/170/32 86/172/30 114/228/30
f 114/228/30 113/226/32 85/170/32
f 84/168/33 85/170/32 113/226/32
f 113/226/32 112/224/33 84/168/33
f 80/160/34 84/168/33 112/224/33
f 112/224/33 111/222/34 80/160/34
f 79/157/35 80/160/34 111/222/34
f 111/222/34 12/24/35 79/157/35
f 30/60/36 18/36/37 42/84/37
f 42/84/37 56/112/36 30/60/36
f 31/62/38 30/60/36 56/112/36
f 56/112/36 55/110/38 31/62/38
f 35/70/39 31/62/38 55/110/38
f 55/110/38 59/118/39 35/70/39
f 32/64/40 35/70/39 59/118/39
f 59/118/39 57/114/40 32/64/40
f 36/72/41 32/64/40 57/114/40
f 57/114/40 58/116/41 36/72/41
f 33/66/42 36/72/41 58/116/41
f 58/116/41 49/98/42 33/66/42
f 118/236/43 37/74/44 38/76/44
f 38/76/44 94/188/43 118/236/43
f 119/238/45 118/236/43 94/188/43
f 94/188/43 93/186/45 119/238/45
f 117/234/46 119/238/45 93/186/45
f 93/186/45 92/184/46 117/234/46
f 116/232/47 117/234/46 92/184/46
f 92/184/46 91/182/47 116/232/47
f 115/230/48 116/232/47 91/182/47
f 91/182/47 89/178/48 115/230/48
f 102/204/49 115/230/48 89/178/48
f 89/178/48 88/176/49 102/204/49
f 23/46/50 11/22/51 47/94/51
f 47/94/51 46/92/50 23/46/50
f 27/54/52 23/46/50 46/92/50
f 46/92/50 54/108/52 27/54/52
f 25/50/53 27/54/52 54/108/52
f 54/108/52 45/90/53 25/50/53
f 26/52/54 25/50/53 45/90/53
f 45/90/53 44/88/54 26/52/54
f 22/44/55 26/52/54 44/88/54
f 44/88/54 41/82/55 22/44/55
f 24/48/56 22/44/55 41/82/55
f 41/82/55 40/80/56 24/48/56
f 20/40/57 24/48/56 40/80/56
f 40/80/56 39/78/57 20/40/57
f 21/42/58 20/40/57 39/78/57
f 39/78/57 43/86/58 21/42/58
f 18/36/59 21/42/58 43/86/58
f 43/86/58 42/84/59 18/36/59
f 66/132/60 64/128/61 5/10/61
f 5/10/61 15/30/60 66/132/60
f 60/120/62 66/132/60 15/30/60
f 15/30/60 14/28/62 60/120/62
f 120/239/63 79/157/64 12/24/64
f 12/24/64 107/214/63 120/239/63
f 77/153/65 120/239/63 107/214/63
f 107/214/63 106/212/65 77/153/65
f 78/156/66 77/153/65 106/212/65
f 106/212/65 105/210/66 78/156/66
f 62/124/67 78/156/66 105/210/66
f 105/210/66 110/220/67 62/124/67
f 68/136/68 62/124/67 110/220/67
f 110/220/67 108/216/68 68/136/68
f 67/134/69 68/136/68 108/216/68
f 108/216/68 109/218/69 67/134/69
f 63/126/70 67/134/69 109/218/69
f 109/218/69 7/14/70 63/126/70
f 65/130/71 63/126/70 7/14/70
f 7/14/70 6/12/71 65/130/71
f 64/128/61 65/130/71 6/12/71
f 6/12/71 5/10/61 64/128/61
f 96/192/2 95/190/2 97/194/2
f 79/158/4 120/240/4 77/154/4
